<svg id="Capa_1" data-name="Capa 1" xmlns="http://www.w3.org/2000/svg" viewBox="0 0 41.37 47.51"><defs><style>.cls-1,.cls-3{fill:none;stroke-miterlimit:10;stroke-width:2px;}.cls-1{stroke:#4760ff;}.cls-2{fill:#4760ff;}.cls-3{stroke:#e7edfa;}.cls-4{fill:#fff;}</style></defs><title>pago_señal</title><path class="cls-1" d="M7.07,2.06" transform="translate(-2.83 -0.25)"/><path class="cls-1" d="M7.54,1.81" transform="translate(-2.83 -0.25)"/><path class="cls-2" d="M19,11.72c3.24,5.28,3.5,11.57.45,13.44S11.13,23.78,7.89,18.5,4.5,7.41,7.55,5.54,15.71,6.43,19,11.72Z" transform="translate(-2.83 -0.25)"/><path class="cls-3" d="M17,28.88" transform="translate(-2.83 -0.25)"/><path class="cls-3" d="M17,43" transform="translate(-2.83 -0.25)"/><path class="cls-3" d="M13.61,30.49" transform="translate(-2.83 -0.25)"/><path class="cls-3" d="M13.61,41.11" transform="translate(-2.83 -0.25)"/><path class="cls-3" d="M26.3,20" transform="translate(-2.83 -0.25)"/><path class="cls-3" d="M25.89,16.13" transform="translate(-2.83 -0.25)"/><path class="cls-3" d="M32.51,11" transform="translate(-2.83 -0.25)"/><path class="cls-3" d="M25.69,15.32" transform="translate(-2.83 -0.25)"/><path class="cls-3" d="M35.46,12.85" transform="translate(-2.83 -0.25)"/><path class="cls-3" d="M28.24,17.4" transform="translate(-2.83 -0.25)"/><path class="cls-2" d="M22.59,27.23l-.23-.34,1-.67c2.27-1.39,3.21-4.78,2.51-9.06a22.45,22.45,0,0,0-3.06-8c-.16-.27-.33-.54-.5-.8C18.15,2,12.49-.81,8.54,1.39L6,3l-.23-.35L8.32,1c4.17-2.31,10.05.6,14.33,7.06.17.26.35.53.51.8a22.9,22.9,0,0,1,3.12,8.21c.72,4.45-.29,8-2.7,9.46Z" transform="translate(-2.83 -0.25)"/><path class="cls-2" d="M18.41,29.08a7.69,7.69,0,0,1-1.88-.24l.1-.4A5.82,5.82,0,0,0,21.07,28c3.84-2.36,3.58-10.35-.56-17.11S9.9.65,6,3s-3.69,9.69.34,16.35l.08.13a25.39,25.39,0,0,0,4.24,5.26l-.28.3a26.12,26.12,0,0,1-4.31-5.34L6,19.59C1.85,12.74,1.77,5.15,5.8,2.68s10.83,1.08,15.06,8A22.18,22.18,0,0,1,24.2,21.1c.1,3.4-1,6-2.92,7.24A5.5,5.5,0,0,1,18.41,29.08Z" transform="translate(-2.83 -0.25)"/><polygon class="cls-2" points="10.62 30.53 7.49 24.72 7.85 24.53 10.78 29.96 13.79 28.19 13.99 28.55 10.62 30.53"/><path class="cls-2" d="M25.18,47.75a.29.29,0,0,1-.16,0,.3.3,0,0,1-.15-.26V28.34L43.62,17.46a.37.37,0,0,1,.38,0,.38.38,0,0,1,.2.33v19a.42.42,0,0,1-.22.37L25.33,47.71A.28.28,0,0,1,25.18,47.75Zm.11-19.17V47.26l18.49-10.5h0V17.84Z" transform="translate(-2.83 -0.25)"/><path class="cls-2" d="M25,47.75a.26.26,0,0,1-.15,0L6.18,37.12A.42.42,0,0,1,6,36.75V19.49h.41V36.75l18.5,10.51V28.46h.42v19a.32.32,0,0,1-.16.27A.26.26,0,0,1,25,47.75Z" transform="translate(-2.83 -0.25)"/><path class="cls-2" d="M25.08,28.7l-2.69-1.56.21-.36,2.48,1.45L43.36,17.61,25.22,7a.28.28,0,0,0-.28,0L22.58,8.38,22.37,8l2.36-1.38a.73.73,0,0,1,.7,0l18.75,11Z" transform="translate(-2.83 -0.25)"/><polygon class="cls-4" points="9.25 13.3 11.49 14.71 11.49 20.96 9.25 19.61 9.25 13.3"/><ellipse class="cls-4" cx="13.2" cy="11.41" rx="1.15" ry="1.71" transform="translate(-6.3 6) rotate(-23.64)"/><polyline class="cls-2" points="33.74 41 30.33 42.94 30.3 23.7 33.68 21.73"/><polyline class="cls-2" points="10.62 30.18 10.57 40.81 14.09 42.67 14.03 28.5 13.68 28.36"/><polygon class="cls-2" points="33.6 21.63 30.37 23.56 23.47 19.35 22.86 15.07 33.6 21.63"/><polygon class="cls-2" points="24.73 18.06 23.04 15.13 29.96 11.13 33.33 13.1 24.73 18.06"/></svg>
