<svg width="145" height="145" viewBox="0 0 145 145" fill="none" xmlns="http://www.w3.org/2000/svg">
<g clip-path="url(#clip0_1776_1932)">
<g clip-path="url(#clip1_1776_1932)">
<path opacity="0.08" d="M19.2943 109.583C14.4664 106.794 6.64033 106.794 1.81237 109.583C-3.01558 112.373 -3.01558 116.891 1.81237 119.674C6.64033 122.464 14.4664 122.464 19.2943 119.674C24.1223 116.885 24.1223 112.367 19.2943 109.583Z" fill="#4760FF"/>
<path fill-rule="evenodd" clip-rule="evenodd" d="M75.838 43.9893L47.7226 60.0288L48.3306 65.9654L15.0117 84.9733L91.3054 128.729L146.714 96.1312L101.331 69.2556L93.5286 55.6777L75.838 43.9893Z" fill="white"/>
<path d="M43.5404 90.1228L43.4332 89.9678L47.6233 87.0054L45.4537 80.2344L39.5529 84.4067C38.9569 83.9239 38.3489 83.5365 37.7231 83.2504C36.2508 82.5709 34.9693 82.5768 34.0574 83.1192C34.0455 83.1073 3.98099 104.362 3.98099 104.362C3.34323 104.964 2.9856 105.936 2.9856 107.176C2.9856 107.17 2.16902 107.766 2.16902 107.766C1.56701 108.308 1.24515 109.232 1.3584 110.46C1.60278 113.118 3.76642 116.176 6.18636 117.29C7.50957 117.898 8.63014 117.803 9.33943 117.159L9.79242 116.843C10.9726 117.267 12.0037 117.237 12.7965 116.831L12.8442 116.808C13.023 116.712 13.1899 116.593 13.3448 116.456L42.4556 95.8746C43.5464 95.2845 44.1484 93.9613 43.9756 92.0837C43.916 91.44 43.7729 90.7784 43.5524 90.1228H43.5404Z" fill="white"/>
<path d="M34.0491 83.1191L3.9727 104.362C3.17996 104.279 1.74946 108.302 4.96213 112.82C4.96213 112.82 7.28671 116.116 9.78413 116.843C10.5053 117.052 11.9955 117.237 12.7882 116.831L42.8586 95.5884C39.9916 97.3646 36.5286 94.3725 34.973 92.4413C33.2504 90.3074 31.194 85.1338 34.0491 83.1191V83.1191Z" fill="#4760FF"/>
<path d="M100.479 22.4068C99.4832 21.4948 98.3745 20.7438 97.1765 20.1537C97.1825 20.1239 91.669 17.4894 91.669 17.4894C81.0356 12.4409 65.4073 21.1909 54.7083 39.0901C42.704 59.1827 41.3927 83.2927 51.7877 92.8413C53.105 94.0513 59.8999 97.4011 59.8999 97.4011C70.5393 103.201 86.6265 94.4566 97.558 76.158C109.562 56.0654 110.874 31.9554 100.479 22.4068V22.4068ZM87.7709 69.4585C78.717 84.6099 65.008 91.2976 57.17 84.0974C56.7111 83.6742 56.2879 83.2152 55.8885 82.7205C52.7772 76.3249 51.5016 67.5452 53.1348 58.5509C54.3448 53.4666 56.419 48.2334 59.3456 43.3458C60.7165 41.051 62.1947 38.9589 63.7444 37.0814C68.8644 31.4905 75.0752 27.7056 80.9522 26.0605C84.3317 25.7208 87.455 26.6149 89.9703 28.9275C97.8083 36.1277 96.8189 54.3071 87.7649 69.4585H87.7709Z" fill="white"/>
<path d="M100.472 22.407C99.4767 21.4951 98.3681 20.7441 97.17 20.154C97.17 20.1361 94.6905 18.944 93.0573 18.1572C94.0408 18.7354 94.9766 19.4268 95.8468 20.2255C106.129 29.6728 104.448 53.6815 92.5745 73.5655C82.4537 90.5051 67.4274 99.4219 56.8477 95.8456C58.4987 96.7099 59.8994 97.4013 59.8994 97.4013C70.5388 103.201 86.626 94.4568 97.5575 76.1583C109.562 56.0656 110.873 31.9556 100.478 22.407H100.472Z" fill="#4760FF"/>
<path d="M20.1746 88.3101L14.8639 85.2643C14.7685 85.2107 14.7148 85.1153 14.7148 85.008C14.7148 84.9007 14.7685 84.8053 14.8639 84.7517L42.1686 68.9863L42.4667 69.5049L15.6089 85.014L20.4726 87.8034L20.1746 88.322V88.3101Z" fill="#4760FF" stroke="#4760FF" stroke-width="0.596044"/>
<path d="M91.3049 129.056C91.2512 129.056 91.2036 129.044 91.1559 129.014L44.5273 102.276L44.8254 101.757L91.2989 128.412L146.129 96.1542L101.324 69.4872L101.628 68.9746L146.862 95.8979C146.952 95.9516 147.011 96.0469 147.005 96.1542C147.005 96.2615 146.952 96.3569 146.856 96.4105L91.442 129.008C91.3943 129.038 91.3407 129.05 91.293 129.05L91.3049 129.056Z" fill="#4760FF" stroke="#4760FF" stroke-width="0.596044"/>
<path d="M98.5729 94.5757L75.3828 108.029L75.6819 108.545L98.872 95.0912L98.5729 94.5757Z" fill="#4760FF" stroke="#4760FF" stroke-width="0.596044"/>
<path d="M122.447 90.5045L83.9961 112.812L84.2952 113.327L122.746 91.02L122.447 90.5045Z" fill="#4760FF" stroke="#4760FF" stroke-width="0.596044"/>
<path d="M130.282 95.2875L91.8984 117.556L92.1975 118.071L130.581 95.803L130.282 95.2875Z" fill="#4760FF" stroke="#4760FF" stroke-width="0.596044"/>
<path d="M76.0241 43.8746L55.4375 55.6504L55.7334 56.1678L76.3201 44.392L76.0241 43.8746Z" fill="#4760FF" stroke="#4760FF" stroke-width="1.35277"/>
<path d="M126.618 81.4922C126.523 81.5101 126.427 81.516 126.332 81.516Z" fill="#4760FF"/>
<path d="M126.618 81.4922C126.523 81.5101 126.427 81.516 126.332 81.516" stroke="#4760FF" stroke-width="0.596044"/>
<path d="M94.0586 36.7227L94.1182 37.3127Z" fill="#4760FF"/>
<path d="M94.0586 36.7227L94.1182 37.3127" stroke="#4760FF" stroke-width="0.596044"/>
<path d="M7.85409 118.029C7.29977 118.029 6.6918 117.886 6.06 117.594C3.55661 116.438 1.30952 113.267 1.05918 110.519C0.939976 109.256 1.2678 108.207 1.96517 107.575L2.79963 106.961L3.1513 107.444L2.34068 108.04C1.80424 108.529 1.5539 109.393 1.64927 110.466C1.88173 113.023 3.97384 115.979 6.30437 117.052C7.45474 117.582 8.4859 117.553 9.13558 116.969L9.61242 116.629L9.95812 117.118L9.50513 117.433C9.07002 117.827 8.49782 118.029 7.84813 118.029H7.85409Z" fill="#4760FF" stroke="#4760FF" stroke-width="0.596044"/>
<path d="M11.402 117.474C10.6986 117.474 9.92378 117.289 9.13104 116.926C5.91836 115.442 3.03947 111.371 2.71165 107.848C2.56263 106.257 2.93814 104.957 3.76664 104.176L33.8669 82.8916L34.2126 83.3804L4.14811 104.635C3.4865 105.261 3.17656 106.388 3.30769 107.788C3.61167 111.12 6.34155 114.977 9.38138 116.377C10.639 116.956 11.8013 117.033 12.6537 116.592C12.8623 116.473 13.0053 116.371 13.1365 116.258L42.6883 95.3608L43.034 95.8496L13.506 116.723C13.363 116.854 13.1782 116.985 12.9755 117.093C12.9576 117.099 12.9398 117.111 12.9219 117.116C12.4748 117.355 11.9563 117.468 11.402 117.468V117.474Z" fill="#4760FF" stroke="#4760FF" stroke-width="0.596044"/>
<path d="M41.0175 96.5472C40.3141 96.5472 39.5452 96.3624 38.7346 95.9869C35.5219 94.5028 32.643 90.4318 32.3152 86.9092C32.1543 85.1389 32.643 83.7501 33.698 83.0051C34.753 82.26 36.2193 82.26 37.8405 83.0051C38.4724 83.2971 39.0982 83.6905 39.7121 84.1793L39.3426 84.6442C38.7704 84.1852 38.1803 83.8157 37.5902 83.5475C36.1776 82.8978 34.914 82.874 34.0437 83.4938C33.1735 84.1137 32.7682 85.3058 32.9113 86.8555C33.2152 90.1874 35.9451 94.0438 38.9849 95.4445C40.3976 96.0942 41.6612 96.1121 42.5314 95.4982C43.4016 94.8783 43.8069 93.6862 43.6639 92.1365C43.6103 91.5285 43.4672 90.8907 43.2526 90.2411L43.8189 90.0563C44.0513 90.7477 44.1944 91.4331 44.254 92.0828C44.4149 93.8531 43.9262 95.2419 42.8712 95.9869C42.3466 96.3565 41.7148 96.5472 41.0115 96.5472H41.0175Z" fill="#4760FF" stroke="#4760FF" stroke-width="0.596044"/>
<path d="M39.5572 92.7441C39.2234 92.7441 38.8539 92.6547 38.4724 92.4818C36.9763 91.7904 35.6829 89.9665 35.5339 88.3215C35.4564 87.487 35.6948 86.8194 36.1955 86.438L45.2733 80.0186L45.619 80.5073L36.5472 86.9207C36.2193 87.1651 36.0703 87.6479 36.124 88.2678C36.2551 89.6924 37.4174 91.3434 38.7227 91.9394C39.3366 92.2196 39.8731 92.2136 40.2069 91.9156L47.4488 86.7896L47.7945 87.2784L40.5764 92.3805C40.3082 92.6249 39.9565 92.7441 39.5572 92.7441V92.7441Z" fill="#4760FF" stroke="#4760FF" stroke-width="0.596044"/>
<path d="M67.0321 99.4857C64.4393 99.4857 61.9776 98.9076 59.7544 97.6916C59.6352 97.632 58.3239 96.9823 56.7622 96.1658C54.8549 95.522 53.1145 94.4909 51.5826 93.0902C41.0922 83.4521 42.3797 59.1693 54.4496 38.9694C62.9313 24.7716 74.6316 16.0872 84.6035 15.7952C87.6433 15.6462 90.6056 16.3852 93.2342 17.935C95.9045 19.2105 96.9118 19.7052 97.2813 19.9556L97.3052 19.9079C98.5509 20.5218 99.6834 21.2967 100.673 22.2086C111.163 31.8466 109.876 56.1295 97.8058 76.3294C89.2049 90.7239 77.0993 99.4738 67.0321 99.4738V99.4857ZM59.2418 96.7678C59.7127 97.0062 60.0107 97.1492 60.0226 97.1611C70.6262 102.943 86.6419 93.8531 97.2932 76.0314C109.232 56.0579 110.567 32.1089 100.268 22.6556C99.3138 21.7794 98.229 21.0404 97.0369 20.4503C97.025 20.4443 97.0131 20.4383 97.0012 20.4264C96.9118 20.3728 96.4767 20.1642 95.8627 19.8661C95.9283 19.9198 95.9879 19.9794 96.0535 20.039C106.335 29.4803 104.887 53.5724 92.8348 73.7485C85.2114 86.5098 74.3575 95.3313 64.5049 96.7618C62.669 97.03 60.9047 97.03 59.2477 96.7737L59.2418 96.7678ZM56.9887 95.6114C59.2418 96.3625 61.7452 96.5532 64.4154 96.1658C74.0892 94.7591 84.7823 86.0449 92.3163 73.4386C104.237 53.495 105.727 29.7366 95.6482 20.4741C94.8018 19.6993 93.9018 19.0317 92.96 18.4654C92.4653 18.227 91.9765 17.9946 91.5414 17.786C89.4851 16.8084 87.2499 16.3435 84.9313 16.3793C84.5915 16.3912 84.2518 16.4151 83.9121 16.4449C74.3098 17.0767 63.1459 25.5822 54.9681 39.2674C43.0294 59.2408 41.6942 83.1899 51.9939 92.6431C52.6972 93.2869 55.0278 94.5743 57.0007 95.6055L56.9887 95.6114ZM64.7194 87.3264C61.7571 87.3264 59.1047 86.3131 56.9649 84.3462C56.5179 83.9349 56.0768 83.4581 55.6536 82.9336C55.6417 82.9157 55.6298 82.8978 55.6178 82.8799C52.2859 76.0314 51.2727 67.1563 52.8403 58.5256C54.0979 53.2387 56.2556 47.9517 59.0868 43.2192C60.4339 40.9721 61.918 38.8502 63.5095 36.919C68.4864 31.489 74.6436 27.5432 80.8663 25.8027C84.4843 25.4392 87.6791 26.4524 90.1705 28.7353C98.1039 36.0249 97.1442 54.3711 88.0188 69.6358C82.1895 79.3871 74.0296 86.1105 66.7221 87.1714C66.0367 87.2728 65.3691 87.3205 64.7135 87.3205L64.7194 87.3264ZM56.1364 82.5879C56.5357 83.0766 56.947 83.5237 57.3642 83.9051C59.8438 86.182 63.0505 87.1059 66.6387 86.5814C73.7733 85.5442 81.7723 78.9282 87.5062 69.3259C96.4886 54.2937 97.5019 36.2752 89.7652 29.1704C87.4108 27.0068 84.371 26.0471 80.9736 26.3809C74.9058 28.0856 68.8441 31.9658 63.9565 37.3064C62.3949 39.2018 60.9226 41.2939 59.5935 43.5231C56.798 48.2021 54.6582 53.4353 53.4184 58.6448C51.8747 67.1205 52.8641 75.8466 56.1364 82.5819V82.5879Z" fill="#4760FF" stroke="#4760FF" stroke-width="0.596044"/>
<path d="M75.6719 43.875L93.881 55.9151" stroke="#4760FF" stroke-width="2.25461" stroke-miterlimit="10"/>
<path d="M68.1192 70.5657L68.8107 70.1544C69.1921 69.9279 69.2577 69.5464 68.9597 69.3021C68.6616 69.0577 68.1192 69.0458 67.7378 69.2663L67.0464 69.6716C66.6649 69.8981 66.5934 70.2796 66.8914 70.5239C67.1894 70.7683 67.7378 70.7862 68.1192 70.5597V70.5657Z" fill="#4760FF"/>
<path d="M70.0287 70.1895L68.6518 71.0121C68.2704 71.2386 68.1988 71.626 68.4969 71.8763C68.7949 72.1267 69.3492 72.1386 69.7307 71.9121L71.1075 71.0836C71.489 70.8571 71.5486 70.4697 71.2506 70.2253C70.9526 69.9809 70.4042 69.963 70.0227 70.1895H70.0287Z" fill="#4760FF"/>
<path d="M83.6124 61.9585C83.3382 61.8393 82.9746 61.8453 82.6945 61.9704C82.1342 62.2208 81.5203 62.4056 80.8825 62.5069C80.6918 62.5367 80.4951 62.5546 80.2984 62.5725L73.4081 57.2081C72.5677 56.5584 71.0359 56.5107 69.9809 57.1127L65.9933 59.3657L61.9641 61.6426L57.8216 63.9851C56.695 64.6228 56.4447 65.7076 57.2792 66.411L66.2854 74.0165C67.1675 74.7616 68.8126 74.8033 69.9511 74.1178L79.5116 68.3183C79.5116 68.3183 79.5533 68.2766 79.5831 68.2587C80.5904 68.7177 81.7289 68.968 82.9031 68.9501C83.8508 68.9322 84.7866 68.7475 85.6866 68.4018C85.7462 68.3779 85.7999 68.3541 85.8476 68.3243C85.8952 68.2945 85.9429 68.2587 85.9787 68.2229C86.5807 67.6448 86.9502 67.0309 87.0754 66.3871C87.4152 64.7182 86.086 63.0254 83.6243 61.9585H83.6124ZM66.345 60.5697L68.9378 62.6499L66.2496 64.2056L63.6628 62.0956L66.3509 60.5697H66.345ZM76.8413 65.9997C77.2288 66.5779 77.7294 67.0785 78.3076 67.5077L68.8543 73.2118C68.4908 73.4324 67.9662 73.4145 67.6801 73.182L58.662 65.6242C58.3938 65.3977 58.4712 65.052 58.8348 64.8434L62.3038 62.8705L65.4092 65.4215C65.6953 65.66 66.2377 65.6719 66.6132 65.4573L70.6544 63.1089C71.0239 62.8943 71.0835 62.5367 70.7974 62.3042L67.6801 59.8187L71.0061 57.9293C71.3458 57.7385 71.8405 57.7505 72.1087 57.9591L78.5103 62.9658C78.4685 63.0254 78.4328 63.091 78.4209 63.1625C78.3672 63.5142 78.242 63.8659 78.0513 64.1997C77.801 64.6288 77.4493 65.0222 76.9963 65.3739C76.7638 65.5527 76.7042 65.803 76.8413 66.0116V65.9997ZM85.3826 66.262C85.2992 66.6673 85.0727 67.0607 84.7091 67.4362C84.125 67.6388 83.523 67.7521 82.9329 67.758C81.2521 67.7878 79.6368 67.0309 78.6354 65.7792C79.0467 65.4037 79.3805 64.9924 79.6308 64.5573C79.7858 64.2891 79.899 64.0208 79.9884 63.7407C80.3997 63.7228 80.811 63.6751 81.2103 63.6096C81.866 63.5023 82.4918 63.3354 83.0879 63.1089C84.7449 63.9434 85.6211 65.1235 85.3886 66.256L85.3826 66.262Z" fill="#4760FF"/>
<path d="M82.4977 63.7532C82.0387 63.8247 81.7288 64.1347 81.8122 64.4446L82.1579 65.7321L81.3234 65.7917C80.8526 65.8215 80.489 66.1076 80.5128 66.4294C80.5367 66.7513 80.936 66.9897 81.4129 66.954L83.2189 66.8288C83.4036 66.8169 83.5825 66.7632 83.7195 66.6738C83.7613 66.65 83.803 66.6142 83.8388 66.5844C83.9878 66.4473 84.0533 66.2745 84.0056 66.1135L83.4811 64.1883C83.3977 63.8784 82.9566 63.6876 82.4977 63.7592V63.7532Z" fill="#4760FF"/>
</g>
</g>
<defs>
<clipPath id="clip0_1776_1932">
<rect width="144" height="144" fill="white" transform="translate(0.601562 0.416992)"/>
</clipPath>
<clipPath id="clip1_1776_1932">
<rect width="148.814" height="113.278" fill="white" transform="translate(-1.80469 15.7783)"/>
</clipPath>
</defs>
</svg>
