<svg width="145" height="145" viewBox="0 0 145 145" fill="none" xmlns="http://www.w3.org/2000/svg">
<g clip-path="url(#clip0_1776_1966)">
<g clip-path="url(#clip1_1776_1966)">
<path opacity="0.12" d="M133.998 91.9199L81.871 122.079C81.547 122.267 81.179 122.367 80.8042 122.367C80.4294 122.367 80.0613 122.267 79.7373 122.079L77.0812 120.55C76.9649 120.481 76.8685 120.384 76.8015 120.267C76.7345 120.15 76.6992 120.018 76.6992 119.883C76.6992 119.748 76.7345 119.616 76.8015 119.499C76.8685 119.382 76.9649 119.284 77.0812 119.216L129.878 88.5344L136.164 87.2335C136.234 87.2149 136.308 87.2183 136.376 87.2432C136.444 87.268 136.503 87.3132 136.545 87.3726C136.586 87.4319 136.609 87.5027 136.609 87.5751C136.609 87.6476 136.587 87.7184 136.545 87.7778L133.998 91.9199Z" fill="#4760FF"/>
<g opacity="0.12">
<path d="M62.4691 119.187C61.4105 119.201 60.3668 118.937 59.4428 118.42L4.71966 86.851C4.03615 86.4743 3.46459 85.9234 3.06306 85.2541C2.66153 84.5849 2.44431 83.8213 2.43359 83.041C2.45425 82.208 2.69535 81.3954 3.1323 80.686C3.56925 79.9765 4.18648 79.3956 4.92105 79.0023L76.3485 37.7232C77.3849 37.1392 78.5554 36.8353 79.7449 36.8414C80.8029 36.8265 81.8464 37.0893 82.7712 37.6034L137.494 69.1996C138.179 69.575 138.751 70.1256 139.153 70.7951C139.555 71.4647 139.771 72.2289 139.78 73.0097C139.761 73.8435 139.52 74.6573 139.083 75.3678C138.646 76.0782 138.028 76.66 137.293 77.0537L65.8546 118.295C64.8222 118.88 63.6558 119.188 62.4691 119.187V119.187Z" fill="#4760FF"/>
</g>
<path d="M136.025 67.0982L136.023 67.117L136.023 67.1359C136.026 67.5202 136.026 68.7562 136.025 69.8989C136.025 70.4696 136.024 71.0162 136.024 71.4202L136.024 71.9042L136.023 72.0382L136.023 72.0493C136.002 72.1619 135.955 72.2684 135.886 72.3601C135.811 72.4594 135.713 72.5383 135.599 72.5894L135.579 72.5986L135.56 72.6096L64.1648 113.826C64.164 113.826 64.1632 113.827 64.1625 113.827C64.0045 113.915 63.8377 113.986 63.6647 114.039L63.6626 114.04C63.1491 114.198 62.6011 114.209 62.0821 114.069C61.9769 114.038 61.875 113.996 61.7778 113.945L7.09432 82.3797L7.07762 82.37L7.06015 82.3619C7.00095 82.3342 6.94967 82.2921 6.91109 82.2393C6.87711 82.1928 6.85396 82.1395 6.8432 82.0831V82.0818V82.079V82.0761V82.073V82.0699V82.0666V82.0633V82.0598V81.8978V81.8912V81.8845V81.8778V81.8709V81.864V81.857V81.8427V81.8281V81.8206V81.8131V81.8055V81.7978V81.7822V81.7663V81.75V81.7418V81.7334V81.725V81.7166V81.6994V81.6907V81.6819V81.673V81.6641V81.6551V81.646V81.3194V79.5644V77.8094V77.2311V77.069V77.0411C6.86035 76.9282 6.905 76.8211 6.97339 76.7291C7.04635 76.6311 7.14369 76.5539 7.25575 76.5053L7.27907 76.4952L7.30109 76.4825L78.6894 35.2887C78.6905 35.2881 78.6915 35.2876 78.6926 35.287C79.0604 35.0836 79.4706 34.9688 79.8905 34.9519C80.3047 34.9351 80.7171 35.0139 81.0958 35.182L91.7116 41.3103L91.9342 41.4388L92.1566 41.3101L95.59 39.325C95.792 39.2256 96.0141 39.1739 96.2394 39.1739C96.4646 39.1739 96.6868 39.2256 96.8888 39.325L104.633 43.7977L104.846 43.9204L105.063 43.8061C106.771 42.9062 108.975 42.4577 111.184 42.4836C113.394 42.5095 115.565 43.0094 117.212 43.9609L117.212 43.961C118.813 44.8853 119.561 46.0243 119.645 47.0979V47.0988V47.1002V47.1017V47.1032V47.1048V47.1064V47.1081V47.1099V47.1116V47.1135V47.1154V47.1173V47.1193V47.1213V47.1234V47.1256V47.1278V47.13V47.1323V47.1346V47.137V47.1394V47.1419V47.1444V47.147V47.1496V47.1523V47.155V47.1578V47.1606V47.1635V47.1664V47.1693V47.1723V47.1754V47.1784V47.1816V47.1847V47.188V47.1912V47.1945V47.1979V47.2013V47.2047V47.2082V47.2117V47.2153V47.2189V47.2226V47.2262V47.23V47.2338V47.2376V47.2414V47.2453V47.2493V47.2533V47.2573V47.2613V47.2654V47.2696V47.2738V47.278V47.2822V47.2865V47.2909V47.2952V47.2996V47.3041V47.3086V47.3131V47.3177V47.4816V48.3629V48.602V48.6094V48.6167V48.6241V48.6315V48.6388V48.6462V48.6535V48.6609V48.6682V48.6755V48.6828V48.6901V48.6974V48.7046V48.7119V48.7192V48.7264V48.7336V48.7408V48.7481V48.7553V48.7624V48.7696V48.7768V48.7839V48.791V48.7982V48.8053V48.8124V48.8194V48.8265V48.8335V48.8406V48.8476V48.8546V48.8616V48.8686V48.8755V48.8825V48.8894V48.8963V48.9032V48.9101V48.9169V48.9238V48.9306V48.9374V48.9442V48.9509V48.9577V48.9644V48.9711V48.9778V48.9845V48.9911V48.9978V49.0044V49.011V49.0176V49.0241V49.0306V49.0371V49.0436V49.0501V49.0565V49.063V49.0694V49.0757V49.0821V49.0884V49.0947V49.101V49.1073V49.1135V49.1197V49.1259V49.1321V49.1382V49.1443V49.1504V49.1565V49.1625V49.1685V49.1745V49.1804V49.1864V49.1923V49.1981V49.204V49.2098V49.2156V49.2214V49.2271V49.2328V49.2385V49.2441V49.2497V49.2553V49.2609V49.2664V49.2719V49.2774V49.2828V49.2882V49.2936V49.2989V49.3043V49.3095V49.3148V49.32V49.3252V49.3303V49.3355V49.3405V49.3456V49.3506V49.3556V49.3605V49.3655V49.3703V49.3752V49.38V49.3848V49.3895V49.3942V49.3989V49.4035V49.4081V49.4127V49.4172V49.4217V49.4261V49.4305V49.4349V49.4392V49.4435V49.4765V49.4804V49.4843V49.4882V49.492V49.4958V49.4995V49.5032V49.5069V49.5105V49.514V49.5176V49.521V49.5245V49.5279V49.5312V49.5345V49.5378V49.541V49.5442V49.5473V49.5504V49.5534V49.5564V49.5594V49.5623V49.5651V49.568V49.5707V49.5734V49.5761V49.5787V49.5813V49.5838V49.5863V49.5888V49.5911V49.5935V49.5958V49.598V49.6002V49.6023V49.6044V49.6065V49.6084V49.6104V49.6123V49.6141V49.6159V49.6287C119.596 50.3013 119.351 50.945 118.942 51.4812L118.634 51.8852L119.075 52.1373L125.269 55.6752L125.281 55.6823L125.294 55.6885C125.322 55.702 125.346 55.7215 125.365 55.7455C125.377 55.7596 125.386 55.7751 125.393 55.7915V57.4266C125.387 57.4446 125.377 57.4615 125.365 57.4767C125.347 57.4998 125.324 57.5184 125.297 57.5309L125.279 57.5393L125.262 57.5492L123.248 58.714L122.582 59.0992L123.248 59.4841L135.767 66.7178L135.788 66.73L135.81 66.7399C135.879 66.77 135.936 66.8206 135.974 66.8848C136.013 66.949 136.03 67.0236 136.025 67.0982ZM107.198 49.3508C107.198 49.6684 107.355 49.9357 107.562 50.1384C107.769 50.3401 108.048 50.5043 108.369 50.6345C109.013 50.8956 109.907 51.0528 110.973 51.0528C112.024 51.0528 112.974 50.962 113.675 50.7784C114.022 50.6875 114.339 50.5661 114.58 50.3998C114.819 50.2339 115.049 49.9731 115.049 49.6066C115.049 49.3018 114.887 48.9927 114.698 48.7379C114.497 48.4667 114.214 48.1896 113.869 47.9409C113.178 47.4432 112.205 47.0336 111.066 47.0336C109.947 47.0336 109.007 47.3657 108.339 47.7983C108.006 48.014 107.731 48.2602 107.536 48.5123C107.349 48.7534 107.198 49.0469 107.198 49.3508Z" fill="#E7EDFA" stroke="#4760FF" stroke-width="0.889524"/>
<path d="M128.321 65.8046L65.224 102.232L19.4677 75.8196L82.5652 39.3866L128.321 65.8046Z" fill="white" stroke="#4760FF" stroke-width="0.889524"/>
<path d="M114.84 49.1162C114.814 49.0104 114.78 48.8937 114.732 48.7717C114.582 48.3895 114.303 47.9805 113.772 47.6558C113.251 47.3373 112.512 47.1158 111.464 47.049L114.84 49.1162ZM114.84 49.1162C114.905 49.044 114.964 48.9651 115.014 48.8805C115.126 48.6906 115.193 48.4774 115.209 48.2574C115.203 47.8149 114.876 47.3267 114.161 46.923C113.451 46.5228 112.44 46.2612 111.3 46.2612C110.158 46.2612 109.148 46.5216 108.438 46.9205C107.717 47.3258 107.392 47.8166 107.39 48.2612C107.394 48.4032 107.422 48.5422 107.474 48.6719C107.516 48.5785 107.564 48.4815 107.62 48.3883C107.846 48.0119 108.216 47.6281 108.842 47.3652C109.458 47.1065 110.3 46.9741 111.464 47.049L114.84 49.1162ZM107.274 49.2152C107.274 49.2151 107.274 49.215 107.274 49.2148C107.274 49.215 107.274 49.2151 107.274 49.2152C107.274 49.2152 107.274 49.2152 107.274 49.2152Z" fill="#4760FF" stroke="#4760FF" stroke-width="0.889524"/>
<path d="M6.88405 82.8103C6.92167 82.832 6.98703 82.8697 7.07882 82.9227C7.14453 82.7393 7.1146 82.5614 7.08995 82.469L6.88405 82.8103ZM7.08854 82.4638L6.84617 82.7885L7.03735 82.3869C6.97614 82.3578 6.92313 82.3139 6.88305 82.2592C6.84797 82.2114 6.82375 82.1566 6.81195 82.0987V82.0972V82.0943V82.0912V82.0881V82.0848V82.0815V82.078V81.9162V81.3384V79.5853V78.2367L61.3143 109.697L61.3334 109.708L61.3535 109.717C61.8635 109.948 62.4204 110.055 62.9795 110.031C63.5386 110.008 64.0844 109.853 64.573 109.58L64.573 109.58L64.5785 109.577L135.956 68.3678C135.969 68.362 135.981 68.356 135.993 68.3499C135.994 68.829 135.995 69.3849 135.996 69.9212C135.997 70.495 135.997 71.0448 135.997 71.4511L135.997 71.9381L135.997 72.0729V72.0822C135.975 72.1951 135.928 72.3016 135.858 72.3933C135.782 72.4931 135.682 72.5723 135.568 72.6239L135.548 72.633L135.529 72.6441L135.751 73.0293C135.529 72.6441 135.528 72.6442 135.528 72.6445L135.525 72.6459L135.516 72.6516L135.477 72.6741L135.323 72.7628L134.723 73.1091L132.444 74.4233C130.481 75.5555 127.677 77.1731 124.31 79.1145C117.578 82.9971 108.6 88.1747 99.6143 93.3543C90.6291 98.5339 81.6373 103.716 74.8786 107.606C71.4992 109.552 68.6782 111.174 66.6955 112.313C65.7041 112.882 64.9226 113.33 64.3857 113.636C64.1172 113.79 63.9103 113.907 63.7692 113.987C63.6985 114.027 63.6451 114.057 63.6091 114.077C63.6033 114.08 63.5981 114.083 63.5935 114.085C63.1049 114.229 62.5867 114.239 62.0929 114.115C62.066 114.1 62.0275 114.078 61.9773 114.05C61.87 113.989 61.7124 113.899 61.5074 113.782C61.0976 113.548 60.5005 113.205 59.7427 112.77C58.227 111.899 56.0695 110.657 53.4842 109.168C48.3137 106.19 41.4329 102.224 34.5565 98.2584C27.68 94.2933 20.808 90.3295 15.6551 87.357L9.42944 83.7654L7.68548 82.7592L7.22605 82.4942L7.10826 82.4262L7.07845 82.409L7.07095 82.4047L7.06907 82.4036C7.06906 82.4036 7.06916 82.4039 7.06937 82.4044C7.07104 82.4087 7.07927 82.43 7.08854 82.4638ZM62.1263 114.133L62.1266 114.134C62.1287 114.135 62.1291 114.135 62.1263 114.133Z" fill="#4760FF" stroke="#4760FF" stroke-width="0.889524"/>
<path d="M128.719 87.2259L128.731 87.2251L128.743 87.2238L133.588 86.6593L130.636 90.6487L130.635 90.6496C130.599 90.6984 130.552 90.7377 130.498 90.7644L130.485 90.7709L130.472 90.7783L81.1193 119.242C80.997 119.299 80.8618 119.323 80.7271 119.311C80.588 119.299 80.4548 119.249 80.3418 119.167L80.3323 119.16L80.3225 119.154C79.8759 118.864 79.5045 118.472 79.2387 118.011C78.9729 117.549 78.8204 117.032 78.7937 116.5L78.7932 116.49L78.7922 116.479C78.7788 116.342 78.802 116.203 78.8594 116.077C78.9141 115.957 78.9981 115.853 79.1036 115.774L128.5 87.2925L128.5 87.2923C128.567 87.2535 128.642 87.2308 128.719 87.2259Z" fill="#E7EDFA" stroke="#4760FF" stroke-width="0.889524"/>
<path d="M119.647 49.3104V49.3152V49.3212V49.3273V49.3333V49.3393V49.3453V49.3513V49.3573V49.3633V49.3692V49.3752V49.3811V49.3871V49.393V49.3989V49.4048V49.4107V49.4166V49.4224V49.4283V49.4341V49.4399V49.4457V49.4515V49.4573V49.4631V49.4689V49.4746V49.4804V49.4861V49.4918V49.4975V49.5032V49.5088V49.5145V49.5201V49.5257V49.5313V49.5369V49.5425V49.5481V49.5536V49.5592V49.5647V49.5702V49.5757V49.5811V49.5866V49.592V49.5975V49.6029V49.6083V49.6136V49.619V49.6243V49.6297V49.635V49.6403V49.6455V49.6508V49.656V49.6612V49.6664V49.6716V49.6768V49.6819V49.6871V49.6922V49.6973V49.7023V49.7074V49.7124V49.7174V49.7224V49.7274V49.7324V49.7373V49.7422V49.7471V49.752V49.7568V49.7617V49.7665V49.7713V49.7761V49.7808V49.7855V49.7902V49.7949V49.7996V49.8042V49.8089V49.8135V49.818V49.8226V49.8271V49.8316V49.8361V49.8406V49.845V49.8495V49.8539V49.8582V49.8626V49.8669V49.8712V49.8755V49.8797V49.884V49.8882V49.8923V49.8965V49.9006V49.9047V49.9088V49.9129V49.9169V49.9209V49.9249V49.9289V49.9328V49.9367V49.9406V49.9444V49.9482V49.952V49.9558V49.9596V49.9633V49.967V49.9706V49.9743V49.9779V49.9815V49.985V49.9885V49.992V49.9955V49.999V50.0024V50.0058V50.0091V50.0124V50.0157V50.019V50.0222V50.0255V50.0286V50.0318V50.0349V50.038V50.0411V50.0441V50.0471V50.0501V50.053V50.0559V50.0588V50.0617V50.0645V50.0673V50.07V50.0728V50.0754V50.0781V50.0807V50.0833V50.0859V50.0884V50.0909V50.0934V50.0958V50.0982V50.1006V50.1029V50.1052V50.1075V50.1097V50.112V50.1141V50.1163V50.1184V50.1204V50.1225V50.1245V50.1264V50.1283V50.1302V50.1321V50.1339V50.1357V50.1375V50.1392V50.1409V50.1425V50.1441V50.1457V50.1472V50.1487V50.1502V50.1516V50.153V50.1544V50.1557V50.157V50.1582V50.1594V50.1606V50.1617V50.1628V50.1639V50.1649V50.1659V50.1668V50.1677V50.1686V50.1694V50.1702V50.1709V50.1716V50.1722C119.64 50.4489 119.586 50.5906 119.497 50.7323C119.444 50.8158 119.376 50.9043 119.28 51.0242C119.261 51.0469 119.242 51.0706 119.222 51.0954L118.638 50.6246C118.685 50.5596 118.739 50.4872 118.799 50.4082C118.919 50.2503 119.054 50.0765 119.197 49.8927C119.293 49.7696 119.392 49.6419 119.493 49.5115C119.544 49.4448 119.596 49.3775 119.647 49.3104Z" fill="#4760FF" stroke="#4760FF" stroke-width="0.889524"/>
<mask id="path-9-inside-1_1776_1966" fill="white">
<path d="M125.776 56.2361L119.903 59.5018C119.637 59.6359 119.342 59.7057 119.043 59.7057C118.745 59.7057 118.45 59.6359 118.183 59.5018L90.0218 43.1023C89.9238 43.0575 89.8395 42.9876 89.7773 42.8997C89.7152 42.8117 89.6775 42.7088 89.668 42.6016V44.2344C89.6765 44.3427 89.7139 44.4467 89.7761 44.5357C89.8383 44.6246 89.9231 44.6954 90.0218 44.7406L118.467 61.1674C118.733 61.3014 119.028 61.3712 119.327 61.3712C119.625 61.3712 119.92 61.3014 120.186 61.1674L125.776 57.9397C125.867 57.8972 125.947 57.8335 126.009 57.754C126.07 57.6745 126.112 57.5814 126.13 57.4825V55.8823C126.046 56.0296 125.924 56.1518 125.776 56.2361V56.2361Z"/>
</mask>
<path d="M125.776 56.2361L119.903 59.5018C119.637 59.6359 119.342 59.7057 119.043 59.7057C118.745 59.7057 118.45 59.6359 118.183 59.5018L90.0218 43.1023C89.9238 43.0575 89.8395 42.9876 89.7773 42.8997C89.7152 42.8117 89.6775 42.7088 89.668 42.6016V44.2344C89.6765 44.3427 89.7139 44.4467 89.7761 44.5357C89.8383 44.6246 89.9231 44.6954 90.0218 44.7406L118.467 61.1674C118.733 61.3014 119.028 61.3712 119.327 61.3712C119.625 61.3712 119.92 61.3014 120.186 61.1674L125.776 57.9397C125.867 57.8972 125.947 57.8335 126.009 57.754C126.07 57.6745 126.112 57.5814 126.13 57.4825V55.8823C126.046 56.0296 125.924 56.1518 125.776 56.2361V56.2361Z" fill="#4760FF"/>
<path d="M119.903 59.5018L120.303 60.2967L120.319 60.2883L120.336 60.2793L119.903 59.5018ZM118.183 59.5018L117.736 60.2705L117.76 60.2844L117.784 60.2967L118.183 59.5018ZM90.0218 43.1023L90.4694 42.3336L90.4315 42.3115L90.3916 42.2933L90.0218 43.1023ZM89.668 42.6016L90.554 42.5232L88.7784 42.6016H89.668ZM89.668 44.2344H88.7784V44.2695L88.7812 44.3045L89.668 44.2344ZM90.0218 44.7406L90.4666 43.9703L90.4304 43.9494L90.3923 43.9319L90.0218 44.7406ZM118.467 61.1674L118.022 61.9377L118.044 61.9506L118.067 61.9622L118.467 61.1674ZM120.186 61.1674L120.586 61.9622L120.609 61.9506L120.631 61.9377L120.186 61.1674ZM125.776 57.9397L125.4 57.1337L125.365 57.15L125.332 57.1694L125.776 57.9397ZM126.13 57.4825L127.005 57.6444L127.02 57.5642V57.4825H126.13ZM126.13 55.8823H127.02V52.5361L125.358 55.4406L126.13 55.8823ZM125.344 55.4587L119.471 58.7244L120.336 60.2793L126.209 57.0135L125.344 55.4587ZM119.504 58.707C119.361 58.7788 119.203 58.8162 119.043 58.8162V60.5952C119.481 60.5952 119.912 60.493 120.303 60.2967L119.504 58.707ZM119.043 58.8162C118.883 58.8162 118.726 58.7788 118.583 58.707L117.784 60.2967C118.175 60.493 118.606 60.5952 119.043 60.5952V58.8162ZM118.631 58.7332L90.4694 42.3336L89.5741 43.871L117.736 60.2705L118.631 58.7332ZM90.3916 42.2933C90.4365 42.3138 90.4752 42.3459 90.5038 42.3864L89.0508 43.4129C89.2037 43.6293 89.4112 43.8012 89.6519 43.9113L90.3916 42.2933ZM90.5038 42.3864C90.5324 42.4267 90.5497 42.474 90.554 42.5232L88.7819 42.6799C88.8052 42.9437 88.898 43.1966 89.0508 43.4129L90.5038 42.3864ZM88.7784 42.6016V44.2344H90.5575V42.6016H88.7784ZM88.7812 44.3045C88.8023 44.5709 88.8942 44.8266 89.047 45.0452L90.5052 44.0261C90.5336 44.0667 90.5508 44.1144 90.5547 44.1644L88.7812 44.3045ZM89.047 45.0452C89.1999 45.264 89.4084 45.4381 89.6513 45.5493L90.3923 43.9319C90.4377 43.9528 90.4767 43.9853 90.5052 44.0261L89.047 45.0452ZM89.5769 45.5109L118.022 61.9377L118.911 60.3971L90.4666 43.9703L89.5769 45.5109ZM118.067 61.9622C118.458 62.1585 118.889 62.2608 119.327 62.2608V60.4817C119.167 60.4817 119.009 60.4443 118.866 60.3725L118.067 61.9622ZM119.327 62.2608C119.764 62.2608 120.195 62.1585 120.586 61.9622L119.787 60.3725C119.644 60.4443 119.486 60.4817 119.327 60.4817V62.2608ZM120.631 61.9377L126.221 58.7101L125.332 57.1694L119.742 60.397L120.631 61.9377ZM126.153 58.7458C126.372 58.6433 126.564 58.4899 126.712 58.2984L125.305 57.2096C125.33 57.1771 125.363 57.1511 125.4 57.1337L126.153 58.7458ZM126.712 58.2984C126.86 58.1069 126.961 57.8827 127.005 57.6444L125.256 57.3206C125.263 57.28 125.28 57.242 125.305 57.2096L126.712 58.2984ZM127.02 57.4825V55.8823H125.241V57.4825H127.02ZM125.358 55.4406C125.353 55.4503 125.344 55.4584 125.335 55.464L126.218 57.0082C126.503 56.8452 126.739 56.609 126.902 56.324L125.358 55.4406Z" fill="#4760FF" mask="url(#path-9-inside-1_1776_1966)"/>
<path d="M117.477 50.4394L116.841 50.8421L117.501 51.2048L125.556 55.6354L125.771 55.2457L125.586 55.6504C125.604 55.6583 125.618 55.671 125.629 55.6871C125.639 55.7031 125.645 55.7218 125.645 55.741C125.645 55.7601 125.639 55.7788 125.629 55.7948C125.618 55.8109 125.604 55.8236 125.586 55.8315L125.57 55.8389L125.555 55.8476L119.69 59.1085C119.488 59.2089 119.264 59.2611 119.038 59.2611C118.813 59.2611 118.591 59.2095 118.389 59.1103L90.2399 42.7181L90.2184 42.7056L90.1955 42.6955C90.1779 42.6877 90.1629 42.675 90.1523 42.6588C90.1418 42.6426 90.1362 42.6237 90.1362 42.6045C90.1362 42.5852 90.1418 42.5663 90.1523 42.5501C90.1629 42.5339 90.1779 42.5212 90.1955 42.5134L90.2207 42.5023L90.2442 42.4882L95.5852 39.2967C95.7865 39.1982 96.0077 39.1469 96.232 39.1469C96.4572 39.1469 96.6794 39.1986 96.8814 39.298L104.626 43.7707L104.838 43.8934L105.055 43.7791C106.764 42.8791 108.967 42.4307 111.175 42.4566C113.384 42.4825 115.555 42.9823 117.204 43.934C118.856 44.8873 119.609 46.0695 119.649 47.1716C119.689 48.2696 119.027 49.4575 117.477 50.4394ZM106.635 48.159C106.635 49.0709 107.284 49.8029 108.137 50.2817C109.003 50.768 110.17 51.053 111.434 51.053C112.698 51.053 113.865 50.768 114.731 50.2817C115.584 49.8029 116.233 49.0709 116.233 48.159C116.233 47.2471 115.584 46.515 114.731 46.0362C113.865 45.5499 112.698 45.2649 111.434 45.2649C110.17 45.2649 109.003 45.5499 108.137 46.0362C107.284 46.515 106.635 47.2471 106.635 48.159Z" fill="#4760FF" stroke="#4760FF" stroke-width="0.889524"/>
<path d="M83.7576 114.826L82.2708 113.993L128.536 87.294C128.657 87.2315 128.794 87.2039 128.93 87.2146C129.069 87.2254 129.202 87.2753 129.313 87.3585L129.328 87.3697L129.344 87.3796C129.66 87.5761 129.937 87.8273 130.162 88.1202L83.7576 114.826Z" fill="white" stroke="#4760FF" stroke-width="0.889524"/>
<path d="M84.0011 117.285L84.0017 117.295L84.0028 117.306C84.0172 117.443 83.9946 117.581 83.9376 117.706C83.8832 117.825 83.7992 117.928 83.6937 118.006L81.6241 119.182L79.5924 115.72L81.6687 114.541C81.7914 114.483 81.927 114.459 82.0621 114.471C82.2012 114.483 82.3345 114.533 82.4474 114.615L82.4564 114.622L82.4658 114.628C82.9122 114.919 83.2837 115.312 83.5504 115.773C83.8171 116.235 83.9715 116.752 84.0011 117.285Z" fill="#4760FF" stroke="#4760FF" stroke-width="0.889524"/>
<path d="M81.5145 118.664C81.5117 119.104 81.3569 119.307 81.2272 119.382C81.0986 119.457 80.8453 119.492 80.4555 119.269C80.0139 118.98 79.6463 118.592 79.3824 118.134C79.1187 117.677 78.9661 117.165 78.937 116.638C78.9396 116.198 79.0947 115.992 79.2252 115.916C79.3531 115.841 79.6041 115.805 79.9895 116.026C80.4316 116.317 80.7998 116.707 81.0646 117.165C81.3292 117.623 81.4832 118.137 81.5145 118.664Z" fill="#4760FF" stroke="#4760FF" stroke-width="0.889524"/>
<path d="M6.22518 76.8966C6.22431 76.8937 6.22354 76.8908 6.22284 76.8879C6.22317 76.8867 6.22351 76.8856 6.22386 76.8844C6.22557 76.8786 6.22758 76.8729 6.22991 76.8673C6.23148 76.8635 6.23317 76.8598 6.235 76.8562L6.31923 76.8632L6.33272 76.8644L6.35728 76.8664L6.33829 76.8823L6.3358 76.8844L6.31437 76.9023L6.27721 76.9334L6.25497 76.952C6.25006 76.9461 6.24559 76.9399 6.2416 76.9334C6.2346 76.9219 6.22906 76.9096 6.22518 76.8966ZM6.30228 76.8463H6.24035C6.24219 76.8431 6.24412 76.8401 6.24615 76.837C6.25234 76.8278 6.25943 76.8192 6.26732 76.8113C6.27535 76.8033 6.28411 76.7961 6.29346 76.7899C6.30286 76.7836 6.31286 76.7782 6.32331 76.7739C6.33495 76.7691 6.34703 76.7656 6.35932 76.7634C6.36922 76.7616 6.37926 76.7607 6.38933 76.7607C6.40016 76.7607 6.41088 76.7618 6.42137 76.7637C6.43601 76.7665 6.45019 76.7712 6.46358 76.7775L6.40899 76.8232L6.38933 76.8396L6.38825 76.8405L6.38137 76.8463H6.368H6.35329H6.32718H6.30228ZM6.43411 76.8339L6.48006 76.7865C6.49117 76.7934 6.50156 76.8015 6.51097 76.8109C6.51112 76.811 6.51127 76.8112 6.51141 76.8113C6.52195 76.8219 6.53098 76.8336 6.53838 76.8463H6.47646H6.42216L6.43411 76.8339ZM6.55443 76.883C6.55458 76.8834 6.55472 76.8839 6.55486 76.8844C6.55624 76.889 6.55743 76.8938 6.55841 76.8986C6.55625 76.9106 6.55276 76.9223 6.54803 76.9334C6.54287 76.9455 6.53622 76.957 6.52824 76.9675C6.52364 76.9736 6.51863 76.9793 6.51327 76.9847C6.50088 76.997 6.48659 77.0072 6.47094 77.0149C6.46611 77.0173 6.46115 77.0195 6.45607 77.0214C6.44724 77.0247 6.43816 77.0272 6.42895 77.0289C6.41591 77.0314 6.4026 77.0322 6.38933 77.0314C6.38161 77.0309 6.3739 77.0299 6.36626 77.0283C6.34798 77.0245 6.33059 77.0175 6.31483 77.0079C6.30472 77.0017 6.29528 76.9944 6.2867 76.9861L6.33779 76.9334L6.35257 76.9181L6.36317 76.9072L6.37392 76.8961L6.38525 76.8844L6.38933 76.8802L6.39924 76.8699L6.39925 76.8699L6.39928 76.8699L6.39928 76.8699L6.44864 76.8741L6.55443 76.883Z" fill="#4760FF" stroke="#4760FF" stroke-width="0.889524"/>
<path d="M62.7969 109.735L62.7944 109.853L62.7911 109.735C62.793 109.735 62.7949 109.735 62.7969 109.735Z" fill="#4760FF" stroke="#4760FF" stroke-width="0.889524"/>
<mask id="path-17-inside-2_1776_1966" fill="white">
<path d="M65.2228 103.017C65.1746 103.019 65.1271 103.005 65.0867 102.979L18.4408 76.0527C18.3989 76.0285 18.3642 75.9935 18.3403 75.9514C18.3164 75.9093 18.3041 75.8616 18.3047 75.8132C18.3039 75.7655 18.3162 75.7184 18.3401 75.6772C18.3641 75.6359 18.3989 75.602 18.4408 75.5791L82.4279 38.638C82.4692 38.6141 82.5162 38.6016 82.5639 38.6016C82.6117 38.6016 82.6586 38.6141 82.7 38.638L88.943 42.2412L88.6709 42.7093L82.5639 39.1878L19.1212 75.8132L65.2228 102.429L128.665 65.8037L121.143 61.4493L121.416 60.9812L129.346 65.5533C129.387 65.5783 129.421 65.6134 129.445 65.6554C129.469 65.6973 129.482 65.7446 129.482 65.7928C129.482 65.8403 129.469 65.8868 129.445 65.9279C129.421 65.969 129.387 66.0031 129.346 66.0268L65.3589 102.968C65.3191 102.997 65.2719 103.014 65.2228 103.017V103.017Z"/>
</mask>
<path d="M65.2228 103.017C65.1746 103.019 65.1271 103.005 65.0867 102.979L18.4408 76.0527C18.3989 76.0285 18.3642 75.9935 18.3403 75.9514C18.3164 75.9093 18.3041 75.8616 18.3047 75.8132C18.3039 75.7655 18.3162 75.7184 18.3401 75.6772C18.3641 75.6359 18.3989 75.602 18.4408 75.5791L82.4279 38.638C82.4692 38.6141 82.5162 38.6016 82.5639 38.6016C82.6117 38.6016 82.6586 38.6141 82.7 38.638L88.943 42.2412L88.6709 42.7093L82.5639 39.1878L19.1212 75.8132L65.2228 102.429L128.665 65.8037L121.143 61.4493L121.416 60.9812L129.346 65.5533C129.387 65.5783 129.421 65.6134 129.445 65.6554C129.469 65.6973 129.482 65.7446 129.482 65.7928C129.482 65.8403 129.469 65.8868 129.445 65.9279C129.421 65.969 129.387 66.0031 129.346 66.0268L65.3589 102.968C65.3191 102.997 65.2719 103.014 65.2228 103.017V103.017Z" fill="#4760FF"/>
<path d="M65.0867 102.979L65.5739 102.235L65.553 102.221L65.5314 102.208L65.0867 102.979ZM18.4408 76.0527L18.8855 75.2823L18.8855 75.2823L18.4408 76.0527ZM18.3047 75.8132L19.1942 75.8256L19.1944 75.8114L19.1941 75.7972L18.3047 75.8132ZM18.4408 75.5791L18.8669 76.36L18.8763 76.3549L18.8855 76.3495L18.4408 75.5791ZM82.4279 38.638L82.8726 39.4084L82.8726 39.4084L82.4279 38.638ZM82.7 38.638L82.2552 39.4084L82.2553 39.4084L82.7 38.638ZM88.943 42.2412L89.712 42.6883L90.1605 41.9169L89.3877 41.4708L88.943 42.2412ZM88.6709 42.7093L88.2265 43.4799L88.9944 43.9227L89.4399 43.1564L88.6709 42.7093ZM82.5639 39.1878L83.0083 38.4172L82.5637 38.1608L82.1192 38.4174L82.5639 39.1878ZM19.1212 75.8132L18.6764 75.0428L17.342 75.8132L18.6764 76.5835L19.1212 75.8132ZM65.2228 102.429L64.778 103.199L65.2228 103.456L65.6675 103.199L65.2228 102.429ZM128.665 65.8037L129.11 66.574L130.443 65.8047L129.111 65.0338L128.665 65.8037ZM121.143 61.4493L120.374 61.0022L119.926 61.7727L120.698 62.2192L121.143 61.4493ZM121.416 60.9812L121.86 60.2106L121.092 59.7679L120.647 60.5341L121.416 60.9812ZM129.346 65.5533L129.808 64.793L129.799 64.7877L129.79 64.7826L129.346 65.5533ZM129.482 65.7928L130.372 65.7981L130.371 65.7852L129.482 65.7928ZM129.346 66.0268L128.901 65.2565L129.346 66.0268ZM65.3589 102.968L64.9141 102.198L64.8723 102.222L64.8333 102.25L65.3589 102.968ZM65.1928 102.128C65.3279 102.123 65.461 102.161 65.5739 102.235L64.5995 103.723C64.7931 103.85 65.0213 103.914 65.2527 103.906L65.1928 102.128ZM65.5314 102.208L18.8855 75.2823L17.9961 76.8231L64.642 103.749L65.5314 102.208ZM18.8855 75.2823C18.981 75.3374 19.0596 75.4168 19.1137 75.512L17.5669 76.3909C17.6688 76.5702 17.8168 76.7196 17.9961 76.8231L18.8855 75.2823ZM19.1137 75.512C19.1677 75.607 19.1957 75.7152 19.1942 75.8256L17.4153 75.8008C17.4124 76.008 17.4651 76.2116 17.5669 76.3909L19.1137 75.512ZM19.1941 75.7972C19.1962 75.9126 19.1665 76.0257 19.1091 76.1243L17.5711 75.2301C17.4658 75.4112 17.4115 75.6183 17.4154 75.8292L19.1941 75.7972ZM19.1091 76.1243C19.0517 76.2231 18.9681 76.3048 18.8669 76.36L18.0147 74.7983C17.8298 74.8992 17.6766 75.0487 17.5711 75.2301L19.1091 76.1243ZM18.8855 76.3495L82.8726 39.4084L81.9831 37.8677L17.9961 74.8088L18.8855 76.3495ZM82.8726 39.4084C82.7788 39.4626 82.6723 39.4911 82.5639 39.4911V37.712C82.36 37.712 82.1597 37.7657 81.9831 37.8677L82.8726 39.4084ZM82.5639 39.4911C82.4556 39.4911 82.3491 39.4626 82.2552 39.4084L83.1448 37.8677C82.9682 37.7657 82.7678 37.712 82.5639 37.712V39.4911ZM82.2553 39.4084L88.4984 43.0116L89.3877 41.4708L83.1447 37.8676L82.2553 39.4084ZM88.174 41.7941L87.9019 42.2622L89.4399 43.1564L89.712 42.6883L88.174 41.7941ZM89.1152 41.9388L83.0083 38.4172L82.1196 39.9583L88.2265 43.4799L89.1152 41.9388ZM82.1192 38.4174L18.6764 75.0428L19.5659 76.5836L83.0087 39.9581L82.1192 38.4174ZM18.6764 76.5835L64.778 103.199L65.6675 101.659L19.5659 75.0428L18.6764 76.5835ZM65.6675 103.199L129.11 66.574L128.221 65.0333L64.778 101.659L65.6675 103.199ZM129.111 65.0338L121.589 60.6795L120.698 62.2192L128.22 66.5735L129.111 65.0338ZM121.912 61.8964L122.185 61.4283L120.647 60.5341L120.374 61.0022L121.912 61.8964ZM120.971 61.7518L128.902 66.3239L129.79 64.7826L121.86 60.2106L120.971 61.7518ZM128.884 66.3135C128.796 66.2598 128.723 66.1845 128.672 66.0948L130.218 65.2159C130.12 65.0424 129.978 64.8968 129.808 64.793L128.884 66.3135ZM128.672 66.0948C128.621 66.0051 128.593 65.9037 128.592 65.8003L130.371 65.7852C130.37 65.5854 130.317 65.3895 130.218 65.2159L128.672 66.0948ZM128.592 65.7874C128.593 65.6796 128.622 65.5739 128.676 65.4808L130.214 66.375C130.316 66.1998 130.37 66.0009 130.371 65.7981L128.592 65.7874ZM128.676 65.4808C128.73 65.3878 128.808 65.3104 128.901 65.2565L129.791 66.7972C129.966 66.6957 130.112 66.5501 130.214 66.375L128.676 65.4808ZM128.901 65.2565L64.9141 102.198L65.8036 103.738L129.791 66.7972L128.901 65.2565ZM64.8333 102.25C64.9316 102.178 65.0487 102.136 65.1703 102.129L65.2752 103.905C65.4951 103.892 65.7067 103.816 65.8844 103.686L64.8333 102.25Z" fill="#4760FF" mask="url(#path-17-inside-2_1776_1966)"/>
<path d="M89.9351 43.246L118.092 59.6482L118.046 59.7331L89.9351 43.246ZM119.042 59.978L119.04 59.879C119.041 59.879 119.041 59.879 119.042 59.879C119.042 59.879 119.043 59.879 119.043 59.879L119.042 59.978Z" fill="#4760FF" stroke="#4760FF" stroke-width="0.889524"/>
<path d="M62.798 114.793L62.7967 114.888L62.7962 114.793C62.7968 114.793 62.7974 114.793 62.798 114.793Z" fill="#4760FF" stroke="#4760FF" stroke-width="0.889524"/>
<mask id="path-21-inside-3_1776_1966" fill="white">
<path d="M80.3618 45.882L80.0898 46.3535L93.7529 54.2355L94.0249 53.7641L80.3618 45.882Z"/>
</mask>
<path d="M80.3618 45.882L80.0898 46.3535L93.7529 54.2355L94.0249 53.7641L80.3618 45.882Z" fill="#4760FF"/>
<path d="M80.0898 46.3535L79.3193 45.909L78.8748 46.6795L79.6454 47.124L80.0898 46.3535ZM80.3618 45.882L80.8063 45.1115L80.0358 44.6671L79.5913 45.4376L80.3618 45.882ZM94.0249 53.7641L94.7954 54.2086L95.2399 53.4381L94.4694 52.9936L94.0249 53.7641ZM93.7529 54.2355L93.3084 55.0061L94.0789 55.4505L94.5234 54.68L93.7529 54.2355ZM80.8603 46.798L81.1323 46.3265L79.5913 45.4376L79.3193 45.909L80.8603 46.798ZM79.9173 46.6526L93.5804 54.5346L94.4694 52.9936L80.8063 45.1115L79.9173 46.6526ZM93.2544 53.3196L92.9824 53.7911L94.5234 54.68L94.7954 54.2086L93.2544 53.3196ZM94.1974 53.465L80.5343 45.583L79.6454 47.124L93.3084 55.0061L94.1974 53.465Z" fill="#4760FF" mask="url(#path-21-inside-3_1776_1966)"/>
<mask id="path-23-inside-4_1776_1966" fill="white">
<path d="M75.7252 48.5647L75.4531 49.0361L110.876 69.479L111.148 69.0076L75.7252 48.5647Z"/>
</mask>
<path d="M75.7252 48.5647L75.4531 49.0361L110.876 69.479L111.148 69.0076L75.7252 48.5647Z" fill="#4760FF"/>
<path d="M75.4531 49.0361L74.6827 48.5915L74.2381 49.3619L75.0085 49.8066L75.4531 49.0361ZM75.7252 48.5647L76.1698 47.7943L75.3994 47.3497L74.9548 48.1201L75.7252 48.5647ZM111.148 69.0076L111.918 69.4522L112.363 68.6818L111.592 68.2372L111.148 69.0076ZM110.876 69.479L110.431 70.2495L111.201 70.6941L111.646 69.9236L110.876 69.479ZM76.2236 49.4808L76.4956 49.0093L74.9548 48.1201L74.6827 48.5915L76.2236 49.4808ZM75.2806 49.3351L110.703 69.778L111.592 68.2372L76.1698 47.7943L75.2806 49.3351ZM110.377 68.563L110.105 69.0344L111.646 69.9236L111.918 69.4522L110.377 68.563ZM111.32 68.7086L75.8978 48.2657L75.0085 49.8066L110.431 70.2495L111.32 68.7086Z" fill="#4760FF" mask="url(#path-23-inside-4_1776_1966)"/>
<mask id="path-25-inside-5_1776_1966" fill="white">
<path d="M71.0846 51.2395L70.8125 51.7109L106.235 72.1538L106.507 71.6824L71.0846 51.2395Z"/>
</mask>
<path d="M71.0846 51.2395L70.8125 51.7109L106.235 72.1538L106.507 71.6824L71.0846 51.2395Z" fill="#4760FF"/>
<path d="M70.8125 51.7109L70.0421 51.2663L69.5974 52.0367L70.3679 52.4814L70.8125 51.7109ZM71.0846 51.2395L71.5292 50.4691L70.7588 50.0245L70.3141 50.7949L71.0846 51.2395ZM106.507 71.6824L107.277 72.127L107.722 71.3566L106.952 70.912L106.507 71.6824ZM106.235 72.1538L105.79 72.9243L106.561 73.3689L107.005 72.5985L106.235 72.1538ZM71.5829 52.1556L71.855 51.6841L70.3141 50.7949L70.0421 51.2663L71.5829 52.1556ZM70.6399 52.0099L106.062 72.4528L106.952 70.912L71.5292 50.4691L70.6399 52.0099ZM105.737 71.2378L105.464 71.7092L107.005 72.5985L107.277 72.127L105.737 71.2378ZM106.68 71.3834L71.2571 50.9405L70.3679 52.4814L105.79 72.9243L106.68 71.3834Z" fill="#4760FF" mask="url(#path-25-inside-5_1776_1966)"/>
<mask id="path-27-inside-6_1776_1966" fill="white">
<path d="M80.8307 62.2249L80.5586 62.6963L86.6676 66.2233L86.9397 65.7519L80.8307 62.2249Z"/>
</mask>
<path d="M80.8307 62.2249L80.5586 62.6963L86.6676 66.2233L86.9397 65.7519L80.8307 62.2249Z" fill="#4760FF"/>
<path d="M80.5586 62.6963L79.7882 62.2515L79.3435 63.0219L80.1138 63.4666L80.5586 62.6963ZM80.8307 62.2249L81.2755 61.4546L80.5052 61.0098L80.0604 61.7802L80.8307 62.2249ZM86.9397 65.7519L87.7101 66.1967L88.1548 65.4263L87.3845 64.9816L86.9397 65.7519ZM86.6676 66.2233L86.2228 66.9937L86.9931 67.4384L87.4379 66.6681L86.6676 66.2233ZM81.3289 63.1411L81.6011 62.6697L80.0604 61.7802L79.7882 62.2515L81.3289 63.1411ZM80.386 62.9953L86.4949 66.5223L87.3845 64.9816L81.2755 61.4546L80.386 62.9953ZM86.1694 65.3072L85.8972 65.7785L87.4379 66.6681L87.7101 66.1967L86.1694 65.3072ZM87.1123 65.453L81.0034 61.9259L80.1138 63.4666L86.2228 66.9937L87.1123 65.453Z" fill="#4760FF" mask="url(#path-27-inside-6_1776_1966)"/>
<mask id="path-29-inside-7_1776_1966" fill="white">
<path d="M66.5454 53.9856L66.2734 54.457L76.4901 60.3509L76.7621 59.8794L66.5454 53.9856Z"/>
</mask>
<path d="M66.5454 53.9856L66.2734 54.457L76.4901 60.3509L76.7621 59.8794L66.5454 53.9856Z" fill="#4760FF"/>
<path d="M66.2734 54.457L65.5029 54.0125L65.0584 54.783L65.8289 55.2275L66.2734 54.457ZM66.5454 53.9856L66.9899 53.2151L66.2194 52.7706L65.7749 53.5411L66.5454 53.9856ZM76.7621 59.8794L77.5326 60.3239L77.9771 59.5534L77.2066 59.1089L76.7621 59.8794ZM76.4901 60.3509L76.0456 61.1214L76.8161 61.5659L77.2606 60.7954L76.4901 60.3509ZM67.0439 54.9015L67.3159 54.4301L65.7749 53.5411L65.5029 54.0125L67.0439 54.9015ZM66.1009 54.7561L76.3176 60.6499L77.2066 59.1089L66.9899 53.2151L66.1009 54.7561ZM75.9916 59.4349L75.7196 59.9064L77.2606 60.7954L77.5326 60.3239L75.9916 59.4349ZM76.9346 59.5804L66.7179 53.6865L65.8289 55.2275L76.0456 61.1214L76.9346 59.5804Z" fill="#4760FF" mask="url(#path-29-inside-7_1776_1966)"/>
<mask id="path-31-inside-8_1776_1966" fill="white">
<path d="M52.5767 61.9699L52.3047 62.4414L64.0018 69.1893L64.2737 68.7178L52.5767 61.9699Z"/>
</mask>
<path d="M52.5767 61.9699L52.3047 62.4414L64.0018 69.1893L64.2737 68.7178L52.5767 61.9699Z" fill="#4760FF"/>
<path d="M52.3047 62.4414L51.5342 61.9969L51.0897 62.7674L51.8602 63.2119L52.3047 62.4414ZM52.5767 61.9699L53.0212 61.1994L52.2507 60.7549L51.8062 61.5254L52.5767 61.9699ZM64.2737 68.7178L65.0442 69.1623L65.4887 68.3918L64.7182 67.9473L64.2737 68.7178ZM64.0018 69.1893L63.5573 69.9598L64.3278 70.4043L64.7723 69.6338L64.0018 69.1893ZM53.0752 62.8859L53.3472 62.4144L51.8062 61.5254L51.5342 61.9969L53.0752 62.8859ZM52.1322 62.7404L63.8292 69.4883L64.7182 67.9473L53.0212 61.1994L52.1322 62.7404ZM63.5032 68.2733L63.2313 68.7448L64.7723 69.6338L65.0442 69.1623L63.5032 68.2733ZM64.4463 68.4188L52.7492 61.6709L51.8602 63.2119L63.5573 69.9598L64.4463 68.4188Z" fill="#4760FF" mask="url(#path-31-inside-8_1776_1966)"/>
<mask id="path-33-inside-9_1776_1966" fill="white">
<path d="M47.9716 64.674L47.7031 65.1475L55.5008 69.57L55.7693 69.0965L47.9716 64.674Z"/>
</mask>
<path d="M47.9716 64.674L47.7031 65.1475L55.5008 69.57L55.7693 69.0965L47.9716 64.674Z" fill="#4760FF"/>
<path d="M47.7031 65.1475L46.9294 64.7086L46.4905 65.4824L47.2643 65.9212L47.7031 65.1475ZM47.9716 64.674L48.4105 63.9003L47.6367 63.4614L47.1979 64.2352L47.9716 64.674ZM55.7693 69.0965L56.5431 69.5353L56.9819 68.7616L56.2081 68.3228L55.7693 69.0965ZM55.5008 69.57L55.062 70.3437L55.8357 70.7825L56.2745 70.0088L55.5008 69.57ZM48.4769 65.5863L48.7454 65.1128L47.1979 64.2352L46.9294 64.7086L48.4769 65.5863ZM47.5328 65.4478L55.3305 69.8703L56.2081 68.3228L48.4105 63.9003L47.5328 65.4478ZM54.9956 68.6577L54.7271 69.1311L56.2745 70.0088L56.5431 69.5353L54.9956 68.6577ZM55.9396 68.7962L48.142 64.3737L47.2643 65.9212L55.062 70.3437L55.9396 68.7962Z" fill="#4760FF" mask="url(#path-33-inside-9_1776_1966)"/>
<mask id="path-35-inside-10_1776_1966" fill="white">
<path d="M44.1589 63.4347L43.8867 63.9082L51.629 68.3578L51.9012 67.8843L44.1589 63.4347Z"/>
</mask>
<path d="M44.1589 63.4347L43.8867 63.9082L51.629 68.3578L51.9012 67.8843L44.1589 63.4347Z" fill="#4760FF"/>
<path d="M43.8867 63.9082L43.1155 63.465L42.6723 64.2362L43.4435 64.6794L43.8867 63.9082ZM44.1589 63.4347L44.6021 62.6634L43.8309 62.2202L43.3876 62.9914L44.1589 63.4347ZM51.9012 67.8843L52.6724 68.3275L53.1156 67.5563L52.3444 67.113L51.9012 67.8843ZM51.629 68.3578L51.1858 69.129L51.957 69.5723L52.4002 68.801L51.629 68.3578ZM44.6579 64.3514L44.9301 63.8779L43.3876 62.9914L43.1155 63.465L44.6579 64.3514ZM43.7156 64.2059L51.4579 68.6555L52.3444 67.113L44.6021 62.6634L43.7156 64.2059ZM51.1299 67.441L50.8578 67.9146L52.4002 68.801L52.6724 68.3275L51.1299 67.441ZM52.0722 67.5866L44.33 63.137L43.4435 64.6794L51.1858 69.129L52.0722 67.5866Z" fill="#4760FF" mask="url(#path-35-inside-10_1776_1966)"/>
<mask id="path-37-inside-11_1776_1966" fill="white">
<path d="M131.253 91.0841L130.818 90.7629L133.926 86.5447L133.866 86.4576L128.755 87.0454L128.695 86.5011L133.975 85.897C134.026 85.8917 134.077 85.9007 134.123 85.9228C134.169 85.9449 134.208 85.9792 134.236 86.0221L134.481 86.414C134.513 86.4585 134.53 86.5118 134.53 86.5664C134.53 86.6211 134.513 86.6744 134.481 86.7188L131.253 91.0841Z"/>
</mask>
<path d="M131.253 91.0841L130.818 90.7629L133.926 86.5447L133.866 86.4576L128.755 87.0454L128.695 86.5011L133.975 85.897C134.026 85.8917 134.077 85.9007 134.123 85.9228C134.169 85.9449 134.208 85.9792 134.236 86.0221L134.481 86.414C134.513 86.4585 134.53 86.5118 134.53 86.5664C134.53 86.6211 134.513 86.6744 134.481 86.7188L131.253 91.0841Z" fill="#4760FF"/>
<path d="M131.253 91.0841L130.725 91.7999L131.44 92.3273L131.969 91.6129L131.253 91.0841ZM130.818 90.7629L130.102 90.2353L129.575 90.9511L130.29 91.4788L130.818 90.7629ZM133.926 86.5447L134.642 87.0723L135.018 86.5626L134.659 86.0408L133.926 86.5447ZM133.866 86.4576L134.599 85.9537L134.296 85.5127L133.764 85.5739L133.866 86.4576ZM128.755 87.0454L127.871 87.1427L127.969 88.0313L128.857 87.9291L128.755 87.0454ZM128.695 86.5011L128.594 85.6174L127.714 85.7181L127.811 86.5984L128.695 86.5011ZM133.975 85.897L133.884 85.012L133.874 85.0132L133.975 85.897ZM134.236 86.0221L134.99 85.5506L134.987 85.5445L134.983 85.5384L134.236 86.0221ZM134.481 86.414L133.727 86.8855L133.742 86.9097L133.759 86.9329L134.481 86.414ZM134.53 86.5664H135.42H134.53ZM134.481 86.7188L135.196 87.2477L135.204 87.2377L134.481 86.7188ZM131.781 90.3682L131.346 90.0471L130.29 91.4788L130.725 91.7999L131.781 90.3682ZM131.534 91.2906L134.642 87.0723L133.21 86.017L130.102 90.2353L131.534 91.2906ZM134.659 86.0408L134.599 85.9537L133.133 86.9615L133.193 87.0486L134.659 86.0408ZM133.764 85.5739L128.654 86.1617L128.857 87.9291L133.968 87.3413L133.764 85.5739ZM129.639 86.9482L129.58 86.4039L127.811 86.5984L127.871 87.1427L129.639 86.9482ZM128.796 87.3849L134.076 86.7807L133.874 85.0132L128.594 85.6174L128.796 87.3849ZM134.066 86.7818C133.954 86.7933 133.84 86.7737 133.739 86.725L134.508 85.1206C134.314 85.0277 134.098 84.9902 133.884 85.0121L134.066 86.7818ZM133.739 86.725C133.637 86.6761 133.551 86.6001 133.49 86.5059L134.983 85.5384C134.866 85.3584 134.702 85.2136 134.508 85.1206L133.739 86.725ZM133.482 86.4936L133.727 86.8855L135.235 85.9425L134.99 85.5506L133.482 86.4936ZM133.759 86.9329C133.682 86.8259 133.641 86.6977 133.641 86.5664H135.42C135.42 86.3258 135.344 86.091 135.204 85.8951L133.759 86.9329ZM133.641 86.5664C133.641 86.4352 133.682 86.307 133.759 86.2L135.204 87.2377C135.344 87.0419 135.42 86.8071 135.42 86.5664H133.641ZM133.766 86.19L130.538 90.5552L131.969 91.6129L135.196 87.2477L133.766 86.19Z" fill="#4760FF" mask="url(#path-37-inside-11_1776_1966)"/>
<mask id="path-39-inside-12_1776_1966" fill="white">
<path d="M81.4987 114.234L81.2266 113.766L128.177 86.671C128.416 86.5419 128.685 86.4827 128.956 86.5C129.227 86.5173 129.487 86.6105 129.707 86.7689C130.254 87.104 130.706 87.5746 131.018 88.1351L130.55 88.4127C130.292 87.9373 129.917 87.5348 129.462 87.2425C129.326 87.1349 129.162 87.0677 128.99 87.0484C128.818 87.0292 128.644 87.0587 128.487 87.1336L81.4987 114.234Z"/>
</mask>
<path d="M81.4987 114.234L81.2266 113.766L128.177 86.671C128.416 86.5419 128.685 86.4827 128.956 86.5C129.227 86.5173 129.487 86.6105 129.707 86.7689C130.254 87.104 130.706 87.5746 131.018 88.1351L130.55 88.4127C130.292 87.9373 129.917 87.5348 129.462 87.2425C129.326 87.1349 129.162 87.0677 128.99 87.0484C128.818 87.0292 128.644 87.0587 128.487 87.1336L81.4987 114.234Z" fill="#4760FF"/>
<path d="M81.4987 114.234L80.7297 114.681L81.1753 115.447L81.9431 115.004L81.4987 114.234ZM81.2266 113.766L80.7819 112.995L80.009 113.441L80.4576 114.213L81.2266 113.766ZM128.177 86.671L127.754 85.8887L127.743 85.8945L127.733 85.9005L128.177 86.671ZM129.707 86.7689L129.187 87.4908L129.214 87.5102L129.242 87.5276L129.707 86.7689ZM131.018 88.1351L131.472 88.9002L132.217 88.4584L131.795 87.7019L131.018 88.1351ZM130.55 88.4127L129.769 88.8378L130.21 89.6487L131.004 89.1778L130.55 88.4127ZM129.462 87.2425L128.91 87.9399L128.944 87.9673L128.981 87.9911L129.462 87.2425ZM128.487 87.1336L128.103 86.3315L128.072 86.3462L128.043 86.3631L128.487 87.1336ZM82.2677 113.787L81.9956 113.319L80.4576 114.213L80.7297 114.681L82.2677 113.787ZM81.6712 114.536L128.622 87.4414L127.733 85.9005L80.7819 112.995L81.6712 114.536ZM128.601 87.4532C128.692 87.4038 128.795 87.3811 128.899 87.3877L129.013 85.6123C128.576 85.5843 128.139 85.6801 127.754 85.8887L128.601 87.4532ZM128.899 87.3877C129.003 87.3944 129.103 87.4301 129.187 87.4908L130.226 86.0471C129.871 85.791 129.45 85.6403 129.013 85.6123L128.899 87.3877ZM129.242 87.5276C129.659 87.7829 130.003 88.1413 130.242 88.5683L131.795 87.7019C131.408 87.0078 130.849 86.4252 130.171 86.0103L129.242 87.5276ZM130.565 87.37L130.097 87.6476L131.004 89.1778L131.472 88.9002L130.565 87.37ZM131.332 87.9876C131.002 87.3807 130.524 86.8669 129.942 86.4938L128.981 87.9911C129.311 88.2026 129.582 88.4938 129.769 88.8378L131.332 87.9876ZM130.014 86.545C129.747 86.334 129.427 86.2021 129.089 86.1644L128.891 87.9324C128.898 87.9332 128.904 87.9358 128.91 87.9399L130.014 86.545ZM129.089 86.1644C128.751 86.1266 128.409 86.1846 128.103 86.3315L128.872 87.9357C128.878 87.9328 128.885 87.9317 128.891 87.9324L129.089 86.1644ZM128.043 86.3631L81.0543 113.463L81.9431 115.004L128.932 87.9042L128.043 86.3631Z" fill="#4760FF" mask="url(#path-39-inside-12_1776_1966)"/>
<mask id="path-41-inside-13_1776_1966" fill="white">
<path d="M132.906 88.8257L132.525 88.4393C132.594 88.3492 132.627 88.2367 132.618 88.1236C132.602 87.86 132.524 87.6038 132.392 87.3752C132.26 87.1466 132.076 86.9519 131.856 86.8064C131.808 86.7692 131.752 86.7435 131.693 86.7312C131.633 86.719 131.572 86.7205 131.513 86.7357L131.301 86.2295C131.437 86.1816 131.583 86.166 131.727 86.184C131.87 86.2019 132.008 86.2529 132.128 86.3329C132.43 86.5273 132.681 86.7905 132.86 87.1009C133.04 87.4113 133.144 87.7599 133.162 88.1182C133.17 88.2473 133.151 88.3766 133.107 88.4983C133.063 88.6199 132.995 88.7313 132.906 88.8257V88.8257Z"/>
</mask>
<path d="M132.906 88.8257L132.525 88.4393C132.594 88.3492 132.627 88.2367 132.618 88.1236C132.602 87.86 132.524 87.6038 132.392 87.3752C132.26 87.1466 132.076 86.9519 131.856 86.8064C131.808 86.7692 131.752 86.7435 131.693 86.7312C131.633 86.719 131.572 86.7205 131.513 86.7357L131.301 86.2295C131.437 86.1816 131.583 86.166 131.727 86.184C131.87 86.2019 132.008 86.2529 132.128 86.3329C132.43 86.5273 132.681 86.7905 132.86 87.1009C133.04 87.4113 133.144 87.7599 133.162 88.1182C133.17 88.2473 133.151 88.3766 133.107 88.4983C133.063 88.6199 132.995 88.7313 132.906 88.8257V88.8257Z" fill="#4760FF"/>
<path d="M132.525 88.4393L131.819 87.8988L131.349 88.513L131.892 89.0638L132.525 88.4393ZM132.618 88.1236L131.73 88.1783L131.731 88.1878L131.731 88.1972L132.618 88.1236ZM131.856 86.8064L131.311 87.5093L131.338 87.5301L131.366 87.5488L131.856 86.8064ZM131.513 86.7357L130.693 87.0796L130.99 87.7894L131.735 87.5969L131.513 86.7357ZM131.301 86.2295L131.007 85.39L130.115 85.7024L130.48 86.5734L131.301 86.2295ZM132.128 86.3329L131.636 87.0741L131.646 87.0805L132.128 86.3329ZM133.162 88.1182L132.274 88.1644L132.274 88.1707L133.162 88.1182ZM133.54 88.2012L133.159 87.8148L131.892 89.0638L132.273 89.4502L133.54 88.2012ZM133.232 88.9798C133.435 88.7142 133.532 88.3827 133.504 88.0499L131.731 88.1972C131.723 88.0906 131.754 87.9841 131.819 87.8988L133.232 88.9798ZM133.506 88.0689C133.481 87.6677 133.363 87.2777 133.162 86.9298L131.622 87.8206C131.685 87.9299 131.722 88.0523 131.73 88.1783L133.506 88.0689ZM133.162 86.9298C132.961 86.5818 132.681 86.2854 132.346 86.064L131.366 87.5488C131.471 87.6184 131.559 87.7114 131.622 87.8206L133.162 86.9298ZM132.401 86.1036C132.246 85.9833 132.065 85.8998 131.872 85.86L131.513 87.6024C131.439 87.5871 131.37 87.5551 131.311 87.5093L132.401 86.1036ZM131.872 85.86C131.68 85.8203 131.481 85.8253 131.291 85.8744L131.735 87.5969C131.663 87.6157 131.587 87.6176 131.513 87.6024L131.872 85.86ZM132.333 86.3917L132.121 85.8855L130.48 86.5734L130.693 87.0796L132.333 86.3917ZM131.595 87.0689C131.602 87.0665 131.609 87.0658 131.616 87.0666L131.837 85.3013C131.557 85.2663 131.273 85.2967 131.007 85.39L131.595 87.0689ZM131.616 87.0666C131.623 87.0675 131.63 87.0701 131.636 87.0741L132.62 85.5917C132.385 85.4357 132.117 85.3363 131.837 85.3013L131.616 87.0666ZM131.646 87.0805C131.829 87.1985 131.981 87.3583 132.091 87.5468L133.63 86.655C133.38 86.2227 133.03 85.856 132.61 85.5853L131.646 87.0805ZM132.091 87.5468C132.2 87.7352 132.263 87.9469 132.274 88.1644L134.051 88.0719C134.025 87.573 133.88 87.0874 133.63 86.655L132.091 87.5468ZM132.274 88.1707C132.275 88.1793 132.274 88.1878 132.271 88.1958L133.944 88.8007C134.029 88.5655 134.065 88.3153 134.05 88.0656L132.274 88.1707ZM132.271 88.1958C132.268 88.2039 132.263 88.2113 132.257 88.2175L133.555 89.434C133.727 89.2514 133.859 89.0359 133.944 88.8007L132.271 88.1958Z" fill="#4760FF" mask="url(#path-41-inside-13_1776_1966)"/>
<mask id="path-43-inside-14_1776_1966" fill="white">
<path d="M83.988 118.462L83.7158 117.994L130.596 90.9376C130.751 90.8438 130.875 90.7069 130.953 90.5435C131.032 90.3801 131.061 90.1973 131.037 90.0177C131.019 89.5455 130.899 89.0828 130.683 88.6625L83.8737 115.594L83.6016 115.121L130.634 88.0529C130.664 88.0344 130.698 88.0224 130.734 88.0173C130.769 88.0123 130.805 88.0144 130.84 88.0235C130.874 88.0327 130.907 88.0487 130.935 88.0705C130.963 88.0924 130.986 88.1197 131.004 88.1508C131.344 88.7156 131.531 89.3588 131.548 90.0177C131.578 90.2982 131.524 90.581 131.393 90.8309C131.262 91.0807 131.061 91.2863 130.813 91.422L83.988 118.462Z"/>
</mask>
<path d="M83.988 118.462L83.7158 117.994L130.596 90.9376C130.751 90.8438 130.875 90.7069 130.953 90.5435C131.032 90.3801 131.061 90.1973 131.037 90.0177C131.019 89.5455 130.899 89.0828 130.683 88.6625L83.8737 115.594L83.6016 115.121L130.634 88.0529C130.664 88.0344 130.698 88.0224 130.734 88.0173C130.769 88.0123 130.805 88.0144 130.84 88.0235C130.874 88.0327 130.907 88.0487 130.935 88.0705C130.963 88.0924 130.986 88.1197 131.004 88.1508C131.344 88.7156 131.531 89.3588 131.548 90.0177C131.578 90.2982 131.524 90.581 131.393 90.8309C131.262 91.0807 131.061 91.2863 130.813 91.422L83.988 118.462Z" fill="#4760FF"/>
<path d="M83.988 118.462L83.219 118.91L83.6648 119.676L84.4328 119.233L83.988 118.462ZM83.7158 117.994L83.2712 117.224L82.4983 117.67L82.9468 118.441L83.7158 117.994ZM130.596 90.9376L131.04 91.708L131.048 91.7035L131.056 91.6988L130.596 90.9376ZM131.037 90.0177L130.148 90.05L130.149 90.093L130.155 90.1357L131.037 90.0177ZM130.683 88.6625L131.474 88.2561L131.048 87.4262L130.239 87.8914L130.683 88.6625ZM83.8737 115.594L83.1025 116.037L83.5459 116.809L84.3173 116.365L83.8737 115.594ZM83.6016 115.121L83.1579 114.35L82.3874 114.793L82.8303 115.564L83.6016 115.121ZM130.634 88.0529L131.078 88.8238L131.085 88.8195L131.093 88.815L130.634 88.0529ZM131.004 88.1508L130.228 88.5862L130.235 88.5979L130.242 88.6095L131.004 88.1508ZM131.548 90.0177L130.659 90.0405L130.66 90.0757L130.664 90.1106L131.548 90.0177ZM130.813 91.422L130.385 90.6423L130.377 90.6469L130.369 90.6517L130.813 91.422ZM84.757 118.015L84.4848 117.547L82.9468 118.441L83.219 118.91L84.757 118.015ZM84.1605 118.765L131.04 91.708L130.151 90.1672L83.2712 117.224L84.1605 118.765ZM131.056 91.6988C131.359 91.5154 131.602 91.2474 131.756 90.9279L130.151 90.159C130.148 90.1663 130.142 90.1723 130.135 90.1764L131.056 91.6988ZM131.756 90.9279C131.909 90.6083 131.965 90.251 131.918 89.8998L130.155 90.1357C130.156 90.1437 130.155 90.1518 130.151 90.159L131.756 90.9279ZM131.926 89.9855C131.904 89.383 131.75 88.7925 131.474 88.2561L129.892 89.0688C130.048 89.3731 130.135 89.708 130.148 90.05L131.926 89.9855ZM130.239 87.8914L83.4301 114.823L84.3173 116.365L131.126 89.4335L130.239 87.8914ZM84.6449 115.151L84.3728 114.677L82.8303 115.564L83.1025 116.037L84.6449 115.151ZM84.0453 115.891L131.078 88.8238L130.19 87.2819L83.1579 114.35L84.0453 115.891ZM131.093 88.815C131.021 88.8579 130.942 88.8862 130.859 88.8979L130.608 87.1367C130.455 87.1585 130.308 87.211 130.175 87.2907L131.093 88.815ZM130.859 88.8979C130.777 88.9097 130.693 88.9048 130.612 88.8834L131.067 87.1636C130.918 87.124 130.761 87.1149 130.608 87.1367L130.859 88.8979ZM130.612 88.8834C130.531 88.862 130.456 88.8247 130.39 88.7737L131.479 87.3673C131.357 87.2726 131.217 87.2033 131.067 87.1636L130.612 88.8834ZM130.39 88.7737C130.324 88.7225 130.269 88.6587 130.228 88.5862L131.78 87.7155C131.704 87.5807 131.602 87.4622 131.479 87.3673L130.39 88.7737ZM130.242 88.6095C130.502 89.0424 130.646 89.5355 130.659 90.0405L132.437 89.995C132.417 89.1822 132.185 88.3888 131.766 87.6922L130.242 88.6095ZM130.664 90.1106C130.675 90.2167 130.654 90.3238 130.605 90.4185L132.181 91.2433C132.393 90.8382 132.481 90.3796 132.433 89.9249L130.664 90.1106ZM130.605 90.4185C130.555 90.5131 130.479 90.5909 130.385 90.6423L131.242 92.2018C131.642 91.9818 131.969 91.6483 132.181 91.2433L130.605 90.4185ZM130.369 90.6517L83.5432 117.692L84.4328 119.233L131.258 92.1923L130.369 90.6517Z" fill="#4760FF" mask="url(#path-43-inside-14_1776_1966)"/>
<mask id="path-45-inside-15_1776_1966" fill="white">
<path d="M79.522 90.5472C79.8238 90.1155 79.9481 89.5843 79.8691 89.0635C79.79 88.5427 79.5137 88.0723 79.0974 87.7496L79.707 87.5373C81.133 87.0886 82.4688 86.3921 83.6531 85.4799C84.6819 84.56 84.9866 83.4878 84.4369 82.6768C83.996 82.0182 83.0163 81.4848 81.5195 81.0874C78.4356 80.3546 75.2306 80.2897 72.1196 80.8969C69.6274 81.3527 67.2241 82.2034 65.0002 83.417C64.1784 83.368 63.3293 83.3735 62.502 83.3843C62.0393 83.3843 61.5766 83.3843 61.1194 83.3843C60.9748 83.3881 60.8303 83.3735 60.6894 83.3408L60.7384 83.2972C61.148 82.9724 61.5892 82.6897 62.0556 82.4536C62.5322 82.2042 62.9889 81.9185 63.4218 81.5991C63.5998 81.4854 63.7312 81.3116 63.7919 81.1092C63.8006 81.0112 63.7785 80.913 63.7287 80.8281C63.679 80.7432 63.604 80.676 63.5143 80.6357C65.5064 80.3526 67.504 80.0914 69.4689 79.8682C72.0107 79.558 74.6342 79.2423 77.2087 78.8395L77.851 78.7415C78.6837 78.6109 79.2934 78.1972 79.375 77.7019C79.4567 77.2066 78.994 76.8038 78.2157 76.6786C77.3733 76.5519 76.5248 76.4701 75.6738 76.4337C73.1918 76.3031 70.6718 76.3194 68.1463 76.4337L70.2853 75.8894L70.9602 75.7098C72.4935 75.2671 74.0487 74.9038 75.6194 74.6212L75.3962 73.9082C73.7443 74.2002 72.1091 74.58 70.4976 75.0458L69.8336 75.2254C67.885 75.7479 65.911 76.2378 63.9117 76.695C61.8978 76.8311 59.8948 77.0052 57.9244 77.174L55.7962 77.3536C53.8313 77.5169 51.9427 77.7455 50.1846 78.0285C48.6345 78.2438 47.1089 78.6083 45.6289 79.1171L45.2969 79.2477V79.4654C45.2969 79.8464 45.8412 80.0859 46.7284 80.0914C49.1147 80.0532 51.4939 79.8202 53.8422 79.3947C57.2985 78.8504 60.733 78.1755 64.113 77.408C67.8755 77.1097 71.6525 77.0388 75.4234 77.1957C76.082 77.2338 76.942 77.2883 77.753 77.4189C78.1123 77.4733 78.1068 77.6693 78.0959 77.7237C78.0851 77.7781 78.0251 77.985 77.6332 78.0448L76.9856 78.1428C74.4546 78.5401 71.842 78.8558 69.322 79.1606C65.6643 79.6069 61.8869 80.0696 58.2293 80.7935L58.4034 81.512L61.8869 81.1963C62.0677 81.1754 62.2504 81.1754 62.4312 81.1963L62.3876 81.2344C62.0068 81.5141 61.6046 81.7635 61.1847 81.9801C60.6467 82.2565 60.1379 82.5866 59.6661 82.9652C59.4978 83.0813 59.3823 83.2595 59.345 83.4605C59.345 83.8742 59.9438 84.1572 60.9235 84.1681H62.355C62.8448 84.1681 63.3293 84.1681 63.7974 84.1681C62.8923 84.7089 62.101 85.4206 61.4678 86.2636C61.1739 86.7045 61.2827 87.0692 61.7563 87.2434C62.0792 87.3402 62.4201 87.3607 62.7523 87.3032H62.785C62.6906 87.4048 62.619 87.5252 62.5748 87.6566C62.5307 87.788 62.5151 87.9274 62.5291 88.0653C62.5803 88.2758 62.6833 88.4702 62.8288 88.6309C62.9742 88.7915 63.1575 88.9133 63.3619 88.9851H63.4163C64.973 89.6655 66.9923 89.6927 68.5817 89.6383C71.7327 89.5346 74.8581 89.0336 77.8837 88.1469C78.0571 88.2644 78.2057 88.4151 78.3207 88.5902C78.4358 88.7653 78.515 88.9615 78.554 89.1674C78.5929 89.3732 78.5908 89.5848 78.5477 89.7899C78.5046 89.9949 78.4213 90.1894 78.3028 90.3622C77.7585 91.1514 76.4358 91.7882 75.0696 91.9025C74.8247 91.9349 74.576 91.9239 74.3349 91.8699C74.2206 91.8318 74.1661 91.7556 74.1824 91.7283L72.9741 91.5651C72.7673 91.9297 73.0394 92.338 73.6327 92.5285C74.1179 92.6621 74.6242 92.7009 75.1241 92.6428C77.04 92.4631 78.7926 91.6304 79.522 90.5472ZM53.7933 78.6599C51.7523 79.026 49.6878 79.2461 47.6156 79.3185C48.5912 79.0651 49.5795 78.8634 50.5765 78.7143C52.2801 78.4367 54.1089 78.219 56.0194 78.0557L58.1476 77.8761H58.3327C56.8268 78.1555 55.3137 78.4168 53.7933 78.6599ZM62.8231 86.5358H62.7904C62.8052 86.4979 62.8234 86.4615 62.8449 86.4269C63.4183 85.675 64.1317 85.0411 64.9458 84.56C65.1254 84.4403 65.3159 84.326 65.4901 84.2117C65.8907 84.2562 66.2873 84.3308 66.6766 84.4348C66.7888 84.4592 66.8958 84.5035 66.9924 84.5655C67.123 84.6798 66.8998 84.9519 66.6113 85.1642C65.4796 85.924 64.1789 86.3949 62.8231 86.5358ZM68.8375 88.8708C67.3679 88.9198 65.6915 88.898 64.4396 88.3537C64.162 88.234 64.0205 88.0707 63.9988 87.8965C63.9886 87.7988 64.0075 87.7002 64.053 87.6131C64.0985 87.526 64.1686 87.4542 64.2546 87.4067C64.9811 87.0547 65.7769 86.8688 66.5841 86.8624C68.7216 86.7063 70.8666 86.6845 73.0068 86.7971C74.4301 86.8278 75.8387 87.0926 77.1761 87.5808C74.4583 88.3435 71.6587 88.7766 68.8375 88.8708V88.8708ZM79.277 86.9168L78.4606 87.1998C77.323 86.5848 75.6085 86.2092 73.2626 86.0677C71.0864 85.9508 68.9051 85.969 66.7311 86.1221C67.0282 85.9607 67.3137 85.7788 67.5856 85.5778C68.3367 85.0335 68.5218 84.4892 68.0864 84.0974C67.9956 84.0166 67.8927 83.9505 67.7816 83.9014C67.6366 83.8385 67.4875 83.7857 67.3353 83.7436C67.1012 83.6783 66.8617 83.6238 66.6168 83.5748C68.4873 82.6358 70.4809 81.9651 72.5387 81.5827C75.3564 81.0358 78.2584 81.0951 81.0514 81.7569C82.2761 82.078 83.0653 82.4971 83.3973 82.9924C83.7947 83.5857 83.5552 84.3967 82.7605 85.0989C81.713 85.9014 80.5344 86.5164 79.277 86.9168V86.9168Z"/>
</mask>
<path d="M79.522 90.5472C79.8238 90.1155 79.9481 89.5843 79.8691 89.0635C79.79 88.5427 79.5137 88.0723 79.0974 87.7496L79.707 87.5373C81.133 87.0886 82.4688 86.3921 83.6531 85.4799C84.6819 84.56 84.9866 83.4878 84.4369 82.6768C83.996 82.0182 83.0163 81.4848 81.5195 81.0874C78.4356 80.3546 75.2306 80.2897 72.1196 80.8969C69.6274 81.3527 67.2241 82.2034 65.0002 83.417C64.1784 83.368 63.3293 83.3735 62.502 83.3843C62.0393 83.3843 61.5766 83.3843 61.1194 83.3843C60.9748 83.3881 60.8303 83.3735 60.6894 83.3408L60.7384 83.2972C61.148 82.9724 61.5892 82.6897 62.0556 82.4536C62.5322 82.2042 62.9889 81.9185 63.4218 81.5991C63.5998 81.4854 63.7312 81.3116 63.7919 81.1092C63.8006 81.0112 63.7785 80.913 63.7287 80.8281C63.679 80.7432 63.604 80.676 63.5143 80.6357C65.5064 80.3526 67.504 80.0914 69.4689 79.8682C72.0107 79.558 74.6342 79.2423 77.2087 78.8395L77.851 78.7415C78.6837 78.6109 79.2934 78.1972 79.375 77.7019C79.4567 77.2066 78.994 76.8038 78.2157 76.6786C77.3733 76.5519 76.5248 76.4701 75.6738 76.4337C73.1918 76.3031 70.6718 76.3194 68.1463 76.4337L70.2853 75.8894L70.9602 75.7098C72.4935 75.2671 74.0487 74.9038 75.6194 74.6212L75.3962 73.9082C73.7443 74.2002 72.1091 74.58 70.4976 75.0458L69.8336 75.2254C67.885 75.7479 65.911 76.2378 63.9117 76.695C61.8978 76.8311 59.8948 77.0052 57.9244 77.174L55.7962 77.3536C53.8313 77.5169 51.9427 77.7455 50.1846 78.0285C48.6345 78.2438 47.1089 78.6083 45.6289 79.1171L45.2969 79.2477V79.4654C45.2969 79.8464 45.8412 80.0859 46.7284 80.0914C49.1147 80.0532 51.4939 79.8202 53.8422 79.3947C57.2985 78.8504 60.733 78.1755 64.113 77.408C67.8755 77.1097 71.6525 77.0388 75.4234 77.1957C76.082 77.2338 76.942 77.2883 77.753 77.4189C78.1123 77.4733 78.1068 77.6693 78.0959 77.7237C78.0851 77.7781 78.0251 77.985 77.6332 78.0448L76.9856 78.1428C74.4546 78.5401 71.842 78.8558 69.322 79.1606C65.6643 79.6069 61.8869 80.0696 58.2293 80.7935L58.4034 81.512L61.8869 81.1963C62.0677 81.1754 62.2504 81.1754 62.4312 81.1963L62.3876 81.2344C62.0068 81.5141 61.6046 81.7635 61.1847 81.9801C60.6467 82.2565 60.1379 82.5866 59.6661 82.9652C59.4978 83.0813 59.3823 83.2595 59.345 83.4605C59.345 83.8742 59.9438 84.1572 60.9235 84.1681H62.355C62.8448 84.1681 63.3293 84.1681 63.7974 84.1681C62.8923 84.7089 62.101 85.4206 61.4678 86.2636C61.1739 86.7045 61.2827 87.0692 61.7563 87.2434C62.0792 87.3402 62.4201 87.3607 62.7523 87.3032H62.785C62.6906 87.4048 62.619 87.5252 62.5748 87.6566C62.5307 87.788 62.5151 87.9274 62.5291 88.0653C62.5803 88.2758 62.6833 88.4702 62.8288 88.6309C62.9742 88.7915 63.1575 88.9133 63.3619 88.9851H63.4163C64.973 89.6655 66.9923 89.6927 68.5817 89.6383C71.7327 89.5346 74.8581 89.0336 77.8837 88.1469C78.0571 88.2644 78.2057 88.4151 78.3207 88.5902C78.4358 88.7653 78.515 88.9615 78.554 89.1674C78.5929 89.3732 78.5908 89.5848 78.5477 89.7899C78.5046 89.9949 78.4213 90.1894 78.3028 90.3622C77.7585 91.1514 76.4358 91.7882 75.0696 91.9025C74.8247 91.9349 74.576 91.9239 74.3349 91.8699C74.2206 91.8318 74.1661 91.7556 74.1824 91.7283L72.9741 91.5651C72.7673 91.9297 73.0394 92.338 73.6327 92.5285C74.1179 92.6621 74.6242 92.7009 75.1241 92.6428C77.04 92.4631 78.7926 91.6304 79.522 90.5472ZM53.7933 78.6599C51.7523 79.026 49.6878 79.2461 47.6156 79.3185C48.5912 79.0651 49.5795 78.8634 50.5765 78.7143C52.2801 78.4367 54.1089 78.219 56.0194 78.0557L58.1476 77.8761H58.3327C56.8268 78.1555 55.3137 78.4168 53.7933 78.6599ZM62.8231 86.5358H62.7904C62.8052 86.4979 62.8234 86.4615 62.8449 86.4269C63.4183 85.675 64.1317 85.0411 64.9458 84.56C65.1254 84.4403 65.3159 84.326 65.4901 84.2117C65.8907 84.2562 66.2873 84.3308 66.6766 84.4348C66.7888 84.4592 66.8958 84.5035 66.9924 84.5655C67.123 84.6798 66.8998 84.9519 66.6113 85.1642C65.4796 85.924 64.1789 86.3949 62.8231 86.5358ZM68.8375 88.8708C67.3679 88.9198 65.6915 88.898 64.4396 88.3537C64.162 88.234 64.0205 88.0707 63.9988 87.8965C63.9886 87.7988 64.0075 87.7002 64.053 87.6131C64.0985 87.526 64.1686 87.4542 64.2546 87.4067C64.9811 87.0547 65.7769 86.8688 66.5841 86.8624C68.7216 86.7063 70.8666 86.6845 73.0068 86.7971C74.4301 86.8278 75.8387 87.0926 77.1761 87.5808C74.4583 88.3435 71.6587 88.7766 68.8375 88.8708V88.8708ZM79.277 86.9168L78.4606 87.1998C77.323 86.5848 75.6085 86.2092 73.2626 86.0677C71.0864 85.9508 68.9051 85.969 66.7311 86.1221C67.0282 85.9607 67.3137 85.7788 67.5856 85.5778C68.3367 85.0335 68.5218 84.4892 68.0864 84.0974C67.9956 84.0166 67.8927 83.9505 67.7816 83.9014C67.6366 83.8385 67.4875 83.7857 67.3353 83.7436C67.1012 83.6783 66.8617 83.6238 66.6168 83.5748C68.4873 82.6358 70.4809 81.9651 72.5387 81.5827C75.3564 81.0358 78.2584 81.0951 81.0514 81.7569C82.2761 82.078 83.0653 82.4971 83.3973 82.9924C83.7947 83.5857 83.5552 84.3967 82.7605 85.0989C81.713 85.9014 80.5344 86.5164 79.277 86.9168V86.9168Z" fill="#4760FF" stroke="#4760FF" stroke-width="1.77905" mask="url(#path-45-inside-15_1776_1966)"/>
<mask id="path-46-inside-16_1776_1966" fill="white">
<path d="M111.439 50.9947C108.843 50.9947 106.812 49.7972 106.812 48.2732C106.812 46.7492 108.843 45.5518 111.439 45.5518C114.035 45.5518 116.065 46.7438 116.065 48.2732C116.065 49.8027 114.03 50.9947 111.439 50.9947ZM111.439 46.0961C109.224 46.0961 107.357 47.0921 107.357 48.2732C107.357 49.4543 109.224 50.4504 111.439 50.4504C113.654 50.4504 115.521 49.4489 115.521 48.2732C115.521 47.0975 113.649 46.0961 111.439 46.0961Z"/>
</mask>
<path d="M111.439 50.9947C108.843 50.9947 106.812 49.7972 106.812 48.2732C106.812 46.7492 108.843 45.5518 111.439 45.5518C114.035 45.5518 116.065 46.7438 116.065 48.2732C116.065 49.8027 114.03 50.9947 111.439 50.9947ZM111.439 46.0961C109.224 46.0961 107.357 47.0921 107.357 48.2732C107.357 49.4543 109.224 50.4504 111.439 50.4504C113.654 50.4504 115.521 49.4489 115.521 48.2732C115.521 47.0975 113.649 46.0961 111.439 46.0961Z" fill="#4760FF"/>
<path d="M111.439 50.1052C110.266 50.1052 109.273 49.8329 108.603 49.4389C107.92 49.0368 107.702 48.6001 107.702 48.2732H105.923C105.923 49.4704 106.72 50.3944 107.701 50.972C108.696 51.5577 110.015 51.8842 111.439 51.8842V50.1052ZM107.702 48.2732C107.702 47.9463 107.92 47.5096 108.603 47.1075C109.273 46.7135 110.266 46.4413 111.439 46.4413V44.6622C110.015 44.6622 108.696 44.9887 107.701 45.5744C106.72 46.1521 105.923 47.0761 105.923 48.2732H107.702ZM111.439 46.4413C112.612 46.4413 113.606 46.7125 114.275 47.1058C114.957 47.5066 115.176 47.9431 115.176 48.2732H116.955C116.955 47.0739 116.159 46.1496 115.177 45.5721C114.181 44.9871 112.862 44.6622 111.439 44.6622V46.4413ZM115.176 48.2732C115.176 48.6024 114.957 49.0391 114.273 49.4405C113.603 49.8341 112.609 50.1052 111.439 50.1052V51.8842C112.859 51.8842 114.179 51.5593 115.174 50.9745C116.157 50.3975 116.955 49.4735 116.955 48.2732H115.176ZM111.439 45.2065C110.21 45.2065 109.041 45.4809 108.149 45.9569C107.304 46.4073 106.467 47.1846 106.467 48.2732H108.246C108.246 48.1807 108.343 47.8694 108.986 47.5266C109.581 47.2092 110.453 46.9856 111.439 46.9856V45.2065ZM106.467 48.2732C106.467 49.3618 107.304 50.1391 108.149 50.5896C109.041 51.0655 110.21 51.3399 111.439 51.3399V49.5609C110.453 49.5609 109.581 49.3372 108.986 49.0199C108.343 48.677 108.246 48.3657 108.246 48.2732H106.467ZM111.439 51.3399C112.669 51.3399 113.838 51.0638 114.73 50.5872C115.573 50.1368 116.411 49.3597 116.411 48.2732H114.632C114.632 48.3624 114.536 48.6739 113.892 49.0181C113.296 49.3362 112.424 49.5609 111.439 49.5609V51.3399ZM116.411 48.2732C116.411 47.1857 115.57 46.4089 114.728 45.959C113.835 45.4828 112.667 45.2065 111.439 45.2065V46.9856C112.421 46.9856 113.293 47.2101 113.89 47.5285C114.536 47.8733 114.632 48.185 114.632 48.2732H116.411Z" fill="#4760FF" mask="url(#path-46-inside-16_1776_1966)"/>
<path d="M119.327 61.5419L119.325 61.6518L119.324 61.5419C119.324 61.5419 119.325 61.5419 119.325 61.5419C119.326 61.5419 119.327 61.5419 119.327 61.5419Z" fill="#4760FF" stroke="#4760FF" stroke-width="0.889524"/>
<mask id="path-49-inside-17_1776_1966" fill="white">
<path d="M81.4909 119.867L81.2242 119.393L83.7007 117.995C83.8328 117.891 83.9359 117.754 83.9998 117.599C84.0637 117.444 84.0863 117.274 84.0654 117.107C84.0306 116.555 83.8686 116.018 83.5919 115.538C83.3153 115.058 82.9315 114.649 82.4706 114.342C82.3336 114.239 82.1718 114.175 82.0016 114.154C81.8314 114.134 81.6589 114.16 81.5017 114.228L79.0089 115.643L78.7422 115.17L81.2242 113.76C81.4633 113.638 81.731 113.584 81.9986 113.603C82.2662 113.623 82.5234 113.714 82.7427 113.869C83.2896 114.221 83.7445 114.698 84.0692 115.262C84.394 115.825 84.5793 116.458 84.6097 117.107C84.634 117.371 84.5872 117.636 84.4743 117.875C84.3613 118.115 84.1863 118.319 83.9674 118.468L81.4909 119.867Z"/>
</mask>
<path d="M81.4909 119.867L81.2242 119.393L83.7007 117.995C83.8328 117.891 83.9359 117.754 83.9998 117.599C84.0637 117.444 84.0863 117.274 84.0654 117.107C84.0306 116.555 83.8686 116.018 83.5919 115.538C83.3153 115.058 82.9315 114.649 82.4706 114.342C82.3336 114.239 82.1718 114.175 82.0016 114.154C81.8314 114.134 81.6589 114.16 81.5017 114.228L79.0089 115.643L78.7422 115.17L81.2242 113.76C81.4633 113.638 81.731 113.584 81.9986 113.603C82.2662 113.623 82.5234 113.714 82.7427 113.869C83.2896 114.221 83.7445 114.698 84.0692 115.262C84.394 115.825 84.5793 116.458 84.6097 117.107C84.634 117.371 84.5872 117.636 84.4743 117.875C84.3613 118.115 84.1863 118.319 83.9674 118.468L81.4909 119.867Z" fill="#4760FF"/>
<path d="M81.4909 119.867L80.7158 120.304L81.1529 121.08L81.9284 120.641L81.4909 119.867ZM81.2242 119.393L80.7867 118.619L80.0132 119.056L80.4491 119.83L81.2242 119.393ZM83.7007 117.995L84.1382 118.769L84.1971 118.736L84.2503 118.694L83.7007 117.995ZM84.0654 117.107L83.1776 117.163L83.1793 117.191L83.1828 117.218L84.0654 117.107ZM82.4706 114.342L81.9358 115.053L81.9563 115.069L81.9777 115.083L82.4706 114.342ZM81.5017 114.228L81.147 113.412L81.1037 113.431L81.0626 113.455L81.5017 114.228ZM79.0089 115.643L78.2338 116.08L78.6718 116.857L79.448 116.417L79.0089 115.643ZM78.7422 115.17L78.3029 114.396L77.5322 114.834L77.9671 115.606L78.7422 115.17ZM81.2242 113.76L80.8208 112.967L80.8026 112.976L80.7849 112.987L81.2242 113.76ZM82.7427 113.869L82.2304 114.596L82.2457 114.607L82.2615 114.617L82.7427 113.869ZM84.6097 117.107L83.7211 117.149L83.7221 117.169L83.7239 117.189L84.6097 117.107ZM83.9674 118.468L84.4049 119.243L84.4369 119.225L84.4672 119.204L83.9674 118.468ZM82.2659 119.43L81.9992 118.957L80.4491 119.83L80.7158 120.304L82.2659 119.43ZM81.6617 120.168L84.1382 118.769L83.2632 117.22L80.7867 118.619L81.6617 120.168ZM84.2503 118.694C84.5031 118.495 84.7003 118.235 84.8225 117.937L83.1771 117.261C83.1716 117.274 83.1626 117.286 83.151 117.295L84.2503 118.694ZM84.8225 117.937C84.9448 117.64 84.988 117.316 84.948 116.997L83.1828 117.218C83.1846 117.233 83.1826 117.247 83.1771 117.261L84.8225 117.937ZM84.9532 117.052C84.9098 116.362 84.7076 115.692 84.3625 115.094L82.8214 115.982C83.0295 116.343 83.1515 116.748 83.1776 117.163L84.9532 117.052ZM84.3625 115.094C84.0173 114.495 83.5385 113.985 82.9635 113.602L81.9777 115.083C82.3245 115.314 82.6132 115.622 82.8214 115.982L84.3625 115.094ZM83.0054 113.632C82.7428 113.434 82.4324 113.31 82.1059 113.271L81.8974 115.038C81.9113 115.039 81.9245 115.045 81.9358 115.053L83.0054 113.632ZM82.1059 113.271C81.7794 113.233 81.4485 113.281 81.147 113.412L81.8564 115.044C81.8693 115.038 81.8835 115.036 81.8974 115.038L82.1059 113.271ZM81.0626 113.455L78.5697 114.87L79.448 116.417L81.9409 115.002L81.0626 113.455ZM79.7839 115.207L79.5172 114.733L77.9671 115.606L78.2338 116.08L79.7839 115.207ZM79.1815 115.943L81.6635 114.533L80.7849 112.987L78.3029 114.396L79.1815 115.943ZM81.6276 114.553C81.7225 114.505 81.8288 114.483 81.935 114.491L82.0622 112.716C81.6332 112.685 81.204 112.772 80.8208 112.967L81.6276 114.553ZM81.935 114.491C82.0412 114.498 82.1433 114.535 82.2304 114.596L83.2551 113.142C82.9036 112.894 82.4911 112.747 82.0622 112.716L81.935 114.491ZM82.2615 114.617C82.6891 114.892 83.0447 115.265 83.2986 115.706L84.8399 114.817C84.4442 114.131 83.8902 113.549 83.2239 113.121L82.2615 114.617ZM83.2986 115.706C83.5525 116.146 83.6974 116.641 83.7211 117.149L85.4982 117.066C85.4613 116.275 85.2355 115.504 84.8399 114.817L83.2986 115.706ZM83.7239 117.189C83.7336 117.294 83.715 117.4 83.6698 117.496L85.2787 118.255C85.4595 117.872 85.5344 117.448 85.4954 117.026L83.7239 117.189ZM83.6698 117.496C83.6248 117.591 83.5549 117.673 83.4675 117.732L84.4672 119.204C84.8177 118.966 85.0979 118.638 85.2787 118.255L83.6698 117.496ZM83.5299 117.694L81.0534 119.092L81.9284 120.641L84.4049 119.243L83.5299 117.694Z" fill="#4760FF" mask="url(#path-49-inside-17_1776_1966)"/>
<path d="M79.3364 115.557L79.3379 115.437C79.339 115.437 79.3401 115.437 79.3412 115.437L79.3364 115.557Z" fill="#4760FF" stroke="#4760FF" stroke-width="0.889524"/>
</g>
</g>
<defs>
<clipPath id="clip0_1776_1966">
<rect width="144" height="144" fill="white" transform="translate(0.359375 0.416992)"/>
</clipPath>
<clipPath id="clip1_1776_1966">
<rect width="137.358" height="88.1645" fill="white" transform="translate(2.44531 34.2002)"/>
</clipPath>
</defs>
</svg>
