<svg width="145" height="145" viewBox="0 0 145 145" fill="none" xmlns="http://www.w3.org/2000/svg">
<g clip-path="url(#clip0_1776_1933)">
<path opacity="0.08" d="M69.3864 133.745C75.6256 137.346 85.7372 137.346 91.9763 133.745C98.2155 130.143 98.2155 124.305 91.9763 120.703C85.7372 117.102 75.6256 117.102 69.3864 120.703C63.1472 124.305 63.1472 130.143 69.3864 133.745V133.745Z" fill="#4760FF"/>
<path d="M106.126 121C118.512 116.624 122.606 104.958 122.606 86.5873V65.8063C122.574 65.7901 122.547 65.7738 122.514 65.7576C116.178 62.1018 111.043 53.2034 111.043 45.8865C111.043 44.8358 111.157 43.8934 111.358 43.0269L81.8189 10.9536L52.0691 8.65723L48.2346 10.8669L49.6211 13.0712L48.7979 19.9766L47.0648 20.1553C45.2938 20.4207 43.2032 19.9603 40.9556 18.6605L37.1211 20.8702L43.7069 23.6323L50.6556 22.2567L106.126 121V121Z" fill="#4760FF" stroke="#4760FF" stroke-width="1.03835"/>
<path d="M51.0997 90.8391C52.8544 94.0508 54.7663 97.2083 56.8135 100.285L77.7082 132.033L99.2312 124.77C111.618 120.394 118.821 107.168 118.821 88.7919V68.0109C118.788 67.9946 118.761 67.9838 118.729 67.9622C112.392 64.3064 107.258 55.408 107.258 48.091C107.258 47.0403 107.377 46.098 107.572 45.2314L78.0278 13.1636L48.278 10.8672C48.4946 12.0154 48.6246 13.1527 48.6246 14.2467C48.6246 21.5637 43.4903 24.5262 37.1536 20.8705C37.1211 20.8488 37.1211 41.5377 37.1211 41.5377C37.1211 49.5317 38.4263 57.8018 40.9773 66.4349L51.0943 90.8337L51.0997 90.8391Z" fill="white" stroke="#4760FF" stroke-width="1.03835"/>
<path d="M50.473 74.4223C46.0048 63.1625 43.5352 51.762 43.5352 41.6395V29.1179C49.2544 28.5113 53.4409 24.3139 54.6433 18.1885L74.6173 19.732L100.256 47.57C100.251 47.7704 100.246 47.9762 100.246 48.1766C100.246 56.593 105.017 65.9734 111.771 71.4706V88.7421C111.771 104.183 106.257 114.988 96.644 118.384L80.0982 123.967L62.0685 96.5681C59.8209 93.1886 57.752 89.6953 55.8673 86.137L50.4676 74.4223H50.473Z" fill="white" stroke="#4760FF" stroke-width="1.03835"/>
<path d="M60.5923 66.8467C60.1319 64.7453 59.8828 62.6656 59.8828 60.6671C59.8828 49.2178 67.958 44.598 77.9179 50.3497C87.8779 56.1015 95.9531 70.0475 95.9531 81.4969C95.9531 92.9462 87.8779 97.566 77.9179 91.8143C73.948 89.5233 70.2706 85.9217 67.2918 81.7027L60.5869 66.8521L60.5923 66.8467Z" fill="#4760FF" stroke="#4760FF" stroke-width="1.03835"/>
<path d="M69.8935 78.2956L73.7388 75.9613L67.2451 64.7069L46.1608 76.7791L33.2221 54.4004L29.3984 56.8159L42.1801 81.0902L69.8935 78.2956Z" fill="#E7EDFA" stroke="#4760FF" stroke-width="1.03835"/>
<path d="M69.8932 78.2951L63.4319 67.1382L42.3314 79.1779L29.3981 56.8154L22.9531 60.4983L42.3368 94.0176L69.8932 78.2951Z" fill="#4760FF" stroke="#4760FF" stroke-width="1.03835"/>
<path d="M37.2317 21.1081L36.9609 20.6369L40.7954 18.4272C40.8821 18.3784 40.985 18.3784 41.0662 18.4272C43.1839 19.6458 45.2311 20.1549 46.9967 19.8895L47.0779 20.4257C45.2311 20.7073 43.108 20.2036 40.9308 18.9796L37.2317 21.1135V21.1081Z" fill="#4760FF" stroke="#4760FF" stroke-width="1.03835"/>
<path d="M105.94 121.255L105.762 120.746C117.189 116.711 122.064 106.491 122.064 86.5876V65.969C115.684 62.2537 110.501 53.2632 110.501 45.8867C110.501 44.9281 110.598 43.9911 110.793 43.1083L81.417 11.2138L51.8513 8.93366L48.0872 11.1L47.8164 10.6289L51.6563 8.42456C51.7051 8.39748 51.7592 8.38123 51.8134 8.39206L81.5632 10.6884C81.6336 10.6884 81.6932 10.7263 81.7419 10.7751L111.286 42.8538C111.346 42.9188 111.373 43.0108 111.351 43.0975C111.145 43.9857 111.042 44.9281 111.042 45.8975C111.042 53.117 116.128 61.9233 122.378 65.5358L122.47 65.5845C122.557 65.6333 122.605 65.7199 122.605 65.8174V86.5984C122.605 106.773 117.623 117.139 105.94 121.266V121.255Z" fill="#4760FF" stroke="#4760FF" stroke-width="1.03835"/>
<path d="M77.9697 132.309C77.8776 132.309 77.7964 132.266 77.7422 132.185L56.8475 100.436C54.8165 97.3765 52.8884 94.1919 51.1228 90.9694L51.5994 90.7094C53.3542 93.9157 55.2769 97.0894 57.3024 100.139L78.0834 131.714L99.4115 124.516C111.744 120.161 118.817 107.141 118.817 88.7976V68.1791C112.437 64.4692 107.254 55.4733 107.254 48.1021C107.254 47.1435 107.351 46.2066 107.546 45.3238L78.1701 13.4238L48.8752 11.1654C49.0648 12.2594 49.1623 13.2992 49.1623 14.2524C49.1623 17.892 47.922 20.6108 45.669 21.916C43.5134 23.1617 40.6863 22.9559 37.6859 21.3365C37.6696 23.7195 37.6642 35.2284 37.6642 41.5488C37.6642 49.4886 38.9207 57.6071 41.5095 66.3701L40.9896 66.5218C38.3845 57.71 37.1172 49.5374 37.1172 41.5488C37.1172 41.5488 37.1172 36.3874 37.1172 31.2206C37.1208 24.2268 37.1768 20.701 37.2851 20.6433C37.3663 20.5999 37.4692 20.5999 37.5505 20.6433C40.5292 22.3601 43.313 22.6472 45.3928 21.4448C47.4725 20.2425 48.6153 17.6916 48.6153 14.2524C48.6153 13.2342 48.5015 12.1131 48.274 10.9216C48.2578 10.8404 48.2795 10.7537 48.339 10.6888C48.3932 10.6238 48.4799 10.5967 48.5611 10.5967L78.3109 12.893C78.3813 12.893 78.4409 12.931 78.4896 12.9797L108.034 45.0584C108.093 45.1234 108.12 45.2154 108.099 45.3021C107.893 46.1903 107.79 47.1327 107.79 48.1021C107.79 55.3216 112.876 64.1279 119.126 67.7404L119.039 68.0003L119.218 67.7891C119.304 67.8379 119.353 67.9245 119.353 68.022V88.803C119.353 107.391 112.144 120.595 99.5794 125.036L78.051 132.299C78.0239 132.309 77.9914 132.315 77.9643 132.315L77.9697 132.309Z" fill="#4760FF" stroke="#4760FF" stroke-width="1.03835"/>
<path d="M80.3706 124.233C80.2785 124.233 80.1972 124.19 80.1431 124.108L62.1134 96.7092C59.8874 93.3621 57.7969 89.8472 55.9013 86.2564L56.3779 86.0018C58.2626 89.5764 60.3478 93.0751 62.5629 96.4113L80.4789 123.637L96.8296 118.118C106.324 114.761 111.772 104.053 111.772 88.7315V71.59C104.872 65.9195 100.247 56.5228 100.247 48.166C100.247 47.9981 100.247 47.8302 100.253 47.6569L74.765 19.9922L55.1322 18.4758C53.8541 24.52 49.6513 28.6632 44.0728 29.3564V41.6398C44.0728 51.6106 46.4667 62.9136 50.989 74.3196L50.4853 74.52C45.9359 63.0436 43.5312 51.6756 43.5312 41.6398V29.1181C43.5312 28.9773 43.6342 28.8636 43.775 28.8473C49.2992 28.2624 53.4641 24.1571 54.6502 18.1346C54.6773 17.9992 54.8018 17.8963 54.9372 17.9179L74.9113 19.4615C74.9817 19.4615 75.0413 19.4994 75.09 19.5481L100.729 47.3861C100.778 47.4403 100.805 47.5053 100.8 47.5811C100.794 47.7815 100.789 47.9819 100.789 48.1823C100.789 56.4253 105.381 65.6974 112.216 71.265C112.281 71.3138 112.314 71.395 112.314 71.4763V88.7477C112.314 104.308 106.735 115.205 97.0029 118.644L80.4518 124.228C80.4247 124.238 80.3922 124.244 80.3651 124.244L80.3706 124.233Z" fill="#4760FF" stroke="#4760FF" stroke-width="1.03835"/>
<path d="M122.459 65.5823L118.539 67.8701L118.812 68.3379L122.732 66.0501L122.459 65.5823Z" fill="#4760FF" stroke="#4760FF" stroke-width="1.03835"/>
<path d="M111.213 42.7908L107.375 45.0039L107.646 45.4731L111.483 43.26L111.213 42.7908Z" fill="#4760FF" stroke="#4760FF" stroke-width="1.03835"/>
<path d="M52.8852 72.5267C48.5362 61.0883 46.2344 49.5414 46.2344 39.1212V30.2715H46.776V39.1212C46.776 49.471 49.0615 60.9583 53.3888 72.3318L52.8797 72.5267H52.8852Z" fill="#4760FF" stroke="#4760FF" stroke-width="1.03835"/>
<path d="M82.1728 121.542L64.4464 94.6032C62.3992 91.5215 60.4657 88.2666 58.7109 84.9249L59.1875 84.6758C60.9315 88.0012 62.8541 91.2399 64.896 94.3053L82.6224 121.244L82.1674 121.542H82.1728Z" fill="#4760FF" stroke="#4760FF" stroke-width="1.03835"/>
<path d="M85.9974 94.5597C83.4736 94.5597 80.6735 93.7148 77.776 92.0413C73.8927 89.7991 70.1882 86.2733 67.0632 81.8539L67.5073 81.5397C70.5836 85.8996 74.2285 89.3712 78.0468 91.5755C82.7912 94.316 87.2377 94.7655 90.5576 92.8482C93.8559 90.9418 95.6757 86.9069 95.6757 81.491C95.6757 70.1446 87.6438 56.2797 77.776 50.5767C73.0316 47.8363 68.5851 47.3813 65.2651 49.304C61.9668 51.2104 60.1471 55.2453 60.1471 60.6612C60.1471 62.6056 60.3854 64.669 60.8511 66.7867L60.3204 66.9004C59.8438 64.7449 59.6055 62.6435 59.6055 60.6612C59.6055 55.0395 61.5173 50.8421 64.9943 48.8328C68.493 46.8126 73.1291 47.2676 78.0468 50.1055C88.0663 55.8898 96.2173 69.9658 96.2173 81.4856C96.2173 87.1073 94.3055 91.3047 90.8284 93.314C89.3878 94.1426 87.7576 94.5543 85.992 94.5543L85.9974 94.5597Z" fill="#4760FF" stroke="#4760FF" stroke-width="1.03835"/>
<path d="M70.0126 78.5296L69.731 78.0692L73.3488 75.8703L67.1205 65.0818L46.2691 77.0239C46.1391 77.0944 45.9766 77.0564 45.9008 76.9265L33.1029 54.7915L29.5175 57.0553L29.2305 56.595L33.0541 54.1795C33.1191 54.1415 33.1895 54.1307 33.2654 54.147C33.3358 54.1632 33.4008 54.212 33.4332 54.2769L46.2366 76.4228L67.088 64.4806C67.218 64.4048 67.3804 64.4481 67.4563 64.5781L73.95 75.8324C74.0258 75.9624 73.9825 76.1249 73.8579 76.2007L70.0126 78.535V78.5296Z" fill="#4760FF" stroke="#4760FF" stroke-width="1.03835"/>
<path d="M42.3164 94.2906C42.2243 94.2906 42.1322 94.2418 42.0835 94.1552L22.6998 60.6358C22.6619 60.5709 22.6565 60.5004 22.6727 60.43C22.6889 60.3596 22.7377 60.3001 22.7973 60.2676L29.2422 56.5793C29.3668 56.5035 29.5347 56.5468 29.6105 56.6768L42.4084 78.8064L63.2761 66.8967C63.4007 66.8263 63.5685 66.8696 63.6444 66.9942L70.1056 78.151C70.1435 78.216 70.1489 78.2864 70.1327 78.3568C70.1164 78.4273 70.0677 78.4868 70.0081 78.5193L42.4518 94.2418C42.4084 94.2635 42.3651 94.2797 42.3164 94.2797V94.2906ZM23.3009 60.6034L42.4138 93.6515L69.499 78.1944L63.3086 67.5033L42.4409 79.413C42.3109 79.4834 42.1485 79.44 42.0726 79.3155L29.2747 57.1859L23.3009 60.6034V60.6034Z" fill="#4760FF" stroke="#4760FF" stroke-width="1.03835"/>
</g>
<defs>
<clipPath id="clip0_1776_1933">
<rect width="100.06" height="128.06" fill="white" transform="translate(22.6797 8.38672)"/>
</clipPath>
</defs>
</svg>
