<svg width="145" height="145" viewBox="0 0 145 145" fill="none" xmlns="http://www.w3.org/2000/svg">
<g clip-path="url(#clip0_1776_1965)">
<path opacity="0.08" d="M34.3242 110.425L82.8655 138.179L109.791 122.707L61.244 94.959L34.3242 110.425Z" fill="#4760FF"/>
<path d="M74.7505 10.7303L74.7506 10.7304C81.0935 14.3969 86.775 20.5461 90.8715 27.6314C94.968 34.7169 97.4557 42.6973 97.4557 50.0009V50.0011V50.0014V50.0018V50.0023V50.003V50.0038V50.0046V50.0056V50.0068V50.008V50.0094V50.0108V50.0124V50.0141V50.016V50.0179V50.0199V50.0221V50.0244V50.0268V50.0293V50.0319V50.0347V50.0375V50.0405V50.0435V50.0467V50.05V50.0534V50.057V50.0606V50.0643V50.0682V50.0722V50.0762V50.0804V50.0847V50.0891V50.0936V50.0983V50.103V50.1078V50.1128V50.1179V50.123V50.1283V50.1337V50.1392V50.1447V50.1504V50.1562V50.1622V50.1682V50.1743V50.1805V50.1869V50.1933V50.1998V50.2065V50.2132V50.2201V50.227V50.2341V50.2412V50.2485V50.2559V50.2633V50.2709V50.2786V50.2863V50.2942V50.3022V50.3102V50.3184V50.3267V50.3351V50.3435V50.3521V50.3608V50.3695V50.3784V50.3874V50.3964V50.4056V50.4148V50.4242V50.4336V50.4432V50.4528V50.4625V50.4724V50.4823V50.4923V50.5024V50.5126V50.5229V50.5333V50.5438V50.5544V50.5651V50.5758V50.5867V50.5976V50.6087V50.6198V50.6311V50.6424V50.6538V50.6653V50.6769V50.6886V50.7003V50.7122V50.7241V50.7362V50.7483V50.7605V50.7728V50.7852V50.7977V50.8103V50.8229V50.8357V50.8485V50.8614V50.8744V50.8875V50.9007V50.9139V50.9273V50.9407V50.9542V50.9678V50.9815V50.9953V51.0091V51.023V51.0371V51.0512V51.0653V51.0796V51.0939V51.1084V51.1229V51.1375V51.1521V51.1669V51.1817V51.1966V51.2116V51.2267V51.2418V51.257V51.2724V51.2877V51.3032V51.3187V51.3344V51.3501V51.3658V51.3817V51.3976V51.4136V51.4297V51.4458V51.4621V51.4784V51.4948V51.5112V51.5277V51.5443V51.561V51.5778V51.5946V51.6115V51.6285V51.6455V51.6626V51.6798V51.6971V51.7144V51.7318V51.7493V51.7668V51.7844V51.8021V51.8199V51.8377V51.8556V51.8736V51.8916V51.9097V51.9279V51.9461V51.9644V51.9828V52.0012V52.0197V52.0383V52.0569V52.0757V52.0944V52.1133V52.1322V52.1511V52.1702V52.1893V52.2084V52.2277V52.247V52.2663V52.2857V52.3052V52.3248V52.3444V52.364V52.3838V52.4036V52.4234V52.4433V52.4633V52.4833V52.5034V52.5236V52.5438V52.5641V52.5844V52.6048V52.6253V52.6458V52.6664V52.687V52.7077V52.7284V52.7492V52.7701V52.791V52.812V52.833V52.8541V52.8752V52.8964V52.9177V52.939V52.9604V52.9818V53.0032V53.0248V53.0463V53.068V53.0896V53.1114V53.1332V53.155V53.1769V53.1988V53.2208V53.2429V53.265V53.2871V53.3093V53.3316V53.3539V53.3762V53.3986V53.4211V53.4436V53.4661V53.4887V53.5113V53.534V53.5568V53.5795V53.6024V53.6252V53.6482V53.6711V53.6941V53.7172V53.7403V53.7635V53.7866V53.8099V53.8332V53.8565V53.8799V53.9033V53.9267V53.9502V53.9738V53.9974V54.021V54.0447V54.0684V54.0921V54.1159V54.1398V54.1636V54.1875V54.2115V54.2355V54.2595V54.2836V54.3077V54.3319V54.3561V54.3803V54.4046V54.4289V54.4532V54.4776V54.502V54.5264V54.5509V54.5755V54.6V54.6246V54.6492V54.6739V54.6986V54.7233V54.7481V54.7729V54.7978V54.8226V54.8475V54.8725V54.8974V54.9224V54.9475V54.9725V54.9976V55.0228V55.0479V55.0731V55.0983V55.1236V55.1488V55.1742V55.1995V55.2249V55.2503V55.2757V55.3011V55.3266V55.3521V55.3777V55.4032V55.4288V55.4544V55.4801V55.5058V55.5315V55.5572V55.5829V55.6087V55.6345V55.6603V55.6862V55.712V55.7379V55.7639V55.7898V55.8158V55.8418V55.8678V55.8938V55.9199V55.9459V55.972V55.9982V56.0243V56.0505V56.0766V56.1028V56.1291V56.1553V56.1816V56.2078V56.2341V56.2605V56.2868V56.3131V56.3395V56.3659V56.3923V56.4187V56.4452V56.4716V56.4981V56.5246V56.5511V56.5776V56.6041V56.6307V56.6573V56.6838V56.7104V56.737V56.7637V56.7903V56.8169V56.8436V56.8703V56.8969V56.9236V56.9503V56.9771V57.0038V57.0305V57.0573V57.084V57.1108V57.1376V57.1644V57.1912V57.218V57.2448V57.2716V57.2985V57.3253V57.3522V57.379V57.4059V57.4328V57.4596V57.4865V57.5134V57.5403V57.5672V57.5941V57.621V57.6479V57.6749V57.7018V57.7287V57.7557V57.7826V57.8095V57.8365V57.8634V57.8904V57.9173V57.9443V57.9712V57.9982V58.0251V58.0521V58.079V58.106V58.133V58.1599V58.1869V58.2138V58.2408V58.2677V58.2947V58.3216V58.3486V58.3755V58.4025V58.4294V58.4563V58.4833V58.5102V58.5371V58.5641V58.591V58.6179V58.6448V58.6717V58.6986V58.7255V58.7524V58.7792V58.8061V58.833V58.8451V58.8598V58.8867V58.9135V58.9404V58.9672V58.994V59.0208V59.0476V59.0744V59.1012V59.128V59.1547V59.1815V59.2082V59.2349V59.2617V59.2884V59.3151V59.3417V59.3684V59.3951V59.4217V59.4483V59.475V59.5016V59.5282V59.5547V59.5813V59.6078V59.6344V59.6609V59.6874V59.7139V59.7346V59.7404H97.9609L97.7064 60.173L113.449 69.435V98.1078C113.449 107.682 110.075 114.268 104.77 117.302C102.011 118.88 97.419 121.51 93.517 123.746C91.5659 124.864 89.7874 125.883 88.4965 126.623L87.64 127.114L86.4515 127.746C81.1825 130.547 73.9301 130.053 65.8153 125.369L65.812 125.367L60.7023 122.468C60.7016 122.467 60.7008 122.467 60.7001 122.466C52.3884 117.669 44.8355 109.433 39.3586 99.9766C33.8812 90.5196 30.5077 79.8904 30.5048 70.3369C30.5048 70.3368 30.5048 70.3368 30.5048 70.3367V41.3146L47.6203 31.5074L47.8761 31.3609V31.0661V26.1616C47.8761 18.215 50.7912 12.2624 55.966 9.27117L55.9661 9.27114C61.1691 6.26296 67.8183 6.71932 74.7505 10.7303ZM89.4183 54.6628L89.8874 54.1937L89.5615 54.0059V49.9487C89.5615 44.1603 87.4336 37.632 84.0751 31.8437C80.7166 26.0552 76.095 20.9507 71.0496 18.0427C67.0478 15.7343 63.2106 15.0944 60.6167 16.5893L60.6165 16.5895C58.0463 18.0728 56.6967 21.6646 56.6967 26.2079H57.2054L56.6967 26.208V26.2081V26.2084V26.2089V26.2094V26.21V26.2108V26.2117V26.2127V26.2138V26.2151V26.2164V26.2179V26.2195V26.2212V26.223V26.225V26.227V26.2292V26.2315V26.2339V26.2364V26.239V26.2418V26.2446V26.2476V26.2507V26.2538V26.2571V26.2606V26.2641V26.2677V26.2715V26.2753V26.2793V26.2834V26.2876V26.2919V26.2963V26.3008V26.3054V26.3102V26.315V26.32V26.325V26.3302V26.3355V26.3409V26.3464V26.352V26.3577V26.3635V26.3694V26.3754V26.3815V26.3878V26.3941V26.4005V26.4071V26.4137V26.4205V26.4274V26.4343V26.4414V26.4485V26.4558V26.4632V26.4707V26.4782V26.4859V26.4937V26.5016V26.5095V26.5176V26.5258V26.5341V26.5424V26.5509V26.5595V26.5682V26.5769V26.5858V26.5948V26.6038V26.613V26.6223V26.6316V26.6411V26.6506V26.6603V26.67V26.6798V26.6898V26.6998V26.7099V26.7201V26.7304V26.7409V26.7513V26.7619V26.7726V26.7834V26.7943V26.8052V26.8163V26.8274V26.8387V26.85V26.8614V26.8729V26.8845V26.8962V26.908V26.9199V26.9318V26.9439V26.956V26.9682V26.9805V26.9929V27.0054V27.018V27.0307V27.0434V27.0563V27.0692V27.0822V27.0953V27.1085V27.1217V27.1351V27.1485V27.162V27.1757V27.1893V27.2031V27.217V27.2309V27.2449V27.259V27.2732V27.2875V27.3019V27.3163V27.3308V27.3454V27.3601V27.3748V27.3897V27.4046V27.4196V27.4347V27.4498V27.4651V27.4804V27.4958V27.5112V27.5268V27.5424V27.5581V27.5739V27.5898V27.6057V27.6217V27.6378V27.6539V27.6702V27.6865V27.7029V27.7193V27.7359V27.7525V27.7692V27.7859V27.8028V27.8197V27.8367V27.8537V27.8708V27.888V27.9053V27.9226V27.94V27.9575V27.9751V27.9927V28.0104V28.0281V28.046V28.0639V28.0818V28.0999V28.118V28.1362V28.1544V28.1727V28.1911V28.2095V28.2281V28.2466V28.2653V28.284V28.3028V28.3216V28.3405V28.3595V28.3785V28.3977V28.4168V28.4361V28.4554V28.4747V28.4941V28.5136V28.5332V28.5528V28.5725V28.5922V28.612V28.6318V28.6518V28.6717V28.6918V28.7119V28.7321V28.7523V28.7726V28.7929V28.8133V28.8338V28.8543V28.8748V28.8955V28.9162V28.9369V28.9577V28.9786V28.9995V29.0205V29.0415V29.0626V29.0837V29.1049V29.1262V29.1475V29.1689V29.1903V29.2117V29.2333V29.2548V29.2765V29.2982V29.3199V29.3417V29.3635V29.3854V29.4074V29.4293V29.4514V29.4735V29.4956V29.5178V29.5401V29.5624V29.5847V29.6071V29.6296V29.6521V29.6746V29.6972V29.7198V29.7425V29.7652V29.788V29.8108V29.8337V29.8566V29.8796V29.9026V29.9257V29.9488V29.9719V29.9951V30.0183V30.0416V30.0649V30.0883V30.1117V30.1352V30.1587V30.1822V30.2058V30.2294V30.2531V30.2768V30.3005V30.3243V30.3481V30.372V30.3959V30.4199V30.4439V30.4679V30.4919V30.5161V30.5402V30.5644V30.5886V30.6129V30.6372V30.6615V30.6859V30.7103V30.7347V30.7592V30.7837V30.8082V30.8328V30.8574V30.8821V30.9068V30.9315V30.9563V30.9811V31.0059V31.0307V31.0556V31.0806V31.1055V31.1305V31.1555V31.1806V31.2057V31.2308V31.2559V31.2811V31.3063V31.3315V31.3568V31.3821V31.4074V31.4328V31.4582V31.4836V31.509V31.5345V31.56V31.5855V31.611V31.6366V31.6622V31.6878V31.7135V31.7392V31.7649V31.7906V31.8164V31.8421V31.8679V31.8938V31.9196V31.9455V31.9714V31.9973V32.0233V32.0492V32.0752V32.1012V32.1273V32.1533V32.1794V32.2055V32.2316V32.2578V32.2839V32.3101V32.3363V32.3625V32.3888V32.415V32.4413V32.4676V32.4939V32.5202V32.5466V32.5729V32.5993V32.6257V32.6521V32.6785V32.705V32.7314V32.7579V32.7844V32.8109V32.8374V32.864V32.8905V32.9171V32.9437V32.9702V32.9969V33.0235V33.0501V33.0767V33.1034V33.13V33.1567V33.1834V33.2101V33.2368V33.2635V33.2903V33.317V33.3437V33.3705V33.3973V33.424V33.4508V33.4776V33.5044V33.5312V33.558V33.5848V33.6117V33.6385V33.6653V33.6922V33.719V33.7459V33.7728V33.7996V33.8265V33.8534V33.8803V33.9071V33.934V33.9609V33.9878V34.0147V34.0416V34.0685V34.0954V34.1223V34.1492V34.1762V34.2031V34.23V34.2569V34.2838V34.3107V34.3376V34.3645V34.3914V34.4184V34.4453V34.4722V34.4991V34.526V34.5529V34.5798V34.6067V34.6336V34.6604V34.6873V34.7142V34.7411V34.7679V34.7948V34.8217V34.8485V34.8754V34.9022V34.9291V34.9559V34.9827V35.0095V35.0363V35.0631V35.0899V35.1167V35.1435V35.1703V35.197V35.2238V35.2505V35.2773V35.304V35.3307V35.3574V35.3841V35.4108V35.4374V35.4641V35.4907V35.5174V35.544V35.5706V35.5972V35.6238V35.6503V35.6769V35.7034V35.73V35.7565V35.783V35.8095V35.8359V35.8624V35.8888V35.9152V35.9416V36.2356L56.9514 36.3823L88.5442 54.5937V55.537L89.4125 54.6686L89.4183 54.6628Z" fill="white" stroke="#4760FF" stroke-width="1.01734"/>
<path d="M98.8026 60.6799L98.8027 60.68L113.097 68.918L96.1217 78.651L31.0087 41.1088L47.9785 31.3758L98.8026 60.6799Z" fill="white" stroke="#4760FF" stroke-width="1.01734"/>
<path d="M69.6504 88.1607V88.482C69.5648 90.8254 68.5375 92.1673 67.1668 92.5524L66.7412 92.6719L66.8003 93.11L68.4396 105.269L57.6013 99.0129L59.3237 88.2294L59.356 88.027L59.239 87.8587C57.5506 85.4305 56.4696 82.5074 56.4696 79.9615C56.4696 77.8138 57.2223 76.4429 58.2931 75.8299C59.365 75.2164 60.9375 75.2581 62.8056 76.337C64.6705 77.4141 66.3875 79.28 67.6394 81.4431C68.8913 83.6064 69.6504 86.019 69.6504 88.1607Z" fill="white" stroke="#4760FF" stroke-width="1.01734"/>
<path d="M113.449 69.5772V98.1145C113.449 107.688 110.075 114.275 104.771 117.308C102.011 118.886 97.4192 121.517 93.5172 123.753C92.8254 124.149 92.1552 124.533 91.5208 124.897C94.6988 121.094 96.5161 115.475 96.5161 108.393V79.5459L113.449 69.5772Z" fill="#4760FF" stroke="#4760FF" stroke-width="1.01734"/>
<path d="M48.1065 40.9735H57.1391C58.2478 41.6475 58.6979 42.4484 58.6979 43.1516C58.6979 43.8786 58.2168 44.7101 57.0242 45.3977C55.8342 46.0838 54.2423 46.4415 52.6228 46.4415C51.0033 46.4415 49.4114 46.0838 48.2214 45.3977C47.0288 44.7101 46.5477 43.8786 46.5477 43.1516C46.5477 42.4484 46.9978 41.6475 48.1065 40.9735Z" fill="#4760FF" stroke="#4760FF" stroke-width="1.01734"/>
<path d="M89.1182 65.0106H98.1508C99.2595 65.6846 99.7096 66.4855 99.7096 67.1887C99.7096 67.9157 99.2285 68.7472 98.036 69.4348C96.846 70.1209 95.254 70.4786 93.6345 70.4786C92.015 70.4786 90.4231 70.1209 89.2331 69.4348C88.0405 68.7472 87.5595 67.9157 87.5595 67.1887C87.5595 66.4855 88.0095 65.6846 89.1182 65.0106Z" fill="#4760FF" stroke="#4760FF" stroke-width="1.01734"/>
<path d="M54.3989 44.5342C53.1835 44.8891 51.8755 44.8891 50.6601 44.5342H54.3989ZM54.3989 44.5342L54.5417 45.0224L54.3991 44.5341L54.3989 44.5342ZM48.455 42.985V42.631V26.4988C48.455 18.5873 51.3583 12.6636 56.51 9.68377C61.69 6.69275 68.3105 7.14915 75.208 11.137L75.4626 10.6967L75.208 11.137C81.5248 14.7891 87.1817 20.9122 91.26 27.9672C95.2436 34.8581 97.6985 42.5986 97.8106 49.7309H97.8088V50.2396H97.8146H98.3174C97.8088 50.2396 97.8088 50.2397 97.8088 50.2398V50.2403V50.2425V50.2513V50.2859V50.4208L97.8088 50.9328L97.8086 52.7602C97.8084 54.2726 97.8081 56.289 97.8073 58.3055C97.8066 60.322 97.8055 62.3384 97.8039 63.8506C97.8031 64.6067 97.8021 65.2366 97.801 65.6773C97.8009 65.7436 97.8007 65.8056 97.8005 65.8631H97.7432L97.7998 66.423C97.8649 67.067 97.306 67.9859 95.4421 68.5048L95.4418 68.5049C94.2863 68.8274 93.0491 68.8274 91.8936 68.5049L91.8933 68.5048C90.0242 67.9844 89.4793 67.0678 89.5576 66.4342L89.5614 66.4031V66.3718V50.2396C89.5614 44.4512 87.4335 37.9229 84.075 32.1346C80.7165 26.3461 76.095 21.2417 71.0496 18.3337C67.0479 16.0252 63.2105 15.3852 60.6166 16.8802L60.6164 16.8804C58.0462 18.3637 56.6966 21.9555 56.6966 26.4988L48.455 42.985ZM48.455 42.985C48.6608 43.525 49.3078 44.1388 50.6599 44.5341L48.455 42.985ZM98.3059 66.6933C98.3167 66.5863 98.3167 66.4789 98.3059 66.3718V66.6933ZM56.6916 42.1223L56.6815 42.5338C56.6813 42.5505 56.6811 42.5646 56.6809 42.5762L56.6804 42.6016C56.6804 42.6001 56.6806 42.5971 56.6808 42.5933C56.681 42.5917 56.6818 42.5783 56.6842 42.561C56.6858 42.55 56.6922 42.5173 56.6976 42.4959C56.7167 42.4395 56.9291 42.1931 57.1879 42.1223H56.6916Z" fill="white" stroke="#4760FF" stroke-width="1.01734"/>
<path d="M60.6402 75.485C60.7007 75.4971 60.7581 75.5098 60.8119 75.5227C60.5709 76.2415 60.444 77.0645 60.444 77.9801C60.444 80.7226 61.5698 83.7689 63.2787 86.2883L61.5331 97.2168L61.4779 97.5625L61.7811 97.7376L67.8937 101.266L68.4341 105.274L57.5959 99.0177L59.2719 88.5353L59.296 88.3846L59.2331 88.2455L58.7696 88.455L59.2331 88.2455L59.2331 88.2453L59.2327 88.2446L59.2312 88.2412L59.2248 88.2271L59.1997 88.1708C59.1776 88.1212 59.145 88.0476 59.1036 87.953C59.0206 87.7637 58.9023 87.49 58.7611 87.154C58.4786 86.4816 58.1056 85.5614 57.7426 84.5687C57.3789 83.5743 57.0284 82.5155 56.7882 81.5639C56.5432 80.5928 56.4313 79.8005 56.4947 79.3073L56.4948 79.307C56.6788 77.869 57.0925 76.9649 57.5651 76.3988C58.0327 75.8387 58.5878 75.5737 59.1302 75.4641C59.6818 75.3526 60.2249 75.4019 60.6402 75.485Z" fill="#4760FF" stroke="#4760FF" stroke-width="1.01734"/>
<mask id="path-10-inside-1_1776_1965" fill="white">
<path d="M68.2226 101.195L61.8937 97.5416C61.7894 97.4837 61.7315 97.3621 61.7547 97.2463L63.515 86.2328C61.7084 83.5982 60.6719 80.5987 60.6719 77.9814H61.2509C61.2509 80.5177 62.2758 83.436 64.0593 86.0012C64.0998 86.0649 64.1172 86.1402 64.1056 86.2155L62.3569 97.1478L68.5121 100.703L68.2226 101.207V101.195Z"/>
</mask>
<path d="M68.2226 101.195L61.8937 97.5416C61.7894 97.4837 61.7315 97.3621 61.7547 97.2463L63.515 86.2328C61.7084 83.5982 60.6719 80.5987 60.6719 77.9814H61.2509C61.2509 80.5177 62.2758 83.436 64.0593 86.0012C64.0998 86.0649 64.1172 86.1402 64.1056 86.2155L62.3569 97.1478L68.5121 100.703L68.2226 101.207V101.195Z" fill="#4760FF"/>
<path d="M68.2226 101.195H69.24V100.608L68.7313 100.314L68.2226 101.195ZM61.8937 97.5416L62.4023 96.6605L62.395 96.6563L62.3877 96.6523L61.8937 97.5416ZM61.7547 97.2463L62.7523 97.4458L62.7562 97.4264L62.7593 97.4068L61.7547 97.2463ZM63.515 86.2328L64.5196 86.3934L64.5837 85.9924L64.354 85.6575L63.515 86.2328ZM60.6719 77.9814V76.9641H59.6545V77.9814H60.6719ZM61.2509 77.9814H62.2683V76.9641H61.2509V77.9814ZM64.0593 86.0012L64.9176 85.455L64.9064 85.4375L64.8946 85.4205L64.0593 86.0012ZM64.1056 86.2155L65.1102 86.3761L65.1111 86.3701L64.1056 86.2155ZM62.3569 97.1478L61.3523 96.9871L61.2417 97.6785L61.8481 98.0288L62.3569 97.1478ZM68.5121 100.703L69.3942 101.21L69.9 100.33L69.021 99.8222L68.5121 100.703ZM68.2226 101.207H67.2053V105.019L69.1047 101.714L68.2226 101.207ZM68.7313 100.314L62.4023 96.6605L61.385 98.4226L67.714 102.076L68.7313 100.314ZM62.3877 96.6523C62.6584 96.8026 62.8185 97.1146 62.7523 97.4458L60.7571 97.0467C60.6446 97.6095 60.9205 98.1647 61.3996 98.4309L62.3877 96.6523ZM62.7593 97.4068L64.5196 86.3934L62.5104 86.0723L60.7501 97.0857L62.7593 97.4068ZM64.354 85.6575C62.6369 83.1534 61.6892 80.3509 61.6892 77.9814H59.6545C59.6545 80.8466 60.7798 84.0429 62.676 86.8082L64.354 85.6575ZM60.6719 78.9988H61.2509V76.9641H60.6719V78.9988ZM60.2336 77.9814C60.2336 80.7701 61.3505 83.8873 63.224 86.582L64.8946 85.4205C63.2012 82.9848 62.2683 80.2652 62.2683 77.9814H60.2336ZM63.201 86.5474C63.1166 86.4148 63.0721 86.2427 63.1001 86.0608L65.1111 86.3701C65.1623 86.0377 65.083 85.715 64.9176 85.455L63.201 86.5474ZM63.101 86.0548L61.3523 96.9871L63.3615 97.3085L65.1102 86.3761L63.101 86.0548ZM61.8481 98.0288L68.0033 101.584L69.021 99.8222L62.8657 96.2669L61.8481 98.0288ZM67.6301 100.196L67.3406 100.7L69.1047 101.714L69.3942 101.21L67.6301 100.196ZM69.24 101.207V101.195H67.2053V101.207H69.24Z" fill="#4760FF" mask="url(#path-10-inside-1_1776_1965)"/>
<mask id="path-12-inside-2_1776_1965" fill="white">
<path d="M87.0903 128.527L86.8008 128.023C86.8008 128.023 99.6498 120.658 105.168 117.502C110.837 114.259 113.958 107.374 113.958 98.1155V68.6885H114.537V98.1155C114.537 107.589 111.312 114.653 105.458 118C99.9393 121.156 87.0903 128.521 87.0903 128.521V128.527Z"/>
</mask>
<path d="M87.0903 128.527L86.8008 128.023C86.8008 128.023 99.6498 120.658 105.168 117.502C110.837 114.259 113.958 107.374 113.958 98.1155V68.6885H114.537V98.1155C114.537 107.589 111.312 114.653 105.458 118C99.9393 121.156 87.0903 128.521 87.0903 128.521V128.527Z" fill="#4760FF"/>
<path d="M87.0903 128.527L86.2083 129.034L88.1076 132.339V128.527H87.0903ZM86.8008 128.023L86.2948 127.141L85.4112 127.647L85.9187 128.53L86.8008 128.023ZM105.168 117.502L105.673 118.385L105.673 118.385L105.168 117.502ZM113.958 68.6885V67.6711H112.941V68.6885H113.958ZM114.537 68.6885H115.554V67.6711H114.537V68.6885ZM105.458 118L104.953 117.117L104.953 117.117L105.458 118ZM87.0903 128.521L86.5844 127.639L86.073 127.932V128.521H87.0903ZM87.9723 128.02L87.6828 127.516L85.9187 128.53L86.2083 129.034L87.9723 128.02ZM86.8008 128.023C87.3067 128.906 87.3068 128.906 87.3069 128.906C87.307 128.906 87.3071 128.906 87.3073 128.905C87.3077 128.905 87.3083 128.905 87.3091 128.904C87.3106 128.904 87.313 128.902 87.3161 128.9C87.3222 128.897 87.3315 128.892 87.3437 128.885C87.3682 128.871 87.4046 128.85 87.4524 128.822C87.5478 128.768 87.6885 128.687 87.8696 128.583C88.2317 128.376 88.7551 128.076 89.4005 127.706C90.6913 126.966 92.4699 125.947 94.4208 124.829C98.3229 122.593 102.914 119.963 105.673 118.385L104.663 116.619C101.903 118.197 97.3113 120.827 93.4093 123.063C91.4582 124.181 89.6796 125.201 88.3888 125.94C87.7434 126.31 87.2199 126.61 86.8578 126.818C86.6767 126.922 86.536 127.002 86.4405 127.057C86.3928 127.084 86.3564 127.105 86.3319 127.119C86.3196 127.126 86.3104 127.132 86.3042 127.135C86.3011 127.137 86.2987 127.138 86.2972 127.139C86.2964 127.14 86.2958 127.14 86.2954 127.14C86.2952 127.14 86.2951 127.14 86.295 127.14C86.2949 127.141 86.2948 127.141 86.8008 128.023ZM105.673 118.385C111.783 114.89 114.975 107.569 114.975 98.1155H112.941C112.941 107.179 109.891 113.628 104.663 116.619L105.673 118.385ZM114.975 98.1155V68.6885H112.941V98.1155H114.975ZM113.958 69.7058H114.537V67.6711H113.958V69.7058ZM113.52 68.6885V98.1155H115.554V68.6885H113.52ZM113.52 98.1155C113.52 107.389 110.369 114.02 104.953 117.117L105.963 118.883C112.255 115.286 115.554 107.788 115.554 98.1155H113.52ZM104.953 117.117C102.193 118.695 97.6008 121.325 93.6988 123.561C91.7477 124.679 89.9691 125.699 88.6783 126.438C88.0329 126.808 87.5094 127.108 87.1473 127.316C86.9662 127.42 86.8255 127.5 86.73 127.555C86.6823 127.582 86.6459 127.603 86.6214 127.617C86.6092 127.624 86.5999 127.63 86.5937 127.633C86.5906 127.635 86.5883 127.636 86.5867 127.637C86.5859 127.638 86.5853 127.638 86.585 127.638C86.5848 127.638 86.5846 127.638 86.5845 127.638C86.5844 127.639 86.5844 127.639 87.0903 128.521C87.5962 129.404 87.5963 129.404 87.5964 129.404C87.5965 129.404 87.5966 129.404 87.5968 129.403C87.5972 129.403 87.5978 129.403 87.5986 129.402C87.6001 129.402 87.6025 129.4 87.6056 129.398C87.6118 129.395 87.621 129.39 87.6333 129.383C87.6577 129.369 87.6942 129.348 87.7419 129.32C87.8373 129.266 87.978 129.185 88.1591 129.081C88.5212 128.874 89.0447 128.574 89.6901 128.204C90.9809 127.464 92.7594 126.445 94.7104 125.327C98.6125 123.091 103.204 120.461 105.963 118.883L104.953 117.117ZM86.073 128.521V128.527H88.1076V128.521H86.073Z" fill="#4760FF" mask="url(#path-12-inside-2_1776_1965)"/>
<mask id="path-14-inside-3_1776_1965" fill="white">
<path d="M79.4986 130.292C75.2658 130.292 70.5697 128.873 65.7058 126.065L60.5928 123.164C43.7194 113.424 29.9961 89.724 29.9961 70.3376V41.1943C29.9961 41.0901 30.054 40.9974 30.1409 40.9453C30.2277 40.8932 30.3435 40.8932 30.4304 40.9453L96.4414 79.0059C96.5283 79.058 96.5862 79.1507 96.5862 79.2549V108.392C96.5862 117.819 93.3841 124.86 87.5705 128.213C85.1674 129.603 82.4401 130.286 79.4928 130.286L79.4986 130.292ZM30.5751 41.6981V70.3376C30.5751 89.5445 44.1711 113.019 60.8765 122.666L65.9895 125.567C74.0556 130.222 81.6179 130.987 87.281 127.721C92.9093 124.473 96.0072 117.611 96.0072 108.404V79.4286L30.5751 41.6981Z"/>
</mask>
<path d="M79.4986 130.292C75.2658 130.292 70.5697 128.873 65.7058 126.065L60.5928 123.164C43.7194 113.424 29.9961 89.724 29.9961 70.3376V41.1943C29.9961 41.0901 30.054 40.9974 30.1409 40.9453C30.2277 40.8932 30.3435 40.8932 30.4304 40.9453L96.4414 79.0059C96.5283 79.058 96.5862 79.1507 96.5862 79.2549V108.392C96.5862 117.819 93.3841 124.86 87.5705 128.213C85.1674 129.603 82.4401 130.286 79.4928 130.286L79.4986 130.292ZM30.5751 41.6981V70.3376C30.5751 89.5445 44.1711 113.019 60.8765 122.666L65.9895 125.567C74.0556 130.222 81.6179 130.987 87.281 127.721C92.9093 124.473 96.0072 117.611 96.0072 108.404V79.4286L30.5751 41.6981Z" fill="#4760FF"/>
<path d="M79.4986 130.292V131.309H81.9534L80.2182 129.573L79.4986 130.292ZM65.7058 126.065L66.2145 125.184L66.2078 125.18L65.7058 126.065ZM60.5928 123.164L60.0842 124.045L60.0908 124.049L60.5928 123.164ZM30.4304 40.9453L29.907 41.8177L29.9146 41.8222L29.9222 41.8267L30.4304 40.9453ZM96.4414 79.0059L96.9649 78.1336L96.9573 78.129L96.9496 78.1246L96.4414 79.0059ZM87.5705 128.213L87.0622 127.332L87.0612 127.332L87.5705 128.213ZM79.4928 130.286V129.269H77.0381L78.7732 131.005L79.4928 130.286ZM30.5751 41.6981L31.0833 40.8168L29.5578 39.9371V41.6981H30.5751ZM60.8765 122.666L60.3678 123.547L60.3745 123.551L60.8765 122.666ZM65.9895 125.567L66.4981 124.686L66.4915 124.682L65.9895 125.567ZM87.281 127.721L87.7892 128.602L87.7895 128.602L87.281 127.721ZM96.0072 79.4286H97.0245V78.8409L96.5154 78.5473L96.0072 79.4286ZM79.4986 129.275C75.4898 129.275 70.9685 127.929 66.2145 125.184L65.1971 126.946C70.171 129.818 75.0418 131.309 79.4986 131.309V129.275ZM66.2078 125.18L61.0948 122.279L60.0908 124.049L65.2037 126.95L66.2078 125.18ZM61.1014 122.283C52.8554 117.523 45.3217 109.311 39.8473 99.8585C34.3727 90.4056 31.0134 79.8088 31.0134 70.3376H28.9788C28.9788 80.2529 32.4812 91.1995 38.0866 100.878C43.6921 110.557 51.4569 119.065 60.0842 124.045L61.1014 122.283ZM31.0134 70.3376V41.1943H28.9788V70.3376H31.0134ZM31.0134 41.1943C31.0134 41.4784 30.8563 41.7025 30.6643 41.8177L29.6174 40.073C29.2517 40.2924 28.9788 40.7018 28.9788 41.1943H31.0134ZM30.6643 41.8177C30.429 41.9589 30.1423 41.9589 29.907 41.8177L30.9538 40.073C30.5448 39.8276 30.0265 39.8276 29.6174 40.073L30.6643 41.8177ZM29.9222 41.8267L95.9333 79.8873L96.9496 78.1246L30.9385 40.064L29.9222 41.8267ZM95.918 79.8783C95.726 79.7631 95.5689 79.539 95.5689 79.2549H97.6035C97.6035 78.7624 97.3306 78.353 96.9649 78.1336L95.918 79.8783ZM95.5689 79.2549V108.392H97.6035V79.2549H95.5689ZM95.5689 108.392C95.5689 117.62 92.4405 124.23 87.0622 127.332L88.0787 129.094C94.3277 125.491 97.6035 118.019 97.6035 108.392H95.5689ZM87.0612 127.332C84.8277 128.624 82.2791 129.269 79.4928 129.269V131.303C82.6012 131.303 85.5072 130.582 88.0798 129.094L87.0612 127.332ZM78.7732 131.005L78.779 131.011L80.2182 129.573L80.2125 129.567L78.7732 131.005ZM29.5578 41.6981V70.3376H31.5925V41.6981H29.5578ZM29.5578 70.3376C29.5578 80.1631 33.0284 91.0084 38.5809 100.597C44.1336 110.185 51.8245 118.613 60.3678 123.547L61.3853 121.785C53.2232 117.072 45.7633 108.939 40.3417 99.5769C34.9199 90.2145 31.5925 79.719 31.5925 70.3376H29.5578ZM60.3745 123.551L65.4875 126.452L66.4915 124.682L61.3786 121.781L60.3745 123.551ZM65.4809 126.448C73.7135 131.2 81.6871 132.121 87.7892 128.602L86.7727 126.84C81.5487 129.852 74.3977 129.245 66.498 124.686L65.4809 126.448ZM87.7895 128.602C93.8557 125.101 97.0245 117.805 97.0245 108.404H94.9898C94.9898 117.416 91.9628 123.844 86.7724 126.84L87.7895 128.602ZM97.0245 108.404V79.4286H94.9898V108.404H97.0245ZM96.5154 78.5473L31.0833 40.8168L30.0669 42.5794L95.499 80.3099L96.5154 78.5473Z" fill="#4760FF" mask="url(#path-14-inside-3_1776_1965)"/>
<mask id="path-16-inside-4_1776_1965" fill="white">
<path d="M58.0393 36.2533L57.75 36.7549L88.1682 54.2956L88.4574 53.794L58.0393 36.2533Z"/>
</mask>
<path d="M58.0393 36.2533L57.75 36.7549L88.1682 54.2956L88.4574 53.794L58.0393 36.2533Z" fill="#4760FF"/>
<path d="M57.75 36.7549L56.8687 36.2467L56.3605 37.128L57.2418 37.6362L57.75 36.7549ZM58.0393 36.2533L58.5475 35.372L57.6662 34.8637L57.158 35.7451L58.0393 36.2533ZM88.4574 53.794L89.3387 54.3022L89.8469 53.4209L88.9656 52.9127L88.4574 53.794ZM88.1682 54.2956L87.66 55.1769L88.5413 55.6851L89.0495 54.8038L88.1682 54.2956ZM58.6313 37.2631L58.9206 36.7615L57.158 35.7451L56.8687 36.2467L58.6313 37.2631ZM57.5311 37.1346L87.9492 54.6753L88.9656 52.9127L58.5475 35.372L57.5311 37.1346ZM87.5761 53.2858L87.2869 53.7874L89.0495 54.8038L89.3387 54.3022L87.5761 53.2858ZM88.6764 53.4143L58.2582 35.8736L57.2418 37.6362L87.66 55.1769L88.6764 53.4143Z" fill="#4760FF" mask="url(#path-16-inside-4_1776_1965)"/>
<mask id="path-18-inside-5_1776_1965" fill="white">
<path d="M96.1253 79.5272C96.0732 79.5272 96.0269 79.5156 95.9806 79.4867L29.8479 41.3566C29.761 41.3045 29.7031 41.2118 29.7031 41.1076C29.7031 41.0034 29.761 40.9107 29.8479 40.8586L47.8446 30.54L48.1341 31.0438L30.5717 41.1076L96.1253 78.9018L113.537 68.9191L98.9105 60.4882L99.2 59.9844L114.261 68.6701C114.354 68.7222 114.406 68.8149 114.406 68.9191C114.406 69.0233 114.348 69.116 114.261 69.1681L96.2701 79.4867C96.2238 79.5098 96.1774 79.5272 96.1253 79.5272Z"/>
</mask>
<path d="M96.1253 79.5272C96.0732 79.5272 96.0269 79.5156 95.9806 79.4867L29.8479 41.3566C29.761 41.3045 29.7031 41.2118 29.7031 41.1076C29.7031 41.0034 29.761 40.9107 29.8479 40.8586L47.8446 30.54L48.1341 31.0438L30.5717 41.1076L96.1253 78.9018L113.537 68.9191L98.9105 60.4882L99.2 59.9844L114.261 68.6701C114.354 68.7222 114.406 68.8149 114.406 68.9191C114.406 69.0233 114.348 69.116 114.261 69.1681L96.2701 79.4867C96.2238 79.5098 96.1774 79.5272 96.1253 79.5272Z" fill="#4760FF"/>
<path d="M95.9806 79.4867L96.5197 78.624L96.5044 78.6144L96.4887 78.6053L95.9806 79.4867ZM29.8479 41.3566L29.3245 42.229L29.3321 42.2335L29.3397 42.2379L29.8479 41.3566ZM29.8479 40.8586L29.3419 39.976L29.3331 39.9811L29.3245 39.9863L29.8479 40.8586ZM47.8446 30.54L48.7266 30.0331L48.2202 29.152L47.3386 29.6575L47.8446 30.54ZM48.1341 31.0438L48.6399 31.9265L49.5237 31.42L49.0162 30.5369L48.1341 31.0438ZM30.5717 41.1076L30.0659 40.2249L28.5302 41.1049L30.0636 41.989L30.5717 41.1076ZM96.1253 78.9018L95.6172 79.7832L96.1239 80.0753L96.6313 79.7844L96.1253 78.9018ZM113.537 68.9191L114.043 69.8017L115.578 68.9215L114.045 68.0377L113.537 68.9191ZM98.9105 60.4882L98.0285 59.9813L97.5222 60.8622L98.4025 61.3696L98.9105 60.4882ZM99.2 59.9844L99.7083 59.1032L98.8257 58.5942L98.318 59.4775L99.2 59.9844ZM114.261 68.6701L113.753 69.5515L113.762 69.5568L114.261 68.6701ZM114.261 69.1681L114.767 70.0506L114.776 70.0456L114.784 70.0405L114.261 69.1681ZM96.2701 79.4867L96.725 80.3966L96.751 80.3836L96.7762 80.3692L96.2701 79.4867ZM96.1253 78.5099C96.176 78.5099 96.2428 78.5157 96.3184 78.5363C96.3951 78.5572 96.463 78.5885 96.5197 78.624L95.4414 80.3494C95.6646 80.4889 95.9014 80.5445 96.1253 80.5445V78.5099ZM96.4887 78.6053L30.356 40.4753L29.3397 42.2379L95.4724 80.368L96.4887 78.6053ZM30.3713 40.4842C30.5634 40.5995 30.7205 40.8235 30.7205 41.1076H28.6858C28.6858 41.6002 28.9587 42.0095 29.3245 42.229L30.3713 40.4842ZM30.7205 41.1076C30.7205 41.3917 30.5634 41.6157 30.3713 41.731L29.3245 39.9863C28.9587 40.2057 28.6858 40.615 28.6858 41.1076H30.7205ZM30.3539 41.7412L48.3506 31.4226L47.3386 29.6575L29.3419 39.976L30.3539 41.7412ZM46.9625 31.047L47.2521 31.5507L49.0162 30.5369L48.7266 30.0331L46.9625 31.047ZM47.6283 30.1611L30.0659 40.2249L31.0775 41.9903L48.6399 31.9265L47.6283 30.1611ZM30.0636 41.989L95.6172 79.7832L96.6334 78.0205L31.0798 40.2262L30.0636 41.989ZM96.6313 79.7844L114.043 69.8017L113.031 68.0365L95.6193 78.0193L96.6313 79.7844ZM114.045 68.0377L99.4186 59.6068L98.4025 61.3696L113.029 69.8005L114.045 68.0377ZM99.7926 60.9951L100.082 60.4914L98.318 59.4775L98.0285 59.9813L99.7926 60.9951ZM98.6918 60.8657L113.753 69.5514L114.769 67.7888L99.7083 59.1032L98.6918 60.8657ZM113.762 69.5568C113.526 69.4238 113.388 69.1723 113.388 68.9191H115.423C115.423 68.4575 115.181 68.0206 114.76 67.7834L113.762 69.5568ZM113.388 68.9191C113.388 68.635 113.546 68.411 113.738 68.2957L114.784 70.0405C115.15 69.821 115.423 69.4117 115.423 68.9191H113.388ZM113.755 68.2856L95.7639 78.6042L96.7762 80.3692L114.767 70.0506L113.755 68.2856ZM95.8151 78.5767C95.822 78.5733 95.9441 78.5099 96.1253 78.5099V80.5445C96.4108 80.5445 96.6255 80.4464 96.725 80.3966L95.8151 78.5767Z" fill="#4760FF" mask="url(#path-18-inside-5_1776_1965)"/>
<mask id="path-20-inside-6_1776_1965" fill="white">
<path d="M69.0807 106.516C69.0285 106.516 68.9822 106.505 68.9359 106.476L56.8976 99.5273C56.7933 99.4694 56.7354 99.3478 56.7586 99.232L58.5189 88.2186C56.7123 85.5839 55.6758 82.5787 55.6758 79.9672C55.6758 77.6858 56.4633 75.9776 57.8877 75.1495C59.3238 74.3215 61.2114 74.501 63.2092 75.6533C67.2046 77.9579 70.453 83.5746 70.453 88.1665C70.453 90.7432 69.3991 92.6193 67.6215 93.2505L69.3644 106.192C69.3818 106.302 69.3296 106.412 69.237 106.47C69.1907 106.505 69.1328 106.516 69.0749 106.516H69.0807ZM57.3608 99.1278L68.7159 105.683L67.0193 93.0825C67.0019 92.9378 67.0887 92.8046 67.2277 92.7641C68.9127 92.2893 69.874 90.61 69.874 88.1607C69.874 83.7541 66.7529 78.3632 62.9196 76.1513C61.113 75.109 59.428 74.9295 58.1773 75.6475C56.9381 76.3655 56.2548 77.8942 56.2548 79.9614C56.2548 82.4976 57.2797 85.416 59.0632 87.9812C59.1037 88.0449 59.1211 88.1201 59.1095 88.1954L57.3608 99.1278Z"/>
</mask>
<path d="M69.0807 106.516C69.0285 106.516 68.9822 106.505 68.9359 106.476L56.8976 99.5273C56.7933 99.4694 56.7354 99.3478 56.7586 99.232L58.5189 88.2186C56.7123 85.5839 55.6758 82.5787 55.6758 79.9672C55.6758 77.6858 56.4633 75.9776 57.8877 75.1495C59.3238 74.3215 61.2114 74.501 63.2092 75.6533C67.2046 77.9579 70.453 83.5746 70.453 88.1665C70.453 90.7432 69.3991 92.6193 67.6215 93.2505L69.3644 106.192C69.3818 106.302 69.3296 106.412 69.237 106.47C69.1907 106.505 69.1328 106.516 69.0749 106.516H69.0807ZM57.3608 99.1278L68.7159 105.683L67.0193 93.0825C67.0019 92.9378 67.0887 92.8046 67.2277 92.7641C68.9127 92.2893 69.874 90.61 69.874 88.1607C69.874 83.7541 66.7529 78.3632 62.9196 76.1513C61.113 75.109 59.428 74.9295 58.1773 75.6475C56.9381 76.3655 56.2548 77.8942 56.2548 79.9614C56.2548 82.4976 57.2797 85.416 59.0632 87.9812C59.1037 88.0449 59.1211 88.1201 59.1095 88.1954L57.3608 99.1278Z" fill="#4760FF"/>
<path d="M68.9359 106.476L69.4751 105.613L69.4599 105.604L69.4445 105.595L68.9359 106.476ZM56.8976 99.5273L57.4061 98.6462L57.3989 98.642L57.3916 98.638L56.8976 99.5273ZM56.7586 99.232L57.7562 99.4315L57.7601 99.4121L57.7632 99.3926L56.7586 99.232ZM58.5189 88.2186L59.5235 88.3791L59.5876 87.9781L59.3579 87.6432L58.5189 88.2186ZM57.8877 75.1495L57.3795 74.2682L57.3765 74.27L57.8877 75.1495ZM67.6215 93.2505L67.2811 92.2918L66.503 92.568L66.6132 93.3863L67.6215 93.2505ZM69.3644 106.192L68.3562 106.328L68.3577 106.339L68.3595 106.351L69.3644 106.192ZM69.237 106.47L68.6978 105.607L68.6612 105.63L68.6266 105.656L69.237 106.47ZM57.3608 99.1278L56.3562 98.9671L56.2456 99.6587L56.8522 100.009L57.3608 99.1278ZM68.7159 105.683L68.2073 106.564L70.0004 107.599L69.7241 105.547L68.7159 105.683ZM67.0193 93.0825L66.0092 93.2038L66.01 93.211L66.011 93.2183L67.0193 93.0825ZM67.2277 92.7641L66.9518 91.7848L66.9429 91.7874L67.2277 92.7641ZM62.9196 76.1513L63.4281 75.2701L63.428 75.2701L62.9196 76.1513ZM58.1773 75.6475L57.6707 74.7652L57.6672 74.7673L58.1773 75.6475ZM59.0632 87.9812L59.9215 87.435L59.9103 87.4175L59.8985 87.4004L59.0632 87.9812ZM59.1095 88.1954L60.1141 88.3561L60.115 88.3501L59.1095 88.1954ZM69.0807 105.499C69.1313 105.499 69.1982 105.505 69.2738 105.525C69.3505 105.546 69.4183 105.578 69.4751 105.613L68.3967 107.339C68.6199 107.478 68.8566 107.534 69.0807 107.534V105.499ZM69.4445 105.595L57.4061 98.6462L56.389 100.408L68.4273 107.357L69.4445 105.595ZM57.3916 98.638C57.6623 98.7884 57.8224 99.1004 57.7562 99.4315L55.761 99.0325C55.6485 99.5953 55.9244 100.15 56.4035 100.417L57.3916 98.638ZM57.7632 99.3926L59.5235 88.3791L57.5143 88.058L55.754 99.0714L57.7632 99.3926ZM59.3579 87.6432C57.641 85.1394 56.6931 82.331 56.6931 79.9672H54.6584C54.6584 82.8263 55.7836 86.0285 57.6799 88.7939L59.3579 87.6432ZM56.6931 79.9672C56.6931 77.8941 57.4014 76.609 58.399 76.0291L57.3765 74.27C55.5252 75.3462 54.6584 77.4774 54.6584 79.9672H56.6931ZM58.3959 76.0309C59.4 75.4519 60.8793 75.4839 62.7008 76.5346L63.7175 74.7721C61.5436 73.5181 59.2476 73.1911 57.3795 74.2682L58.3959 76.0309ZM62.7008 76.5346C64.5074 77.5766 66.2028 79.4087 67.4488 81.5618C68.695 83.7151 69.4357 86.0924 69.4357 88.1665H71.4703C71.4703 85.6487 70.5868 82.9218 69.2099 80.5426C67.8329 78.1632 65.9063 76.0346 63.7175 74.7721L62.7008 76.5346ZM69.4357 88.1665C69.4357 90.5008 68.5002 91.8589 67.2811 92.2918L67.9619 94.2092C70.298 93.3797 71.4703 90.9856 71.4703 88.1665H69.4357ZM66.6132 93.3863L68.3562 106.328L70.3726 106.056L68.6297 93.1147L66.6132 93.3863ZM68.3595 106.351C68.3118 106.049 68.4521 105.761 68.6978 105.607L69.7762 107.333C70.2072 107.063 70.4517 106.555 70.3693 106.033L68.3595 106.351ZM68.6266 105.656C68.8229 105.509 69.0136 105.499 69.0749 105.499V107.534C69.252 107.534 69.5585 107.501 69.8474 107.284L68.6266 105.656ZM69.0749 107.534H69.0807V105.499H69.0749V107.534ZM56.8522 100.009L68.2073 106.564L69.2245 104.801L57.8694 98.2467L56.8522 100.009ZM69.7241 105.547L68.0275 92.9468L66.011 93.2183L67.7076 105.818L69.7241 105.547ZM68.0294 92.9613C68.0703 93.3023 67.8593 93.6396 67.5126 93.7407L66.9429 91.7874C66.3182 91.9696 65.9335 92.5732 66.0092 93.2038L68.0294 92.9613ZM67.5036 93.7433C69.817 93.0914 70.8913 90.8323 70.8913 88.1607H68.8566C68.8566 90.3877 68.0085 91.4871 66.9518 91.7849L67.5036 93.7433ZM70.8913 88.1607C70.8913 85.7353 70.0394 83.1111 68.7147 80.8232C67.3898 78.5351 65.5357 76.4863 63.4281 75.2701L62.4112 77.0324C64.1369 78.0282 65.7599 79.7808 66.9539 81.8428C68.148 83.905 68.8566 86.1795 68.8566 88.1607H70.8913ZM63.428 75.2701C61.4622 74.136 59.3649 73.7927 57.6708 74.7652L58.6838 76.5298C59.4911 76.0663 60.7638 76.082 62.4112 77.0325L63.428 75.2701ZM57.6672 74.7673C55.9869 75.7409 55.2375 77.7072 55.2375 79.9614H57.2722C57.2722 78.0812 57.8893 76.9902 58.6873 76.5278L57.6672 74.7673ZM55.2375 79.9614C55.2375 82.7501 56.3544 85.8672 58.2279 88.5619L59.8985 87.4004C58.2051 84.9648 57.2722 82.2452 57.2722 79.9614H55.2375ZM58.2049 88.5273C58.1205 88.3947 58.076 88.2226 58.104 88.0407L60.115 88.3501C60.1662 88.0177 60.0869 87.695 59.9215 87.435L58.2049 88.5273ZM58.1049 88.0347L56.3562 98.9671L58.3654 99.2885L60.1141 88.3561L58.1049 88.0347Z" fill="#4760FF" mask="url(#path-20-inside-6_1776_1965)"/>
<mask id="path-22-inside-7_1776_1965" fill="white">
<path d="M52.6272 47.2396C50.89 47.2396 49.1529 46.8575 47.8269 46.0931C46.4893 45.323 45.7539 44.2807 45.7539 43.1516C45.7539 42.0224 46.4893 40.9859 47.8269 40.2158L48.1164 40.7196C46.9641 41.3855 46.333 42.2483 46.333 43.1574C46.333 44.0665 46.9641 44.9292 48.1164 45.5951C50.6005 47.0312 54.6538 47.0312 57.1379 45.5951C58.2902 44.9292 58.9214 44.0665 58.9214 43.1574C58.9214 42.2483 58.2902 41.3855 57.1379 40.7196L57.4274 40.2158C58.765 40.9859 59.5004 42.0282 59.5004 43.1516C59.5004 44.2749 58.765 45.3172 57.4274 46.0931C56.1014 46.8575 54.3643 47.2396 52.6272 47.2396Z"/>
</mask>
<path d="M52.6272 47.2396C50.89 47.2396 49.1529 46.8575 47.8269 46.0931C46.4893 45.323 45.7539 44.2807 45.7539 43.1516C45.7539 42.0224 46.4893 40.9859 47.8269 40.2158L48.1164 40.7196C46.9641 41.3855 46.333 42.2483 46.333 43.1574C46.333 44.0665 46.9641 44.9292 48.1164 45.5951C50.6005 47.0312 54.6538 47.0312 57.1379 45.5951C58.2902 44.9292 58.9214 44.0665 58.9214 43.1574C58.9214 42.2483 58.2902 41.3855 57.1379 40.7196L57.4274 40.2158C58.765 40.9859 59.5004 42.0282 59.5004 43.1516C59.5004 44.2749 58.765 45.3172 57.4274 46.0931C56.1014 46.8575 54.3643 47.2396 52.6272 47.2396Z" fill="#4760FF"/>
<path d="M47.8269 46.0931L48.3349 45.2117L48.3345 45.2115L47.8269 46.0931ZM47.8269 40.2158L48.7089 39.7089L48.2016 38.8262L47.3193 39.3342L47.8269 40.2158ZM48.1164 40.7196L48.6254 41.6004L49.5042 41.0926L48.9985 40.2127L48.1164 40.7196ZM48.1164 45.5951L48.6256 44.7144L48.6254 44.7143L48.1164 45.5951ZM57.1379 45.5951L56.6289 44.7143L56.6288 44.7144L57.1379 45.5951ZM57.1379 40.7196L56.2559 40.2127L55.7502 41.0926L56.6289 41.6004L57.1379 40.7196ZM57.4274 40.2158L57.9351 39.3342L57.0527 38.8262L56.5454 39.7089L57.4274 40.2158ZM57.4274 46.0931L57.9355 46.9745L57.9379 46.9731L57.4274 46.0931ZM52.6272 46.2223C51.0212 46.2223 49.4701 45.8661 48.3349 45.2117L47.3188 46.9745C48.8357 47.8489 50.7589 48.257 52.6272 48.257V46.2223ZM48.3345 45.2115C47.181 44.5473 46.7712 43.7872 46.7712 43.1516H44.7366C44.7366 44.7743 45.7976 46.0987 47.3193 46.9748L48.3345 45.2115ZM46.7712 43.1516C46.7712 42.5178 47.1788 41.7629 48.3345 41.0975L47.3193 39.3342C45.7998 40.209 44.7366 41.5271 44.7366 43.1516H46.7712ZM46.9448 40.7227L47.2344 41.2265L48.9985 40.2127L48.7089 39.7089L46.9448 40.7227ZM47.6074 39.8388C46.3007 40.5939 45.3156 41.7317 45.3156 43.1574H47.3503C47.3503 42.7648 47.6275 42.1771 48.6254 41.6004L47.6074 39.8388ZM45.3156 43.1574C45.3156 44.583 46.3007 45.7209 47.6074 46.476L48.6254 44.7143C47.6275 44.1376 47.3503 43.5499 47.3503 43.1574H45.3156ZM47.6073 46.4759C49.0412 47.3049 50.8625 47.6895 52.6272 47.6895C54.3919 47.6895 56.2131 47.3049 57.6471 46.4759L56.6288 44.7144C55.5786 45.3215 54.1312 45.6548 52.6272 45.6548C51.1232 45.6548 49.6757 45.3215 48.6256 44.7144L47.6073 46.4759ZM57.6469 46.476C58.9536 45.7209 59.9387 44.583 59.9387 43.1574H57.904C57.904 43.5499 57.6268 44.1376 56.6289 44.7143L57.6469 46.476ZM59.9387 43.1574C59.9387 41.7317 58.9536 40.5939 57.6469 39.8388L56.6289 41.6004C57.6268 42.1771 57.904 42.7648 57.904 43.1574H59.9387ZM58.02 41.2265L58.3095 40.7227L56.5454 39.7089L56.2559 40.2127L58.02 41.2265ZM56.9198 41.0975C58.0744 41.7622 58.4831 42.5227 58.4831 43.1516H60.5178C60.5178 41.5338 59.4556 40.2097 57.9351 39.3342L56.9198 41.0975ZM58.4831 43.1516C58.4831 43.7806 58.0743 44.5418 56.917 45.2131L57.9379 46.9731C59.4558 46.0926 60.5178 44.7692 60.5178 43.1516H58.4831ZM56.9194 45.2117C55.7842 45.8661 54.2332 46.2223 52.6272 46.2223V48.257C54.4954 48.257 56.4187 47.8489 57.9355 46.9745L56.9194 45.2117Z" fill="#4760FF" mask="url(#path-22-inside-7_1776_1965)"/>
<mask id="path-24-inside-8_1776_1965" fill="white">
<path d="M93.6389 71.2699C91.9017 71.2699 90.1646 70.8877 88.8386 70.1234C87.501 69.3533 86.7656 68.3052 86.7656 67.1818C86.7656 66.0585 87.501 65.0162 88.8386 64.2461L89.1281 64.7499C87.9758 65.4158 87.3447 66.2785 87.3447 67.1876C87.3447 68.0967 87.9758 68.9595 89.1281 69.6254C91.618 71.0614 95.6655 71.0614 98.1496 69.6254C99.3019 68.9595 99.9331 68.0967 99.9331 67.1876C99.9331 66.2785 99.3019 65.4158 98.1496 64.7499L98.4392 64.2461C99.7768 65.0162 100.512 66.0585 100.512 67.1818C100.512 68.3052 99.7768 69.3475 98.4392 70.1234C97.1131 70.8877 95.376 71.2699 93.6389 71.2699Z"/>
</mask>
<path d="M93.6389 71.2699C91.9017 71.2699 90.1646 70.8877 88.8386 70.1234C87.501 69.3533 86.7656 68.3052 86.7656 67.1818C86.7656 66.0585 87.501 65.0162 88.8386 64.2461L89.1281 64.7499C87.9758 65.4158 87.3447 66.2785 87.3447 67.1876C87.3447 68.0967 87.9758 68.9595 89.1281 69.6254C91.618 71.0614 95.6655 71.0614 98.1496 69.6254C99.3019 68.9595 99.9331 68.0967 99.9331 67.1876C99.9331 66.2785 99.3019 65.4158 98.1496 64.7499L98.4392 64.2461C99.7768 65.0162 100.512 66.0585 100.512 67.1818C100.512 68.3052 99.7768 69.3475 98.4392 70.1234C97.1131 70.8877 95.376 71.2699 93.6389 71.2699Z" fill="#4760FF"/>
<path d="M88.8386 70.1234L89.3467 69.242L89.3462 69.2417L88.8386 70.1234ZM88.8386 64.2461L89.7206 63.7392L89.2133 62.8564L88.331 63.3644L88.8386 64.2461ZM89.1281 64.7499L89.6371 65.6307L90.5159 65.1229L90.0102 64.2429L89.1281 64.7499ZM89.1281 69.6254L88.6191 70.5063L88.6199 70.5067L89.1281 69.6254ZM98.1496 69.6254L97.6406 68.7446L97.6405 68.7447L98.1496 69.6254ZM98.1496 64.7499L97.2676 64.2429L96.7619 65.1229L97.6406 65.6307L98.1496 64.7499ZM98.4392 64.2461L98.9468 63.3644L98.0644 62.8564L97.5571 63.7392L98.4392 64.2461ZM98.4392 70.1234L98.9472 71.0048L98.9496 71.0034L98.4392 70.1234ZM93.6389 70.2526C92.0329 70.2526 90.4818 69.8963 89.3467 69.242L88.3305 71.0048C89.8474 71.8791 91.7706 72.2872 93.6389 72.2872V70.2526ZM89.3462 69.2417C88.1938 68.5782 87.783 67.8126 87.783 67.1818H85.7483C85.7483 68.7978 86.8083 70.1283 88.331 71.005L89.3462 69.2417ZM87.783 67.1818C87.783 66.5529 88.1916 65.7925 89.3462 65.1277L88.331 63.3644C86.8104 64.2399 85.7483 65.5641 85.7483 67.1818H87.783ZM87.9566 64.753L88.2461 65.2568L90.0102 64.2429L89.7206 63.7392L87.9566 64.753ZM88.6191 63.869C87.3124 64.6241 86.3273 65.762 86.3273 67.1876H88.362C88.362 66.7951 88.6392 66.2074 89.6371 65.6307L88.6191 63.869ZM86.3273 67.1876C86.3273 68.6133 87.3124 69.7511 88.6191 70.5063L89.6371 68.7446C88.6392 68.1679 88.362 67.5802 88.362 67.1876H86.3273ZM88.6199 70.5067C90.056 71.335 91.8767 71.7198 93.6411 71.7198C95.4052 71.7198 97.225 71.335 98.6588 70.5062L97.6405 68.7447C96.5902 69.3518 95.1441 69.6851 93.6411 69.6851C92.1381 69.6851 90.6901 69.3519 89.6364 68.7441L88.6199 70.5067ZM98.6587 70.5063C99.9653 69.7511 100.95 68.6133 100.95 67.1876H98.9158C98.9158 67.5802 98.6385 68.1679 97.6406 68.7446L98.6587 70.5063ZM100.95 67.1876C100.95 65.762 99.9653 64.6241 98.6587 63.869L97.6406 65.6307C98.6385 66.2074 98.9158 66.7951 98.9158 67.1876H100.95ZM99.0317 65.2568L99.3212 64.753L97.5571 63.7392L97.2676 64.2429L99.0317 65.2568ZM97.9315 65.1277C99.0861 65.7925 99.4948 66.5529 99.4948 67.1818H101.529C101.529 65.5641 100.467 64.2399 98.9468 63.3644L97.9315 65.1277ZM99.4948 67.1818C99.4948 67.8109 99.086 68.572 97.9287 69.2434L98.9496 71.0034C100.467 70.1229 101.529 68.7995 101.529 67.1818H99.4948ZM97.9311 69.242C96.7959 69.8963 95.2449 70.2526 93.6389 70.2526V72.2872C95.5071 72.2872 97.4304 71.8791 98.9472 71.0048L97.9311 69.242Z" fill="#4760FF" mask="url(#path-24-inside-8_1776_1965)"/>
<path d="M93.385 68.7468C92.7667 68.7468 92.1414 68.6608 91.5368 68.4937L95.2396 68.4951C95.2396 68.4951 95.2396 68.4951 95.2396 68.4951C94.6366 68.6613 94.0132 68.7468 93.3966 68.7468H93.385Z" fill="#4760FF" stroke="#4760FF" stroke-width="1.01734"/>
</g>
<defs>
<clipPath id="clip0_1776_1965">
<rect width="84.8358" height="131.524" fill="white" transform="translate(29.7031 6.65527)"/>
</clipPath>
</defs>
</svg>
