<svg width="105" height="105" viewBox="0 0 105 105" fill="none" xmlns="http://www.w3.org/2000/svg">
<path d="M79.8105 15.1249L75.2146 12.4707L22.7656 42.7547L27.3615 45.4089L79.8105 15.1249Z" fill="white" stroke="#4760FF" stroke-width="0.391469"/>
<path d="M27.3584 45.8022C27.288 45.8022 27.2253 45.7865 27.1627 45.7474L22.559 43.0932C22.4416 43.0227 22.3633 42.8975 22.3633 42.7565C22.3633 42.6156 22.4416 42.4903 22.559 42.4199L75.0158 12.1359C75.1333 12.0654 75.2899 12.0654 75.4073 12.1359L80.011 14.79C80.1284 14.8605 80.2067 14.9857 80.2067 15.1267C80.2067 15.2676 80.1284 15.3929 80.011 15.4633L27.5542 45.7474C27.4915 45.7865 27.4289 45.8022 27.3584 45.8022V45.8022ZM23.5377 42.7565L27.3584 44.9644L79.0245 15.1267L75.2037 12.9188L23.5455 42.7565H23.5377Z" fill="#4760FF" stroke="#4760FF" stroke-width="0.391469"/>
<path d="M61.8709 4.76855L9.42188 35.0526L22.771 42.7567L75.2199 12.4727L61.8709 4.76855Z" fill="white" stroke="#4760FF" stroke-width="0.391469"/>
<path d="M22.7601 43.15C22.6896 43.15 22.627 43.1343 22.5643 43.0952L9.21527 35.3911C9.09782 35.3206 9.01953 35.1953 9.01953 35.0544C9.01953 34.9135 9.09782 34.7882 9.21527 34.7177L61.6642 4.43371C61.7817 4.36324 61.9383 4.36324 62.0557 4.43371L75.4048 12.1378C75.5222 12.2083 75.6005 12.3335 75.6005 12.4745C75.6005 12.6154 75.5222 12.7407 75.4048 12.8111L22.9558 43.0952C22.8932 43.1265 22.8305 43.15 22.7601 43.15ZM10.1939 35.0544L22.7601 42.3044L74.4261 12.4745L61.86 5.22447L10.1939 35.0466V35.0544Z" fill="#4760FF" stroke="#4760FF" stroke-width="0.391469"/>
<path d="M9.42188 35.0488V80.9446L43.4718 100.604V54.7006L27.3668 45.4071V50.7154L22.771 48.0612V42.7529L9.42188 35.0488Z" fill="white" stroke="#4760FF" stroke-width="0.391469"/>
<path d="M43.461 100.997C43.3905 100.997 43.3279 100.982 43.2652 100.943L9.21527 81.2831C9.09782 81.2127 9.01953 81.0874 9.01953 80.9465V35.0428C9.01953 34.9019 9.09782 34.7766 9.21527 34.7062C9.33271 34.6357 9.48929 34.6357 9.60673 34.7062L22.9558 42.4103C23.0733 42.4807 23.1516 42.606 23.1516 42.7469V47.836L26.9723 50.0439V45.4089C26.9723 45.268 27.0506 45.1427 27.168 45.0723C27.2855 45.0018 27.4421 45.0018 27.5595 45.0723L43.6645 54.3657C43.782 54.4362 43.8603 54.5615 43.8603 54.7024V100.598C43.8603 100.739 43.782 100.864 43.6645 100.935C43.6019 100.966 43.5392 100.99 43.4688 100.99L43.461 100.997ZM9.80247 80.7194L43.0695 99.9249V54.9294L27.7474 46.0823V50.7172C27.7474 50.8582 27.6691 50.9834 27.5517 51.0539C27.4342 51.1244 27.2776 51.1244 27.1602 51.0539L22.5565 48.3997C22.4391 48.3293 22.3608 48.204 22.3608 48.0631V42.974L9.79464 35.724V80.7194H9.80247Z" fill="#4760FF" stroke="#4760FF" stroke-width="0.391469"/>
<path d="M43.4761 54.7025L95.9251 24.4263L79.8201 15.125L27.3711 45.409L43.4761 54.7025Z" fill="white" stroke="#4760FF" stroke-width="0.391469"/>
<path d="M43.4652 55.0958C43.3948 55.0958 43.3321 55.0801 43.2695 55.041L27.1645 45.7475C27.047 45.677 26.9688 45.5518 26.9688 45.4108C26.9688 45.2699 27.047 45.1446 27.1645 45.0742L79.6135 14.7902C79.7309 14.7197 79.8875 14.7197 80.0049 14.7902L96.11 24.0915C96.2274 24.1619 96.3057 24.2872 96.3057 24.4281C96.3057 24.569 96.2274 24.6943 96.11 24.7648L43.661 55.041C43.5983 55.0723 43.5357 55.0958 43.4652 55.0958V55.0958ZM28.1432 45.4108L43.4652 54.258L95.1313 24.4281L79.8092 15.5809L28.1432 45.4108V45.4108Z" fill="#4760FF" stroke="#4760FF" stroke-width="0.391469"/>
<path d="M22.7656 42.752V48.0603L27.3615 50.7144V45.4061L22.7656 42.752Z" fill="#4760FF" stroke="#4760FF" stroke-width="0.391469"/>
<path d="M27.3584 51.1077C27.288 51.1077 27.2253 51.0921 27.1627 51.0529L22.559 48.3988C22.4416 48.3283 22.3633 48.203 22.3633 48.0621V42.746C22.3633 42.605 22.4416 42.4798 22.559 42.4093C22.6765 42.3388 22.833 42.3388 22.9505 42.4093L27.5542 45.0635C27.6716 45.1339 27.7499 45.2592 27.7499 45.4001V50.7163C27.7499 50.8572 27.6716 50.9825 27.5542 51.0529C27.4915 51.0842 27.4289 51.1077 27.3584 51.1077ZM23.1462 47.835L26.967 50.0429V45.635L23.1462 43.4271V47.835Z" fill="#4760FF" stroke="#4760FF" stroke-width="0.391469"/>
<path d="M95.9334 24.4287L43.4844 54.7049V100.609L95.9334 70.4263V24.4287Z" fill="#4760FF" stroke="#4760FF" stroke-width="0.391469"/>
<path d="M43.4735 101.002C43.403 101.002 43.3404 100.986 43.2778 100.947C43.1525 100.877 43.082 100.751 43.082 100.61V54.7146C43.082 54.5736 43.1603 54.4484 43.2778 54.3779L95.7268 24.0939C95.8442 24.0234 96.0008 24.0234 96.1182 24.0939C96.2357 24.1643 96.314 24.2896 96.314 24.4305V70.4281C96.314 70.569 96.2357 70.6943 96.1182 70.7648L43.6692 100.947C43.6066 100.978 43.544 101.002 43.4735 101.002V101.002ZM43.865 54.9338V99.9292L95.531 70.2011V25.1039L43.865 54.9338V54.9338Z" fill="#4760FF" stroke="#4760FF" stroke-width="0.391469"/>
<path d="M83.5639 42.3014L93.8204 36.3824C94.1806 36.171 94.4781 35.6151 94.4781 35.1297V30.4634C94.4781 29.9779 94.1806 29.7587 93.8204 29.9701L83.5639 35.8891C83.2038 36.1005 82.9062 36.6564 82.9062 37.1418V41.8081C82.9062 42.2935 83.2038 42.5128 83.5639 42.3014Z" fill="#FCFCFC"/>
<path d="M92.4922 36.338L92.8602 36.1266V31.3115L92.4922 31.5229V36.338Z" fill="#4760FF"/>
<path d="M91.8242 35.3007L92.1922 35.0893V31.6992L91.8242 31.9106V35.3007Z" fill="#4760FF"/>
<path d="M91.1484 35.6816L91.5164 35.4702V32.0801L91.1484 32.2915V35.6816Z" fill="#4760FF"/>
<path d="M90.5 36.0644L90.8602 35.853V32.4629L90.5 32.6743V36.0644Z" fill="#4760FF"/>
<path d="M89.832 36.4423L90.2 36.2309V32.8408L89.832 33.0522V36.4423Z" fill="#4760FF"/>
<path d="M89.1758 36.831L89.5438 36.6196V33.2295L89.1758 33.4409V36.831Z" fill="#4760FF"/>
<path d="M88.4922 37.9488L88.8602 37.7374V33.6191L88.4922 33.8305V37.9488Z" fill="#4760FF"/>
<path d="M87.8359 37.6005L88.2039 37.3891V33.999L87.8359 34.2104V37.6005Z" fill="#4760FF"/>
<path d="M87.168 37.9824L87.536 37.771V34.3809L87.168 34.5922V37.9824Z" fill="#4760FF"/>
<path d="M86.5 38.3613L86.868 38.1499V34.7598L86.5 34.9712V38.3613Z" fill="#4760FF"/>
<path d="M85.8359 38.7509L86.1961 38.5395V35.1494L85.8359 35.3608V38.7509Z" fill="#4760FF"/>
<path d="M85.1875 39.1308L85.5555 38.9194V35.5293L85.1875 35.7407V39.1308Z" fill="#4760FF"/>
<path d="M84.5156 40.9454L84.8836 40.734V35.9189L84.5156 36.1303V40.9454Z" fill="#4760FF"/>
<path d="M63.0352 86.2207V78.9394C63.0352 78.2895 63.4893 77.5066 64.053 77.1778L70.3635 73.5371C70.9272 73.2161 71.3813 73.4745 71.3813 74.1243V81.4056C71.3813 82.0555 70.9272 82.8384 70.3635 83.1672L64.053 86.8079C63.4893 87.1289 63.0352 86.8705 63.0352 86.2207ZM64.053 77.6005C63.6928 77.8041 63.4031 78.313 63.4031 78.728V86.0093C63.4031 86.4242 63.6928 86.5887 64.053 86.3851L70.3635 82.7444C70.7236 82.5409 71.0133 82.032 71.0133 81.617V74.3357C71.0133 73.9207 70.7236 73.7563 70.3635 73.9599L64.053 77.6005Z" fill="white"/>
<path d="M53.9727 91.4297V84.1483C53.9727 83.4985 54.4268 82.7156 54.9905 82.3867L61.301 78.7461C61.8647 78.4251 62.3188 78.6834 62.3188 79.3333V86.6146C62.3188 87.2644 61.8647 88.0474 61.301 88.3762L54.9905 92.0169C54.4268 92.3379 53.9727 92.0795 53.9727 91.4297ZM54.9905 82.8095C54.6303 83.0131 54.3406 83.522 54.3406 83.937V91.2183C54.3406 91.6332 54.6303 91.7976 54.9905 91.5941L61.301 87.9534C61.6611 87.7499 61.9508 87.241 61.9508 86.826V79.5447C61.9508 79.1297 61.6611 78.9653 61.301 79.1689L54.9905 82.8095Z" fill="white"/>
<path d="M44.875 96.6826V89.4013C44.875 88.7514 45.3291 87.9685 45.8928 87.6397L52.2033 83.999C52.767 83.678 53.2211 83.9364 53.2211 84.5862V91.8675C53.2211 92.5174 52.767 93.3003 52.2033 93.6291L45.8928 97.2698C45.3291 97.5908 44.875 97.3324 44.875 96.6826ZM45.8928 88.0625C45.5327 88.266 45.243 88.7749 45.243 89.1899V96.4712C45.243 96.8862 45.5327 97.0506 45.8928 96.847L52.2033 93.2064C52.5634 93.0028 52.8531 92.4939 52.8531 92.0789V84.7976C52.8531 84.3826 52.5634 84.2182 52.2033 84.4218L45.8928 88.0625Z" fill="white"/>
<path d="M47.461 91.0517V88.8204L49.7471 87.505L49.8333 87.9513L49.4183 88.0844L49.3557 88.8125L48.925 88.9691L49.3009 89.9478V89.0161H49.5749L49.7002 88.3271L50.0055 88.3036L50.2325 87.2154L50.6318 86.9805V89.2118C50.6318 90.1044 50.0055 91.2005 49.2304 91.6468V93.0091L50.1073 92.5002C50.2404 92.4219 50.35 92.4845 50.35 92.6411V92.782L47.735 94.2931V94.1522C47.735 93.9956 47.8446 93.8077 47.9777 93.7294L48.8546 93.2205V91.8582C48.0795 92.3044 47.4531 91.9443 47.4531 91.0439L47.461 91.0517Z" fill="white"/>
<path d="M64.1758 84.2458L70.2122 80.7617V81.6073L64.1758 85.0914V84.2458ZM67.9809 77.8805V81.1219L69.077 80.4877V77.2463L69.6877 76.894L68.5289 76.2285L67.3702 78.2328L67.9809 77.8805V77.8805ZM64.7082 79.7674L65.8669 77.7631L67.0257 78.4286L66.415 78.7809V82.0223L65.3189 82.6564V79.4151L64.7082 79.7674V79.7674Z" fill="white"/>
<path d="M56.457 86.1227L58.0151 86.2636V84.181L56.457 84.04V86.1227Z" fill="white"/>
<path d="M58.2578 86.1259L59.8159 84.1842V82.1016L58.2578 84.0432V86.1259Z" fill="white"/>
<path d="M58.1518 83.9742L59.7098 82.0325L58.1518 81.8916L56.5938 83.8333L58.1518 83.9742Z" fill="white"/>
<path d="M60.0853 84.3941C60.0853 84.3941 60.1323 84.3315 60.1558 84.3158C60.1558 84.3158 60.2106 84.2689 60.2341 84.2532C60.2341 84.2532 60.2889 84.2141 60.3124 84.2062C60.3828 84.1749 60.4533 84.1749 60.5081 84.2062C60.6412 84.2845 60.6412 84.5351 60.5081 84.7621L60.0148 85.6234C59.9914 85.6625 59.9914 85.7095 60.0148 85.7251C60.0383 85.7408 60.0775 85.7173 60.101 85.6782L60.5942 84.8169C60.6803 84.6682 60.7273 84.5038 60.7273 84.3628C60.7273 84.2219 60.6803 84.1123 60.5942 84.0653C60.5159 84.0183 60.422 84.0262 60.3124 84.0731V82.1941C60.6099 81.6304 60.9935 81.646 60.9935 81.9905V84.4176L59.8583 86.3828V87.8939L58.5586 88.6455V86.9465L60.0305 84.4881C60.0305 84.4881 60.0697 84.4255 60.0931 84.402L60.0853 84.3941Z" fill="white"/>
<path d="M56.1895 86.6506C56.1895 86.6506 56.1347 86.6506 56.119 86.6506C56.119 86.6506 56.0642 86.6662 56.0407 86.6741C56.0407 86.6741 55.9859 86.7054 55.9624 86.7211C55.8919 86.7759 55.8215 86.8463 55.7667 86.9403C55.6336 87.1673 55.6336 87.4179 55.7667 87.4962L56.2599 87.778C56.2599 87.778 56.2834 87.8407 56.2599 87.8798C56.2364 87.919 56.1973 87.9424 56.1738 87.9268L55.6805 87.6371C55.5944 87.5901 55.5475 87.4805 55.5475 87.3396C55.5475 87.1986 55.5944 87.0342 55.6805 86.8855C55.7588 86.7524 55.8528 86.6428 55.9624 86.5723V84.6932C55.6649 84.474 55.2812 84.9281 55.2812 85.2726V87.6997L56.4165 88.3574V89.8685L57.7162 89.1168V87.4179L56.2443 86.6584C56.2443 86.6584 56.2051 86.6428 56.1816 86.6349L56.1895 86.6506Z" fill="white"/>
</svg>
