<svg width="105" height="105" viewBox="0 0 105 105" fill="none" xmlns="http://www.w3.org/2000/svg">
<g clip-path="url(#clip0_1679_13127)">
<path fill-rule="evenodd" clip-rule="evenodd" d="M54.3955 76.6923L51.027 81.7451L67.8697 90.1665L71.2382 85.1136L94.8181 73.3237L77.9753 64.9024L54.3955 76.6923ZM37.8433 35.0191L35.4643 31.4485L42.2014 28.0799C44.0288 27.1662 46.5552 27.2967 49.3469 28.6905C54.9261 31.4779 59.4525 38.2698 59.4525 43.8489C59.4525 46.6364 58.3199 48.5986 56.4924 49.5123L49.7553 52.8809L47.3721 49.3102L37.2664 54.363C36.698 54.6493 36.0243 54.7799 35.2832 54.7462L27.1819 54.3504L26.146 52.7798L13.4887 59.1085L11.1055 55.5378L23.7796 49.2007L22.7312 47.6133L26.365 41.3773C26.7018 40.8004 27.1734 40.3583 27.7419 40.072L37.8475 35.0191H37.8433ZM76.2911 6.79492L42.6056 23.6377L56.0798 30.3747L89.7652 13.532L76.2911 6.79492Z" fill="white"/>
<path fill-rule="evenodd" clip-rule="evenodd" d="M67.87 90.1657L51.0272 81.7443V90.1657L67.87 98.5871V90.1657ZM66.1857 48.901V50.5853L64.5014 54.796L66.1857 55.6381L69.5542 67.0069V74.1651L76.2913 77.5336V70.3755L72.9228 59.0066V45.5324L66.1857 48.901ZM12.2889 55.6381C13.2195 56.1013 13.9732 57.2339 13.9732 58.1645C13.9732 58.6277 13.7837 58.9561 13.4806 59.1077C12.71 59.4909 10.6047 58.1645 10.6047 58.1645C10.6047 58.1645 10.1836 55.9918 11.0973 55.537C11.4005 55.3854 11.8216 55.4065 12.2889 55.6381ZM14.1922 53.9917L12.3647 54.9054C15.0133 55.1665 16.5923 55.9665 17.127 57.2887L18.9545 56.375C18.3986 55.0654 16.8407 54.257 14.1922 53.9917ZM17.5439 52.3159L15.7164 53.2296C18.365 53.4906 19.944 54.2907 20.4787 55.6128L22.3062 54.6991C21.7504 53.3896 20.1924 52.5811 17.5439 52.3159ZM28.0706 49.2884L37.2625 44.8377C38.4836 46.6651 39.2373 48.7284 39.2373 50.5895C39.2373 53.318 37.612 54.8549 35.2793 54.7496L27.1779 54.3538C26.7484 54.337 26.2684 54.2107 25.7673 53.958C25.4642 53.8064 25.1736 53.6212 24.8957 53.4064L23.8515 53.9286C23.3167 52.6064 21.7377 51.8106 19.0892 51.5453L20.9166 50.6316C23.5652 50.8969 25.1231 51.7011 25.6789 53.0148L26.959 52.3748C27.0516 52.3285 27.1316 52.2695 27.199 52.1937C26.6474 50.9053 25.0726 50.1221 22.4577 49.8652L22.5167 49.8358C22.4409 49.52 22.403 49.2084 22.403 48.9052C22.403 47.0441 23.9146 46.2904 25.7716 47.2209C26.6642 47.6673 27.4769 48.421 28.079 49.2884H28.0706ZM56.0801 30.374L89.7655 13.5312L94.8183 21.1105L94.4941 34.1636L86.0727 38.3743L61.1329 38.5301V51.4274L56.0801 53.9538L51.8399 51.8358L56.4843 49.5115C58.3117 48.5978 59.4444 46.6356 59.4444 43.8482C59.4444 38.269 54.9179 31.4772 49.3387 28.6897C46.5513 27.296 44.0249 27.1654 42.1932 28.0792L37.5488 30.4035V26.1633L42.6017 23.6369L56.0758 30.374H56.0801ZM32.5171 37.6837C32.5086 37.49 32.5002 37.3006 32.5002 37.1111C32.5002 31.5319 37.0267 29.2708 42.6059 32.0583C48.185 34.8457 52.7115 41.6376 52.7115 47.2167C52.7115 52.7959 48.185 55.057 42.6059 52.2695C42.4164 52.1769 42.2269 52.0758 42.0416 51.9706L47.3681 49.3052C48.5892 48.6947 49.343 47.3894 49.343 45.5282C49.343 41.8102 46.3239 37.2837 42.6059 35.4226C40.749 34.492 39.0647 34.4036 37.8436 35.0142L32.5171 37.6795V37.6837ZM67.87 17.7419L64.5014 16.0577V17.7419L67.87 19.4262V17.7419Z" fill="white"/>
<path fill-rule="evenodd" clip-rule="evenodd" d="M37.3707 25.7893L76.109 6.42019C76.2269 6.36124 76.3658 6.36124 76.4837 6.42019L89.9537 13.1573C90.021 13.1868 90.0758 13.2373 90.1179 13.3004L95.1707 20.8797C95.217 20.9513 95.2423 21.0313 95.2423 21.1113V34.5854C95.2423 34.7455 95.1539 34.8886 95.0107 34.9602L83.4524 40.7373V53.8914L86.8041 65.6224C86.8167 65.6603 86.8209 65.6982 86.8209 65.7403V68.8478L95.0107 72.9406C95.0107 72.9406 95.0318 72.9532 95.0444 72.9574C95.1665 73.0332 95.2423 73.1679 95.2423 73.3153V85.1052C95.2423 85.2652 95.1539 85.4126 95.0107 85.48L68.0623 98.9542C67.9444 99.0131 67.8055 99.0131 67.6876 98.9542L50.8449 90.5328C50.7017 90.4612 50.6133 90.318 50.6133 90.158V81.7367C50.6133 81.6525 50.6385 81.5725 50.6848 81.5051L54.0534 76.4523C54.0955 76.3891 54.1544 76.3386 54.2176 76.3091L69.1403 68.8478V67.0624L65.8391 55.9252L64.319 55.1631C64.1211 55.0662 64.0369 54.8346 64.1169 54.6325L65.7717 50.4976V49.5755L56.2766 54.3251C56.1587 54.3841 56.0198 54.3841 55.9019 54.3251L51.8512 52.2998L49.948 53.2514C48.0237 54.2157 45.3625 54.1062 42.4277 52.6409C42.2972 52.5777 42.1708 52.5103 42.0445 52.443L37.5138 54.7083C36.8738 55.0409 36.1117 55.201 35.2695 55.1588H35.2569L27.164 54.763C27.164 54.763 27.1429 54.763 27.1303 54.763C26.6545 54.7378 26.1324 54.5988 25.5808 54.3251C25.3323 54.1988 25.0881 54.0556 24.8565 53.8872L13.6729 59.479L13.4835 59.5253C13.5508 59.5253 13.614 59.5085 13.6729 59.479C13.3698 59.6306 12.9066 59.618 12.4055 59.4706C11.475 59.1969 10.3844 58.5148 10.3844 58.5148C10.2876 58.4516 10.2202 58.3548 10.1949 58.2369C10.1949 58.2369 9.97596 57.0705 10.1823 56.1989C10.296 55.7273 10.5318 55.3399 10.9149 55.1504L22.0396 49.5881C21.9975 49.3523 21.9806 49.1207 21.9806 48.8934C21.9806 48.2702 22.128 47.7523 22.3891 47.3522L26.0018 41.1541C26.3976 40.4762 26.9576 39.9625 27.644 39.6425L32.0905 37.4192C32.0905 37.314 32.0863 37.2087 32.0863 37.1034C32.0863 34.1223 33.3242 32.0422 35.2822 31.0653L37.1391 30.1348V26.1557C37.1391 25.9957 37.2275 25.8525 37.3707 25.7809V25.7893ZM51.4554 82.4272L67.456 90.4275V97.9057L51.4554 89.9054V82.4272ZM70.6309 85.2779L54.546 77.2355L51.6491 81.5809L67.7339 89.6233L70.6309 85.2779ZM69.1403 69.7952V74.1659C69.1403 74.3259 69.2287 74.469 69.3719 74.5406L76.1174 77.9134L76.1932 77.9386L76.2732 77.9513H76.3532L76.429 77.9302L76.4879 77.905L89.7726 71.2605L93.8822 73.3153L71.2456 84.6336L55.3461 76.6839L69.1403 69.7868V69.7952ZM72.5088 46.2154L71.6667 46.6364V54.7967C71.6667 54.9567 71.5783 55.1041 71.4351 55.1715L68.0665 56.8558C68.0665 56.8558 68.0413 56.8684 68.0287 56.8726C67.9192 56.9147 67.7971 56.9063 67.6918 56.8558L66.8749 56.4473L69.9698 66.8856C69.9824 66.9235 69.9866 66.9656 69.9866 67.0035V73.9006L75.8816 76.8481V70.431L72.5299 59.1211C72.5172 59.0832 72.513 59.0411 72.513 59.0032V46.2111L72.5088 46.2154ZM13.294 58.7337C13.2056 58.7758 13.0834 58.7632 12.9529 58.7421C12.7466 58.7127 12.5192 58.6369 12.2918 58.5484C11.7655 58.3463 11.2476 58.0516 10.9949 57.9042C10.9571 57.6516 10.9065 57.1631 10.9528 56.7042C10.9739 56.5105 11.0118 56.321 11.0834 56.161C11.1297 56.0557 11.1928 55.9631 11.2897 55.9126L24.7639 49.1755C24.9744 49.0702 25.2607 49.1165 25.5765 49.2765C26.3724 49.6723 27.0292 50.6324 27.0292 51.4282C27.0292 51.7019 26.9492 51.9082 26.7682 51.9966L13.294 58.7337ZM69.1361 47.8996V52.1903L67.6497 55.8999L65.0391 54.5946L66.5802 50.7418C66.6012 50.6913 66.6097 50.6408 66.6097 50.586V49.1628L69.1361 47.8996ZM35.6317 54.5146C35.6317 54.5146 35.6401 54.5315 35.6401 54.5441C35.6738 54.6072 35.6948 54.6788 35.6948 54.7588C35.6906 54.982 35.5095 55.1631 35.2864 55.1673C35.5138 55.1673 35.7032 54.9862 35.7074 54.7588C35.7074 54.6704 35.6822 54.5862 35.6359 54.5146H35.6317ZM28.9914 54.022C29.3451 53.6009 29.5556 53.0114 29.5556 52.2745C29.5556 50.2787 27.9472 47.8407 25.9555 46.847C25.206 46.4722 24.5028 46.3501 23.9091 46.4301L26.7261 41.5962C27.6861 39.9541 29.8378 39.6256 32.3178 40.8636C35.9011 42.6573 38.8234 47.0112 38.8234 50.5945C38.8234 51.8282 38.4697 52.7967 37.8381 53.4451C37.2191 54.0767 36.3391 54.3841 35.3032 54.3336C35.4211 54.3378 35.5264 54.3925 35.598 54.4725C35.5811 54.4557 35.5685 54.443 35.5517 54.4388C35.4843 54.3799 35.4001 54.342 35.3032 54.3336H35.2948L28.9956 54.0262L28.9914 54.022ZM25.7281 53.4619C25.8039 53.504 25.8797 53.5462 25.9555 53.5841C26.7387 53.9756 27.4461 54.043 27.9598 53.7862C28.444 53.5462 28.7135 53.0114 28.7135 52.2745C28.7135 50.5524 27.3029 48.4597 25.5765 47.5965C24.7934 47.2049 24.086 47.1375 23.5723 47.3943C23.088 47.6344 22.8185 48.1691 22.8185 48.906C22.8185 49.0028 22.8228 49.1039 22.8312 49.2049L24.3849 48.426C24.7849 48.2239 25.3407 48.2239 25.9513 48.527C27.0166 49.0576 27.8672 50.3629 27.8672 51.4282C27.8672 52.085 27.5724 52.5314 27.1429 52.7503L25.7281 53.4577V53.4619ZM37.977 26.4294L42.6088 24.1135L55.7966 30.7074L60.7147 38.0887V51.1755L56.0829 53.4914L52.786 51.845L56.6766 49.8997C58.6346 48.9228 59.8726 46.8427 59.8726 43.8616C59.8726 40.8804 58.7188 37.8193 56.8409 35.0023C56.8282 34.9813 56.8114 34.9602 56.7946 34.9434C54.9292 32.1643 52.3649 29.739 49.5353 28.3242C46.7057 26.9094 43.9393 26.7494 42.015 27.7136L37.977 29.7305V26.4336V26.4294ZM42.9709 51.984L47.5605 49.6892C48.9079 49.0155 49.7669 47.588 49.7669 45.5374V45.5164C49.7585 43.5879 48.9837 41.4489 47.7205 39.5541C47.7079 39.533 47.6911 39.512 47.6742 39.4951C46.4194 37.6298 44.6973 36.0044 42.7982 35.057C40.794 34.0549 38.9749 33.9917 37.657 34.6486L32.9242 37.015C32.9495 34.4718 33.9726 32.6696 35.6527 31.8317C37.3875 30.9643 39.7792 31.1201 42.4193 32.4422C47.8595 35.1623 52.2933 41.7815 52.2933 47.2259C52.2933 49.8239 51.2659 51.6598 49.5648 52.5145C47.8679 53.3609 45.5436 53.2304 42.9709 51.9882V51.984ZM46.7521 39.6256L37.3959 44.3037C36.158 42.5436 34.5032 41.0152 32.6884 40.1099C31.8168 39.6762 30.9831 39.4151 30.2083 39.314L38.0317 35.4023C39.156 34.8423 40.7055 34.9518 42.4193 35.8108C44.0825 36.6403 45.6026 38.0256 46.7521 39.6256ZM55.8724 35.0655L49.8848 38.0593C48.0363 35.3855 45.5394 33.0612 42.794 31.6885C41.2277 30.9053 39.7371 30.5095 38.3981 30.459L42.3898 28.4631C44.1246 27.5957 46.5163 27.7515 49.1564 29.0737C51.7501 30.3706 54.1123 32.5517 55.8766 35.0655H55.8724ZM89.6253 14.0752L56.6977 30.539L61.2789 37.4108L94.2065 20.947L89.6253 14.0752ZM92.7159 33.1117L85.9788 36.4803V37.3224L92.7159 33.9538V33.1117ZM92.7159 31.4274L85.9788 34.796V35.6381L92.7159 32.2696V31.4274ZM92.7159 29.7432L85.9788 33.1117V33.9538L92.7159 30.5853V29.7432ZM92.7159 27.2168L85.9788 30.5853V31.4274L92.7159 28.0589V27.2168ZM43.5519 23.6377L76.2942 7.26654L88.8252 13.532L56.0829 29.9032L43.5519 23.6377ZM92.7159 25.5325L85.9788 28.901V29.7432L92.7159 26.3746V25.5325ZM92.7159 23.8482L85.9788 27.2168V28.0589L92.7159 24.6903V23.8482ZM69.5571 14.7447L68.0623 13.9952C67.9444 13.9363 67.8055 13.9363 67.6876 13.9952L64.319 15.6795C64.1759 15.7511 64.0875 15.8984 64.0875 16.0542V17.7385C64.0875 17.8985 64.1759 18.0417 64.319 18.1133L67.6876 19.7975C67.8055 19.8565 67.9444 19.8565 68.0623 19.7975L71.4309 18.1133C71.574 18.0417 71.6625 17.8943 71.6625 17.7385V16.0542C71.6625 15.8942 71.574 15.7511 71.4309 15.6795L70.5003 15.2121L74.6099 13.1573L77.789 14.7489C77.9953 14.8542 78.248 14.77 78.3532 14.5594C78.4585 14.3531 78.3743 14.1005 78.1638 13.9952L74.7952 12.3109C74.6773 12.252 74.5384 12.252 74.4205 12.3109L69.5571 14.7447ZM67.4518 18.0038V18.7449L64.9254 17.4817V16.7406L67.4518 18.0038ZM65.4475 16.0584L67.8729 14.8458L70.2982 16.0584L67.8729 17.2711L65.4475 16.0584Z" fill="#4760FF"/>
</g>
<defs>
<clipPath id="clip0_1679_13127">
<rect width="85.1484" height="92.635" fill="white" transform="translate(10.0938 6.37305)"/>
</clipPath>
</defs>
</svg>
