<svg width="105" height="105" viewBox="0 0 105 105" fill="none" xmlns="http://www.w3.org/2000/svg">
<path fill-rule="evenodd" clip-rule="evenodd" d="M78.8746 62.5324L82.1506 64.1704L101.806 54.3425L95.2544 51.0665L78.8746 59.2564L23.1831 31.4107L10.0793 37.9626L78.8746 72.3603V62.5324ZM24.8211 14.2119L24.6737 15.7761L23.1831 15.0309L3.52734 24.8588L10.0793 28.1347L31.3731 17.4878L90.3405 46.9715L95.2544 44.5146L29.7351 11.7549L24.8211 14.2119Z" fill="white"/>
<path fill-rule="evenodd" clip-rule="evenodd" d="M5.16533 51.8865V55.1625L6.80331 55.9815L8.4413 53.5245L78.8746 88.7411L80.5126 92.8361L82.1506 93.6551V64.1714L75.5986 60.8954V70.7233L10.0793 37.9636V28.1357L3.52734 24.8598V51.0675L5.16533 51.8865ZM90.3405 46.9726L24.8211 14.2129L23.1831 31.4117L78.8746 59.2574L89.5215 53.934L90.3405 46.9726Z" fill="white"/>
<path fill-rule="evenodd" clip-rule="evenodd" d="M24.6321 13.8476C24.5093 13.9131 24.4233 14.0319 24.411 14.1752L24.3168 15.1416L23.3627 14.6625C23.248 14.6052 23.1129 14.6052 22.9982 14.6625L3.34241 24.4904C3.20318 24.5641 3.11719 24.6952 3.11719 24.8549V51.0667C3.11719 51.2223 3.20318 51.3656 3.34241 51.4312L4.75517 52.1355V55.1576C4.75517 55.3132 4.84117 55.4565 4.98039 55.522L6.61838 56.341C6.80265 56.4352 7.02787 56.3738 7.14253 56.2018L8.57986 54.0437L78.5504 89.0311L80.1311 92.9827C80.1679 93.0769 80.2376 93.1506 80.3276 93.1957L81.9656 94.0146C82.0803 94.072 82.2195 94.072 82.3342 94.0146L83.9722 93.1957C84.0622 93.1506 84.1319 93.0769 84.1687 92.9827L85.7494 89.0311L96.7525 83.5275L98.1899 85.6855C98.3045 85.8575 98.5297 85.9189 98.714 85.8247L100.352 85.0057C100.491 84.9361 100.577 84.7928 100.577 84.6413V81.6192L101.99 80.9149C102.129 80.8453 102.215 80.7019 102.215 80.5504V54.3263C102.203 54.183 102.125 54.0356 101.99 53.9782L95.6633 50.8169V44.5189C95.6633 44.3715 95.5773 44.2118 95.438 44.1503L29.9187 11.3907C29.804 11.3333 29.6689 11.3333 29.5542 11.3907L24.6403 13.8476H24.6321ZM80.8354 92.5405L81.7404 92.995V90.6363L79.652 89.5921L80.8313 92.5405H80.8354ZM9.66912 28.3888L3.93618 25.5224V50.8128L81.7404 89.7149V64.4245L76.0075 61.558C76.0075 63.9413 76.0075 66.3204 76.0075 68.7037V79.1213C76.0075 79.5471 76.0075 79.9771 76.0075 80.403C76.0075 80.534 76.0156 80.6569 75.9419 80.7756C75.8232 80.9435 75.6062 81.0131 75.4178 80.919L8.25636 47.3362C8.11713 47.2666 8.03114 47.1233 8.03114 46.9718V40.4198C8.03114 40.3379 8.05571 40.2601 8.10075 40.1946L9.66912 37.84V28.3888ZM53.0757 68.8306L73.5505 79.068V73.4334L53.0757 63.196V68.8306ZM75.0001 70.8822L54.4844 60.6243L53.3214 62.4016L73.8208 72.6512L75.0001 70.8822ZM75.4178 60.5302L77.9608 59.2607L67.4818 54.0233L55.2952 60.1166L75.1926 70.0673V60.9028C75.1926 60.7554 75.2786 60.5957 75.4178 60.5343V60.5302ZM30.148 57.3689L52.2608 68.4252V62.7906L30.148 51.7342V57.3689ZM95.2579 51.5294L79.0623 59.6293L77.3138 60.5056L76.5193 60.9028L82.154 63.7201L100.893 54.3509L95.2579 51.5335V51.5294ZM30.3569 50.9234L52.5843 62.0371L53.7473 60.2599L31.5157 49.1462L30.3528 50.9234H30.3569ZM32.2897 48.6138L54.3779 59.6579L66.5645 53.5646L44.4763 42.5205L32.2897 48.6138ZM67.7889 53.2575L78.878 58.8021L89.1441 53.667L89.9058 47.2093L88.2719 46.3944L69.4064 36.9637L67.7889 53.2575ZM8.85013 41.5009V46.7179L29.3249 56.9553V51.3206L8.85013 41.0832V41.5009ZM6.20069 52.8603L7.84277 53.6834L6.66342 55.4524L5.57416 54.9078V52.5491L6.20069 52.8603ZM44.8489 41.7834L67.0026 52.8603L68.6202 36.5665L46.4664 25.4896L44.8489 41.7834ZM10.2219 38.487L9.04259 40.256L29.6198 50.5426L30.7827 48.7653L10.2219 38.487ZM10.9959 37.9587L31.3724 48.147L43.559 42.0537L23.1825 31.8654L10.9959 37.9587ZM70.0329 36.3576L90.3398 46.5131L94.3365 44.5148L74.0296 34.3634L70.0329 36.3617V36.3576ZM23.6166 31.1693L44.0627 41.3903L45.6802 25.0965L25.1726 14.8468L23.6166 31.1693ZM47.0274 24.859L69.1156 35.9031L73.1123 33.9047L51.0241 22.8606L47.0274 24.859ZM4.43986 24.859L10.0745 27.6763L23.7804 20.8254L24.239 16.0139L23.1825 15.4856L4.44395 24.859H4.43986ZM50.1109 22.402L46.1143 24.4003L25.7377 14.2121L29.7344 12.2137L50.1109 22.402Z" fill="#4760FF"/>
<circle cx="79.4453" cy="33.6826" r="21.9594" fill="white" stroke="#4760FF" stroke-width="0.8"/>
<path d="M72.207 30.7479L72.6506 31.4893L86.4465 23.2638C86.8394 22.9976 87.2766 22.8772 87.7329 22.8962C89.52 22.9786 91.2563 24.8607 91.1803 26.6351C91.1676 26.8759 91.0599 27.7188 90.1347 28.3271C89.8368 28.5236 80.7494 33.9481 75.9839 36.7871L76.4275 37.5286C76.9915 37.1927 90.2234 29.3094 90.6099 29.0495C91.8774 28.213 92.0294 27.0217 92.0421 26.6795C92.1435 24.4425 90.0269 22.1421 87.7773 22.0407C87.1372 22.009 86.5225 22.1865 85.9902 22.5414L72.207 30.7479Z" fill="#4760FF"/>
<path d="M62.8789 31.4324L63.2718 31.8253C67.2198 35.7733 68.9752 37.2308 71.6114 38.118C73.2717 38.6757 75.0081 38.4982 76.2628 37.6364C77.3148 36.9203 77.9232 35.7796 77.9865 34.4425C78.0879 32.1928 76.3389 30.279 74.0892 30.1776C72.4606 30.1016 71.0728 31.369 71.0031 32.9976C70.9777 33.5426 71.1805 34.0813 71.5734 34.5122C72.0233 35.0002 72.676 35.3043 73.3731 35.3297H73.5125L73.6266 35.26C73.9878 35.0192 76.4149 33.4096 76.4149 33.4096L75.9396 32.6935C75.9396 32.6935 73.8864 34.0623 73.2717 34.4615C72.8535 34.4108 72.4733 34.2207 72.2071 33.9292C71.9663 33.6694 71.8459 33.3525 71.8586 33.0357C71.9093 31.8823 72.8915 30.9825 74.0449 31.0395C75.8192 31.1219 77.2007 32.6301 77.1183 34.4045C77.0676 35.4818 76.605 36.3563 75.7685 36.9266C74.7356 37.6364 73.2844 37.7758 71.8776 37.3005C69.6279 36.5464 68.0817 35.3994 64.2604 31.6035L81.6494 21.2487L84.4377 24.037L85.046 23.4286L81.7824 20.165L62.8789 31.4324Z" fill="#4760FF"/>
<path d="M95.6675 35.9951L76.9795 47.199L62.6133 32.8328L62.8985 31.445L63.5765 31.5211L63.8807 31.2169L68.9377 36.2739C69.7995 36.8252 70.636 37.2245 71.5803 37.5413C73.2976 38.118 75.0973 37.9279 76.4028 37.0343C77.8033 36.1915 90.2557 28.6377 90.2557 28.6377L96.2759 34.6579L95.6612 35.9951H95.6675Z" fill="#4760FF"/>
</svg>
