<svg width="105" height="105" viewBox="0 0 105 105" fill="none" xmlns="http://www.w3.org/2000/svg">
<path d="M77.3276 60.7757V50.8378L66.5482 46.0211V36.119L55.7866 31.3023V21.7225L41.7482 15.4375L16.4648 27.2734V70.5524L59.9587 89.9447L88.1071 77.0702V65.6104L77.3276 60.7936V60.7757ZM19.5626 29.2252L41.7661 18.8397L52.7068 23.728V25.447L30.0198 36.119C29.9123 36.1727 29.8049 36.1907 29.6974 36.1907C29.59 36.1907 29.4826 36.1727 29.3751 36.119L19.5626 31.732V29.2431V29.2252ZM28.8021 45.3049C28.8021 45.0005 28.9812 44.7319 29.2498 44.5886L53.1007 33.4331L63.4683 38.0887V40.1479L40.7276 50.802C40.6202 50.8557 40.5127 50.8736 40.4053 50.8736C40.2978 50.8736 40.1904 50.8557 40.083 50.802L29.2498 45.9853C28.9812 45.8599 28.8021 45.5914 28.7842 45.2869L28.8021 45.3049ZM39.5995 59.952C39.5995 59.6476 39.7786 59.379 40.0472 59.2358L63.8264 48.1519L74.2478 52.8075V54.8667L51.5429 65.4671C51.4354 65.5208 51.328 65.5387 51.2206 65.5387C51.1131 65.5387 51.0057 65.5208 50.8982 65.4671L40.0651 60.6504C39.7965 60.525 39.6174 60.2564 39.5995 59.952ZM85.0273 69.6213L62.2507 80.168C62.1433 80.2217 62.0358 80.2396 61.9284 80.2396C61.821 80.2396 61.7135 80.2217 61.6061 80.168L50.8266 75.3692C50.558 75.2438 50.379 74.9752 50.3611 74.6708C50.3432 74.3664 50.5401 74.0978 50.8087 73.9725L74.6059 62.9423L85.0093 67.5979V69.6392L85.0273 69.6213Z" fill="#4760FF"/>
</svg>
