<svg width="536" height="536" viewBox="0 0 536 536" fill="none" xmlns="http://www.w3.org/2000/svg">
<path d="M482.172 0.877939H54.0284C39.9141 0.877939 26.378 6.4848 16.3977 16.4651C6.41741 26.4454 0.810547 39.9815 0.810547 54.0957V482.252C0.810547 496.366 6.41741 509.902 16.3977 519.882C26.378 529.863 39.9141 535.469 54.0284 535.469H482.172C496.286 535.469 509.822 529.863 519.803 519.882C529.783 509.902 535.39 496.366 535.39 482.252V54.0772C535.39 39.9629 529.783 26.4268 519.803 16.4465C509.822 6.46623 496.286 0.859375 482.172 0.859375M473.459 473.539H62.7351V62.7839H473.459V473.539Z" fill="#4760FF"/>
</svg>
