<svg width="473" height="214" viewBox="0 0 473 214" fill="none" xmlns="http://www.w3.org/2000/svg">
<circle cx="468.637" cy="3.52358" r="3.52358" transform="rotate(90 468.637 3.52358)" fill="#FA8C78"/>
<circle cx="468.637" cy="55.2033" r="3.52358" transform="rotate(90 468.637 55.2033)" fill="#FA8C78"/>
<circle cx="468.637" cy="106.881" r="3.52358" transform="rotate(90 468.637 106.881)" fill="#FA8C78"/>
<circle cx="468.637" cy="158.561" r="3.52358" transform="rotate(90 468.637 158.561)" fill="#FA8C78"/>
<circle cx="468.637" cy="210.24" r="3.52358" transform="rotate(90 468.637 210.24)" fill="#FA8C78"/>
<circle cx="416.957" cy="3.52358" r="3.52358" transform="rotate(90 416.957 3.52358)" fill="#FA8C78"/>
<circle cx="416.957" cy="55.2033" r="3.52358" transform="rotate(90 416.957 55.2033)" fill="#FA8C78"/>
<circle cx="416.957" cy="106.881" r="3.52358" transform="rotate(90 416.957 106.881)" fill="#FA8C78"/>
<circle cx="416.957" cy="158.561" r="3.52358" transform="rotate(90 416.957 158.561)" fill="#FA8C78"/>
<circle cx="416.957" cy="210.24" r="3.52358" transform="rotate(90 416.957 210.24)" fill="#FA8C78"/>
<circle cx="365.279" cy="3.52358" r="3.52358" transform="rotate(90 365.279 3.52358)" fill="#FA8C78"/>
<circle cx="365.279" cy="55.2033" r="3.52358" transform="rotate(90 365.279 55.2033)" fill="#FA8C78"/>
<circle cx="365.279" cy="106.883" r="3.52358" transform="rotate(90 365.279 106.883)" fill="#FA8C78"/>
<circle cx="365.279" cy="158.561" r="3.52358" transform="rotate(90 365.279 158.561)" fill="#FA8C78"/>
<circle cx="365.279" cy="210.24" r="3.52358" transform="rotate(90 365.279 210.24)" fill="#FA8C78"/>
<circle cx="313.599" cy="3.52358" r="3.52358" transform="rotate(90 313.599 3.52358)" fill="#FA8C78"/>
<circle cx="313.599" cy="55.2033" r="3.52358" transform="rotate(90 313.599 55.2033)" fill="#FA8C78"/>
<circle cx="313.599" cy="106.883" r="3.52358" transform="rotate(90 313.599 106.883)" fill="#FA8C78"/>
<circle cx="313.599" cy="158.561" r="3.52358" transform="rotate(90 313.599 158.561)" fill="#FA8C78"/>
<circle cx="313.599" cy="210.24" r="3.52358" transform="rotate(90 313.599 210.24)" fill="#FA8C78"/>
<circle cx="261.92" cy="3.52358" r="3.52358" transform="rotate(90 261.92 3.52358)" fill="#FA8C78"/>
<circle cx="261.92" cy="55.2033" r="3.52358" transform="rotate(90 261.92 55.2033)" fill="#FA8C78"/>
<circle cx="261.92" cy="106.881" r="3.52358" transform="rotate(90 261.92 106.881)" fill="#FA8C78"/>
<circle cx="261.92" cy="158.561" r="3.52358" transform="rotate(90 261.92 158.561)" fill="#FA8C78"/>
<circle cx="261.92" cy="210.24" r="3.52358" transform="rotate(90 261.92 210.24)" fill="#FA8C78"/>
<circle cx="210.24" cy="3.52358" r="3.52358" transform="rotate(90 210.24 3.52358)" fill="#FA8C78"/>
<circle cx="210.24" cy="55.2033" r="3.52358" transform="rotate(90 210.24 55.2033)" fill="#FA8C78"/>
<circle cx="210.24" cy="106.881" r="3.52358" transform="rotate(90 210.24 106.881)" fill="#FA8C78"/>
<circle cx="210.24" cy="158.561" r="3.52358" transform="rotate(90 210.24 158.561)" fill="#FA8C78"/>
<circle cx="210.24" cy="210.24" r="3.52358" transform="rotate(90 210.24 210.24)" fill="#FA8C78"/>
<circle cx="158.562" cy="3.52358" r="3.52358" transform="rotate(90 158.562 3.52358)" fill="#FA8C78"/>
<circle cx="158.562" cy="55.2033" r="3.52358" transform="rotate(90 158.562 55.2033)" fill="#FA8C78"/>
<circle cx="158.562" cy="106.883" r="3.52358" transform="rotate(90 158.562 106.883)" fill="#FA8C78"/>
<circle cx="158.562" cy="158.561" r="3.52358" transform="rotate(90 158.562 158.561)" fill="#FA8C78"/>
<circle cx="158.562" cy="210.24" r="3.52358" transform="rotate(90 158.562 210.24)" fill="#FA8C78"/>
<circle cx="106.883" cy="55.2033" r="3.52358" transform="rotate(90 106.883 55.2033)" fill="#FA8C78"/>
<circle cx="106.523" cy="3.52358" r="3.52358" transform="rotate(90 106.523 3.52358)" fill="#FA8C78"/>
<circle cx="106.883" cy="106.881" r="3.52358" transform="rotate(90 106.883 106.881)" fill="#FA8C78"/>
<circle cx="106.883" cy="158.561" r="3.52358" transform="rotate(90 106.883 158.561)" fill="#FA8C78"/>
<circle cx="106.883" cy="210.24" r="3.52358" transform="rotate(90 106.883 210.24)" fill="#FA8C78"/>
<circle cx="55.203" cy="3.52358" r="3.52358" transform="rotate(90 55.203 3.52358)" fill="#FA8C78"/>
<circle cx="55.203" cy="55.2033" r="3.52358" transform="rotate(90 55.203 55.2033)" fill="#FA8C78"/>
<circle cx="55.203" cy="106.881" r="3.52358" transform="rotate(90 55.203 106.881)" fill="#FA8C78"/>
<circle cx="55.203" cy="158.561" r="3.52358" transform="rotate(90 55.203 158.561)" fill="#FA8C78"/>
<circle cx="55.203" cy="210.24" r="3.52358" transform="rotate(90 55.203 210.24)" fill="#FA8C78"/>
<circle cx="3.52329" cy="3.52358" r="3.52358" transform="rotate(90 3.52329 3.52358)" fill="#FA8C78"/>
<circle cx="3.52329" cy="55.2033" r="3.52358" transform="rotate(90 3.52329 55.2033)" fill="#FA8C78"/>
<circle cx="3.52329" cy="106.883" r="3.52358" transform="rotate(90 3.52329 106.883)" fill="#FA8C78"/>
<circle cx="3.52329" cy="158.561" r="3.52358" transform="rotate(90 3.52329 158.561)" fill="#FA8C78"/>
<circle cx="3.52329" cy="210.24" r="3.52358" transform="rotate(90 3.52329 210.24)" fill="#FA8C78"/>
</svg>
