<svg width="67" height="112" viewBox="0 0 67 112" fill="none" xmlns="http://www.w3.org/2000/svg">
<path d="M55.7298 0.173801H-33.7368C-36.6862 0.173801 -39.5147 1.34543 -41.6003 3.43095C-43.6858 5.51647 -44.8574 8.34504 -44.8574 11.2944V100.764C-44.8574 103.713 -43.6858 106.542 -41.6003 108.627C-39.5147 110.713 -36.6862 111.884 -33.7368 111.884H55.7298C58.6792 111.884 61.5078 110.713 63.5933 108.627C65.6788 106.542 66.8504 103.713 66.8504 100.764V11.2905C66.8504 8.34116 65.6788 5.51259 63.5933 3.42707C61.5078 1.34155 58.6792 0.169922 55.7298 0.169922M53.9092 98.9429H-31.9174V13.1099H53.9092V98.9429Z" fill="#4760FF"/>
</svg>
