<svg width="119" height="139" viewBox="0 0 119 139" fill="none" xmlns="http://www.w3.org/2000/svg">
<path d="M104.91 0.869043H-5.45024C-9.08841 0.869043 -12.5776 2.3143 -15.1501 4.88687C-17.7227 7.45945 -19.168 10.9486 -19.168 14.5868V124.951C-19.168 128.589 -17.7227 132.078 -15.1501 134.651C-12.5776 137.223 -9.08841 138.668 -5.45024 138.668H104.91C108.549 138.668 112.038 137.223 114.61 134.651C117.183 132.078 118.628 128.589 118.628 124.951V14.582C118.628 10.9438 117.183 7.45466 114.61 4.88209C112.038 2.30951 108.549 0.864258 104.91 0.864258M102.665 122.705H-3.20595V16.8263H102.665V122.705Z" fill="#4760FF"/>
</svg>
