<svg width="139" height="139" viewBox="0 0 139 139" fill="none" xmlns="http://www.w3.org/2000/svg">
<path d="M124.793 0.232324H14.4326C10.7944 0.232324 7.30525 1.67758 4.73267 4.25015C2.1601 6.82273 0.714844 10.3119 0.714844 13.9501V124.314C0.714844 127.952 2.1601 131.441 4.73267 134.014C7.30525 136.586 10.7944 138.032 14.4326 138.032H124.793C128.431 138.032 131.921 136.586 134.493 134.014C137.066 131.441 138.511 127.952 138.511 124.314V13.9453C138.511 10.3071 137.066 6.81794 134.493 4.24537C131.921 1.6728 128.431 0.227539 124.793 0.227539M122.547 122.068H16.6769V16.1896H122.547V122.068Z" fill="#4760FF"/>
</svg>
