<svg width="78" height="113" viewBox="0 0 78 113" fill="none" xmlns="http://www.w3.org/2000/svg">
<path d="M100.777 0.386692H11.3101C8.3607 0.386692 5.53213 1.55832 3.44661 3.64384C1.36109 5.72936 0.189453 8.55793 0.189453 11.5073V100.977C0.189453 103.926 1.36109 106.754 3.44661 108.84C5.53213 110.925 8.3607 112.097 11.3101 112.097H100.777C103.726 112.097 106.555 110.925 108.64 108.84C110.726 106.754 111.897 103.926 111.897 100.977V11.5034C111.897 8.55405 110.726 5.72548 108.64 3.63996C106.555 1.55444 103.726 0.382813 100.777 0.382812M98.956 99.1558H13.1295V13.3228H98.956V99.1558Z" fill="#4760FF"/>
</svg>
