<svg width="142" height="191" viewBox="0 0 142 191" fill="none" xmlns="http://www.w3.org/2000/svg">
<path d="M75.3878 2.90373C77.1407 1.26842 79.8601 1.26842 81.6129 2.90373L87.0886 8.01212C88.3543 9.19285 90.179 9.55582 91.8002 8.94929L98.8139 6.3252C101.059 5.48517 103.572 6.52585 104.565 8.70749L107.669 15.5225C108.387 17.0977 109.934 18.1313 111.663 18.1913L119.147 18.451C121.543 18.5341 123.466 20.4571 123.549 22.8529L123.809 30.3369C123.869 32.0667 124.903 33.6137 126.478 34.3312L133.293 37.4351C135.474 38.4288 136.515 40.9411 135.675 43.1864L133.051 50.2001C132.444 51.8213 132.807 53.646 133.988 54.9116L139.097 60.3873C140.732 62.1402 140.732 64.8596 139.097 66.6124L133.988 72.0881C132.807 73.3538 132.444 75.1785 133.051 76.7997L135.675 83.8134C136.515 86.0587 135.474 88.571 133.293 89.5647L126.478 92.6686C124.903 93.386 123.869 94.9331 123.809 96.6629L123.549 104.147C123.466 106.543 121.543 108.466 119.147 108.549L111.663 108.808C109.934 108.869 108.387 109.902 107.669 111.477L104.565 118.292C103.572 120.474 101.059 121.515 98.8139 120.675L91.8002 118.05C90.179 117.444 88.3543 117.807 87.0886 118.988L81.6129 124.096C79.8601 125.731 77.1407 125.731 75.3878 124.096L69.9121 118.988C68.6465 117.807 66.8218 117.444 65.2006 118.05L58.1869 120.675C55.9416 121.515 53.4293 120.474 52.4356 118.292L49.3317 111.477C48.6142 109.902 47.0672 108.869 45.3374 108.808L37.8534 108.549C35.4576 108.466 33.5346 106.543 33.4515 104.147L33.1918 96.6629C33.1317 94.9331 32.0981 93.386 30.523 92.6686L23.708 89.5647C21.5263 88.571 20.4857 86.0587 21.3257 83.8134L23.9498 76.7997C24.5563 75.1785 24.1933 73.3538 23.0126 72.0881L17.9042 66.6124C16.2689 64.8596 16.2689 62.1402 17.9042 60.3873L23.0126 54.9116C24.1933 53.646 24.5563 51.8213 23.9498 50.2001L21.3257 43.1864C20.4857 40.9411 21.5263 38.4288 23.708 37.4351L30.523 34.3312C32.0981 33.6137 33.1317 32.0667 33.1918 30.3369L33.4515 22.8529C33.5346 20.4571 35.4576 18.5341 37.8534 18.451L45.3374 18.1913C47.0672 18.1313 48.6142 17.0977 49.3317 15.5225L52.4356 8.70749C53.4293 6.52585 55.9416 5.48517 58.1869 6.3252L65.2006 8.94929C66.8218 9.55582 68.6465 9.19285 69.9121 8.01211L75.3878 2.90373Z" fill="#4760FF"/>
<path d="M80.9001 7.95147L85.9662 12.6777C87.3322 13.9522 89.3019 14.344 91.0517 13.6893L97.5408 11.2615C99.2718 10.6138 101.209 11.4162 101.975 13.0983L104.847 19.4034C105.621 21.1037 107.291 22.2193 109.158 22.2842L116.082 22.5244C117.929 22.5886 119.412 24.0712 119.476 25.9182L119.716 32.8425C119.781 34.7097 120.897 36.3794 122.597 37.1537L128.902 40.0255C130.584 40.7916 131.387 42.7288 130.739 44.4598L128.311 50.9489C127.657 52.6987 128.048 54.6684 129.323 56.0344L134.049 61.1005C135.31 62.4519 135.31 64.5486 134.049 65.9001L129.323 70.9662C128.048 72.3322 127.657 74.3019 128.311 76.0517L130.739 82.5408C131.387 84.2718 130.584 86.209 128.902 86.9751L122.597 89.8467C120.897 90.6211 119.781 92.2909 119.716 94.1581L119.476 101.082C119.412 102.929 117.929 104.412 116.082 104.476L109.158 104.716C107.291 104.781 105.621 105.897 104.847 107.597L101.975 113.902C101.209 115.584 99.2718 116.387 97.5408 115.739L91.0517 113.311C89.3019 112.657 87.3322 113.048 85.9662 114.323L80.9001 119.049C79.5486 120.31 77.4519 120.31 76.1005 119.049L71.0344 114.323C69.6684 113.048 67.6987 112.657 65.9489 113.311L59.4598 115.739C57.7288 116.387 55.7916 115.584 55.0255 113.902L52.1537 107.597C51.3794 105.897 49.7097 104.781 47.8425 104.716L40.9182 104.476C39.0712 104.412 37.5886 102.929 37.5244 101.082L37.2842 94.1581C37.2193 92.2909 36.1037 90.6211 34.4034 89.8467L28.0982 86.9751C26.4162 86.209 25.6138 84.2718 26.2615 82.5408L28.6893 76.0517C29.344 74.3019 28.9522 72.3322 27.6777 70.9662L22.9515 65.9001C21.6907 64.5486 21.6907 62.4519 22.9515 61.1005L27.6777 56.0344C28.9522 54.6684 29.344 52.6987 28.6893 50.9489L26.2615 44.4598C25.6138 42.7288 26.4162 40.7916 28.0983 40.0255L34.4034 37.1537C36.1037 36.3794 37.2193 34.7097 37.2842 32.8425L37.5244 25.9182C37.5886 24.0712 39.0712 22.5886 40.9182 22.5244L47.8425 22.2842C49.7097 22.2193 51.3794 21.1037 52.1537 19.4034L55.0255 13.0982C55.7916 11.4162 57.7288 10.6138 59.4598 11.2615L65.9489 13.6893C67.6987 14.344 69.6684 13.9522 71.0344 12.6777L76.1005 7.95147C77.4519 6.69065 79.5486 6.69065 80.9001 7.95147Z" fill="#4760FF" stroke="white" stroke-width="1.0637"/>
<path d="M63.3974 46.543C62.7307 46.543 62.0948 46.4103 61.4898 46.1448C60.8847 45.8732 60.3568 45.4936 59.9062 45.0058C59.4618 44.518 59.1437 43.9439 58.9524 43.2834L61.3972 42.6351C61.5268 43.1229 61.7799 43.5026 62.1565 43.7742C62.5393 44.0397 62.9529 44.1724 63.3974 44.1724C63.7801 44.1724 64.129 44.0798 64.4439 43.8946C64.7648 43.7094 65.018 43.4593 65.2032 43.1445C65.3945 42.8296 65.4903 42.4808 65.4903 42.098C65.4903 41.5239 65.2926 41.0331 64.8976 40.6256C64.5087 40.212 64.0086 40.0052 63.3974 40.0052C63.2122 40.0052 63.0331 40.033 62.8603 40.0885C62.6874 40.1379 62.5207 40.2089 62.3603 40.3015L61.2305 38.3198L65.4718 34.8008L65.657 35.3379H59.471V32.9673H67.8054V35.3379L64.5087 38.5235L64.4902 37.8197C65.2556 37.9371 65.9008 38.2056 66.4256 38.6254C66.9565 39.0391 67.3577 39.5514 67.6294 40.1626C67.9073 40.7676 68.0462 41.4128 68.0462 42.098C68.0462 42.9377 67.8332 43.6939 67.4072 44.3668C66.9812 45.0336 66.4163 45.5645 65.7125 45.9596C65.0087 46.3486 64.2369 46.543 63.3974 46.543ZM75.0251 46.5801C74.0374 46.5801 73.173 46.3733 72.4322 45.9596C71.6913 45.546 71.1141 44.9688 70.7005 44.2279C70.2869 43.4871 70.08 42.6228 70.08 41.635V37.6345C70.08 36.6467 70.2869 35.7824 70.7005 35.0416C71.1141 34.3008 71.6913 33.7236 72.4322 33.3099C73.173 32.8962 74.0374 32.6895 75.0251 32.6895C76.0129 32.6895 76.8772 32.8962 77.618 33.3099C78.3588 33.7236 78.9361 34.3008 79.3497 35.0416C79.7634 35.7824 79.9701 36.6467 79.9701 37.6345V41.635C79.9701 42.6228 79.7634 43.4871 79.3497 44.2279C78.9361 44.9688 78.3588 45.546 77.618 45.9596C76.8772 46.3733 76.0129 46.5801 75.0251 46.5801ZM75.0251 44.1909C75.4696 44.1909 75.8709 44.086 76.2289 43.876C76.587 43.6661 76.8711 43.3822 77.0809 43.0241C77.2908 42.666 77.3957 42.2647 77.3957 41.8202V37.4308C77.3957 36.9863 77.2908 36.585 77.0809 36.2269C76.8711 35.8688 76.587 35.5849 76.2289 35.375C75.8709 35.165 75.4696 35.0601 75.0251 35.0601C74.5806 35.0601 74.1793 35.165 73.8212 35.375C73.4632 35.5849 73.1792 35.8688 72.9693 36.2269C72.7594 36.585 72.6544 36.9863 72.6544 37.4308V41.8202C72.6544 42.2647 72.7594 42.666 72.9693 43.0241C73.1792 43.3822 73.4632 43.6661 73.8212 43.876C74.1793 44.086 74.5806 44.1909 75.0251 44.1909ZM84.2268 46.3023L82.5599 44.6354L94.228 32.9673L95.8949 34.6527L84.2268 46.3023ZM93.1168 46.5801C92.5056 46.5801 91.9469 46.4319 91.4406 46.1356C90.9406 45.833 90.5393 45.4318 90.2368 44.9317C89.9343 44.4254 89.783 43.8637 89.783 43.2463C89.783 42.6414 89.9374 42.0857 90.246 41.5795C90.5548 41.0732 90.9623 40.6689 91.4684 40.3663C91.9747 40.0638 92.5241 39.9126 93.1168 39.9126C93.7279 39.9126 94.2867 40.0638 94.7929 40.3663C95.2992 40.6627 95.7004 41.0639 95.9967 41.5702C96.2993 42.0703 96.4505 42.6289 96.4505 43.2463C96.4505 43.8637 96.2993 44.4254 95.9967 44.9317C95.7004 45.4318 95.2992 45.833 94.7929 46.1356C94.2867 46.4319 93.7279 46.5801 93.1168 46.5801ZM93.1168 44.4502C93.3329 44.4502 93.5304 44.3946 93.7094 44.2835C93.8946 44.1724 94.0428 44.0272 94.1539 43.8483C94.265 43.663 94.3206 43.4624 94.3206 43.2463C94.3206 43.0303 94.265 42.8327 94.1539 42.6537C94.0428 42.4685 93.8946 42.3203 93.7094 42.2092C93.5304 42.098 93.3329 42.0425 93.1168 42.0425C92.9007 42.0425 92.7 42.098 92.5148 42.2092C92.3358 42.3203 92.1907 42.4685 92.0796 42.6537C91.9685 42.8327 91.9129 43.0303 91.9129 43.2463C91.9129 43.4624 91.9685 43.663 92.0796 43.8483C92.1907 44.0272 92.3358 44.1724 92.5148 44.2835C92.7 44.3946 92.9007 44.4502 93.1168 44.4502ZM85.338 39.357C84.7268 39.357 84.1681 39.2088 83.6619 38.9125C83.1557 38.6099 82.7513 38.2087 82.4488 37.7086C82.1524 37.2023 82.0043 36.6406 82.0043 36.0232C82.0043 35.4182 82.1586 34.8626 82.4673 34.3563C82.776 33.85 83.1835 33.4458 83.6896 33.1432C84.1959 32.8407 84.7453 32.6895 85.338 32.6895C85.9492 32.6895 86.5048 32.8407 87.0049 33.1432C87.5112 33.4395 87.9156 33.8408 88.218 34.3471C88.5205 34.8471 88.6718 35.4058 88.6718 36.0232C88.6718 36.6406 88.5205 37.2023 88.218 37.7086C87.9156 38.2087 87.5112 38.6099 87.0049 38.9125C86.5048 39.2088 85.9492 39.357 85.338 39.357ZM85.338 37.2271C85.5542 37.2271 85.7517 37.1715 85.9307 37.0604C86.1159 36.9492 86.264 36.8041 86.3752 36.6251C86.4863 36.4399 86.5419 36.2392 86.5419 36.0232C86.5419 35.8072 86.4863 35.6095 86.3752 35.4305C86.264 35.2453 86.1159 35.0972 85.9307 34.986C85.7517 34.8749 85.5542 34.8193 85.338 34.8193C85.122 34.8193 84.9213 34.8749 84.7361 34.986C84.5571 35.0972 84.412 35.2453 84.3008 35.4305C84.1897 35.6095 84.1342 35.8072 84.1342 36.0232C84.1342 36.2392 84.1897 36.4399 84.3008 36.6251C84.412 36.8041 84.5571 36.9492 84.7361 37.0604C84.9213 37.1715 85.122 37.2271 85.338 37.2271ZM35.9863 63.5002V53.0227H37.7617L41.2251 59.9786L44.6885 53.0227H46.4638V63.5002H44.6157V57.2428L41.5743 63.5002H40.8758L37.8344 57.2428V63.5002H35.9863ZM52.7118 63.7185C51.6641 63.7185 50.7595 63.4905 49.9979 63.0345C49.2412 62.5785 48.6567 61.9407 48.2443 61.1209C47.8369 60.3011 47.6332 59.3479 47.6332 58.2614C47.6332 57.1749 47.8369 56.2218 48.2443 55.402C48.6567 54.5821 49.2412 53.9444 49.9979 53.4883C50.7595 53.0323 51.6641 52.8044 52.7118 52.8044C53.7596 52.8044 54.6618 53.0323 55.4185 53.4883C56.1801 53.9444 56.7646 54.5821 57.172 55.402C57.5844 56.2218 57.7905 57.1749 57.7905 58.2614C57.7905 59.3479 57.5844 60.3011 57.172 61.1209C56.7646 61.9407 56.1801 62.5785 55.4185 63.0345C54.6618 63.4905 53.7596 63.7185 52.7118 63.7185ZM52.7118 61.8558C53.3763 61.8655 53.9293 61.7224 54.3708 61.4265C54.8122 61.1306 55.142 60.7111 55.3603 60.1678C55.5835 59.6244 55.695 58.989 55.695 58.2614C55.695 57.5338 55.5835 56.9032 55.3603 56.3697C55.142 55.8361 54.8122 55.4214 54.3708 55.1255C53.9293 54.8295 53.3763 54.6767 52.7118 54.6671C52.0473 54.6574 51.4944 54.8004 51.0529 55.0964C50.6114 55.3923 50.2793 55.8118 50.0561 56.3551C49.8378 56.8984 49.7287 57.5338 49.7287 58.2614C49.7287 58.989 49.8378 59.6197 50.0561 60.1532C50.2793 60.6867 50.6114 61.1015 51.0529 61.3974C51.4944 61.6933 52.0473 61.8461 52.7118 61.8558ZM59.0974 63.5002V53.0227H61.0765V63.5002H59.0974ZM62.9668 63.5002V53.0227H64.975L69.5298 60.0077V53.0227H71.538V63.5002H69.5298L64.975 56.5152V63.5002H62.9668ZM77.2354 63.7185C76.4592 63.7185 75.7584 63.5826 75.1326 63.311C74.5117 63.0345 73.9999 62.6416 73.5974 62.1323C73.1996 61.6181 72.9473 61.0069 72.8407 60.2987L74.9071 59.9931C75.0526 60.5947 75.3533 61.0578 75.8093 61.3829C76.2652 61.7079 76.7843 61.8704 77.3664 61.8704C77.6913 61.8704 78.0067 61.8194 78.3123 61.7176C78.6179 61.6157 78.8676 61.4653 79.0617 61.2664C79.2605 61.0676 79.36 60.8226 79.36 60.5316C79.36 60.4248 79.3429 60.3229 79.3091 60.226C79.28 60.1241 79.229 60.0295 79.1563 59.9422C79.0835 59.8549 78.9791 59.7725 78.8434 59.6948C78.7124 59.6172 78.5451 59.5469 78.3414 59.4838L75.6201 58.6834C75.4164 58.6252 75.1787 58.5428 74.9071 58.4361C74.6402 58.3293 74.3807 58.1765 74.1285 57.9777C73.8763 57.7788 73.6652 57.5169 73.4955 57.1919C73.3306 56.862 73.2481 56.4473 73.2481 55.9477C73.2481 55.2443 73.4251 54.6598 73.7793 54.1941C74.1333 53.7285 74.6062 53.3816 75.1981 53.1537C75.7898 52.9257 76.4447 52.8141 77.1626 52.819C77.8853 52.8286 78.5305 52.9523 79.0981 53.19C79.6656 53.4278 80.1409 53.7745 80.5242 54.2305C80.9073 54.6816 81.1838 55.2346 81.3536 55.8894L79.2145 56.2532C79.1368 55.9137 78.9937 55.6275 78.7852 55.3947C78.5766 55.1618 78.3268 54.9848 78.0358 54.8635C77.7495 54.7422 77.4488 54.6767 77.1335 54.6671C76.8231 54.6574 76.5296 54.7011 76.2531 54.798C75.9814 54.8902 75.7584 55.026 75.5837 55.2055C75.4139 55.385 75.3291 55.5984 75.3291 55.8458C75.3291 56.0737 75.3993 56.2605 75.5401 56.406C75.6807 56.5467 75.8577 56.6607 76.0712 56.748C76.2846 56.8353 76.5029 56.9081 76.7261 56.9663L78.5451 57.4611C78.8167 57.5338 79.1174 57.6308 79.4473 57.7521C79.7771 57.8685 80.0924 58.0335 80.3932 58.2469C80.6988 58.4555 80.9486 58.732 81.1426 59.0763C81.3415 59.4207 81.441 59.8573 81.441 60.386C81.441 60.9487 81.322 61.4411 81.0844 61.8631C80.8516 62.2802 80.5362 62.6271 80.1385 62.9035C79.7407 63.1751 79.2896 63.3789 78.7852 63.5147C78.2855 63.6506 77.7689 63.7185 77.2354 63.7185ZM89.8679 63.7185C88.8202 63.7185 87.9156 63.4905 87.154 63.0345C86.3973 62.5785 85.8128 61.9407 85.4004 61.1209C84.993 60.3011 84.7893 59.3479 84.7893 58.2614C84.7893 57.1749 84.993 56.2218 85.4004 55.402C85.8128 54.5821 86.3973 53.9444 87.154 53.4883C87.9156 53.0323 88.8202 52.8044 89.8679 52.8044C91.0709 52.8044 92.0799 53.1027 92.8948 53.6994C93.7146 54.296 94.2918 55.1036 94.6265 56.1223L92.6328 56.6753C92.4388 56.0399 92.1113 55.5475 91.6506 55.1982C91.1898 54.8441 90.5955 54.6671 89.8679 54.6671C89.2034 54.6671 88.6479 54.815 88.2017 55.1109C87.7603 55.4068 87.4281 55.824 87.2049 56.3624C86.9817 56.9008 86.8702 57.5338 86.8702 58.2614C86.8702 58.989 86.9817 59.622 87.2049 60.1605C87.4281 60.6989 87.7603 61.116 88.2017 61.412C88.6479 61.7079 89.2034 61.8558 89.8679 61.8558C90.5955 61.8558 91.1898 61.6788 91.6506 61.3246C92.1113 60.9705 92.4388 60.4782 92.6328 59.8476L94.6265 60.4006C94.2918 61.4192 93.7146 62.2269 92.8948 62.8235C92.0799 63.4201 91.0709 63.7185 89.8679 63.7185ZM95.9375 63.5002V53.0227H97.9166V57.3301H102.602V53.0227H104.581V63.5002H102.602V59.1782H97.9166V63.5002H95.9375ZM106.333 63.5002V53.0227H113.173V54.8708H108.312V57.1118H112.3V58.9599H108.312V61.6521H113.173V63.5002H106.333ZM114.626 63.5002V53.0227H119.049C119.151 53.0227 119.287 53.0276 119.457 53.0372C119.631 53.0421 119.787 53.0567 119.922 53.0809C120.548 53.1779 121.06 53.3841 121.458 53.6994C121.86 54.0146 122.156 54.4124 122.345 54.8926C122.535 55.3679 122.629 55.8991 122.629 56.4861C122.629 57.3641 122.411 58.1159 121.974 58.7417C121.538 59.3625 120.854 59.7457 119.922 59.8913L119.049 59.9495H116.605V63.5002H114.626ZM120.534 63.5002L118.467 59.2364L120.505 58.8435L122.775 63.5002H120.534ZM116.605 58.1014H118.962C119.064 58.1014 119.176 58.0965 119.297 58.0868C119.418 58.0772 119.53 58.0577 119.631 58.0286C119.898 57.9558 120.104 57.8345 120.25 57.6648C120.395 57.4902 120.495 57.2986 120.548 57.09C120.606 56.8766 120.636 56.6753 120.636 56.4861C120.636 56.2969 120.606 56.0981 120.548 55.8894C120.495 55.6761 120.395 55.4844 120.25 55.3146C120.104 55.14 119.898 55.0163 119.631 54.9436C119.53 54.9145 119.418 54.895 119.297 54.8853C119.176 54.8757 119.064 54.8708 118.962 54.8708H116.605V58.1014Z" fill="white"/>
<path d="M61.0218 79.5284L58.8946 77.4117L59.6037 76.7026L61.7203 78.8193L61.0218 79.5284ZM58.2278 79.5337C57.4658 79.5337 56.8168 79.3679 56.2805 79.0362C55.7443 78.7011 55.3333 78.2355 55.0475 77.6392C54.7654 77.043 54.6242 76.3516 54.6242 75.5649C54.6242 74.7782 54.7654 74.0868 55.0475 73.4906C55.3333 72.8943 55.7443 72.4305 56.2805 72.0989C56.8168 71.7638 57.4658 71.5962 58.2278 71.5962C58.9864 71.5962 59.6337 71.7638 60.1699 72.0989C60.7096 72.4305 61.1207 72.8943 61.4028 73.4906C61.6851 74.0868 61.8262 74.7782 61.8262 75.5649C61.8262 76.3516 61.6851 77.043 61.4028 77.6392C61.1207 78.2355 60.7096 78.7011 60.1699 79.0362C59.6337 79.3679 58.9864 79.5337 58.2278 79.5337ZM58.2278 78.4806C58.7676 78.4876 59.2157 78.3695 59.5719 78.1261C59.9318 77.8791 60.2016 77.537 60.3815 77.0995C60.5615 76.6586 60.6514 76.147 60.6514 75.5649C60.6514 74.9828 60.5615 74.4748 60.3815 74.0409C60.2016 73.6034 59.9318 73.263 59.5719 73.0196C59.2157 72.7762 58.7676 72.6528 58.2278 72.6492C57.6881 72.6422 57.2383 72.7603 56.8785 73.0037C56.5222 73.2471 56.254 73.5894 56.0741 74.0303C55.8942 74.4712 55.8025 74.9828 55.799 75.5649C55.7955 76.147 55.8836 76.6567 56.0635 77.0942C56.2435 77.5281 56.5133 77.8668 56.8732 78.1102C57.2366 78.3536 57.6881 78.477 58.2278 78.4806ZM64.9455 70.9082H64.0776L64.8344 69.0562H65.7022L64.9455 70.9082ZM71.0252 79.5337C70.429 79.5337 69.9016 79.4119 69.443 79.1685C68.9879 78.9215 68.6317 78.5776 68.3741 78.1367C68.1165 77.6922 67.9878 77.17 67.9878 76.5703V71.7602L69.1096 71.7549V76.5121C69.1096 76.8366 69.1643 77.1224 69.2737 77.3694C69.3831 77.6164 69.5294 77.8227 69.7129 77.9885C69.8964 78.1542 70.1009 78.2795 70.3267 78.3642C70.556 78.4489 70.7888 78.4912 71.0252 78.4912C71.265 78.4912 71.4979 78.4489 71.7237 78.3642C71.953 78.276 72.1593 78.149 72.3428 77.9832C72.5263 77.8174 72.6709 77.6111 72.7767 77.3641C72.8862 77.1171 72.9408 76.8332 72.9408 76.5121V71.7549H74.0626V76.5703C74.0626 77.1666 73.9339 77.6869 73.6763 78.1314C73.4188 78.5759 73.0608 78.9215 72.6021 79.1685C72.147 79.4119 71.6214 79.5337 71.0252 79.5337ZM75.3312 79.3749V71.7549H76.453L80.2048 77.417V71.7549H81.3266V79.3749H80.2048L76.453 73.7075V79.3749H75.3312ZM84.499 79.3749V71.7549H87.4941C87.9775 71.7549 88.3831 71.8537 88.7111 72.0512C89.0392 72.2487 89.2862 72.5046 89.452 72.8185C89.6179 73.129 89.7007 73.4571 89.7007 73.8028C89.7007 74.2225 89.5967 74.5824 89.3885 74.8823C89.184 75.1822 88.9069 75.3867 88.5577 75.4961L88.5471 75.2368C89.0339 75.3568 89.4079 75.5914 89.6689 75.9406C89.9301 76.2863 90.0605 76.6903 90.0605 77.1524C90.0605 77.6005 89.9706 77.9902 89.7906 78.3219C89.6143 78.6535 89.355 78.9128 89.0128 79.0997C88.6741 79.2832 88.2632 79.3749 87.7798 79.3749H84.499ZM85.6208 78.3219H87.6105C87.861 78.3219 88.085 78.2742 88.2825 78.179C88.4836 78.0837 88.6406 77.9479 88.7535 77.7715C88.8699 77.5916 88.9281 77.3782 88.9281 77.1312C88.9281 76.902 88.877 76.6956 88.7746 76.5121C88.676 76.3252 88.5312 76.1787 88.3407 76.0729C88.1538 75.9635 87.9333 75.9089 87.6793 75.9089H85.6208V78.3219ZM85.6208 74.8664H87.4782C87.6828 74.8664 87.8663 74.8258 88.0285 74.7447C88.1944 74.66 88.3248 74.54 88.4201 74.3849C88.5189 74.2261 88.5683 74.0356 88.5683 73.8134C88.5683 73.517 88.4696 73.2736 88.2719 73.0831C88.0744 72.8926 87.8098 72.7974 87.4782 72.7974H85.6208V74.8664ZM94.0822 79.5337C93.3202 79.5337 92.6712 79.3679 92.1349 79.0362C91.5987 78.7011 91.1876 78.2355 90.9019 77.6392C90.6197 77.043 90.4786 76.3516 90.4786 75.5649C90.4786 74.7782 90.6197 74.0868 90.9019 73.4906C91.1876 72.8943 91.5987 72.4305 92.1349 72.0989C92.6712 71.7638 93.3202 71.5962 94.0822 71.5962C94.8407 71.5962 95.488 71.7638 96.0242 72.0989C96.564 72.4305 96.975 72.8943 97.2572 73.4906C97.5395 74.0868 97.6805 74.7782 97.6805 75.5649C97.6805 76.3516 97.5395 77.043 97.2572 77.6392C96.975 78.2355 96.564 78.7011 96.0242 79.0362C95.488 79.3679 94.8407 79.5337 94.0822 79.5337ZM94.0822 78.4806C94.6219 78.4876 95.07 78.3695 95.4263 78.1261C95.7861 77.8791 96.056 77.537 96.2359 77.0995C96.4158 76.6586 96.5058 76.147 96.5058 75.5649C96.5058 74.9828 96.4158 74.4748 96.2359 74.0409C96.056 73.6034 95.7861 73.263 95.4263 73.0196C95.07 72.7762 94.6219 72.6528 94.0822 72.6492C93.5424 72.6422 93.0926 72.7603 92.7328 73.0037C92.3765 73.2471 92.1084 73.5894 91.9285 74.0303C91.7486 74.4712 91.6569 74.9828 91.6533 75.5649C91.6499 76.147 91.738 76.6567 91.9179 77.0942C92.0978 77.5281 92.3677 77.8668 92.7275 78.1102C93.0909 78.3536 93.5424 78.477 94.0822 78.4806ZM97.3624 79.3749L99.9606 75.5173L97.4311 71.7549H98.7858L100.643 74.5807L102.49 71.7549H103.85L101.321 75.5173L103.913 79.3749H102.559L100.643 76.4592L98.7223 79.3749H97.3624ZM54.8507 94.0857C54.0887 94.0857 53.4397 93.92 52.9034 93.5883C52.3672 93.2532 51.9562 92.7876 51.6704 92.1913C51.3882 91.5951 51.2471 90.9037 51.2471 90.117C51.2471 89.3303 51.3882 88.6389 51.6704 88.0427C51.9562 87.4464 52.3672 86.9826 52.9034 86.6509C53.4397 86.3158 54.0887 86.1482 54.8507 86.1482C55.7291 86.1482 56.4559 86.3705 57.0309 86.815C57.6095 87.2595 58.0117 87.8574 58.2374 88.6089L57.1155 88.9105C56.9674 88.3777 56.7028 87.9597 56.3218 87.6564C55.9444 87.353 55.4539 87.2013 54.8507 87.2013C54.3109 87.2013 53.8612 87.323 53.5013 87.5664C53.1415 87.8098 52.8699 88.1502 52.6864 88.5877C52.5065 89.0252 52.4165 89.5349 52.4165 90.117C52.4131 90.6991 52.5012 91.2088 52.6811 91.6463C52.8646 92.0838 53.1362 92.4241 53.496 92.6676C53.8594 92.911 54.3109 93.0327 54.8507 93.0327C55.4539 93.0327 55.9444 92.881 56.3218 92.5776C56.7028 92.2707 56.9674 91.8526 57.1155 91.3235L58.2374 91.6251C58.0117 92.3765 57.6095 92.9745 57.0309 93.419C56.4559 93.8635 55.7291 94.0857 54.8507 94.0857ZM59.2954 93.927V86.307H60.4014V92.8845H63.8516V93.927H59.2954ZM64.0091 93.927L66.4856 86.307H68.0784L70.5549 93.927H69.4066L67.1259 86.9737H67.4117L65.1574 93.927H64.0091ZM65.295 92.2072V91.17H69.2743V92.2072H65.295ZM73.8482 94.0857C73.3013 94.0857 72.8074 93.9922 72.3665 93.8053C71.929 93.6148 71.5675 93.3449 71.2817 92.9956C70.9994 92.6428 70.816 92.2248 70.7314 91.7415L71.885 91.5669C72.0014 92.0326 72.2448 92.396 72.6152 92.657C72.9856 92.9146 73.4177 93.0433 73.9117 93.0433C74.2186 93.0433 74.5008 92.9957 74.7583 92.9004C75.0158 92.8016 75.2222 92.6623 75.3775 92.4824C75.5362 92.2989 75.6156 92.0802 75.6156 91.8262C75.6156 91.6886 75.5909 91.5669 75.5415 91.4611C75.4956 91.3552 75.4304 91.2636 75.3457 91.1859C75.2645 91.1048 75.1639 91.036 75.0441 90.9795C74.9277 90.9196 74.7988 90.8684 74.6578 90.8261L72.7052 90.2493C72.5147 90.1928 72.3206 90.1206 72.1231 90.0323C71.9254 89.9406 71.7438 89.8224 71.578 89.6778C71.4157 89.5296 71.2834 89.348 71.1812 89.1327C71.0788 88.9141 71.0277 88.6495 71.0277 88.339C71.0277 87.8697 71.1476 87.4729 71.3875 87.1484C71.631 86.8203 71.9591 86.5733 72.3718 86.4075C72.7846 86.2382 73.2466 86.1535 73.7582 86.1535C74.2732 86.1605 74.7336 86.2523 75.1393 86.4287C75.5485 86.605 75.8872 86.859 76.1553 87.1907C76.4269 87.5188 76.6139 87.9174 76.7163 88.3866L75.5309 88.5877C75.478 88.3019 75.365 88.0568 75.1923 87.8521C75.0194 87.6441 74.8077 87.4853 74.5573 87.3759C74.3067 87.2631 74.0351 87.2048 73.7423 87.2013C73.46 87.1943 73.2007 87.2366 72.9645 87.3283C72.7316 87.42 72.5446 87.5488 72.4035 87.7146C72.266 87.8803 72.1972 88.0708 72.1972 88.2861C72.1972 88.4977 72.2588 88.6688 72.3824 88.7994C72.5058 88.9299 72.6575 89.0339 72.8375 89.1116C73.0208 89.1857 73.2026 89.2474 73.3825 89.2968L74.7901 89.6937C74.9664 89.743 75.1658 89.8101 75.3881 89.8947C75.6137 89.9758 75.8307 90.0905 76.0389 90.2387C76.2506 90.3869 76.4252 90.5844 76.5628 90.8314C76.7004 91.0748 76.7692 91.3817 76.7692 91.7521C76.7692 92.1367 76.6915 92.4753 76.5363 92.7681C76.381 93.0574 76.1676 93.3009 75.896 93.4984C75.6279 93.6924 75.3174 93.8388 74.9647 93.9376C74.6119 94.0364 74.2398 94.0857 73.8482 94.0857ZM80.6025 94.0857C80.0557 94.0857 79.5617 93.9922 79.1208 93.8053C78.6833 93.6148 78.3217 93.3449 78.036 92.9956C77.7538 92.6428 77.5703 92.2248 77.4857 91.7415L78.6392 91.5669C78.7557 92.0326 78.9991 92.396 79.3695 92.657C79.7399 92.9146 80.1721 93.0433 80.666 93.0433C80.9729 93.0433 81.2551 92.9957 81.5126 92.9004C81.7702 92.8016 81.9766 92.6623 82.1317 92.4824C82.2905 92.2989 82.3699 92.0802 82.3699 91.8262C82.3699 91.6886 82.3451 91.5669 82.2958 91.4611C82.2499 91.3552 82.1847 91.2636 82.1 91.1859C82.0189 91.1048 81.9184 91.036 81.7984 90.9795C81.682 90.9196 81.5532 90.8684 81.4121 90.8261L79.4595 90.2493C79.269 90.1928 79.0749 90.1206 78.8774 90.0323C78.6799 89.9406 78.4981 89.8224 78.3323 89.6778C78.17 89.5296 78.0377 89.348 77.9355 89.1327C77.8332 88.9141 77.782 88.6495 77.782 88.339C77.782 87.8697 77.902 87.4729 78.1418 87.1484C78.3853 86.8203 78.7133 86.5733 79.1261 86.4075C79.5388 86.2382 80.0009 86.1535 80.5125 86.1535C81.0275 86.1605 81.4879 86.2523 81.8936 86.4287C82.3028 86.605 82.6415 86.859 82.9096 87.1907C83.1812 87.5188 83.3683 87.9174 83.4705 88.3866L82.2852 88.5877C82.2323 88.3019 82.1194 88.0568 81.9465 87.8521C81.7736 87.6441 81.562 87.4853 81.3115 87.3759C81.0611 87.2631 80.7894 87.2048 80.4966 87.2013C80.2144 87.1943 79.9552 87.2366 79.7187 87.3283C79.4859 87.42 79.299 87.5488 79.1578 87.7146C79.0202 87.8803 78.9515 88.0708 78.9515 88.2861C78.9515 88.4977 79.0132 88.6688 79.1367 88.7994C79.2601 88.9299 79.4118 89.0339 79.5918 89.1116C79.7752 89.1857 79.9569 89.2474 80.1368 89.2968L81.5444 89.6937C81.7207 89.743 81.9201 89.8101 82.1423 89.8947C82.3682 89.9758 82.5851 90.0905 82.7932 90.2387C83.0049 90.3869 83.1795 90.5844 83.3171 90.8314C83.4547 91.0748 83.5235 91.3817 83.5235 91.7521C83.5235 92.1367 83.4458 92.4753 83.2906 92.7681C83.1354 93.0574 82.9219 93.3009 82.6503 93.4984C82.3822 93.6924 82.0718 93.8388 81.719 93.9376C81.3662 94.0364 80.994 94.0857 80.6025 94.0857ZM84.5453 93.927V86.307H85.6512V93.927H84.5453ZM93.003 94.0804L90.8757 91.9638L91.5848 91.2547L93.7014 93.3714L93.003 94.0804ZM90.209 94.0857C89.447 94.0857 88.7979 93.92 88.2616 93.5883C87.7254 93.2532 87.3144 92.7876 87.0287 92.1913C86.7465 91.5951 86.6053 90.9037 86.6053 90.117C86.6053 89.3303 86.7465 88.6389 87.0287 88.0427C87.3144 87.4464 87.7254 86.9826 88.2616 86.6509C88.7979 86.3158 89.447 86.1482 90.209 86.1482C90.9675 86.1482 91.6148 86.3158 92.151 86.6509C92.6907 86.9826 93.1018 87.4464 93.3839 88.0427C93.6663 88.6389 93.8073 89.3303 93.8073 90.117C93.8073 90.9037 93.6663 91.5951 93.3839 92.1913C93.1018 92.7876 92.6907 93.2532 92.151 93.5883C91.6148 93.92 90.9675 94.0857 90.209 94.0857ZM90.209 93.0327C90.7487 93.0397 91.1968 92.9216 91.553 92.6782C91.9129 92.4312 92.1827 92.0891 92.3627 91.6516C92.5426 91.2106 92.6325 90.6991 92.6325 90.117C92.6325 89.5349 92.5426 89.0269 92.3627 88.593C92.1827 88.1555 91.9129 87.8151 91.553 87.5717C91.1968 87.3283 90.7487 87.2048 90.209 87.2013C89.6692 87.1943 89.2194 87.3124 88.8596 87.5558C88.5033 87.7992 88.2352 88.1415 88.0552 88.5824C87.8753 89.0233 87.7836 89.5349 87.7801 90.117C87.7766 90.6991 87.8647 91.2088 88.0447 91.6463C88.2246 92.0802 88.4944 92.4189 88.8543 92.6623C89.2177 92.9057 89.6692 93.0291 90.209 93.0327ZM97.6886 94.0857C97.0924 94.0857 96.565 93.964 96.1064 93.7206C95.6513 93.4736 95.295 93.1297 95.0375 92.6887C94.7799 92.2442 94.6512 91.7221 94.6512 91.1224V86.3123L95.773 86.307V91.0642C95.773 91.3887 95.8276 91.6745 95.937 91.9214C96.0465 92.1684 96.1928 92.3748 96.3763 92.5406C96.5597 92.7063 96.7643 92.8316 96.9901 92.9163C97.2193 93.0009 97.4522 93.0433 97.6886 93.0433C97.9284 93.0433 98.1613 93.0009 98.3871 92.9163C98.6163 92.828 98.8227 92.701 99.0062 92.5353C99.1897 92.3695 99.3343 92.1631 99.4401 91.9162C99.5495 91.6692 99.6042 91.3853 99.6042 91.0642V86.307H100.726V91.1224C100.726 91.7186 100.597 92.2389 100.34 92.6834C100.082 93.1279 99.7242 93.4736 99.2655 93.7206C98.8104 93.964 98.2848 94.0857 97.6886 94.0857ZM101.995 93.927V86.307H106.863V87.3494H103.101V89.4873H106.228V90.5297H103.101V92.8845H106.863V93.927H101.995Z" fill="white"/>
<path d="M45.6469 97.1952C46.9719 95.959 49.0275 95.959 50.3525 97.1952L54.4916 101.057C55.4483 101.949 56.8276 102.224 58.0531 101.765L63.3548 99.7815C65.052 99.1465 66.9511 99.9332 67.7022 101.582L70.0485 106.734C70.5908 107.924 71.7602 108.706 73.0678 108.751L78.725 108.947C80.536 109.01 81.9896 110.464 82.0524 112.275L82.2487 117.932C82.2941 119.24 83.0754 120.409 84.2661 120.951L89.4176 123.298C91.0667 124.049 91.8534 125.948 91.2184 127.645L89.2348 132.947C88.7763 134.172 89.0507 135.552 89.9432 136.508L93.8047 140.647C95.0408 141.972 95.0408 144.028 93.8047 145.353L89.9432 149.492C89.0507 150.449 88.7763 151.828 89.2348 153.054L91.2184 158.355C91.8534 160.052 91.0667 161.952 89.4176 162.703L84.2661 165.049C83.0754 165.591 82.2941 166.761 82.2487 168.068L82.0524 173.725C81.9896 175.536 80.536 176.99 78.725 177.053L73.0678 177.249C71.7602 177.295 70.5908 178.076 70.0485 179.267L67.7022 184.418C66.9511 186.067 65.052 186.854 63.3548 186.219L58.0531 184.235C56.8276 183.777 55.4483 184.051 54.4916 184.944L50.3525 188.805C49.0275 190.041 46.9719 190.041 45.6469 188.805L41.5078 184.944C40.5511 184.051 39.1718 183.777 37.9463 184.235L32.6446 186.219C30.9474 186.854 29.0483 186.067 28.2972 184.418L25.9509 179.267C25.4086 178.076 24.2392 177.295 22.9316 177.249L17.2744 177.053C15.4634 176.99 14.0098 175.536 13.947 173.725L13.7507 168.068C13.7053 166.761 12.924 165.591 11.7333 165.049L6.58178 162.703C4.93267 161.952 4.14601 160.052 4.781 158.355L6.76456 153.054C7.22304 151.828 6.94867 150.449 6.05614 149.492L2.19469 145.353C0.958541 144.028 0.958543 141.972 2.19469 140.647L6.05615 136.508C6.94867 135.552 7.22304 134.172 6.76456 132.947L4.781 127.645C4.14601 125.948 4.93267 124.049 6.58178 123.298L11.7333 120.951C12.924 120.409 13.7053 119.24 13.7507 117.932L13.947 112.275C14.0098 110.464 15.4634 109.01 17.2744 108.947L22.9316 108.751C24.2392 108.706 25.4086 107.924 25.9509 106.734L28.2972 101.582C29.0483 99.9332 30.9474 99.1465 32.6446 99.7815L37.9463 101.765C39.1718 102.224 40.5511 101.949 41.5078 101.057L45.6469 97.1952Z" fill="white"/>
<path d="M49.8144 101.011L53.6439 104.583C54.6765 105.547 56.1654 105.843 57.4881 105.348L62.3932 103.513C63.7017 103.023 65.166 103.63 65.7451 104.901L67.9158 109.667C68.5012 110.953 69.7634 111.796 71.1748 111.845L76.4089 112.026C77.8051 112.075 78.9258 113.196 78.9743 114.592L79.1559 119.826C79.2049 121.237 80.0481 122.5 81.3335 123.085L86.0996 125.256C87.371 125.835 87.9775 127.299 87.488 128.608L85.6528 133.513C85.1579 134.835 85.454 136.324 86.4174 137.357L89.99 141.186C90.9431 142.208 90.9431 143.793 89.99 144.814L86.4174 148.644C85.454 149.676 85.1579 151.165 85.6528 152.488L87.488 157.393C87.9775 158.702 87.371 160.166 86.0996 160.745L81.3335 162.916C80.0481 163.501 79.2049 164.763 79.1559 166.175L78.9743 171.409C78.9258 172.805 77.8051 173.926 76.4088 173.974L71.1748 174.156C69.7634 174.205 68.5012 175.048 67.9158 176.333L65.7451 181.1C65.166 182.371 63.7017 182.977 62.3932 182.488L57.4881 180.653C56.1654 180.158 54.6765 180.454 53.6439 181.417L49.8144 184.99C48.7928 185.943 47.2079 185.943 46.1864 184.99L42.3569 181.417C41.3243 180.454 39.8354 180.158 38.5127 180.653L33.6076 182.488C32.2991 182.977 30.8348 182.371 30.2557 181.1L28.0849 176.333C27.4996 175.048 26.2374 174.205 24.826 174.156L19.5919 173.974C18.1957 173.926 17.075 172.805 17.0265 171.409L16.8449 166.175C16.7959 164.763 15.9526 163.501 14.6673 162.916L9.90116 160.745C8.6297 160.166 8.02319 158.702 8.51277 157.393L10.348 152.488C10.8429 151.165 10.5467 149.676 9.58329 148.644L6.01069 144.814C5.05763 143.793 5.05763 142.208 6.01069 141.186L9.58329 137.357C10.5467 136.324 10.8429 134.835 10.348 133.513L8.51277 128.608C8.02319 127.299 8.62971 125.835 9.90117 125.256L14.6673 123.085C15.9526 122.5 16.7959 121.237 16.8449 119.826L17.0265 114.592C17.075 113.196 18.1957 112.075 19.5919 112.026L24.826 111.845C26.2374 111.796 27.4996 110.953 28.0849 109.667L30.2557 104.901C30.8348 103.63 32.2991 103.023 33.6076 103.513L38.5127 105.348C39.8354 105.843 41.3243 105.547 42.3569 104.583L46.1864 101.011C47.2079 100.058 48.7928 100.058 49.8144 101.011Z" fill="white" stroke="#4760FF" stroke-width="1.0637"/>
<path d="M84 141H12V154H84V141Z" fill="white"/>
<path d="M15.8527 141.665L14.7737 139.13H16.0867L17.1657 141.665H15.8527ZM20.8707 152H19.0507L16.5417 143.745H16.8797L14.3317 152H12.5117L15.3717 142.64H18.0107L20.8707 152ZM19.1547 150.05H14.2147V148.399H19.1547V150.05ZM24.1183 152V142.64H27.1473C27.221 142.64 27.3726 142.642 27.6023 142.646C27.832 142.651 28.053 142.666 28.2653 142.692C29.0193 142.783 29.6585 143.045 30.1828 143.478C30.7071 143.912 31.1058 144.462 31.3788 145.129C31.6518 145.797 31.7883 146.527 31.7883 147.32C31.7883 148.113 31.6518 148.843 31.3788 149.51C31.1058 150.178 30.7071 150.728 30.1828 151.161C29.6585 151.595 29.0193 151.857 28.2653 151.948C28.053 151.974 27.832 151.989 27.6023 151.993C27.3726 151.998 27.221 152 27.1473 152H24.1183ZM25.9123 150.336H27.1473C27.2643 150.336 27.4225 150.334 27.6218 150.329C27.8211 150.321 28.001 150.301 28.1613 150.271C28.5686 150.189 28.9001 149.998 29.1558 149.699C29.4158 149.4 29.6065 149.04 29.7278 148.62C29.8535 148.2 29.9163 147.766 29.9163 147.32C29.9163 146.852 29.8513 146.408 29.7213 145.987C29.5956 145.567 29.4028 145.212 29.1428 144.921C28.8828 144.631 28.5556 144.447 28.1613 144.369C28.001 144.334 27.8211 144.315 27.6218 144.31C27.4225 144.306 27.2643 144.304 27.1473 144.304H25.9123V150.336ZM37.1048 152.195C36.1688 152.195 35.3606 151.991 34.6803 151.584C34.0043 151.177 33.4821 150.607 33.1138 149.874C32.7498 149.142 32.5678 148.291 32.5678 147.32C32.5678 146.349 32.7498 145.498 33.1138 144.765C33.4821 144.033 34.0043 143.463 34.6803 143.056C35.3606 142.649 36.1688 142.445 37.1048 142.445C38.0408 142.445 38.8468 142.649 39.5228 143.056C40.2031 143.463 40.7253 144.033 41.0893 144.765C41.4576 145.498 41.6418 146.349 41.6418 147.32C41.6418 148.291 41.4576 149.142 41.0893 149.874C40.7253 150.607 40.2031 151.177 39.5228 151.584C38.8468 151.991 38.0408 152.195 37.1048 152.195ZM37.1048 150.531C37.6985 150.54 38.1925 150.412 38.5868 150.147C38.9811 149.883 39.2758 149.508 39.4708 149.023C39.6701 148.538 39.7698 147.97 39.7698 147.32C39.7698 146.67 39.6701 146.107 39.4708 145.63C39.2758 145.153 38.9811 144.783 38.5868 144.518C38.1925 144.254 37.6985 144.118 37.1048 144.109C36.5111 144.1 36.0171 144.228 35.6228 144.492C35.2285 144.757 34.9316 145.132 34.7323 145.617C34.5373 146.102 34.4398 146.67 34.4398 147.32C34.4398 147.97 34.5373 148.533 34.7323 149.01C34.9316 149.487 35.2285 149.857 35.6228 150.121C36.0171 150.386 36.5111 150.522 37.1048 150.531ZM42.6793 152V142.64H44.2653L47.3593 148.854L50.4533 142.64H52.0393V152H50.3883V146.41L47.6713 152H47.0473L44.3303 146.41V152H42.6793ZM53.7339 152V142.64H55.5019V152H53.7339ZM61.2076 152.195C60.2716 152.195 59.4634 151.991 58.7831 151.584C58.1071 151.177 57.5849 150.607 57.2166 149.874C56.8526 149.142 56.6706 148.291 56.6706 147.32C56.6706 146.349 56.8526 145.498 57.2166 144.765C57.5849 144.033 58.1071 143.463 58.7831 143.056C59.4634 142.649 60.2716 142.445 61.2076 142.445C62.2823 142.445 63.1836 142.711 63.9116 143.244C64.6439 143.777 65.1596 144.499 65.4586 145.409L63.6776 145.903C63.5043 145.335 63.2118 144.895 62.8001 144.583C62.3884 144.267 61.8576 144.109 61.2076 144.109C60.6139 144.109 60.1178 144.241 59.7191 144.505C59.3248 144.77 59.0279 145.142 58.8286 145.623C58.6293 146.104 58.5296 146.67 58.5296 147.32C58.5296 147.97 58.6293 148.535 58.8286 149.016C59.0279 149.497 59.3248 149.87 59.7191 150.134C60.1178 150.399 60.6139 150.531 61.2076 150.531C61.8576 150.531 62.3884 150.373 62.8001 150.056C63.2118 149.74 63.5043 149.3 63.6776 148.737L65.4586 149.231C65.1596 150.141 64.6439 150.862 63.9116 151.395C63.1836 151.928 62.2823 152.195 61.2076 152.195ZM66.7598 152V142.64H68.5278V152H66.7598ZM70.3465 152V142.64H72.1145V150.349H76.1445V152H70.3465ZM76.9897 152V142.64H83.0997V144.291H78.7577V146.293H82.3197V147.944H78.7577V150.349H83.0997V152H76.9897Z" fill="#4760FF"/>
<path d="M25.8978 138.186C24.9591 138.186 24.1624 137.979 23.5075 137.564C22.8527 137.149 22.3528 136.573 22.0079 135.835C21.6674 135.097 21.4971 134.244 21.4971 133.275C21.4971 132.306 21.6674 131.452 22.0079 130.714C22.3528 129.976 22.8527 129.4 23.5075 128.985C24.1624 128.571 24.9591 128.363 25.8978 128.363C26.9892 128.363 27.8864 128.641 28.5893 129.195C29.2965 129.749 29.7833 130.496 30.0496 131.435L28.8643 131.749C28.6722 131.046 28.3295 130.492 27.8362 130.086C27.3429 129.68 26.6967 129.477 25.8978 129.477C25.1949 129.477 24.6099 129.636 24.1427 129.955C23.6756 130.273 23.3242 130.719 23.0884 131.291C22.8527 131.858 22.7326 132.519 22.7282 133.275C22.7239 134.026 22.8396 134.687 23.0753 135.259C23.3111 135.827 23.6647 136.272 24.1362 136.595C24.6077 136.914 25.1949 137.073 25.8978 137.073C26.6967 137.073 27.3429 136.87 27.8362 136.464C28.3295 136.054 28.6722 135.499 28.8643 134.801L30.0496 135.115C29.7833 136.049 29.2965 136.796 28.5893 137.355C27.8864 137.909 26.9892 138.186 25.8978 138.186ZM35.1007 138.186C34.162 138.186 33.3653 137.979 32.7104 137.564C32.0556 137.149 31.5557 136.573 31.2108 135.835C30.8703 135.097 30.7 134.244 30.7 133.275C30.7 132.306 30.8703 131.452 31.2108 130.714C31.5557 129.976 32.0556 129.4 32.7104 128.985C33.3653 128.571 34.162 128.363 35.1007 128.363C36.0437 128.363 36.8426 128.571 37.4975 128.985C38.1524 129.4 38.65 129.976 38.9906 130.714C39.3311 131.452 39.5014 132.306 39.5014 133.275C39.5014 134.244 39.3311 135.097 38.9906 135.835C38.65 136.573 38.1524 137.149 37.4975 137.564C36.8426 137.979 36.0437 138.186 35.1007 138.186ZM35.1007 137.073C35.8036 137.077 36.3886 136.92 36.8557 136.601C37.3272 136.278 37.6787 135.831 37.9101 135.259C38.1458 134.687 38.2637 134.026 38.2637 133.275C38.2637 132.519 38.1458 131.858 37.9101 131.291C37.6787 130.723 37.3272 130.28 36.8557 129.961C36.3886 129.642 35.8036 129.481 35.1007 129.477C34.3978 129.472 33.8128 129.629 33.3456 129.948C32.8829 130.267 32.5336 130.712 32.2979 131.284C32.0621 131.856 31.942 132.519 31.9377 133.275C31.9333 134.026 32.049 134.685 32.2848 135.252C32.5205 135.82 32.872 136.265 33.3391 136.588C33.8106 136.907 34.3978 137.069 35.1007 137.073ZM40.6857 137.99V128.56H41.8513V136.883H46.2258V137.99H40.6857ZM47.2026 137.99V128.56H48.3682V136.883H52.7427V137.99H47.2026ZM53.5885 137.99V128.56H59.5478V129.666H54.7542V132.62H58.762V133.727H54.7542V136.883H59.5478V137.99H53.5885ZM63.2896 137.99V129.666H60.0743V128.56H67.6707V129.666H64.4553V137.99H63.2896ZM68.4514 137.99V128.56H74.4107V129.666H69.6171V132.62H73.6248V133.727H69.6171V136.883H74.4107V137.99H68.4514Z" fill="#4760FF"/>
</svg>
