<svg xmlns="http://www.w3.org/2000/svg" xmlns:xlink="http://www.w3.org/1999/xlink" width="803" zoomAndPan="magnify" viewBox="0 0 602.25 809.999971" height="1080" preserveAspectRatio="xMidYMid meet" version="1.0"><defs><clipPath id="c4fbef8ab6"><path d="M 0 399 L 396 399 L 396 809.496094 L 0 809.496094 Z M 0 399 " clip-rule="nonzero"/></clipPath><clipPath id="f7e8194a92"><path d="M 343 62 L 573 62 L 573 246 L 343 246 Z M 343 62 " clip-rule="nonzero"/></clipPath><clipPath id="3eef1a8760"><path d="M 411.324219 -12.671875 L 667.28125 162.421875 L 554.359375 327.492188 L 298.402344 152.398438 Z M 411.324219 -12.671875 " clip-rule="nonzero"/></clipPath><clipPath id="4749e753c1"><path d="M 411.324219 -12.671875 L 667.28125 162.421875 L 554.359375 327.492188 L 298.402344 152.398438 Z M 411.324219 -12.671875 " clip-rule="nonzero"/></clipPath><clipPath id="91cd9aab02"><path d="M 411.324219 -12.671875 L 667.28125 162.421875 L 554.359375 327.492188 L 298.402344 152.398438 Z M 411.324219 -12.671875 " clip-rule="nonzero"/></clipPath><clipPath id="781bb68106"><path d="M 351 66 L 569 66 L 569 241 L 351 241 Z M 351 66 " clip-rule="nonzero"/></clipPath><clipPath id="c01231b2dc"><path d="M 411.324219 -12.671875 L 667.28125 162.421875 L 554.359375 327.492188 L 298.402344 152.398438 Z M 411.324219 -12.671875 " clip-rule="nonzero"/></clipPath><clipPath id="118f02113a"><path d="M 411.324219 -12.671875 L 667.28125 162.421875 L 554.359375 327.492188 L 298.402344 152.398438 Z M 411.324219 -12.671875 " clip-rule="nonzero"/></clipPath><clipPath id="4735271585"><path d="M 411.324219 -12.671875 L 667.28125 162.421875 L 554.359375 327.492188 L 298.402344 152.398438 Z M 411.324219 -12.671875 " clip-rule="nonzero"/></clipPath><clipPath id="1379d12d30"><path d="M 519 143 L 531 143 L 531 205 L 519 205 Z M 519 143 " clip-rule="nonzero"/></clipPath><clipPath id="f977fc8d2f"><path d="M 411.324219 -12.671875 L 667.28125 162.421875 L 554.359375 327.492188 L 298.402344 152.398438 Z M 411.324219 -12.671875 " clip-rule="nonzero"/></clipPath><clipPath id="6093d28ec0"><path d="M 411.324219 -12.671875 L 667.28125 162.421875 L 554.359375 327.492188 L 298.402344 152.398438 Z M 411.324219 -12.671875 " clip-rule="nonzero"/></clipPath><clipPath id="8d309856b5"><path d="M 411.324219 -12.671875 L 667.28125 162.421875 L 554.359375 327.492188 L 298.402344 152.398438 Z M 411.324219 -12.671875 " clip-rule="nonzero"/></clipPath><clipPath id="cce2b7fa23"><path d="M 524 143 L 560 143 L 560 232 L 524 232 Z M 524 143 " clip-rule="nonzero"/></clipPath><clipPath id="f5b810502d"><path d="M 411.324219 -12.671875 L 667.28125 162.421875 L 554.359375 327.492188 L 298.402344 152.398438 Z M 411.324219 -12.671875 " clip-rule="nonzero"/></clipPath><clipPath id="133644d6c4"><path d="M 411.324219 -12.671875 L 667.28125 162.421875 L 554.359375 327.492188 L 298.402344 152.398438 Z M 411.324219 -12.671875 " clip-rule="nonzero"/></clipPath><clipPath id="3ccbbb2c7c"><path d="M 411.324219 -12.671875 L 667.28125 162.421875 L 554.359375 327.492188 L 298.402344 152.398438 Z M 411.324219 -12.671875 " clip-rule="nonzero"/></clipPath><clipPath id="14af819d4c"><path d="M 514 140 L 523 140 L 523 194 L 514 194 Z M 514 140 " clip-rule="nonzero"/></clipPath><clipPath id="2f2da83d0e"><path d="M 411.324219 -12.671875 L 667.28125 162.421875 L 554.359375 327.492188 L 298.402344 152.398438 Z M 411.324219 -12.671875 " clip-rule="nonzero"/></clipPath><clipPath id="27c0bc0c78"><path d="M 411.324219 -12.671875 L 667.28125 162.421875 L 554.359375 327.492188 L 298.402344 152.398438 Z M 411.324219 -12.671875 " clip-rule="nonzero"/></clipPath><clipPath id="4564ce1ee9"><path d="M 411.324219 -12.671875 L 667.28125 162.421875 L 554.359375 327.492188 L 298.402344 152.398438 Z M 411.324219 -12.671875 " clip-rule="nonzero"/></clipPath><clipPath id="8fb72388da"><path d="M 315 100 L 510 100 L 510 276 L 315 276 Z M 315 100 " clip-rule="nonzero"/></clipPath><clipPath id="f6aab07419"><path d="M 411.324219 -12.671875 L 667.28125 162.421875 L 554.359375 327.492188 L 298.402344 152.398438 Z M 411.324219 -12.671875 " clip-rule="nonzero"/></clipPath><clipPath id="c1f7e5f4d9"><path d="M 411.324219 -12.671875 L 667.28125 162.421875 L 554.359375 327.492188 L 298.402344 152.398438 Z M 411.324219 -12.671875 " clip-rule="nonzero"/></clipPath><clipPath id="b177700122"><path d="M 411.324219 -12.671875 L 667.28125 162.421875 L 554.359375 327.492188 L 298.402344 152.398438 Z M 411.324219 -12.671875 " clip-rule="nonzero"/></clipPath><clipPath id="7926ad9e3f"><path d="M 318 104 L 507 104 L 507 272 L 318 272 Z M 318 104 " clip-rule="nonzero"/></clipPath><clipPath id="2b3129c3de"><path d="M 411.324219 -12.671875 L 667.28125 162.421875 L 554.359375 327.492188 L 298.402344 152.398438 Z M 411.324219 -12.671875 " clip-rule="nonzero"/></clipPath><clipPath id="6b0e9da61c"><path d="M 411.324219 -12.671875 L 667.28125 162.421875 L 554.359375 327.492188 L 298.402344 152.398438 Z M 411.324219 -12.671875 " clip-rule="nonzero"/></clipPath><clipPath id="3fd0f5ec7c"><path d="M 411.324219 -12.671875 L 667.28125 162.421875 L 554.359375 327.492188 L 298.402344 152.398438 Z M 411.324219 -12.671875 " clip-rule="nonzero"/></clipPath><clipPath id="dd478df91e"><path d="M 318 104 L 489 104 L 489 272 L 318 272 Z M 318 104 " clip-rule="nonzero"/></clipPath><clipPath id="1c17e0b628"><path d="M 411.324219 -12.671875 L 667.28125 162.421875 L 554.359375 327.492188 L 298.402344 152.398438 Z M 411.324219 -12.671875 " clip-rule="nonzero"/></clipPath><clipPath id="ec241a8310"><path d="M 411.324219 -12.671875 L 667.28125 162.421875 L 554.359375 327.492188 L 298.402344 152.398438 Z M 411.324219 -12.671875 " clip-rule="nonzero"/></clipPath><clipPath id="65e9bc76fc"><path d="M 411.324219 -12.671875 L 667.28125 162.421875 L 554.359375 327.492188 L 298.402344 152.398438 Z M 411.324219 -12.671875 " clip-rule="nonzero"/></clipPath><clipPath id="bfbb33e9ee"><path d="M 533 218 L 600 218 L 600 286 L 533 286 Z M 533 218 " clip-rule="nonzero"/></clipPath><clipPath id="6ac6a0a579"><path d="M 411.324219 -12.671875 L 667.28125 162.421875 L 554.359375 327.492188 L 298.402344 152.398438 Z M 411.324219 -12.671875 " clip-rule="nonzero"/></clipPath><clipPath id="d95eaa7df1"><path d="M 411.324219 -12.671875 L 667.28125 162.421875 L 554.359375 327.492188 L 298.402344 152.398438 Z M 411.324219 -12.671875 " clip-rule="nonzero"/></clipPath><clipPath id="2b7a9d3bc5"><path d="M 411.324219 -12.671875 L 667.28125 162.421875 L 554.359375 327.492188 L 298.402344 152.398438 Z M 411.324219 -12.671875 " clip-rule="nonzero"/></clipPath><clipPath id="9841aac13a"><path d="M 538 223 L 599 223 L 599 283 L 538 283 Z M 538 223 " clip-rule="nonzero"/></clipPath><clipPath id="15b2f3aa45"><path d="M 411.324219 -12.671875 L 667.28125 162.421875 L 554.359375 327.492188 L 298.402344 152.398438 Z M 411.324219 -12.671875 " clip-rule="nonzero"/></clipPath><clipPath id="6936ea776f"><path d="M 411.324219 -12.671875 L 667.28125 162.421875 L 554.359375 327.492188 L 298.402344 152.398438 Z M 411.324219 -12.671875 " clip-rule="nonzero"/></clipPath><clipPath id="1679f9dedd"><path d="M 411.324219 -12.671875 L 667.28125 162.421875 L 554.359375 327.492188 L 298.402344 152.398438 Z M 411.324219 -12.671875 " clip-rule="nonzero"/></clipPath><clipPath id="1eb0bd760b"><path d="M 538 231 L 587 231 L 587 283 L 538 283 Z M 538 231 " clip-rule="nonzero"/></clipPath><clipPath id="7ad6749d71"><path d="M 411.324219 -12.671875 L 667.28125 162.421875 L 554.359375 327.492188 L 298.402344 152.398438 Z M 411.324219 -12.671875 " clip-rule="nonzero"/></clipPath><clipPath id="5795fa4a6a"><path d="M 411.324219 -12.671875 L 667.28125 162.421875 L 554.359375 327.492188 L 298.402344 152.398438 Z M 411.324219 -12.671875 " clip-rule="nonzero"/></clipPath><clipPath id="3367d6b62b"><path d="M 411.324219 -12.671875 L 667.28125 162.421875 L 554.359375 327.492188 L 298.402344 152.398438 Z M 411.324219 -12.671875 " clip-rule="nonzero"/></clipPath></defs><path fill="#b21028" d="M 278.929688 99.957031 C 285.277344 94.035156 295.007812 94.035156 301.351562 99.957031 L 321.238281 118.148438 C 325.890625 122.378906 332.238281 123.648438 338.160156 121.53125 L 363.542969 112.226562 C 371.582031 109.265625 380.890625 113.070312 384.273438 120.6875 L 395.273438 144.796875 C 397.8125 150.296875 403.3125 154.105469 409.65625 154.105469 L 436.734375 154.949219 C 445.195312 155.375 452.386719 162.140625 452.808594 170.601562 L 453.65625 197.25 C 454.078125 203.597656 457.464844 209.097656 463.386719 211.632812 L 487.925781 222.632812 C 495.960938 226.015625 499.347656 234.898438 496.386719 242.9375 L 487.078125 267.894531 C 484.964844 273.816406 486.230469 280.164062 490.464844 284.816406 L 509.078125 304.273438 C 515 310.621094 515 320.347656 509.078125 326.269531 L 490.464844 345.730469 C 486.230469 350.382812 484.964844 356.726562 487.078125 362.648438 L 496.386719 387.609375 C 499.347656 395.644531 495.539062 404.527344 487.925781 407.914062 L 463.386719 418.910156 C 457.886719 421.449219 454.078125 426.949219 453.65625 433.292969 L 452.808594 459.941406 C 452.386719 468.402344 445.617188 475.171875 436.734375 475.59375 L 409.65625 476.441406 C 403.3125 476.863281 397.8125 480.246094 395.273438 485.746094 L 384.273438 509.859375 C 380.890625 517.472656 371.582031 521.28125 363.542969 518.320312 L 338.160156 509.011719 C 332.238281 506.898438 325.890625 508.167969 321.238281 512.398438 L 301.351562 530.585938 C 295.007812 536.507812 285.277344 536.507812 278.929688 530.585938 L 259.046875 512.398438 C 254.394531 508.167969 248.046875 506.898438 242.125 509.011719 L 216.738281 518.320312 C 208.703125 521.28125 199.394531 517.472656 196.011719 509.859375 L 185.011719 485.746094 C 182.472656 480.246094 176.972656 476.441406 170.625 476.441406 L 143.550781 475.59375 C 135.089844 475.171875 127.894531 468.402344 127.472656 459.941406 L 126.628906 433.292969 C 126.203125 426.949219 122.820312 421.449219 116.898438 418.910156 L 92.359375 407.914062 C 84.320312 404.527344 80.9375 395.644531 83.898438 387.609375 L 93.207031 362.648438 C 95.320312 356.726562 94.050781 350.382812 89.820312 345.730469 L 71.207031 326.269531 C 65.28125 319.925781 65.28125 310.195312 71.207031 304.273438 L 89.820312 284.816406 C 94.050781 280.164062 95.320312 273.816406 93.207031 267.894531 L 83.898438 242.9375 C 80.9375 234.898438 84.742188 226.015625 92.359375 222.632812 L 116.898438 211.632812 C 122.398438 209.097656 126.203125 203.597656 126.628906 197.25 L 127.472656 170.601562 C 127.894531 162.140625 134.664062 155.375 143.550781 154.949219 L 170.625 154.105469 C 176.972656 153.679688 182.472656 150.296875 185.011719 144.796875 L 196.011719 120.6875 C 199.394531 113.070312 208.703125 109.265625 216.738281 112.226562 L 242.125 121.53125 C 248.046875 123.648438 254.394531 122.378906 259.046875 118.148438 Z M 278.929688 99.957031 " fill-opacity="1" fill-rule="nonzero"/><path stroke-linecap="butt" transform="matrix(4.230647, 0, 0, 4.230142, -15.099377, 1.395967)" fill-opacity="1" fill="#b21028" fill-rule="nonzero" stroke-linejoin="miter" d="M 74.200428 27.500401 L 78.500339 31.499787 C 79.699735 32.599595 81.299852 32.899711 82.800251 32.300403 L 88.299558 30.300248 C 89.799957 29.799748 91.400074 30.399979 92.099952 31.799903 L 94.600309 37.100405 C 95.300187 38.500328 96.699944 39.500406 98.300061 39.500406 L 104.20009 39.699867 C 105.800208 39.799598 106.999603 41.00006 107.100245 42.600368 L 107.299683 48.400447 C 107.400325 49.999832 108.299641 51.399756 109.80004 51.999987 L 115.199628 54.399988 C 116.600308 55.000219 117.300186 56.700258 116.799745 58.100181 L 114.700111 63.600145 C 114.099951 65.099799 114.49975 66.700107 115.60035 67.899646 L 119.600182 72.200071 C 120.699858 73.299879 120.699858 75.099649 119.600182 76.20038 L 115.60035 80.499881 C 114.49975 81.599689 114.19967 83.299728 114.700111 84.800306 L 116.799745 90.30027 C 117.399905 91.799924 116.700027 93.400232 115.199628 94.000463 L 109.80004 96.400464 C 108.299641 97.100426 107.400325 98.500349 107.299683 100.000004 L 107.100245 105.800083 C 106.999603 107.400391 105.800208 108.59993 104.20009 108.69966 L 98.300061 108.900045 C 96.699944 108.999776 95.300187 109.900123 94.600309 111.300046 L 92.099952 116.599625 C 91.400074 118.000472 89.799957 118.700433 88.299558 118.100202 L 82.800251 116.100048 C 81.299852 115.600471 79.600016 115.899663 78.500339 117.000394 L 74.200428 120.99978 C 73.000109 122.099588 71.300273 122.099588 70.099954 120.99978 L 65.800042 117.000394 C 64.599723 115.899663 62.999606 115.600471 61.50013 116.100048 L 55.9999 118.100202 C 54.500425 118.599779 52.900307 118.000472 52.200429 116.599625 L 49.700072 111.300046 C 49.000194 109.900123 47.600438 108.900045 46.00032 108.900045 L 40.100291 108.69966 C 38.500174 108.59993 37.299855 107.400391 37.200136 105.800083 L 36.999775 100.000004 C 36.900056 98.399695 35.999817 96.999772 34.500342 96.399541 L 29.09983 93.99954 C 27.700074 93.400232 27.000195 91.700193 27.499713 90.30027 L 29.600271 84.800306 C 30.20043 83.299728 29.799708 81.700344 28.700032 80.499881 L 24.7002 76.20038 C 23.5996 75.099649 23.5996 73.299879 24.7002 72.200071 L 28.700032 67.899646 C 29.799708 66.799838 30.099788 65.099799 29.600271 63.600145 L 27.499713 58.100181 C 26.899553 56.599604 27.600355 55.000219 29.09983 54.399988 L 34.500342 51.999987 C 35.999817 51.300025 36.900056 49.900101 36.999775 48.400447 L 37.200136 42.600368 C 37.299855 41.00006 38.500174 39.799598 40.100291 39.699867 L 46.00032 39.500406 C 47.600438 39.399752 49.000194 38.500328 49.700072 37.100405 L 52.200429 31.799903 C 52.900307 30.399979 54.500425 29.700017 55.9999 30.300248 L 61.50013 32.300403 C 62.999606 32.899711 64.700365 32.499865 65.800042 31.499787 L 70.099954 27.500401 C 71.19963 26.500324 73.000109 26.500324 74.200428 27.500401 Z M 74.200428 27.500401 " stroke="#ffffff" stroke-width="1.064" stroke-opacity="1" stroke-miterlimit="4"/><path fill="#ffffff" d="M 281.046875 266.625 C 276.816406 266.625 273.007812 265.78125 270.046875 264.085938 C 267.085938 262.394531 264.546875 259.859375 262.855469 256.472656 C 261.160156 253.089844 260.316406 249.707031 260.316406 245.476562 L 260.316406 228.132812 C 260.316406 223.902344 261.160156 220.09375 262.855469 217.132812 C 264.546875 213.75 267.085938 211.632812 270.046875 209.519531 C 273.007812 207.828125 276.816406 206.980469 281.046875 206.980469 C 285.277344 206.980469 289.085938 207.828125 292.046875 209.519531 C 295.007812 211.210938 297.546875 213.75 299.238281 217.132812 C 300.929688 220.515625 301.777344 223.902344 301.777344 228.132812 L 301.777344 245.476562 C 301.777344 249.707031 300.929688 253.511719 299.238281 256.472656 C 297.546875 259.859375 295.007812 261.972656 292.046875 264.085938 C 289.085938 265.78125 285.277344 266.625 281.046875 266.625 Z M 281.046875 256.472656 C 282.738281 256.472656 284.429688 256.050781 286.121094 255.203125 C 287.816406 254.359375 288.660156 253.089844 289.929688 251.398438 C 290.777344 249.707031 291.199219 248.011719 291.199219 246.320312 L 291.199219 227.285156 C 291.199219 225.171875 290.777344 223.476562 289.929688 222.210938 C 289.085938 220.515625 287.816406 219.25 286.121094 218.402344 C 284.429688 217.554688 282.738281 217.132812 281.046875 217.132812 C 279.355469 217.132812 277.660156 217.554688 275.96875 218.402344 C 274.277344 219.25 273.429688 220.515625 272.160156 222.210938 C 271.316406 223.902344 270.890625 225.59375 270.890625 227.285156 L 270.890625 246.320312 C 270.890625 248.4375 271.316406 250.128906 272.160156 251.398438 C 273.007812 253.089844 274.277344 254.359375 275.96875 255.203125 C 277.660156 256.050781 279.355469 256.472656 281.046875 256.472656 Z M 319.96875 265.355469 L 312.777344 258.164062 L 362.273438 207.828125 L 369.464844 215.019531 Z M 357.621094 266.625 C 355.082031 266.625 352.542969 265.78125 350.429688 264.511719 C 348.3125 263.242188 346.621094 261.550781 345.351562 259.433594 C 344.082031 257.320312 343.238281 254.78125 343.238281 252.242188 C 343.238281 249.707031 344.082031 247.167969 345.351562 245.050781 C 346.621094 242.9375 348.3125 241.246094 350.429688 239.976562 C 352.542969 238.707031 355.082031 237.859375 357.621094 237.859375 C 360.160156 237.859375 362.699219 238.707031 364.8125 239.976562 C 366.929688 241.246094 368.621094 242.9375 369.890625 245.050781 C 371.160156 247.167969 372.003906 249.707031 372.003906 252.242188 C 372.003906 254.78125 371.160156 257.320312 369.890625 259.433594 C 368.621094 261.550781 366.929688 263.242188 364.8125 264.511719 C 362.699219 265.78125 360.582031 266.625 357.621094 266.625 Z M 357.621094 257.320312 C 358.464844 257.320312 359.3125 256.898438 360.160156 256.472656 C 361.003906 256.050781 361.429688 255.203125 361.851562 254.78125 C 362.273438 253.933594 362.699219 253.089844 362.699219 252.242188 C 362.699219 251.398438 362.273438 250.550781 361.851562 249.707031 C 361.429688 248.859375 360.582031 248.4375 360.160156 247.589844 C 359.3125 247.167969 358.464844 246.746094 357.621094 246.746094 C 356.773438 246.746094 355.929688 247.167969 355.082031 247.589844 C 354.234375 248.011719 353.8125 248.859375 353.390625 249.707031 C 352.96875 250.550781 352.542969 251.398438 352.542969 252.242188 C 352.542969 253.089844 352.96875 253.933594 353.390625 254.78125 C 353.8125 255.628906 354.660156 256.050781 355.082031 256.472656 C 355.929688 257.320312 356.773438 257.320312 357.621094 257.320312 Z M 325.042969 235.746094 C 322.507812 235.746094 319.96875 234.898438 317.851562 233.628906 C 315.738281 232.363281 314.046875 230.667969 312.777344 228.554688 C 311.507812 226.441406 311.082031 223.902344 311.082031 221.363281 C 311.082031 218.824219 311.929688 216.289062 313.199219 214.171875 C 314.46875 212.058594 316.160156 210.363281 318.277344 209.097656 C 320.390625 207.828125 322.929688 206.980469 325.46875 206.980469 C 328.007812 206.980469 330.542969 207.828125 332.660156 209.097656 C 334.773438 210.363281 336.46875 212.058594 337.738281 214.171875 C 339.003906 216.289062 339.851562 218.824219 339.851562 221.363281 C 339.851562 223.902344 339.003906 226.441406 337.738281 228.554688 C 336.46875 230.667969 334.773438 232.363281 332.660156 233.628906 C 329.699219 234.898438 327.582031 235.746094 325.042969 235.746094 Z M 325.042969 226.441406 C 325.890625 226.441406 326.738281 226.015625 327.582031 225.59375 C 328.429688 225.171875 328.851562 224.324219 329.273438 223.902344 C 329.699219 223.054688 330.121094 222.210938 330.121094 221.363281 C 330.121094 220.515625 329.699219 219.671875 329.273438 218.824219 C 328.851562 217.980469 328.007812 217.554688 327.582031 216.710938 C 326.738281 216.289062 325.890625 215.863281 325.042969 215.863281 C 324.199219 215.863281 323.351562 216.289062 322.507812 216.710938 C 321.660156 217.132812 321.238281 217.980469 320.8125 218.824219 C 320.390625 219.671875 319.96875 220.515625 319.96875 221.363281 C 319.96875 222.210938 320.390625 223.054688 320.8125 223.902344 C 321.238281 224.746094 322.082031 225.171875 322.507812 225.59375 C 322.929688 226.015625 323.777344 226.441406 325.042969 226.441406 Z M 325.042969 226.441406 " fill-opacity="1" fill-rule="nonzero"/><path fill="#ffffff" d="M 244.664062 208.671875 L 244.664062 266.625 L 234.085938 266.625 L 234.085938 217.554688 L 223.507812 222.632812 L 223.507812 214.171875 L 234.085938 208.671875 Z M 244.664062 208.671875 " fill-opacity="1" fill-rule="nonzero"/><path fill="#ffffff" d="M 185.855469 245.898438 L 211.238281 245.898438 L 211.238281 252.242188 L 185.855469 252.242188 Z M 185.855469 245.898438 " fill-opacity="1" fill-rule="nonzero"/><path fill="#ffffff" d="M 177.816406 412.566406 C 183.316406 407.488281 192.203125 407.488281 197.703125 412.566406 L 215.046875 429.0625 C 219.277344 432.871094 224.777344 434.140625 230.277344 432.023438 L 252.699219 423.5625 C 259.894531 421.027344 267.929688 424.410156 270.890625 431.179688 L 280.621094 453.175781 C 282.738281 458.25 287.816406 461.636719 293.316406 461.636719 L 317.429688 462.480469 C 325.042969 462.90625 331.390625 468.828125 331.390625 476.441406 L 332.238281 500.550781 C 332.238281 506.050781 335.621094 511.128906 340.699219 513.242188 L 362.699219 522.972656 C 369.464844 526.355469 372.851562 534.394531 370.3125 541.160156 L 361.851562 563.582031 C 359.734375 568.65625 361.003906 574.582031 364.8125 578.808594 L 381.3125 596.152344 C 386.390625 601.652344 386.390625 610.535156 381.3125 616.035156 L 364.8125 633.378906 C 361.003906 637.609375 359.734375 643.109375 361.851562 648.609375 L 370.3125 671.027344 C 372.851562 678.21875 369.464844 686.257812 362.699219 689.21875 L 340.699219 698.945312 C 335.621094 701.0625 332.238281 706.136719 332.238281 711.636719 L 331.390625 735.75 C 330.96875 743.363281 325.042969 749.707031 317.429688 749.707031 L 293.316406 750.554688 C 287.816406 750.554688 282.738281 753.9375 280.621094 759.015625 L 270.890625 781.011719 C 267.507812 787.78125 259.46875 791.164062 252.699219 788.625 L 230.277344 780.164062 C 225.203125 778.050781 219.277344 779.320312 215.046875 783.125 L 197.703125 799.625 C 192.203125 804.699219 183.316406 804.699219 177.816406 799.625 L 160.472656 783.125 C 156.242188 779.320312 150.742188 778.050781 145.242188 780.164062 L 122.820312 788.625 C 115.628906 791.164062 107.589844 787.78125 104.628906 781.011719 L 94.898438 759.015625 C 92.78125 753.9375 87.707031 750.554688 82.207031 750.554688 L 58.089844 749.707031 C 50.476562 749.285156 44.128906 743.363281 44.128906 735.75 L 43.285156 711.636719 C 43.285156 706.136719 39.898438 701.0625 34.824219 698.945312 L 12.824219 689.21875 C 6.054688 685.832031 2.667969 677.796875 5.207031 671.027344 L 13.667969 648.609375 C 15.785156 643.53125 14.515625 637.609375 10.707031 633.378906 L -5.792969 616.035156 C -10.867188 610.535156 -10.867188 602.074219 -5.792969 596.152344 L 10.707031 578.808594 C 14.515625 574.582031 15.785156 569.082031 13.667969 563.582031 L 5.207031 541.160156 C 2.667969 533.972656 6.054688 525.933594 12.824219 522.972656 L 34.820312 513.242188 C 39.898438 511.128906 43.285156 506.050781 43.285156 500.550781 L 44.128906 476.441406 C 44.554688 468.828125 50.476562 462.480469 58.089844 462.480469 L 82.207031 461.636719 C 87.707031 461.636719 92.78125 458.25 94.898438 453.175781 L 104.628906 431.179688 C 108.011719 424.410156 116.050781 421.027344 122.820312 423.5625 L 145.242188 432.023438 C 150.320312 434.140625 156.242188 432.871094 160.472656 429.0625 Z M 177.816406 412.566406 " fill-opacity="1" fill-rule="nonzero"/><path fill="#ffffff" d="M 180.355469 428.640625 C 184.585938 424.410156 191.355469 424.410156 195.585938 428.640625 L 211.664062 443.867188 C 215.894531 448.097656 222.238281 449.367188 227.738281 447.253906 L 248.46875 439.636719 C 253.96875 437.523438 260.316406 440.0625 262.855469 445.5625 L 272.160156 465.867188 C 274.699219 471.363281 279.777344 474.75 286.121094 475.171875 L 308.121094 476.019531 C 314.042969 476.019531 318.699219 481.09375 319.121094 487.015625 L 319.96875 509.011719 C 319.96875 514.933594 323.773438 520.433594 329.273438 522.972656 L 349.582031 532.277344 C 355.082031 534.816406 357.621094 540.738281 355.503906 546.660156 L 347.890625 567.390625 C 345.773438 572.886719 347.042969 579.234375 351.273438 583.464844 L 366.503906 599.539062 C 370.734375 603.769531 370.734375 610.535156 366.503906 614.765625 L 351.273438 630.839844 C 347.042969 635.070312 345.773438 641.417969 347.890625 646.914062 L 355.503906 667.644531 C 357.621094 673.140625 355.082031 679.488281 349.582031 682.027344 L 329.273438 691.332031 C 323.773438 693.871094 320.390625 698.945312 319.96875 705.292969 L 319.121094 727.289062 C 319.121094 733.210938 314.042969 737.863281 308.121094 738.285156 L 286.121094 739.132812 C 280.199219 739.132812 274.699219 742.941406 272.160156 748.4375 L 262.855469 768.742188 C 260.316406 774.242188 254.394531 776.78125 248.46875 774.664062 L 227.738281 767.050781 C 222.238281 764.9375 215.894531 766.207031 211.664062 770.4375 L 195.585938 785.664062 C 191.355469 789.894531 184.585938 789.894531 180.355469 785.664062 L 164.28125 770.4375 C 160.050781 766.207031 153.703125 764.9375 148.203125 767.050781 L 127.472656 774.664062 C 121.972656 776.78125 115.628906 774.242188 113.089844 768.742188 L 103.78125 748.4375 C 101.242188 742.941406 96.167969 739.554688 89.820312 739.132812 L 67.820312 738.285156 C 61.898438 738.285156 57.246094 733.210938 56.820312 727.289062 L 55.976562 705.292969 C 55.976562 699.371094 52.167969 693.871094 46.667969 691.332031 L 26.359375 682.027344 C 20.859375 679.488281 18.324219 673.566406 20.4375 667.644531 L 28.054688 646.914062 C 30.167969 641.417969 28.898438 635.070312 24.667969 630.839844 L 10.285156 613.921875 C 6.054688 609.691406 6.054688 602.921875 10.285156 598.691406 L 25.515625 582.617188 C 29.746094 578.386719 31.015625 572.042969 28.898438 566.542969 L 21.285156 545.816406 C 19.167969 540.316406 21.707031 533.972656 27.207031 531.433594 L 47.515625 522.125 C 53.015625 519.589844 56.398438 514.511719 56.820312 508.167969 L 57.667969 486.171875 C 57.667969 480.246094 62.746094 475.59375 68.667969 475.171875 L 90.667969 474.324219 C 96.589844 474.324219 102.089844 470.519531 104.628906 465.019531 L 113.933594 444.714844 C 116.472656 439.214844 122.398438 436.675781 128.320312 438.792969 L 149.050781 446.40625 C 154.550781 448.523438 160.894531 447.253906 165.125 443.023438 Z M 180.355469 428.640625 " fill-opacity="1" fill-rule="nonzero"/><g clip-path="url(#c4fbef8ab6)"><path stroke-linecap="butt" transform="matrix(4.230647, 0, 0, 4.230142, -15.099377, 1.395967)" fill="none" stroke-linejoin="miter" d="M 65.700323 104.899736 C 65.100164 103.599543 63.700407 103.000236 62.299728 103.499813 L 57.399656 105.299582 C 56.099619 105.800083 54.600143 105.499967 53.600185 104.49989 L 49.799791 100.90035 C 48.799833 99.900273 47.199716 99.900273 46.199758 100.90035 L 42.400287 104.49989 C 41.400329 105.499967 39.89993 105.800083 38.599893 105.299582 L 33.699822 103.499813 C 32.399784 103.000236 30.900309 103.599543 30.300149 104.899736 L 28.099872 109.699738 C 27.499713 110.999931 26.300317 111.799623 24.799919 111.900277 L 19.599768 112.099739 C 18.200011 112.099739 17.100334 113.300201 16.999692 114.700124 L 16.800255 119.899972 C 16.800255 121.299896 15.900016 122.600089 14.599978 123.20032 L 9.799626 125.399936 C 8.499588 126.000167 7.900352 127.40009 8.399869 128.800014 L 10.200347 133.699746 C 10.699865 134.999939 10.399785 136.499593 9.399827 137.499671 L 6.000155 141.199864 C 5.000197 142.199942 5.000197 143.80025 6.000155 144.800327 L 9.600188 148.600252 C 10.600146 149.600329 10.900226 151.099983 10.399785 152.400176 L 8.60023 157.299908 C 8.099789 158.600101 8.699949 160.099755 9.999987 160.699987 L 14.800339 162.899603 C 16.100377 163.499834 16.899974 164.700296 16.999692 166.19995 L 17.200053 171.399798 C 17.200053 172.799721 18.400372 173.899529 19.800129 174.000184 L 25.000279 174.199645 C 26.400036 174.199645 27.700074 175.099992 28.300233 176.400184 L 30.499587 181.200186 C 31.099746 182.500379 32.500426 183.099687 33.900182 182.60011 L 38.800253 180.80034 C 40.100291 180.29984 41.599766 180.599955 42.599724 181.600032 L 46.400119 185.199572 C 47.400077 186.199649 49.000194 186.199649 50.000152 185.199572 L 53.799623 181.600032 C 54.799581 180.599955 56.29998 180.29984 57.600017 180.80034 L 62.500088 182.60011 C 63.800126 183.099687 65.299601 182.500379 65.899761 181.200186 L 68.100038 176.400184 C 68.700197 175.099992 69.899593 174.300299 71.399991 174.199645 L 76.600142 174.000184 C 77.999899 174.000184 79.099575 172.799721 79.200218 171.399798 L 79.399655 166.19995 C 79.399655 164.800026 80.299894 163.499834 81.599932 162.899603 L 86.400284 160.699987 C 87.700322 160.099755 88.299558 158.699832 87.800041 157.299908 L 85.999562 152.400176 C 85.500045 151.099983 85.800125 149.600329 86.800083 148.600252 L 90.400116 144.800327 C 91.400074 143.80025 91.400074 142.199942 90.400116 141.199864 L 86.800083 137.39994 C 85.800125 136.399863 85.500045 134.900208 85.999562 133.600015 L 87.800041 128.700283 C 88.299558 127.40009 87.700322 125.900436 86.400284 125.300205 L 81.599932 123.099666 C 80.299894 122.500358 79.500297 121.299896 79.399655 119.800242 L 79.200218 114.600394 C 79.200218 113.199547 77.999899 112.099739 76.600142 112.000008 L 71.399991 111.799623 C 70.000235 111.799623 68.700197 110.9002 68.100038 109.600007 Z M 65.700323 104.899736 L 66.199841 104.700275 " stroke="#4760ff" stroke-width="1.064" stroke-opacity="1" stroke-miterlimit="4"/></g><path fill="#ffffff" d="M 276.816406 525.933594 L 99.128906 525.933594 L 99.128906 602.074219 L 276.816406 602.074219 Z M 276.816406 525.933594 " fill-opacity="1" fill-rule="nonzero"/><path fill="#4760ff" d="M 106.320312 593.617188 L 106.320312 539.46875 L 139.320312 539.46875 L 139.320312 549.621094 L 116.472656 549.621094 L 116.472656 561.464844 L 134.664062 561.464844 L 134.664062 571.617188 L 116.472656 571.617188 L 116.472656 593.617188 Z M 144.394531 593.617188 L 144.394531 539.46875 L 167.242188 539.46875 C 167.664062 539.46875 168.511719 539.46875 169.355469 539.46875 C 170.203125 539.46875 171.050781 539.46875 171.894531 539.894531 C 175.28125 540.316406 177.816406 541.585938 179.933594 543.277344 C 182.046875 544.96875 183.742188 547.085938 184.585938 549.621094 C 185.433594 552.160156 185.855469 554.699219 185.855469 557.660156 C 185.855469 562.3125 184.585938 566.121094 182.472656 569.082031 C 180.355469 572.464844 176.550781 574.15625 171.894531 575.003906 L 167.242188 575.425781 L 154.550781 575.425781 L 154.550781 593.617188 Z M 174.855469 593.617188 L 164.28125 571.617188 L 174.855469 569.503906 L 186.703125 593.617188 Z M 154.550781 565.695312 L 166.820312 565.695312 C 167.242188 565.695312 168.085938 565.695312 168.511719 565.695312 C 168.933594 565.695312 169.78125 565.695312 170.203125 565.273438 C 171.472656 564.851562 172.742188 564.429688 173.585938 563.582031 C 174.433594 562.734375 174.855469 561.890625 175.28125 560.621094 C 175.703125 559.351562 175.703125 558.503906 175.703125 557.660156 C 175.703125 556.8125 175.703125 555.542969 175.28125 554.699219 C 174.855469 553.429688 174.433594 552.582031 173.585938 551.738281 C 172.742188 550.890625 171.894531 550.046875 170.203125 549.621094 C 169.78125 549.621094 168.933594 549.199219 168.511719 549.199219 C 168.085938 549.199219 167.242188 549.199219 166.820312 549.199219 L 154.550781 549.199219 Z M 193.046875 593.617188 L 193.046875 539.46875 L 228.164062 539.46875 L 228.164062 549.199219 L 203.203125 549.199219 L 203.203125 560.621094 L 223.933594 560.621094 L 223.933594 569.925781 L 203.203125 569.925781 L 203.203125 583.886719 L 228.164062 583.886719 L 228.164062 593.617188 Z M 235.777344 593.617188 L 235.777344 539.46875 L 270.890625 539.46875 L 270.890625 549.199219 L 245.929688 549.199219 L 245.929688 560.621094 L 266.660156 560.621094 L 266.660156 569.925781 L 245.929688 569.925781 L 245.929688 583.886719 L 270.890625 583.886719 L 270.890625 593.617188 Z M 235.777344 593.617188 " fill-opacity="1" fill-rule="nonzero"/><path fill="#4760ff" d="M 83.898438 657.066406 L 83.898438 617.304688 L 99.550781 617.304688 C 99.972656 617.304688 100.398438 617.304688 100.820312 617.304688 C 101.242188 617.304688 101.667969 617.304688 102.511719 617.304688 C 104.628906 617.726562 106.320312 618.574219 108.011719 619.417969 C 109.28125 620.6875 110.550781 621.957031 111.398438 623.648438 C 112.242188 625.34375 112.667969 627.457031 112.667969 629.570312 C 112.667969 631.6875 112.242188 633.800781 111.398438 635.496094 C 110.550781 637.1875 109.703125 638.878906 108.011719 639.722656 C 106.742188 640.992188 104.628906 641.417969 102.511719 641.839844 C 102.089844 641.839844 101.667969 641.839844 100.820312 641.839844 C 100.398438 641.839844 99.972656 641.839844 99.550781 641.839844 L 88.550781 641.839844 L 88.550781 656.644531 L 83.898438 656.644531 Z M 88.972656 637.609375 L 99.550781 637.609375 C 99.972656 637.609375 100.398438 637.609375 100.820312 637.609375 C 101.242188 637.609375 101.667969 637.609375 102.089844 637.609375 C 103.359375 637.1875 104.203125 636.761719 105.050781 635.917969 C 105.898438 635.070312 106.320312 634.226562 106.742188 632.957031 C 107.167969 631.6875 107.167969 630.839844 107.167969 629.570312 C 107.167969 628.304688 107.167969 627.457031 106.742188 626.1875 C 106.320312 624.917969 105.898438 624.074219 105.050781 623.226562 C 104.203125 622.378906 103.359375 621.957031 102.089844 621.535156 C 101.667969 621.535156 101.242188 621.535156 100.820312 621.535156 C 100.398438 621.535156 99.972656 621.535156 99.550781 621.535156 L 88.972656 621.535156 Z M 117.320312 657.066406 L 117.320312 617.304688 L 122.398438 617.304688 L 122.398438 657.066406 Z M 146.089844 657.914062 C 142.28125 657.914062 138.894531 657.066406 135.933594 655.375 C 132.972656 653.683594 130.859375 651.144531 129.589844 648.183594 C 128.320312 645.222656 127.472656 641.417969 127.472656 637.1875 C 127.472656 632.957031 128.320312 629.570312 129.589844 626.1875 C 130.859375 623.226562 132.972656 620.6875 135.933594 618.996094 C 138.894531 617.304688 142.28125 616.457031 146.089844 616.457031 C 150.742188 616.457031 154.550781 617.726562 157.511719 619.84375 C 160.472656 622.378906 162.585938 625.34375 163.855469 629.148438 L 158.78125 630.417969 C 157.933594 627.457031 156.664062 624.917969 154.550781 623.226562 C 152.433594 621.535156 149.894531 620.6875 146.511719 620.6875 C 143.550781 620.6875 141.011719 621.535156 138.894531 622.804688 C 136.78125 624.074219 135.511719 626.1875 134.242188 628.304688 C 133.394531 630.839844 132.550781 633.378906 132.550781 636.761719 C 132.550781 640.148438 132.972656 642.683594 133.820312 645.222656 C 134.664062 647.761719 136.359375 649.453125 138.472656 650.722656 C 140.589844 651.992188 143.125 652.835938 146.089844 652.835938 C 149.472656 652.835938 152.011719 651.992188 154.125 650.300781 C 156.242188 648.609375 157.511719 646.070312 158.355469 643.109375 L 163.433594 644.378906 C 162.164062 648.183594 160.050781 651.570312 157.089844 653.683594 C 154.550781 656.644531 150.742188 657.914062 146.089844 657.914062 Z M 168.511719 657.066406 L 168.511719 617.304688 L 173.585938 617.304688 L 173.585938 635.917969 L 190.933594 617.304688 L 197.277344 617.304688 L 179.085938 636.761719 L 198.546875 657.492188 L 192.203125 657.492188 L 173.585938 638.03125 L 173.585938 657.492188 L 168.511719 657.492188 Z M 200.664062 639.300781 L 200.664062 635.070312 L 217.164062 635.070312 L 217.164062 639.300781 Z M 239.164062 657.914062 C 236.199219 657.914062 233.238281 657.066406 231.125 655.800781 C 228.585938 654.53125 226.894531 652.835938 225.625 650.300781 C 224.355469 648.183594 223.507812 645.222656 223.507812 642.261719 L 223.507812 616.882812 L 228.585938 616.882812 L 228.585938 641.839844 C 228.585938 643.53125 229.007812 645.222656 229.433594 646.914062 C 230.277344 648.183594 231.125 649.453125 231.96875 650.300781 C 232.816406 651.144531 234.085938 651.992188 235.355469 652.414062 C 236.625 652.835938 237.894531 653.261719 239.164062 653.261719 C 240.433594 653.261719 241.699219 652.835938 242.96875 652.414062 C 244.238281 651.992188 245.507812 651.144531 246.355469 650.300781 C 247.199219 649.453125 248.046875 648.183594 248.894531 646.914062 C 249.316406 645.648438 249.738281 643.953125 249.738281 641.839844 L 249.738281 616.882812 L 254.816406 616.882812 L 254.816406 642.261719 C 254.816406 645.222656 253.96875 648.183594 252.699219 650.300781 C 251.429688 652.414062 249.316406 654.53125 247.199219 655.800781 C 245.085938 657.066406 242.125 657.914062 239.164062 657.914062 Z M 261.585938 657.066406 L 261.585938 617.304688 L 277.238281 617.304688 C 277.660156 617.304688 278.085938 617.304688 278.507812 617.304688 C 278.929688 617.304688 279.355469 617.304688 280.199219 617.304688 C 282.316406 617.726562 284.007812 618.574219 285.699219 619.417969 C 286.96875 620.6875 288.238281 621.957031 289.085938 623.648438 C 289.929688 625.34375 290.351562 627.457031 290.351562 629.570312 C 290.351562 631.6875 289.929688 633.800781 289.085938 635.496094 C 288.238281 637.1875 287.390625 638.878906 285.699219 639.722656 C 284.429688 640.992188 282.316406 641.417969 280.199219 641.839844 C 279.777344 641.839844 279.355469 641.839844 278.507812 641.839844 C 278.085938 641.839844 277.660156 641.839844 277.238281 641.839844 L 266.238281 641.839844 L 266.238281 656.644531 L 261.585938 656.644531 Z M 266.238281 637.609375 L 276.816406 637.609375 C 277.238281 637.609375 277.660156 637.609375 278.085938 637.609375 C 278.507812 637.609375 278.929688 637.609375 279.355469 637.609375 C 280.621094 637.1875 281.46875 636.761719 282.316406 635.917969 C 283.160156 635.070312 283.585938 634.226562 284.007812 632.957031 C 284.429688 631.6875 284.429688 630.839844 284.429688 629.570312 C 284.429688 628.304688 284.429688 627.457031 284.007812 626.1875 C 283.585938 624.917969 283.160156 624.074219 282.316406 623.226562 C 281.46875 622.378906 280.621094 621.957031 279.355469 621.535156 C 278.929688 621.535156 278.507812 621.535156 278.085938 621.535156 C 277.660156 621.535156 277.238281 621.535156 276.816406 621.535156 L 266.238281 621.535156 Z M 266.238281 637.609375 " fill-opacity="1" fill-rule="nonzero"/><path fill="#ffffff" d="M 204.046875 308.082031 C 204.046875 321.195312 196.011719 329.230469 184.585938 329.230469 C 172.742188 329.230469 165.972656 320.347656 165.972656 308.925781 C 165.972656 297.082031 173.585938 288.199219 185.433594 288.199219 C 197.277344 287.777344 204.046875 297.082031 204.046875 308.082031 Z M 175.28125 308.503906 C 175.28125 316.117188 179.085938 322.039062 185.011719 322.039062 C 190.933594 322.039062 194.742188 316.117188 194.742188 308.503906 C 194.742188 301.3125 191.355469 294.96875 185.011719 294.96875 C 178.664062 294.96875 175.28125 300.890625 175.28125 308.503906 Z M 175.28125 308.503906 " fill-opacity="1" fill-rule="nonzero"/><path fill="#ffffff" d="M 209.972656 328.386719 L 209.972656 288.621094 L 220.546875 288.621094 L 229.007812 303.429688 C 231.546875 307.660156 233.664062 312.734375 235.355469 316.964844 C 234.933594 311.886719 234.507812 306.390625 234.507812 300.46875 L 234.507812 288.621094 L 242.96875 288.621094 L 242.96875 328.386719 L 233.664062 328.386719 L 225.203125 313.15625 C 222.664062 308.925781 220.125 303.851562 218.433594 299.199219 C 218.855469 304.695312 218.855469 310.195312 218.855469 316.542969 L 218.855469 328.386719 Z M 209.972656 328.386719 " fill-opacity="1" fill-rule="nonzero"/><path fill="#ffffff" d="M 271.738281 328.386719 L 271.738281 311.886719 L 259.046875 288.199219 L 269.199219 288.199219 L 273.429688 297.929688 C 274.699219 300.890625 275.546875 303.003906 276.390625 305.542969 C 277.238281 303.003906 278.085938 300.890625 279.355469 297.929688 L 283.585938 288.199219 L 293.738281 288.199219 L 281.046875 311.886719 L 281.046875 328.386719 Z M 271.738281 328.386719 " fill-opacity="1" fill-rule="nonzero"/><path fill="#ffffff" d="M 334.773438 308.082031 C 334.773438 321.195312 326.738281 329.230469 315.3125 329.230469 C 303.46875 329.230469 296.699219 320.347656 296.699219 308.925781 C 296.699219 297.082031 304.3125 288.199219 316.160156 288.199219 C 328.429688 287.777344 334.773438 297.082031 334.773438 308.082031 Z M 306.007812 308.503906 C 306.007812 316.117188 309.8125 322.039062 315.738281 322.039062 C 321.660156 322.039062 325.46875 316.117188 325.46875 308.503906 C 325.46875 301.3125 322.082031 294.96875 315.738281 294.96875 C 309.8125 294.96875 306.007812 300.890625 306.007812 308.503906 Z M 306.007812 308.503906 " fill-opacity="1" fill-rule="nonzero"/><path fill="#ffffff" d="M 350.003906 288.621094 L 350.003906 311.464844 C 350.003906 318.234375 352.542969 322.039062 357.199219 322.039062 C 361.851562 322.039062 364.390625 318.65625 364.390625 311.464844 L 364.390625 288.621094 L 373.273438 288.621094 L 373.273438 311.042969 C 373.273438 323.308594 366.929688 329.230469 356.773438 329.230469 C 346.621094 329.230469 340.699219 323.734375 340.699219 311.042969 L 340.699219 288.621094 Z M 350.003906 288.621094 " fill-opacity="1" fill-rule="nonzero"/><path fill="#ffffff" d="M 381.3125 289.046875 C 384.273438 288.621094 388.503906 288.199219 393.15625 288.199219 C 399.082031 288.199219 403.3125 289.046875 406.273438 291.160156 C 408.8125 292.851562 410.082031 295.8125 410.082031 299.621094 C 410.082031 304.695312 406.273438 308.082031 402.886719 309.351562 C 405.851562 310.621094 407.121094 313.15625 408.386719 316.964844 C 409.65625 321.617188 410.925781 326.695312 411.773438 328.386719 L 402.464844 328.386719 C 402.042969 327.117188 400.773438 324.15625 399.925781 319.078125 C 398.65625 314.003906 396.964844 312.734375 393.582031 312.734375 L 391.042969 312.734375 L 391.042969 328.386719 L 382.160156 328.386719 L 382.160156 289.046875 Z M 390.195312 306.390625 L 393.582031 306.390625 C 398.234375 306.390625 400.773438 304.273438 400.773438 300.46875 C 400.773438 296.660156 398.234375 294.96875 394.003906 294.96875 C 391.890625 294.96875 390.621094 294.96875 389.773438 295.390625 L 389.773438 306.390625 Z M 390.195312 306.390625 " fill-opacity="1" fill-rule="nonzero"/><path fill="#ffffff" d="M 167.664062 390.144531 C 170.203125 391.414062 174.011719 392.683594 177.816406 392.683594 C 182.046875 392.683594 184.164062 390.992188 184.164062 388.453125 C 184.164062 385.914062 182.046875 384.648438 177.394531 382.953125 C 170.625 380.417969 166.394531 377.03125 166.394531 371.109375 C 166.394531 364.34375 172.316406 359.265625 181.625 359.265625 C 186.28125 359.265625 189.664062 360.113281 191.777344 361.382812 L 189.664062 368.570312 C 187.972656 367.726562 185.011719 366.878906 181.203125 366.878906 C 177.394531 366.878906 175.28125 368.570312 175.28125 370.6875 C 175.28125 373.226562 177.394531 374.496094 182.472656 376.1875 C 189.664062 378.722656 192.625 382.53125 192.625 388.03125 C 192.625 394.800781 187.546875 400.296875 176.550781 400.296875 C 171.894531 400.296875 167.664062 399.027344 165.125 397.761719 Z M 167.664062 390.144531 " fill-opacity="1" fill-rule="nonzero"/><path fill="#ffffff" d="M 207.007812 367.304688 L 196.433594 367.304688 L 196.433594 359.6875 L 227.316406 359.6875 L 227.316406 367.304688 L 216.316406 367.304688 L 216.316406 399.453125 L 207.433594 399.453125 L 207.433594 367.304688 Z M 207.007812 367.304688 " fill-opacity="1" fill-rule="nonzero"/><path fill="#ffffff" d="M 268.355469 379.148438 C 268.355469 392.261719 260.316406 400.296875 248.894531 400.296875 C 237.046875 400.296875 230.277344 391.414062 230.277344 379.992188 C 230.277344 368.148438 237.894531 359.265625 249.738281 359.265625 C 261.585938 358.84375 268.355469 368.148438 268.355469 379.148438 Z M 239.585938 379.570312 C 239.585938 387.183594 243.394531 393.105469 249.316406 393.105469 C 255.238281 393.105469 259.046875 387.183594 259.046875 379.570312 C 259.046875 372.378906 255.660156 366.035156 249.316406 366.035156 C 242.96875 366.035156 239.585938 371.957031 239.585938 379.570312 Z M 239.585938 379.570312 " fill-opacity="1" fill-rule="nonzero"/><path fill="#ffffff" d="M 274.277344 360.113281 C 277.238281 359.6875 281.46875 359.265625 286.121094 359.265625 C 292.046875 359.265625 296.277344 360.113281 299.238281 362.226562 C 301.777344 363.917969 303.046875 366.878906 303.046875 370.6875 C 303.046875 375.761719 299.238281 379.148438 295.851562 380.417969 C 298.816406 381.6875 300.082031 384.222656 301.351562 388.03125 C 302.621094 392.683594 303.890625 397.761719 304.738281 399.453125 L 295.429688 399.453125 C 295.007812 398.183594 293.738281 395.222656 292.890625 390.144531 C 291.621094 385.070312 289.929688 383.800781 286.546875 383.800781 L 284.007812 383.800781 L 284.007812 399.453125 L 275.125 399.453125 L 275.125 360.113281 Z M 283.160156 377.457031 L 286.546875 377.457031 C 291.199219 377.457031 293.738281 375.339844 293.738281 371.535156 C 293.738281 367.726562 291.199219 366.035156 286.96875 366.035156 C 284.851562 366.035156 283.585938 366.035156 282.738281 366.457031 L 282.738281 377.457031 Z M 283.160156 377.457031 " fill-opacity="1" fill-rule="nonzero"/><path fill="#ffffff" d="M 318.699219 389.300781 L 315.738281 399.453125 L 306.429688 399.453125 L 318.699219 359.6875 L 330.542969 359.6875 L 342.8125 399.453125 L 333.082031 399.453125 L 330.121094 389.300781 Z M 328.851562 382.53125 L 326.3125 374.070312 C 325.46875 371.535156 325.042969 368.570312 324.199219 366.457031 C 323.777344 368.996094 322.929688 371.957031 322.507812 374.070312 L 319.96875 382.53125 Z M 328.851562 382.53125 " fill-opacity="1" fill-rule="nonzero"/><path fill="#ffffff" d="M 381.734375 397.761719 C 378.773438 398.605469 373.695312 399.875 368.195312 399.875 C 361.003906 399.875 355.503906 398.183594 352.121094 394.375 C 348.3125 390.992188 346.621094 385.914062 346.621094 379.992188 C 346.621094 366.878906 356.351562 359.265625 369.464844 359.265625 C 374.542969 359.265625 378.773438 360.113281 380.464844 361.382812 L 378.351562 368.148438 C 376.234375 367.304688 373.273438 366.457031 369.042969 366.457031 C 361.429688 366.457031 355.929688 370.6875 355.929688 379.570312 C 355.929688 387.609375 361.003906 392.683594 368.621094 392.683594 C 370.734375 392.683594 372.429688 392.261719 372.851562 392.261719 L 372.851562 383.800781 L 366.503906 383.800781 L 366.503906 376.609375 L 381.3125 376.609375 L 381.3125 397.761719 Z M 381.734375 397.761719 " fill-opacity="1" fill-rule="nonzero"/><path fill="#ffffff" d="M 412.617188 382.53125 L 397.8125 382.53125 L 397.8125 391.839844 L 414.3125 391.839844 L 414.3125 399.027344 L 388.925781 399.027344 L 388.925781 359.265625 L 413.464844 359.265625 L 413.464844 366.457031 L 397.8125 366.457031 L 397.8125 374.917969 L 412.617188 374.917969 Z M 412.617188 382.53125 " fill-opacity="1" fill-rule="nonzero"/><g clip-path="url(#f7e8194a92)"><g clip-path="url(#3eef1a8760)"><g clip-path="url(#4749e753c1)"><g clip-path="url(#91cd9aab02)"><path fill="#000000" d="M 345.457031 103.988281 C 345.457031 103.988281 484.734375 34.289062 541.121094 76.382812 C 567.253906 95.886719 563.375 132.90625 572.28125 239.496094 C 574.230469 262.792969 533.9375 213.902344 525.757812 197.296875 C 525.757812 197.296875 515.875 244.503906 506.046875 245.484375 C 487.6875 247.316406 325.996094 116.371094 345.457031 103.988281 Z M 345.457031 103.988281 " fill-opacity="1" fill-rule="nonzero"/></g></g></g></g><g clip-path="url(#781bb68106)"><g clip-path="url(#c01231b2dc)"><g clip-path="url(#118f02113a)"><g clip-path="url(#4735271585)"><path fill="#ff0000" d="M 353.511719 105.355469 C 353.511719 105.355469 486.398438 40.78125 537.179688 78.976562 C 563.238281 98.578125 554.773438 124.265625 568.695312 235.445312 C 571.601562 258.640625 531.664062 202.683594 523.484375 186.074219 C 523.484375 186.074219 512.308594 239.007812 502.480469 239.988281 C 484.121094 241.816406 334.046875 117.738281 353.511719 105.355469 Z M 353.511719 105.355469 " fill-opacity="1" fill-rule="nonzero"/></g></g></g></g><g clip-path="url(#1379d12d30)"><g clip-path="url(#f977fc8d2f)"><g clip-path="url(#6093d28ec0)"><g clip-path="url(#8d309856b5)"><path fill="#000000" d="M 530.65625 198.339844 C 523.703125 182.632812 524.144531 172.609375 524.351562 143.074219 C 524.351562 143.074219 521.996094 190.59375 519.902344 201.078125 C 517.804688 211.5625 523.351562 192.066406 525.535156 193.5625 C 527.71875 195.054688 531.367188 199.941406 530.65625 198.339844 Z M 530.65625 198.339844 " fill-opacity="1" fill-rule="nonzero"/></g></g></g></g><g clip-path="url(#cce2b7fa23)"><g clip-path="url(#f5b810502d)"><g clip-path="url(#133644d6c4)"><g clip-path="url(#3ccbbb2c7c)"><path fill="#ba0808" d="M 524.351562 143.074219 C 524.351562 143.074219 541.425781 217.253906 559.199219 229.734375 C 559.199219 229.734375 556.15625 230.742188 555.3125 231.367188 C 554.671875 231.839844 532.085938 213.109375 525.941406 187.070312 C 523.398438 176.292969 524.277344 153.640625 524.351562 143.074219 Z M 524.351562 143.074219 " fill-opacity="1" fill-rule="nonzero"/></g></g></g></g><g clip-path="url(#14af819d4c)"><g clip-path="url(#2f2da83d0e)"><g clip-path="url(#27c0bc0c78)"><g clip-path="url(#4564ce1ee9)"><path fill="#000000" d="M 514.316406 140.796875 C 514.316406 140.796875 522.335938 156.074219 521.023438 191.15625 C 520.546875 203.851562 528.070312 161.527344 514.316406 140.796875 Z M 514.316406 140.796875 " fill-opacity="1" fill-rule="nonzero"/></g></g></g></g><g clip-path="url(#8fb72388da)"><g clip-path="url(#f6aab07419)"><g clip-path="url(#c1f7e5f4d9)"><g clip-path="url(#b177700122)"><path fill="#000000" d="M 507.257812 257.445312 C 509.378906 253.792969 511.265625 251.289062 507.339844 237.773438 C 501.40625 226.183594 495.53125 219.472656 490.324219 214.898438 C 488.636719 213.417969 500.847656 219.820312 499.644531 218.257812 C 480.246094 193.054688 454.699219 178.179688 454.699219 178.179688 L 467.296875 178.84375 C 455.363281 164.714844 423.714844 144.207031 408.539062 136.789062 L 421.78125 138.875 C 402.550781 124.304688 376.707031 111.042969 360.96875 108.691406 C 359.394531 108.453125 363.726562 105.839844 363.726562 105.839844 L 353.457031 102.347656 C 341.582031 99.242188 334.703125 100.488281 327.496094 110.183594 L 316.523438 125.925781 C 312.890625 130.636719 316.382812 138.820312 325.910156 142.53125 C 325.910156 142.53125 348.566406 151.941406 405.675781 197.222656 C 459.621094 240 470.367188 267.613281 470.367188 267.613281 C 476.917969 278.207031 485.710938 277.078125 495.289062 270.1875 Z M 507.257812 257.445312 " fill-opacity="1" fill-rule="nonzero"/></g></g></g></g><g clip-path="url(#7926ad9e3f)"><g clip-path="url(#2b3129c3de)"><g clip-path="url(#6b0e9da61c)"><g clip-path="url(#3fd0f5ec7c)"><path fill="#ffffff" d="M 477.734375 270.273438 C 476.332031 269.3125 474.988281 267.832031 473.742188 265.867188 C 472.90625 263.894531 470.902344 257.46875 458.65625 242.824219 C 457.792969 241.792969 462.566406 244.671875 462.566406 244.671875 C 454.53125 237.339844 438.515625 220.46875 427.347656 210.488281 C 424.6875 208.109375 435.800781 214.066406 432.839844 211.566406 C 429.417969 208.671875 411.871094 197.304688 408.027344 194.257812 C 392.628906 182.046875 366.382812 165.796875 360.101562 154.003906 C 359.277344 152.460938 362.65625 160.410156 361.257812 159.453125 C 348.867188 150.976562 340.285156 145.621094 334.726562 142.769531 C 329.40625 140.042969 328.621094 136.28125 328.566406 136.945312 C 328.335938 139.882812 327.535156 139.105469 327.363281 139.035156 L 327.285156 139.003906 C 325.929688 138.472656 324.683594 137.824219 323.582031 137.070312 C 321.019531 135.320312 319.292969 132.996094 318.957031 130.859375 C 318.792969 129.816406 318.980469 128.933594 319.515625 128.238281 L 319.625 128.089844 L 330.5625 112.390625 C 336.355469 104.609375 343.941406 102.644531 357.382812 107.097656 L 352.804688 109.550781 C 368.589844 112.699219 378.992188 112.496094 408.667969 132.773438 C 407.800781 133.082031 397.929688 134.078125 397.929688 134.078125 C 397.929688 134.078125 425.398438 148.039062 458.644531 175.832031 C 458.121094 176.214844 449.929688 176.449219 449.929688 176.449219 C 449.929688 176.449219 463.367188 186.710938 465.238281 187.992188 C 474.566406 194.371094 484.457031 204.582031 490.492188 212.113281 C 487.207031 210.4375 484.777344 211.03125 484.597656 211.15625 C 484.597656 211.15625 487.875 214.59375 489.53125 216.457031 C 495.34375 222.984375 512.019531 244.238281 504.210938 255.164062 L 492.792969 267.324219 C 483.300781 274.035156 479.140625 271.234375 477.75 270.285156 C 477.746094 270.28125 477.742188 270.277344 477.734375 270.273438 Z M 477.734375 270.273438 " fill-opacity="1" fill-rule="nonzero"/></g></g></g></g><g clip-path="url(#dd478df91e)"><g clip-path="url(#1c17e0b628)"><g clip-path="url(#ec241a8310)"><g clip-path="url(#65e9bc76fc)"><path fill="#e5e5e5" d="M 488.011719 270.160156 C 481.84375 273.046875 478.878906 271.054688 477.75 270.285156 L 477.730469 270.269531 C 476.328125 269.308594 474.992188 267.824219 473.742188 265.859375 C 472.90625 263.894531 470.902344 257.46875 458.65625 242.820312 C 457.792969 241.789062 462.570312 244.671875 462.570312 244.671875 C 454.527344 237.335938 438.519531 220.464844 427.347656 210.480469 C 424.691406 208.101562 435.800781 214.0625 432.839844 211.558594 C 429.417969 208.664062 411.875 197.300781 408.03125 194.257812 C 392.632812 182.042969 366.386719 165.796875 360.101562 154 C 359.28125 152.457031 362.652344 160.40625 361.257812 159.449219 C 348.863281 150.972656 340.289062 145.621094 334.726562 142.769531 C 329.40625 140.039062 328.625 136.285156 328.566406 136.941406 C 328.335938 139.875 327.539062 139.101562 327.367188 139.03125 L 327.285156 139.003906 C 325.929688 138.46875 324.6875 137.820312 323.589844 137.070312 C 321.023438 135.316406 319.292969 132.996094 318.960938 130.859375 C 318.789062 129.8125 318.980469 128.925781 319.519531 128.238281 L 319.632812 128.085938 L 330.5625 112.386719 C 334.5625 107.019531 339.40625 104.425781 346.441406 104.785156 C 343.910156 105.148438 337.800781 105.710938 334.402344 111.796875 L 325.882812 124.667969 C 324.792969 126.792969 324.988281 128.636719 325.28125 129.648438 C 326.160156 132.714844 329.09375 134.109375 331.660156 135.863281 C 332.757812 136.613281 334.007812 137.265625 335.355469 137.796875 L 335.4375 137.824219 C 335.609375 137.894531 336.40625 138.671875 336.644531 135.738281 C 336.695312 135.078125 337.484375 138.835938 342.800781 141.566406 C 348.359375 144.414062 356.933594 149.769531 369.328125 158.246094 C 370.730469 159.207031 367.351562 151.25 368.175781 152.792969 C 374.457031 164.589844 400.703125 180.839844 416.101562 193.050781 C 419.945312 196.09375 437.953125 210.382812 441.378906 213.277344 C 444.332031 215.773438 433.570312 211.503906 436.230469 213.882812 C 447.398438 223.867188 463.257812 237.917969 471.292969 245.25 C 471.292969 245.25 465.753906 242.859375 466.617188 243.886719 C 478.871094 258.539062 480.976562 262.6875 481.820312 264.660156 C 483.0625 266.621094 484.398438 268.105469 485.808594 269.070312 C 485.808594 269.070312 485.816406 269.074219 485.820312 269.078125 C 486.253906 269.371094 486.957031 269.851562 488.011719 270.160156 Z M 488.011719 270.160156 " fill-opacity="1" fill-rule="nonzero"/></g></g></g></g><g clip-path="url(#bfbb33e9ee)"><g clip-path="url(#6ac6a0a579)"><g clip-path="url(#d95eaa7df1)"><g clip-path="url(#2b7a9d3bc5)"><path fill="#000000" d="M 540.246094 263.035156 C 538.878906 259.039062 528.859375 239.355469 547 225.59375 C 552.316406 221.5625 562.183594 218.628906 567.789062 218.089844 C 568.453125 218.027344 560.078125 223.746094 563.890625 223.453125 C 576.269531 222.507812 592.636719 225.378906 599.402344 233.265625 C 599.976562 233.9375 590.710938 233.113281 591.238281 233.84375 C 591.964844 234.859375 601.761719 247.582031 599.363281 261.695312 C 599.363281 261.695312 597.929688 257.597656 594.667969 258.964844 C 592.726562 259.777344 594.027344 267.320312 583.601562 277.472656 C 578.550781 282.394531 566.996094 287.757812 560.777344 284.828125 C 560.777344 284.828125 564.574219 280.179688 563.074219 279.875 C 545.671875 276.355469 533.742188 265.851562 533.808594 263.296875 C 533.816406 263.03125 541.003906 265.253906 540.246094 263.035156 Z M 540.246094 263.035156 " fill-opacity="1" fill-rule="nonzero"/></g></g></g></g><g clip-path="url(#9841aac13a)"><g clip-path="url(#15b2f3aa45)"><g clip-path="url(#6936ea776f)"><g clip-path="url(#1679f9dedd)"><path fill="#ffffff" d="M 540.890625 266.207031 C 541.484375 266.621094 543.457031 266.796875 543.273438 265.003906 C 543.042969 262.738281 530.433594 243.054688 549.445312 228.585938 C 552.09375 226.574219 559.265625 223.113281 558.304688 224.125 C 557.269531 225.21875 555.097656 229.152344 558.953125 227.960938 C 568.003906 225.160156 583.679688 226.082031 590.621094 231.109375 C 590.515625 231.300781 587.222656 230.984375 587.105469 232.742188 C 587.023438 233.988281 597.03125 242.863281 598.210938 257.566406 C 596.691406 254.539062 593.511719 255.179688 593.046875 255.988281 C 590.503906 260.425781 590.675781 266.285156 582.960938 273.886719 C 578.851562 277.9375 571.222656 282.46875 567.269531 282.273438 C 567.253906 281.210938 569.855469 278.777344 569.007812 275.230469 C 568.835938 274.507812 568.324219 276.21875 564.542969 276.410156 C 550.558594 277.121094 541.0625 266.867188 540.890625 266.207031 Z M 540.890625 266.207031 " fill-opacity="1" fill-rule="nonzero"/></g></g></g></g><g clip-path="url(#1eb0bd760b)"><g clip-path="url(#7ad6749d71)"><g clip-path="url(#5795fa4a6a)"><g clip-path="url(#3367d6b62b)"><path fill="#e5e5e5" d="M 586.765625 269.542969 C 585.710938 271.035156 584.386719 272.613281 582.679688 274.269531 C 578.539062 278.28125 570.878906 282.765625 566.929688 282.539062 C 566.921875 281.476562 569.054688 278.054688 569.140625 275.917969 C 569.152344 275.621094 568.027344 276.496094 564.246094 276.652344 C 550.253906 277.261719 540.832031 266.945312 540.667969 266.285156 C 541.257812 266.695312 543.230469 266.886719 543.058594 265.09375 C 542.855469 262.945312 531.664062 245.097656 546.71875 231.046875 C 537.910156 244.121094 546.855469 258.554688 547.03125 260.476562 C 547.203125 262.265625 545.234375 262.078125 544.640625 261.664062 C 544.808594 262.328125 554.234375 272.648438 568.226562 272.039062 C 572 271.875 572.511719 270.167969 572.695312 270.890625 C 573.210938 272.925781 571.523438 277.125 570.90625 277.921875 C 574.855469 278.144531 582.519531 273.667969 586.65625 269.648438 C 586.691406 269.613281 586.734375 269.578125 586.765625 269.542969 Z M 586.765625 269.542969 " fill-opacity="1" fill-rule="nonzero"/></g></g></g></g></svg>
