<svg width="142" height="191" viewBox="0 0 142 191" fill="none" xmlns="http://www.w3.org/2000/svg">
<path d="M75.3878 2.90373C77.1407 1.26842 79.8601 1.26842 81.6129 2.90373L87.0886 8.01212C88.3543 9.19285 90.179 9.55582 91.8002 8.94929L98.8139 6.3252C101.059 5.48517 103.572 6.52585 104.565 8.70749L107.669 15.5225C108.387 17.0977 109.934 18.1313 111.663 18.1913L119.147 18.451C121.543 18.5341 123.466 20.4571 123.549 22.8529L123.809 30.3369C123.869 32.0667 124.903 33.6137 126.478 34.3312L133.293 37.4351C135.474 38.4288 136.515 40.9411 135.675 43.1864L133.051 50.2001C132.444 51.8213 132.807 53.646 133.988 54.9116L139.097 60.3873C140.732 62.1402 140.732 64.8596 139.097 66.6124L133.988 72.0881C132.807 73.3538 132.444 75.1785 133.051 76.7997L135.675 83.8134C136.515 86.0587 135.474 88.571 133.293 89.5647L126.478 92.6686C124.903 93.386 123.869 94.9331 123.809 96.6629L123.549 104.147C123.466 106.543 121.543 108.466 119.147 108.549L111.663 108.808C109.934 108.869 108.387 109.902 107.669 111.477L104.565 118.292C103.572 120.474 101.059 121.515 98.8139 120.675L91.8002 118.05C90.179 117.444 88.3543 117.807 87.0886 118.988L81.6129 124.096C79.8601 125.731 77.1407 125.731 75.3878 124.096L69.9121 118.988C68.6465 117.807 66.8218 117.444 65.2006 118.05L58.1869 120.675C55.9416 121.515 53.4293 120.474 52.4356 118.292L49.3317 111.477C48.6142 109.902 47.0672 108.869 45.3374 108.808L37.8534 108.549C35.4576 108.466 33.5346 106.543 33.4515 104.147L33.1918 96.6629C33.1317 94.9331 32.0981 93.386 30.523 92.6686L23.708 89.5647C21.5263 88.571 20.4857 86.0587 21.3257 83.8134L23.9498 76.7997C24.5563 75.1785 24.1933 73.3538 23.0126 72.0881L17.9042 66.6124C16.2689 64.8596 16.2689 62.1402 17.9042 60.3873L23.0126 54.9116C24.1933 53.646 24.5563 51.8213 23.9498 50.2001L21.3257 43.1864C20.4857 40.9411 21.5263 38.4288 23.708 37.4351L30.523 34.3312C32.0981 33.6137 33.1317 32.0667 33.1918 30.3369L33.4515 22.8529C33.5346 20.4571 35.4576 18.5341 37.8534 18.451L45.3374 18.1913C47.0672 18.1313 48.6142 17.0977 49.3317 15.5225L52.4356 8.70749C53.4293 6.52585 55.9416 5.48517 58.1869 6.3252L65.2006 8.94929C66.8218 9.55582 68.6465 9.19285 69.9121 8.01211L75.3878 2.90373Z" fill="#4760FF"/>
<path d="M76.1005 7.95147C77.4519 6.69065 79.5486 6.69065 80.9001 7.95147L85.9662 12.6777C87.3322 13.9522 89.3019 14.344 91.0517 13.6893L97.5408 11.2615C99.2718 10.6138 101.209 11.4162 101.975 13.0983L104.847 19.4034C105.621 21.1037 107.291 22.2193 109.158 22.2842L116.082 22.5244C117.929 22.5886 119.412 24.0712 119.476 25.9182L119.716 32.8425C119.781 34.7097 120.897 36.3794 122.597 37.1537L128.902 40.0255C130.584 40.7916 131.387 42.7288 130.739 44.4598L128.311 50.9489C127.657 52.6987 128.048 54.6684 129.323 56.0344L134.049 61.1005C135.31 62.4519 135.31 64.5486 134.049 65.9001L129.323 70.9662C128.048 72.3322 127.657 74.3019 128.311 76.0517L130.739 82.5408C131.387 84.2718 130.584 86.209 128.902 86.9751L122.597 89.8467C120.897 90.6212 119.781 92.2909 119.716 94.1581L119.476 101.082C119.412 102.929 117.929 104.412 116.082 104.476L109.158 104.716C107.291 104.781 105.621 105.897 104.847 107.597L101.975 113.902C101.209 115.584 99.2718 116.387 97.5408 115.739L91.0517 113.311C89.3019 112.657 87.3322 113.048 85.9662 114.323L80.9001 119.049C79.5486 120.31 77.4519 120.31 76.1005 119.049L71.0344 114.323C69.6684 113.048 67.6987 112.657 65.9489 113.311L59.4598 115.739C57.7288 116.387 55.7916 115.584 55.0255 113.902L52.1537 107.597C51.3794 105.897 49.7097 104.781 47.8425 104.716L40.9182 104.476C39.0712 104.412 37.5886 102.929 37.5244 101.082L37.2842 94.1581C37.2193 92.2909 36.1037 90.6212 34.4034 89.8467L28.0982 86.9751C26.4162 86.209 25.6138 84.2718 26.2615 82.5408L28.6893 76.0517C29.344 74.3019 28.9522 72.3322 27.6777 70.9662L22.9515 65.9001C21.6907 64.5486 21.6907 62.4519 22.9515 61.1005L27.6777 56.0344C28.9522 54.6684 29.344 52.6987 28.6893 50.9489L26.2615 44.4598C25.6138 42.7288 26.4162 40.7916 28.0983 40.0255L34.4034 37.1537C36.1037 36.3794 37.2193 34.7097 37.2842 32.8425L37.5244 25.9182C37.5886 24.0712 39.0712 22.5886 40.9182 22.5244L47.8425 22.2842C49.7097 22.2193 51.3794 21.1037 52.1537 19.4034L55.0255 13.0982C55.7916 11.4162 57.7288 10.6138 59.4598 11.2615L65.9489 13.6893C67.6987 14.344 69.6684 13.9522 71.0344 12.6777L76.1005 7.95147Z" fill="#4760FF"/>
<path d="M101.975 13.0983C101.209 11.4162 99.2718 10.6138 97.5408 11.2615L91.0517 13.6893C89.3019 14.344 87.3322 13.9522 85.9662 12.6777L80.9001 7.95147C79.5486 6.69065 77.4519 6.69065 76.1005 7.95147L71.0344 12.6777C69.6684 13.9522 67.6987 14.344 65.9489 13.6893L59.4598 11.2615C57.7288 10.6138 55.7916 11.4162 55.0255 13.0982L52.1537 19.4034C51.3794 21.1037 49.7097 22.2193 47.8425 22.2842L40.9182 22.5244C39.0712 22.5886 37.5886 24.0712 37.5244 25.9182L37.2842 32.8425C37.2193 34.7097 36.1037 36.3794 34.4034 37.1537L28.0983 40.0255C26.4162 40.7916 25.6138 42.7288 26.2615 44.4598L28.6893 50.9489C29.344 52.6987 28.9522 54.6684 27.6777 56.0344L22.9515 61.1005C21.6907 62.4519 21.6907 64.5486 22.9515 65.9001L27.6777 70.9662C28.9522 72.3322 29.344 74.3019 28.6893 76.0517L26.2615 82.5408C25.6138 84.2718 26.4162 86.209 28.0982 86.9751L34.4034 89.8467C36.1037 90.6212 37.2193 92.2909 37.2842 94.1581L37.5244 101.082C37.5886 102.929 39.0712 104.412 40.9182 104.476L47.8425 104.716C49.7097 104.781 51.3794 105.897 52.1537 107.597L55.0255 113.902C55.7916 115.584 57.7288 116.387 59.4598 115.739L65.9489 113.311C67.6987 112.657 69.6684 113.048 71.0344 114.323L76.1005 119.049C77.4519 120.31 79.5486 120.31 80.9001 119.049L85.9662 114.323C87.3322 113.048 89.3019 112.657 91.0517 113.311L97.5408 115.739C99.2718 116.387 101.209 115.584 101.975 113.902L104.847 107.597C105.621 105.897 107.291 104.781 109.158 104.716L116.082 104.476C117.929 104.412 119.412 102.929 119.476 101.082L119.716 94.1581C119.781 92.2909 120.897 90.6212 122.597 89.8467L128.902 86.9751C130.584 86.209 131.387 84.2718 130.739 82.5408L128.311 76.0517C127.657 74.3019 128.048 72.3322 129.323 70.9662L134.049 65.9001C135.31 64.5486 135.31 62.4519 134.049 61.1005L129.323 56.0344C128.048 54.6684 127.657 52.6987 128.311 50.9489L130.739 44.4598C131.387 42.7288 130.584 40.7916 128.902 40.0255L122.597 37.1537C120.897 36.3794 119.781 34.7097 119.716 32.8425L119.476 25.9182C119.412 24.0712 117.929 22.5886 116.082 22.5244L109.158 22.2842C107.291 22.2193 105.621 21.1037 104.847 19.4034L101.975 13.0983ZM101.975 13.0983L102.615 12.8066" stroke="white" stroke-width="1.0637"/>
<path d="M62.7357 46.543C62.069 46.543 61.4331 46.4103 60.8281 46.1448C60.223 45.8732 59.6951 45.4936 59.2446 45.0058C58.8001 44.518 58.482 43.9439 58.2907 43.2834L60.7355 42.6351C60.8651 43.1229 61.1182 43.5026 61.4948 43.7742C61.8776 44.0397 62.2912 44.1724 62.7357 44.1724C63.1185 44.1724 63.4673 44.0798 63.7822 43.8946C64.1031 43.7094 64.3563 43.4593 64.5415 43.1445C64.7328 42.8296 64.8286 42.4808 64.8286 42.098C64.8286 41.5239 64.631 41.0331 64.2359 40.6256C63.847 40.212 63.3469 40.0052 62.7357 40.0052C62.5505 40.0052 62.3714 40.033 62.1986 40.0885C62.0257 40.1379 61.859 40.2089 61.6986 40.3015L60.5688 38.3198L64.8101 34.8008L64.9953 35.3379H58.8093V32.9673H67.1437V35.3379L63.847 38.5235L63.8285 37.8197C64.5939 37.9371 65.2391 38.2056 65.7639 38.6254C66.2948 39.0391 66.696 39.5514 66.9678 40.1626C67.2456 40.7676 67.3845 41.4128 67.3845 42.098C67.3845 42.9377 67.1715 43.6939 66.7455 44.3668C66.3195 45.0336 65.7546 45.5645 65.0508 45.9596C64.3471 46.3486 63.5753 46.543 62.7357 46.543ZM74.3634 46.5801C73.3757 46.5801 72.5113 46.3733 71.7705 45.9596C71.0296 45.546 70.4524 44.9688 70.0388 44.2279C69.6252 43.4871 69.4183 42.6228 69.4183 41.635V37.6345C69.4183 36.6467 69.6252 35.7824 70.0388 35.0416C70.4524 34.3008 71.0296 33.7236 71.7705 33.3099C72.5113 32.8962 73.3757 32.6895 74.3634 32.6895C75.3512 32.6895 76.2155 32.8962 76.9563 33.3099C77.6971 33.7236 78.2745 34.3008 78.688 35.0416C79.1017 35.7824 79.3084 36.6467 79.3084 37.6345V41.635C79.3084 42.6228 79.1017 43.4871 78.688 44.2279C78.2745 44.9688 77.6971 45.546 76.9563 45.9596C76.2155 46.3733 75.3512 46.5801 74.3634 46.5801ZM74.3634 44.1909C74.8079 44.1909 75.2093 44.086 75.5672 43.876C75.9254 43.6661 76.2094 43.3822 76.4192 43.0241C76.6291 42.666 76.7341 42.2647 76.7341 41.8202V37.4308C76.7341 36.9863 76.6291 36.585 76.4192 36.2269C76.2094 35.8688 75.9254 35.5849 75.5672 35.375C75.2093 35.165 74.8079 35.0601 74.3634 35.0601C73.9189 35.0601 73.5176 35.165 73.1595 35.375C72.8016 35.5849 72.5175 35.8688 72.3076 36.2269C72.0978 36.585 71.9927 36.9863 71.9927 37.4308V41.8202C71.9927 42.2647 72.0978 42.666 72.3076 43.0241C72.5175 43.3822 72.8016 43.6661 73.1595 43.876C73.5176 44.086 73.9189 44.1909 74.3634 44.1909ZM83.5651 46.3023L81.8982 44.6354L93.5663 32.9673L95.2332 34.6527L83.5651 46.3023ZM92.4551 46.5801C91.8439 46.5801 91.2852 46.4319 90.7789 46.1356C90.2789 45.833 89.8776 45.4318 89.5751 44.9317C89.2727 44.4254 89.1213 43.8637 89.1213 43.2463C89.1213 42.6414 89.2757 42.0857 89.5843 41.5795C89.8931 41.0732 90.3006 40.6689 90.8067 40.3663C91.313 40.0638 91.8624 39.9126 92.4551 39.9126C93.0662 39.9126 93.6251 40.0638 94.1312 40.3663C94.6375 40.6627 95.0387 41.0639 95.3351 41.5702C95.6376 42.0703 95.7888 42.6289 95.7888 43.2463C95.7888 43.8637 95.6376 44.4254 95.3351 44.9317C95.0387 45.4318 94.6375 45.833 94.1312 46.1356C93.6251 46.4319 93.0662 46.5801 92.4551 46.5801ZM92.4551 44.4502C92.6712 44.4502 92.8687 44.3946 93.0477 44.2835C93.2329 44.1724 93.3811 44.0272 93.4922 43.8483C93.6034 43.663 93.6589 43.4624 93.6589 43.2463C93.6589 43.0303 93.6034 42.8327 93.4922 42.6537C93.3811 42.4685 93.2329 42.3203 93.0477 42.2092C92.8687 42.098 92.6712 42.0425 92.4551 42.0425C92.239 42.0425 92.0383 42.098 91.8531 42.2092C91.6741 42.3203 91.529 42.4685 91.4179 42.6537C91.3068 42.8327 91.2512 43.0303 91.2512 43.2463C91.2512 43.4624 91.3068 43.663 91.4179 43.8483C91.529 44.0272 91.6741 44.1724 91.8531 44.2835C92.0383 44.3946 92.239 44.4502 92.4551 44.4502ZM84.6763 39.357C84.0651 39.357 83.5065 39.2088 83.0002 38.9125C82.494 38.6099 82.0896 38.2087 81.7871 37.7086C81.4907 37.2023 81.3426 36.6406 81.3426 36.0232C81.3426 35.4182 81.4969 34.8626 81.8056 34.3563C82.1144 33.85 82.5218 33.4458 83.028 33.1432C83.5342 32.8407 84.0836 32.6895 84.6763 32.6895C85.2875 32.6895 85.8431 32.8407 86.3432 33.1432C86.8495 33.4395 87.2539 33.8408 87.5563 34.3471C87.8589 34.8471 88.0101 35.4058 88.0101 36.0232C88.0101 36.6406 87.8589 37.2023 87.5563 37.7086C87.2539 38.2087 86.8495 38.6099 86.3432 38.9125C85.8431 39.2088 85.2875 39.357 84.6763 39.357ZM84.6763 37.2271C84.8925 37.2271 85.09 37.1715 85.269 37.0604C85.4542 36.9492 85.6024 36.8041 85.7135 36.6251C85.8246 36.4399 85.8802 36.2392 85.8802 36.0232C85.8802 35.8072 85.8246 35.6095 85.7135 35.4305C85.6024 35.2453 85.4542 35.0972 85.269 34.986C85.09 34.8749 84.8925 34.8193 84.6763 34.8193C84.4603 34.8193 84.2596 34.8749 84.0744 34.986C83.8954 35.0972 83.7503 35.2453 83.6391 35.4305C83.528 35.6095 83.4725 35.8072 83.4725 36.0232C83.4725 36.2392 83.528 36.4399 83.6391 36.6251C83.7503 36.8041 83.8954 36.9492 84.0744 37.0604C84.2596 37.1715 84.4603 37.2271 84.6763 37.2271ZM50.9595 63.7185C49.9118 63.7185 49.0072 63.4905 48.2456 63.0345C47.4889 62.5785 46.9044 61.9407 46.492 61.1209C46.0846 60.3011 45.8809 59.3479 45.8809 58.2614C45.8809 57.1749 46.0846 56.2218 46.492 55.402C46.9044 54.5821 47.4889 53.9444 48.2456 53.4883C49.0072 53.0323 49.9118 52.8044 50.9595 52.8044C52.1626 52.8044 53.1715 53.1027 53.9864 53.6994C54.8062 54.296 55.3834 55.1036 55.7181 56.1223L53.7244 56.6753C53.5305 56.0399 53.2031 55.5475 52.7422 55.1982C52.2814 54.8441 51.6871 54.6671 50.9595 54.6671C50.295 54.6671 49.7397 54.815 49.2933 55.1109C48.852 55.4068 48.5197 55.824 48.2965 56.3624C48.0735 56.9008 47.9618 57.5338 47.9618 58.2614C47.9618 58.989 48.0735 59.622 48.2965 60.1605C48.5197 60.6989 48.852 61.116 49.2933 61.412C49.7397 61.7079 50.295 61.8558 50.9595 61.8558C51.6871 61.8558 52.2814 61.6788 52.7422 61.3246C53.2031 60.9705 53.5305 60.4782 53.7244 59.8476L55.7181 60.4006C55.3834 61.4192 54.8062 62.2269 53.9864 62.8235C53.1715 63.4201 52.1626 63.7185 50.9595 63.7185ZM57.0292 63.5002V53.0227H59.0083V57.3301H63.6941V53.0227H65.6731V63.5002H63.6941V59.1782H59.0083V63.5002H57.0292ZM67.4248 63.5002V53.0227H74.2643V54.8708H69.4039V57.1118H73.3912V58.9599H69.4039V61.6521H74.2643V63.5002H67.4248ZM74.9897 63.5002L78.1911 53.0227H81.1452L84.3466 63.5002H82.3094L79.4571 54.2596H79.8355L77.0269 63.5002H74.9897ZM76.9105 61.3174V59.4693H82.4403V61.3174H76.9105ZM85.3597 63.5002V53.0227H89.7836C89.8854 53.0227 90.0212 53.0276 90.191 53.0372C90.3657 53.0421 90.5208 53.0567 90.6567 53.0809C91.2824 53.1779 91.7941 53.3841 92.1919 53.6994C92.5945 54.0146 92.8904 54.4124 93.0796 54.8926C93.2688 55.3679 93.3634 55.8991 93.3634 56.4861C93.3634 57.0731 93.2663 57.6066 93.0723 58.0868C92.8832 58.5621 92.5872 58.9576 92.1847 59.2728C91.7869 59.5881 91.2775 59.7943 90.6567 59.8913C90.5208 59.9107 90.3657 59.9253 90.191 59.9349C90.0164 59.9446 89.8805 59.9495 89.7836 59.9495H87.3388V63.5002H85.3597ZM87.3388 58.1014H89.6963C89.7981 58.1014 89.9096 58.0965 90.031 58.0868C90.1521 58.0772 90.2638 58.0577 90.3656 58.0286C90.6323 57.9558 90.8386 57.8345 90.9841 57.6648C91.1296 57.4902 91.229 57.2986 91.2824 57.09C91.3406 56.8766 91.3697 56.6753 91.3697 56.4861C91.3697 56.2969 91.3406 56.0981 91.2824 55.8894C91.229 55.6761 91.1296 55.4844 90.9841 55.3146C90.8386 55.14 90.6323 55.0163 90.3656 54.9436C90.2638 54.9145 90.1521 54.895 90.031 54.8853C89.9096 54.8757 89.7981 54.8708 89.6963 54.8708H87.3388V58.1014ZM94.5332 63.5002V53.0227H101.373V54.8708H96.5123V57.1118H100.5V58.9599H96.5123V61.6521H101.373V63.5002H94.5332ZM102.826 63.5002V53.0227H107.249C107.351 53.0227 107.487 53.0276 107.657 53.0372C107.831 53.0421 107.987 53.0567 108.122 53.0809C108.748 53.1779 109.26 53.3841 109.658 53.6994C110.06 54.0146 110.356 54.4124 110.545 54.8926C110.735 55.3679 110.829 55.8991 110.829 56.4861C110.829 57.3641 110.611 58.1159 110.174 58.7417C109.738 59.3625 109.054 59.7457 108.122 59.8913L107.249 59.9495H104.805V63.5002H102.826ZM108.734 63.5002L106.667 59.2364L108.705 58.8435L110.975 63.5002H108.734ZM104.805 58.1014H107.162C107.264 58.1014 107.376 58.0965 107.497 58.0868C107.618 58.0772 107.73 58.0577 107.831 58.0286C108.098 57.9558 108.304 57.8345 108.45 57.6648C108.595 57.4902 108.695 57.2986 108.748 57.09C108.806 56.8766 108.836 56.6753 108.836 56.4861C108.836 56.2969 108.806 56.0981 108.748 55.8894C108.695 55.6761 108.595 55.4844 108.45 55.3146C108.304 55.14 108.098 55.0163 107.831 54.9436C107.73 54.9145 107.618 54.895 107.497 54.8853C107.376 54.8757 107.264 54.8708 107.162 54.8708H104.805V58.1014Z" fill="white"/>
<path d="M42.9368 78.0519V71.8853H40.5605V70.9081H46.3499V71.8853H43.9737V78.0519H42.9368ZM46.9455 78.0519V70.9081H47.9822V73.9888H51.5541V70.9081H52.5959V78.0519H51.5541V74.9662H47.9822V78.0519H46.9455ZM53.2951 78.0519L55.6168 70.9081H57.11L59.4317 78.0519H58.3552L56.217 71.5332H56.4849L54.3715 78.0519H53.2951ZM54.5005 76.4395V75.4671H58.2311V76.4395H54.5005ZM60.1233 78.0519V70.9081H61.175L64.6923 76.2163V70.9081H65.744V78.0519H64.6923L61.175 72.7386V78.0519H60.1233ZM68.2221 78.0519L70.5438 70.9081H72.037L74.3587 78.0519H73.2822L71.144 71.5332H71.4119L69.2985 78.0519H68.2221ZM69.4275 76.4395V75.4671H73.1581V76.4395H69.4275ZM79.8197 78.2007C79.1053 78.2007 78.4968 78.0452 77.9941 77.7344C77.4914 77.4202 77.1061 76.9836 76.8382 76.4247C76.5737 75.8657 76.4414 75.2175 76.4414 74.48C76.4414 73.7425 76.5737 73.0942 76.8382 72.5353C77.1061 71.9764 77.4914 71.5414 77.9941 71.2305C78.4968 70.9163 79.1053 70.7593 79.8197 70.7593C80.6432 70.7593 81.3245 70.9676 81.8636 71.3844C82.406 71.8011 82.783 72.3616 82.9947 73.0662L81.943 73.3489C81.8041 72.8495 81.556 72.4575 81.1988 72.1731C80.845 71.8886 80.3852 71.7464 79.8197 71.7464C79.3137 71.7464 78.8921 71.8606 78.5547 72.0888C78.2174 72.317 77.9627 72.6361 77.7907 73.0462C77.6221 73.4563 77.5377 73.9343 77.5377 74.48C77.5344 75.0257 77.617 75.5035 77.7857 75.9136C77.9577 76.3237 78.2123 76.6429 78.5497 76.8712C78.8903 77.0994 79.3137 77.2134 79.8197 77.2134C80.3852 77.2134 80.845 77.0712 81.1988 76.7868C81.556 76.499 81.8041 76.1072 81.943 75.6111L82.9947 75.8938C82.783 76.5982 82.406 77.1589 81.8636 77.5756C81.3245 77.9923 80.6432 78.2007 79.8197 78.2007ZM83.9866 78.0519V70.9081H85.0234V77.0745H88.2579V78.0519H83.9866ZM88.4057 78.0519L90.7274 70.9081H92.2207L94.5424 78.0519H93.4658L91.3277 71.5332H91.5956L89.4823 78.0519H88.4057ZM89.6113 76.4395V75.4671H93.3419V76.4395H89.6113ZM97.6297 78.2007C97.1171 78.2007 96.6541 78.1131 96.2407 77.9377C95.8306 77.7591 95.4916 77.5062 95.2237 77.1787C94.9592 76.848 94.7872 76.456 94.7078 76.0029L95.7893 75.8393C95.8984 76.2758 96.1266 76.6165 96.4739 76.8612C96.8212 77.1027 97.2262 77.2233 97.6893 77.2233C97.977 77.2233 98.2416 77.1787 98.483 77.0894C98.7244 76.9968 98.918 76.8661 99.0635 76.6975C99.2123 76.5255 99.2867 76.3204 99.2867 76.0823C99.2867 75.9533 99.2635 75.8393 99.2172 75.7401C99.1742 75.6408 99.1131 75.5548 99.0337 75.4821C98.9577 75.406 98.8633 75.3415 98.7509 75.2885C98.6418 75.2323 98.5211 75.1844 98.3888 75.1447L96.5582 74.6039C96.3796 74.551 96.1977 74.4833 96.0125 74.4006C95.8272 74.3146 95.657 74.2038 95.5015 74.0682C95.3494 73.9293 95.2253 73.759 95.1294 73.5572C95.0335 73.3522 94.9856 73.1041 94.9856 72.8131C94.9856 72.3732 95.0981 72.0011 95.323 71.6968C95.5512 71.3893 95.8587 71.1577 96.2457 71.0023C96.6326 70.8435 97.0659 70.7642 97.5454 70.7642C98.0283 70.7708 98.4599 70.8568 98.8402 71.0221C99.2238 71.1875 99.5413 71.4256 99.7927 71.7365C100.047 72.0441 100.223 72.4178 100.319 72.8577L99.2073 73.0462C99.1577 72.7783 99.0519 72.5485 98.8898 72.3567C98.7277 72.1616 98.5293 72.0127 98.2945 71.9102C98.0597 71.8044 97.805 71.7497 97.5305 71.7464C97.2659 71.7398 97.0229 71.7795 96.8013 71.8655C96.583 71.9515 96.4077 72.0723 96.2755 72.2277C96.1465 72.3832 96.0819 72.5618 96.0819 72.7635C96.0819 72.9619 96.1399 73.1223 96.2556 73.2446C96.3714 73.367 96.5136 73.4646 96.6822 73.5374C96.8542 73.6069 97.0245 73.6647 97.1932 73.711L98.5128 74.0831C98.6781 74.1294 98.8651 74.1922 99.0734 74.2716C99.2851 74.3477 99.4884 74.4551 99.6835 74.594C99.882 74.7329 100.046 74.9181 100.175 75.1496C100.304 75.3778 100.368 75.6656 100.368 76.0128C100.368 76.3733 100.295 76.6908 100.15 76.9653C100.004 77.2365 99.8043 77.4647 99.5497 77.65C99.2983 77.8319 99.0073 77.9692 98.6765 78.0618C98.3458 78.1544 97.9968 78.2007 97.6297 78.2007ZM103.962 78.2007C103.449 78.2007 102.986 78.1131 102.573 77.9377C102.163 77.7591 101.824 77.5062 101.556 77.1787C101.291 76.848 101.119 76.456 101.04 76.0029L102.121 75.8393C102.231 76.2758 102.459 76.6165 102.806 76.8612C103.153 77.1027 103.558 77.2233 104.022 77.2233C104.309 77.2233 104.574 77.1787 104.815 77.0894C105.057 76.9968 105.25 76.8661 105.396 76.6975C105.544 76.5255 105.619 76.3204 105.619 76.0823C105.619 75.9533 105.596 75.8393 105.549 75.7401C105.507 75.6408 105.445 75.5548 105.366 75.4821C105.29 75.406 105.196 75.3415 105.083 75.2885C104.974 75.2323 104.853 75.1844 104.721 75.1447L102.89 74.6039C102.712 74.551 102.53 74.4833 102.345 74.4006C102.16 74.3146 101.989 74.2038 101.834 74.0682C101.682 73.9293 101.558 73.759 101.462 73.5572C101.366 73.3522 101.318 73.1041 101.318 72.8131C101.318 72.3732 101.43 72.0011 101.655 71.6968C101.883 71.3893 102.191 71.1577 102.578 71.0023C102.965 70.8435 103.398 70.7642 103.878 70.7642C104.36 70.7708 104.792 70.8568 105.172 71.0221C105.556 71.1875 105.874 71.4256 106.125 71.7365C106.38 72.0441 106.555 72.4178 106.651 72.8577L105.54 73.0462C105.49 72.7783 105.384 72.5485 105.222 72.3567C105.06 72.1616 104.862 72.0127 104.627 71.9102C104.392 71.8044 104.137 71.7497 103.863 71.7464C103.598 71.7398 103.355 71.7795 103.133 71.8655C102.915 71.9515 102.74 72.0723 102.608 72.2277C102.479 72.3832 102.414 72.5618 102.414 72.7635C102.414 72.9619 102.472 73.1223 102.588 73.2446C102.704 73.367 102.846 73.4646 103.014 73.5374C103.186 73.6069 103.357 73.6647 103.525 73.711L104.845 74.0831C105.01 74.1294 105.197 74.1922 105.406 74.2716C105.617 74.3477 105.821 74.4551 106.016 74.594C106.214 74.7329 106.378 74.9181 106.507 75.1496C106.636 75.3778 106.7 75.6656 106.7 76.0128C106.7 76.3733 106.628 76.6908 106.482 76.9653C106.337 77.2365 106.136 77.4647 105.882 77.65C105.63 77.8319 105.339 77.9692 105.009 78.0618C104.678 78.1544 104.329 78.2007 103.962 78.2007ZM107.658 78.0519V70.9081H108.695V78.0519H107.658ZM112.968 78.2007C112.254 78.2007 111.645 78.0452 111.142 77.7344C110.64 77.4202 110.254 76.9836 109.987 76.4247C109.722 75.8657 109.59 75.2175 109.59 74.48C109.59 73.7425 109.722 73.0942 109.987 72.5353C110.254 71.9764 110.64 71.5414 111.142 71.2305C111.645 70.9163 112.254 70.7593 112.968 70.7593C113.792 70.7593 114.473 70.9676 115.012 71.3844C115.554 71.8011 115.931 72.3616 116.143 73.0662L115.091 73.3489C114.952 72.8495 114.704 72.4575 114.347 72.1731C113.993 71.8886 113.534 71.7464 112.968 71.7464C112.462 71.7464 112.04 71.8606 111.703 72.0888C111.366 72.317 111.111 72.6361 110.939 73.0462C110.77 73.4563 110.686 73.9343 110.686 74.48C110.683 75.0257 110.765 75.5035 110.934 75.9136C111.106 76.3237 111.361 76.6429 111.698 76.8712C112.039 77.0994 112.462 77.2134 112.968 77.2134C113.534 77.2134 113.993 77.0712 114.347 76.7868C114.704 76.499 114.952 76.1072 115.091 75.6111L116.143 75.8938C115.931 76.5982 115.554 77.1589 115.012 77.5756C114.473 77.9923 113.792 78.2007 112.968 78.2007ZM44.3754 91.4299C43.8628 91.4299 43.3998 91.3423 42.9864 91.1668C42.5763 90.9883 42.2373 90.7353 41.9695 90.4079C41.7049 90.0772 41.5329 89.6852 41.4535 89.2321L42.535 89.0684C42.6441 89.505 42.8723 89.8457 43.2196 90.0904C43.5669 90.3318 43.972 90.4525 44.435 90.4525C44.7227 90.4525 44.9873 90.4079 45.2287 90.3186C45.4702 90.226 45.6637 90.0953 45.8092 89.9266C45.958 89.7546 46.0324 89.5496 46.0324 89.3115C46.0324 89.1825 46.0092 89.0684 45.9629 88.9692C45.9199 88.87 45.8588 88.784 45.7795 88.7113C45.7034 88.6352 45.6091 88.5706 45.4966 88.5177C45.3875 88.4615 45.2668 88.4136 45.1345 88.3739L43.3039 87.8331C43.1253 87.7802 42.9434 87.7125 42.7582 87.6298C42.573 87.5438 42.4027 87.4329 42.2473 87.2973C42.0951 87.1584 41.971 86.9882 41.8751 86.7864C41.7792 86.5814 41.7313 86.3333 41.7313 86.0423C41.7313 85.6024 41.8438 85.2303 42.0687 84.926C42.2969 84.6184 42.6045 84.3869 42.9914 84.2315C43.3784 84.0727 43.8116 83.9933 44.2912 83.9933C44.774 84 45.2056 84.0859 45.5859 84.2513C45.9696 84.4167 46.2871 84.6548 46.5384 84.9657C46.7931 85.2733 46.9684 85.647 47.0643 86.0869L45.953 86.2754C45.9034 86.0075 45.7976 85.7777 45.6355 85.5859C45.4735 85.3907 45.275 85.2419 45.0402 85.1394C44.8054 85.0335 44.5507 84.9789 44.2762 84.9756C44.0116 84.969 43.7686 85.0087 43.547 85.0947C43.3288 85.1807 43.1535 85.3014 43.0212 85.4569C42.8922 85.6123 42.8276 85.7909 42.8276 85.9927C42.8276 86.1911 42.8856 86.3514 43.0013 86.4738C43.1171 86.5962 43.2593 86.6938 43.428 86.7666C43.6 86.836 43.7702 86.8938 43.9389 86.9401L45.2585 87.3123C45.4239 87.3586 45.6108 87.4214 45.8191 87.5008C46.0308 87.5769 46.2341 87.6843 46.4293 87.8232C46.6277 87.9621 46.7915 88.1473 46.9205 88.3788C47.0495 88.607 47.1139 88.8947 47.1139 89.242C47.1139 89.6025 47.0411 89.92 46.8956 90.1945C46.7501 90.4657 46.5501 90.6939 46.2954 90.8791C46.044 91.061 45.753 91.1983 45.4223 91.2909C45.0915 91.3835 44.7426 91.4299 44.3754 91.4299ZM49.7536 91.281V85.1145H47.3774V84.1373H53.1668V85.1145H50.7905V91.281H49.7536ZM56.7438 91.4299C56.0294 91.4299 55.4209 91.2744 54.9182 90.9635C54.4155 90.6493 54.0301 90.2128 53.7622 89.6538C53.4976 89.0949 53.3653 88.4467 53.3653 87.7092C53.3653 86.9716 53.4976 86.3234 53.7622 85.7645C54.0301 85.2055 54.4155 84.7706 54.9182 84.4597C55.4209 84.1455 56.0294 83.9884 56.7438 83.9884C57.4549 83.9884 58.0617 84.1455 58.5644 84.4597C59.0704 84.7706 59.4558 85.2055 59.7204 85.7645C59.9849 86.3234 60.1172 86.9716 60.1172 87.7092C60.1172 88.4467 59.9849 89.0949 59.7204 89.6538C59.4558 90.2128 59.0704 90.6493 58.5644 90.9635C58.0617 91.2744 57.4549 91.4299 56.7438 91.4299ZM56.7438 90.4426C57.2498 90.4492 57.6698 90.3384 58.0039 90.1102C58.3412 89.8787 58.5942 89.5579 58.7628 89.1478C58.9315 88.7344 59.0159 88.2549 59.0159 87.7092C59.0159 87.1634 58.9315 86.6872 58.7628 86.2804C58.5942 85.8703 58.3412 85.5511 58.0039 85.3229C57.6698 85.0947 57.2498 84.9789 56.7438 84.9756C56.2378 84.969 55.816 85.0799 55.4787 85.3081C55.1446 85.5363 54.8933 85.8571 54.7246 86.2705C54.5559 86.6839 54.47 87.1634 54.4667 87.7092C54.4633 88.2549 54.546 88.7327 54.7147 89.1428C54.8834 89.5496 55.1364 89.8671 55.4738 90.0953C55.8144 90.3235 56.2378 90.4393 56.7438 90.4426ZM60.9083 91.281V84.1373H63.7956C63.865 84.1373 63.951 84.1406 64.0536 84.1472C64.1561 84.1505 64.2537 84.1604 64.3463 84.177C64.7432 84.2398 65.0739 84.3754 65.3385 84.5838C65.6064 84.7921 65.8064 85.055 65.9387 85.3725C66.071 85.69 66.1372 86.0405 66.1372 86.4242C66.1372 86.993 65.9916 87.4842 65.7006 87.8977C65.4096 88.3078 64.973 88.564 64.3909 88.6665L63.9693 88.7162H61.9452V91.281H60.9083ZM65.0854 91.281L63.6765 88.3739L64.7234 88.106L66.2712 91.281H65.0854ZM61.9452 87.7339H63.7559C63.8221 87.7339 63.8948 87.7306 63.9742 87.724C64.0569 87.7174 64.1347 87.7058 64.2074 87.6893C64.4191 87.6397 64.5893 87.5487 64.7183 87.4164C64.8473 87.2808 64.9399 87.1253 64.9961 86.9501C65.0524 86.7748 65.0805 86.5995 65.0805 86.4242C65.0805 86.2489 65.0524 86.0753 64.9961 85.9034C64.9399 85.7281 64.8473 85.5742 64.7183 85.4419C64.5893 85.3063 64.4191 85.2137 64.2074 85.1641C64.1347 85.1443 64.0569 85.131 63.9742 85.1244C63.8948 85.1178 63.8221 85.1145 63.7559 85.1145H61.9452V87.7339ZM66.6669 91.281L68.9886 84.1373H70.4819L72.8036 91.281H71.727L69.5889 84.7624H69.8568L67.7434 91.281H66.6669ZM67.8724 89.6686V88.6963H71.6031V89.6686H67.8724ZM76.2233 91.4299C75.7438 91.4299 75.3023 91.3472 74.8988 91.1818C74.4953 91.0131 74.1448 90.7684 73.8471 90.4476C73.5495 90.1268 73.318 89.7365 73.1526 89.2768C72.9872 88.8171 72.9045 88.2945 72.9045 87.7092C72.9045 86.9386 73.045 86.2771 73.3262 85.7248C73.6073 85.1692 73.9975 84.7425 74.4969 84.4449C74.9963 84.1439 75.5718 83.9933 76.2233 83.9933C77.0634 83.9933 77.7332 84.1885 78.2326 84.5787C78.7353 84.969 79.0775 85.5081 79.2594 86.196L78.2077 86.3845C78.0622 85.9579 77.8274 85.6172 77.5033 85.3626C77.1791 85.1079 76.7724 84.9789 76.2829 84.9756C75.7769 84.9723 75.3552 85.0847 75.0179 85.313C74.6839 85.5412 74.4325 85.862 74.2638 86.2754C74.0952 86.6855 74.0092 87.1634 74.0059 87.7092C74.0026 88.2549 74.0852 88.7327 74.2539 89.1428C74.4226 89.5496 74.6755 89.8671 75.0129 90.0953C75.3535 90.3235 75.7769 90.4393 76.2829 90.4426C76.6897 90.4492 77.0387 90.3748 77.3297 90.2194C77.624 90.0606 77.8571 89.8291 78.0291 89.5249C78.2011 89.2206 78.312 88.8469 78.3616 88.4037H76.9725V87.5702H79.4629C79.4695 87.6298 79.4744 87.7091 79.4777 87.8084C79.481 87.9043 79.4827 87.9654 79.4827 87.9919C79.4827 88.6533 79.3553 89.2437 79.1007 89.763C78.846 90.2822 78.4756 90.6906 77.9894 90.9883C77.5033 91.2826 76.9146 91.4299 76.2233 91.4299ZM80.2731 91.281V84.1373H84.8371V85.1145H81.3098V87.1187H84.2418V88.0961H81.3098V90.3037H84.8371V91.281H80.2731ZM87.6179 91.281V84.1373H90.5052C90.5746 84.1373 90.6606 84.1406 90.7631 84.1472C90.8657 84.1505 90.9633 84.1604 91.0559 84.177C91.4528 84.2398 91.7835 84.3754 92.0481 84.5838C92.316 84.7921 92.516 85.055 92.6483 85.3725C92.7806 85.69 92.8467 86.0405 92.8467 86.4242C92.8467 86.993 92.7012 87.4842 92.4102 87.8977C92.1191 88.3078 91.6825 88.564 91.1005 88.6665L90.6789 88.7162H88.6548V91.281H87.6179ZM91.795 91.281L90.3861 88.3739L91.4329 88.106L92.9807 91.281H91.795ZM88.6548 87.7339H90.4655C90.5316 87.7339 90.6044 87.7306 90.6837 87.724C90.7664 87.7174 90.8442 87.7058 90.917 87.6893C91.1286 87.6397 91.2989 87.5487 91.4279 87.4164C91.5569 87.2808 91.6495 87.1253 91.7057 86.9501C91.7619 86.7748 91.7901 86.5995 91.7901 86.4242C91.7901 86.2489 91.7619 86.0753 91.7057 85.9034C91.6495 85.7281 91.5569 85.5742 91.4279 85.4419C91.2989 85.3063 91.1286 85.2137 90.917 85.1641C90.8442 85.1443 90.7664 85.131 90.6837 85.1244C90.6044 85.1178 90.5316 85.1145 90.4655 85.1145H88.6548V87.7339ZM96.8541 91.4299C96.1397 91.4299 95.5312 91.2744 95.0285 90.9635C94.5258 90.6493 94.1405 90.2128 93.8726 89.6538C93.6081 89.0949 93.4758 88.4467 93.4758 87.7092C93.4758 86.9716 93.6081 86.3234 93.8726 85.7645C94.1405 85.2055 94.5258 84.7706 95.0285 84.4597C95.5312 84.1455 96.1397 83.9884 96.8541 83.9884C97.5652 83.9884 98.1721 84.1455 98.6748 84.4597C99.1808 84.7706 99.5661 85.2055 99.8307 85.7645C100.095 86.3234 100.228 86.9716 100.228 87.7092C100.228 88.4467 100.095 89.0949 99.8307 89.6538C99.5661 90.2128 99.1808 90.6493 98.6748 90.9635C98.1721 91.2744 97.5652 91.4299 96.8541 91.4299ZM96.8541 90.4426C97.3601 90.4492 97.7801 90.3384 98.1142 90.1102C98.4515 89.8787 98.7046 89.5579 98.8733 89.1478C99.0419 88.7344 99.1262 88.2549 99.1262 87.7092C99.1262 87.1634 99.0419 86.6872 98.8733 86.2804C98.7046 85.8703 98.4515 85.5511 98.1142 85.3229C97.7801 85.0947 97.3601 84.9789 96.8541 84.9756C96.3481 84.969 95.9265 85.0799 95.5891 85.3081C95.2551 85.5363 95.0037 85.8571 94.8351 86.2705C94.6664 86.6839 94.5804 87.1634 94.5771 87.7092C94.5738 88.2549 94.6565 88.7327 94.8251 89.1428C94.9938 89.5496 95.2468 89.8671 95.5841 90.0953C95.9247 90.3235 96.3481 90.4393 96.8541 90.4426ZM104 91.4299C103.286 91.4299 102.677 91.2744 102.175 90.9635C101.672 90.6493 101.287 90.2128 101.019 89.6538C100.754 89.0949 100.622 88.4467 100.622 87.7092C100.622 86.9716 100.754 86.3234 101.019 85.7645C101.287 85.2055 101.672 84.7706 102.175 84.4597C102.677 84.1455 103.286 83.9884 104 83.9884C104.711 83.9884 105.318 84.1455 105.821 84.4597C106.327 84.7706 106.712 85.2055 106.977 85.7645C107.241 86.3234 107.374 86.9716 107.374 87.7092C107.374 88.4467 107.241 89.0949 106.977 89.6538C106.712 90.2128 106.327 90.6493 105.821 90.9635C105.318 91.2744 104.711 91.4299 104 91.4299ZM104 90.4426C104.506 90.4492 104.926 90.3384 105.26 90.1102C105.598 89.8787 105.851 89.5579 106.019 89.1478C106.188 88.7344 106.272 88.2549 106.272 87.7092C106.272 87.1634 106.188 86.6872 106.019 86.2804C105.851 85.8703 105.598 85.5511 105.26 85.3229C104.926 85.0947 104.506 84.9789 104 84.9756C103.494 84.969 103.072 85.0799 102.735 85.3081C102.401 85.5363 102.15 85.8571 101.981 86.2705C101.812 86.6839 101.726 87.1634 101.723 87.7092C101.72 88.2549 101.802 88.7327 101.971 89.1428C102.14 89.5496 102.393 89.8671 102.73 90.0953C103.071 90.3235 103.494 90.4393 104 90.4426ZM108.165 91.281V84.1373H109.102L111.692 89.5099L114.267 84.1373H115.214V91.276H114.232V86.3895L111.925 91.281H111.454L109.142 86.3895V91.281H108.165Z" fill="white"/>
<path d="M45.6469 97.1952C46.9719 95.959 49.0275 95.959 50.3525 97.1952L54.4916 101.057C55.4483 101.949 56.8276 102.224 58.0531 101.765L63.3548 99.7815C65.052 99.1465 66.9511 99.9332 67.7022 101.582L70.0485 106.734C70.5908 107.924 71.7602 108.706 73.0678 108.751L78.725 108.947C80.536 109.01 81.9896 110.464 82.0524 112.275L82.2487 117.932C82.2941 119.24 83.0754 120.409 84.2661 120.951L89.4176 123.298C91.0667 124.049 91.8534 125.948 91.2184 127.645L89.2348 132.947C88.7763 134.172 89.0507 135.552 89.9432 136.508L93.8047 140.647C95.0408 141.972 95.0408 144.028 93.8047 145.353L89.9432 149.492C89.0507 150.449 88.7763 151.828 89.2348 153.054L91.2184 158.355C91.8534 160.052 91.0667 161.952 89.4176 162.703L84.2661 165.049C83.0754 165.591 82.2941 166.761 82.2487 168.068L82.0524 173.725C81.9896 175.536 80.536 176.99 78.725 177.053L73.0678 177.249C71.7602 177.295 70.5908 178.076 70.0485 179.267L67.7022 184.418C66.9511 186.067 65.052 186.854 63.3548 186.219L58.0531 184.235C56.8276 183.777 55.4483 184.051 54.4916 184.944L50.3525 188.805C49.0275 190.041 46.9719 190.041 45.6469 188.805L41.5078 184.944C40.5511 184.051 39.1718 183.777 37.9463 184.235L32.6446 186.219C30.9474 186.854 29.0483 186.067 28.2972 184.418L25.9509 179.267C25.4086 178.076 24.2392 177.295 22.9316 177.249L17.2744 177.053C15.4634 176.99 14.0098 175.536 13.947 173.725L13.7507 168.068C13.7053 166.761 12.924 165.591 11.7333 165.049L6.58178 162.703C4.93267 161.952 4.14601 160.052 4.781 158.355L6.76456 153.054C7.22304 151.828 6.94867 150.449 6.05614 149.492L2.19469 145.353C0.958541 144.028 0.958543 141.972 2.19469 140.647L6.05615 136.508C6.94867 135.552 7.22304 134.172 6.76456 132.947L4.781 127.645C4.14601 125.948 4.93267 124.049 6.58178 123.298L11.7333 120.951C12.924 120.409 13.7053 119.24 13.7507 117.932L13.947 112.275C14.0098 110.464 15.4634 109.01 17.2744 108.947L22.9316 108.751C24.2392 108.706 25.4086 107.924 25.9509 106.734L28.2972 101.582C29.0483 99.9332 30.9474 99.1465 32.6446 99.7815L37.9463 101.765C39.1718 102.224 40.5511 101.949 41.5078 101.057L45.6469 97.1952Z" fill="white"/>
<path d="M46.1864 101.011C47.2079 100.058 48.7928 100.058 49.8144 101.011L53.6439 104.583C54.6765 105.547 56.1654 105.843 57.4881 105.348L62.3932 103.513C63.7017 103.023 65.166 103.63 65.7451 104.901L67.9159 109.667C68.5012 110.953 69.7634 111.796 71.1748 111.845L76.4089 112.026C77.8051 112.075 78.9258 113.196 78.9743 114.592L79.1559 119.826C79.2049 121.237 80.0481 122.5 81.3335 123.085L86.0996 125.256C87.371 125.835 87.9775 127.299 87.488 128.608L85.6528 133.513C85.1579 134.835 85.454 136.324 86.4174 137.357L89.9901 141.186C90.9431 142.208 90.9431 143.793 89.99 144.814L86.4174 148.644C85.454 149.676 85.1579 151.165 85.6528 152.488L87.488 157.393C87.9775 158.702 87.371 160.166 86.0996 160.745L81.3335 162.916C80.0481 163.501 79.2049 164.763 79.1559 166.175L78.9743 171.409C78.9258 172.805 77.8051 173.926 76.4088 173.974L71.1748 174.156C69.7634 174.205 68.5012 175.048 67.9158 176.333L65.7451 181.1C65.166 182.371 63.7017 182.977 62.3932 182.488L57.4881 180.653C56.1654 180.158 54.6765 180.454 53.6439 181.417L49.8144 184.99C48.7928 185.943 47.2079 185.943 46.1864 184.99L42.3569 181.417C41.3243 180.454 39.8354 180.158 38.5127 180.653L33.6076 182.488C32.2991 182.977 30.8348 182.371 30.2557 181.1L28.0849 176.333C27.4996 175.048 26.2374 174.205 24.826 174.156L19.5919 173.974C18.1957 173.926 17.075 172.805 17.0265 171.409L16.8449 166.175C16.7959 164.763 15.9526 163.501 14.6673 162.916L9.90116 160.745C8.62971 160.166 8.02319 158.702 8.51277 157.393L10.348 152.488C10.8429 151.165 10.5467 149.676 9.58329 148.644L6.01069 144.814C5.05763 143.793 5.05763 142.208 6.01069 141.186L9.58329 137.357C10.5467 136.324 10.8429 134.835 10.348 133.513L8.51277 128.608C8.02319 127.299 8.62971 125.835 9.90117 125.256L14.6673 123.085C15.9526 122.5 16.7959 121.237 16.8449 119.826L17.0265 114.592C17.075 113.196 18.1957 112.075 19.5919 112.026L24.826 111.845C26.2374 111.796 27.4996 110.953 28.0849 109.667L30.2557 104.901C30.8348 103.63 32.2991 103.023 33.6076 103.513L38.5127 105.348C39.8354 105.843 41.3243 105.547 42.3569 104.583L46.1864 101.011Z" fill="white"/>
<path d="M65.7451 104.901C65.166 103.63 63.7017 103.023 62.3932 103.513L57.4881 105.348C56.1654 105.843 54.6765 105.547 53.6439 104.583L49.8144 101.011C48.7928 100.058 47.2079 100.058 46.1864 101.011L42.3569 104.583C41.3243 105.547 39.8354 105.843 38.5127 105.348L33.6076 103.513C32.2991 103.023 30.8348 103.63 30.2557 104.901L28.0849 109.667C27.4996 110.953 26.2374 111.796 24.826 111.845L19.5919 112.026C18.1957 112.075 17.075 113.196 17.0265 114.592L16.8449 119.826C16.7959 121.237 15.9526 122.5 14.6673 123.085L9.90117 125.256C8.62971 125.835 8.02319 127.299 8.51277 128.608L10.348 133.513C10.8429 134.835 10.5467 136.324 9.58329 137.357L6.01069 141.186C5.05763 142.208 5.05763 143.793 6.01069 144.814L9.58329 148.644C10.5467 149.676 10.8429 151.165 10.348 152.488L8.51277 157.393C8.02319 158.702 8.62971 160.166 9.90116 160.745L14.6673 162.916C15.9526 163.501 16.7959 164.763 16.8449 166.175L17.0265 171.409C17.075 172.805 18.1957 173.926 19.5919 173.974L24.826 174.156C26.2374 174.205 27.4996 175.048 28.0849 176.333L30.2557 181.1C30.8348 182.371 32.2991 182.977 33.6076 182.488L38.5127 180.653C39.8354 180.158 41.3243 180.454 42.3569 181.417L46.1864 184.99C47.2079 185.943 48.7928 185.943 49.8144 184.99L53.6439 181.417C54.6765 180.454 56.1654 180.158 57.4881 180.653L62.3932 182.488C63.7017 182.977 65.166 182.371 65.7451 181.1L67.9158 176.333C68.5012 175.048 69.7634 174.205 71.1748 174.156L76.4088 173.974C77.8051 173.926 78.9258 172.805 78.9743 171.409L79.1559 166.175C79.2049 164.763 80.0482 163.501 81.3335 162.916L86.0996 160.745C87.371 160.166 87.9775 158.702 87.488 157.393L85.6528 152.488C85.1579 151.165 85.454 149.676 86.4174 148.644L89.99 144.814C90.9431 143.793 90.9431 142.208 89.9901 141.186L86.4174 137.357C85.4541 136.324 85.1579 134.835 85.6528 133.513L87.488 128.608C87.9775 127.299 87.371 125.835 86.0996 125.256L81.3335 123.085C80.0482 122.5 79.2049 121.237 79.1559 119.826L78.9743 114.592C78.9258 113.196 77.8051 112.075 76.4089 112.026L71.1748 111.845C69.7634 111.796 68.5012 110.953 67.9159 109.667L65.7451 104.901ZM65.7451 104.901L66.229 104.681" stroke="#4760FF" stroke-width="1.0637"/>
<path d="M69 124H27V142H69V124Z" fill="white"/>
<path d="M28.6865 140V127.242H36.4831V129.652H31.0964V132.416H35.42V134.826H31.0964V140H28.6865ZM37.7284 140V127.242H43.1151C43.2391 127.242 43.4045 127.248 43.6112 127.259C43.8239 127.265 44.0129 127.283 44.1783 127.313C44.9402 127.431 45.5633 127.682 46.0477 128.066C46.5379 128.45 46.8982 128.934 47.1286 129.519C47.3589 130.097 47.4741 130.744 47.4741 131.459C47.4741 132.528 47.2083 133.444 46.6767 134.205C46.1451 134.961 45.3123 135.428 44.1783 135.605L43.1151 135.676H40.1382V140H37.7284ZM44.9225 140L42.4063 134.808L44.887 134.329L47.6513 140H44.9225ZM40.1382 133.426H43.0088C43.1328 133.426 43.2687 133.42 43.4163 133.408C43.564 133.396 43.6998 133.373 43.8239 133.337C44.1487 133.249 44.3998 133.101 44.577 132.894C44.7541 132.682 44.8752 132.448 44.9402 132.194C45.0111 131.934 45.0465 131.689 45.0465 131.459C45.0465 131.229 45.0111 130.986 44.9402 130.732C44.8752 130.473 44.7541 130.239 44.577 130.033C44.3998 129.82 44.1487 129.669 43.8239 129.581C43.6998 129.545 43.564 129.522 43.4163 129.51C43.2687 129.498 43.1328 129.492 43.0088 129.492H40.1382V133.426ZM49.2447 140V127.242H57.5729V129.492H51.6545V132.221H56.5097V134.471H51.6545V137.749H57.5729V140H49.2447ZM59.342 140V127.242H67.6702V129.492H61.7519V132.221H66.607V134.471H61.7519V137.749H67.6702V140H59.342Z" fill="#4760FF"/>
<path d="M23.3916 155V145.57H27.1177C27.2094 145.57 27.3186 145.574 27.4452 145.583C27.5718 145.587 27.694 145.601 27.8119 145.622C28.3227 145.701 28.7505 145.876 29.0954 146.146C29.4447 146.417 29.7066 146.76 29.8813 147.174C30.0559 147.585 30.1432 148.041 30.1432 148.543C30.1432 149.041 30.0537 149.497 29.8747 149.912C29.7001 150.322 29.4382 150.665 29.0889 150.94C28.744 151.211 28.3183 151.385 27.8119 151.464C27.694 151.481 27.5718 151.494 27.4452 151.503C27.3186 151.512 27.2094 151.516 27.1177 151.516H24.5572V155H23.3916ZM24.5572 150.409H27.0785C27.1614 150.409 27.2553 150.405 27.36 150.396C27.4692 150.388 27.5718 150.372 27.6678 150.351C27.9691 150.281 28.2136 150.154 28.4013 149.971C28.5934 149.783 28.7331 149.565 28.8204 149.316C28.9077 149.063 28.9514 148.805 28.9514 148.543C28.9514 148.281 28.9077 148.026 28.8204 147.777C28.7331 147.524 28.5934 147.303 28.4013 147.115C28.2136 146.928 27.9691 146.801 27.6678 146.736C27.5718 146.709 27.4692 146.694 27.36 146.69C27.2553 146.681 27.1614 146.677 27.0785 146.677H24.5572V150.409ZM31.3185 155V145.57H32.4842V155H31.3185ZM38.0639 155.197C37.1253 155.197 36.3285 154.989 35.6737 154.574C35.0188 154.16 34.5189 153.583 34.174 152.846C33.8335 152.108 33.6632 151.254 33.6632 150.285C33.6632 149.316 33.8335 148.462 34.174 147.725C34.5189 146.987 35.0188 146.41 35.6737 145.996C36.3285 145.581 37.1253 145.374 38.0639 145.374C39.1554 145.374 40.0525 145.651 40.7554 146.205C41.4627 146.76 41.9494 147.506 42.2158 148.445L41.0305 148.759C40.8384 148.056 40.4956 147.502 40.0023 147.096C39.509 146.69 38.8628 146.487 38.0639 146.487C37.361 146.487 36.776 146.646 36.3089 146.965C35.8417 147.284 35.4903 147.729 35.2545 148.301C35.0188 148.868 34.8987 149.53 34.8944 150.285C34.89 151.036 35.0057 151.697 35.2414 152.269C35.4772 152.837 35.8308 153.282 36.3023 153.605C36.7738 153.924 37.361 154.083 38.0639 154.083C38.8628 154.083 39.509 153.88 40.0023 153.474C40.4956 153.064 40.8384 152.509 41.0305 151.811L42.2158 152.125C41.9494 153.059 41.4627 153.806 40.7554 154.365C40.0525 154.919 39.1554 155.197 38.0639 155.197ZM43.39 155V145.57H44.5557V149.997L48.6813 145.57H50.1482L45.8654 150.148L50.4822 155H48.976L44.5557 150.39V155H43.39ZM51.0038 150.763V149.8H54.933V150.763H51.0038ZM60.0923 155.197C59.3633 155.197 58.7193 155.046 58.1605 154.745C57.6017 154.443 57.1629 154.022 56.8442 153.481C56.5299 152.935 56.3727 152.295 56.3727 151.562V145.577L57.5515 145.57V151.464C57.5515 151.909 57.6257 152.298 57.7741 152.629C57.9269 152.957 58.1277 153.23 58.3766 153.448C58.6254 153.666 58.8983 153.83 59.1952 153.939C59.4964 154.044 59.7955 154.096 60.0923 154.096C60.3936 154.096 60.6948 154.042 60.9961 153.933C61.2973 153.823 61.5702 153.662 61.8146 153.448C62.0635 153.23 62.2621 152.955 62.4106 152.623C62.559 152.291 62.6332 151.905 62.6332 151.464V145.57H63.812V151.562C63.812 152.291 63.6526 152.928 63.3339 153.474C63.0196 154.02 62.583 154.443 62.0242 154.745C61.4654 155.046 60.8214 155.197 60.0923 155.197ZM65.3837 155V145.57H69.1099C69.2016 145.57 69.3108 145.574 69.4374 145.583C69.564 145.587 69.6862 145.601 69.8041 145.622C70.3149 145.701 70.7427 145.876 71.0876 146.146C71.4369 146.417 71.6988 146.76 71.8735 147.174C72.0481 147.585 72.1354 148.041 72.1354 148.543C72.1354 149.041 72.0459 149.497 71.8669 149.912C71.6923 150.322 71.4303 150.665 71.0811 150.94C70.7362 151.211 70.3105 151.385 69.8041 151.464C69.6862 151.481 69.564 151.494 69.4374 151.503C69.3108 151.512 69.2016 151.516 69.1099 151.516H66.5494V155H65.3837ZM66.5494 150.409H69.0706C69.1536 150.409 69.2474 150.405 69.3522 150.396C69.4614 150.388 69.564 150.372 69.66 150.351C69.9613 150.281 70.2057 150.154 70.3935 149.971C70.5856 149.783 70.7253 149.565 70.8126 149.316C70.8999 149.063 70.9435 148.805 70.9435 148.543C70.9435 148.281 70.8999 148.026 70.8126 147.777C70.7253 147.524 70.5856 147.303 70.3935 147.115C70.2057 146.928 69.9613 146.801 69.66 146.736C69.564 146.709 69.4614 146.694 69.3522 146.69C69.2474 146.681 69.1536 146.677 69.0706 146.677H66.5494V150.409Z" fill="#4760FF"/>
</svg>
