<svg width="142" height="191" viewBox="0 0 142 191" fill="none" xmlns="http://www.w3.org/2000/svg">
<path d="M75.3878 2.90373C77.1407 1.26842 79.8601 1.26842 81.6129 2.90373L87.0886 8.01212C88.3543 9.19285 90.179 9.55582 91.8002 8.94929L98.8139 6.3252C101.059 5.48517 103.572 6.52585 104.565 8.70749L107.669 15.5225C108.387 17.0977 109.934 18.1313 111.663 18.1913L119.147 18.451C121.543 18.5341 123.466 20.4571 123.549 22.8529L123.809 30.3369C123.869 32.0667 124.903 33.6137 126.478 34.3312L133.293 37.4351C135.474 38.4288 136.515 40.9411 135.675 43.1864L133.051 50.2001C132.444 51.8213 132.807 53.646 133.988 54.9116L139.097 60.3873C140.732 62.1402 140.732 64.8596 139.097 66.6124L133.988 72.0881C132.807 73.3538 132.444 75.1785 133.051 76.7997L135.675 83.8134C136.515 86.0587 135.474 88.571 133.293 89.5647L126.478 92.6686C124.903 93.386 123.869 94.9331 123.809 96.6629L123.549 104.147C123.466 106.543 121.543 108.466 119.147 108.549L111.663 108.808C109.934 108.869 108.387 109.902 107.669 111.477L104.565 118.292C103.572 120.474 101.059 121.515 98.8139 120.675L91.8002 118.05C90.179 117.444 88.3543 117.807 87.0886 118.988L81.6129 124.096C79.8601 125.731 77.1407 125.731 75.3878 124.096L69.9121 118.988C68.6465 117.807 66.8218 117.444 65.2006 118.05L58.1869 120.675C55.9416 121.515 53.4293 120.474 52.4356 118.292L49.3317 111.477C48.6142 109.902 47.0672 108.869 45.3374 108.808L37.8534 108.549C35.4576 108.466 33.5346 106.543 33.4515 104.147L33.1918 96.6629C33.1317 94.9331 32.0981 93.386 30.523 92.6686L23.708 89.5647C21.5263 88.571 20.4857 86.0587 21.3257 83.8134L23.9498 76.7997C24.5563 75.1785 24.1933 73.3538 23.0126 72.0881L17.9042 66.6124C16.2689 64.8596 16.2689 62.1402 17.9042 60.3873L23.0126 54.9116C24.1933 53.646 24.5563 51.8213 23.9498 50.2001L21.3257 43.1864C20.4857 40.9411 21.5263 38.4288 23.708 37.4351L30.523 34.3312C32.0981 33.6137 33.1317 32.0667 33.1918 30.3369L33.4515 22.8529C33.5346 20.4571 35.4576 18.5341 37.8534 18.451L45.3374 18.1913C47.0672 18.1313 48.6142 17.0977 49.3317 15.5225L52.4356 8.70749C53.4293 6.52585 55.9416 5.48517 58.1869 6.3252L65.2006 8.94929C66.8218 9.55582 68.6465 9.19285 69.9121 8.01211L75.3878 2.90373Z" fill="#4760FF"/>
<path d="M80.9001 7.95147L85.9662 12.6777C87.3322 13.9522 89.3019 14.344 91.0517 13.6893L97.5408 11.2615C99.2718 10.6138 101.209 11.4162 101.975 13.0983L104.847 19.4034C105.621 21.1037 107.291 22.2193 109.158 22.2842L116.082 22.5244C117.929 22.5886 119.412 24.0712 119.476 25.9182L119.716 32.8425C119.781 34.7097 120.897 36.3794 122.597 37.1537L128.902 40.0255C130.584 40.7916 131.387 42.7288 130.739 44.4598L128.311 50.9489C127.657 52.6987 128.048 54.6684 129.323 56.0344L134.049 61.1005C135.31 62.4519 135.31 64.5486 134.049 65.9001L129.323 70.9662C128.048 72.3322 127.657 74.3019 128.311 76.0517L130.739 82.5408C131.387 84.2718 130.584 86.209 128.902 86.9751L122.597 89.8467C120.897 90.6212 119.781 92.2909 119.716 94.1581L119.476 101.082C119.412 102.929 117.929 104.412 116.082 104.476L109.158 104.716C107.291 104.781 105.621 105.897 104.847 107.597L101.975 113.902C101.209 115.584 99.2718 116.387 97.5408 115.739L91.0517 113.311C89.3019 112.657 87.3322 113.048 85.9662 114.323L80.9001 119.049C79.5486 120.31 77.4519 120.31 76.1005 119.049L71.0344 114.323C69.6684 113.048 67.6987 112.657 65.9489 113.311L59.4598 115.739C57.7288 116.387 55.7916 115.584 55.0255 113.902L52.1537 107.597C51.3794 105.897 49.7097 104.781 47.8425 104.716L40.9182 104.476C39.0712 104.412 37.5886 102.929 37.5244 101.082L37.2842 94.1581C37.2193 92.2909 36.1037 90.6212 34.4034 89.8467L28.0982 86.9751C26.4162 86.209 25.6138 84.2718 26.2615 82.5408L28.6893 76.0517C29.344 74.3019 28.9522 72.3322 27.6777 70.9662L22.9515 65.9001C21.6907 64.5486 21.6907 62.4519 22.9515 61.1005L27.6777 56.0344C28.9522 54.6684 29.344 52.6987 28.6893 50.9489L26.2615 44.4598C25.6138 42.7288 26.4162 40.7916 28.0983 40.0255L34.4034 37.1537C36.1037 36.3794 37.2193 34.7097 37.2842 32.8425L37.5244 25.9182C37.5886 24.0712 39.0712 22.5886 40.9182 22.5244L47.8425 22.2842C49.7097 22.2193 51.3794 21.1037 52.1537 19.4034L55.0255 13.0982C55.7916 11.4162 57.7288 10.6138 59.4598 11.2615L65.9489 13.6893C67.6987 14.344 69.6684 13.9522 71.0344 12.6777L76.1005 7.95147C77.4519 6.69065 79.5486 6.69065 80.9001 7.95147Z" fill="#4760FF" stroke="white" stroke-width="1.0637"/>
<path d="M63.3976 46.543C62.7309 46.543 62.095 46.4104 61.49 46.1448C60.8849 45.8732 60.357 45.4936 59.9064 45.0058C59.4619 44.5181 59.1439 43.9439 58.9526 43.2834L61.3974 42.6351C61.527 43.1229 61.7801 43.5026 62.1567 43.7742C62.5394 44.0397 62.9531 44.1724 63.3976 44.1724C63.7803 44.1724 64.1292 44.0798 64.4441 43.8946C64.765 43.7094 65.0182 43.4593 65.2034 43.1445C65.3947 42.8296 65.4905 42.4808 65.4905 42.098C65.4905 41.5239 65.2928 41.0331 64.8978 40.6256C64.5089 40.212 64.0088 40.0052 63.3976 40.0052C63.2124 40.0052 63.0333 40.033 62.8605 40.0885C62.6876 40.1379 62.5209 40.2089 62.3605 40.3015L61.2307 38.3198L65.472 34.8008L65.6572 35.3379H59.4712V32.9673H67.8056V35.3379L64.5089 38.5235L64.4904 37.8197C65.2558 37.9371 65.901 38.2056 66.4258 38.6254C66.9567 39.0391 67.3579 39.5514 67.6296 40.1626C67.9075 40.7676 68.0464 41.4128 68.0464 42.098C68.0464 42.9377 67.8334 43.6939 67.4074 44.3668C66.9814 45.0336 66.4165 45.5645 65.7127 45.9596C65.0089 46.3486 64.2371 46.543 63.3976 46.543ZM75.0253 46.5801C74.0376 46.5801 73.1732 46.3733 72.4324 45.9596C71.6915 45.546 71.1143 44.9688 70.7007 44.2279C70.2871 43.4871 70.0802 42.6228 70.0802 41.635V37.6345C70.0802 36.6467 70.2871 35.7824 70.7007 35.0416C71.1143 34.3008 71.6915 33.7236 72.4324 33.3099C73.1732 32.8962 74.0376 32.6895 75.0253 32.6895C76.0131 32.6895 76.8773 32.8962 77.6182 33.3099C78.359 33.7236 78.9363 34.3008 79.3499 35.0416C79.7636 35.7824 79.9703 36.6467 79.9703 37.6345V41.635C79.9703 42.6228 79.7636 43.4871 79.3499 44.2279C78.9363 44.9688 78.359 45.546 77.6182 45.9596C76.8773 46.3733 76.0131 46.5801 75.0253 46.5801ZM75.0253 44.1909C75.4698 44.1909 75.8711 44.086 76.2291 43.876C76.5872 43.6661 76.8713 43.3822 77.0811 43.0241C77.291 42.666 77.3959 42.2647 77.3959 41.8202V37.4308C77.3959 36.9863 77.291 36.585 77.0811 36.2269C76.8713 35.8688 76.5872 35.5849 76.2291 35.375C75.8711 35.165 75.4698 35.0601 75.0253 35.0601C74.5808 35.0601 74.1795 35.165 73.8214 35.375C73.4634 35.5849 73.1794 35.8688 72.9695 36.2269C72.7596 36.585 72.6546 36.9863 72.6546 37.4308V41.8202C72.6546 42.2647 72.7596 42.666 72.9695 43.0241C73.1794 43.3822 73.4634 43.6661 73.8214 43.876C74.1795 44.086 74.5808 44.1909 75.0253 44.1909ZM84.227 46.3023L82.5601 44.6354L94.2282 32.9673L95.8951 34.6527L84.227 46.3023ZM93.1169 46.5801C92.5058 46.5801 91.9471 46.4319 91.4408 46.1356C90.9408 45.833 90.5395 45.4318 90.237 44.9317C89.9345 44.4254 89.7832 43.8637 89.7832 43.2463C89.7832 42.6414 89.9376 42.0857 90.2462 41.5795C90.555 41.0732 90.9625 40.6689 91.4686 40.3663C91.9749 40.0638 92.5243 39.9126 93.1169 39.9126C93.7281 39.9126 94.2869 40.0638 94.7931 40.3663C95.2994 40.6627 95.7006 41.0639 95.9969 41.5702C96.2995 42.0703 96.4507 42.6289 96.4507 43.2463C96.4507 43.8637 96.2995 44.4254 95.9969 44.9317C95.7006 45.4318 95.2994 45.833 94.7931 46.1356C94.2869 46.4319 93.7281 46.5801 93.1169 46.5801ZM93.1169 44.4502C93.3331 44.4502 93.5306 44.3946 93.7096 44.2835C93.8948 44.1724 94.043 44.0272 94.1541 43.8483C94.2652 43.663 94.3208 43.4624 94.3208 43.2463C94.3208 43.0303 94.2652 42.8327 94.1541 42.6537C94.043 42.4685 93.8948 42.3203 93.7096 42.2092C93.5306 42.098 93.3331 42.0425 93.1169 42.0425C92.9009 42.0425 92.7002 42.098 92.515 42.2092C92.336 42.3203 92.1909 42.4685 92.0798 42.6537C91.9687 42.8327 91.9131 43.0303 91.9131 43.2463C91.9131 43.4624 91.9687 43.663 92.0798 43.8483C92.1909 44.0272 92.336 44.1724 92.515 44.2835C92.7002 44.3946 92.9009 44.4502 93.1169 44.4502ZM85.3382 39.357C84.727 39.357 84.1683 39.2088 83.6621 38.9125C83.1559 38.6099 82.7515 38.2087 82.449 37.7086C82.1526 37.2023 82.0045 36.6406 82.0045 36.0232C82.0045 35.4182 82.1588 34.8626 82.4675 34.3563C82.7762 33.85 83.1837 33.4458 83.6898 33.1432C84.1961 32.8407 84.7455 32.6895 85.3382 32.6895C85.9494 32.6895 86.505 32.8407 87.0051 33.1432C87.5114 33.4395 87.9158 33.8408 88.2182 34.3471C88.5207 34.8471 88.672 35.4058 88.672 36.0232C88.672 36.6406 88.5207 37.2023 88.2182 37.7086C87.9158 38.2087 87.5114 38.6099 87.0051 38.9125C86.505 39.2088 85.9494 39.357 85.3382 39.357ZM85.3382 37.2271C85.5544 37.2271 85.7519 37.1715 85.9309 37.0604C86.1161 36.9492 86.2642 36.8041 86.3754 36.6251C86.4865 36.4399 86.5421 36.2392 86.5421 36.0232C86.5421 35.8072 86.4865 35.6095 86.3754 35.4305C86.2642 35.2453 86.1161 35.0972 85.9309 34.986C85.7519 34.8749 85.5544 34.8194 85.3382 34.8194C85.1222 34.8194 84.9215 34.8749 84.7363 34.986C84.5573 35.0972 84.4122 35.2453 84.301 35.4305C84.1899 35.6095 84.1343 35.8072 84.1343 36.0232C84.1343 36.2392 84.1899 36.4399 84.301 36.6251C84.4122 36.8041 84.5573 36.9492 84.7363 37.0604C84.9215 37.1715 85.1222 37.2271 85.3382 37.2271ZM35.1055 63.5002V53.0227H36.8808L40.3442 59.9786L43.8076 53.0227H45.583V63.5002H43.7349V57.2428L40.6935 63.5002H39.995L36.9536 57.2428V63.5002H35.1055ZM52.2239 51.9313H50.7541L51.9619 49.0936H53.4317L52.2239 51.9313ZM46.6068 63.5002L49.8082 53.0227H52.7623L55.9638 63.5002H53.9265L51.0743 54.2596H51.4526L48.6441 63.5002H46.6068ZM48.5276 61.3174V59.4693H54.0574V61.3174H48.5276ZM60.6507 63.7185C59.8746 63.7185 59.1737 63.5826 58.5479 63.311C57.9271 63.0345 57.4153 62.6416 57.0127 62.1323C56.6149 61.6181 56.3628 61.0069 56.256 60.2987L58.3224 59.9931C58.4679 60.5947 58.7686 61.0578 59.2246 61.3829C59.6806 61.7079 60.1996 61.8704 60.7817 61.8704C61.1067 61.8704 61.422 61.8194 61.7276 61.7176C62.0332 61.6157 62.2829 61.4653 62.477 61.2664C62.6758 61.0676 62.7753 60.8226 62.7753 60.5316C62.7753 60.4248 62.7584 60.3229 62.7244 60.226C62.6953 60.1241 62.6444 60.0295 62.5716 59.9422C62.4988 59.8549 62.3946 59.7725 62.2587 59.6948C62.1278 59.6172 61.9604 59.5469 61.7567 59.4838L59.0354 58.6834C58.8317 58.6252 58.594 58.5428 58.3224 58.4361C58.0556 58.3293 57.7961 58.1765 57.5439 57.9777C57.2916 57.7788 57.0806 57.5169 56.9108 57.1919C56.7459 56.8621 56.6635 56.4473 56.6635 55.9477C56.6635 55.2443 56.8405 54.6598 57.1946 54.1941C57.5487 53.7285 58.0217 53.3816 58.6134 53.1537C59.2052 52.9257 59.86 52.8141 60.578 52.819C61.3007 52.8286 61.9459 52.9523 62.5134 53.19C63.0809 53.4278 63.5562 53.7745 63.9395 54.2305C64.3227 54.6816 64.5992 55.2346 64.769 55.8894L62.6298 56.2532C62.5522 55.9137 62.4091 55.6275 62.2005 55.3947C61.9919 55.1618 61.7421 54.9848 61.4511 54.8635C61.1649 54.7422 60.8641 54.6767 60.5489 54.6671C60.2384 54.6574 59.945 54.7011 59.6685 54.798C59.3969 54.8902 59.1737 55.026 58.9991 55.2055C58.8293 55.385 58.7444 55.5984 58.7444 55.8458C58.7444 56.0737 58.8148 56.2605 58.9554 56.406C59.096 56.5467 59.2732 56.6607 59.4866 56.748C59.6999 56.8353 59.9182 56.9081 60.1414 56.9663L61.9604 57.4611C62.232 57.5338 62.5328 57.6308 62.8626 57.7521C63.1924 57.8685 63.5078 58.0335 63.8085 58.2469C64.1141 58.4555 64.3639 58.732 64.558 59.0763C64.7568 59.4207 64.8563 59.8573 64.8563 60.386C64.8563 60.9487 64.7375 61.4411 64.4998 61.8631C64.2669 62.2802 63.9517 62.6271 63.5539 62.9035C63.1561 63.1751 62.7049 63.3789 62.2005 63.5147C61.7009 63.6506 61.1843 63.7185 60.6507 63.7185ZM68.7867 63.5002V53.0227H72.9777C73.7247 53.0227 74.3286 53.1731 74.7894 53.4738C75.2503 53.7697 75.5874 54.1432 75.8008 54.5943C76.0143 55.0454 76.1209 55.5014 76.1209 55.9622C76.1209 56.5492 75.9876 57.0367 75.7207 57.4247C75.4588 57.8127 75.0975 58.0723 74.6366 58.2032V57.8394C75.2914 57.9753 75.7815 58.2784 76.1064 58.7489C76.4363 59.2195 76.6011 59.7457 76.6011 60.3278C76.6011 60.9536 76.4847 61.5042 76.2519 61.9795C76.0239 62.4548 75.6747 62.8284 75.2041 63.1C74.7337 63.3668 74.1418 63.5002 73.4288 63.5002H68.7867ZM70.7948 61.6375H73.225C73.4919 61.6375 73.7296 61.5817 73.9381 61.4702C74.1467 61.3538 74.3092 61.1937 74.4256 60.99C74.5469 60.7813 74.6075 60.5365 74.6075 60.2551C74.6075 60.0077 74.5566 59.787 74.4547 59.593C74.3528 59.3989 74.1977 59.2461 73.989 59.1346C73.7853 59.0181 73.5306 58.9599 73.225 58.9599H70.7948V61.6375ZM70.7948 57.1118H72.9486C73.1717 57.1118 73.3706 57.0731 73.5452 56.9954C73.7198 56.9177 73.8581 56.799 73.9599 56.6389C74.0618 56.4739 74.1127 56.2629 74.1127 56.0059C74.1127 55.6857 74.0134 55.4165 73.8144 55.1982C73.6156 54.9799 73.3269 54.8708 72.9486 54.8708H70.7948V57.1118ZM77.0337 63.5002L80.2352 53.0227H83.1893L86.3907 63.5002H84.3534L81.5012 54.2596H81.8796L79.071 63.5002H77.0337ZM78.9546 61.3174V59.4693H84.4844V61.3174H78.9546ZM87.4037 63.5002V53.0227H91.8275C91.9294 53.0227 92.0652 53.0276 92.235 53.0372C92.4096 53.0421 92.5649 53.0567 92.7006 53.0809C93.3264 53.1779 93.8382 53.3841 94.2359 53.6994C94.6386 54.0146 94.9344 54.4124 95.1235 54.8926C95.3127 55.368 95.4073 55.8991 95.4073 56.4861C95.4073 57.3641 95.189 58.1159 94.7525 58.7417C94.3159 59.3625 93.632 59.7457 92.7006 59.8913L91.8275 59.9495H89.3828V63.5002H87.4037ZM93.3118 63.5002L91.2454 59.2364L93.2827 58.8435L95.5528 63.5002H93.3118ZM89.3828 58.1014H91.7402C91.8421 58.1014 91.9537 58.0965 92.0749 58.0868C92.1962 58.0772 92.3077 58.0577 92.4096 58.0286C92.6764 57.9558 92.8825 57.8345 93.028 57.6648C93.1736 57.4902 93.2731 57.2986 93.3264 57.09C93.3846 56.8766 93.4137 56.6753 93.4137 56.4861C93.4137 56.2969 93.3846 56.0981 93.3264 55.8894C93.2731 55.6761 93.1736 55.4844 93.028 55.3146C92.8825 55.14 92.6764 55.0163 92.4096 54.9436C92.3077 54.9145 92.1962 54.895 92.0749 54.8853C91.9537 54.8757 91.8421 54.8708 91.7402 54.8708H89.3828V58.1014ZM96.1339 63.5002L99.3353 53.0227H102.289L105.491 63.5002H103.454L100.601 54.2596H100.98L98.1712 63.5002H96.1339ZM98.0547 61.3174V59.4693H103.585V61.3174H98.0547ZM108.067 63.5002V54.8708H104.764V53.0227H113.35V54.8708H110.046V63.5002H108.067ZM118.725 63.7185C117.677 63.7185 116.772 63.4905 116.011 63.0345C115.254 62.5785 114.669 61.9407 114.257 61.1209C113.85 60.3011 113.646 59.3479 113.646 58.2614C113.646 57.1749 113.85 56.2218 114.257 55.402C114.669 54.5821 115.254 53.9444 116.011 53.4883C116.772 53.0323 117.677 52.8044 118.725 52.8044C119.772 52.8044 120.674 53.0323 121.431 53.4883C122.193 53.9444 122.777 54.5821 123.185 55.402C123.597 56.2218 123.803 57.1749 123.803 58.2614C123.803 59.3479 123.597 60.3011 123.185 61.1209C122.777 61.9407 122.193 62.5785 121.431 63.0345C120.674 63.4905 119.772 63.7185 118.725 63.7185ZM118.725 61.8558C119.389 61.8655 119.942 61.7224 120.383 61.4265C120.825 61.1306 121.155 60.7111 121.373 60.1678C121.596 59.6244 121.708 58.989 121.708 58.2614C121.708 57.5338 121.596 56.9032 121.373 56.3697C121.155 55.8361 120.825 55.4214 120.383 55.1255C119.942 54.8295 119.389 54.6767 118.725 54.6671C118.06 54.6574 117.507 54.8004 117.066 55.0964C116.624 55.3923 116.292 55.8118 116.069 56.3551C115.85 56.8984 115.741 57.5338 115.741 58.2614C115.741 58.989 115.85 59.6197 116.069 60.1532C116.292 60.6867 116.624 61.1015 117.066 61.3974C117.507 61.6933 118.06 61.8461 118.725 61.8558Z" fill="white"/>
<path d="M39.258 79.5284L37.1307 77.4117L37.8398 76.7027L39.9565 78.8193L39.258 79.5284ZM36.464 79.5337C35.702 79.5337 35.053 79.3679 34.5166 79.0363C33.9805 78.7012 33.5694 78.2355 33.2837 77.6393C33.0015 77.043 32.8604 76.3517 32.8604 75.5649C32.8604 74.7782 33.0015 74.0868 33.2837 73.4906C33.5694 72.8944 33.9805 72.4306 34.5166 72.0989C35.053 71.7638 35.702 71.5962 36.464 71.5962C37.2225 71.5962 37.8698 71.7638 38.406 72.0989C38.9458 72.4306 39.3568 72.8944 39.639 73.4906C39.9213 74.0868 40.0623 74.7782 40.0623 75.5649C40.0623 76.3517 39.9213 77.043 39.639 77.6393C39.3568 78.2355 38.9458 78.7012 38.406 79.0363C37.8698 79.3679 37.2225 79.5337 36.464 79.5337ZM36.464 78.4807C37.0037 78.4877 37.4518 78.3695 37.8081 78.1261C38.1679 77.8791 38.4378 77.537 38.6177 77.0995C38.7976 76.6586 38.8876 76.147 38.8876 75.5649C38.8876 74.9829 38.7976 74.4749 38.6177 74.0409C38.4378 73.6035 38.1679 73.2631 37.8081 73.0196C37.4518 72.7762 37.0037 72.6528 36.464 72.6492C35.9242 72.6422 35.4744 72.7604 35.1146 73.0038C34.7583 73.2472 34.4902 73.5894 34.3103 74.0304C34.1304 74.4713 34.0387 74.9829 34.0351 75.5649C34.0317 76.147 34.1198 76.6567 34.2997 77.0942C34.4796 77.5282 34.7495 77.8668 35.1093 78.1102C35.4727 78.3536 35.9242 78.4771 36.464 78.4807ZM43.9436 79.5337C43.3474 79.5337 42.8201 79.412 42.3614 79.1686C41.9063 78.9216 41.5501 78.5776 41.2925 78.1367C41.0349 77.6922 40.9062 77.17 40.9062 76.5704V71.7602L42.028 71.7549V76.5121C42.028 76.8367 42.0827 77.1224 42.1921 77.3694C42.3015 77.6164 42.4478 77.8228 42.6313 77.9885C42.8148 78.1543 43.0193 78.2796 43.2451 78.3642C43.4744 78.4489 43.7072 78.4912 43.9436 78.4912C44.1835 78.4912 44.4163 78.4489 44.6421 78.3642C44.8714 78.276 45.0778 78.149 45.2612 77.9832C45.4447 77.8175 45.5893 77.6111 45.6952 77.3641C45.8046 77.1171 45.8592 76.8332 45.8592 76.5121V71.7549H46.981V76.5704C46.981 77.1666 46.8523 77.6869 46.5947 78.1314C46.3372 78.5759 45.9792 78.9216 45.5205 79.1686C45.0654 79.412 44.5399 79.5337 43.9436 79.5337ZM48.2496 79.3749V71.7549H53.1179V72.7974H49.3555V74.9352H52.4829V75.9777H49.3555V78.3325H53.1179V79.3749H48.2496ZM59.1216 79.5337C58.5255 79.5337 57.998 79.412 57.5394 79.1686C57.0843 78.9216 56.728 78.5776 56.4704 78.1367C56.213 77.6922 56.0842 77.17 56.0842 76.5704V71.7602L57.206 71.7549V76.5121C57.206 76.8367 57.2608 77.1224 57.37 77.3694C57.4794 77.6164 57.6259 77.8228 57.8092 77.9885C57.9927 78.1543 58.1974 78.2796 58.4231 78.3642C58.6525 78.4489 58.8853 78.4912 59.1216 78.4912C59.3615 78.4912 59.5944 78.4489 59.8201 78.3642C60.0495 78.276 60.2558 78.149 60.4392 77.9832C60.6227 77.8175 60.7673 77.6111 60.8731 77.3641C60.9825 77.1171 61.0372 76.8332 61.0372 76.5121V71.7549H62.159V76.5704C62.159 77.1666 62.0303 77.6869 61.7727 78.1314C61.5153 78.5759 61.1571 78.9216 60.6985 79.1686C60.2434 79.412 59.7178 79.5337 59.1216 79.5337ZM63.4277 79.3749V71.7549H64.5495L68.3013 77.417V71.7549H69.4231V79.3749H68.3013L64.5495 73.7076V79.3749H63.4277ZM74.4952 79.3749V72.7974H71.9605V71.7549H78.1359V72.7974H75.6011V79.3749H74.4952ZM78.771 79.3749V71.7549H81.8507C81.9248 71.7549 82.0165 71.7585 82.1259 71.7655C82.2353 71.7691 82.3393 71.7797 82.4381 71.7973C82.8614 71.8643 83.2143 72.0089 83.4964 72.2312C83.7822 72.4534 83.9956 72.7339 84.1367 73.0726C84.2779 73.4112 84.3484 73.7852 84.3484 74.1944C84.3484 74.8012 84.1932 75.3251 83.8827 75.766C83.5722 76.2035 83.1066 76.4768 82.4857 76.5862L82.0359 76.6392H79.8769V79.3749H78.771ZM83.2266 79.3749L81.7237 76.274L82.8403 75.9883L84.4913 79.3749H83.2266ZM79.8769 75.5914H81.8084C81.8789 75.5914 81.9566 75.5878 82.0412 75.5808C82.1295 75.5738 82.2123 75.5614 82.2899 75.5438C82.5158 75.4909 82.6974 75.3939 82.835 75.2527C82.9726 75.1081 83.0714 74.9422 83.1313 74.7553C83.1912 74.5684 83.2213 74.3813 83.2213 74.1944C83.2213 74.0075 83.1912 73.8223 83.1313 73.6388C83.0714 73.4518 82.9726 73.2878 82.835 73.1467C82.6974 73.0021 82.5158 72.9032 82.2899 72.8503C82.2123 72.8292 82.1295 72.815 82.0412 72.808C81.9566 72.801 81.8789 72.7974 81.8084 72.7974H79.8769V75.5914ZM84.9134 79.3749L87.3899 71.7549H88.9827L91.4592 79.3749H90.3109L88.0302 72.4217H88.316L86.0617 79.3749H84.9134ZM86.1993 77.6552V76.618H90.1786V77.6552H86.1993ZM94.7525 79.5337C94.2057 79.5337 93.7117 79.4402 93.2708 79.2532C92.8333 79.0627 92.4718 78.7929 92.186 78.4436C91.9038 78.0908 91.7204 77.6727 91.6357 77.1895L92.7893 77.0149C92.9057 77.4805 93.1491 77.8439 93.5195 78.1049C93.8899 78.3625 94.3221 78.4912 94.816 78.4912C95.1229 78.4912 95.4051 78.4436 95.6626 78.3484C95.9202 78.2495 96.1266 78.1102 96.2818 77.9303C96.4405 77.7468 96.5199 77.5281 96.5199 77.2741C96.5199 77.1366 96.4952 77.0149 96.4458 76.909C96.3999 76.8032 96.3347 76.7115 96.25 76.6339C96.1689 76.5528 96.0684 76.484 95.9484 76.4275C95.832 76.3676 95.7033 76.3164 95.5621 76.274L93.6095 75.6972C93.419 75.6407 93.2249 75.5685 93.0274 75.4803C92.8299 75.3886 92.6481 75.2703 92.4824 75.1257C92.32 74.9776 92.1877 74.7959 92.0855 74.5807C91.9832 74.362 91.932 74.0974 91.932 73.7869C91.932 73.3177 92.052 72.9208 92.2919 72.5963C92.5353 72.2682 92.8634 72.0212 93.2761 71.8555C93.6889 71.6862 94.151 71.6015 94.6625 71.6015C95.1775 71.6085 95.6379 71.7003 96.0436 71.8767C96.4528 72.053 96.7915 72.307 97.0596 72.6387C97.3312 72.9667 97.5183 73.3653 97.6206 73.8346L96.4352 74.0357C96.3823 73.7499 96.2695 73.5048 96.0966 73.3001C95.9237 73.092 95.712 72.9333 95.4616 72.8239C95.2111 72.711 94.9394 72.6528 94.6466 72.6492C94.3645 72.6422 94.1052 72.6846 93.8688 72.7762C93.6359 72.8679 93.449 72.9968 93.3079 73.1625C93.1703 73.3283 93.1015 73.5188 93.1015 73.734C93.1015 73.9457 93.1633 74.1167 93.2867 74.2473C93.4101 74.3779 93.5619 74.4819 93.7418 74.5595C93.9253 74.6336 94.1069 74.6954 94.2868 74.7447L95.6944 75.1416C95.8707 75.191 96.0701 75.258 96.2924 75.3427C96.5182 75.4238 96.7351 75.5385 96.9432 75.6867C97.1549 75.8348 97.3295 76.0323 97.4671 76.2793C97.6047 76.5227 97.6735 76.8296 97.6735 77.2001C97.6735 77.5846 97.5958 77.9233 97.4406 78.2161C97.2855 78.5054 97.0719 78.7488 96.8004 78.9463C96.5322 79.1404 96.2218 79.2867 95.869 79.3855C95.5162 79.4843 95.1441 79.5337 94.7525 79.5337ZM100.489 79.3749V72.7974H97.9545V71.7549H104.13V72.7974H101.595V79.3749H100.489ZM104.765 79.3749V71.7549H109.633V72.7974H105.871V74.9352H108.998V75.9777H105.871V78.3325H109.633V79.3749H104.765ZM110.693 79.3749V71.7549H113.772C113.846 71.7549 113.938 71.7585 114.047 71.7655C114.157 71.7691 114.261 71.7797 114.36 71.7973C114.783 71.8643 115.136 72.0089 115.418 72.2312C115.704 72.4534 115.917 72.7339 116.058 73.0726C116.199 73.4112 116.27 73.7852 116.27 74.1944C116.27 74.8012 116.115 75.3251 115.804 75.766C115.494 76.2035 115.028 76.4768 114.407 76.5862L113.958 76.6392H111.799V79.3749H110.693ZM115.148 79.3749L113.645 76.274L114.762 75.9883L116.413 79.3749H115.148ZM111.799 75.5914H113.73C113.8 75.5914 113.878 75.5878 113.963 75.5808C114.051 75.5738 114.134 75.5614 114.212 75.5438C114.437 75.4909 114.619 75.3939 114.757 75.2527C114.894 75.1081 114.993 74.9422 115.053 74.7553C115.113 74.5684 115.143 74.3813 115.143 74.1944C115.143 74.0075 115.113 73.8223 115.053 73.6388C114.993 73.4518 114.894 73.2878 114.757 73.1467C114.619 73.0021 114.437 72.9032 114.212 72.8503C114.134 72.8292 114.051 72.815 113.963 72.808C113.878 72.801 113.8 72.7974 113.73 72.7974H111.799V75.5914ZM120.544 79.5337C119.782 79.5337 119.133 79.3679 118.597 79.0363C118.061 78.7012 117.65 78.2355 117.364 77.6393C117.082 77.043 116.941 76.3517 116.941 75.5649C116.941 74.7782 117.082 74.0868 117.364 73.4906C117.65 72.8944 118.061 72.4306 118.597 72.0989C119.133 71.7638 119.782 71.5962 120.544 71.5962C121.303 71.5962 121.95 71.7638 122.486 72.0989C123.026 72.4306 123.437 72.8944 123.719 73.4906C124.002 74.0868 124.143 74.7782 124.143 75.5649C124.143 76.3517 124.002 77.043 123.719 77.6393C123.437 78.2355 123.026 78.7012 122.486 79.0363C121.95 79.3679 121.303 79.5337 120.544 79.5337ZM120.544 78.4807C121.084 78.4877 121.532 78.3695 121.889 78.1261C122.248 77.8791 122.518 77.537 122.698 77.0995C122.878 76.6586 122.968 76.147 122.968 75.5649C122.968 74.9829 122.878 74.4749 122.698 74.0409C122.518 73.6035 122.248 73.2631 121.889 73.0196C121.532 72.7762 121.084 72.6528 120.544 72.6492C120.005 72.6422 119.555 72.7604 119.195 73.0038C118.839 73.2472 118.571 73.5894 118.391 74.0304C118.211 74.4713 118.119 74.9829 118.116 75.5649C118.112 76.147 118.2 76.6567 118.38 77.0942C118.56 77.5282 118.83 77.8668 119.19 78.1102C119.553 78.3536 120.005 78.4771 120.544 78.4807ZM60.4426 94.0858C59.6806 94.0858 59.0316 93.92 58.4953 93.5884C57.9591 93.2533 57.5481 92.7876 57.2623 92.1914C56.9802 91.5951 56.839 90.9038 56.839 90.117C56.839 89.3303 56.9802 88.6389 57.2623 88.0427C57.5481 87.4465 57.9591 86.9826 58.4953 86.651C59.0316 86.3159 59.6806 86.1483 60.4426 86.1483C61.3211 86.1483 62.0479 86.3705 62.6228 86.815C63.2014 87.2595 63.6036 87.8575 63.8293 88.6089L62.7075 88.9105C62.5593 88.3778 62.2947 87.9597 61.9137 87.6564C61.5363 87.3531 61.0459 87.2013 60.4426 87.2013C59.9029 87.2013 59.4531 87.323 59.0933 87.5664C58.7334 87.8099 58.4618 88.1502 58.2783 88.5877C58.0984 89.0252 58.0085 89.5349 58.0085 90.117C58.005 90.6991 58.0931 91.2088 58.2731 91.6463C58.4565 92.0838 58.7281 92.4242 59.088 92.6676C59.4514 92.911 59.9029 93.0327 60.4426 93.0327C61.0459 93.0327 61.5363 92.881 61.9137 92.5777C62.2947 92.2707 62.5593 91.8527 62.7075 91.3235L63.8293 91.6252C63.6036 92.3766 63.2014 92.9745 62.6228 93.419C62.0479 93.8635 61.3211 94.0858 60.4426 94.0858ZM64.8874 93.927V86.307H65.9933V92.8846H69.4435V93.927H64.8874ZM73.4163 85.4604H72.5485L73.3052 83.6083H74.1731L73.4163 85.4604ZM69.6011 93.927L72.0776 86.307H73.6703L76.1468 93.927H74.9986L72.7178 86.9738H73.0036L70.7493 93.927H69.6011ZM70.8869 92.2072V91.1701H74.8663V92.2072H70.8869ZM79.4401 94.0858C78.8934 94.0858 78.3994 93.9922 77.9584 93.8053C77.521 93.6148 77.1594 93.3449 76.8737 92.9957C76.5915 92.6429 76.408 92.2248 76.3233 91.7416L77.4769 91.5669C77.5933 92.0326 77.8367 92.396 78.2072 92.657C78.5776 92.9146 79.0098 93.0433 79.5036 93.0433C79.8105 93.0433 80.0927 92.9957 80.3503 92.9004C80.6079 92.8016 80.8142 92.6623 80.9694 92.4824C81.1282 92.2989 81.2075 92.0802 81.2075 91.8262C81.2075 91.6887 81.1828 91.5669 81.1334 91.4611C81.0875 91.3553 81.0223 91.2636 80.9377 91.1859C80.8566 91.1048 80.756 91.0361 80.636 90.9796C80.5196 90.9196 80.3909 90.8684 80.2497 90.8261L78.2971 90.2493C78.1066 90.1928 77.9125 90.1206 77.715 90.0324C77.5175 89.9407 77.3358 89.8224 77.17 89.6778C77.0077 89.5297 76.8754 89.348 76.7731 89.1328C76.6709 88.9141 76.6197 88.6495 76.6197 88.339C76.6197 87.8698 76.7396 87.4729 76.9795 87.1484C77.2229 86.8203 77.551 86.5733 77.9637 86.4076C78.3765 86.2382 78.8386 86.1536 79.3502 86.1536C79.8652 86.1606 80.3255 86.2524 80.7313 86.4287C81.1405 86.6051 81.4791 86.8591 81.7473 87.1907C82.0189 87.5188 82.2059 87.9174 82.3082 88.3866L81.1229 88.5877C81.0699 88.302 80.9571 88.0568 80.7842 87.8522C80.6113 87.6441 80.3996 87.4853 80.1492 87.3759C79.8988 87.2631 79.627 87.2049 79.3343 87.2013C79.0521 87.1943 78.7928 87.2366 78.5564 87.3283C78.3236 87.42 78.1366 87.5488 77.9955 87.7146C77.8579 87.8804 77.7891 88.0709 77.7891 88.2861C77.7891 88.4978 77.8509 88.6688 77.9743 88.7994C78.0978 88.93 78.2495 89.034 78.4294 89.1116C78.6129 89.1857 78.7945 89.2475 78.9744 89.2968L80.382 89.6937C80.5584 89.743 80.7577 89.8101 80.98 89.8948C81.2058 89.9759 81.4228 90.0906 81.6309 90.2387C81.8425 90.3869 82.0172 90.5844 82.1547 90.8314C82.2923 91.0748 82.3611 91.3817 82.3611 91.7522C82.3611 92.1367 82.2835 92.4754 82.1283 92.7682C81.9731 93.0575 81.7596 93.3009 81.488 93.4984C81.2198 93.6925 80.9095 93.8388 80.5567 93.9376C80.2038 94.0364 79.8317 94.0858 79.4401 94.0858ZM83.3829 93.927V86.307H84.4889V93.927H83.3829ZM89.0466 94.0858C88.2846 94.0858 87.6356 93.92 87.0993 93.5884C86.5631 93.2533 86.1521 92.7876 85.8663 92.1914C85.5841 91.5951 85.443 90.9038 85.443 90.117C85.443 89.3303 85.5841 88.6389 85.8663 88.0427C86.1521 87.4465 86.5631 86.9826 87.0993 86.651C87.6356 86.3159 88.2846 86.1483 89.0466 86.1483C89.925 86.1483 90.6518 86.3705 91.2268 86.815C91.8054 87.2595 92.2076 87.8575 92.4333 88.6089L91.3114 88.9105C91.1633 88.3778 90.8987 87.9597 90.5177 87.6564C90.1403 87.3531 89.6499 87.2013 89.0466 87.2013C88.5069 87.2013 88.0571 87.323 87.6972 87.5664C87.3374 87.8099 87.0658 88.1502 86.8823 88.5877C86.7024 89.0252 86.6124 89.5349 86.6124 90.117C86.609 90.6991 86.6971 91.2088 86.877 91.6463C87.0605 92.0838 87.3321 92.4242 87.6919 92.6676C88.0553 92.911 88.5069 93.0327 89.0466 93.0327C89.6499 93.0327 90.1403 92.881 90.5177 92.5777C90.8987 92.2707 91.1633 91.8527 91.3114 91.3235L92.4333 91.6252C92.2076 92.3766 91.8054 92.9745 91.2268 93.419C90.6518 93.8635 89.925 94.0858 89.0466 94.0858ZM96.5658 94.0858C95.8038 94.0858 95.1546 93.92 94.6185 93.5884C94.0822 93.2533 93.6713 92.7876 93.3855 92.1914C93.1032 91.5951 92.9622 90.9038 92.9622 90.117C92.9622 89.3303 93.1032 88.6389 93.3855 88.0427C93.6713 87.4465 94.0822 86.9826 94.6185 86.651C95.1546 86.3159 95.8038 86.1483 96.5658 86.1483C97.3242 86.1483 97.9715 86.3159 98.5078 86.651C99.0476 86.9826 99.4585 87.4465 99.7408 88.0427C100.023 88.6389 100.164 89.3303 100.164 90.117C100.164 90.9038 100.023 91.5951 99.7408 92.1914C99.4585 92.7876 99.0476 93.2533 98.5078 93.5884C97.9715 93.92 97.3242 94.0858 96.5658 94.0858ZM96.5658 93.0327C97.1055 93.0397 97.5535 92.9216 97.9099 92.6782C98.2697 92.4312 98.5396 92.0891 98.7195 91.6516C98.8994 91.2107 98.9894 90.6991 98.9894 90.117C98.9894 89.5349 98.8994 89.0269 98.7195 88.593C98.5396 88.1555 98.2697 87.8151 97.9099 87.5717C97.5535 87.3283 97.1055 87.2049 96.5658 87.2013C96.0261 87.1943 95.5763 87.3124 95.2164 87.5559C94.86 87.7993 94.592 88.1415 94.4121 88.5824C94.2322 89.0234 94.1404 89.5349 94.1369 90.117C94.1334 90.6991 94.2216 91.2088 94.4015 91.6463C94.5814 92.0802 94.8513 92.4189 95.2111 92.6623C95.5744 92.9057 96.0261 93.0292 96.5658 93.0327Z" fill="white"/>
<path d="M45.6472 97.195C46.9722 95.9589 49.0278 95.9589 50.3528 97.195L54.4919 101.056C55.4486 101.949 56.8279 102.223 58.0534 101.765L63.3551 99.7813C65.0523 99.1463 66.9514 99.933 67.7025 101.582L70.0488 106.734C70.5911 107.924 71.7605 108.706 73.0681 108.751L78.7253 108.947C80.5363 109.01 81.9899 110.464 82.0527 112.275L82.249 117.932C82.2944 119.24 83.0757 120.409 84.2664 120.951L89.4179 123.297C91.067 124.049 91.8537 125.948 91.2187 127.645L89.2351 132.947C88.7766 134.172 89.051 135.551 89.9435 136.508L93.805 140.647C95.0411 141.972 95.0411 144.028 93.805 145.353L89.9435 149.492C89.051 150.449 88.7766 151.828 89.2351 153.053L91.2187 158.355C91.8537 160.052 91.067 161.951 89.4179 162.703L84.2664 165.049C83.0757 165.591 82.2944 166.76 82.249 168.068L82.0527 173.725C81.9899 175.536 80.5363 176.99 78.7253 177.053L73.0681 177.249C71.7605 177.294 70.5911 178.076 70.0488 179.266L67.7025 184.418C66.9514 186.067 65.0523 186.854 63.3551 186.219L58.0534 184.235C56.8279 183.777 55.4486 184.051 54.4919 184.944L50.3528 188.805C49.0278 190.041 46.9722 190.041 45.6472 188.805L41.5081 184.944C40.5514 184.051 39.1721 183.777 37.9466 184.235L32.6449 186.219C30.9477 186.854 29.0486 186.067 28.2975 184.418L25.9512 179.266C25.4089 178.076 24.2395 177.294 22.9319 177.249L17.2747 177.053C15.4637 176.99 14.0101 175.536 13.9473 173.725L13.751 168.068C13.7056 166.76 12.9243 165.591 11.7336 165.049L6.58212 162.703C4.93301 161.951 4.14635 160.052 4.78134 158.355L6.7649 153.053C7.22338 151.828 6.94901 150.449 6.05648 149.492L2.19503 145.353C0.958886 144.028 0.958888 141.972 2.19503 140.647L6.05649 136.508C6.94901 135.551 7.22338 134.172 6.7649 132.947L4.78134 127.645C4.14635 125.948 4.93301 124.049 6.58212 123.297L11.7336 120.951C12.9243 120.409 13.7056 119.24 13.751 117.932L13.9473 112.275C14.0101 110.464 15.4637 109.01 17.2747 108.947L22.9319 108.751C24.2395 108.706 25.4089 107.924 25.9512 106.734L28.2975 101.582C29.0486 99.933 30.9477 99.1463 32.6449 99.7813L37.9466 101.765C39.1721 102.223 40.5514 101.949 41.5081 101.056L45.6472 97.195Z" fill="white"/>
<path d="M46.1862 101.011C47.2077 100.057 48.7926 100.057 49.8142 101.011L53.6437 104.583C54.6763 105.547 56.1652 105.843 57.4879 105.348L62.393 103.513C63.7015 103.023 65.1658 103.63 65.7449 104.901L66.2289 104.681L65.7449 104.901L67.9157 109.667C68.501 110.952 69.7632 111.796 71.1746 111.845L76.4087 112.026C77.8049 112.075 78.9256 113.195 78.9741 114.592L79.1557 119.826C79.2047 121.237 80.048 122.499 81.3333 123.085L86.0994 125.256C87.3708 125.835 87.9773 127.299 87.4878 128.607L85.6526 133.513C85.1577 134.835 85.4539 136.324 86.4172 137.357L89.9899 141.186C90.9429 142.208 90.9429 143.793 89.9898 144.814L86.4173 148.644C85.4539 149.676 85.1577 151.165 85.6526 152.488L87.4878 157.393C87.9773 158.702 87.3708 160.166 86.0994 160.745L81.3333 162.916C80.048 163.501 79.2047 164.763 79.1557 166.175L78.9741 171.409C78.9256 172.805 77.8049 173.926 76.4086 173.974L71.1746 174.156C69.7632 174.205 68.501 175.048 67.9156 176.333L65.7449 181.099C65.1658 182.371 63.7015 182.977 62.393 182.488L57.4879 180.653C56.1652 180.158 54.6763 180.454 53.6437 181.417L49.8142 184.99C48.7926 185.943 47.2077 185.943 46.1862 184.99L42.3567 181.417C41.3241 180.454 39.8352 180.158 38.5125 180.653L33.6074 182.488C32.2989 182.977 30.8346 182.371 30.2555 181.099L28.0847 176.333C27.4994 175.048 26.2372 174.205 24.8258 174.156L19.5917 173.974C18.1955 173.926 17.0748 172.805 17.0263 171.409L16.8447 166.175C16.7957 164.763 15.9524 163.501 14.6671 162.916L9.90101 160.745C8.62956 160.166 8.02304 158.702 8.51262 157.393L10.3478 152.488C10.8427 151.165 10.5465 149.676 9.58314 148.644L6.01054 144.814C5.05748 143.793 5.05748 142.208 6.01054 141.186L9.58314 137.357C10.5465 136.324 10.8427 134.835 10.3478 133.513L8.51262 128.607C8.02304 127.299 8.62956 125.835 9.90102 125.256L14.6671 123.085C15.9524 122.499 16.7957 121.237 16.8447 119.826L17.0263 114.592C17.0748 113.195 18.1955 112.075 19.5917 112.026L24.8258 111.845C26.2372 111.796 27.4994 110.952 28.0847 109.667L30.2555 104.901C30.8346 103.63 32.2989 103.023 33.6074 103.513L38.5125 105.348C39.8352 105.843 41.3241 105.547 42.3567 104.583L46.1862 101.011Z" fill="white" stroke="#4760FF" stroke-width="1.0637"/>
<rect width="63" height="18" transform="translate(16.8496 138.732)" fill="white"/>
<path d="M23.7963 154.998C22.993 154.998 22.2281 154.856 21.5016 154.572C20.7751 154.283 20.1313 153.858 19.5702 153.297C19.015 152.736 18.5749 152.042 18.2501 151.215C17.9311 150.388 17.7716 149.434 17.7716 148.353C17.7716 146.941 18.0404 145.742 18.5779 144.756C19.1213 143.764 19.8478 143.008 20.7574 142.488C21.6729 141.968 22.6859 141.708 23.7963 141.708C25.4383 141.708 26.7289 142.089 27.668 142.851C28.6071 143.613 29.2362 144.691 29.5551 146.085L27.0921 146.439C26.8618 145.695 26.4837 145.101 25.9581 144.658C25.4383 144.209 24.7709 143.982 23.9558 143.976C23.1466 143.964 22.4732 144.139 21.9357 144.499C21.3982 144.859 20.9936 145.37 20.7219 146.032C20.4561 146.693 20.3233 147.467 20.3233 148.353C20.3233 149.239 20.4561 150.007 20.7219 150.656C20.9936 151.306 21.3982 151.811 21.9357 152.171C22.4732 152.532 23.1466 152.718 23.9558 152.73C24.5051 152.741 25.0012 152.647 25.4442 152.446C25.8931 152.245 26.2711 151.929 26.5782 151.498C26.8854 151.067 27.1039 150.515 27.2339 149.841H25.2138V147.981H29.8032C29.815 148.058 29.8239 148.193 29.8298 148.388C29.8357 148.583 29.8386 148.695 29.8386 148.725C29.8386 149.948 29.5906 151.032 29.0944 151.977C28.5983 152.922 27.8984 153.663 26.9947 154.2C26.091 154.732 25.0248 154.998 23.7963 154.998ZM31.2599 154.732L31.2599 141.974H36.6467C36.7707 141.974 36.9361 141.98 37.1428 141.992C37.3555 141.997 37.5445 142.015 37.7099 142.045C38.4718 142.163 39.0949 142.414 39.5793 142.798C40.0695 143.182 40.4298 143.666 40.6602 144.251C40.8905 144.83 41.0057 145.476 41.0057 146.191C41.0057 147.26 40.7399 148.176 40.2083 148.938C39.6767 149.694 38.8439 150.16 37.7099 150.337L36.6467 150.408H33.6698V154.732H31.2599ZM38.4541 154.732L35.9379 149.54L38.4186 149.062L41.1829 154.732H38.4541ZM33.6698 148.158H36.5404C36.6644 148.158 36.8003 148.152 36.9479 148.14C37.0956 148.128 37.2314 148.105 37.3555 148.069C37.6803 147.981 37.9314 147.833 38.1085 147.626C38.2857 147.414 38.4068 147.18 38.4718 146.926C38.5427 146.667 38.5781 146.421 38.5781 146.191C38.5781 145.961 38.5427 145.719 38.4718 145.465C38.4068 145.205 38.2857 144.971 38.1085 144.765C37.9314 144.552 37.6803 144.401 37.3555 144.313C37.2314 144.277 37.0956 144.254 36.9479 144.242C36.8003 144.23 36.6644 144.224 36.5404 144.224H33.6698V148.158ZM41.8903 154.732L45.7886 141.974H49.3856L53.2839 154.732H50.8032L47.3302 143.48H47.7909L44.371 154.732H41.8903ZM44.2293 152.074V149.824H50.9627V152.074H44.2293ZM56.4211 154.732V144.224H52.3988V141.974H62.8533V144.224H58.831V154.732H56.4211ZM64.0999 154.732V141.974H66.5098V154.732H64.0999ZM73.6312 154.998C72.6862 154.998 71.8327 154.832 71.0708 154.502C70.3147 154.165 69.6916 153.686 69.2013 153.066C68.717 152.44 68.4099 151.696 68.2799 150.834L70.7961 150.462C70.9733 151.194 71.3395 151.758 71.8947 152.154C72.4499 152.549 73.0819 152.747 73.7907 152.747C74.1864 152.747 74.5704 152.685 74.9425 152.561C75.3146 152.437 75.6188 152.254 75.855 152.012C76.0972 151.77 76.2183 151.472 76.2183 151.117C76.2183 150.987 76.1976 150.863 76.1563 150.745C76.1208 150.621 76.0588 150.506 75.9702 150.4C75.8816 150.293 75.7546 150.193 75.5892 150.098C75.4298 150.004 75.226 149.918 74.9779 149.841L71.6644 148.867C71.4163 148.796 71.1269 148.695 70.7961 148.566C70.4712 148.436 70.1553 148.25 69.8481 148.007C69.541 147.765 69.284 147.446 69.0773 147.051C68.8765 146.649 68.7761 146.144 68.7761 145.535C68.7761 144.679 68.9917 143.967 69.4228 143.4C69.854 142.833 70.4299 142.411 71.1505 142.133C71.8711 141.856 72.6685 141.72 73.5426 141.726C74.4227 141.738 75.2083 141.888 75.8993 142.178C76.5904 142.467 77.1692 142.889 77.6358 143.445C78.1025 143.994 78.4391 144.667 78.6459 145.465L76.0411 145.908C75.9466 145.494 75.7723 145.146 75.5184 144.862C75.2644 144.579 74.9602 144.363 74.6058 144.215C74.2573 144.068 73.8911 143.988 73.5072 143.976C73.1292 143.964 72.7718 144.018 72.4352 144.136C72.1044 144.248 71.8327 144.413 71.6201 144.632C71.4133 144.85 71.31 145.11 71.31 145.411C71.31 145.689 71.3956 145.916 71.5669 146.094C71.7382 146.265 71.9538 146.404 72.2137 146.51C72.4736 146.616 72.7394 146.705 73.0111 146.776L75.226 147.378C75.5568 147.467 75.923 147.585 76.3246 147.733C76.7262 147.874 77.1102 148.075 77.4764 148.335C77.8485 148.589 78.1527 148.926 78.3889 149.345C78.6311 149.765 78.7522 150.296 78.7522 150.94C78.7522 151.625 78.6075 152.225 78.3181 152.738C78.0345 153.246 77.6506 153.669 77.1663 154.005C76.6819 154.336 76.1326 154.584 75.5184 154.75C74.91 154.915 74.281 154.998 73.6312 154.998Z" fill="#4760FF"/>
<path d="M18.2327 137.99V128.56H21.9589C22.0506 128.56 22.1597 128.564 22.2863 128.573C22.4129 128.577 22.5352 128.59 22.653 128.612C23.1638 128.691 23.5917 128.865 23.9366 129.136C24.2858 129.407 24.5478 129.749 24.7224 130.164C24.897 130.574 24.9844 131.031 24.9844 131.533C24.9844 132.262 24.7944 132.895 24.4146 133.432C24.0348 133.965 23.4782 134.298 22.7447 134.434L22.2994 134.506H19.3984V137.99H18.2327ZM23.8449 137.99L21.9851 134.152L23.1376 133.799L25.1808 137.99H23.8449ZM19.3984 133.399H21.9196C22.0025 133.399 22.0964 133.395 22.2012 133.386C22.3103 133.377 22.4129 133.362 22.509 133.34C22.8102 133.27 23.0547 133.144 23.2424 132.96C23.4345 132.773 23.5742 132.554 23.6615 132.306C23.7488 132.052 23.7925 131.795 23.7925 131.533C23.7925 131.271 23.7488 131.015 23.6615 130.767C23.5742 130.513 23.4345 130.293 23.2424 130.105C23.0547 129.917 22.8102 129.791 22.509 129.725C22.4129 129.699 22.3103 129.684 22.2012 129.68C22.0964 129.671 22.0025 129.666 21.9196 129.666H19.3984V133.399ZM26.3612 137.99V128.56H32.3205V129.666H27.5269V132.62H31.5346V133.727H27.5269V136.883H32.3205V137.99H26.3612ZM37.177 138.186C36.2384 138.186 35.4416 137.979 34.7868 137.564C34.1319 137.149 33.632 136.573 33.2871 135.835C32.9466 135.097 32.7763 134.244 32.7763 133.275C32.7763 132.306 32.9466 131.452 33.2871 130.714C33.632 129.976 34.1319 129.4 34.7868 128.985C35.4416 128.571 36.2384 128.363 37.177 128.363C38.2685 128.363 39.1656 128.64 39.8685 129.195C40.5758 129.749 41.0625 130.496 41.3289 131.435L40.1436 131.749C39.9515 131.046 39.6087 130.492 39.1154 130.086C38.6221 129.68 37.976 129.477 37.177 129.477C36.4741 129.477 35.8891 129.636 35.422 129.955C34.9548 130.273 34.6034 130.719 34.3676 131.29C34.1319 131.858 34.0118 132.519 34.0075 133.275C34.0031 134.026 34.1188 134.687 34.3545 135.259C34.5903 135.827 34.9439 136.272 35.4154 136.595C35.8869 136.914 36.4741 137.073 37.177 137.073C37.976 137.073 38.6221 136.87 39.1154 136.464C39.6087 136.054 39.9515 135.499 40.1436 134.801L41.3289 135.115C41.0625 136.049 40.5758 136.796 39.8685 137.355C39.1656 137.909 38.2685 138.186 37.177 138.186ZM46.3799 138.186C45.4413 138.186 44.6445 137.979 43.9897 137.564C43.3348 137.149 42.8349 136.573 42.49 135.835C42.1495 135.097 41.9792 134.244 41.9792 133.275C41.9792 132.306 42.1495 131.452 42.49 130.714C42.8349 129.976 43.3348 129.4 43.9897 128.985C44.6445 128.571 45.4413 128.363 46.3799 128.363C47.3229 128.363 48.1219 128.571 48.7767 128.985C49.4316 129.4 49.9293 129.976 50.2698 130.714C50.6103 131.452 50.7806 132.306 50.7806 133.275C50.7806 134.244 50.6103 135.097 50.2698 135.835C49.9293 136.573 49.4316 137.149 48.7767 137.564C48.1219 137.979 47.3229 138.186 46.3799 138.186ZM46.3799 137.073C47.0828 137.077 47.6678 136.92 48.1349 136.601C48.6065 136.278 48.9579 135.831 49.1893 135.259C49.425 134.687 49.5429 134.026 49.5429 133.275C49.5429 132.519 49.425 131.858 49.1893 131.29C48.9579 130.723 48.6065 130.28 48.1349 129.961C47.6678 129.642 47.0828 129.481 46.3799 129.477C45.677 129.472 45.092 129.629 44.6249 129.948C44.1621 130.267 43.8128 130.712 43.5771 131.284C43.3413 131.856 43.2213 132.519 43.2169 133.275C43.2125 134.026 43.3282 134.685 43.564 135.252C43.7997 135.82 44.1512 136.265 44.6183 136.588C45.0898 136.907 45.677 137.069 46.3799 137.073ZM55.6518 138.186C55.0056 138.186 54.4163 138.073 53.8836 137.846C53.351 137.619 52.8926 137.293 52.5084 136.87C52.1242 136.442 51.8274 135.927 51.6178 135.324C51.4126 134.718 51.31 134.034 51.31 133.275C51.31 132.271 51.489 131.402 51.847 130.668C52.205 129.935 52.7092 129.37 53.3597 128.972C54.0102 128.571 54.7743 128.37 55.6518 128.37C56.7083 128.37 57.5596 128.616 58.2057 129.11C58.8519 129.599 59.2972 130.269 59.5417 131.12L58.3629 131.363C58.1665 130.791 57.8434 130.334 57.3937 129.994C56.944 129.653 56.383 129.483 55.7107 129.483C55.0078 129.479 54.4228 129.636 53.9557 129.955C53.4929 130.269 53.1436 130.712 52.9079 131.284C52.6721 131.856 52.5521 132.519 52.5477 133.275C52.5434 134.026 52.659 134.685 52.8948 135.252C53.1305 135.82 53.482 136.265 53.9491 136.588C54.4206 136.907 55.0078 137.069 55.7107 137.073C56.3176 137.077 56.8283 136.962 57.2431 136.726C57.6578 136.49 57.9787 136.15 58.2057 135.704C58.4328 135.259 58.5703 134.724 58.6183 134.1H56.6144V133.137H59.8495C59.8626 133.225 59.8691 133.329 59.8691 133.452C59.8735 133.569 59.8757 133.65 59.8757 133.694C59.8757 134.554 59.7141 135.324 59.3911 136.006C59.0724 136.682 58.5987 137.215 57.97 137.603C57.3457 137.992 56.573 138.186 55.6518 138.186ZM61.0527 137.99V128.56H62.2183V137.99H61.0527ZM63.9213 137.99V128.56H66.8289C66.9249 128.56 67.093 128.562 67.3331 128.566C67.5732 128.571 67.8025 128.588 68.0207 128.619C68.7498 128.715 69.3588 128.981 69.8478 129.418C70.3411 129.85 70.7122 130.4 70.9611 131.068C71.2099 131.736 71.3344 132.471 71.3344 133.275C71.3344 134.078 71.2099 134.814 70.9611 135.482C70.7122 136.15 70.3411 136.702 69.8478 137.138C69.3588 137.571 68.7498 137.835 68.0207 137.931C67.8025 137.957 67.5711 137.974 67.3266 137.983C67.0865 137.988 66.9206 137.99 66.8289 137.99H63.9213ZM65.1197 136.876H66.8289C66.9948 136.876 67.1803 136.872 67.3855 136.863C67.5907 136.85 67.7697 136.831 67.9225 136.804C68.4377 136.708 68.8546 136.492 69.1733 136.156C69.492 135.82 69.7256 135.401 69.874 134.899C70.0224 134.397 70.0967 133.855 70.0967 133.275C70.0967 132.681 70.0203 132.133 69.8675 131.631C69.719 131.129 69.4855 130.712 69.1668 130.38C68.8481 130.048 68.4333 129.837 67.9225 129.745C67.7697 129.714 67.5885 129.695 67.379 129.686C67.1694 129.677 66.9861 129.673 66.8289 129.673H65.1197V136.876ZM71.6635 137.99L74.82 128.56H76.444L79.6005 137.99H78.389L75.4355 129.241H75.8023L72.875 137.99H71.6635ZM73.1828 135.783V134.689H78.0812V135.783H73.1828Z" fill="#4760FF"/>
</svg>
