<?xml version="1.0" encoding="UTF-8" standalone="no"?>
<svg
   xmlns:dc="http://purl.org/dc/elements/1.1/"
   xmlns:cc="http://creativecommons.org/ns#"
   xmlns:rdf="http://www.w3.org/1999/02/22-rdf-syntax-ns#"
   xmlns:svg="http://www.w3.org/2000/svg"
   xmlns="http://www.w3.org/2000/svg"
   style="fill:none"
   id="svg20"
   version="1.1"
   viewBox="0 0 123.64523 123.64525"
   height="123.64525"
   width="123.64523">
  <metadata
     id="metadata26">
    <rdf:RDF>
      <cc:Work
         rdf:about="">
        <dc:format>image/svg+xml</dc:format>
        <dc:type
           rdf:resource="http://purl.org/dc/dcmitype/StillImage" />
        <dc:title></dc:title>
      </cc:Work>
    </rdf:RDF>
  </metadata>
  <defs
     id="defs24" />
  <path
     style="fill:#4760ff"
     id="path2"
     d="m 58.710075,1.2264889 c 1.7529,-1.63532002 4.4722,-1.63531702 6.2251,0 l 5.4758,5.10839 c 1.266,1.18072 3.09,1.54369 4.711,0.93716 l 7.014,-2.62408 c 2.245,-0.84004 4.758,0.20064 5.751,2.38228 l 3.104,6.8149601 c 0.718,1.5752 2.265,2.6088 3.995,2.6689 l 7.484005,0.2597 c 2.395,0.083 4.318,2.006 4.40199,4.4018 l 0.259,7.484 c 0.06,1.7299 1.094,3.2769 2.669,3.9943 l 6.815,3.104 c 2.182,0.9936 3.222,3.506 2.382,5.7512 l -2.624,7.0137 c -0.60599,1.6213 -0.24299,3.446 0.93701,4.7116 l 5.109,5.4757 c 1.635,1.7529 1.635,4.4722 0,6.2251 l -5.109,5.4757 c -1.18,1.2656 -1.543,3.0903 -0.93701,4.7116 l 2.624,7.0137 c 0.84,2.2452 -0.19999,4.7576 -2.382,5.7512 l -6.815,3.104 c -1.57499,0.7174 -2.609,2.2644 -2.669,3.9942 l -0.259,7.484401 c -0.084,2.395 -2.007,4.318 -4.40199,4.402 l -7.484005,0.259 c -1.73,0.06 -3.277,1.094 -3.995,2.669 l -3.104,6.815 c -0.993,2.182 -3.506,3.222 -5.751,2.382 l -7.014,-2.624 c -1.621,-0.606 -3.445,-0.243 -4.711,0.937 l -5.4758,5.109 c -1.7529,1.635 -4.4722,1.635 -6.2251,0 l -5.4757,-5.109 c -1.2656,-1.18 -3.0903,-1.543 -4.7116,-0.937 l -7.0137,2.624 c -2.2452,0.84 -4.7576,-0.2 -5.7512,-2.382 l -3.104,-6.815 c -0.7174,-1.575 -2.2644,-2.609 -3.9943,-2.669 l -7.484,-0.259 c -2.3958,-0.084 -4.3188,-2.007 -4.4018,-4.402 l -0.2597,-7.484401 c -0.0601,-1.7298 -1.0937,-3.2768 -2.6689,-3.9942 l -6.815,-3.104 c -2.1816,-0.9936 -3.2223,-3.506 -2.3822,-5.7512 l 2.624,-7.0137 c 0.6066,-1.6213 0.2436,-3.446 -0.9371,-4.7116 l -5.1084,-5.4757 c -1.6353,-1.7529 -1.6353,-4.4722 0,-6.2251 l 5.1084,-5.4757 c 1.1807,-1.2656 1.5437,-3.0903 0.9371,-4.7116 l -2.624,-7.0137 c -0.8401,-2.2452 0.2006,-4.7576 2.3822,-5.7512 l 6.815,-3.104 c 1.5752,-0.7174 2.6088,-2.2644 2.6689,-3.9943 l 0.2597,-7.484 c 0.083,-2.3958 2.006,-4.3188 4.4018,-4.4018 l 7.484,-0.2597 c 1.7299,-0.0601 3.2769,-1.0937 3.9943,-2.6689 l 3.104,-6.8149601 c 0.9936,-2.18164 3.506,-3.22232 5.7512,-2.38228 l 7.0137,2.62408 c 1.6213,0.60653 3.446,0.24356 4.7116,-0.93718 z" />
  <path
     style="fill:#4760ff;stroke:#ffffff;stroke-width:1.06369996"
     id="path4"
     d="m 64.222275,6.2742289 5.0661,4.7262701 c 1.3656,1.2744 3.3356,1.6663 5.0856,1.0116 l 6.489,-2.4278301 c 1.731,-0.64767 3.668,0.1547 4.434,1.8367301 l 2.872,6.3051 c 0.774,1.7004 2.444,2.816 4.311,2.8808 l 6.925,0.2403 c 1.847005,0.0641 3.329005,1.5467 3.393005,3.3938 l 0.241,6.9242 c 0.065,1.8672 1.18,3.537 2.88,4.3113 l 6.306,2.8718 c 1.682,0.7661 2.484,2.7032 1.836,4.4343 l -2.427,6.489 c -0.655,1.7498 -0.263,3.7195 1.011,5.0856 l 4.726,5.0661 c 1.261,1.3513 1.261,3.448 0,4.7995 l -4.726,5.0661 c -1.274,1.3661 -1.666,3.3358 -1.011,5.0856 l 2.427,6.489 c 0.648,1.7311 -0.154,3.6682 -1.836,4.4343 l -6.306,2.8717 c -1.7,0.7744 -2.815,2.4442 -2.88,4.3113 l -0.241,6.9243 c -0.064,1.846901 -1.546,3.329901 -3.393005,3.393901 l -6.925,0.24 c -1.867,0.065 -3.537,1.181 -4.311,2.881 l -2.872,6.305 c -0.766,1.682 -2.703,2.484 -4.434,1.837 l -6.489,-2.428 c -1.75,-0.655 -3.72,-0.263 -5.0856,1.012 l -5.0661,4.726 c -1.3515,1.261 -3.4482,1.261 -4.7995,0 l -5.0661,-4.726 c -1.3661,-1.275 -3.3358,-1.667 -5.0856,-1.012 l -6.489,2.428 c -1.7311,0.647 -3.6682,-0.155 -4.4343,-1.837 l -2.8718,-6.305 c -0.7743,-1.7 -2.4441,-2.816 -4.3112,-2.881 l -6.9243,-0.24 c -1.8471,-0.064 -3.3297,-1.547 -3.3938,-3.394001 l -0.2403,-6.9242 c -0.0648,-1.8671 -1.1804,-3.5369 -2.8808,-4.3113 l -6.3051,-2.8717 c -1.682,-0.7661 -2.4844,-2.7032 -1.8367,-4.4343 l 2.4278,-6.489 c 0.6547,-1.7498 0.2628,-3.7195 -1.0116,-5.0856 l -4.7263,-5.0661 c -1.2608,-1.3515 -1.2608,-3.4482 0,-4.7995 l 4.7263,-5.0661 c 1.2744,-1.3661 1.6663,-3.3358 1.0116,-5.0856 l -2.4278,-6.489 c -0.6477,-1.7311 0.1547,-3.6682 1.8367,-4.4343 l 6.3051,-2.8718 c 1.7004,-0.7743 2.816,-2.4441 2.8808,-4.3113 l 0.2403,-6.9242 c 0.0641,-1.8471 1.5467,-3.3297 3.3938,-3.3938 l 6.9243,-0.2403 c 1.8671,-0.0648 3.5369,-1.1804 4.3112,-2.8808 l 2.8718,-6.3051 c 0.7661,-1.6820401 2.7032,-2.4844001 4.4343,-1.8367301 l 6.489,2.4278301 c 1.7498,0.6547 3.7195,0.2628 5.0856,-1.0116 l 5.0661,-4.7262701 c 1.3513,-1.26082 3.448,-1.26082 4.7995,0 z" />
  <path
     style="fill:#ffffff"
     id="path6"
     d="m 46.719875,39.573799 c -0.6668,0 -1.3027,-0.1327 -1.9076,-0.3982 -0.6052,-0.2716 -1.133,-0.6513 -1.5836,-1.139 -0.4445,-0.4878 -0.7625,-1.0619 -0.9538,-1.7225 l 2.4447,-0.6482 c 0.1297,0.4878 0.3828,0.8674 0.7594,1.139 0.3827,0.2655 0.7964,0.3982 1.2409,0.3982 0.3827,0 0.7316,-0.0926 1.0464,-0.2778 0.321,-0.1852 0.5742,-0.4352 0.7594,-0.7501 0.1913,-0.3148 0.287,-0.6637 0.287,-1.0464 0,-0.5741 -0.1976,-1.0649 -0.5926,-1.4724 -0.389,-0.4137 -0.889,-0.6205 -1.5002,-0.6205 -0.1852,0 -0.3643,0.0278 -0.5371,0.0834 -0.1729,0.0493 -0.3396,0.1204 -0.5001,0.213 l -1.1297,-1.9818 4.2412,-3.5189 0.1852,0.5371 h -6.1859 v -2.3707 h 8.3344 v 2.3707 l -3.2968,3.1856 -0.0185,-0.7038 c 0.7655,0.1173 1.4107,0.3859 1.9355,0.8056 0.5308,0.4137 0.9321,0.9261 1.2038,1.5373 0.2778,0.6049 0.4167,1.2501 0.4167,1.9354 0,0.8397 -0.213,1.5958 -0.6389,2.2688 -0.426,0.6668 -0.9909,1.1976 -1.6947,1.5928 -0.7038,0.3889 -1.4756,0.5834 -2.3151,0.5834 z m 11.6276,0.037 c -0.9876,0 -1.852,-0.2067 -2.5929,-0.6204 -0.7408,-0.4137 -1.318,-0.9909 -1.7317,-1.7317 -0.4135,-0.7408 -0.6204,-1.6051 -0.6204,-2.5929 v -4.0005 c 0,-0.9878 0.2069,-1.8521 0.6204,-2.5929 0.4137,-0.7409 0.9909,-1.3181 1.7317,-1.7317 0.7409,-0.4137 1.6053,-0.6205 2.5929,-0.6205 0.9879,0 1.8521,0.2068 2.593,0.6205 0.7408,0.4136 1.3181,0.9908 1.7317,1.7317 0.4136,0.7408 0.6204,1.6051 0.6204,2.5929 v 4.0005 c 0,0.9878 -0.2068,1.8521 -0.6204,2.5929 -0.4136,0.7408 -0.9909,1.318 -1.7317,1.7317 -0.7409,0.4137 -1.6051,0.6204 -2.593,0.6204 z m 0,-2.3891 c 0.4445,0 0.8459,-0.105 1.2039,-0.3149 0.3581,-0.2099 0.6421,-0.4938 0.852,-0.852 0.2099,-0.3581 0.3148,-0.7593 0.3148,-1.2038 v -4.3894 c 0,-0.4445 -0.1049,-0.8458 -0.3148,-1.2039 -0.2099,-0.3581 -0.4939,-0.642 -0.852,-0.852 -0.358,-0.2099 -0.7594,-0.3148 -1.2039,-0.3148 -0.4445,0 -0.8457,0.1049 -1.2038,0.3148 -0.358,0.21 -0.642,0.4939 -0.852,0.852 -0.2098,0.3581 -0.3148,0.7594 -0.3148,1.2039 v 4.3894 c 0,0.4445 0.105,0.8457 0.3148,1.2038 0.21,0.3582 0.494,0.6421 0.852,0.852 0.3581,0.2099 0.7593,0.3149 1.2038,0.3149 z m 9.2017,2.1113 -1.6669,-1.6668 11.6677,-11.6682 1.667,1.6854 z m 8.8898,0.2778 c -0.611,0 -1.17,-0.1481 -1.676,-0.4445 -0.5,-0.3025 -0.901,-0.7037 -1.204,-1.2038 -0.302,-0.5063 -0.454,-1.068 -0.454,-1.6854 0,-0.605 0.155,-1.1606 0.463,-1.6669 0.309,-0.5063 0.717,-0.9105 1.223,-1.2131 0.506,-0.3025 1.056,-0.4538 1.648,-0.4538 0.611,0 1.17,0.1513 1.676,0.4538 0.507,0.2963 0.908,0.6976 1.204,1.2039 0.303,0.5 0.454,1.0587 0.454,1.6761 0,0.6174 -0.151,1.1791 -0.454,1.6854 -0.296,0.5001 -0.697,0.9013 -1.204,1.2038 -0.506,0.2964 -1.065,0.4445 -1.676,0.4445 z m 0,-2.1299 c 0.216,0 0.414,-0.0555 0.593,-0.1666 0.185,-0.1112 0.333,-0.2563 0.444,-0.4353 0.112,-0.1852 0.167,-0.3859 0.167,-0.6019 0,-0.216 -0.055,-0.4137 -0.167,-0.5927 -0.111,-0.1852 -0.259,-0.3334 -0.444,-0.4445 -0.179,-0.1111 -0.377,-0.1667 -0.593,-0.1667 -0.216,0 -0.416,0.0556 -0.602,0.1667 -0.179,0.1111 -0.324,0.2593 -0.435,0.4445 -0.111,0.179 -0.167,0.3767 -0.167,0.5927 0,0.216 0.056,0.4167 0.167,0.6019 0.111,0.179 0.256,0.3241 0.435,0.4353 0.186,0.1111 0.386,0.1666 0.602,0.1666 z m -7.7785,-5.0932 c -0.6112,0 -1.1699,-0.1482 -1.6762,-0.4445 -0.5061,-0.3025 -0.9105,-0.7038 -1.2131,-1.2038 -0.2963,-0.5063 -0.4445,-1.068 -0.4445,-1.6854 0,-0.605 0.1544,-1.1606 0.463,-1.6669 0.3088,-0.5063 0.7163,-0.9106 1.2224,-1.2131 0.5063,-0.3026 1.0557,-0.4538 1.6484,-0.4538 0.6112,0 1.1668,0.1512 1.6665,0.4538 0.507,0.2963 0.911,0.6975 1.213,1.2038 0.303,0.5001 0.454,1.0588 0.454,1.6762 0,0.6174 -0.151,1.1791 -0.454,1.6854 -0.302,0.5 -0.706,0.9013 -1.213,1.2038 -0.4997,0.2963 -1.0553,0.4445 -1.6665,0.4445 z m 0,-2.1299 c 0.2161,0 0.4136,-0.0555 0.5926,-0.1667 0.1852,-0.1111 0.3334,-0.2562 0.4445,-0.4352 0.1112,-0.1852 0.1667,-0.3859 0.1667,-0.6019 0,-0.2161 -0.0555,-0.4137 -0.1667,-0.5927 -0.1111,-0.1852 -0.2593,-0.3334 -0.4445,-0.4445 -0.179,-0.1111 -0.3765,-0.1667 -0.5926,-0.1667 -0.2161,0 -0.4168,0.0556 -0.602,0.1667 -0.1789,0.1111 -0.3241,0.2593 -0.4352,0.4445 -0.1111,0.179 -0.1667,0.3766 -0.1667,0.5927 0,0.216 0.0556,0.4167 0.1667,0.6019 0.1111,0.179 0.2563,0.3241 0.4352,0.4352 0.1852,0.1112 0.3859,0.1667 0.602,0.1667 z m -50.2328,26.2731 v -10.4775 h 1.7754 l 3.4634,6.9559 3.4634,-6.9559 h 1.7753 v 10.4775 h -1.8481 v -6.2573 l -3.0414,6.2573 h -0.6985 l -3.0414,-6.2573 v 6.2573 z m 17.1184,-11.5689 h -1.4697 l 1.2078,-2.8376 h 1.4698 z m -5.6171,11.5689 3.2015,-10.4775 h 2.9541 l 3.2014,10.4775 h -2.0373 l -2.8522,-9.2405 h 0.3784 l -2.8086,9.2405 z m 1.9209,-2.1828 v -1.8481 h 5.5298 v 1.8481 z m 12.1231,2.4011 c -0.7762,0 -1.477,-0.1358 -2.1028,-0.4074 -0.6208,-0.2765 -1.1327,-0.6694 -1.5352,-1.1788 -0.3978,-0.5142 -0.65,-1.1254 -0.7567,-1.8335 l 2.0664,-0.3056 c 0.1455,0.6015 0.4462,1.0647 0.9022,1.3897 0.456,0.3251 0.975,0.4875 1.5571,0.4875 0.325,0 0.6403,-0.0509 0.9458,-0.1528 0.3056,-0.1018 0.5554,-0.2523 0.7495,-0.4511 0.1988,-0.1988 0.2983,-0.4438 0.2983,-0.7349 0,-0.1067 -0.0169,-0.2086 -0.0509,-0.3056 -0.0291,-0.1018 -0.0801,-0.1964 -0.1528,-0.2837 -0.0728,-0.0874 -0.177,-0.1698 -0.3129,-0.2474 -0.131,-0.0777 -0.2983,-0.1479 -0.502,-0.211 l -2.7213,-0.8004 c -0.2037,-0.0582 -0.4414,-0.1406 -0.713,-0.2474 -0.2669,-0.1067 -0.5263,-0.2595 -0.7786,-0.4584 -0.2523,-0.1988 -0.4633,-0.4607 -0.633,-0.7858 -0.165,-0.3298 -0.2474,-0.7445 -0.2474,-1.2442 0,-0.7034 0.177,-1.2878 0.5312,-1.7535 0.3541,-0.4657 0.8271,-0.8125 1.4188,-1.0405 0.5917,-0.2279 1.2466,-0.3396 1.9645,-0.3347 0.7227,0.0097 1.3679,0.1334 1.9355,0.3711 0.5675,0.2377 1.0428,0.5845 1.4261,1.0405 0.3832,0.4511 0.6597,1.0041 0.8294,1.6589 l -2.1391,0.3638 c -0.0777,-0.3396 -0.2207,-0.6257 -0.4293,-0.8586 -0.2086,-0.2328 -0.4584,-0.4098 -0.7494,-0.5311 -0.2862,-0.1213 -0.587,-0.1868 -0.9023,-0.1965 -0.3105,-0.0096 -0.6039,0.034 -0.8804,0.131 -0.2716,0.0922 -0.4947,0.2279 -0.6694,0.4075 -0.1697,0.1795 -0.2546,0.3929 -0.2546,0.6402 0,0.228 0.0703,0.4148 0.211,0.5603 0.1406,0.1406 0.3177,0.2547 0.5311,0.342 0.2134,0.0873 0.4317,0.1601 0.6549,0.2183 l 1.819,0.4947 c 0.2716,0.0728 0.5724,0.1698 0.9022,0.2911 0.3298,0.1164 0.6452,0.2814 0.9459,0.4947 0.3056,0.2087 0.5554,0.4852 0.7494,0.8295 0.1989,0.3444 0.2983,0.7809 0.2983,1.3097 0,0.5626 -0.1188,1.055 -0.3565,1.477 -0.2328,0.4172 -0.5481,0.764 -0.9459,1.0405 -0.3978,0.2716 -0.8489,0.4753 -1.3533,0.6112 -0.4997,0.1359 -1.0163,0.2037 -1.5498,0.2037 z m 8.1359,-0.2183 v -10.4775 h 4.191 c 0.7471,0 1.351,0.1505 1.8118,0.4512 0.4609,0.2959 0.7979,0.6694 1.0113,1.1205 0.2136,0.4511 0.3202,0.9071 0.3202,1.3679 0,0.5869 -0.1334,1.0744 -0.4002,1.4625 -0.2619,0.388 -0.6232,0.6475 -1.0841,0.7785 v -0.3638 c 0.6548,0.1358 1.1448,0.4389 1.4697,0.9095 0.33,0.4706 0.4948,0.9968 0.4948,1.5789 0,0.6257 -0.1164,1.1763 -0.3492,1.6517 -0.228,0.4753 -0.5772,0.8489 -1.0478,1.1205 -0.4704,0.2668 -1.0623,0.4001 -1.7754,0.4001 z m 2.0082,-1.8626 h 2.4302 c 0.2668,0 0.5046,-0.0559 0.7131,-0.1674 0.2086,-0.1164 0.371,-0.2765 0.4875,-0.4802 0.1213,-0.2086 0.1819,-0.4535 0.1819,-0.7349 0,-0.2474 -0.051,-0.468 -0.1528,-0.6621 -0.1019,-0.1941 -0.2571,-0.3469 -0.4657,-0.4584 -0.2037,-0.1164 -0.4584,-0.1746 -0.764,-0.1746 h -2.4302 z m 0,-4.5257 h 2.1537 c 0.2232,0 0.422,-0.0388 0.5967,-0.1164 0.1746,-0.0777 0.3128,-0.1965 0.4147,-0.3566 0.1019,-0.1649 0.1528,-0.3759 0.1528,-0.633 0,-0.3201 -0.0994,-0.5893 -0.2983,-0.8076 -0.1989,-0.2183 -0.4875,-0.3274 -0.8659,-0.3274 h -2.1537 z m 6.2389,6.3883 3.2015,-10.4775 h 2.954 l 3.2015,10.4775 h -2.0373 l -2.8522,-9.2405 h 0.3783 l -2.8085,9.2405 z m 1.9209,-2.1828 v -1.8481 h 5.5298 v 1.8481 z m 8.4491,2.1828 v -10.4775 h 4.424 c 0.102,0 0.238,0.0049 0.407,0.0146 0.175,0.0049 0.33,0.0194 0.466,0.0437 0.626,0.0969 1.137,0.3032 1.535,0.6184 0.403,0.3153 0.699,0.7131 0.888,1.1933 0.189,0.4753 0.284,1.0065 0.284,1.5934 0,0.8781 -0.219,1.6299 -0.655,2.2556 -0.437,0.6209 -1.121,1.0041 -2.052,1.1496 l -0.873,0.0582 h -2.445 v 3.5507 z m 5.908,0 -2.066,-4.2637 2.037,-0.3929 2.27,4.6566 z m -3.929,-5.3988 h 2.357 c 0.102,0 0.214,-0.0049 0.335,-0.0145 0.121,-0.0097 0.233,-0.0291 0.335,-0.0582 0.267,-0.0728 0.473,-0.1941 0.618,-0.3638 0.146,-0.1747 0.245,-0.3662 0.299,-0.5748 0.058,-0.2134 0.087,-0.4148 0.087,-0.604 0,-0.1891 -0.029,-0.388 -0.087,-0.5966 -0.054,-0.2134 -0.153,-0.4051 -0.299,-0.5748 -0.145,-0.1746 -0.351,-0.2983 -0.618,-0.3711 -0.102,-0.0291 -0.214,-0.0485 -0.335,-0.0582 -0.121,-0.0096 -0.233,-0.0145 -0.335,-0.0145 h -2.357 z m 6.751,5.3988 3.202,-10.4775 h 2.954 l 3.201,10.4775 h -2.037 l -2.852,-9.2405 h 0.378 l -2.809,9.2405 z m 1.921,-2.1828 v -1.8481 h 5.53 v 1.8481 z m 10.013,2.1828 v -8.6293 h -3.304 v -1.8482 h 8.586 v 1.8482 h -3.303 v 8.6293 z m 10.657005,0.2183 c -1.048,0 -1.953,-0.2279 -2.714005,-0.6839 -0.757,-0.456 -1.341,-1.0938 -1.754,-1.9136 -0.407,-0.8198 -0.611,-1.773 -0.611,-2.8595 0,-1.0865 0.204,-2.0397 0.611,-2.8595 0.413,-0.8198 0.997,-1.4576 1.754,-1.9136 0.761005,-0.456 1.666005,-0.6839 2.714005,-0.6839 1.048,0 1.95,0.2279 2.706,0.6839 0.762,0.456 1.347,1.0938 1.754,1.9136 0.412,0.8198 0.618,1.773 0.618,2.8595 0,1.0865 -0.206,2.0397 -0.618,2.8595 -0.407,0.8198 -0.992,1.4576 -1.754,1.9136 -0.756,0.456 -1.658,0.6839 -2.706,0.6839 z m 0,-1.8626 c 0.664,0.0096 1.217,-0.1334 1.659,-0.4293 0.441,-0.296 0.771,-0.7155 0.989,-1.2588 0.223,-0.5433 0.335,-1.1787 0.335,-1.9063 0,-0.7276 -0.112,-1.3582 -0.335,-1.8918 -0.218,-0.5335 -0.548,-0.9482 -0.989,-1.2442 -0.442,-0.2959 -0.995,-0.4487 -1.659,-0.4584 -0.665,-0.0096 -1.218,0.1334 -1.659,0.4293 -0.442005,0.296 -0.774005,0.7154 -0.997005,1.2588 -0.218,0.5433 -0.327,1.1787 -0.327,1.9063 0,0.7276 0.109,1.3582 0.327,1.8918 0.223,0.5335 0.555,0.9482 0.997005,1.2442 0.441,0.2959 0.994,0.4487 1.659,0.4584 z" />
  <path
     style="fill:#ffffff"
     id="path8"
     d="m 46.059775,72.559699 -2.1272,-2.1167 0.709,-0.7091 2.1167,2.1167 z m -2.794,0.0052 c -0.762,0 -1.411,-0.1657 -1.9473,-0.4974 -0.5362,-0.3351 -0.9472,-0.8007 -1.233,-1.397 -0.2822,-0.5962 -0.4233,-1.2876 -0.4233,-2.0743 0,-0.7867 0.1411,-1.4781 0.4233,-2.0743 0.2858,-0.5963 0.6968,-1.0601 1.233,-1.3917 0.5363,-0.3351 1.1853,-0.5028 1.9473,-0.5028 0.7586,0 1.4059,0.1677 1.9421,0.5028 0.5397,0.3316 0.9507,0.7954 1.2329,1.3917 0.2823,0.5962 0.4234,1.2876 0.4234,2.0743 0,0.7867 -0.1411,1.4781 -0.4234,2.0743 -0.2822,0.5963 -0.6932,1.0619 -1.2329,1.397 -0.5362,0.3317 -1.1835,0.4974 -1.9421,0.4974 z m 0,-1.053 c 0.5398,0.007 0.9878,-0.1111 1.3441,-0.3545 0.3598,-0.247 0.6297,-0.5891 0.8096,-1.0266 0.1799,-0.441 0.2699,-0.9525 0.2699,-1.5346 0,-0.5821 -0.09,-1.0901 -0.2699,-1.524 -0.1799,-0.4375 -0.4498,-0.7779 -0.8096,-1.0213 -0.3563,-0.2434 -0.8043,-0.3668 -1.3441,-0.3704 -0.5397,-0.007 -0.9895,0.1111 -1.3494,0.3545 -0.3562,0.2434 -0.6244,0.5857 -0.8043,1.0266 -0.1799,0.4409 -0.2716,0.9525 -0.2752,1.5346 -0.0034,0.5821 0.0847,1.0918 0.2646,1.5293 0.1799,0.4339 0.4498,0.7726 0.8097,1.016 0.3634,0.2434 0.8149,0.3668 1.3546,0.3704 z m 7.4797,1.053 c -0.5963,0 -1.1236,-0.1217 -1.5823,-0.3651 -0.455,-0.247 -0.8113,-0.5909 -1.0689,-1.0319 -0.2575,-0.4445 -0.3863,-0.9666 -0.3863,-1.5663 v -4.8101 l 1.1219,-0.0053 v 4.7572 c 0,0.3245 0.0546,0.6103 0.164,0.8573 0.1094,0.2469 0.2557,0.4533 0.4392,0.6191 0.1835,0.1657 0.388,0.291 0.6139,0.3757 0.2292,0.0847 0.4621,0.127 0.6985,0.127 0.2398,0 0.4726,-0.0423 0.6985,-0.127 0.2292,-0.0883 0.4356,-0.2153 0.6191,-0.381 0.1835,-0.1658 0.3281,-0.3722 0.4339,-0.6191 0.1094,-0.247 0.164,-0.5309 0.164,-0.852 v -4.7572 h 1.1219 v 4.8154 c 0,0.5962 -0.1287,1.1166 -0.3863,1.5611 -0.2576,0.4445 -0.6156,0.7901 -1.0742,1.0371 -0.4551,0.2434 -0.9807,0.3651 -1.5769,0.3651 z m 4.3059,-0.1587 v -7.62 h 4.8684 v 1.0425 h -3.7624 v 2.1378 h 3.1274 v 1.0424 h -3.1274 v 2.3548 h 3.7624 v 1.0425 z m 10.872,0.1587 c -0.5961,0 -1.1235,-0.1217 -1.5822,-0.3651 -0.4551,-0.247 -0.8113,-0.5909 -1.0689,-1.0319 -0.2575,-0.4445 -0.3863,-0.9666 -0.3863,-1.5663 v -4.8101 l 1.1218,-0.0053 v 4.7572 c 0,0.3245 0.0548,0.6103 0.1641,0.8573 0.1094,0.2469 0.2558,0.4533 0.4392,0.6191 0.1835,0.1657 0.3881,0.291 0.6138,0.3757 0.2294,0.0847 0.4622,0.127 0.6985,0.127 0.24,0 0.4728,-0.0423 0.6985,-0.127 0.2294,-0.0883 0.4358,-0.2153 0.6191,-0.381 0.1835,-0.1658 0.3281,-0.3722 0.434,-0.6191 0.1094,-0.247 0.164,-0.5309 0.164,-0.852 v -4.7572 h 1.1218 v 4.8154 c 0,0.5962 -0.1287,1.1166 -0.3863,1.5611 -0.2574,0.4445 -0.6155,0.7901 -1.0742,1.0371 -0.4551,0.2434 -0.9806,0.3651 -1.5769,0.3651 z m 4.3066,-0.1587 v -7.62 h 1.121 l 3.752,5.6621 v -5.6621 h 1.122 v 7.62 h -1.122 l -3.752,-5.6674 v 5.6674 z m 6.731,0 2.477,-7.62 h 1.592 l 2.477,7.62 h -1.148 l -2.281,-6.9533 h 0.286 l -2.255,6.9533 z m 1.286,-1.7198 v -1.0372 h 3.979 v 1.0372 z m -47.0527,16.2719 v -7.62 h 1.0002 l 2.7622,5.7308 2.7464,-5.7308 h 1.0107 v 7.6147 h -1.0478 v -5.2123 l -2.4606,5.2176 h -0.5027 l -2.4659,-5.2176 v 5.2176 z m 8.8963,0 v -7.62 h 1.1059 v 7.62 z m 2.4833,0 v -7.62 h 1.1219 l 3.7518,5.6621 v -5.6621 h 1.1218 v 7.62 h -1.1218 l -3.7518,-5.6674 v 5.6674 z m 7.3666,0 v -7.62 h 1.1059 v 7.62 z m 4.3903,0 v -7.62 h 2.9951 c 0.4834,0 0.889,0.0988 1.2171,0.2963 0.3281,0.1975 0.5751,0.4534 0.7408,0.7673 0.1659,0.3105 0.2487,0.6386 0.2487,0.9842 0,0.4198 -0.1039,0.7796 -0.3122,1.0796 -0.2045,0.2999 -0.4815,0.5044 -0.8308,0.6138 l -0.0105,-0.2593 c 0.4868,0.12 0.8608,0.3545 1.1218,0.7038 0.2611,0.3457 0.3916,0.7497 0.3916,1.2118 0,0.448 -0.09,0.8378 -0.2699,1.1694 -0.1764,0.3317 -0.4356,0.591 -0.7779,0.7779 -0.3387,0.1835 -0.7495,0.2752 -1.2329,0.2752 z m 1.1219,-1.0531 h 1.9896 c 0.2506,0 0.4746,-0.0476 0.6721,-0.1428 0.2011,-0.0953 0.3581,-0.2312 0.4709,-0.4075 0.1164,-0.1799 0.1746,-0.3933 0.1746,-0.6403 0,-0.2293 -0.051,-0.4356 -0.1534,-0.6191 -0.0987,-0.1869 -0.2434,-0.3334 -0.4339,-0.4392 -0.187,-0.1094 -0.4075,-0.1641 -0.6615,-0.1641 h -2.0584 z m 0,-3.4554 h 1.8573 c 0.2047,0 0.3882,-0.0406 0.5504,-0.1217 0.1659,-0.0847 0.2963,-0.2047 0.3916,-0.3599 0.0988,-0.1587 0.1481,-0.3492 0.1481,-0.5715 0,-0.2963 -0.0987,-0.5397 -0.2963,-0.7302 -0.1975,-0.1905 -0.4621,-0.2858 -0.7938,-0.2858 h -1.8573 z m 8.4613,4.6672 c -0.762,0 -1.411,-0.1657 -1.9473,-0.4974 -0.5362,-0.3351 -0.9472,-0.8007 -1.233,-1.397 -0.2821,-0.5962 -0.4233,-1.2876 -0.4233,-2.0743 0,-0.7868 0.1412,-1.4781 0.4233,-2.0744 0.2858,-0.5962 0.6968,-1.06 1.233,-1.3917 0.5363,-0.3351 1.1853,-0.5027 1.9473,-0.5027 0.7586,0 1.4059,0.1676 1.9421,0.5027 0.5397,0.3317 0.9508,0.7955 1.2329,1.3917 0.2823,0.5963 0.4234,1.2876 0.4234,2.0744 0,0.7867 -0.1411,1.4781 -0.4234,2.0743 -0.2821,0.5963 -0.6932,1.0619 -1.2329,1.397 -0.5362,0.3317 -1.1835,0.4974 -1.9421,0.4974 z m 0,-1.053 c 0.5398,0.007 0.9879,-0.1111 1.3441,-0.3546 0.3599,-0.2469 0.6297,-0.5891 0.8096,-1.0265 0.18,-0.441 0.2699,-0.9525 0.2699,-1.5346 0,-0.5821 -0.0899,-1.0901 -0.2699,-1.524 -0.1799,-0.4375 -0.4497,-0.7779 -0.8096,-1.0213 -0.3562,-0.2434 -0.8043,-0.3669 -1.3441,-0.3704 -0.5397,-0.007 -0.9895,0.1111 -1.3493,0.3545 -0.3563,0.2434 -0.6245,0.5857 -0.8044,1.0266 -0.1799,0.4409 -0.2716,0.9525 -0.2751,1.5346 -0.0035,0.5821 0.0846,1.0918 0.2645,1.5293 0.18,0.4339 0.4498,0.7725 0.8097,1.016 0.3634,0.2434 0.8149,0.3668 1.3546,0.3704 z m 4.4423,0.8943 v -7.62 h 2.3867 c 0.07,0 0.201,0.0017 0.391,0.0053 0.194,0.0035 0.38,0.0176 0.556,0.0423 0.596,0.0741 1.097,0.2875 1.503,0.6403 0.409,0.3528 0.718,0.8008 0.926,1.3441 0.208,0.5397 0.312,1.1324 0.312,1.778 0,0.6491 -0.104,1.2452 -0.312,1.7886 -0.208,0.5397 -0.517,0.9859 -0.926,1.3388 -0.406,0.3492 -0.907,0.5609 -1.503,0.6349 -0.176,0.0248 -0.362,0.0388 -0.556,0.0424 -0.19,0.0036 -0.321,0.0053 -0.391,0.0053 z m 1.1324,-1.0531 h 1.2543 c 0.12,0 0.263,-0.0035 0.428,-0.0106 0.166,-0.007 0.313,-0.0211 0.44,-0.0423 0.388,-0.0741 0.702,-0.2417 0.942,-0.5027 0.243,-0.2646 0.421,-0.5891 0.534,-0.9737 0.113,-0.3845 0.169,-0.7937 0.169,-1.2276 0,-0.4481 -0.058,-0.8626 -0.174,-1.2436 -0.117,-0.3845 -0.297,-0.7055 -0.54,-0.963 -0.24,-0.2611 -0.55,-0.427 -0.931,-0.4975 -0.127,-0.0247 -0.276,-0.0387 -0.445,-0.0423 -0.166,-0.007 -0.307,-0.0106 -0.423,-0.0106 h -1.2543 z m 5.9633,1.0531 v -7.62 h 4.868 v 1.0424 h -3.762 v 2.1379 h 3.127 v 1.0424 h -3.127 v 2.3548 h 3.762 v 1.0425 z m 8.724,0.1587 c -0.512,0 -0.983,-0.0882 -1.413,-0.2646 -0.431,-0.1799 -0.805,-0.4409 -1.122,-0.7831 -0.318,-0.3423 -0.565,-0.7584 -0.741,-1.2489 -0.176,-0.4904 -0.265,-1.0477 -0.265,-1.6721 0,-0.8219 0.15,-1.5276 0.45,-2.1167 0.3,-0.5927 0.716,-1.0477 1.249,-1.3652 0.533,-0.3211 1.147,-0.4816 1.842,-0.4816 0.896,0 1.61,0.2081 2.143,0.6244 0.536,0.4164 0.901,0.9913 1.095,1.7251 l -1.122,0.2011 c -0.155,-0.4551 -0.406,-0.8185 -0.751,-1.0901 -0.346,-0.2716 -0.78,-0.4092 -1.302,-0.4127 -0.54,-0.0036 -0.989,0.1164 -1.349,0.3598 -0.357,0.2434 -0.625,0.5857 -0.805,1.0266 -0.18,0.4375 -0.271,0.9472 -0.275,1.5293 -0.003,0.5821 0.085,1.0918 0.265,1.5293 0.18,0.4339 0.45,0.7725 0.809,1.016 0.364,0.2434 0.815,0.3668 1.355,0.3704 0.434,0.007 0.806,-0.0724 1.117,-0.2381 0.314,-0.1694 0.562,-0.4164 0.746,-0.7409 0.183,-0.3245 0.301,-0.7232 0.354,-1.1959 h -1.481 v -0.889 h 2.656 c 0.007,0.0635 0.012,0.1482 0.016,0.254 0.003,0.1023 0.005,0.1676 0.005,0.1958 0,0.7055 -0.136,1.3352 -0.407,1.8891 -0.272,0.5539 -0.667,0.9896 -1.186,1.3071 -0.518,0.3139 -1.146,0.4709 -1.883,0.4709 z m 3.583,-0.1587 2.477,-7.62 h 1.593 l 2.476,7.62 h -1.148 l -2.281,-6.9533 h 0.286 l -2.254,6.9533 z m 1.286,-1.7198 v -1.0372 h 3.98 v 1.0372 z M 44.963475,101.669 c -0.762,0 -1.4111,-0.166 -1.9473,-0.497 -0.5362,-0.335 -0.9472,-0.801 -1.233,-1.397301 -0.2822,-0.5962 -0.4233,-1.2876 -0.4233,-2.0743 0,-0.7868 0.1411,-1.4781 0.4233,-2.0744 0.2858,-0.5962 0.6968,-1.06 1.233,-1.3917 0.5362,-0.3351 1.1853,-0.5027 1.9473,-0.5027 0.8784,0 1.6051,0.2223 2.1802,0.6668 0.5785,0.4445 0.9807,1.0424 1.2065,1.7938 l -1.1219,0.3017 c -0.1481,-0.5328 -0.4127,-0.9508 -0.7937,-1.2542 -0.3774,-0.3033 -0.8678,-0.455 -1.4711,-0.455 -0.5397,0 -0.9895,0.1217 -1.3494,0.3651 -0.3598,0.2434 -0.6314,0.5838 -0.8149,1.0213 -0.1799,0.4375 -0.2698,0.9472 -0.2698,1.5293 -0.0036,0.582 0.0846,1.0918 0.2645,1.5293 0.1835,0.4374 0.4551,0.778301 0.8149,1.021301 0.3635,0.243 0.815,0.365 1.3547,0.365 0.6033,0 1.0937,-0.152 1.4711,-0.455 0.381,-0.306901 0.6456,-0.725001 0.7937,-1.254101 l 1.1219,0.3016 c -0.2258,0.7514 -0.628,1.349501 -1.2065,1.793501 -0.5751,0.445 -1.3018,0.667 -2.1802,0.667 z m 4.4446,-0.159 v -7.619601 h 1.106 V 100.468 h 3.4501 v 1.042 z m 8.5291,-8.466301 h -0.8678 l 0.7567,-1.8521 h 0.8678 z m -3.8153,8.466301 2.4765,-7.619601 h 1.5928 l 2.4765,7.619601 h -1.1483 l -2.2807,-6.952901 h 0.2858 l -2.2543,6.952901 z m 1.2859,-1.719401 v -1.0372 h 3.9793 v 1.0372 z m 8.5532,1.878401 c -0.5469,0 -1.0407,-0.093 -1.4817,-0.28 -0.4375,-0.191 -0.799,-0.461 -1.0848,-0.81 -0.2823,-0.353 -0.4656,-0.770801 -0.5503,-1.254101 l 1.1536,-0.1746 c 0.1164,0.4656 0.3598,0.829 0.7302,1.089701 0.3705,0.258 0.8025,0.387 1.2965,0.387 0.3069,0 0.5891,-0.048 0.8467,-0.143 0.2574,-0.099 0.4638,-0.238 0.6191,-0.418 0.1587,-0.183801 0.2381,-0.402401 0.2381,-0.656401 0,-0.1376 -0.0247,-0.2593 -0.0741,-0.3652 -0.0459,-0.1058 -0.1111,-0.1975 -0.1958,-0.2751 -0.0812,-0.0811 -0.1817,-0.1499 -0.3016,-0.2064 -0.1164,-0.0599 -0.2453,-0.1111 -0.3863,-0.1535 l -1.9526,-0.5767 c -0.1905,-0.0565 -0.3846,-0.1288 -0.5821,-0.217 -0.1976,-0.0917 -0.3793,-0.21 -0.545,-0.3545 -0.1624,-0.1482 -0.2946,-0.3299 -0.3969,-0.5451 -0.1024,-0.2187 -0.1535,-0.4833 -0.1535,-0.7937 0,-0.4693 0.1199,-0.8662 0.3599,-1.1907 0.2434,-0.328 0.5715,-0.575 0.9842,-0.7408 0.4128,-0.1693 0.8749,-0.254 1.3864,-0.254 0.5151,0.007 0.9754,0.0988 1.3812,0.2752 0.4091,0.1763 0.7478,0.4303 1.016,0.762 0.2716,0.328 0.4585,0.7266 0.5609,1.1959 l -1.1854,0.2011 c -0.0529,-0.2858 -0.1658,-0.5309 -0.3386,-0.7356 -0.1729,-0.2081 -0.3846,-0.3668 -0.635,-0.4762 -0.2506,-0.1129 -0.5222,-0.1711 -0.8149,-0.1746 -0.2823,-0.0071 -0.5416,0.0353 -0.7779,0.127 -0.2328,0.0916 -0.4199,0.2205 -0.5609,0.3862 -0.1376,0.1658 -0.2064,0.3563 -0.2064,0.5715 0,0.2117 0.0616,0.3828 0.1852,0.5133 0.1234,0.1306 0.2752,0.2346 0.4551,0.3122 0.1833,0.0741 0.3651,0.1359 0.545,0.1852 l 1.4076,0.3969 c 0.1764,0.0494 0.3757,0.1164 0.598,0.2011 0.2257,0.0811 0.4426,0.1958 0.6508,0.344 0.2117,0.1481 0.3863,0.3457 0.5239,0.5926 0.1376,0.2435 0.2064,0.5504 0.2064,0.9208 0,0.3846 -0.0777,0.723501 -0.2328,1.015501 -0.1553,0.29 -0.3687,0.533 -0.6403,0.731 -0.2682,0.194 -0.5787,0.34 -0.9314,0.439 -0.3528,0.099 -0.7249,0.148 -1.1165,0.148 z m 3.9428,-0.159 v -7.619601 h 1.106 V 101.51 Z m 5.6632,0.159 c -0.762,0 -1.411,-0.166 -1.947,-0.497 -0.536,-0.335 -0.947,-0.801 -1.233,-1.397301 -0.282,-0.5962 -0.4231,-1.2876 -0.4231,-2.0743 0,-0.7868 0.1411,-1.4781 0.4231,-2.0744 0.286,-0.5962 0.697,-1.06 1.233,-1.3917 0.536,-0.3351 1.185,-0.5027 1.947,-0.5027 0.879,0 1.606,0.2223 2.181,0.6668 0.578,0.4445 0.98,1.0424 1.206,1.7938 l -1.122,0.3017 c -0.148,-0.5328 -0.412,-0.9508 -0.793,-1.2542 -0.378,-0.3033 -0.868,-0.455 -1.472,-0.455 -0.539,0 -0.989,0.1217 -1.349,0.3651 -0.36,0.2434 -0.631,0.5838 -0.815,1.0213 -0.18,0.4375 -0.27,0.9472 -0.27,1.5293 -0.003,0.582 0.085,1.0918 0.265,1.5293 0.183,0.4374 0.455,0.778301 0.815,1.021301 0.363,0.243 0.815,0.365 1.354,0.365 0.604,0 1.094,-0.152 1.472,-0.455 0.381,-0.306901 0.645,-0.725001 0.793,-1.254101 l 1.122,0.3016 c -0.226,0.7514 -0.628,1.349501 -1.206,1.793501 -0.575,0.445 -1.302,0.667 -2.181,0.667 z m 3.603,-0.159 2.477,-7.619601 h 1.593 l 2.476,7.619601 h -1.148 l -2.281,-6.952901 h 0.286 l -2.254,6.952901 z m 1.286,-1.719401 v -1.0372 h 3.98 v 1.0372 z" />
</svg>
