<svg width="142" height="191" viewBox="0 0 142 191" fill="none" xmlns="http://www.w3.org/2000/svg">
<path d="M75.3878 2.90373C77.1407 1.26842 79.8601 1.26842 81.6129 2.90373L87.0886 8.01212C88.3543 9.19285 90.179 9.55582 91.8002 8.94929L98.8139 6.3252C101.059 5.48517 103.572 6.52585 104.565 8.70749L107.669 15.5225C108.387 17.0977 109.934 18.1313 111.663 18.1913L119.147 18.451C121.543 18.5341 123.466 20.4571 123.549 22.8529L123.809 30.3369C123.869 32.0667 124.903 33.6137 126.478 34.3312L133.293 37.4351C135.474 38.4288 136.515 40.9411 135.675 43.1864L133.051 50.2001C132.444 51.8213 132.807 53.646 133.988 54.9116L139.097 60.3873C140.732 62.1402 140.732 64.8596 139.097 66.6124L133.988 72.0881C132.807 73.3538 132.444 75.1785 133.051 76.7997L135.675 83.8134C136.515 86.0587 135.474 88.571 133.293 89.5647L126.478 92.6686C124.903 93.386 123.869 94.9331 123.809 96.6629L123.549 104.147C123.466 106.543 121.543 108.466 119.147 108.549L111.663 108.808C109.934 108.869 108.387 109.902 107.669 111.477L104.565 118.292C103.572 120.474 101.059 121.515 98.8139 120.675L91.8002 118.05C90.179 117.444 88.3543 117.807 87.0886 118.988L81.6129 124.096C79.8601 125.731 77.1407 125.731 75.3878 124.096L69.9121 118.988C68.6465 117.807 66.8218 117.444 65.2006 118.05L58.1869 120.675C55.9416 121.515 53.4293 120.474 52.4356 118.292L49.3317 111.477C48.6142 109.902 47.0672 108.869 45.3374 108.808L37.8534 108.549C35.4576 108.466 33.5346 106.543 33.4515 104.147L33.1918 96.6629C33.1317 94.9331 32.0981 93.386 30.523 92.6686L23.708 89.5647C21.5263 88.571 20.4857 86.0587 21.3257 83.8134L23.9498 76.7997C24.5563 75.1785 24.1933 73.3538 23.0126 72.0881L17.9042 66.6124C16.2689 64.8596 16.2689 62.1402 17.9042 60.3873L23.0126 54.9116C24.1933 53.646 24.5563 51.8213 23.9498 50.2001L21.3257 43.1864C20.4857 40.9411 21.5263 38.4288 23.708 37.4351L30.523 34.3312C32.0981 33.6137 33.1317 32.0667 33.1918 30.3369L33.4515 22.8529C33.5346 20.4571 35.4576 18.5341 37.8534 18.451L45.3374 18.1913C47.0672 18.1313 48.6142 17.0977 49.3317 15.5225L52.4356 8.70749C53.4293 6.52585 55.9416 5.48517 58.1869 6.3252L65.2006 8.94929C66.8218 9.55582 68.6465 9.19285 69.9121 8.01211L75.3878 2.90373Z" fill="#4760FF"/>
<path d="M76.1005 7.95147C77.4519 6.69065 79.5486 6.69065 80.9001 7.95147L85.9662 12.6777C87.3322 13.9522 89.3019 14.344 91.0517 13.6893L97.5408 11.2615C99.2718 10.6138 101.209 11.4162 101.975 13.0983L104.847 19.4034C105.621 21.1037 107.291 22.2193 109.158 22.2842L116.082 22.5244C117.929 22.5886 119.412 24.0712 119.476 25.9182L119.716 32.8425C119.781 34.7097 120.897 36.3794 122.597 37.1537L128.902 40.0255C130.584 40.7916 131.387 42.7288 130.739 44.4598L128.311 50.9489C127.657 52.6987 128.048 54.6684 129.323 56.0344L134.049 61.1005C135.31 62.4519 135.31 64.5486 134.049 65.9001L129.323 70.9662C128.048 72.3322 127.657 74.3019 128.311 76.0517L130.739 82.5408C131.387 84.2718 130.584 86.209 128.902 86.9751L122.597 89.8467C120.897 90.6212 119.781 92.2909 119.716 94.1581L119.476 101.082C119.412 102.929 117.929 104.412 116.082 104.476L109.158 104.716C107.291 104.781 105.621 105.897 104.847 107.597L101.975 113.902C101.209 115.584 99.2718 116.387 97.5408 115.739L91.0517 113.311C89.3019 112.657 87.3322 113.048 85.9662 114.323L80.9001 119.049C79.5486 120.31 77.4519 120.31 76.1005 119.049L71.0344 114.323C69.6684 113.048 67.6987 112.657 65.9489 113.311L59.4598 115.739C57.7288 116.387 55.7916 115.584 55.0255 113.902L52.1537 107.597C51.3794 105.897 49.7097 104.781 47.8425 104.716L40.9182 104.476C39.0712 104.412 37.5886 102.929 37.5244 101.082L37.2842 94.1581C37.2193 92.2909 36.1037 90.6212 34.4034 89.8467L28.0982 86.9751C26.4162 86.209 25.6138 84.2718 26.2615 82.5408L28.6893 76.0517C29.344 74.3019 28.9522 72.3322 27.6777 70.9662L22.9515 65.9001C21.6907 64.5486 21.6907 62.4519 22.9515 61.1005L27.6777 56.0344C28.9522 54.6684 29.344 52.6987 28.6893 50.9489L26.2615 44.4598C25.6138 42.7288 26.4162 40.7916 28.0983 40.0255L34.4034 37.1537C36.1037 36.3794 37.2193 34.7097 37.2842 32.8425L37.5244 25.9182C37.5886 24.0712 39.0712 22.5886 40.9182 22.5244L47.8425 22.2842C49.7097 22.2193 51.3794 21.1037 52.1537 19.4034L55.0255 13.0982C55.7916 11.4162 57.7288 10.6138 59.4598 11.2615L65.9489 13.6893C67.6987 14.344 69.6684 13.9522 71.0344 12.6777L76.1005 7.95147Z" fill="#4760FF"/>
<path d="M101.975 13.0983C101.209 11.4162 99.2718 10.6138 97.5408 11.2615L91.0517 13.6893C89.3019 14.344 87.3322 13.9522 85.9662 12.6777L80.9001 7.95147C79.5486 6.69065 77.4519 6.69065 76.1005 7.95147L71.0344 12.6777C69.6684 13.9522 67.6987 14.344 65.9489 13.6893L59.4598 11.2615C57.7288 10.6138 55.7916 11.4162 55.0255 13.0982L52.1537 19.4034C51.3794 21.1037 49.7097 22.2193 47.8425 22.2842L40.9182 22.5244C39.0712 22.5886 37.5886 24.0712 37.5244 25.9182L37.2842 32.8425C37.2193 34.7097 36.1037 36.3794 34.4034 37.1537L28.0983 40.0255C26.4162 40.7916 25.6138 42.7288 26.2615 44.4598L28.6893 50.9489C29.344 52.6987 28.9522 54.6684 27.6777 56.0344L22.9515 61.1005C21.6907 62.4519 21.6907 64.5486 22.9515 65.9001L27.6777 70.9662C28.9522 72.3322 29.344 74.3019 28.6893 76.0517L26.2615 82.5408C25.6138 84.2718 26.4162 86.209 28.0982 86.9751L34.4034 89.8467C36.1037 90.6212 37.2193 92.2909 37.2842 94.1581L37.5244 101.082C37.5886 102.929 39.0712 104.412 40.9182 104.476L47.8425 104.716C49.7097 104.781 51.3794 105.897 52.1537 107.597L55.0255 113.902C55.7916 115.584 57.7288 116.387 59.4598 115.739L65.9489 113.311C67.6987 112.657 69.6684 113.048 71.0344 114.323L76.1005 119.049C77.4519 120.31 79.5486 120.31 80.9001 119.049L85.9662 114.323C87.3322 113.048 89.3019 112.657 91.0517 113.311L97.5408 115.739C99.2718 116.387 101.209 115.584 101.975 113.902L104.847 107.597C105.621 105.897 107.291 104.781 109.158 104.716L116.082 104.476C117.929 104.412 119.412 102.929 119.476 101.082L119.716 94.1581C119.781 92.2909 120.897 90.6212 122.597 89.8467L128.902 86.9751C130.584 86.209 131.387 84.2718 130.739 82.5408L128.311 76.0517C127.657 74.3019 128.048 72.3322 129.323 70.9662L134.049 65.9001C135.31 64.5486 135.31 62.4519 134.049 61.1005L129.323 56.0344C128.048 54.6684 127.657 52.6987 128.311 50.9489L130.739 44.4598C131.387 42.7288 130.584 40.7916 128.902 40.0255L122.597 37.1537C120.897 36.3794 119.781 34.7097 119.716 32.8425L119.476 25.9182C119.412 24.0712 117.929 22.5886 116.082 22.5244L109.158 22.2842C107.291 22.2193 105.621 21.1037 104.847 19.4034L101.975 13.0983ZM101.975 13.0983L102.615 12.8066" stroke="white" stroke-width="1.0637"/>
<path d="M63.3968 46.543C62.7301 46.543 62.0942 46.4103 61.4892 46.1448C60.8841 45.8732 60.3563 45.4936 59.9057 45.0058C59.4612 44.518 59.1431 43.9439 58.9519 43.2834L61.3966 42.6351C61.5262 43.1229 61.7793 43.5026 62.156 43.7742C62.5387 44.0397 62.9523 44.1724 63.3968 44.1724C63.7796 44.1724 64.1284 44.0798 64.4433 43.8946C64.7642 43.7094 65.0174 43.4593 65.2026 43.1445C65.3939 42.8296 65.4897 42.4808 65.4897 42.098C65.4897 41.5239 65.2921 41.0331 64.897 40.6256C64.5081 40.212 64.008 40.0052 63.3968 40.0052C63.2116 40.0052 63.0325 40.033 62.8597 40.0885C62.6868 40.1379 62.5202 40.2089 62.3597 40.3015L61.2299 38.3198L65.4712 34.8008L65.6564 35.3379H59.4704V32.9673H67.8048V35.3379L64.5081 38.5235L64.4896 37.8197C65.255 37.9371 65.9002 38.2056 66.425 38.6254C66.9559 39.0391 67.3571 39.5514 67.6289 40.1626C67.9067 40.7676 68.0456 41.4128 68.0456 42.098C68.0456 42.9377 67.8326 43.6939 67.4066 44.3668C66.9806 45.0336 66.4157 45.5645 65.712 45.9596C65.0082 46.3486 64.2364 46.543 63.3968 46.543ZM75.0245 46.5801C74.0368 46.5801 73.1724 46.3733 72.4316 45.9596C71.6907 45.546 71.1136 44.9688 70.6999 44.2279C70.2863 43.4871 70.0794 42.6228 70.0794 41.635V37.6345C70.0794 36.6467 70.2863 35.7824 70.6999 35.0416C71.1136 34.3008 71.6907 33.7236 72.4316 33.3099C73.1724 32.8962 74.0368 32.6895 75.0245 32.6895C76.0123 32.6895 76.8766 32.8962 77.6174 33.3099C78.3582 33.7236 78.9356 34.3008 79.3491 35.0416C79.7628 35.7824 79.9696 36.6467 79.9696 37.6345V41.635C79.9696 42.6228 79.7628 43.4871 79.3491 44.2279C78.9356 44.9688 78.3582 45.546 77.6174 45.9596C76.8766 46.3733 76.0123 46.5801 75.0245 46.5801ZM75.0245 44.1909C75.469 44.1909 75.8704 44.086 76.2283 43.876C76.5865 43.6661 76.8705 43.3822 77.0803 43.0241C77.2903 42.666 77.3952 42.2647 77.3952 41.8202V37.4308C77.3952 36.9863 77.2903 36.585 77.0803 36.2269C76.8705 35.8688 76.5865 35.5849 76.2283 35.375C75.8704 35.165 75.469 35.0601 75.0245 35.0601C74.58 35.0601 74.1788 35.165 73.8206 35.375C73.4627 35.5849 73.1786 35.8688 72.9687 36.2269C72.7589 36.585 72.6538 36.9863 72.6538 37.4308V41.8202C72.6538 42.2647 72.7589 42.666 72.9687 43.0241C73.1786 43.3822 73.4627 43.6661 73.8206 43.876C74.1788 44.086 74.58 44.1909 75.0245 44.1909ZM84.2262 46.3023L82.5593 44.6354L94.2274 32.9673L95.8943 34.6527L84.2262 46.3023ZM93.1162 46.5801C92.505 46.5801 91.9463 46.4319 91.44 46.1356C90.94 45.833 90.5387 45.4318 90.2362 44.9317C89.9338 44.4254 89.7824 43.8637 89.7824 43.2463C89.7824 42.6414 89.9368 42.0857 90.2454 41.5795C90.5542 41.0732 90.9617 40.6689 91.4678 40.3663C91.9741 40.0638 92.5235 39.9126 93.1162 39.9126C93.7274 39.9126 94.2862 40.0638 94.7923 40.3663C95.2986 40.6627 95.6998 41.0639 95.9962 41.5702C96.2987 42.0703 96.4499 42.6289 96.4499 43.2463C96.4499 43.8637 96.2987 44.4254 95.9962 44.9317C95.6998 45.4318 95.2986 45.833 94.7923 46.1356C94.2862 46.4319 93.7274 46.5801 93.1162 46.5801ZM93.1162 44.4502C93.3323 44.4502 93.5299 44.3946 93.7088 44.2835C93.8941 44.1724 94.0422 44.0272 94.1533 43.8483C94.2645 43.663 94.32 43.4624 94.32 43.2463C94.32 43.0303 94.2645 42.8327 94.1533 42.6537C94.0422 42.4685 93.8941 42.3203 93.7088 42.2092C93.5299 42.098 93.3323 42.0425 93.1162 42.0425C92.9001 42.0425 92.6995 42.098 92.5142 42.2092C92.3353 42.3203 92.1901 42.4685 92.079 42.6537C91.9679 42.8327 91.9123 43.0303 91.9123 43.2463C91.9123 43.4624 91.9679 43.663 92.079 43.8483C92.1901 44.0272 92.3353 44.1724 92.5142 44.2835C92.6995 44.3946 92.9001 44.4502 93.1162 44.4502ZM85.3374 39.357C84.7262 39.357 84.1676 39.2088 83.6613 38.9125C83.1551 38.6099 82.7507 38.2087 82.4482 37.7086C82.1518 37.2023 82.0037 36.6406 82.0037 36.0232C82.0037 35.4182 82.1581 34.8626 82.4667 34.3563C82.7755 33.85 83.1829 33.4458 83.6891 33.1432C84.1953 32.8407 84.7448 32.6895 85.3374 32.6895C85.9486 32.6895 86.5042 32.8407 87.0043 33.1432C87.5106 33.4395 87.915 33.8408 88.2174 34.3471C88.52 34.8471 88.6712 35.4058 88.6712 36.0232C88.6712 36.6406 88.52 37.2023 88.2174 37.7086C87.915 38.2087 87.5106 38.6099 87.0043 38.9125C86.5042 39.2088 85.9486 39.357 85.3374 39.357ZM85.3374 37.2271C85.5536 37.2271 85.7511 37.1715 85.9301 37.0604C86.1153 36.9492 86.2635 36.8041 86.3746 36.6251C86.4857 36.4399 86.5413 36.2392 86.5413 36.0232C86.5413 35.8072 86.4857 35.6095 86.3746 35.4305C86.2635 35.2453 86.1153 35.0972 85.9301 34.986C85.7511 34.8749 85.5536 34.8193 85.3374 34.8193C85.1214 34.8193 84.9207 34.8749 84.7355 34.986C84.5565 35.0972 84.4114 35.2453 84.3003 35.4305C84.1891 35.6095 84.1336 35.8072 84.1336 36.0232C84.1336 36.2392 84.1891 36.4399 84.3003 36.6251C84.4114 36.8041 84.5565 36.9492 84.7355 37.0604C84.9207 37.1715 85.1214 37.2271 85.3374 37.2271ZM50.9219 63.5002V53.0227H52.901V63.5002H50.9219ZM54.7913 63.5002V53.0227H56.7995L61.3543 60.0077V53.0227H63.3625V63.5002H61.3543L56.7995 56.5152V63.5002H54.7913ZM67.7238 63.5002V53.0227H69.4992L72.9626 59.9786L76.426 53.0227H78.2013V63.5002H76.3532V57.2428L73.3118 63.5002H72.6133L69.572 57.2428V63.5002H67.7238ZM79.9526 63.5002V53.0227H86.7921V54.8708H81.9317V57.1118H85.919V58.9599H81.9317V61.6521H86.7921V63.5002H79.9526ZM88.2451 63.5002V53.0227H90.2533L94.808 60.0077V53.0227H96.8162V63.5002H94.808L90.2533 56.5152V63.5002H88.2451ZM103.052 63.7185C102.004 63.7185 101.1 63.4905 100.338 63.0345C99.5814 62.5785 98.9969 61.9407 98.5846 61.1209C98.1771 60.3011 97.9734 59.3479 97.9734 58.2614C97.9734 57.1749 98.1771 56.2218 98.5846 55.402C98.9969 54.5821 99.5814 53.9444 100.338 53.4883C101.1 53.0323 102.004 52.8044 103.052 52.8044C104.1 52.8044 105.002 53.0323 105.759 53.4883C106.52 53.9444 107.105 54.5821 107.512 55.402C107.925 56.2218 108.131 57.1749 108.131 58.2614C108.131 59.3479 107.925 60.3011 107.512 61.1209C107.105 61.9407 106.52 62.5785 105.759 63.0345C105.002 63.4905 104.1 63.7185 103.052 63.7185ZM103.052 61.8558C103.717 61.8655 104.27 61.7224 104.711 61.4265C105.152 61.1306 105.482 60.7111 105.701 60.1678C105.924 59.6244 106.035 58.989 106.035 58.2614C106.035 57.5338 105.924 56.9032 105.701 56.3697C105.482 55.8361 105.152 55.4214 104.711 55.1255C104.27 54.8295 103.717 54.6767 103.052 54.6671C102.388 54.6574 101.835 54.8004 101.393 55.0964C100.952 55.3923 100.619 55.8118 100.396 56.3551C100.178 56.8984 100.069 57.5338 100.069 58.2614C100.069 58.989 100.178 59.6197 100.396 60.1532C100.619 60.6867 100.952 61.1015 101.393 61.3974C101.835 61.6933 102.388 61.8461 103.052 61.8558Z" fill="white"/>
<path d="M39.7637 79.3749V71.7549H42.1502C42.2207 71.7549 42.3513 71.7567 42.5418 71.7602C42.7357 71.7638 42.9209 71.7778 43.0974 71.8026C43.6935 71.8767 44.1945 72.09 44.6003 72.4429C45.0094 72.7957 45.3181 73.2436 45.5263 73.7869C45.7344 74.3267 45.8385 74.9194 45.8385 75.5649C45.8385 76.2141 45.7344 76.8102 45.5263 77.3535C45.3181 77.8933 45.0094 78.3395 44.6003 78.6923C44.1945 79.0416 43.6935 79.2532 43.0974 79.3273C42.9209 79.3521 42.7357 79.3661 42.5418 79.3696C42.3513 79.3732 42.2207 79.3749 42.1502 79.3749H39.7637ZM40.8961 78.3219H42.1502C42.2701 78.3219 42.4129 78.3183 42.5788 78.3113C42.7446 78.3043 42.891 78.2902 43.018 78.269C43.4061 78.1949 43.72 78.0273 43.96 77.7663C44.2034 77.5017 44.3814 77.1772 44.4944 76.7926C44.6073 76.408 44.6638 75.9989 44.6638 75.5649C44.6638 75.1169 44.6055 74.7024 44.4891 74.3214C44.3727 73.9368 44.1928 73.6159 43.9494 73.3583C43.7094 73.0973 43.399 72.9314 43.018 72.8609C42.891 72.8362 42.7429 72.8221 42.5735 72.8186C42.4077 72.8116 42.2666 72.808 42.1502 72.808H40.8961V78.3219ZM46.9648 79.3749V71.7549H48.0708V79.3749H46.9648ZM54.3927 79.5337C53.7965 79.5337 53.2691 79.412 52.8105 79.1686C52.3555 78.9216 51.9991 78.5776 51.7416 78.1367C51.4841 77.6922 51.3553 77.17 51.3553 76.5704V71.7602L52.4772 71.7549V76.5121C52.4772 76.8367 52.5318 77.1224 52.6412 77.3694C52.7505 77.6164 52.8969 77.8228 53.0804 77.9885C53.2638 78.1543 53.4684 78.2796 53.6942 78.3642C53.9235 78.4489 54.1563 78.4912 54.3927 78.4912C54.6326 78.4912 54.8654 78.4489 55.0912 78.3642C55.3205 78.276 55.5269 78.149 55.7104 77.9832C55.8937 77.8175 56.0385 77.6111 56.1443 77.3641C56.2536 77.1171 56.3083 76.8332 56.3083 76.5121V71.7549H57.4302V76.5704C57.4302 77.1666 57.3013 77.6869 57.0439 78.1314C56.7863 78.5759 56.4282 78.9216 55.9697 79.1686C55.5146 79.412 54.9889 79.5337 54.3927 79.5337ZM58.6987 79.3749V71.7549H59.8205L63.5723 77.417V71.7549H64.6942V79.3749H63.5723L59.8205 73.7076V79.3749H58.6987ZM67.8665 79.3749V71.7549H70.2531C70.3236 71.7549 70.4541 71.7567 70.6446 71.7602C70.8387 71.7638 71.0239 71.7778 71.2003 71.8026C71.7965 71.8767 72.2974 72.09 72.7031 72.4429C73.1123 72.7957 73.4211 73.2436 73.6291 73.7869C73.8372 74.3267 73.9414 74.9194 73.9414 75.5649C73.9414 76.2141 73.8372 76.8102 73.6291 77.3535C73.4211 77.8933 73.1123 78.3395 72.7031 78.6923C72.2974 79.0416 71.7965 79.2532 71.2003 79.3273C71.0239 79.3521 70.8387 79.3661 70.6446 79.3696C70.4541 79.3732 70.3236 79.3749 70.2531 79.3749H67.8665ZM68.9989 78.3219H70.2531C70.3731 78.3219 70.5159 78.3183 70.6817 78.3113C70.8474 78.3043 70.9939 78.2902 71.1209 78.269C71.5089 78.1949 71.823 78.0273 72.0628 77.7663C72.3062 77.5017 72.4844 77.1772 72.5973 76.7926C72.7101 76.408 72.7666 75.9989 72.7666 75.5649C72.7666 75.1169 72.7084 74.7024 72.592 74.3214C72.4756 73.9368 72.2956 73.6159 72.0522 73.3583C71.8124 73.0973 71.5019 72.9314 71.1209 72.8609C70.9939 72.8362 70.8457 72.8221 70.6764 72.8186C70.5106 72.8116 70.3695 72.808 70.2531 72.808H68.9989V78.3219ZM74.9619 79.3749V71.7549H79.8302V72.7974H76.0678V74.9352H79.1952V75.9777H76.0678V78.3325H79.8302V79.3749H74.9619ZM80.8894 79.3749V71.7549H83.9692C84.0433 71.7549 84.135 71.7585 84.2444 71.7655C84.3536 71.7691 84.4577 71.7797 84.5566 71.7973C84.9799 71.8643 85.3326 72.0089 85.6149 72.2312C85.9007 72.4534 86.114 72.7339 86.2552 73.0726C86.3962 73.4112 86.4669 73.7852 86.4669 74.1944C86.4669 74.6072 86.3962 74.9829 86.2552 75.3215C86.114 75.6602 85.9007 75.9406 85.6149 76.1629C85.3326 76.3851 84.9799 76.5297 84.5566 76.5968C84.4577 76.611 84.3519 76.6216 84.2391 76.6286C84.1297 76.6356 84.0397 76.6392 83.9692 76.6392H81.9954V79.3749H80.8894ZM81.9954 75.5914H83.9269C83.9974 75.5914 84.075 75.5878 84.1597 75.5808C84.2478 75.5738 84.3307 75.5614 84.4084 75.5438C84.6341 75.4909 84.8159 75.3939 84.9534 75.2527C85.091 75.1081 85.1897 74.9422 85.2498 74.7553C85.3097 74.5684 85.3397 74.3813 85.3397 74.1944C85.3397 74.0075 85.3097 73.8223 85.2498 73.6388C85.1897 73.4518 85.091 73.2878 84.9534 73.1467C84.8159 73.0021 84.6341 72.9032 84.4084 72.8503C84.3307 72.8292 84.2478 72.815 84.1597 72.808C84.075 72.801 83.9974 72.7974 83.9269 72.7974H81.9954V75.5914ZM90.4933 79.5337C89.7313 79.5337 89.0821 79.3679 88.546 79.0363C88.0096 78.7012 87.5987 78.2355 87.313 77.6393C87.0307 77.043 86.8897 76.3517 86.8897 75.5649C86.8897 74.7782 87.0307 74.0868 87.313 73.4906C87.5987 72.8944 88.0096 72.4306 88.546 72.0989C89.0821 71.7638 89.7313 71.5962 90.4933 71.5962C91.2517 71.5962 91.899 71.7638 92.4353 72.0989C92.9751 72.4306 93.386 72.8944 93.6683 73.4906C93.9505 74.0868 94.0916 74.7782 94.0916 75.5649C94.0916 76.3517 93.9505 77.043 93.6683 77.6393C93.386 78.2355 92.9751 78.7012 92.4353 79.0363C91.899 79.3679 91.2517 79.5337 90.4933 79.5337ZM90.4933 78.4807C91.033 78.4877 91.481 78.3695 91.8374 78.1261C92.1972 77.8791 92.4671 77.537 92.647 77.0995C92.8269 76.6586 92.9169 76.147 92.9169 75.5649C92.9169 74.9829 92.8269 74.4749 92.647 74.0409C92.4671 73.6035 92.1972 73.2631 91.8374 73.0196C91.481 72.7762 91.033 72.6528 90.4933 72.6492C89.9535 72.6422 89.5037 72.7604 89.1439 73.0038C88.7875 73.2472 88.5195 73.5894 88.3396 74.0304C88.1597 74.4713 88.0679 74.9829 88.0644 75.5649C88.0608 76.147 88.1491 76.6567 88.329 77.0942C88.5089 77.5282 88.7788 77.8668 89.1386 78.1102C89.5019 78.3536 89.9535 78.4771 90.4933 78.4807ZM97.6978 79.5337C97.1509 79.5337 96.657 79.4402 96.2161 79.2532C95.7786 79.0627 95.4171 78.7929 95.1313 78.4436C94.849 78.0908 94.6656 77.6727 94.581 77.1895L95.7346 77.0149C95.851 77.4805 96.0944 77.8439 96.4648 78.1049C96.8352 78.3625 97.2673 78.4912 97.7613 78.4912C98.0682 78.4912 98.3504 78.4436 98.6079 78.3484C98.8654 78.2495 99.0717 78.1102 99.2271 77.9303C99.3858 77.7468 99.4652 77.5281 99.4652 77.2741C99.4652 77.1366 99.4404 77.0149 99.3911 76.909C99.3452 76.8032 99.28 76.7115 99.1953 76.6339C99.1141 76.5528 99.0135 76.484 98.8937 76.4275C98.7773 76.3676 98.6484 76.3164 98.5074 76.274L96.5548 75.6972C96.3643 75.6407 96.1702 75.5685 95.9727 75.4803C95.775 75.3886 95.5934 75.2703 95.4276 75.1257C95.2653 74.9776 95.133 74.7959 95.0308 74.5807C94.9284 74.362 94.8773 74.0974 94.8773 73.7869C94.8773 73.3177 94.9972 72.9208 95.2371 72.5963C95.4806 72.2682 95.8086 72.0212 96.2214 71.8555C96.6341 71.6862 97.0962 71.6015 97.6078 71.6015C98.1228 71.6085 98.5832 71.7003 98.9889 71.8767C99.3981 72.053 99.7368 72.307 100.005 72.6387C100.277 72.9667 100.463 73.3653 100.566 73.8346L99.3805 74.0357C99.3276 73.7499 99.2146 73.5048 99.0418 73.3001C98.8689 73.092 98.6573 72.9333 98.4068 72.8239C98.1563 72.711 97.8847 72.6528 97.5919 72.6492C97.3096 72.6422 97.0503 72.6846 96.8141 72.7762C96.5812 72.8679 96.3942 72.9968 96.2531 73.1625C96.1156 73.3283 96.0468 73.5188 96.0468 73.734C96.0468 73.9457 96.1084 74.1167 96.232 74.2473C96.3554 74.3779 96.5071 74.4819 96.6871 74.5595C96.8704 74.6336 97.0522 74.6954 97.2321 74.7447L98.6397 75.1416C98.816 75.191 99.0154 75.258 99.2376 75.3427C99.4633 75.4238 99.6803 75.5385 99.8885 75.6867C100.1 75.8348 100.275 76.0323 100.412 76.2793C100.55 76.5227 100.619 76.8296 100.619 77.2001C100.619 77.5846 100.541 77.9233 100.386 78.2161C100.231 78.5054 100.017 78.7488 99.7456 78.9463C99.4775 79.1404 99.167 79.2867 98.8143 79.3855C98.4615 79.4843 98.0893 79.5337 97.6978 79.5337ZM101.641 79.3749V71.7549H102.747V79.3749H101.641ZM106.024 79.3749V72.7974H103.489V71.7549H109.664V72.7974H107.13V79.3749H106.024ZM113.48 79.5337C112.718 79.5337 112.069 79.3679 111.532 79.0363C110.996 78.7012 110.585 78.2355 110.299 77.6393C110.017 77.043 109.876 76.3517 109.876 75.5649C109.876 74.7782 110.017 74.0868 110.299 73.4906C110.585 72.8944 110.996 72.4306 111.532 72.0989C112.069 71.7638 112.718 71.5962 113.48 71.5962C114.238 71.5962 114.886 71.7638 115.422 72.0989C115.962 72.4306 116.373 72.8944 116.655 73.4906C116.937 74.0868 117.078 74.7782 117.078 75.5649C117.078 76.3517 116.937 77.043 116.655 77.6393C116.373 78.2355 115.962 78.7012 115.422 79.0363C114.886 79.3679 114.238 79.5337 113.48 79.5337ZM113.48 78.4807C114.02 78.4877 114.468 78.3695 114.824 78.1261C115.184 77.8791 115.454 77.537 115.633 77.0995C115.813 76.6586 115.903 76.147 115.903 75.5649C115.903 74.9829 115.813 74.4749 115.633 74.0409C115.454 73.6035 115.184 73.2631 114.824 73.0196C114.468 72.7762 114.02 72.6528 113.48 72.6492C112.94 72.6422 112.49 72.7604 112.13 73.0038C111.774 73.2472 111.506 73.5894 111.326 74.0304C111.146 74.4713 111.054 74.9829 111.051 75.5649C111.047 76.147 111.136 76.6567 111.315 77.0942C111.495 77.5282 111.765 77.8668 112.125 78.1102C112.489 78.3536 112.94 78.4771 113.48 78.4807ZM45.9812 93.927V87.3495H43.4465V86.307H49.6219V87.3495H47.0872V93.927H45.9812ZM50.257 93.927V86.307H53.3368C53.4109 86.307 53.5026 86.3106 53.612 86.3176C53.7214 86.3212 53.8253 86.3318 53.9242 86.3494C54.3475 86.4164 54.7003 86.561 54.9825 86.7833C55.2683 87.0055 55.4816 87.286 55.6228 87.6247C55.764 87.9633 55.8345 88.3373 55.8345 88.7465C55.8345 89.3533 55.6793 89.8772 55.3688 90.3181C55.0583 90.7556 54.5926 91.0289 53.9718 91.1383L53.522 91.1912H51.363V93.927H50.257ZM54.7126 93.927L53.2098 90.8261L54.3263 90.5404L55.9773 93.927H54.7126ZM51.363 90.1435H53.2945C53.365 90.1435 53.4426 90.1399 53.5273 90.1329C53.6155 90.1259 53.6983 90.1134 53.776 90.0959C54.0018 90.0429 54.1835 89.946 54.321 89.8048C54.4586 89.6602 54.5575 89.4943 54.6174 89.3074C54.6773 89.1205 54.7073 88.9334 54.7073 88.7465C54.7073 88.5596 54.6773 88.3743 54.6174 88.1909C54.5575 88.0039 54.4586 87.8399 54.321 87.6987C54.1835 87.5541 54.0018 87.4553 53.776 87.4024C53.6983 87.3812 53.6155 87.3671 53.5273 87.3601C53.4426 87.3531 53.365 87.3495 53.2945 87.3495H51.363V90.1435ZM56.3995 93.927L58.876 86.307H60.4688L62.9453 93.927H61.797L59.5163 86.9738H59.802L57.5478 93.927H56.3995ZM57.6854 92.2072V91.1701H61.6647V92.2072H57.6854ZM63.6829 93.927V86.307H66.0695C66.1401 86.307 66.2706 86.3088 66.4611 86.3123C66.6551 86.3159 66.8403 86.3299 67.0167 86.3547C67.6129 86.4287 68.1139 86.6421 68.5195 86.9949C68.9288 87.3478 69.2375 87.7957 69.4456 88.339C69.6538 88.8788 69.7578 89.4714 69.7578 90.117C69.7578 90.7662 69.6538 91.3623 69.4456 91.9056C69.2375 92.4454 68.9288 92.8916 68.5195 93.2444C68.1139 93.5937 67.6129 93.8053 67.0167 93.8794C66.8403 93.9041 66.6551 93.9182 66.4611 93.9217C66.2706 93.9253 66.1401 93.927 66.0695 93.927H63.6829ZM64.8153 92.874H66.0695C66.1895 92.874 66.3323 92.8704 66.4981 92.8634C66.664 92.8564 66.8103 92.8422 66.9373 92.8211C67.3254 92.747 67.6394 92.5794 67.8792 92.3184C68.1226 92.0538 68.3008 91.7293 68.4137 91.3447C68.5267 90.9601 68.583 90.5509 68.583 90.117C68.583 89.669 68.5248 89.2545 68.4084 88.8735C68.292 88.4889 68.1121 88.168 67.8686 87.9104C67.6288 87.6494 67.3183 87.4835 66.9373 87.413C66.8103 87.3882 66.6621 87.3742 66.4928 87.3706C66.327 87.3636 66.1859 87.3601 66.0695 87.3601H64.8153V92.874ZM70.8842 93.927V86.307H71.9902V93.927H70.8842ZM73.1559 93.927V93.7524L77.0453 87.3495H73.3676V86.307H78.945V86.4869L75.0768 92.8793H78.8762V93.927H73.1559ZM80.1141 93.927V86.307H81.22V93.927H80.1141ZM85.7776 94.0858C85.0156 94.0858 84.3666 93.92 83.8303 93.5884C83.2941 93.2533 82.8831 92.7876 82.5973 92.1914C82.3152 91.5951 82.174 90.9038 82.174 90.117C82.174 89.3303 82.3152 88.6389 82.5973 88.0427C82.8831 87.4465 83.2941 86.9826 83.8303 86.651C84.3666 86.3159 85.0156 86.1483 85.7776 86.1483C86.5362 86.1483 87.1835 86.3159 87.7197 86.651C88.2594 86.9826 88.6704 87.4465 88.9526 88.0427C89.2349 88.6389 89.376 89.3303 89.376 90.117C89.376 90.9038 89.2349 91.5951 88.9526 92.1914C88.6704 92.7876 88.2594 93.2533 87.7197 93.5884C87.1835 93.92 86.5362 94.0858 85.7776 94.0858ZM85.7776 93.0327C86.3174 93.0397 86.7654 92.9216 87.1217 92.6782C87.4815 92.4312 87.7514 92.0891 87.9313 91.6516C88.1112 91.2107 88.2012 90.6991 88.2012 90.117C88.2012 89.5349 88.1112 89.0269 87.9313 88.593C87.7514 88.1555 87.4815 87.8151 87.1217 87.5717C86.7654 87.3283 86.3174 87.2049 85.7776 87.2013C85.2379 87.1943 84.7881 87.3124 84.4282 87.5559C84.072 87.7993 83.8038 88.1415 83.6239 88.5824C83.444 89.0234 83.3523 89.5349 83.3487 90.117C83.3453 90.6991 83.4334 91.2088 83.6133 91.6463C83.7932 92.0802 84.0631 92.4189 84.423 92.6623C84.7864 92.9057 85.2379 93.0292 85.7776 93.0327ZM90.2198 93.927V86.307H91.3417L95.0935 91.9691V86.307H96.2153V93.927H95.0935L91.3417 88.2597V93.927H90.2198ZM96.9515 93.927L99.428 86.307H101.021L103.497 93.927H102.349L100.068 86.9738H100.354L98.0998 93.927H96.9515ZM98.2374 92.2072V91.1701H102.217V92.2072H98.2374ZM104.341 93.927V86.307H105.447V92.8846H108.897V93.927H104.341ZM109.584 93.927V86.307H114.452V87.3495H110.69V89.4873H113.817V90.5298H110.69V92.8846H114.452V93.927H109.584Z" fill="white"/>
<path d="M45.6469 97.1952C46.9719 95.959 49.0275 95.959 50.3525 97.1952L54.4916 101.057C55.4483 101.949 56.8276 102.224 58.0531 101.765L63.3548 99.7815C65.052 99.1465 66.9511 99.9332 67.7022 101.582L70.0485 106.734C70.5908 107.924 71.7602 108.706 73.0678 108.751L78.725 108.947C80.536 109.01 81.9896 110.464 82.0524 112.275L82.2487 117.932C82.2941 119.24 83.0754 120.409 84.2661 120.951L89.4176 123.298C91.0667 124.049 91.8534 125.948 91.2184 127.645L89.2348 132.947C88.7763 134.172 89.0507 135.552 89.9432 136.508L93.8047 140.647C95.0408 141.972 95.0408 144.028 93.8047 145.353L89.9432 149.492C89.0507 150.449 88.7763 151.828 89.2348 153.054L91.2184 158.355C91.8534 160.052 91.0667 161.952 89.4176 162.703L84.2661 165.049C83.0754 165.591 82.2941 166.761 82.2487 168.068L82.0524 173.725C81.9896 175.536 80.536 176.99 78.725 177.053L73.0678 177.249C71.7602 177.295 70.5908 178.076 70.0485 179.267L67.7022 184.418C66.9511 186.067 65.052 186.854 63.3548 186.219L58.0531 184.235C56.8276 183.777 55.4483 184.051 54.4916 184.944L50.3525 188.805C49.0275 190.041 46.9719 190.041 45.6469 188.805L41.5078 184.944C40.5511 184.051 39.1718 183.777 37.9463 184.235L32.6446 186.219C30.9474 186.854 29.0483 186.067 28.2972 184.418L25.9509 179.267C25.4086 178.076 24.2392 177.295 22.9316 177.249L17.2744 177.053C15.4634 176.99 14.0098 175.536 13.947 173.725L13.7507 168.068C13.7053 166.761 12.924 165.591 11.7333 165.049L6.58178 162.703C4.93267 161.952 4.14601 160.052 4.781 158.355L6.76456 153.054C7.22304 151.828 6.94867 150.449 6.05614 149.492L2.19469 145.353C0.958541 144.028 0.958543 141.972 2.19469 140.647L6.05615 136.508C6.94867 135.552 7.22304 134.172 6.76456 132.947L4.781 127.645C4.14601 125.948 4.93267 124.049 6.58178 123.298L11.7333 120.951C12.924 120.409 13.7053 119.24 13.7507 117.932L13.947 112.275C14.0098 110.464 15.4634 109.01 17.2744 108.947L22.9316 108.751C24.2392 108.706 25.4086 107.924 25.9509 106.734L28.2972 101.582C29.0483 99.9332 30.9474 99.1465 32.6446 99.7815L37.9463 101.765C39.1718 102.224 40.5511 101.949 41.5078 101.057L45.6469 97.1952Z" fill="white"/>
<path d="M46.1864 101.011C47.2079 100.058 48.7928 100.058 49.8144 101.011L53.6439 104.583C54.6765 105.547 56.1654 105.843 57.4881 105.348L62.3932 103.513C63.7017 103.023 65.166 103.63 65.7451 104.901L67.9159 109.667C68.5012 110.953 69.7634 111.796 71.1748 111.845L76.4089 112.026C77.8051 112.075 78.9258 113.196 78.9743 114.592L79.1559 119.826C79.2049 121.237 80.0481 122.5 81.3335 123.085L86.0996 125.256C87.371 125.835 87.9775 127.299 87.488 128.608L85.6528 133.513C85.1579 134.835 85.454 136.324 86.4174 137.357L89.9901 141.186C90.9431 142.208 90.9431 143.793 89.99 144.814L86.4174 148.644C85.454 149.676 85.1579 151.165 85.6528 152.488L87.488 157.393C87.9775 158.702 87.371 160.166 86.0996 160.745L81.3335 162.916C80.0481 163.501 79.2049 164.763 79.1559 166.175L78.9743 171.409C78.9258 172.805 77.8051 173.926 76.4088 173.974L71.1748 174.156C69.7634 174.205 68.5012 175.048 67.9158 176.333L65.7451 181.1C65.166 182.371 63.7017 182.977 62.3932 182.488L57.4881 180.653C56.1654 180.158 54.6765 180.454 53.6439 181.417L49.8144 184.99C48.7928 185.943 47.2079 185.943 46.1864 184.99L42.3569 181.417C41.3243 180.454 39.8354 180.158 38.5127 180.653L33.6076 182.488C32.2991 182.977 30.8348 182.371 30.2557 181.1L28.0849 176.333C27.4996 175.048 26.2374 174.205 24.826 174.156L19.5919 173.974C18.1957 173.926 17.075 172.805 17.0265 171.409L16.8449 166.175C16.7959 164.763 15.9526 163.501 14.6673 162.916L9.90116 160.745C8.62971 160.166 8.02319 158.702 8.51277 157.393L10.348 152.488C10.8429 151.165 10.5467 149.676 9.58329 148.644L6.01069 144.814C5.05763 143.793 5.05763 142.208 6.01069 141.186L9.58329 137.357C10.5467 136.324 10.8429 134.835 10.348 133.513L8.51277 128.608C8.02319 127.299 8.62971 125.835 9.90117 125.256L14.6673 123.085C15.9526 122.5 16.7959 121.237 16.8449 119.826L17.0265 114.592C17.075 113.196 18.1957 112.075 19.5919 112.026L24.826 111.845C26.2374 111.796 27.4996 110.953 28.0849 109.667L30.2557 104.901C30.8348 103.63 32.2991 103.023 33.6076 103.513L38.5127 105.348C39.8354 105.843 41.3243 105.547 42.3569 104.583L46.1864 101.011Z" fill="white"/>
<path d="M65.7451 104.901C65.166 103.63 63.7017 103.023 62.3932 103.513L57.4881 105.348C56.1654 105.843 54.6765 105.547 53.6439 104.583L49.8144 101.011C48.7928 100.058 47.2079 100.058 46.1864 101.011L42.3569 104.583C41.3243 105.547 39.8354 105.843 38.5127 105.348L33.6076 103.513C32.2991 103.023 30.8348 103.63 30.2557 104.901L28.0849 109.667C27.4996 110.953 26.2374 111.796 24.826 111.845L19.5919 112.026C18.1957 112.075 17.075 113.196 17.0265 114.592L16.8449 119.826C16.7959 121.237 15.9526 122.5 14.6673 123.085L9.90117 125.256C8.62971 125.835 8.02319 127.299 8.51277 128.608L10.348 133.513C10.8429 134.835 10.5467 136.324 9.58329 137.357L6.01069 141.186C5.05763 142.208 5.05763 143.793 6.01069 144.814L9.58329 148.644C10.5467 149.676 10.8429 151.165 10.348 152.488L8.51277 157.393C8.02319 158.702 8.62971 160.166 9.90116 160.745L14.6673 162.916C15.9526 163.501 16.7959 164.763 16.8449 166.175L17.0265 171.409C17.075 172.805 18.1957 173.926 19.5919 173.974L24.826 174.156C26.2374 174.205 27.4996 175.048 28.0849 176.333L30.2557 181.1C30.8348 182.371 32.2991 182.977 33.6076 182.488L38.5127 180.653C39.8354 180.158 41.3243 180.454 42.3569 181.417L46.1864 184.99C47.2079 185.943 48.7928 185.943 49.8144 184.99L53.6439 181.417C54.6765 180.454 56.1654 180.158 57.4881 180.653L62.3932 182.488C63.7017 182.977 65.166 182.371 65.7451 181.1L67.9158 176.333C68.5012 175.048 69.7634 174.205 71.1748 174.156L76.4088 173.974C77.8051 173.926 78.9258 172.805 78.9743 171.409L79.1559 166.175C79.2049 164.763 80.0482 163.501 81.3335 162.916L86.0996 160.745C87.371 160.166 87.9775 158.702 87.488 157.393L85.6528 152.488C85.1579 151.165 85.454 149.676 86.4174 148.644L89.99 144.814C90.9431 143.793 90.9431 142.208 89.9901 141.186L86.4174 137.357C85.4541 136.324 85.1579 134.835 85.6528 133.513L87.488 128.608C87.9775 127.299 87.371 125.835 86.0996 125.256L81.3335 123.085C80.0482 122.5 79.2049 121.237 79.1559 119.826L78.9743 114.592C78.9258 113.196 77.8051 112.075 76.4089 112.026L71.1748 111.845C69.7634 111.796 68.5012 110.953 67.9159 109.667L65.7451 104.901ZM65.7451 104.901L66.229 104.681" stroke="#4760FF" stroke-width="1.0637"/>
<path d="M79.8496 138.732H16.8496V156.732H79.8496V138.732Z" fill="white"/>
<path d="M23.7962 154.998C22.9929 154.998 22.228 154.856 21.5015 154.572C20.775 154.283 20.1312 153.858 19.5701 153.297C19.0149 152.735 18.5748 152.041 18.25 151.215C17.931 150.388 17.7715 149.434 17.7715 148.353C17.7715 146.941 18.0403 145.742 18.5778 144.756C19.1212 143.763 19.8477 143.007 20.7573 142.488C21.6728 141.968 22.6858 141.708 23.7962 141.708C25.4382 141.708 26.7288 142.089 27.6679 142.851C28.607 143.613 29.2361 144.691 29.555 146.085L27.092 146.439C26.8617 145.695 26.4836 145.101 25.958 144.658C25.4382 144.209 24.7708 143.982 23.9557 143.976C23.1465 143.964 22.4731 144.139 21.9356 144.499C21.3981 144.859 20.9935 145.37 20.7218 146.032C20.456 146.693 20.3232 147.467 20.3232 148.353C20.3232 149.239 20.456 150.007 20.7218 150.656C20.9935 151.306 21.3981 151.811 21.9356 152.171C22.4731 152.532 23.1465 152.718 23.9557 152.73C24.505 152.741 25.0011 152.647 25.4441 152.446C25.893 152.245 26.271 151.929 26.5781 151.498C26.8853 151.067 27.1038 150.515 27.2338 149.841H25.2137V147.981H29.8031C29.8149 148.058 29.8238 148.193 29.8297 148.388C29.8356 148.583 29.8385 148.695 29.8385 148.725C29.8385 149.948 29.5905 151.031 29.0943 151.976C28.5982 152.922 27.8983 153.663 26.9946 154.2C26.0909 154.732 25.0247 154.998 23.7962 154.998ZM31.2598 154.732V141.974H36.6466C36.7706 141.974 36.936 141.98 37.1427 141.992C37.3554 141.997 37.5444 142.015 37.7098 142.045C38.4717 142.163 39.0948 142.414 39.5792 142.798C40.0694 143.182 40.4297 143.666 40.6601 144.251C40.8904 144.83 41.0056 145.476 41.0056 146.191C41.0056 147.26 40.7398 148.176 40.2082 148.938C39.6766 149.694 38.8438 150.16 37.7098 150.337L36.6466 150.408H33.6697V154.732H31.2598ZM38.454 154.732L35.9378 149.54L38.4185 149.062L41.1828 154.732H38.454ZM33.6697 148.158H36.5403C36.6643 148.158 36.8002 148.152 36.9478 148.14C37.0955 148.128 37.2313 148.105 37.3554 148.069C37.6802 147.981 37.9313 147.833 38.1084 147.626C38.2856 147.414 38.4067 147.18 38.4717 146.926C38.5426 146.667 38.578 146.421 38.578 146.191C38.578 145.961 38.5426 145.719 38.4717 145.465C38.4067 145.205 38.2856 144.971 38.1084 144.765C37.9313 144.552 37.6802 144.401 37.3554 144.313C37.2313 144.277 37.0955 144.254 36.9478 144.242C36.8002 144.23 36.6643 144.224 36.5403 144.224H33.6697V148.158ZM41.8902 154.732L45.7885 141.974H49.3855L53.2838 154.732H50.8031L47.3301 143.48H47.7908L44.3709 154.732H41.8902ZM44.2292 152.074V149.824H50.9626V152.074H44.2292ZM56.421 154.732V144.224H52.3987V141.974H62.8532V144.224H58.8309V154.732H56.421ZM64.0998 154.732V141.974H66.5097V154.732H64.0998ZM73.6311 154.998C72.6861 154.998 71.8326 154.832 71.0707 154.502C70.3146 154.165 69.6915 153.686 69.2012 153.066C68.7169 152.44 68.4098 151.696 68.2798 150.834L70.796 150.461C70.9732 151.194 71.3394 151.758 71.8946 152.154C72.4498 152.549 73.0818 152.747 73.7906 152.747C74.1863 152.747 74.5703 152.685 74.9424 152.561C75.3145 152.437 75.6187 152.254 75.8549 152.012C76.0971 151.77 76.2182 151.471 76.2182 151.117C76.2182 150.987 76.1975 150.863 76.1562 150.745C76.1207 150.621 76.0587 150.506 75.9701 150.399C75.8815 150.293 75.7545 150.193 75.5891 150.098C75.4297 150.004 75.2259 149.918 74.9778 149.841L71.6643 148.867C71.4162 148.796 71.1268 148.695 70.796 148.565C70.4711 148.436 70.1552 148.249 69.848 148.007C69.5409 147.765 69.2839 147.446 69.0772 147.05C68.8764 146.649 68.776 146.144 68.776 145.535C68.776 144.679 68.9916 143.967 69.4227 143.4C69.8539 142.833 70.4298 142.411 71.1504 142.133C71.871 141.856 72.6684 141.72 73.5425 141.726C74.4226 141.738 75.2082 141.888 75.8992 142.178C76.5903 142.467 77.1691 142.889 77.6357 143.445C78.1024 143.994 78.439 144.667 78.6458 145.465L76.041 145.908C75.9465 145.494 75.7722 145.146 75.5183 144.862C75.2643 144.579 74.9601 144.363 74.6057 144.215C74.2572 144.068 73.891 143.988 73.5071 143.976C73.1291 143.964 72.7717 144.017 72.4351 144.136C72.1043 144.248 71.8326 144.413 71.62 144.632C71.4132 144.85 71.3099 145.11 71.3099 145.411C71.3099 145.689 71.3955 145.916 71.5668 146.094C71.7381 146.265 71.9537 146.404 72.2136 146.51C72.4735 146.616 72.7393 146.705 73.011 146.776L75.2259 147.378C75.5567 147.467 75.9229 147.585 76.3245 147.733C76.7261 147.874 77.1101 148.075 77.4763 148.335C77.8484 148.589 78.1526 148.926 78.3888 149.345C78.631 149.765 78.7521 150.296 78.7521 150.94C78.7521 151.625 78.6074 152.225 78.318 152.738C78.0344 153.246 77.6505 153.669 77.1662 154.005C76.6818 154.336 76.1325 154.584 75.5183 154.75C74.9099 154.915 74.2809 154.998 73.6311 154.998Z" fill="#4760FF"/>
<path d="M29.2822 137.99V128.56H33.0084C33.1001 128.56 33.2092 128.564 33.3358 128.573C33.4624 128.577 33.5847 128.59 33.7026 128.612C34.2134 128.691 34.6412 128.865 34.9861 129.136C35.3354 129.407 35.5973 129.749 35.7719 130.164C35.9466 130.575 36.0339 131.031 36.0339 131.533C36.0339 132.262 35.844 132.895 35.4641 133.432C35.0843 133.965 34.5277 134.299 33.7942 134.434L33.3489 134.506H30.4479V137.99H29.2822ZM34.8944 137.99L33.0346 134.152L34.1872 133.799L36.2303 137.99H34.8944ZM30.4479 133.399H32.9691C33.0521 133.399 33.1459 133.395 33.2507 133.386C33.3598 133.377 33.4624 133.362 33.5585 133.34C33.8597 133.27 34.1042 133.144 34.2919 132.96C34.484 132.773 34.6237 132.554 34.7111 132.306C34.7984 132.052 34.842 131.795 34.842 131.533C34.842 131.271 34.7984 131.015 34.7111 130.767C34.6237 130.513 34.484 130.293 34.2919 130.105C34.1042 129.917 33.8597 129.791 33.5585 129.725C33.4624 129.699 33.3598 129.684 33.2507 129.68C33.1459 129.671 33.0521 129.666 32.9691 129.666H30.4479V133.399ZM37.5417 137.99V128.56H38.7074V137.99H37.5417ZM42.8399 137.99V129.666H39.6245V128.56H47.2209V129.666H44.0055V137.99H42.8399ZM48.1326 137.99V128.56H49.2983V137.99H48.1326ZM51.0012 137.99V128.56H54.7274C54.8191 128.56 54.9282 128.564 55.0548 128.573C55.1814 128.577 55.3037 128.59 55.4216 128.612C55.9324 128.691 56.3602 128.865 56.7051 129.136C57.0544 129.407 57.3163 129.749 57.4909 130.164C57.6656 130.575 57.7529 131.031 57.7529 131.533C57.7529 132.262 57.563 132.895 57.1831 133.432C56.8033 133.965 56.2467 134.299 55.5132 134.434L55.0679 134.506H52.1669V137.99H51.0012ZM56.6134 137.99L54.7536 134.152L55.9062 133.799L57.9493 137.99H56.6134ZM52.1669 133.399H54.6881C54.7711 133.399 54.8649 133.395 54.9697 133.386C55.0788 133.377 55.1814 133.362 55.2775 133.34C55.5787 133.27 55.8232 133.144 56.0109 132.96C56.203 132.773 56.3427 132.554 56.4301 132.306C56.5174 132.052 56.561 131.795 56.561 131.533C56.561 131.271 56.5174 131.015 56.4301 130.767C56.3427 130.513 56.203 130.293 56.0109 130.105C55.8232 129.917 55.5787 129.791 55.2775 129.725C55.1814 129.699 55.0788 129.684 54.9697 129.68C54.8649 129.671 54.7711 129.666 54.6881 129.666H52.1669V133.399ZM63.0065 138.186C62.0679 138.186 61.2711 137.979 60.6163 137.564C59.9614 137.149 59.4615 136.573 59.1166 135.835C58.7761 135.097 58.6058 134.244 58.6058 133.275C58.6058 132.306 58.7761 131.452 59.1166 130.714C59.4615 129.976 59.9614 129.4 60.6163 128.985C61.2711 128.571 62.0679 128.363 63.0065 128.363C63.9495 128.363 64.7485 128.571 65.4033 128.985C66.0582 129.4 66.5559 129.976 66.8964 130.714C67.237 131.452 67.4072 132.306 67.4072 133.275C67.4072 134.244 67.237 135.097 66.8964 135.835C66.5559 136.573 66.0582 137.149 65.4033 137.564C64.7485 137.979 63.9495 138.186 63.0065 138.186ZM63.0065 137.073C63.7094 137.077 64.2944 136.92 64.7616 136.601C65.2331 136.278 65.5845 135.831 65.8159 135.259C66.0517 134.687 66.1695 134.026 66.1695 133.275C66.1695 132.519 66.0517 131.858 65.8159 131.291C65.5845 130.723 65.2331 130.28 64.7616 129.961C64.2944 129.642 63.7094 129.481 63.0065 129.477C62.3036 129.472 61.7186 129.629 61.2515 129.948C60.7887 130.267 60.4395 130.712 60.2037 131.284C59.968 131.856 59.8479 132.519 59.8435 133.275C59.8392 134.026 59.9549 134.685 60.1906 135.252C60.4264 135.82 60.7778 136.265 61.2449 136.588C61.7164 136.907 62.3036 137.069 63.0065 137.073Z" fill="#4760FF"/>
</svg>
