<svg width="141" height="190" viewBox="0 0 141 190" fill="none" xmlns="http://www.w3.org/2000/svg">
<path d="M74.3878 2.90373C76.1407 1.26842 78.8601 1.26842 80.6129 2.90373L86.0886 8.01212C87.3543 9.19285 89.179 9.55582 90.8002 8.94929L97.8139 6.3252C100.059 5.48517 102.572 6.52585 103.565 8.70749L106.669 15.5225C107.387 17.0977 108.934 18.1313 110.663 18.1913L118.147 18.451C120.543 18.5341 122.466 20.4571 122.549 22.8529L122.809 30.3369C122.869 32.0667 123.903 33.6137 125.478 34.3312L132.293 37.4351C134.474 38.4288 135.515 40.9411 134.675 43.1864L132.051 50.2001C131.444 51.8213 131.807 53.646 132.988 54.9117L138.097 60.3873C139.732 62.1402 139.732 64.8596 138.097 66.6124L132.988 72.0881C131.807 73.3538 131.444 75.1785 132.051 76.7997L134.675 83.8134C135.515 86.0587 134.474 88.571 132.293 89.5647L125.478 92.6686C123.903 93.386 122.869 94.9331 122.809 96.6629L122.549 104.147C122.466 106.543 120.543 108.466 118.147 108.549L110.663 108.808C108.934 108.869 107.387 109.902 106.669 111.477L103.565 118.292C102.572 120.474 100.059 121.515 97.8139 120.675L90.8002 118.05C89.179 117.444 87.3543 117.807 86.0886 118.988L80.6129 124.096C78.8601 125.731 76.1407 125.731 74.3878 124.096L68.9121 118.988C67.6465 117.807 65.8218 117.444 64.2006 118.05L57.1869 120.675C54.9416 121.515 52.4293 120.474 51.4356 118.292L48.3317 111.477C47.6142 109.902 46.0672 108.869 44.3374 108.808L36.8534 108.549C34.4576 108.466 32.5346 106.543 32.4515 104.147L32.1918 96.6629C32.1317 94.9331 31.0982 93.386 29.523 92.6686L22.708 89.5647C20.5263 88.571 19.4857 86.0587 20.3257 83.8134L22.9498 76.7997C23.5563 75.1785 23.1933 73.3538 22.0126 72.0881L16.9042 66.6124C15.2689 64.8596 15.2689 62.1402 16.9042 60.3873L22.0126 54.9117C23.1933 53.646 23.5563 51.8213 22.9498 50.2001L20.3257 43.1864C19.4857 40.9411 20.5263 38.4288 22.708 37.4351L29.523 34.3312C31.0982 33.6137 32.1317 32.0667 32.1918 30.3369L32.4515 22.8529C32.5346 20.4571 34.4576 18.5341 36.8534 18.451L44.3374 18.1913C46.0672 18.1313 47.6142 17.0977 48.3317 15.5225L51.4356 8.70749C52.4293 6.52585 54.9416 5.48517 57.1869 6.3252L64.2006 8.94929C65.8218 9.55582 67.6465 9.19285 68.9121 8.01211L74.3878 2.90373Z" fill="#4760FF"/>
<path d="M75.1005 7.95147C76.4519 6.69065 78.5486 6.69065 79.9001 7.95147L84.9662 12.6777C86.3322 13.9522 88.3019 14.344 90.0517 13.6893L96.5408 11.2615C98.2718 10.6138 100.209 11.4162 100.975 13.0983L103.847 19.4034C104.621 21.1037 106.291 22.2193 108.158 22.2842L115.082 22.5244C116.929 22.5886 118.412 24.0712 118.476 25.9182L118.716 32.8425C118.781 34.7097 119.897 36.3794 121.597 37.1537L127.902 40.0255C129.584 40.7916 130.387 42.7288 129.739 44.4598L127.311 50.9489C126.657 52.6987 127.048 54.6684 128.323 56.0344L133.049 61.1005C134.31 62.4519 134.31 64.5486 133.049 65.9001L128.323 70.9662C127.048 72.3322 126.657 74.3019 127.311 76.0517L129.739 82.5408C130.387 84.2718 129.584 86.209 127.902 86.9751L121.597 89.8467C119.897 90.6212 118.781 92.2909 118.716 94.1581L118.476 101.082C118.412 102.929 116.929 104.412 115.082 104.476L108.158 104.716C106.291 104.781 104.621 105.897 103.847 107.597L100.975 113.902C100.209 115.584 98.2718 116.387 96.5408 115.739L90.0517 113.311C88.3019 112.657 86.3322 113.048 84.9662 114.323L79.9001 119.049C78.5486 120.31 76.4519 120.31 75.1005 119.049L70.0344 114.323C68.6684 113.048 66.6987 112.657 64.9489 113.311L58.4598 115.739C56.7288 116.387 54.7916 115.584 54.0255 113.902L51.1537 107.597C50.3794 105.897 48.7097 104.781 46.8425 104.716L39.9182 104.476C38.0712 104.412 36.5886 102.929 36.5244 101.082L36.2842 94.1581C36.2193 92.2909 35.1037 90.6212 33.4034 89.8467L27.0982 86.9751C25.4162 86.209 24.6138 84.2718 25.2615 82.5408L27.6893 76.0517C28.344 74.3019 27.9522 72.3322 26.6777 70.9662L21.9515 65.9001C20.6907 64.5486 20.6907 62.4519 21.9515 61.1005L26.6777 56.0344C27.9522 54.6684 28.344 52.6987 27.6893 50.9489L25.2615 44.4598C24.6138 42.7288 25.4162 40.7916 27.0983 40.0255L33.4034 37.1537C35.1037 36.3794 36.2193 34.7097 36.2842 32.8425L36.5244 25.9182C36.5886 24.0712 38.0712 22.5886 39.9182 22.5244L46.8425 22.2842C48.7097 22.2193 50.3794 21.1037 51.1537 19.4034L54.0255 13.0982C54.7916 11.4162 56.7288 10.6138 58.4598 11.2615L64.9489 13.6893C66.6987 14.344 68.6684 13.9522 70.0344 12.6777L75.1005 7.95147Z" fill="#4760FF"/>
<path d="M100.975 13.0983C100.209 11.4162 98.2718 10.6138 96.5408 11.2615L90.0517 13.6893C88.3019 14.344 86.3322 13.9522 84.9662 12.6777L79.9001 7.95147C78.5486 6.69065 76.4519 6.69065 75.1005 7.95147L70.0344 12.6777C68.6684 13.9522 66.6987 14.344 64.9489 13.6893L58.4598 11.2615C56.7288 10.6138 54.7916 11.4162 54.0255 13.0982L51.1537 19.4034C50.3794 21.1037 48.7097 22.2193 46.8425 22.2842L39.9182 22.5244C38.0712 22.5886 36.5886 24.0712 36.5244 25.9182L36.2842 32.8425C36.2193 34.7097 35.1037 36.3794 33.4034 37.1537L27.0983 40.0255C25.4162 40.7916 24.6138 42.7288 25.2615 44.4598L27.6893 50.9489C28.344 52.6987 27.9522 54.6684 26.6777 56.0344L21.9515 61.1005C20.6907 62.4519 20.6907 64.5486 21.9515 65.9001L26.6777 70.9662C27.9522 72.3322 28.344 74.3019 27.6893 76.0517L25.2615 82.5408C24.6138 84.2718 25.4162 86.209 27.0982 86.9751L33.4034 89.8467C35.1037 90.6212 36.2193 92.2909 36.2842 94.1581L36.5244 101.082C36.5886 102.929 38.0712 104.412 39.9182 104.476L46.8425 104.716C48.7097 104.781 50.3794 105.897 51.1537 107.597L54.0255 113.902C54.7916 115.584 56.7288 116.387 58.4598 115.739L64.9489 113.311C66.6987 112.657 68.6684 113.048 70.0344 114.323L75.1005 119.049C76.4519 120.31 78.5486 120.31 79.9001 119.049L84.9662 114.323C86.3322 113.048 88.3019 112.657 90.0517 113.311L96.5408 115.739C98.2718 116.387 100.209 115.584 100.975 113.902L103.847 107.597C104.621 105.897 106.291 104.781 108.158 104.716L115.082 104.476C116.929 104.412 118.412 102.929 118.476 101.082L118.716 94.1581C118.781 92.2909 119.897 90.6212 121.597 89.8467L127.902 86.9751C129.584 86.209 130.387 84.2718 129.739 82.5408L127.311 76.0517C126.657 74.3019 127.048 72.3322 128.323 70.9662L133.049 65.9001C134.31 64.5486 134.31 62.4519 133.049 61.1005L128.323 56.0344C127.048 54.6684 126.657 52.6987 127.311 50.9489L129.739 44.4598C130.387 42.7288 129.584 40.7916 127.902 40.0255L121.597 37.1537C119.897 36.3794 118.781 34.7097 118.716 32.8425L118.476 25.9182C118.412 24.0712 116.929 22.5886 115.082 22.5244L108.158 22.2842C106.291 22.2193 104.621 21.1037 103.847 19.4034L100.975 13.0983ZM100.975 13.0983L101.615 12.8066" stroke="white" stroke-width="1.0637"/>
<path d="M61.7357 46.543C61.069 46.543 60.433 46.4103 59.8281 46.1448C59.223 45.8732 58.6951 45.4936 58.2445 45.0058C57.8 44.518 57.482 43.9439 57.2907 43.2834L59.7355 42.6351C59.8651 43.1229 60.1182 43.5026 60.4948 43.7742C60.8775 44.0397 61.2912 44.1724 61.7357 44.1724C62.1184 44.1724 62.4673 44.0798 62.7821 43.8946C63.1031 43.7094 63.3563 43.4593 63.5415 43.1445C63.7328 42.8296 63.8286 42.4808 63.8286 42.098C63.8286 41.5239 63.6309 41.0331 63.2359 40.6256C62.847 40.212 62.3469 40.0052 61.7357 40.0052C61.5505 40.0052 61.3714 40.033 61.1986 40.0885C61.0257 40.1379 60.859 40.2089 60.6985 40.3015L59.5688 38.3198L63.81 34.8008L63.9953 35.3379H57.8093V32.9673H66.1437V35.3379L62.847 38.5235L62.8284 37.8197C63.5939 37.9371 64.2391 38.2056 64.7639 38.6254C65.2948 39.0391 65.696 39.5514 65.9677 40.1626C66.2455 40.7676 66.3844 41.4128 66.3844 42.098C66.3844 42.9377 66.1715 43.6939 65.7455 44.3668C65.3195 45.0336 64.7546 45.5645 64.0508 45.9596C63.347 46.3486 62.5752 46.543 61.7357 46.543ZM73.3634 46.5801C72.3757 46.5801 71.5113 46.3733 70.7704 45.9596C70.0296 45.546 69.4524 44.9688 69.0387 44.2279C68.6252 43.4871 68.4183 42.6228 68.4183 41.635V37.6345C68.4183 36.6467 68.6252 35.7824 69.0387 35.0416C69.4524 34.3008 70.0296 33.7236 70.7704 33.3099C71.5113 32.8962 72.3757 32.6895 73.3634 32.6895C74.3512 32.6895 75.2154 32.8962 75.9563 33.3099C76.6971 33.7236 77.2744 34.3008 77.688 35.0416C78.1017 35.7824 78.3084 36.6467 78.3084 37.6345V41.635C78.3084 42.6228 78.1017 43.4871 77.688 44.2279C77.2744 44.9688 76.6971 45.546 75.9563 45.9596C75.2154 46.3733 74.3512 46.5801 73.3634 46.5801ZM73.3634 44.1909C73.8079 44.1909 74.2092 44.086 74.5672 43.876C74.9253 43.6661 75.2094 43.3822 75.4192 43.0241C75.6291 42.666 75.734 42.2647 75.734 41.8202V37.4308C75.734 36.9863 75.6291 36.585 75.4192 36.2269C75.2094 35.8688 74.9253 35.5849 74.5672 35.375C74.2092 35.165 73.8079 35.0601 73.3634 35.0601C72.9189 35.0601 72.5176 35.165 72.1595 35.375C71.8015 35.5849 71.5175 35.8688 71.3075 36.2269C71.0977 36.585 70.9927 36.9863 70.9927 37.4308V41.8202C70.9927 42.2647 71.0977 42.666 71.3075 43.0241C71.5175 43.3822 71.8015 43.6661 72.1595 43.876C72.5176 44.086 72.9189 44.1909 73.3634 44.1909ZM82.565 46.3023L80.8982 44.6354L92.5663 32.9673L94.2332 34.6527L82.565 46.3023ZM91.455 46.5801C90.8438 46.5801 90.2852 46.4319 89.7789 46.1356C89.2788 45.833 88.8776 45.4318 88.575 44.9317C88.2726 44.4254 88.1213 43.8637 88.1213 43.2463C88.1213 42.6414 88.2757 42.0857 88.5843 41.5795C88.8931 41.0732 89.3005 40.6689 89.8067 40.3663C90.313 40.0638 90.8624 39.9126 91.455 39.9126C92.0662 39.9126 92.625 40.0638 93.1312 40.3663C93.6375 40.6627 94.0387 41.0639 94.335 41.5702C94.6376 42.0703 94.7888 42.6289 94.7888 43.2463C94.7888 43.8637 94.6376 44.4254 94.335 44.9317C94.0387 45.4318 93.6375 45.833 93.1312 46.1356C92.625 46.4319 92.0662 46.5801 91.455 46.5801ZM91.455 44.4502C91.6712 44.4502 91.8687 44.3946 92.0477 44.2835C92.2329 44.1724 92.3811 44.0272 92.4922 43.8483C92.6033 43.663 92.6589 43.4624 92.6589 43.2463C92.6589 43.0303 92.6033 42.8327 92.4922 42.6537C92.3811 42.4685 92.2329 42.3203 92.0477 42.2092C91.8687 42.098 91.6712 42.0425 91.455 42.0425C91.239 42.0425 91.0383 42.098 90.8531 42.2092C90.6741 42.3203 90.529 42.4685 90.4179 42.6537C90.3067 42.8327 90.2512 43.0303 90.2512 43.2463C90.2512 43.4624 90.3067 43.663 90.4179 43.8483C90.529 44.0272 90.6741 44.1724 90.8531 44.2835C91.0383 44.3946 91.239 44.4502 91.455 44.4502ZM83.6763 39.357C83.0651 39.357 82.5064 39.2088 82.0001 38.9125C81.494 38.6099 81.0896 38.2087 80.787 37.7086C80.4907 37.2023 80.3425 36.6406 80.3425 36.0232C80.3425 35.4182 80.4969 34.8626 80.8056 34.3563C81.1143 33.85 81.5218 33.4458 82.0279 33.1432C82.5342 32.8407 83.0836 32.6895 83.6763 32.6895C84.2875 32.6895 84.8431 32.8407 85.3432 33.1432C85.8494 33.4395 86.2539 33.8408 86.5563 34.3471C86.8588 34.8471 87.01 35.4058 87.01 36.0232C87.01 36.6406 86.8588 37.2023 86.5563 37.7086C86.2539 38.2087 85.8494 38.6099 85.3432 38.9125C84.8431 39.2088 84.2875 39.357 83.6763 39.357ZM83.6763 37.2271C83.8925 37.2271 84.09 37.1715 84.269 37.0604C84.4542 36.9492 84.6023 36.8041 84.7135 36.6251C84.8246 36.4399 84.8801 36.2392 84.8801 36.0232C84.8801 35.8072 84.8246 35.6095 84.7135 35.4305C84.6023 35.2453 84.4542 35.0972 84.269 34.986C84.09 34.8749 83.8925 34.8193 83.6763 34.8193C83.4603 34.8193 83.2596 34.8749 83.0744 34.986C82.8954 35.0972 82.7502 35.2453 82.6391 35.4305C82.528 35.6095 82.4724 35.8072 82.4724 36.0232C82.4724 36.2392 82.528 36.4399 82.6391 36.6251C82.7502 36.8041 82.8954 36.9492 83.0744 37.0604C83.2596 37.1715 83.4603 37.2271 83.6763 37.2271ZM31.2939 63.5002V53.0227H33.0693L36.5327 59.9786L39.9961 53.0227H41.7714V63.5002H39.9233V57.2428L36.8819 63.5002H36.1834L33.1421 57.2428V63.5002H31.2939ZM42.7953 63.5002L45.9967 53.0227H48.9508L52.1522 63.5002H50.1149L47.2627 54.2596H47.6411L44.8325 63.5002H42.7953ZM44.7161 61.3174V59.4693H50.2459V61.3174H44.7161ZM53.3109 63.5002V53.0227H55.2899V63.5002H53.3109ZM61.1384 63.7185C60.3623 63.7185 59.6614 63.5826 59.0356 63.311C58.4147 63.0345 57.903 62.6416 57.5004 62.1323C57.1026 61.6181 56.8503 61.0069 56.7437 60.2987L58.8101 59.9931C58.9556 60.5947 59.2563 61.0578 59.7123 61.3829C60.1682 61.7079 60.6873 61.8704 61.2694 61.8704C61.5943 61.8704 61.9097 61.8194 62.2153 61.7176C62.5209 61.6157 62.7706 61.4653 62.9647 61.2664C63.1635 61.0676 63.263 60.8226 63.263 60.5316C63.263 60.4248 63.246 60.3229 63.2121 60.226C63.183 60.1241 63.1321 60.0295 63.0593 59.9422C62.9865 59.8549 62.8822 59.7725 62.7464 59.6948C62.6154 59.6172 62.4481 59.5469 62.2444 59.4838L59.5231 58.6834C59.3194 58.6252 59.0817 58.5428 58.8101 58.4361C58.5433 58.3293 58.2837 58.1765 58.0315 57.9777C57.7793 57.7788 57.5683 57.5169 57.3985 57.1919C57.2336 56.862 57.1511 56.4473 57.1511 55.9477C57.1511 55.2443 57.3281 54.6598 57.6823 54.1941C58.0363 53.7285 58.5093 53.3816 59.1011 53.1537C59.6929 52.9257 60.3477 52.8141 61.0657 52.819C61.7884 52.8286 62.4335 52.9523 63.0011 53.19C63.5686 53.4278 64.0439 53.7745 64.4272 54.2305C64.8103 54.6816 65.0868 55.2346 65.2567 55.8894L63.1175 56.2532C63.0398 55.9137 62.8967 55.6275 62.6882 55.3947C62.4796 55.1618 62.2298 54.9848 61.9388 54.8635C61.6525 54.7422 61.3518 54.6767 61.0366 54.6671C60.7261 54.6574 60.4326 54.7011 60.1562 54.798C59.8844 54.8902 59.6614 55.026 59.4868 55.2055C59.3169 55.385 59.2321 55.5984 59.2321 55.8458C59.2321 56.0737 59.3023 56.2605 59.4431 56.406C59.5837 56.5467 59.7607 56.6607 59.9743 56.748C60.1876 56.8353 60.4059 56.9081 60.6291 56.9663L62.4481 57.4611C62.7197 57.5338 63.0204 57.6308 63.3503 57.7521C63.6801 57.8685 63.9954 58.0335 64.2962 58.2469C64.6018 58.4555 64.8516 58.732 65.0457 59.0763C65.2445 59.4207 65.344 59.8573 65.344 60.386C65.344 60.9487 65.225 61.4411 64.9874 61.8631C64.7546 62.2802 64.4392 62.6271 64.0416 62.9035C63.6438 63.1751 63.1926 63.3789 62.6882 63.5147C62.1885 63.6506 61.6719 63.7185 61.1384 63.7185ZM69.2744 63.5002V53.0227H73.4654C74.2124 53.0227 74.8163 53.1731 75.2771 53.4738C75.7379 53.7697 76.0751 54.1432 76.2885 54.5943C76.5018 55.0454 76.6086 55.5014 76.6086 55.9622C76.6086 56.5492 76.4753 57.0367 76.2084 57.4247C75.9465 57.8127 75.5851 58.0723 75.1243 58.2032V57.8394C75.7791 57.9753 76.269 58.2784 76.5941 58.7489C76.9239 59.2195 77.0888 59.7457 77.0888 60.3278C77.0888 60.9536 76.9724 61.5042 76.7396 61.9795C76.5116 62.4548 76.1624 62.8284 75.6918 63.1C75.2213 63.3668 74.6295 63.5002 73.9165 63.5002H69.2744ZM71.2825 61.6375H73.7127C73.9796 61.6375 74.2172 61.5817 74.4258 61.4702C74.6344 61.3538 74.7969 61.1937 74.9133 60.99C75.0346 60.7813 75.0952 60.5365 75.0952 60.2551C75.0952 60.0077 75.0443 59.787 74.9424 59.5929C74.8405 59.3989 74.6853 59.2461 74.4767 59.1346C74.273 59.0181 74.0183 58.9599 73.7127 58.9599H71.2825V61.6375ZM71.2825 57.1118H73.4362C73.6594 57.1118 73.8583 57.0731 74.0329 56.9954C74.2075 56.9177 74.3458 56.7989 74.4476 56.6389C74.5495 56.4739 74.6004 56.2629 74.6004 56.0059C74.6004 55.6857 74.5009 55.4165 74.3021 55.1982C74.1033 54.9799 73.8146 54.8708 73.4362 54.8708H71.2825V57.1118ZM77.5213 63.5002L80.7227 53.0227H83.6768L86.8783 63.5002H84.841L81.9888 54.2596H82.3671L79.5586 63.5002H77.5213ZM79.4422 61.3174V59.4693H84.972V61.3174H79.4422ZM87.8914 63.5002V53.0227H92.3152C92.4171 53.0227 92.5529 53.0276 92.7227 53.0372C92.8973 53.0421 93.0525 53.0567 93.1883 53.0809C93.8141 53.1779 94.3258 53.3841 94.7236 53.6994C95.1261 54.0146 95.4221 54.4124 95.6112 54.8926C95.8004 55.3679 95.895 55.8991 95.895 56.4861C95.895 57.3641 95.6767 58.1159 95.2402 58.7417C94.8036 59.3625 94.1197 59.7457 93.1883 59.8913L92.3152 59.9495H89.8704V63.5002H87.8914ZM93.7995 63.5002L91.7331 59.2364L93.7704 58.8435L96.0405 63.5002H93.7995ZM89.8704 58.1014H92.2279C92.3298 58.1014 92.4413 58.0965 92.5626 58.0868C92.6839 58.0772 92.7954 58.0577 92.8973 58.0286C93.1641 57.9558 93.3702 57.8345 93.5157 57.6648C93.6613 57.4902 93.7607 57.2986 93.8141 57.09C93.8723 56.8766 93.9014 56.6753 93.9014 56.4861C93.9014 56.2969 93.8723 56.0981 93.8141 55.8894C93.7607 55.6761 93.6613 55.4844 93.5157 55.3146C93.3702 55.14 93.1641 55.0163 92.8973 54.9436C92.7954 54.9145 92.6839 54.895 92.5626 54.8853C92.4413 54.8757 92.3298 54.8708 92.2279 54.8708H89.8704V58.1014ZM96.6214 63.5002L99.8229 53.0227H102.777L105.978 63.5002H103.941L101.089 54.2596H101.467L98.6587 63.5002H96.6214ZM98.5423 61.3174V59.4693H104.072V61.3174H98.5423ZM108.555 63.5002V54.8708H105.252V53.0227H113.837V54.8708H110.534V63.5002H108.555ZM119.212 63.7185C118.164 63.7185 117.26 63.4905 116.498 63.0345C115.741 62.5785 115.157 61.9407 114.745 61.1209C114.337 60.3011 114.133 59.3479 114.133 58.2614C114.133 57.1749 114.337 56.2218 114.745 55.402C115.157 54.5821 115.741 53.9444 116.498 53.4883C117.26 53.0323 118.164 52.8044 119.212 52.8044C120.26 52.8044 121.162 53.0323 121.919 53.4883C122.68 53.9444 123.265 54.5821 123.672 55.402C124.085 56.2218 124.291 57.1749 124.291 58.2614C124.291 59.3479 124.085 60.3011 123.672 61.1209C123.265 61.9407 122.68 62.5785 121.919 63.0345C121.162 63.4905 120.26 63.7185 119.212 63.7185ZM119.212 61.8558C119.877 61.8655 120.43 61.7224 120.871 61.4265C121.312 61.1306 121.642 60.7111 121.861 60.1678C122.084 59.6244 122.195 58.989 122.195 58.2614C122.195 57.5338 122.084 56.9032 121.861 56.3697C121.642 55.8361 121.312 55.4214 120.871 55.1255C120.43 54.8295 119.877 54.6767 119.212 54.6671C118.548 54.6574 117.995 54.8004 117.553 55.0964C117.112 55.3923 116.78 55.8118 116.556 56.3551C116.338 56.8984 116.229 57.5338 116.229 58.2614C116.229 58.989 116.338 59.6197 116.556 60.1532C116.78 60.6867 117.112 61.1015 117.553 61.3974C117.995 61.6933 118.548 61.8461 119.212 61.8558Z" fill="white"/>
<path d="M38.2316 79.5284L36.1044 77.4117L36.8134 76.7026L38.9301 78.8193L38.2316 79.5284ZM35.4376 79.5336C34.6756 79.5336 34.0265 79.3679 33.4903 79.0362C32.9541 78.7011 32.5431 78.2355 32.2573 77.6392C31.9751 77.043 31.834 76.3516 31.834 75.5649C31.834 74.7782 31.9751 74.0868 32.2573 73.4906C32.5431 72.8943 32.9541 72.4305 33.4903 72.0989C34.0265 71.7638 34.6756 71.5961 35.4376 71.5961C36.196 71.5961 36.8435 71.7638 37.3797 72.0989C37.9194 72.4305 38.3304 72.8943 38.6126 73.4906C38.8948 74.0868 39.0359 74.7782 39.0359 75.5649C39.0359 76.3516 38.8948 77.043 38.6126 77.6392C38.3304 78.2355 37.9194 78.7011 37.3797 79.0362C36.8435 79.3679 36.196 79.5336 35.4376 79.5336ZM35.4376 78.4806C35.9774 78.4876 36.4254 78.3695 36.7817 78.1261C37.1415 77.8791 37.4114 77.537 37.5913 77.0995C37.7712 76.6586 37.8612 76.147 37.8612 75.5649C37.8612 74.9828 37.7712 74.4748 37.5913 74.0409C37.4114 73.6034 37.1415 73.263 36.7817 73.0196C36.4254 72.7762 35.9774 72.6528 35.4376 72.6492C34.8979 72.6422 34.4481 72.7603 34.0882 73.0037C33.732 73.2471 33.4638 73.5894 33.2839 74.0303C33.104 74.4712 33.0123 74.9828 33.0087 75.5649C33.0052 76.147 33.0934 76.6567 33.2733 77.0942C33.4532 77.5281 33.7231 77.8668 34.0829 78.1102C34.4463 78.3536 34.8979 78.477 35.4376 78.4806ZM42.9172 79.5336C42.321 79.5336 41.7936 79.4119 41.335 79.1685C40.88 78.9215 40.5236 78.5776 40.2661 78.1367C40.0086 77.6922 39.8798 77.17 39.8798 76.5703V71.7602L41.0017 71.7549V76.5121C41.0017 76.8366 41.0563 77.1224 41.1657 77.3694C41.275 77.6163 41.4214 77.8227 41.6049 77.9885C41.7883 78.1542 41.9929 78.2795 42.2187 78.3642C42.448 78.4489 42.6808 78.4912 42.9172 78.4912C43.1571 78.4912 43.3899 78.4489 43.6157 78.3642C43.845 78.276 44.0514 78.149 44.2349 77.9832C44.4182 77.8174 44.563 77.6111 44.6688 77.3641C44.7781 77.1171 44.8328 76.8332 44.8328 76.5121V71.7549H45.9547V76.5703C45.9547 77.1666 45.8258 77.6869 45.5684 78.1314C45.3108 78.5759 44.9527 78.9215 44.4942 79.1685C44.0391 79.4119 43.5134 79.5336 42.9172 79.5336ZM47.2232 79.3749V71.7549H52.0915V72.7974H48.3292V74.9352H51.4565V75.9777H48.3292V78.3324H52.0915V79.3749H47.2232ZM58.0952 79.5336C57.499 79.5336 56.9717 79.4119 56.513 79.1685C56.0579 78.9215 55.7017 78.5776 55.4441 78.1367C55.1865 77.6922 55.0578 77.17 55.0578 76.5703V71.7602L56.1796 71.7549V76.5121C56.1796 76.8366 56.2343 77.1224 56.3437 77.3694C56.4531 77.6163 56.5994 77.8227 56.7829 77.9885C56.9664 78.1542 57.1709 78.2795 57.3967 78.3642C57.626 78.4489 57.8588 78.4912 58.0952 78.4912C58.335 78.4912 58.5679 78.4489 58.7937 78.3642C59.023 78.276 59.2293 78.149 59.4128 77.9832C59.5963 77.8174 59.7409 77.6111 59.8467 77.3641C59.9562 77.1171 60.0108 76.8332 60.0108 76.5121V71.7549H61.1326V76.5703C61.1326 77.1666 61.0039 77.6869 60.7463 78.1314C60.4888 78.5759 60.1308 78.9215 59.6721 79.1685C59.217 79.4119 58.6914 79.5336 58.0952 79.5336ZM62.4012 79.3749V71.7549H63.4013L66.1635 77.4858L68.9099 71.7549H69.9206V79.3696H68.8729V74.1573L66.4123 79.3749H65.9095L63.4436 74.1573V79.3749H62.4012ZM72.5695 79.3749L75.046 71.7549H76.6388L79.1153 79.3749H77.967L75.6863 72.4217H75.972L73.7178 79.3749H72.5695ZM73.8554 77.6551V76.6179H77.8347V77.6551H73.8554ZM79.853 79.3749V71.7549H82.9327C83.0068 71.7549 83.0985 71.7585 83.2079 71.7655C83.3173 71.7691 83.4213 71.7796 83.5201 71.7972C83.9434 71.8643 84.2962 72.0089 84.5784 72.2311C84.8642 72.4534 85.0775 72.7339 85.2187 73.0725C85.3599 73.4112 85.4304 73.7852 85.4304 74.1944C85.4304 74.8012 85.2752 75.3251 84.9647 75.766C84.6542 76.2035 84.1885 76.4768 83.5677 76.5862L83.1179 76.6391H80.9589V79.3749H79.853ZM84.3085 79.3749L82.8057 76.274L83.9222 75.9882L85.5732 79.3749H84.3085ZM80.9589 75.5914H82.8904C82.9609 75.5914 83.0385 75.5878 83.1232 75.5808C83.2114 75.5738 83.2943 75.5613 83.3719 75.5437C83.5977 75.4908 83.7794 75.3938 83.9169 75.2527C84.0545 75.1081 84.1534 74.9422 84.2133 74.7553C84.2732 74.5683 84.3032 74.3813 84.3032 74.1944C84.3032 74.0074 84.2732 73.8222 84.2133 73.6387C84.1534 73.4518 84.0545 73.2878 83.9169 73.1466C83.7794 73.002 83.5977 72.9032 83.3719 72.8503C83.2943 72.8291 83.2114 72.815 83.1232 72.8079C83.0385 72.8009 82.9609 72.7974 82.8904 72.7974H80.9589V75.5914ZM86.5245 79.3749V71.7549H87.5247L90.2869 77.4858L93.0333 71.7549H94.044V79.3696H92.9963V74.1573L90.5356 79.3749H90.0329L87.567 74.1573V79.3749H86.5245ZM94.7858 79.3749L97.2623 71.7549H98.8551L101.332 79.3749H100.183L97.9026 72.4217H98.1883L95.9341 79.3749H94.7858ZM96.0716 77.6551V76.6179H100.051V77.6551H96.0716ZM101.858 79.3749V79.2003L105.747 72.7974H102.069V71.7549H107.647V71.9348L103.778 78.3272H107.578V79.3749H101.858ZM111.716 70.9082H110.848L111.604 69.0562H112.472L111.716 70.9082ZM108.71 79.3749V71.7549H113.578V72.7974H109.816V74.9352H112.943V75.9777H109.816V78.3324H113.578V79.3749H108.71ZM114.637 79.3749V71.7549H115.638L118.4 77.4858L121.146 71.7549H122.157V79.3696H121.109V74.1573L118.649 79.3749H118.146L115.68 74.1573V79.3749H114.637ZM56.7264 94.0857C55.9644 94.0857 55.3154 93.92 54.779 93.5883C54.2429 93.2532 53.8318 92.7876 53.5461 92.1913C53.2639 91.5951 53.1228 90.9037 53.1228 90.117C53.1228 89.3302 53.2639 88.6389 53.5461 88.0427C53.8318 87.4464 54.2429 86.9826 54.779 86.6509C55.3154 86.3158 55.9644 86.1482 56.7264 86.1482C57.6048 86.1482 58.3316 86.3705 58.9065 86.815C59.4852 87.2595 59.8874 87.8574 60.113 88.6089L58.9912 88.9105C58.843 88.3777 58.5785 87.9597 58.1975 87.6564C57.82 87.353 57.3296 87.2013 56.7264 87.2013C56.1866 87.2013 55.7368 87.323 55.377 87.5664C55.0172 87.8098 54.7456 88.1502 54.5621 88.5877C54.3822 89.0252 54.2922 89.5349 54.2922 90.117C54.2888 90.6991 54.3769 91.2088 54.5568 91.6463C54.7403 92.0838 55.0119 92.4241 55.3717 92.6676C55.7351 92.911 56.1866 93.0327 56.7264 93.0327C57.3296 93.0327 57.82 92.881 58.1975 92.5776C58.5785 92.2707 58.843 91.8526 58.9912 91.3235L60.113 91.6251C59.8874 92.3765 59.4852 92.9745 58.9065 93.419C58.3316 93.8635 57.6048 94.0857 56.7264 94.0857ZM61.1711 93.927V86.307H62.2771V92.8845H65.7272V93.927H61.1711ZM69.7001 85.4603H68.8323L69.589 83.6082H70.4568L69.7001 85.4603ZM65.8848 93.927L68.3613 86.307H69.9541L72.4306 93.927H71.2823L69.0016 86.9737H69.2873L67.0331 93.927H65.8848ZM67.1707 92.2072V91.17H71.15V92.2072H67.1707ZM75.7239 94.0857C75.1771 94.0857 74.6831 93.9922 74.2422 93.8053C73.8047 93.6148 73.4432 93.3449 73.1574 92.9956C72.8752 92.6428 72.6917 92.2248 72.6071 91.7415L73.7607 91.5669C73.8771 92.0326 74.1205 92.396 74.4909 92.657C74.8613 92.9146 75.2935 93.0433 75.7874 93.0433C76.0943 93.0433 76.3765 92.9956 76.634 92.9004C76.8916 92.8016 77.098 92.6623 77.2532 92.4824C77.4119 92.2989 77.4913 92.0802 77.4913 91.8262C77.4913 91.6886 77.4665 91.5669 77.4172 91.4611C77.3713 91.3552 77.3061 91.2636 77.2214 91.1859C77.1403 91.1048 77.0398 91.036 76.9198 90.9795C76.8034 90.9196 76.6746 90.8684 76.5335 90.8261L74.5809 90.2493C74.3904 90.1928 74.1963 90.1206 73.9988 90.0323C73.8013 89.9406 73.6195 89.8224 73.4537 89.6778C73.2914 89.5296 73.1591 89.348 73.0569 89.1327C72.9546 88.9141 72.9034 88.6495 72.9034 88.339C72.9034 87.8697 73.0234 87.4729 73.2632 87.1484C73.5067 86.8203 73.8347 86.5733 74.2475 86.4075C74.6602 86.2382 75.1223 86.1535 75.6339 86.1535C76.1489 86.1605 76.6093 86.2523 77.015 86.4287C77.4242 86.605 77.7629 86.859 78.031 87.1907C78.3026 87.5188 78.4897 87.9174 78.5919 88.3866L77.4066 88.5877C77.3537 88.3019 77.2408 88.0568 77.0679 87.8521C76.895 87.6441 76.6834 87.4853 76.4329 87.3759C76.1825 87.2631 75.9108 87.2048 75.618 87.2013C75.3359 87.1943 75.0766 87.2366 74.8402 87.3283C74.6073 87.42 74.4204 87.5488 74.2792 87.7146C74.1417 87.8803 74.0729 88.0708 74.0729 88.2861C74.0729 88.4977 74.1346 88.6688 74.2581 88.7994C74.3815 88.9299 74.5332 89.0339 74.7132 89.1116C74.8966 89.1857 75.0783 89.2474 75.2582 89.2968L76.6658 89.6937C76.8421 89.743 77.0415 89.8101 77.2637 89.8947C77.4896 89.9758 77.7065 90.0905 77.9146 90.2387C78.1263 90.3869 78.3009 90.5844 78.4385 90.8314C78.5761 91.0748 78.6449 91.3817 78.6449 91.7521C78.6449 92.1367 78.5672 92.4753 78.412 92.7681C78.2569 93.0574 78.0433 93.3008 77.7717 93.4984C77.5036 93.6924 77.1932 93.8387 76.8404 93.9376C76.4876 94.0364 76.1154 94.0857 75.7239 94.0857ZM82.4782 94.0857C81.9314 94.0857 81.4374 93.9922 80.9965 93.8053C80.559 93.6148 80.1974 93.3449 79.9117 92.9956C79.6295 92.6428 79.446 92.2248 79.3614 91.7415L80.5149 91.5669C80.6314 92.0326 80.8748 92.396 81.2452 92.657C81.6156 92.9146 82.0478 93.0433 82.5416 93.0433C82.8486 93.0433 83.1307 92.9956 83.3883 92.9004C83.6459 92.8016 83.8523 92.6623 84.0074 92.4824C84.1662 92.2989 84.2456 92.0802 84.2456 91.8262C84.2456 91.6886 84.2208 91.5669 84.1715 91.4611C84.1256 91.3552 84.0604 91.2636 83.9757 91.1859C83.8946 91.1048 83.7941 91.036 83.6741 90.9795C83.5577 90.9196 83.4289 90.8684 83.2878 90.8261L81.3351 90.2493C81.1446 90.1928 80.9506 90.1206 80.7531 90.0323C80.5556 89.9406 80.3738 89.8224 80.208 89.6778C80.0457 89.5296 79.9134 89.348 79.8111 89.1327C79.7089 88.9141 79.6577 88.6495 79.6577 88.339C79.6577 87.8697 79.7777 87.4729 80.0175 87.1484C80.2609 86.8203 80.589 86.5733 81.0018 86.4075C81.4145 86.2382 81.8766 86.1535 82.3882 86.1535C82.9032 86.1605 83.3636 86.2523 83.7693 86.4287C84.1785 86.605 84.5172 86.859 84.7853 87.1907C85.0569 87.5188 85.244 87.9174 85.3462 88.3866L84.1609 88.5877C84.108 88.3019 83.9951 88.0568 83.8222 87.8521C83.6493 87.6441 83.4377 87.4853 83.1872 87.3759C82.9368 87.2631 82.6651 87.2048 82.3723 87.2013C82.0901 87.1943 81.8308 87.2366 81.5944 87.3283C81.3616 87.42 81.1747 87.5488 81.0335 87.7146C80.8959 87.8803 80.8272 88.0708 80.8272 88.2861C80.8272 88.4977 80.8889 88.6688 81.0124 88.7994C81.1358 88.9299 81.2875 89.0339 81.4674 89.1116C81.6509 89.1857 81.8326 89.2474 82.0125 89.2968L83.4201 89.6937C83.5964 89.743 83.7958 89.8101 84.018 89.8947C84.2438 89.9758 84.4608 90.0905 84.6689 90.2387C84.8806 90.3869 85.0552 90.5844 85.1928 90.8314C85.3304 91.0748 85.3991 91.3817 85.3991 91.7521C85.3991 92.1367 85.3215 92.4753 85.1663 92.7681C85.0111 93.0574 84.7976 93.3008 84.526 93.4984C84.2579 93.6924 83.9475 93.8387 83.5947 93.9376C83.2419 94.0364 82.8697 94.0857 82.4782 94.0857ZM86.4211 93.927V86.307H87.5271V93.927H86.4211ZM92.0846 94.0857C91.3226 94.0857 90.6736 93.92 90.1373 93.5883C89.6011 93.2532 89.1901 92.7876 88.9044 92.1913C88.6222 91.5951 88.481 90.9037 88.481 90.117C88.481 89.3302 88.6222 88.6389 88.9044 88.0427C89.1901 87.4464 89.6011 86.9826 90.1373 86.6509C90.6736 86.3158 91.3226 86.1482 92.0846 86.1482C92.9631 86.1482 93.6899 86.3705 94.2648 86.815C94.8435 87.2595 95.2456 87.8574 95.4713 88.6089L94.3495 88.9105C94.2013 88.3777 93.9367 87.9597 93.5557 87.6564C93.1783 87.353 92.6879 87.2013 92.0846 87.2013C91.5449 87.2013 91.0951 87.323 90.7353 87.5664C90.3754 87.8098 90.1038 88.1502 89.9203 88.5877C89.7404 89.0252 89.6505 89.5349 89.6505 90.117C89.647 90.6991 89.7351 91.2088 89.9151 91.6463C90.0985 92.0838 90.3701 92.4241 90.73 92.6676C91.0934 92.911 91.5449 93.0327 92.0846 93.0327C92.6879 93.0327 93.1783 92.881 93.5557 92.5776C93.9367 92.2707 94.2013 91.8526 94.3495 91.3235L95.4713 91.6251C95.2456 92.3765 94.8435 92.9745 94.2648 93.419C93.6899 93.8635 92.9631 94.0857 92.0846 94.0857ZM99.6038 94.0857C98.8418 94.0857 98.1927 93.92 97.6565 93.5883C97.1203 93.2532 96.7093 92.7876 96.4235 92.1913C96.1414 91.5951 96.0002 90.9037 96.0002 90.117C96.0002 89.3302 96.1414 88.6389 96.4235 88.0427C96.7093 87.4464 97.1203 86.9826 97.6565 86.6509C98.1927 86.3158 98.8418 86.1482 99.6038 86.1482C100.362 86.1482 101.01 86.3158 101.546 86.6509C102.086 86.9826 102.497 87.4464 102.779 88.0427C103.061 88.6389 103.202 89.3302 103.202 90.117C103.202 90.9037 103.061 91.5951 102.779 92.1913C102.497 92.7876 102.086 93.2532 101.546 93.5883C101.01 93.92 100.362 94.0857 99.6038 94.0857ZM99.6038 93.0327C100.144 93.0397 100.592 92.9216 100.948 92.6782C101.308 92.4312 101.578 92.0891 101.758 91.6516C101.937 91.2106 102.027 90.6991 102.027 90.117C102.027 89.5349 101.937 89.0269 101.758 88.593C101.578 88.1555 101.308 87.8151 100.948 87.5717C100.592 87.3283 100.144 87.2048 99.6038 87.2013C99.0641 87.1943 98.6143 87.3124 98.2545 87.5558C97.8982 87.7992 97.63 88.1415 97.4501 88.5824C97.2702 89.0233 97.1785 89.5349 97.175 90.117C97.1714 90.6991 97.2596 91.2088 97.4395 91.6463C97.6195 92.0802 97.8893 92.4189 98.2492 92.6623C98.6126 92.9057 99.0641 93.0291 99.6038 93.0327Z" fill="white"/>
<path d="M45.6469 96.1952C46.9719 94.959 49.0275 94.959 50.3525 96.1952L54.4916 100.057C55.4483 100.949 56.8276 101.224 58.0531 100.765L63.3548 98.7815C65.052 98.1465 66.9511 98.9332 67.7022 100.582L70.0485 105.734C70.5908 106.924 71.7602 107.706 73.0678 107.751L78.725 107.947C80.536 108.01 81.9896 109.464 82.0524 111.275L82.2487 116.932C82.2941 118.24 83.0754 119.409 84.2661 119.951L89.4176 122.298C91.0667 123.049 91.8534 124.948 91.2184 126.645L89.2348 131.947C88.7763 133.172 89.0507 134.552 89.9432 135.508L93.8047 139.647C95.0408 140.972 95.0408 143.028 93.8047 144.353L89.9432 148.492C89.0507 149.449 88.7763 150.828 89.2348 152.054L91.2184 157.355C91.8534 159.052 91.0667 160.952 89.4176 161.703L84.2661 164.049C83.0754 164.591 82.2941 165.761 82.2487 167.068L82.0524 172.725C81.9896 174.536 80.536 175.99 78.725 176.053L73.0678 176.249C71.7602 176.295 70.5908 177.076 70.0485 178.267L67.7022 183.418C66.9511 185.067 65.052 185.854 63.3548 185.219L58.0531 183.235C56.8276 182.777 55.4483 183.051 54.4916 183.944L50.3525 187.805C49.0275 189.041 46.9719 189.041 45.6469 187.805L41.5078 183.944C40.5511 183.051 39.1718 182.777 37.9463 183.235L32.6446 185.219C30.9474 185.854 29.0483 185.067 28.2972 183.418L25.9509 178.267C25.4086 177.076 24.2392 176.295 22.9316 176.249L17.2744 176.053C15.4634 175.99 14.0098 174.536 13.947 172.725L13.7507 167.068C13.7053 165.761 12.924 164.591 11.7333 164.049L6.58178 161.703C4.93267 160.952 4.14601 159.052 4.781 157.355L6.76456 152.054C7.22304 150.828 6.94867 149.449 6.05614 148.492L2.19469 144.353C0.958541 143.028 0.958543 140.972 2.19469 139.647L6.05615 135.508C6.94867 134.552 7.22304 133.172 6.76456 131.947L4.781 126.645C4.14601 124.948 4.93267 123.049 6.58178 122.298L11.7333 119.951C12.924 119.409 13.7053 118.24 13.7507 116.932L13.947 111.275C14.0098 109.464 15.4634 108.01 17.2744 107.947L22.9316 107.751C24.2392 107.706 25.4086 106.924 25.9509 105.734L28.2972 100.582C29.0483 98.9332 30.9474 98.1465 32.6446 98.7815L37.9463 100.765C39.1718 101.224 40.5511 100.949 41.5078 100.057L45.6469 96.1952Z" fill="white"/>
<path d="M46.1864 100.011C47.2079 99.0576 48.7928 99.0576 49.8144 100.011L53.6439 103.583C54.6765 104.547 56.1654 104.843 57.4881 104.348L62.3932 102.513C63.7017 102.023 65.166 102.63 65.7451 103.901L67.9159 108.667C68.5012 109.953 69.7634 110.796 71.1748 110.845L76.4089 111.026C77.8051 111.075 78.9258 112.196 78.9743 113.592L79.1559 118.826C79.2049 120.237 80.0481 121.5 81.3335 122.085L86.0996 124.256C87.371 124.835 87.9775 126.299 87.488 127.608L85.6528 132.513C85.1579 133.835 85.454 135.324 86.4174 136.357L89.9901 140.186C90.9431 141.208 90.9431 142.793 89.99 143.814L86.4174 147.644C85.454 148.676 85.1579 150.165 85.6528 151.488L87.488 156.393C87.9775 157.702 87.371 159.166 86.0996 159.745L81.3335 161.916C80.0481 162.501 79.2049 163.763 79.1559 165.175L78.9743 170.409C78.9258 171.805 77.8051 172.926 76.4088 172.974L71.1748 173.156C69.7634 173.205 68.5012 174.048 67.9158 175.333L65.7451 180.1C65.166 181.371 63.7017 181.977 62.3932 181.488L57.4881 179.653C56.1654 179.158 54.6765 179.454 53.6439 180.417L49.8144 183.99C48.7928 184.943 47.2079 184.943 46.1864 183.99L42.3569 180.417C41.3243 179.454 39.8354 179.158 38.5127 179.653L33.6076 181.488C32.2991 181.977 30.8348 181.371 30.2557 180.1L28.0849 175.333C27.4996 174.048 26.2374 173.205 24.826 173.156L19.5919 172.974C18.1957 172.926 17.075 171.805 17.0265 170.409L16.8449 165.175C16.7959 163.763 15.9526 162.501 14.6673 161.916L9.90116 159.745C8.62971 159.166 8.02319 157.702 8.51277 156.393L10.348 151.488C10.8429 150.165 10.5467 148.676 9.58329 147.644L6.01069 143.814C5.05763 142.793 5.05763 141.208 6.01069 140.186L9.58329 136.357C10.5467 135.324 10.8429 133.835 10.348 132.513L8.51277 127.608C8.02319 126.299 8.62971 124.835 9.90117 124.256L14.6673 122.085C15.9526 121.5 16.7959 120.237 16.8449 118.826L17.0265 113.592C17.075 112.196 18.1957 111.075 19.5919 111.026L24.826 110.845C26.2374 110.796 27.4996 109.953 28.0849 108.667L30.2557 103.901C30.8348 102.63 32.2991 102.023 33.6076 102.513L38.5127 104.348C39.8354 104.843 41.3243 104.547 42.3569 103.583L46.1864 100.011Z" fill="white"/>
<path d="M65.7451 103.901C65.166 102.63 63.7017 102.023 62.3932 102.513L57.4881 104.348C56.1654 104.843 54.6765 104.547 53.6439 103.583L49.8144 100.011C48.7928 99.0576 47.2079 99.0576 46.1864 100.011L42.3569 103.583C41.3243 104.547 39.8354 104.843 38.5127 104.348L33.6076 102.513C32.2991 102.023 30.8348 102.63 30.2557 103.901L28.0849 108.667C27.4996 109.953 26.2374 110.796 24.826 110.845L19.5919 111.026C18.1957 111.075 17.075 112.196 17.0265 113.592L16.8449 118.826C16.7959 120.237 15.9526 121.5 14.6673 122.085L9.90117 124.256C8.62971 124.835 8.02319 126.299 8.51277 127.608L10.348 132.513C10.8429 133.835 10.5467 135.324 9.58329 136.357L6.01069 140.186C5.05763 141.208 5.05763 142.793 6.01069 143.814L9.58329 147.644C10.5467 148.676 10.8429 150.165 10.348 151.488L8.51277 156.393C8.02319 157.702 8.62971 159.166 9.90116 159.745L14.6673 161.916C15.9526 162.501 16.7959 163.763 16.8449 165.175L17.0265 170.409C17.075 171.805 18.1957 172.926 19.5919 172.974L24.826 173.156C26.2374 173.205 27.4996 174.048 28.0849 175.333L30.2557 180.1C30.8348 181.371 32.2991 181.977 33.6076 181.488L38.5127 179.653C39.8354 179.158 41.3243 179.454 42.3569 180.417L46.1864 183.99C47.2079 184.943 48.7928 184.943 49.8144 183.99L53.6439 180.417C54.6765 179.454 56.1654 179.158 57.4881 179.653L62.3932 181.488C63.7017 181.977 65.166 181.371 65.7451 180.1L67.9158 175.333C68.5012 174.048 69.7634 173.205 71.1748 173.156L76.4088 172.974C77.8051 172.926 78.9258 171.805 78.9743 170.409L79.1559 165.175C79.2049 163.763 80.0482 162.501 81.3335 161.916L86.0996 159.745C87.371 159.166 87.9775 157.702 87.488 156.393L85.6528 151.488C85.1579 150.165 85.454 148.676 86.4174 147.644L89.99 143.814C90.9431 142.793 90.9431 141.208 89.9901 140.186L86.4174 136.357C85.4541 135.324 85.1579 133.835 85.6528 132.513L87.488 127.608C87.9775 126.299 87.371 124.835 86.0996 124.256L81.3335 122.085C80.0482 121.5 79.2049 120.237 79.1559 118.826L78.9743 113.592C78.9258 112.196 77.8051 111.075 76.4089 111.026L71.1748 110.845C69.7634 110.796 68.5012 109.953 67.9159 108.667L65.7451 103.901ZM65.7451 103.901L66.229 103.681" stroke="#4760FF" stroke-width="1.0637"/>
<path d="M79.8496 137.732H16.8496V155.732H79.8496V137.732Z" fill="white"/>
<path d="M23.7962 153.998C22.9929 153.998 22.228 153.856 21.5015 153.572C20.775 153.283 20.1312 152.858 19.5701 152.297C19.0149 151.735 18.5748 151.041 18.25 150.215C17.931 149.388 17.7715 148.434 17.7715 147.353C17.7715 145.941 18.0403 144.742 18.5778 143.756C19.1212 142.763 19.8477 142.007 20.7573 141.488C21.6728 140.968 22.6858 140.708 23.7962 140.708C25.4382 140.708 26.7288 141.089 27.6679 141.851C28.607 142.613 29.2361 143.691 29.555 145.085L27.092 145.439C26.8617 144.695 26.4836 144.101 25.958 143.658C25.4382 143.209 24.7708 142.982 23.9557 142.976C23.1465 142.964 22.4731 143.139 21.9356 143.499C21.3981 143.859 20.9935 144.37 20.7218 145.032C20.456 145.693 20.3232 146.467 20.3232 147.353C20.3232 148.239 20.456 149.007 20.7218 149.656C20.9935 150.306 21.3981 150.811 21.9356 151.171C22.4731 151.532 23.1465 151.718 23.9557 151.73C24.505 151.741 25.0011 151.647 25.4441 151.446C25.893 151.245 26.271 150.929 26.5781 150.498C26.8853 150.067 27.1038 149.515 27.2338 148.841H25.2137V146.981H29.8031C29.8149 147.058 29.8238 147.193 29.8297 147.388C29.8356 147.583 29.8385 147.695 29.8385 147.725C29.8385 148.948 29.5905 150.031 29.0943 150.976C28.5982 151.922 27.8983 152.663 26.9946 153.2C26.0909 153.732 25.0247 153.998 23.7962 153.998ZM31.2598 153.732V140.974H36.6466C36.7706 140.974 36.936 140.98 37.1427 140.992C37.3554 140.997 37.5444 141.015 37.7098 141.045C38.4717 141.163 39.0948 141.414 39.5792 141.798C40.0694 142.182 40.4297 142.666 40.6601 143.251C40.8904 143.83 41.0056 144.476 41.0056 145.191C41.0056 146.26 40.7398 147.176 40.2082 147.938C39.6766 148.694 38.8438 149.16 37.7098 149.337L36.6466 149.408H33.6697V153.732H31.2598ZM38.454 153.732L35.9378 148.54L38.4185 148.062L41.1828 153.732H38.454ZM33.6697 147.158H36.5403C36.6643 147.158 36.8002 147.152 36.9478 147.14C37.0955 147.128 37.2313 147.105 37.3554 147.069C37.6802 146.981 37.9313 146.833 38.1084 146.626C38.2856 146.414 38.4067 146.18 38.4717 145.926C38.5426 145.667 38.578 145.421 38.578 145.191C38.578 144.961 38.5426 144.719 38.4717 144.465C38.4067 144.205 38.2856 143.971 38.1084 143.765C37.9313 143.552 37.6802 143.401 37.3554 143.313C37.2313 143.277 37.0955 143.254 36.9478 143.242C36.8002 143.23 36.6643 143.224 36.5403 143.224H33.6697V147.158ZM41.8902 153.732L45.7885 140.974H49.3855L53.2838 153.732H50.8031L47.3301 142.48H47.7908L44.3709 153.732H41.8902ZM44.2292 151.074V148.824H50.9626V151.074H44.2292ZM56.421 153.732V143.224H52.3987V140.974H62.8532V143.224H58.8309V153.732H56.421ZM64.0998 153.732V140.974H66.5097V153.732H64.0998ZM73.6311 153.998C72.6861 153.998 71.8326 153.832 71.0707 153.502C70.3146 153.165 69.6915 152.686 69.2012 152.066C68.7169 151.44 68.4098 150.696 68.2798 149.834L70.796 149.461C70.9732 150.194 71.3394 150.758 71.8946 151.154C72.4498 151.549 73.0818 151.747 73.7906 151.747C74.1863 151.747 74.5703 151.685 74.9424 151.561C75.3145 151.437 75.6187 151.254 75.8549 151.012C76.0971 150.77 76.2182 150.471 76.2182 150.117C76.2182 149.987 76.1975 149.863 76.1562 149.745C76.1207 149.621 76.0587 149.506 75.9701 149.399C75.8815 149.293 75.7545 149.193 75.5891 149.098C75.4297 149.004 75.2259 148.918 74.9778 148.841L71.6643 147.867C71.4162 147.796 71.1268 147.695 70.796 147.565C70.4711 147.436 70.1552 147.249 69.848 147.007C69.5409 146.765 69.2839 146.446 69.0772 146.05C68.8764 145.649 68.776 145.144 68.776 144.535C68.776 143.679 68.9916 142.967 69.4227 142.4C69.8539 141.833 70.4298 141.411 71.1504 141.133C71.871 140.856 72.6684 140.72 73.5425 140.726C74.4226 140.738 75.2082 140.888 75.8992 141.178C76.5903 141.467 77.1691 141.889 77.6357 142.445C78.1024 142.994 78.439 143.667 78.6458 144.465L76.041 144.908C75.9465 144.494 75.7722 144.146 75.5183 143.862C75.2643 143.579 74.9601 143.363 74.6057 143.215C74.2572 143.068 73.891 142.988 73.5071 142.976C73.1291 142.964 72.7717 143.017 72.4351 143.136C72.1043 143.248 71.8326 143.413 71.62 143.632C71.4132 143.85 71.3099 144.11 71.3099 144.411C71.3099 144.689 71.3955 144.916 71.5668 145.094C71.7381 145.265 71.9537 145.404 72.2136 145.51C72.4735 145.616 72.7393 145.705 73.011 145.776L75.2259 146.378C75.5567 146.467 75.9229 146.585 76.3245 146.733C76.7261 146.874 77.1101 147.075 77.4763 147.335C77.8484 147.589 78.1526 147.926 78.3888 148.345C78.631 148.765 78.7521 149.296 78.7521 149.94C78.7521 150.625 78.6074 151.225 78.318 151.738C78.0344 152.246 77.6505 152.669 77.1662 153.005C76.6818 153.336 76.1325 153.584 75.5183 153.75C74.9099 153.915 74.2809 153.998 73.6311 153.998Z" fill="#4760FF"/>
<path d="M20.2812 136.99V127.56H24.0075C24.0992 127.56 24.2083 127.564 24.3349 127.573C24.4615 127.577 24.5837 127.59 24.7015 127.612C25.2123 127.691 25.6403 127.865 25.9852 128.136C26.3344 128.407 26.5964 128.749 26.771 129.164C26.9456 129.575 27.033 130.031 27.033 130.533C27.033 131.262 26.8429 131.895 26.4632 132.432C26.0834 132.965 25.5268 133.299 24.7933 133.434L24.3479 133.506H21.447V136.99H20.2812ZM25.8934 136.99L24.0337 133.152L25.1861 132.799L27.2294 136.99H25.8934ZM21.447 132.399H23.9682C24.0511 132.399 24.145 132.395 24.2498 132.386C24.3589 132.377 24.4615 132.362 24.5576 132.34C24.8588 132.27 25.1033 132.144 25.291 131.96C25.4831 131.773 25.6228 131.554 25.7101 131.306C25.7974 131.052 25.8411 130.795 25.8411 130.533C25.8411 130.271 25.7974 130.015 25.7101 129.767C25.6228 129.513 25.4831 129.293 25.291 129.105C25.1033 128.917 24.8588 128.791 24.5576 128.725C24.4615 128.699 24.3589 128.684 24.2498 128.68C24.145 128.671 24.0511 128.666 23.9682 128.666H21.447V132.399ZM28.4097 136.99V127.56H34.369V128.666H29.5755V131.62H33.5831V132.727H29.5755V135.883H34.369V136.99H28.4097ZM39.2256 137.186C38.287 137.186 37.4902 136.979 36.8354 136.564C36.1805 136.149 35.6806 135.573 35.3357 134.835C34.9952 134.097 34.8249 133.244 34.8249 132.275C34.8249 131.306 34.9952 130.452 35.3357 129.714C35.6806 128.976 36.1805 128.4 36.8354 127.985C37.4902 127.571 38.287 127.363 39.2256 127.363C40.3171 127.363 41.2141 127.641 41.917 128.195C42.6243 128.749 43.111 129.496 43.3774 130.435L42.1922 130.749C42 130.046 41.6573 129.492 41.164 129.086C40.6707 128.68 40.0246 128.477 39.2256 128.477C38.5227 128.477 37.9377 128.636 37.4706 128.955C37.0034 129.273 36.6519 129.719 36.4161 130.291C36.1804 130.858 36.0603 131.519 36.056 132.275C36.0516 133.026 36.1673 133.687 36.4031 134.259C36.6388 134.827 36.9925 135.272 37.464 135.595C37.9355 135.914 38.5227 136.073 39.2256 136.073C40.0246 136.073 40.6707 135.87 41.164 135.464C41.6573 135.054 42 134.499 42.1922 133.801L43.3774 134.115C43.111 135.049 42.6243 135.796 41.917 136.355C41.2141 136.909 40.3171 137.186 39.2256 137.186ZM48.4285 137.186C47.4899 137.186 46.6931 136.979 46.0382 136.564C45.3834 136.149 44.8835 135.573 44.5386 134.835C44.1981 134.097 44.0278 133.244 44.0278 132.275C44.0278 131.306 44.1981 130.452 44.5386 129.714C44.8835 128.976 45.3834 128.4 46.0382 127.985C46.6931 127.571 47.4899 127.363 48.4285 127.363C49.3715 127.363 50.1704 127.571 50.8252 127.985C51.4801 128.4 51.9779 128.976 52.3184 129.714C52.6589 130.452 52.8292 131.306 52.8292 132.275C52.8292 133.244 52.6589 134.097 52.3184 134.835C51.9779 135.573 51.4801 136.149 50.8252 136.564C50.1704 136.979 49.3715 137.186 48.4285 137.186ZM48.4285 136.073C49.1314 136.077 49.7164 135.92 50.1836 135.601C50.6551 135.278 51.0065 134.831 51.2379 134.259C51.4736 133.687 51.5914 133.026 51.5914 132.275C51.5914 131.519 51.4736 130.858 51.2379 130.291C51.0065 129.723 50.6551 129.28 50.1836 128.961C49.7164 128.642 49.1314 128.481 48.4285 128.477C47.7256 128.472 47.1406 128.629 46.6735 128.948C46.2107 129.267 45.8614 129.712 45.6257 130.284C45.3899 130.856 45.2698 131.519 45.2654 132.275C45.2612 133.026 45.3767 133.685 45.6125 134.252C45.8482 134.82 46.1998 135.265 46.6669 135.588C47.1384 135.907 47.7256 136.069 48.4285 136.073ZM54.0135 136.99V127.56H55.1791V135.883H59.5536V136.99H54.0135ZM60.3993 136.99V127.56H61.5651V131.718H66.5289V127.56H67.6946V136.99H66.5289V132.825H61.5651V136.99H60.3993ZM68.6148 136.99L71.7714 127.56H73.3954L76.5519 136.99H75.3404L72.3869 128.241H72.7537L69.8264 136.99H68.6148ZM70.1342 134.783V133.689H75.0326V134.783H70.1342Z" fill="#4760FF"/>
</svg>
