<?xml version="1.0" encoding="UTF-8" standalone="no"?>
<svg
   xmlns:dc="http://purl.org/dc/elements/1.1/"
   xmlns:cc="http://creativecommons.org/ns#"
   xmlns:rdf="http://www.w3.org/1999/02/22-rdf-syntax-ns#"
   xmlns:svg="http://www.w3.org/2000/svg"
   xmlns="http://www.w3.org/2000/svg"
   style="fill:none"
   id="svg24"
   version="1.1"
   viewBox="0 0 123.64553 123.64499"
   height="123.645"
   width="123.64553">
  <metadata
     id="metadata30">
    <rdf:RDF>
      <cc:Work
         rdf:about="">
        <dc:format>image/svg+xml</dc:format>
        <dc:type
           rdf:resource="http://purl.org/dc/dcmitype/StillImage" />
        <dc:title></dc:title>
      </cc:Work>
    </rdf:RDF>
  </metadata>
  <defs
     id="defs28" />
  <path
     style="fill:#4760ff"
     id="path2"
     d="m 58.710075,1.2264825 c 1.7529,-1.63531 4.4723,-1.63531 6.2251,0 l 5.4757,5.10839 c 1.2657,1.18073 3.0904,1.5437 4.7116,0.93717 l 7.0137,-2.62409 c 2.2451,-0.84003 4.7581,0.20065 5.7511,2.38229 l 3.104,6.8150105 c 0.718,1.5752 2.265,2.6088 3.994,2.6688 l 7.483995,0.2597 c 2.396,0.0831 4.31901,2.0061 4.402,4.4019 l 0.26001,7.484 c 0.06,1.7298 1.09399,3.2768 2.669,3.9943 l 6.815,3.1039 c 2.181,0.9937 3.222,3.506 2.382,5.7513 l -2.624,7.0137 c -0.607,1.6212 -0.244,3.4459 0.937,4.7115 l 5.109,5.4757 c 1.635,1.7529 1.635,4.4723 0,6.2251 l -5.109,5.4757 c -1.181,1.2657 -1.544,3.0904 -0.937,4.7116 l 2.624,7.0137 c 0.84,2.2453 -0.201,4.7576 -2.382,5.7513 l -6.815,3.1039 c -1.575,0.7174 -2.609,2.2645 -2.669,3.9943 l -0.26,7.484097 c -0.083,2.396 -2.006,4.319 -4.402,4.402 l -7.484005,0.259 c -1.729,0.061 -3.276,1.094 -3.994,2.669 l -3.104,6.815 c -0.993,2.182 -3.506,3.223 -5.7511,2.383 l -7.0137,-2.625 c -1.6212,-0.606 -3.4459,-0.243 -4.7116,0.938 l -5.4757,5.108 c -1.7528,1.635 -4.4722,1.635 -6.2251,0 l -5.4757,-5.108 c -1.2656,-1.181 -3.0903,-1.544 -4.7115,-0.938 l -7.0137,2.625 c -2.2453,0.84 -4.7576,-0.201 -5.7513,-2.383 l -3.1039,-6.815 c -0.7175,-1.575 -2.2645,-2.608 -3.9943,-2.669 l -7.484,-0.259 c -2.3958,-0.083 -4.3188,-2.006 -4.4019,-4.402 l -0.2597,-7.484098 c -0.0601,-1.729799 -1.0937,-3.276899 -2.6688,-3.994299 l -6.815,-3.1039 c -2.1817,-0.9937 -3.2223,-3.506 -2.3823,-5.7513 l 2.6241,-7.0137 c 0.6065,-1.6212 0.2435,-3.4459 -0.9372,-4.7116 l -5.1084,-5.475701 c -1.6353,-1.752799 -1.6353,-4.4722 0,-6.225099 l 5.1084,-5.475701 c 1.1807,-1.2656 1.5437,-3.0903 0.9372,-4.7115 l -2.6241,-7.0137 c -0.84,-2.2453 0.2006,-4.757599 2.3823,-5.7513 l 6.815,-3.1039 c 1.5751,-0.7175 2.6087,-2.2645 2.6688,-3.9943 l 0.2597,-7.484 c 0.0831,-2.3958 2.0061,-4.3188 4.4019,-4.4019 l 7.484,-0.2597 c 1.7298,-0.06 3.2768,-1.093599 3.9943,-2.6688 l 3.1039,-6.8150095 c 0.9937,-2.18164 3.506,-3.22232 5.7513,-2.38229 l 7.0137,2.62409 c 1.6212,0.60653 3.4459,0.24356 4.7115,-0.93718 z" />
  <path
     style="fill:#4760ff"
     id="path4"
     d="m 59.422775,6.2742225 c 1.3514,-1.26082 3.4481,-1.26082 4.7996,0 l 5.0661,4.7262305 c 1.366,1.2745 3.3357,1.6663 5.0855,1.0116 l 6.4891,-2.4278005 c 1.731,-0.6477 3.6682,0.1547 4.4342,1.8368005 l 2.872,6.3051 c 0.774,1.7003 2.444,2.8159 4.311,2.8808 l 6.924,0.2402 c 1.846995,0.0642 3.329995,1.5468 3.394005,3.3938 l 0.24,6.9243 c 0.065,1.8672 1.18099,3.5369 2.881,4.3112 l 6.30499,2.8718 c 1.682,0.7661 2.48501,2.7033 1.837,4.4343 l -2.428,6.4891 c -0.654,1.7498 -0.263,3.7195 1.012,5.0855 l 4.726,5.0661 c 1.261,1.3514 1.261,3.4481 0,4.7996 l -4.726,5.0661 c -1.275,1.366 -1.666,3.3357 -1.012,5.0855 l 2.428,6.4891 c 0.648,1.731 -0.155,3.6682 -1.837,4.4343 l -6.305,2.8716 c -1.7,0.7745 -2.816,2.444199 -2.881,4.3114 l -0.24,6.9239 c -0.064,1.846997 -1.547,3.329997 -3.393995,3.393997 l -6.924,0.24 c -1.867,0.065 -3.537,1.181 -4.311,2.881 l -2.872,6.305 c -0.766,1.682 -2.7032,2.485 -4.4342,1.837 l -6.4891,-2.428 c -1.7498,-0.654 -3.7195,-0.263 -5.0855,1.012 l -5.0661,4.726 c -1.3515,1.261 -3.4482,1.261 -4.7996,0 l -5.0661,-4.726 c -1.366,-1.275 -3.3357,-1.666 -5.0855,-1.012 l -6.4891,2.428 c -1.731,0.648 -3.6682,-0.155 -4.4343,-1.837 l -2.8718,-6.305 c -0.7743,-1.7 -2.444,-2.816 -4.3112,-2.881 l -6.9243,-0.24 c -1.847,-0.064 -3.3296,-1.547 -3.3938,-3.393997 l -0.2402,-6.9239 c -0.0649,-1.8672 -1.1805,-3.5369 -2.8808,-4.3114 l -6.3052,-2.8716 c -1.682,-0.7661 -2.4844,-2.7033 -1.8367,-4.434301 l 2.4278,-6.489099 c 0.6547,-1.7498 0.2629,-3.7195 -1.0116,-5.0855 l -4.7262,-5.0661 c -1.2608,-1.351501 -1.2608,-3.4482 0,-4.7996 l 4.7262,-5.0661 c 1.2745,-1.366 1.6663,-3.3357 1.0116,-5.0855 l -2.4278,-6.4891 c -0.6477,-1.731001 0.1547,-3.6682 1.8368,-4.434301 l 6.3051,-2.8718 c 1.7003,-0.774299 2.8159,-2.444 2.8808,-4.3112 l 0.2402,-6.924299 c 0.0642,-1.847001 1.5468,-3.3296 3.3938,-3.3938 l 6.9243,-0.2402 c 1.8672,-0.0649 3.5369,-1.1805 4.3112,-2.8808 l 2.8718,-6.3052 c 0.7661,-1.6820005 2.7033,-2.4844005 4.4343,-1.8367005 l 6.4891,2.4278005 c 1.7498,0.6547 3.7195,0.2629 5.0855,-1.0116 z" />
  <path
     style="stroke:#ffffff;stroke-width:1.06369996"
     id="path6"
     d="m 85.297275,11.421053 c -0.766,-1.6821005 -2.7032,-2.4845005 -4.4342,-1.8368005 l -6.4891,2.4278005 c -1.7498,0.6547 -3.7195,0.2629 -5.0855,-1.0116 l -5.0661,-4.7262305 c -1.3515,-1.26082 -3.4482,-1.26082 -4.7996,0 l -5.0661,4.7262305 c -1.366,1.2745 -3.3357,1.6663 -5.0855,1.0116 l -6.4891,-2.4278005 c -1.731,-0.6477 -3.6682,0.1547 -4.4343,1.8367005 l -2.8718,6.3052 c -0.7743,1.7003 -2.444,2.8159 -4.3112,2.8808 l -6.9243,0.2402 c -1.847,0.0642 -3.3296,1.5468 -3.3938,3.3938 l -0.2402,6.9243 c -0.0649,1.8672 -1.1805,3.5369 -2.8808,4.3112 l -6.3051,2.8718 c -1.6821,0.7661 -2.4845,2.7033 -1.8368,4.4343 l 2.4278,6.4891 c 0.6547,1.7498 0.2629,3.7195 -1.0116,5.0855 l -4.7262,5.0661 c -1.2608,1.3514 -1.2608,3.4481 0,4.7996 l 4.7262,5.0661 c 1.2745,1.366 1.6663,3.3357 1.0116,5.0855 l -2.4278,6.4891 c -0.6477,1.731 0.1547,3.6682 1.8367,4.4343 l 6.3052,2.8716 c 1.7003,0.7745 2.8159,2.444199 2.8808,4.3114 l 0.2402,6.9239 c 0.0642,1.846997 1.5468,3.329997 3.3938,3.393997 l 6.9243,0.24 c 1.8672,0.065 3.5369,1.181 4.3112,2.881 l 2.8718,6.305 c 0.7661,1.682 2.7033,2.485 4.4343,1.837 l 6.4891,-2.428 c 1.7498,-0.654 3.7195,-0.263 5.0855,1.012 l 5.0661,4.726 c 1.3514,1.261 3.4481,1.261 4.7996,0 l 5.0661,-4.726 c 1.366,-1.275 3.3357,-1.666 5.0855,-1.012 l 6.4891,2.428 c 1.731,0.648 3.6682,-0.155 4.4342,-1.837 l 2.872,-6.305 c 0.774,-1.7 2.444,-2.816 4.311,-2.881 l 6.924,-0.24 c 1.846995,-0.064 3.329995,-1.547 3.394005,-3.393997 l 0.24,-6.9239 c 0.065,-1.8672 1.18099,-3.5369 2.881,-4.3114 l 6.30499,-2.8716 c 1.682,-0.7661 2.48501,-2.7033 1.837,-4.434301 l -2.428,-6.489099 c -0.654,-1.7498 -0.263,-3.7195 1.012,-5.0855 l 4.726,-5.0661 c 1.261,-1.351501 1.261,-3.4482 0,-4.7996 l -4.726,-5.0661 c -1.275,-1.366 -1.666,-3.3357 -1.012,-5.0855 l 2.428,-6.4891 c 0.648,-1.731001 -0.155,-3.6682 -1.837,-4.434301 l -6.305,-2.8718 c -1.7,-0.774299 -2.816,-2.444 -2.881,-4.3112 l -0.24,-6.924299 c -0.064,-1.847001 -1.547,-3.3296 -3.393995,-3.3938 l -6.924,-0.2402 c -1.867,-0.0649 -3.537,-1.1805 -4.311,-2.8808 z m 0,0 0.64,-0.2917" />
  <path
     style="fill:#ffffff"
     id="path8"
     d="m 46.057975,44.865753 c -0.6667,0 -1.3026,-0.1327 -1.9076,-0.3982 -0.6051,-0.2716 -1.133,-0.651201 -1.5835,-1.139001 -0.4445,-0.4878 -0.7626,-1.0619 -0.9539,-1.7224 l 2.4448,-0.648299 c 0.1296,0.4878 0.3827,0.867499 0.7593,1.139099 0.3828,0.265501 0.7964,0.398201 1.2409,0.398201 0.3828,0 0.7316,-0.0926 1.0465,-0.2778 0.3209,-0.1852 0.5741,-0.4353 0.7593,-0.750101 0.1913,-0.3149 0.2871,-0.663699 0.2871,-1.0465 0,-0.5741 -0.1976,-1.0649 -0.5927,-1.4724 -0.3889,-0.4136 -0.889,-0.620399 -1.5002,-0.620399 -0.1852,0 -0.3643,0.0278 -0.5371,0.0833 -0.1729,0.0494 -0.3396,0.120399 -0.5,0.213 l -1.1298,-1.9817 4.2413,-3.519 0.1852,0.5371 h -6.186 v -2.3706 h 8.3344 v 2.3706 l -3.2967,3.1856 -0.0185,-0.7038 c 0.7654,0.1174 1.4106,0.3859 1.9354,0.8057 0.5309,0.4137 0.9321,0.926 1.2039,1.5372 0.2778,0.605 0.4167,1.2502 0.4167,1.9354 0,0.8397 -0.213,1.5959 -0.639,2.2688 -0.426,0.6668 -0.9909,1.1977 -1.6947,1.5928 -0.7037,0.389 -1.4755,0.5834 -2.3151,0.5834 z m 11.6277,0.0371 c -0.9877,0 -1.8521,-0.2068 -2.5929,-0.6205 -0.7409,-0.4136 -1.3181,-0.9908 -1.7317,-1.7317 -0.4136,-0.7408 -0.6205,-1.6051 -0.6205,-2.5929 v -4.0005 c 0,-0.9878 0.2069,-1.8521 0.6205,-2.5929 0.4136,-0.7408 0.9908,-1.318 1.7317,-1.7317 0.7408,-0.4137 1.6052,-0.6204 2.5929,-0.6204 0.9878,0 1.8521,0.2067 2.5929,0.6204 0.7408,0.4137 1.3182,0.9909 1.7317,1.7317 0.4137,0.7408 0.6204,1.6051 0.6204,2.5929 v 4.0005 c 0,0.9878 -0.2067,1.8521 -0.6204,2.5929 -0.4135,0.7409 -0.9909,1.3181 -1.7317,1.7317 -0.7408,0.4137 -1.6051,0.6205 -2.5929,0.6205 z m 0,-2.3892 c 0.4445,0 0.8459,-0.1049 1.2038,-0.3149 0.3582,-0.2099 0.6422,-0.4938 0.852,-0.8519 0.2099,-0.3581 0.3149,-0.7594 0.3149,-1.2039 v -4.3894 c 0,-0.4445 -0.105,-0.8458 -0.3149,-1.2039 -0.2098,-0.3581 -0.4938,-0.642 -0.852,-0.8519 -0.3579,-0.21 -0.7593,-0.3149 -1.2038,-0.3149 -0.4445,0 -0.8458,0.1049 -1.2039,0.3149 -0.3579,0.2099 -0.642,0.4938 -0.8519,0.8519 -0.2098,0.3581 -0.3149,0.7594 -0.3149,1.2039 v 4.3894 c 0,0.4445 0.1051,0.8458 0.3149,1.2039 0.2099,0.3581 0.494,0.642 0.8519,0.8519 0.3581,0.21 0.7594,0.3149 1.2039,0.3149 z m 9.2017,2.1114 -1.6669,-1.6669 11.6681,-11.6681 1.6669,1.6854 z m 8.89,0.2778 c -0.6112,0 -1.1699,-0.1482 -1.6762,-0.4445 -0.5,-0.3026 -0.9013,-0.7038 -1.2038,-1.2039 -0.3024,-0.5063 -0.4538,-1.068 -0.4538,-1.6854 0,-0.6049 0.1544,-1.1606 0.463,-1.6668 0.3088,-0.5063 0.7163,-0.9106 1.2224,-1.2132 0.5063,-0.3025 1.0557,-0.4537 1.6484,-0.4537 0.6111,0 1.17,0.1512 1.6761,0.4537 0.5063,0.2964 0.9075,0.6976 1.2039,1.2039 0.3025,0.5001 0.4537,1.0587 0.4537,1.6761 0,0.6174 -0.1512,1.1791 -0.4537,1.6854 -0.2964,0.5001 -0.6976,0.9013 -1.2039,1.2039 -0.5061,0.2963 -1.065,0.4445 -1.6761,0.4445 z m 0,-2.1299 c 0.2161,0 0.4136,-0.0556 0.5926,-0.1667 0.1852,-0.1111 0.3334,-0.2563 0.4445,-0.4352 0.1112,-0.1853 0.1667,-0.3859 0.1667,-0.602 0,-0.216 -0.0555,-0.4136 -0.1667,-0.5926 -0.1111,-0.1852 -0.2593,-0.3334 -0.4445,-0.4445 -0.179,-0.1112 -0.3765,-0.1667 -0.5926,-0.1667 -0.2161,0 -0.4168,0.0555 -0.602,0.1667 -0.179,0.1111 -0.3241,0.2593 -0.4352,0.4445 -0.1111,0.179 -0.1667,0.3766 -0.1667,0.5926 0,0.2161 0.0556,0.4167 0.1667,0.602 0.1111,0.1789 0.2562,0.3241 0.4352,0.4352 0.1852,0.1111 0.3859,0.1667 0.602,0.1667 z m -7.7788,-5.0932 c -0.6112,0 -1.1698,-0.1482 -1.6761,-0.4445 -0.5062,-0.3026 -0.9106,-0.7038 -1.2131,-1.2039 -0.2964,-0.5063 -0.4445,-1.068 -0.4445,-1.6854 0,-0.605 0.1543,-1.1606 0.463,-1.6669 0.3088,-0.5063 0.7162,-0.9105 1.2224,-1.2131 0.5062,-0.3025 1.0556,-0.4537 1.6483,-0.4537 0.6112,0 1.1668,0.1512 1.6669,0.4537 0.5063,0.2963 0.9107,0.6976 1.2131,1.2039 0.3026,0.5 0.4538,1.0587 0.4538,1.6761 0,0.6174 -0.1512,1.1791 -0.4538,1.6854 -0.3024,0.5001 -0.7068,0.9013 -1.2131,1.2039 -0.5001,0.2963 -1.0557,0.4445 -1.6669,0.4445 z m 0,-2.1299 c 0.2162,0 0.4137,-0.0556 0.5927,-0.1667 0.1852,-0.1112 0.3334,-0.2563 0.4445,-0.4353 0.1111,-0.1852 0.1667,-0.3859 0.1667,-0.6019 0,-0.216 -0.0556,-0.4137 -0.1667,-0.5927 -0.1111,-0.1852 -0.2593,-0.3333 -0.4445,-0.4445 -0.179,-0.1111 -0.3765,-0.1667 -0.5927,-0.1667 -0.216,0 -0.4167,0.0556 -0.6019,0.1667 -0.179,0.1112 -0.3241,0.2593 -0.4353,0.4445 -0.1111,0.179 -0.1666,0.3767 -0.1666,0.5927 0,0.216 0.0555,0.4167 0.1666,0.6019 0.1112,0.179 0.2563,0.3241 0.4353,0.4353 0.1852,0.1111 0.3859,0.1667 0.6019,0.1667 z m -33.7168,26.4914 c -1.0477,0 -1.9523,-0.228 -2.7139,-0.684 -0.7567,-0.456 -1.3412,-1.0938 -1.7536,-1.9136 -0.4074,-0.8198 -0.6111,-1.773 -0.6111,-2.8595 0,-1.0865 0.2037,-2.0396 0.6111,-2.8594 0.4124,-0.8199 0.9969,-1.4576 1.7536,-1.9137 0.7616,-0.456 1.6662,-0.6839 2.7139,-0.6839 1.2031,0 2.212,0.2983 3.0269,0.895 0.8198,0.5966 1.397,1.4042 1.7317,2.4229 l -1.9937,0.553 c -0.1939,-0.6354 -0.5213,-1.1278 -0.9822,-1.4771 -0.4608,-0.3541 -1.0551,-0.5311 -1.7827,-0.5311 -0.6645,0 -1.2198,0.1479 -1.6662,0.4438 -0.4413,0.2959 -0.7736,0.7131 -0.9968,1.2515 -0.223,0.5384 -0.3347,1.1714 -0.3347,1.899 0,0.7276 0.1117,1.3606 0.3347,1.8991 0.2232,0.5384 0.5555,0.9555 0.9968,1.2515 0.4464,0.2959 1.0017,0.4438 1.6662,0.4438 0.7276,0 1.3219,-0.177 1.7827,-0.5312 0.4609,-0.3541 0.7883,-0.8464 0.9822,-1.477 l 1.9937,0.553 c -0.3347,1.0186 -0.9119,1.8263 -1.7317,2.4229 -0.8149,0.5966 -1.8238,0.895 -3.0269,0.895 z m 6.0697,-0.2183 v -10.4775 h 1.9791 v 4.3074 h 4.6858 v -4.3074 h 1.979 v 10.4775 h -1.979 v -4.322 h -4.6858 v 4.322 z m 10.3956,0 v -10.4775 h 6.8395 v 1.8481 h -4.8604 v 2.241 h 3.9873 v 1.8481 h -3.9873 v 2.6922 h 4.8604 v 1.8481 z m 7.5649,0 3.2014,-10.4775 h 2.9541 l 3.2014,10.4775 h -2.0372 l -2.8523,-9.2406 h 0.3784 l -2.8086,9.2406 z m 1.9208,-2.1828 v -1.8481 h 5.5298 v 1.8481 z m 8.4492,2.1828 v -10.4775 h 4.4239 c 0.1018,0 0.2376,0.0049 0.4074,0.0145 0.1747,0.0049 0.3298,0.0195 0.4657,0.0437 0.6257,0.097 1.1374,0.3032 1.5352,0.6185 0.4026,0.3152 0.6985,0.713 0.8877,1.1932 0.1892,0.475299 0.2838,1.0065 0.2838,1.593499 0,0.587001 -0.0971,1.1205 -0.2911,1.600701 -0.1891,0.475299 -0.4851,0.8708 -0.8876,1.186 -0.3978,0.3153 -0.9072,0.5215 -1.528,0.618499 -0.1359,0.0194 -0.291,0.034 -0.4657,0.0436 -0.1746,0.0097 -0.3105,0.0146 -0.4074,0.0146 h -2.4448 v 3.5507 z m 1.9791,-5.3988 h 2.3575 c 0.1018,0 0.2133,-0.0049 0.3347,-0.0146 0.1211,-0.0096 0.2328,-0.0291 0.3346,-0.0582 0.2667,-0.0728 0.473,-0.1941 0.6185,-0.3638 0.1455,-0.1746 0.2449,-0.3662 0.2983,-0.5748 0.0582,-0.2134 0.0873,-0.414701 0.0873,-0.603901 0,-0.1892 -0.0291,-0.387999 -0.0873,-0.596699 -0.0534,-0.2133 -0.1528,-0.405 -0.2983,-0.5748 -0.1455,-0.1746 -0.3518,-0.2983 -0.6185,-0.371 -0.1018,-0.0291 -0.2135,-0.0486 -0.3346,-0.0583 -0.1214,-0.0096 -0.2329,-0.0145 -0.3347,-0.0145 h -2.3575 z m 7.1944,5.3988 v -10.4775 h 6.8398 v 1.8481 h -4.8607 v 2.241 h 3.9877 v 1.8481 h -3.9877 v 2.6922 h 4.8607 v 1.8481 z m 8.2928,0 v -10.4775 h 4.423 c 0.102,0 0.238,0.0049 0.408,0.0145 0.174,0.0049 0.33,0.0195 0.465,0.0437 0.626,0.097 1.138,0.3032 1.536,0.6185 0.402,0.3152 0.698,0.713 0.887,1.1932 0.19,0.475299 0.284,1.0065 0.284,1.593499 0,0.878 -0.218,1.629801 -0.655,2.255601 -0.436,0.6208 -1.12,1.003999 -2.052,1.149599 l -0.873,0.0582 h -2.444 v 3.5507 z m 5.908,0 -2.067,-4.2638 2.038,-0.3929 2.27,4.6567 z m -3.929,-5.3988 h 2.357 c 0.102,0 0.214,-0.0049 0.335,-0.0146 0.121,-0.0096 0.233,-0.0291 0.334,-0.0582 0.267,-0.0728 0.473,-0.1941 0.619,-0.3638 0.145,-0.1746 0.245,-0.3662 0.298,-0.5748 0.058,-0.2134 0.088,-0.414701 0.088,-0.603901 0,-0.1892 -0.03,-0.387999 -0.088,-0.596699 -0.053,-0.2133 -0.153,-0.405001 -0.298,-0.574801 -0.146,-0.1746 -0.352,-0.2983 -0.619,-0.371 -0.101,-0.0291 -0.213,-0.0486 -0.334,-0.0583 -0.121,-0.0096 -0.233,-0.0145 -0.335,-0.0145 h -2.357 z" />
  <path
     style="fill:#ffffff"
     id="path10"
     d="m 26.259075,76.374653 v -6.1666 h -2.3763 v -0.9772 h 5.7894 v 0.9772 h -2.3762 v 6.1666 z m 4.0087,0 v -7.1438 h 1.0367 v 3.0807 h 3.5719 v -3.080701 h 1.0418 v 7.1438 h -1.0418 v -3.0857 h -3.5719 v 3.0857 z m 6.3496,0 2.3217,-7.1438 h 1.4932 l 2.3217,7.1438 h -1.0765 l -2.1382,-6.518701 h 0.2679 l -2.1134,6.5187 z m 1.2054,-1.6124 v -0.9724 h 3.7306 v 0.9724 z m 5.6228,1.6124 v -7.1438 h 1.0517 l 3.5173,5.3082 v -5.3082 h 1.0517 v 7.1438 h -1.0517 l -3.5173,-5.3133 v 5.3133 z m 8.0988,0 2.3217,-7.1438 h 1.4932 l 2.3217,7.1438 h -1.0765 l -2.1382,-6.518701 h 0.2679 l -2.1134,6.5187 z m 1.2054,-1.6124 v -0.9724 h 3.7306 v 0.9724 z m 10.3922,1.7612 c -0.7144,0 -1.3229,-0.1555 -1.8256,-0.4663 -0.5027,-0.3142 -0.888,-0.7508 -1.1559,-1.3097 -0.2645,-0.559 -0.3968,-1.2072 -0.3968,-1.9447 0,-0.7375 0.1323,-1.3858 0.3968,-1.9447 0.2679,-0.5589 0.6532,-0.9939 1.1559,-1.3048 0.5027,-0.3142 1.1112,-0.4712 1.8256,-0.4712 0.8235,0 1.5048,0.2083 2.0439,0.6251 0.5424,0.4167 0.9194,0.9772 1.1311,1.6818 l -1.0517,0.2827 c -0.1389,-0.4994 -0.387,-0.8914 -0.7442,-1.1758 -0.3538,-0.2845 -0.8136,-0.4267 -1.3791,-0.4267 -0.506,0 -0.9276,0.1142 -1.265,0.3424 -0.3373,0.2282 -0.592,0.5473 -0.764,0.9574 -0.1686,0.4101 -0.253,0.8881 -0.253,1.4338 -0.0033,0.5457 0.0793,1.0235 0.248,1.4336 0.172,0.4101 0.4266,0.7293 0.764,0.9576 0.3406,0.2282 0.764,0.3422 1.27,0.3422 0.5655,0 1.0253,-0.1422 1.3791,-0.4266 0.3572,-0.2878 0.6053,-0.6796 0.7442,-1.1757 l 1.0517,0.2827 c -0.2117,0.7044 -0.5887,1.2651 -1.1311,1.6818 -0.5391,0.4167 -1.2204,0.6251 -2.0439,0.6251 z m 4.1669,-0.1488 v -7.1438 h 1.0368 v 6.1664 h 3.2345 v 0.9774 z m 4.4191,0 2.3217,-7.1438 h 1.4933 l 2.3217,7.1438 h -1.0766 l -2.1381,-6.5187 h 0.2679 l -2.1133,6.5187 z m 1.2056,-1.6124 v -0.9724 h 3.7306 v 0.9724 z m 8.0184,1.7612 c -0.5126,0 -0.9756,-0.0876 -1.389,-0.263 -0.4101,-0.1786 -0.7491,-0.4315 -1.017,-0.759 -0.2645,-0.3307 -0.4365,-0.7227 -0.5159,-1.1758 l 1.0815,-0.1636 c 0.1091,0.4365 0.3373,0.7772 0.6846,1.0219 0.3473,0.2415 0.7523,0.3621 1.2154,0.3621 0.2877,0 0.5523,-0.0446 0.7937,-0.1339 0.2414,-0.0926 0.435,-0.2233 0.5805,-0.3919 0.1488,-0.172 0.2232,-0.3771 0.2232,-0.6152 0,-0.129 -0.0232,-0.243 -0.0695,-0.3422 -0.043,-0.0993 -0.1041,-0.1853 -0.1835,-0.258 -0.076,-0.0761 -0.1704,-0.1406 -0.2828,-0.1936 -0.1091,-0.0562 -0.2298,-0.1041 -0.3621,-0.1438 l -1.8306,-0.5408 c -0.1786,-0.0529 -0.3605,-0.1206 -0.5457,-0.2033 -0.1853,-0.086 -0.3555,-0.1968 -0.511,-0.3324 -0.1521,-0.1389 -0.2762,-0.3092 -0.3721,-0.511 -0.0959,-0.205 -0.1438,-0.4531 -0.1438,-0.7441 0,-0.4399 0.1125,-0.812 0.3374,-1.1163 0.2282,-0.3075 0.5357,-0.5391 0.9227,-0.6945 0.3869,-0.1588 0.8202,-0.2381 1.2997,-0.2381 0.4829,0.0066 0.9145,0.0926 1.2948,0.2579 0.3836,0.1654 0.7011,0.4035 0.9525,0.7144 0.2543,0.3076 0.4303,0.6813 0.5263,1.1212 l -1.1117,0.1885 c -0.0496,-0.2679 -0.1554,-0.4977 -0.3175,-0.6895 -0.1621,-0.1951 -0.3605,-0.344 -0.5953,-0.4465 -0.2348,-0.1058 -0.4895,-0.1605 -0.764,-0.1638 -0.2646,-0.0066 -0.5076,0.0331 -0.7292,0.1191 -0.2183,0.086 -0.3936,0.2068 -0.5258,0.3622 -0.129,0.1555 -0.1936,0.3341 -0.1936,0.5358 0,0.1984 0.058,0.3588 0.1737,0.4811 0.1158,0.1224 0.258,0.22 0.4266,0.2928 0.172,0.0695 0.3423,0.1273 0.511,0.1736 l 1.3196,0.3721 c 0.1653,0.0463 0.3523,0.1091 0.5606,0.1885 0.2117,0.0761 0.415,0.1835 0.6101,0.3224 0.1985,0.1389 0.3625,0.3241 0.4915,0.5556 0.129,0.2282 0.193,0.516 0.193,0.8632 0,0.3605 -0.073,0.678 -0.218,0.9525 -0.146,0.2712 -0.3457,0.4994 -0.6003,0.6847 -0.2514,0.1819 -0.5424,0.3192 -0.8732,0.4118 -0.3307,0.0926 -0.6797,0.1389 -1.0468,0.1389 z m 6.3323,0 c -0.513,0 -0.976,-0.0876 -1.389,-0.263 -0.41,-0.1786 -0.749,-0.4315 -1.017,-0.759 -0.265,-0.3307 -0.437,-0.7227 -0.516,-1.1758 l 1.081,-0.1636 c 0.11,0.4365 0.338,0.7772 0.685,1.0219 0.347,0.2415 0.752,0.3621 1.216,0.3621 0.287,0 0.552,-0.0446 0.793,-0.1339 0.242,-0.0926 0.435,-0.2233 0.581,-0.3919 0.148,-0.172 0.223,-0.3771 0.223,-0.6152 0,-0.129 -0.023,-0.243 -0.07,-0.3422 -0.042,-0.0993 -0.104,-0.1853 -0.183,-0.258 -0.076,-0.0761 -0.17,-0.1406 -0.283,-0.1936 -0.109,-0.0562 -0.23,-0.1041 -0.362,-0.1438 l -1.831,-0.5408 c -0.178,-0.0529 -0.36,-0.1206 -0.545,-0.2033 -0.185,-0.086 -0.356,-0.1968 -0.511,-0.3324 -0.152,-0.1389 -0.276,-0.3092 -0.372,-0.511 -0.096,-0.205 -0.144,-0.4531 -0.144,-0.7441 0,-0.4399 0.112,-0.812 0.337,-1.1163 0.228,-0.3075 0.536,-0.5391 0.923,-0.6945 0.387,-0.1588 0.82,-0.2381 1.3,-0.2381 0.482,0.0066 0.914,0.0926 1.294,0.2579 0.384,0.1654 0.702,0.4035 0.953,0.7144 0.255,0.3076 0.43,0.6813 0.526,1.1212 l -1.111,0.1885 c -0.05,-0.2679 -0.156,-0.4977 -0.318,-0.6895 -0.162,-0.1951 -0.36,-0.344 -0.595,-0.4465 -0.235,-0.1058 -0.49,-0.1605 -0.764,-0.1638 -0.265,-0.0066 -0.508,0.0331 -0.73,0.1191 -0.218,0.086 -0.393,0.2068 -0.525,0.3622 -0.129,0.1555 -0.194,0.3341 -0.194,0.5358 0,0.1984 0.058,0.3588 0.174,0.4811 0.116,0.1224 0.258,0.22 0.426,0.2928 0.172,0.0695 0.343,0.1273 0.511,0.1736 l 1.32,0.3721 c 0.165,0.0463 0.352,0.1091 0.561,0.1885 0.211,0.0761 0.415,0.1835 0.61,0.3224 0.198,0.1389 0.362,0.3241 0.491,0.5556 0.129,0.2282 0.193,0.516 0.193,0.8632 0,0.3605 -0.072,0.678 -0.218,0.9525 -0.145,0.2712 -0.346,0.4994 -0.6,0.6847 -0.252,0.1819 -0.543,0.3192 -0.873,0.4118 -0.331,0.0926 -0.68,0.1389 -1.047,0.1389 z m 3.696,-0.1488 v -7.1438 h 1.037 v 7.1438 z m 5.31,0.1488 c -0.714,0 -1.323,-0.1555 -1.826,-0.4663 -0.502,-0.3142 -0.888,-0.7508 -1.155,-1.3097 -0.265,-0.559 -0.397,-1.2072 -0.397,-1.9447 0,-0.7375 0.132,-1.3858 0.397,-1.9447 0.267,-0.5589 0.653,-0.9939 1.155,-1.3048 0.503,-0.3142 1.112,-0.4712 1.826,-0.4712 0.824,0 1.505,0.2083 2.044,0.6251 0.542,0.4167 0.919,0.9772 1.131,1.6818 l -1.052,0.2827 c -0.139,-0.4994 -0.387,-0.8914 -0.744,-1.1758 -0.354,-0.2845 -0.813,-0.4267 -1.379,-0.4267 -0.506,0 -0.928,0.1142 -1.265,0.3424 -0.337,0.2282 -0.592,0.5473 -0.764,0.9574 -0.169,0.4101 -0.253,0.8881 -0.253,1.4338 -0.003,0.5457 0.079,1.0235 0.248,1.4336 0.172,0.4101 0.427,0.7293 0.764,0.9576 0.341,0.2282 0.764,0.3422 1.27,0.3422 0.566,0 1.025,-0.1422 1.379,-0.4266 0.357,-0.2878 0.605,-0.6796 0.744,-1.1757 l 1.052,0.2827 c -0.212,0.7044 -0.589,1.2651 -1.131,1.6818 -0.539,0.4167 -1.22,0.6251 -2.044,0.6251 z m -68.5926,13.2292 c -0.5126,0 -0.9756,-0.0876 -1.389,-0.2631 -0.4101,-0.1785 -0.7491,-0.4315 -1.0169,-0.7589 -0.2646,-0.3307 -0.4366,-0.7227 -0.516,-1.1758 l 1.0815,-0.1637 c 0.1091,0.4366 0.3373,0.7773 0.6846,1.022 0.3473,0.2414 0.7524,0.3621 1.2154,0.3621 0.2877,0 0.5523,-0.0446 0.7937,-0.1339 0.2415,-0.0926 0.435,-0.2233 0.5805,-0.392 0.1488,-0.172 0.2232,-0.377 0.2232,-0.6151 0,-0.129 -0.0232,-0.2431 -0.0695,-0.3423 -0.043,-0.0992 -0.1041,-0.1852 -0.1834,-0.2579 -0.0761,-0.0761 -0.1704,-0.1407 -0.2829,-0.1936 -0.1091,-0.0562 -0.2298,-0.1041 -0.3621,-0.1438 l -1.8306,-0.5408 c -0.1786,-0.0529 -0.3605,-0.1206 -0.5457,-0.2033 -0.1852,-0.086 -0.3555,-0.1969 -0.5109,-0.3325 -0.1522,-0.1389 -0.2763,-0.3091 -0.3722,-0.5109 -0.0959,-0.205 -0.1438,-0.4531 -0.1438,-0.7441 0,-0.4399 0.1125,-0.812 0.3374,-1.1163 0.2282,-0.3076 0.5358,-0.5391 0.9227,-0.6945 0.387,-0.1588 0.8202,-0.2382 1.2998,-0.2382 0.4828,0.0067 0.9144,0.0926 1.2947,0.258 0.3837,0.1654 0.7012,0.4035 0.9525,0.7144 0.2547,0.307599 0.43,0.681299 0.5259,1.1212 l -1.1113,0.1885 c -0.0496,-0.2679 -0.1554,-0.4977 -0.3175,-0.6895 -0.162,-0.1952 -0.3605,-0.344 -0.5953,-0.4465 -0.2348,-0.1059 -0.4895,-0.1605 -0.764,-0.1638 -0.2646,-0.0066 -0.5076,0.0331 -0.7292,0.1191 -0.2182,0.086 -0.3935,0.2067 -0.5258,0.3622 -0.129,0.1554 -0.1936,0.334 -0.1936,0.5358 0,0.1984 0.058,0.3587 0.1737,0.4811 0.1158,0.1224 0.258,0.22 0.4267,0.2928 0.172,0.0694 0.3422,0.1272 0.5109,0.1735 l 1.3196,0.3722 c 0.1654,0.0463 0.3523,0.1091 0.5606,0.1885 0.2117,0.0761 0.415,0.1835 0.6102,0.3224 0.1984,0.1389 0.3622,0.3241 0.4912,0.5556 0.129,0.2282 0.1934,0.5159 0.1934,0.8632 0,0.3605 -0.0728,0.678 -0.2183,0.9525 -0.1455,0.2712 -0.3455,0.4994 -0.6002,0.6846 -0.2514,0.1819 -0.5424,0.3192 -0.8731,0.4118 -0.3308,0.0926 -0.6797,0.139 -1.0469,0.139 z m 5.3782,-0.1489 v -6.1665 h -2.3762 v -0.9772 h 5.7894 v 0.9772 h -2.3763 v 6.1665 z m 6.9902,0.1489 c -0.7144,0 -1.3229,-0.1555 -1.8256,-0.4664 -0.5027,-0.3142 -0.8881,-0.7507 -1.156,-1.3097 -0.2646,-0.5589 -0.3969,-1.2071 -0.3969,-1.9446 0,-0.7376 0.1323,-1.3858 0.3969,-1.9447 0.2679,-0.559 0.6533,-0.9939 1.156,-1.3048 0.5027,-0.3142 1.1112,-0.4713 1.8256,-0.4713 0.7111,0 1.3179,0.1571 1.8206,0.4713 0.506,0.3109 0.8914,0.7458 1.156,1.3048 0.2645,0.5589 0.3968,1.2071 0.3968,1.9447 0,0.7375 -0.1323,1.3857 -0.3968,1.9446 -0.2646,0.559 -0.65,0.9955 -1.156,1.3097 -0.5027,0.3109 -1.1095,0.4664 -1.8206,0.4664 z m 0,-0.9873 c 0.506,0.0066 0.926,-0.104201 1.2601,-0.332401 0.3373,-0.231499 0.5903,-0.5523 0.7589,-0.9624 0.1687,-0.4134 0.2531,-0.8929 0.2531,-1.438599 0,-0.5458 -0.0844,-1.022001 -0.2531,-1.4288 -0.1686,-0.4101 -0.4216,-0.7293 -0.7589,-0.9575 -0.3341,-0.2282 -0.7541,-0.344 -1.2601,-0.3473 -0.506,-0.0066 -0.9278,0.1043 -1.2651,0.3325 -0.3341,0.2282 -0.5854,0.549 -0.7541,0.9624 -0.1687,0.4134 -0.2546,0.8929 -0.2579,1.4387 -0.0034,0.545699 0.0793,1.023499 0.248,1.433599 0.1687,0.406801 0.4217,0.7243 0.7591,0.952501 0.3406,0.2282 0.764,0.343999 1.27,0.3473 z m 4.1645,0.8384 v -7.1437 h 2.8873 c 0.0694,0 0.1554,0.0033 0.258,0.0099 0.1025,0.0033 0.2001,0.0132 0.2927,0.0298 0.3969,0.0628 0.7276,0.1984 0.9922,0.4068 0.2679,0.2083 0.4679,0.4712 0.6002,0.7887 0.1323,0.3175 0.1985,0.668 0.1985,1.0517 0,0.5688 -0.1456,1.06 -0.4366,1.4735 -0.291,0.4101 -0.7276,0.6663 -1.3097,0.7688 l -0.4216,0.0497 h -2.0241 v 2.5648 z m 4.1771,0 -1.4089,-2.9071 1.0469,-0.2679 1.5478,3.175 z m -3.1402,-3.5471 h 1.8107 c 0.0662,0 0.1389,-0.0033 0.2183,-0.0099 0.0827,-0.0066 0.1605,-0.0182 0.2332,-0.0347 0.2117,-0.0496 0.3819,-0.1406 0.5109,-0.2729 0.129,-0.1356 0.2216,-0.2911 0.2778,-0.466301 0.0563,-0.175299 0.0844,-0.3506 0.0844,-0.5259 0,-0.1753 -0.0281,-0.3489 -0.0844,-0.5208 -0.0562,-0.1753 -0.1488,-0.3292 -0.2778,-0.4615 -0.129,-0.1356 -0.2992,-0.2282 -0.5109,-0.2778 -0.0727,-0.0198 -0.1505,-0.0331 -0.2332,-0.0397 -0.0794,-0.0066 -0.1521,-0.0099 -0.2183,-0.0099 h -1.8107 z m 4.7217,3.5471 2.3217,-7.1437 h 1.4933 l 2.3217,7.1437 h -1.0766 l -2.1381,-6.5186 h 0.2679 l -2.1134,6.5186 z m 1.2055,-1.6124 v -0.9723 h 3.7307 v 0.9723 z m 8.3509,1.7613 c -0.4795,0 -0.921,-0.0827 -1.3245,-0.2481 -0.4035,-0.1687 -0.754,-0.4134 -1.0517,-0.7342 -0.2976,-0.3208 -0.5291,-0.7111 -0.6945,-1.1708 -0.1654,-0.4597 -0.2481,-0.9823 -0.2481,-1.5676 0,-0.7706 0.1405,-1.4321 0.4217,-1.9844 0.2811,-0.5556 0.6713,-0.9823 1.1707,-1.2799 0.4994,-0.301 1.0749,-0.4516 1.7264,-0.4516 0.8401,0 1.5099,0.1952 2.0093,0.5854 0.5027,0.3903 0.8449,0.9294 1.0268,1.6173 l -1.0517,0.1885 c -0.1455,-0.4266 -0.3803,-0.7673 -0.7044,-1.0219 -0.3242,-0.2547 -0.7309,-0.3837 -1.2204,-0.387 -0.506,-0.0033 -0.9277,0.1091 -1.265,0.3374 -0.334,0.2282 -0.5854,0.549 -0.7541,0.9624 -0.1686,0.4101 -0.2546,0.888 -0.2579,1.4338 -0.0033,0.5457 0.0793,1.0235 0.248,1.4336 0.1687,0.4068 0.4216,0.7243 0.759,0.9525 0.3406,0.2282 0.764,0.344 1.27,0.3473 0.4068,0.0066 0.7558,-0.0678 1.0468,-0.2232 0.2943,-0.1588 0.5274,-0.3903 0.6994,-0.6945 0.172,-0.3043 0.2829,-0.678 0.3325,-1.1212 h -1.3891 v -0.8335 h 2.4904 c 0.0066,0.0596 0.0115,0.1389 0.0148,0.2382 0.0033,0.0959 0.005,0.157 0.005,0.1835 0,0.6614 -0.1274,1.2518 -0.382,1.7711 -0.2547,0.5192 -0.6251,0.9276 -1.1113,1.2253 -0.4861,0.2943 -1.0748,0.4416 -1.7661,0.4416 z m 4.0498,-0.1489 v -7.1437 h 4.564 v 0.9772 h -3.5273 v 2.0042 h 2.932 v 0.9774 h -2.932 v 2.2076 h 3.5273 v 0.9773 z m 7.3448,0 v -7.1437 h 2.8873 c 0.0694,0 0.1554,0.0033 0.2579,0.0099 0.1026,0.0033 0.2002,0.0132 0.2928,0.0298 0.3969,0.0628 0.7276,0.1984 0.9922,0.4068 0.2679,0.2083 0.4679,0.4712 0.6002,0.7887 0.1323,0.3175 0.1984,0.668 0.1984,1.0517 0,0.5688 -0.1455,1.06 -0.4365,1.4735 -0.2911,0.4101 -0.7277,0.6663 -1.3097,0.7688 l -0.4216,0.0497 h -2.0241 v 2.5648 z m 4.1771,0 -1.4089,-2.9071 1.0468,-0.2679 1.5478,3.175 z m -3.1402,-3.5471 h 1.8107 c 0.0661,0 0.1389,-0.0033 0.2182,-0.0099 0.0827,-0.0066 0.1605,-0.0182 0.2333,-0.0347 0.2116,-0.0496 0.3819,-0.1406 0.5109,-0.2729 0.129,-0.1356 0.2216,-0.2911 0.2778,-0.4663 0.0562,-0.1753 0.0844,-0.3506 0.0844,-0.5259 0,-0.1753 -0.0282,-0.3489 -0.0844,-0.5208 -0.0562,-0.1753 -0.1488,-0.3292 -0.2778,-0.4615 -0.129,-0.1356 -0.2993,-0.2282 -0.5109,-0.2778 -0.0728,-0.0198 -0.1506,-0.0331 -0.2333,-0.0397 -0.0793,-0.0066 -0.1521,-0.0099 -0.2182,-0.0099 h -1.8107 z m 8.1993,3.696 c -0.7144,0 -1.3229,-0.1555 -1.8256,-0.4664 -0.5027,-0.3142 -0.888,-0.7507 -1.1559,-1.3097 -0.2645,-0.5589 -0.3968,-1.2071 -0.3968,-1.9446 0,-0.7376 0.1323,-1.3858 0.3968,-1.9447 0.2679,-0.559 0.6532,-0.9939 1.1559,-1.3048 0.5027,-0.3142 1.1112,-0.4713 1.8256,-0.4713 0.7111,0 1.318,0.1571 1.8207,0.4713 0.506,0.3109 0.8913,0.7458 1.1559,1.3048 0.2643,0.5589 0.3973,1.2071 0.3973,1.9447 0,0.7375 -0.133,1.3857 -0.3973,1.9446 -0.2646,0.559 -0.6499,0.9955 -1.1559,1.3097 -0.5027,0.3109 -1.1096,0.4664 -1.8207,0.4664 z m 0,-0.9873 c 0.506,0.0066 0.926,-0.1042 1.2601,-0.3324 0.3373,-0.2315 0.5904,-0.5523 0.7591,-0.9624 0.1686,-0.4134 0.2529,-0.8929 0.2529,-1.4386 0,-0.5458 -0.0843,-1.022 -0.2529,-1.4288 -0.1687,-0.4101 -0.4218,-0.7293 -0.7591,-0.9575 -0.3341,-0.2282 -0.7541,-0.344 -1.2601,-0.3473 -0.506,-0.0066 -0.9276,0.1043 -1.265,0.3325 -0.334,0.2282 -0.5854,0.549 -0.754,0.9624 -0.1687,0.4134 -0.2547,0.8929 -0.258,1.4387 -0.0033,0.5457 0.0794,1.0235 0.248,1.4336 0.1687,0.4068 0.4217,0.7243 0.759,0.9525 0.3406,0.2282 0.764,0.344 1.27,0.3473 z m 7.1459,0.9873 c -0.714,0 -1.323,-0.1555 -1.825,-0.4664 -0.503,-0.3142 -0.888,-0.7507 -1.156,-1.3097 -0.265,-0.5589 -0.397,-1.2071 -0.397,-1.9446 0,-0.7376 0.132,-1.3858 0.397,-1.9447 0.268,-0.559 0.653,-0.9939 1.156,-1.3048 0.502,-0.3142 1.111,-0.4713 1.825,-0.4713 0.711,0 1.318,0.1571 1.821,0.4713 0.506,0.3109 0.891,0.7458 1.156,1.3048 0.264,0.5589 0.397,1.2071 0.397,1.9447 0,0.7375 -0.133,1.3857 -0.397,1.9446 -0.265,0.559 -0.65,0.9955 -1.156,1.3097 -0.503,0.3109 -1.11,0.4664 -1.821,0.4664 z m 0,-0.9873 c 0.506,0.0066 0.926,-0.104201 1.26,-0.332401 0.338,-0.231499 0.591,-0.5523 0.759,-0.9624 0.169,-0.4134 0.253,-0.8929 0.253,-1.438599 0,-0.5458 -0.084,-1.022001 -0.253,-1.4288 -0.168,-0.4101 -0.421,-0.7293 -0.759,-0.9575 -0.334,-0.2282 -0.754,-0.344 -1.26,-0.3473 -0.506,-0.0066 -0.928,0.1043 -1.265,0.3325 -0.334,0.2282 -0.585,0.549 -0.754,0.9624 -0.169,0.4134 -0.255,0.8929 -0.258,1.4387 -0.003,0.545699 0.079,1.023499 0.248,1.433599 0.169,0.406801 0.422,0.7243 0.759,0.952501 0.341,0.2282 0.764,0.343999 1.27,0.3473 z m 4.165,0.8384 v -7.1437 h 0.937 l 2.59,5.3726 2.575,-5.3726 h 0.947 v 7.1387 h -0.982 v -4.8865 l -2.307,4.8915 h -0.471 l -2.312,-4.8915 v 4.8915 z" />
</svg>
