<svg width="498" height="269" viewBox="0 0 498 269" fill="none" xmlns="http://www.w3.org/2000/svg">
<path d="M447.767 0.35321H49.3908C36.2579 0.35321 23.6629 5.57025 14.3765 14.8566C5.09009 24.143 -0.126953 36.7381 -0.126953 49.871V448.259C-0.126953 461.392 5.09009 473.987 14.3765 483.273C23.6629 492.56 36.2579 497.777 49.3908 497.777H447.767C460.9 497.777 473.495 492.56 482.782 483.273C492.068 473.987 497.285 461.392 497.285 448.259V49.8537C497.285 36.7208 492.068 24.1257 482.782 14.8394C473.495 5.55297 460.9 0.335938 447.767 0.335938M439.66 440.152H57.4922V57.9551H439.66V440.152Z" fill="#E7EDFA" fill-opacity="0.2"/>
</svg>
