<svg width="423" height="313" viewBox="0 0 423 313" fill="none" xmlns="http://www.w3.org/2000/svg">
<g clip-path="url(#clip0_208_3012)">
<path d="M372.834 44.4704H-25.5428C-38.6757 44.4704 -51.2707 49.6874 -60.5571 58.9738C-69.8435 68.2602 -75.0605 80.8552 -75.0605 93.9882V492.376C-75.0605 505.509 -69.8435 518.104 -60.5571 527.39C-51.2707 536.677 -38.6757 541.894 -25.5428 541.894H372.834C385.967 541.894 398.562 536.677 407.848 527.39C417.134 518.104 422.351 505.509 422.351 492.376V93.9709C422.351 80.838 417.134 68.2429 407.848 58.9565C398.562 49.6702 385.967 44.4531 372.834 44.4531M364.727 484.269H-17.4414V102.072H364.727V484.269Z" fill="#E7EDFA" fill-opacity="0.2"/>
</g>
<defs>
<clipPath id="clip0_208_3012">
<rect width="497" height="312" fill="white" transform="translate(-74.3965 0.355469)"/>
</clipPath>
</defs>
</svg>
