<svg width="16" height="16" viewBox="0 0 16 16" fill="none" xmlns="http://www.w3.org/2000/svg">
<path d="M14.4072 0.00055561H1.59281C1.17037 0.00055561 0.765235 0.168369 0.466524 0.46708C0.167814 0.76579 0 1.17093 0 1.59337V14.4081C0 14.8305 0.167814 15.2357 0.466524 15.5344C0.765235 15.8331 1.17037 16.0009 1.59281 16.0009H14.4072C14.8296 16.0009 15.2348 15.8331 15.5335 15.5344C15.8322 15.2357 16 14.8305 16 14.4081V1.59281C16 1.17037 15.8322 0.765235 15.5335 0.466524C15.2348 0.167814 14.8296 0 14.4072 0M14.1464 14.1473H1.85341V1.85341H14.1464V14.1473Z" fill="#4760FF"/>
</svg>
