<svg width="157" height="165" viewBox="0 0 157 165" fill="none" xmlns="http://www.w3.org/2000/svg">
<path d="M126.128 0.476406H-118.02C-126.068 0.476406 -133.787 3.67371 -139.479 9.36494C-145.17 15.0562 -148.367 22.7751 -148.367 30.8237V274.979C-148.367 283.027 -145.17 290.746 -139.479 296.438C-133.787 302.129 -126.068 305.326 -118.02 305.326H126.128C134.177 305.326 141.896 302.129 147.587 296.438C153.278 290.746 156.475 283.027 156.475 274.979V30.8132C156.475 22.7645 153.278 15.0456 147.587 9.35435C141.896 3.66312 134.177 0.46582 126.128 0.46582M121.16 270.01H-113.055V35.7781H121.16V270.01Z" fill="#E7EDFA" fill-opacity="0.2"/>
</svg>
