<svg width="399" height="499" viewBox="0 0 399 499" fill="none" xmlns="http://www.w3.org/2000/svg">
<path d="M348.67 0.597351H-49.7068C-62.8397 0.597351 -75.4348 5.81439 -84.7212 15.1008C-94.0076 24.3872 -99.2246 36.9822 -99.2246 50.1151V448.503C-99.2246 461.636 -94.0076 474.231 -84.7212 483.517C-75.4348 492.804 -62.8397 498.021 -49.7068 498.021H348.67C361.803 498.021 374.398 492.804 383.684 483.517C392.97 474.231 398.187 461.636 398.187 448.503V50.0979C398.187 36.9649 392.97 24.3699 383.684 15.0835C374.398 5.79711 361.803 0.580078 348.67 0.580078M340.562 440.396H-41.6055V58.1992H340.562V440.396Z" fill="#E7EDFA"/>
</svg>
