<svg width="281" height="498" viewBox="0 0 281 498" fill="none" xmlns="http://www.w3.org/2000/svg">
<path d="M231.058 0.0973511H-167.318C-180.451 0.0973511 -193.046 5.31439 -202.333 14.6008C-211.619 23.8872 -216.836 36.4822 -216.836 49.6151V448.003C-216.836 461.136 -211.619 473.731 -202.333 483.017C-193.046 492.304 -180.451 497.521 -167.318 497.521H231.058C244.191 497.521 256.786 492.304 266.073 483.017C275.359 473.731 280.576 461.136 280.576 448.003V49.5979C280.576 36.4649 275.359 23.8699 266.073 14.5835C256.786 5.29711 244.191 0.0800781 231.058 0.0800781M222.951 439.896H-159.217V57.6992H222.951V439.896Z" fill="#E7EDFA"/>
</svg>
