<svg width="334" height="498" viewBox="0 0 334 498" fill="none" xmlns="http://www.w3.org/2000/svg">
<path d="M284.293 0.177429H-114.084C-127.217 0.177429 -139.812 5.39447 -149.098 14.6809C-158.385 23.9672 -163.602 36.5623 -163.602 49.6952V448.083C-163.602 461.216 -158.385 473.811 -149.098 483.097C-139.812 492.384 -127.217 497.601 -114.084 497.601H284.293C297.426 497.601 310.021 492.384 319.307 483.097C328.593 473.811 333.81 461.216 333.81 448.083V49.6779C333.81 36.545 328.593 23.95 319.307 14.6636C310.021 5.37719 297.426 0.160156 284.293 0.160156M276.186 439.976H-105.982V57.7793H276.186V439.976Z" fill="#E7EDFA"/>
</svg>
