<svg xmlns="http://www.w3.org/2000/svg" viewBox="0 0 238 200"><defs><style>.cls-1{fill:#fff;}.cls-1,.cls-2,.cls-3{fill-rule:evenodd;}.cls-2{fill:#e7edfa;}.cls-3{fill:#4760ff;}</style></defs><title>Recurso 2</title><g id="Capa_2" data-name="Capa 2"><g id="Capa_1-2" data-name="Capa 1"><polygon class="cls-1" points="133 5 137 7 137 39 81 67 77 65 13 97 13 117 1 123 97 171 229 105 229 53 237 49 141 1 133 5 133 5"/><path class="cls-2" d="M117,49l-8,8,36,18V63L117,49Zm40,20-8,8,36,18V83L157,69Zm72-16L133,5V41l4-2,84,42v20l8,4V53Zm-88,68,4,6v20l24-12V115l-4-6L77,65,53,77l88,44ZM93,165h8V145H93L13,105v20l80,40Zm4,6L1,123v28l4,2,4-10,80,40,4,14,4,2V171Z"/><path class="cls-3" d="M135.24,5,229,51.88,234.76,49,141,2.12,135.24,5Zm38,54.78,1.56-.78-4.7-2.35,3.14,3.13ZM119.24,49,145,61.88,162.76,53,137,40.12,119.24,49Zm-8.55,7.73L144,73.38V63.62l-26.8-13.4-6.51,6.51ZM159.24,69,177,60.12,202.76,73,185,81.88,159.24,69Zm-2,1.22L184,83.62v9.76L150.69,76.73l6.51-6.51ZM134,39.38l2.55-1.27a.93.93,0,0,1,.9,0l28,14,40,20,16,8A1,1,0,0,1,222,81v19.38l6,3V53.62l-94-47V39.38ZM83.24,67l82.2,41.1a1,1,0,0,1,.36.3l0,0,1.52,2.28L220,84.38V81.62l-9.94-5,3.65,3.64a1,1,0,0,1,.28.87,1,1,0,0,1-.54.73l-28,14a1,1,0,0,1-.9,0l-36-18a1,1,0,0,1-.54-.73,1,1,0,0,1,.28-.87l3.65-3.64-6.49,3.24a1,1,0,0,1-.9,0l-36-18a1,1,0,0,1-.54-.73,1,1,0,0,1,.28-.87l3.65-3.64L83.24,67Zm-28,10L141,119.88,162.76,109,77,66.12,55.24,77Zm109.42,33.29,2.88,4.32-22.2,11.1-2.88-4.32,22.2-11.1ZM222,105v-2.38l4.76,2.38L170,133.38v-1.76l51.45-25.73,0,0A1,1,0,0,0,222,105M15.24,97,101,139.88,138.76,121,53,78.12,15.24,97ZM14,101.62l3-1.5,83.32,41.66,1.22,1.83-.78.39H93.24L14,104.38v-2.76Zm150.47,16.76L146,127.62v17.76l22-11V116.62l-3.53,1.76Zm-23.81,3.91,2.88,4.32-38.2,19.1-2.88-4.32,38.2-19.1Zm-86.85,4.23L14,106.62v17.76l78,39V145.62l-38.19-19.1ZM94,164h6V146H94v18Zm50-35.38-38,19v17.76l38-19V128.62ZM9.45,119.89h0L3.24,123,97,169.88l7-3.5v-1.76l-2.53,1.27a1.18,1.18,0,0,1-.43.11H93a1.13,1.13,0,0,1-.42-.11l-80-40a1,1,0,0,1-.55-.8h0v-6.46l-2.55,1.27ZM96,171.62v25.76l-2.16-1.08L90,182.72a1,1,0,0,0-.51-.61l-80-40a1,1,0,0,0-1.38.52l-3.59,9L2,150.38V124.62l94,47ZM132.56,4.1A1,1,0,0,0,132,5V40.38L81,65.88l-3.55-1.77a1,1,0,0,0-.9,0l-64,32a1,1,0,0,0-.36.3v0l0,0h0l-4,6A1,1,0,0,0,8,103v15.38L.55,122.1A1,1,0,0,0,0,123v28a1,1,0,0,0,.55.89l4,2a1,1,0,0,0,.81,0,1,1,0,0,0,.57-.56l3.6-9L88.16,183.7,92,197.27a1,1,0,0,0,.51.62l4,2a1,1,0,0,0,.9,0l4-2a1,1,0,0,0,.51-.62l3.88-13.57,122.64-61.32,3.59,9a1,1,0,0,0,1.38.52l4-2A1,1,0,0,0,238,129V49a1,1,0,0,0-.55-.86l-96-48a1,1,0,0,0-.9,0l-8,4Z"/></g></g></svg>
