<svg width="201" height="201" viewBox="0 0 201 201" fill="none" xmlns="http://www.w3.org/2000/svg">
<path d="M135.965 173.303L135.965 175.246L129.782 178.815L129.782 176.872L135.965 173.303ZM130.374 164.255L130.374 178.474L128.252 179.699L128.252 165.48L130.374 164.255ZM142.561 169.318L142.561 164.279C142.561 163.902 142.502 163.61 142.384 163.405C142.265 163.2 142.085 163.093 141.843 163.083C141.606 163.07 141.307 163.168 140.946 163.376C140.613 163.568 140.326 163.799 140.083 164.069C139.841 164.34 139.652 164.624 139.517 164.924C139.381 165.223 139.314 165.513 139.314 165.793L137.284 166.965C137.284 166.548 137.371 166.094 137.546 165.603C137.721 165.111 137.975 164.616 138.307 164.118C138.64 163.62 139.038 163.15 139.5 162.707C139.962 162.264 140.481 161.877 141.056 161.545C141.744 161.148 142.353 160.93 142.883 160.891C143.418 160.848 143.838 161.009 144.143 161.374C144.453 161.729 144.608 162.31 144.608 163.117L144.608 167.814C144.608 168.296 144.636 168.713 144.693 169.064C144.755 169.406 144.842 169.685 144.955 169.899L144.955 170.056L142.866 171.262C142.77 171.063 142.694 170.785 142.638 170.427C142.587 170.059 142.561 169.689 142.561 169.318ZM142.857 164.841L142.874 166.286L141.411 167.131C141.033 167.349 140.701 167.583 140.413 167.834C140.126 168.078 139.886 168.334 139.694 168.601C139.503 168.868 139.359 169.139 139.263 169.416C139.167 169.693 139.119 169.971 139.119 170.251C139.119 170.531 139.176 170.756 139.288 170.925C139.401 171.088 139.565 171.172 139.779 171.179C139.999 171.182 140.264 171.094 140.574 170.915C140.991 170.674 141.355 170.367 141.665 169.992C141.981 169.608 142.229 169.221 142.409 168.83C142.59 168.433 142.685 168.101 142.697 167.834L143.356 168.498C143.289 168.804 143.173 169.157 143.01 169.558C142.846 169.958 142.632 170.375 142.367 170.808C142.108 171.231 141.795 171.636 141.428 172.023C141.067 172.408 140.65 172.736 140.176 173.01C139.579 173.355 139.046 173.526 138.578 173.522C138.11 173.513 137.744 173.35 137.479 173.034C137.214 172.712 137.081 172.251 137.081 171.652C137.081 171.092 137.171 170.546 137.352 170.012C137.538 169.468 137.808 168.947 138.164 168.449C138.524 167.948 138.964 167.473 139.483 167.023C140.002 166.568 140.594 166.148 141.259 165.764L142.857 164.841ZM148.786 159.289L148.786 167.844L146.748 169.021L146.748 158.454L148.693 157.331L148.786 159.289ZM151.585 155.593L151.568 157.79C151.444 157.836 151.309 157.894 151.162 157.966C151.021 158.034 150.881 158.109 150.74 158.19C150.39 158.392 150.083 158.628 149.818 158.898C149.553 159.162 149.33 159.453 149.15 159.772C148.975 160.082 148.84 160.414 148.744 160.769C148.648 161.123 148.591 161.491 148.575 161.872L148.109 162.18C148.109 161.516 148.166 160.868 148.279 160.236C148.391 159.605 148.56 159.009 148.786 158.449C149.017 157.886 149.305 157.385 149.649 156.945C149.998 156.503 150.401 156.149 150.858 155.886C150.982 155.814 151.115 155.751 151.255 155.695C151.402 155.637 151.512 155.603 151.585 155.593ZM158.554 151.638L160.406 150.568L160.406 160.842C160.406 161.792 160.231 162.701 159.882 163.566C159.532 164.432 159.045 165.218 158.419 165.925C157.793 166.638 157.068 167.232 156.245 167.707C155.896 167.909 155.507 168.075 155.078 168.205C154.655 168.332 154.244 168.381 153.843 168.352C153.449 168.326 153.119 168.181 152.854 167.917L153.81 165.979C154.137 166.239 154.497 166.359 154.892 166.34C155.287 166.32 155.701 166.185 156.135 165.935C156.603 165.664 157.001 165.334 157.328 164.943C157.66 164.556 157.917 164.118 158.097 163.63C158.278 163.142 158.368 162.621 158.368 162.067L158.368 154.138L158.554 151.638ZM152.338 160.627L152.338 160.422C152.338 159.621 152.423 158.843 152.592 158.088C152.761 157.326 153.003 156.617 153.319 155.959C153.635 155.295 154.018 154.706 154.469 154.191C154.92 153.671 155.431 153.246 156 152.917C156.592 152.575 157.097 152.408 157.514 152.414C157.937 152.417 158.289 152.569 158.571 152.868C158.853 153.161 159.073 153.581 159.231 154.128C159.394 154.665 159.515 155.298 159.594 156.027L159.594 156.682C159.521 157.479 159.397 158.241 159.222 158.967C159.047 159.693 158.816 160.367 158.529 160.988C158.241 161.61 157.886 162.167 157.463 162.658C157.046 163.146 156.553 163.555 155.983 163.884C155.425 164.206 154.92 164.364 154.469 164.357C154.024 164.348 153.64 164.195 153.319 163.898C153.003 163.599 152.761 163.173 152.592 162.619C152.423 162.059 152.338 161.395 152.338 160.627ZM154.376 159.245L154.376 159.45C154.376 159.932 154.416 160.358 154.495 160.729C154.579 161.097 154.706 161.392 154.875 161.613C155.05 161.825 155.27 161.945 155.535 161.975C155.805 161.994 156.124 161.898 156.491 161.687C156.97 161.41 157.362 161.066 157.666 160.656C157.976 160.243 158.213 159.79 158.377 159.299C158.546 158.798 158.664 158.28 158.732 157.746L158.732 155.979C158.698 155.614 158.627 155.297 158.52 155.026C158.419 154.753 158.281 154.543 158.106 154.396C157.931 154.243 157.711 154.175 157.446 154.191C157.181 154.201 156.868 154.31 156.507 154.519C156.141 154.73 155.822 155.005 155.552 155.344C155.281 155.682 155.058 156.062 154.884 156.481C154.715 156.898 154.588 157.342 154.503 157.814C154.418 158.286 154.376 158.763 154.376 159.245ZM162.132 154.973L162.132 154.748C162.132 153.986 162.227 153.225 162.419 152.463C162.611 151.695 162.887 150.965 163.248 150.275C163.614 149.576 164.06 148.941 164.584 148.371C165.114 147.792 165.712 147.31 166.377 146.926C167.048 146.538 167.646 146.33 168.17 146.301C168.7 146.262 169.148 146.381 169.515 146.657C169.881 146.927 170.16 147.336 170.352 147.883C170.544 148.423 170.64 149.074 170.64 149.836L170.64 150.061C170.64 150.822 170.544 151.584 170.352 152.346C170.16 153.107 169.881 153.838 169.515 154.538C169.148 155.231 168.703 155.866 168.178 156.442C167.654 157.012 167.059 157.489 166.394 157.873C165.723 158.26 165.123 158.474 164.593 158.513C164.068 158.542 163.623 158.422 163.256 158.151C162.89 157.875 162.611 157.466 162.419 156.926C162.227 156.385 162.132 155.734 162.132 154.973ZM164.17 153.571L164.17 153.796C164.17 154.271 164.212 154.696 164.297 155.07C164.381 155.445 164.514 155.739 164.694 155.954C164.875 156.169 165.106 156.286 165.388 156.306C165.67 156.325 166.005 156.223 166.394 155.998C166.772 155.78 167.099 155.5 167.375 155.158C167.657 154.813 167.888 154.429 168.069 154.006C168.249 153.583 168.381 153.135 168.466 152.663C168.556 152.188 168.601 151.713 168.601 151.237L168.601 151.013C168.601 150.544 168.556 150.127 168.466 149.763C168.381 149.388 168.246 149.092 168.06 148.874C167.88 148.653 167.649 148.532 167.367 148.513C167.09 148.483 166.76 148.579 166.377 148.801C165.994 149.022 165.661 149.309 165.379 149.66C165.103 150.002 164.875 150.388 164.694 150.817C164.514 151.247 164.381 151.698 164.297 152.17C164.212 152.635 164.17 153.103 164.17 153.571Z" fill="#4760FF" fill-opacity="0.35"/>
<path d="M21.8789 101.281L34.2031 105.529L34.2031 108.098L19.9844 102.746L19.9844 101.105L21.8789 101.281ZM34.2031 97.7266L21.8789 101.984L19.9844 102.17L19.9844 100.52L34.2031 95.1484L34.2031 97.7266ZM28.9297 97.9316L30.873 97.9316L30.873 105.666L28.9297 105.666L28.9297 97.9316ZM19.2031 91.2715L34.2031 91.2715L34.2031 93.6348L19.2031 93.6348L19.2031 91.2715ZM23.6367 83.8496L25.3555 83.8496L25.3555 89.8066L23.6367 89.8066L23.6367 83.8496ZM21.0488 88.0879L21.0488 85.7344L31.2832 85.7344C31.6087 85.7344 31.8594 85.6888 32.0352 85.5977C32.2044 85.5 32.3184 85.3665 32.377 85.1973C32.4355 85.028 32.4648 84.8294 32.4648 84.6016C32.4648 84.4388 32.4551 84.2826 32.4355 84.1328C32.416 83.9831 32.3965 83.8626 32.377 83.7715L34.1738 83.7617C34.2324 83.957 34.2845 84.1849 34.3301 84.4453C34.3757 84.6992 34.3984 84.9922 34.3984 85.3242C34.3984 85.8646 34.304 86.3431 34.1152 86.7598C33.9199 87.1764 33.6042 87.502 33.168 87.7363C32.7318 87.9707 32.1523 88.0879 31.4297 88.0879L21.0488 88.0879ZM29.0371 82.7168L28.8125 82.7168C28.0508 82.7168 27.3444 82.6061 26.6934 82.3848C26.0358 82.1634 25.4661 81.8444 24.9844 81.4277C24.4961 81.0046 24.1185 80.4902 23.8516 79.8848C23.5781 79.2728 23.4414 78.5827 23.4414 77.8145C23.4414 77.0397 23.5781 76.3496 23.8516 75.7441C24.1185 75.1322 24.4961 74.6146 24.9844 74.1914C25.4661 73.7682 26.0358 73.446 26.6934 73.2246C27.3444 73.0033 28.0508 72.8926 28.8125 72.8926L29.0371 72.8926C29.7988 72.8926 30.5052 73.0033 31.1562 73.2246C31.8073 73.446 32.377 73.7682 32.8652 74.1914C33.347 74.6146 33.7246 75.1289 33.998 75.7344C34.265 76.3398 34.3984 77.0267 34.3984 77.7949C34.3984 78.5697 34.265 79.263 33.998 79.875C33.7246 80.4805 33.347 80.9948 32.8652 81.418C32.377 81.8411 31.8073 82.1634 31.1562 82.3848C30.5052 82.6061 29.7988 82.7168 29.0371 82.7168ZM28.8125 80.3633L29.0371 80.3633C29.5124 80.3633 29.9616 80.3145 30.3848 80.2168C30.8079 80.1191 31.179 79.9661 31.498 79.7578C31.8171 79.5495 32.0677 79.2826 32.25 78.957C32.4323 78.6315 32.5234 78.2441 32.5234 77.7949C32.5234 77.3587 32.4323 76.9811 32.25 76.6621C32.0677 76.3366 31.8171 76.0697 31.498 75.8613C31.179 75.653 30.8079 75.5 30.3848 75.4023C29.9616 75.2982 29.5124 75.2461 29.0371 75.2461L28.8125 75.2461C28.3437 75.2461 27.901 75.2982 27.4844 75.4023C27.0612 75.5 26.6868 75.6562 26.3613 75.8711C26.0358 76.0794 25.7819 76.3464 25.5996 76.6719C25.4108 76.9909 25.3164 77.3717 25.3164 77.8145C25.3164 78.2572 25.4108 78.6413 25.5996 78.9668C25.7819 79.2858 26.0358 79.5495 26.3613 79.7578C26.6868 79.9661 27.0612 80.1191 27.4844 80.2168C27.901 80.3145 28.3437 80.3633 28.8125 80.3633Z" fill="#4760FF" fill-opacity="0.35"/>
<path d="M52.2501 145.589L48.5712 155.789L46.3469 154.505L50.9815 142.962L52.4023 143.782L52.2501 145.589ZM55.3285 159.69L51.6412 145.237L51.4805 143.25L52.9097 144.075L57.5613 160.979L55.3285 159.69ZM55.1509 154.314L55.1509 156.258L48.4528 152.391L48.4528 150.447L55.1509 154.314ZM60.6059 154.427L60.6059 162.737L58.5677 161.561L58.5677 150.994L60.4875 152.103L60.6059 154.427ZM60.2422 156.854L59.5825 156.463C59.5882 155.717 59.6784 155.083 59.8532 154.559C60.0336 154.038 60.2817 153.644 60.5974 153.377C60.9188 153.113 61.3022 152.99 61.7476 153.006C62.193 153.016 62.6892 153.178 63.2361 153.494C63.6759 153.748 64.0734 154.049 64.4286 154.397C64.7894 154.743 65.0967 155.145 65.3504 155.604C65.6098 156.066 65.8071 156.587 65.9424 157.166C66.0777 157.739 66.1454 158.387 66.1454 159.109L66.1454 165.936L64.0987 164.754L64.0987 157.918C64.0987 157.41 64.0339 156.972 63.9042 156.604C63.7802 156.233 63.5969 155.916 63.3545 155.652C63.1177 155.385 62.8217 155.149 62.4665 154.944C62.1169 154.743 61.804 154.646 61.5277 154.656C61.2514 154.666 61.0175 154.762 60.8258 154.944C60.6397 155.13 60.4959 155.385 60.3944 155.711C60.293 156.036 60.2422 156.417 60.2422 156.854ZM71.964 167.615C72.2966 167.807 72.5955 167.905 72.8605 167.908C73.1311 167.908 73.3482 167.819 73.5117 167.64C73.6808 167.464 73.7739 167.202 73.7908 166.854L75.7106 167.962C75.6993 168.639 75.5245 169.16 75.1862 169.524C74.8479 169.889 74.3997 170.076 73.8415 170.086C73.2833 170.089 72.666 169.896 71.9894 169.505C71.2902 169.101 70.6813 168.613 70.1626 168.04C69.6439 167.461 69.2126 166.827 68.8686 166.141C68.5247 165.454 68.2653 164.741 68.0906 164.002C67.9214 163.266 67.8368 162.534 67.8368 161.805L67.8368 161.463C67.8368 160.734 67.9214 160.099 68.0906 159.559C68.2653 159.015 68.5247 158.598 68.8686 158.309C69.2126 158.019 69.6439 157.887 70.1626 157.913C70.6813 157.933 71.2874 158.143 71.9809 158.543C72.7139 158.966 73.3566 159.507 73.9092 160.164C74.4617 160.815 74.8959 161.531 75.2116 162.312C75.533 163.09 75.6993 163.877 75.7106 164.671L73.7908 163.562C73.7739 163.162 73.6893 162.762 73.5371 162.361C73.3905 161.958 73.1818 161.583 72.9112 161.238C72.6462 160.896 72.3277 160.618 71.9555 160.403C71.544 160.166 71.2028 160.066 70.9322 160.105C70.6616 160.138 70.4501 160.276 70.2979 160.521C70.1457 160.758 70.0357 161.062 69.9681 161.434C69.9061 161.801 69.875 162.203 69.875 162.64L69.875 162.981C69.875 163.418 69.9061 163.859 69.9681 164.305C70.0301 164.751 70.1372 165.18 70.2895 165.594C70.4473 166.004 70.6616 166.385 70.9322 166.736C71.2028 167.081 71.5468 167.374 71.964 167.615ZM79.288 158.523L79.288 173.523L77.2583 172.352L77.2583 157.352L79.288 158.523ZM78.9328 167.645L78.2731 167.254C78.2788 166.528 78.3662 165.905 78.5353 165.384C78.7101 164.866 78.9525 164.469 79.2626 164.192C79.5784 163.912 79.9561 163.776 80.3959 163.782C80.8357 163.782 81.3234 163.937 81.859 164.246C82.3101 164.507 82.716 164.812 83.0769 165.164C83.4433 165.519 83.7591 165.932 84.0241 166.404C84.2891 166.87 84.4892 167.396 84.6245 167.981C84.7655 168.564 84.836 169.217 84.836 169.939L84.836 176.727L82.7893 175.545L82.7893 168.738C82.7893 168.23 82.7245 167.789 82.5948 167.415C82.4708 167.044 82.2875 166.723 82.0451 166.453C81.8026 166.176 81.5066 165.937 81.1571 165.735C80.7906 165.524 80.4664 165.421 80.1845 165.428C79.9082 165.438 79.677 165.535 79.491 165.721C79.3049 165.906 79.164 166.163 79.0681 166.492C78.9779 166.824 78.9328 167.208 78.9328 167.645ZM86.5105 172.527L86.5105 172.303C86.5105 171.541 86.6064 170.89 86.7981 170.35C86.9898 169.803 87.266 169.393 87.6269 169.119C87.9934 168.842 88.4388 168.722 88.9631 168.758C89.4931 168.79 90.0908 168.999 90.7561 169.383C91.427 169.77 92.0247 170.252 92.549 170.828C93.079 171.401 93.5272 172.037 93.8937 172.737C94.2602 173.431 94.5393 174.161 94.731 174.93C94.9227 175.691 95.0185 176.453 95.0185 177.215L95.0185 177.439C95.0185 178.201 94.9227 178.852 94.731 179.393C94.5393 179.933 94.2602 180.341 93.8937 180.618C93.5272 180.888 93.0818 181.009 92.5575 180.979C92.0331 180.944 91.4383 180.734 90.773 180.35C90.102 179.962 89.5016 179.482 88.9716 178.909C88.4472 178.333 88.0018 177.698 87.6353 177.005C87.2689 176.305 86.9898 175.574 86.7981 174.812C86.6064 174.051 86.5105 173.289 86.5105 172.527ZM88.5487 173.479L88.5487 173.704C88.5487 174.179 88.591 174.653 88.6756 175.125C88.7602 175.597 88.8927 176.045 89.0731 176.468C89.2535 176.891 89.4847 177.275 89.7666 177.62C90.0485 177.965 90.384 178.25 90.773 178.475C91.1507 178.693 91.4778 178.79 91.754 178.768C92.0359 178.748 92.2671 178.631 92.4475 178.416C92.6279 178.201 92.7604 177.907 92.845 177.532C92.9352 177.161 92.9803 176.738 92.9803 176.263L92.9803 176.038C92.9803 175.569 92.9352 175.101 92.845 174.632C92.7604 174.16 92.6251 173.707 92.4391 173.274C92.2586 172.845 92.0275 172.457 91.7456 172.112C91.4693 171.764 91.1395 171.479 90.7561 171.258C90.3727 171.036 90.04 170.939 89.7581 170.965C89.4818 170.988 89.2535 171.11 89.0731 171.331C88.8927 171.552 88.7602 171.85 88.6756 172.225C88.591 172.592 88.5487 173.011 88.5487 173.479Z" fill="#4760FF" fill-opacity="0.35"/>
<g clip-path="url(#clip0_616_4313)">
<path d="M176.922 128.019C177.003 127.97 177.1 127.954 177.197 127.954L174.974 126.672V127.5C174.974 127.792 174.747 128.019 174.455 128.019C174.163 128.019 173.936 127.792 173.936 127.5V126.072L169.101 123.281V129.35L171.875 130.956L176.922 128.035V128.019ZM109.373 95.3561L40.7206 55.7322V130.356L110.233 169.915L110.33 171.991L39.4712 131.637C39.1791 131.491 38.9844 131.199 38.9844 130.859V54.2394C38.9844 54.0934 39.0168 53.9473 39.098 53.8013C39.2764 53.493 39.6172 53.3308 39.9417 53.3794L111.579 12.6035L111.953 13.9665L81.2693 31.1174L150.1 70.8548L179.566 53.8338L111.287 13.9665L111.579 12.6035L181.01 53.0874C181.01 53.0874 181.075 53.0874 181.108 53.0874C181.578 53.0874 181.968 53.4768 181.968 53.9473V130.518C181.984 130.826 181.838 131.151 181.546 131.313L110.33 172.008L110.233 169.931L132.9 157.421L110.135 143.953L110.492 143.336L133.614 157.015L138.872 153.981L110.509 137.235L110.866 136.619L139.586 153.575L144.843 150.541L110.346 130.453L110.703 129.836L145.557 150.119L150.814 147.085L110.963 123.865L111.32 123.249L151.512 146.679L156.769 143.645L113.819 118.851V118.04L157.467 143.239L162.724 140.205L125.582 118.77V117.959L163.422 139.799L168.679 136.765L111.141 103.55V109.619L125.712 118.024V118.835L111.141 110.43V116.499L113.819 118.04V118.851L111.141 117.31V171.424H109.405V95.3561H109.373ZM41.402 54.1258L110.233 93.8633L139.521 76.9558L70.7062 37.2183L41.402 54.1258ZM150.96 72.3476V77.5886L180.264 94.4961V88.4276L151.674 71.9257L150.96 72.3314V72.3476ZM150.96 78.3999V84.4684L180.264 101.392V95.3236L150.96 78.4161V78.3999ZM150.96 85.2797V88.2653L149.905 90.7317L180.264 108.256V102.187L150.96 85.2635V85.2797ZM149.613 91.3807L149.386 91.8999L148.266 90.6019L147.488 90.1475C146.903 91.332 146.384 92.695 145.865 93.9282L144.145 91.9162L144.096 91.9811L144.031 92.0784L143.983 92.1758L143.301 93.7822L180.264 115.119V109.051L149.629 91.3645L149.613 91.3807ZM143.009 94.4474L142.36 95.9727L140.397 93.6686V92.9222L127.854 85.6692L122.597 88.7034L172.476 117.505L173.271 114.697C173.303 114.454 173.417 114.211 173.547 113.984C173.693 113.756 173.887 113.545 174.114 113.432L174.179 113.399C174.179 113.399 174.228 113.367 174.244 113.367H174.26C174.471 113.27 174.682 113.27 174.893 113.318C175.12 113.383 175.299 113.545 175.413 113.789C175.98 115.022 176.483 116.401 177.003 117.683C177.116 117.943 176.986 118.251 176.711 118.365C176.451 118.478 176.143 118.348 176.029 118.072L174.958 115.444V118.965L180.248 122.015V115.947L142.993 94.4474H143.009ZM140.397 92.1271V86.0586L133.809 82.2455L128.552 85.2797L140.397 92.1109V92.1271ZM140.397 85.2473V78.4486L134.507 81.8398L140.397 85.2311V85.2473ZM145.557 91.186L145.119 90.9264L145.476 91.3483L145.557 91.1698V91.186ZM144.291 90.4558L141.776 89.0117V92.9222L142.084 93.1007L142.701 91.6566C142.75 91.5592 142.782 91.4781 142.831 91.3969C142.879 91.3158 142.928 91.2347 142.993 91.1698C143.09 91.04 143.204 90.9264 143.301 90.829C143.512 90.6505 143.739 90.537 143.983 90.4721C144.08 90.4558 144.194 90.4396 144.291 90.4558ZM141.776 88.1842L145.833 90.5207L146.222 89.6121C146.254 89.5309 146.303 89.4498 146.352 89.3687C146.4 89.2876 146.449 89.2064 146.514 89.1253C146.611 88.9955 146.725 88.8819 146.839 88.7846C147.049 88.6061 147.277 88.4925 147.504 88.4438C147.812 88.3789 148.12 88.4438 148.364 88.6223C148.364 88.6223 148.477 88.7197 148.526 88.7846L148.98 89.32L149.24 88.7196L141.776 84.4035V88.168V88.1842ZM141.776 83.5922L149.532 88.0706L149.581 87.9733V84.3224L141.792 79.8278V83.5922H141.776ZM141.776 79.0003L149.565 83.4949V79.7304L143.853 76.4366L141.776 77.6373V79.0165V79.0003ZM144.567 76.0147L149.581 78.9029V75.1385L147.828 74.1325L144.567 76.0147ZM148.542 73.7268L149.581 74.3272V73.1265L148.542 73.7268ZM146.66 72.8182V70.433L143.804 68.7941V72.2989L145.686 73.3861L146.644 72.8344L146.66 72.8182ZM147.277 70.7899V72.4612L148.721 71.6174L147.277 70.7737V70.7899ZM143.188 74.814V73.9215L140.332 72.2827V75.8038L140.916 76.1445L143.188 74.8302V74.814ZM143.188 71.9257V68.4209L140.332 66.7821V70.2869L143.188 71.9257ZM143.804 74.2785V74.457L143.967 74.3596L143.804 74.2623V74.2785ZM139.715 75.4306V71.9095L136.86 70.2707V73.7755L139.715 75.4143V75.4306ZM139.715 69.93V66.4251L136.86 64.7863V68.2911L139.715 69.93ZM136.243 73.4348V69.93L133.387 68.2911V71.7959L136.243 73.4348ZM136.243 67.9341V64.4293L133.387 62.7905V66.2953L136.243 67.9341ZM132.771 71.439V67.9341L129.915 66.2953V69.8001L132.771 71.439ZM132.771 65.9384V62.4335L129.915 60.7947V64.2995L132.771 65.9384ZM129.298 69.4432V65.9384L126.442 64.2995V67.8043L129.298 69.4432ZM129.298 63.9426V60.4377L126.442 58.7989V62.3037L129.298 63.9426ZM125.826 67.4474V63.9426L122.97 62.3037V65.8085L125.826 67.4474ZM125.826 61.9468V58.4419L122.97 56.8031V60.3079L125.826 61.9468ZM122.354 65.4516V61.9468L119.498 60.3079V63.8127L122.354 65.4516ZM122.354 59.951V56.4461L119.498 54.8073V58.3121L122.354 59.951ZM118.881 63.4558V59.951L116.025 58.3121V61.817L118.881 63.4558ZM118.881 57.9552V54.4504L116.025 52.8115V56.3163L118.881 57.9552ZM115.409 61.46V57.9552L112.553 56.3163V59.8212L115.409 61.46ZM115.409 55.9594V52.4546L112.553 50.8157V54.3205L115.409 55.9594ZM111.936 59.4642V55.9594L109.081 54.3205V57.8254L111.936 59.4642ZM111.936 53.9636V50.4588L109.081 48.8199V52.3247L111.936 53.9636ZM108.464 57.4684V53.9636L105.608 52.3247V55.8296L108.464 57.4684ZM108.464 51.9678V48.463L105.608 46.8241V50.3289L108.464 51.9678ZM104.992 55.4726V51.9678L102.136 50.3289V53.8338L104.992 55.4726ZM104.992 49.972V46.4672L102.136 44.8283V48.3332L104.992 49.972ZM101.519 53.4768V49.972L98.6636 48.3332V51.838L101.519 53.4768ZM101.519 47.9762V44.4714L98.6636 42.8325V46.3374L101.519 47.9762ZM98.047 51.481V47.9762L95.1912 46.3374V49.8422L98.047 51.481ZM98.047 45.9804V42.4756L95.1912 40.8367V44.3416L98.047 45.9804ZM94.5746 49.4852V45.9804L91.7188 44.3416V47.8464L94.5746 49.4852ZM94.5746 43.9846V40.4798L91.7188 38.8409V42.3458L94.5746 43.9846ZM91.1023 47.4894V43.9846L88.2465 42.3458V45.8506L91.1023 47.4894ZM91.1023 41.9888V38.484L88.2465 36.8451V40.35L91.1023 41.9888ZM87.6299 45.4936V41.9888L84.7741 40.35V43.8548L87.6299 45.4936ZM87.6299 39.993V36.4882L84.7741 34.8494V38.3542L87.6299 39.993ZM84.1575 43.4978V39.993L81.3018 38.3542V41.859L84.1575 43.4978ZM84.1575 37.9972V34.4924L81.3018 32.8536V36.3584L84.1575 37.9972ZM80.6852 41.4858V37.981L77.8294 36.3421V39.847L80.6852 41.4858ZM80.6852 35.9852V32.4804L79.7765 31.9611L77.8294 33.0807V34.3463L80.6852 35.9852ZM77.2128 39.4738V35.9689L75.0061 34.7033L74.357 35.0765V37.8349L77.2128 39.4738ZM77.2128 33.9731V33.4215L76.7423 33.6973L77.2128 33.9731ZM73.7405 37.4617V35.4173L71.9718 36.4395L73.7405 37.4617ZM169.214 136.375L174.471 133.341L172.07 131.962L166.894 134.948C166.894 134.948 166.845 134.98 166.813 134.98L169.214 136.375ZM175.169 132.935L180.118 130.08V129.739L177.489 128.214C177.635 128.473 177.554 128.782 177.295 128.928L172.751 131.54L175.153 132.919L175.169 132.935ZM180.118 128.911V122.843L174.828 119.792V125.861L180.118 128.911ZM180.118 87.6325V81.564L157.483 68.5021L152.226 71.5363L180.102 87.6325H180.118ZM180.118 80.7527V74.6842L163.454 65.0622L158.197 68.0964L180.118 80.7527ZM180.118 73.8729V67.8043L169.409 61.6222L164.152 64.6565L180.118 73.8729ZM180.118 66.993V60.9245L175.364 58.1823L170.107 61.2166L180.118 66.993ZM180.118 60.1132V55.4401L176.062 57.7767L180.118 60.1132ZM121.753 89.1415L116.496 92.1758L166.391 120.993L167.186 118.154C167.235 117.91 167.332 117.667 167.462 117.44C167.608 117.212 167.803 117.018 168.03 116.888C168.095 116.856 168.143 116.839 168.192 116.807C168.192 116.807 168.257 116.774 168.306 116.774C168.306 116.774 168.435 116.742 168.5 116.742C168.679 116.742 168.841 116.774 168.987 116.856C169.133 116.937 169.247 117.066 169.312 117.212L169.344 117.277L170.918 121.139C171.031 121.399 170.902 121.707 170.626 121.821C170.366 121.934 170.058 121.804 169.944 121.529L168.922 119.014V122.486L173.757 125.277V119.208L173.027 118.786L172.541 120.523C172.459 120.798 172.184 120.961 171.908 120.88C171.632 120.798 171.47 120.523 171.551 120.247L172.102 118.267L121.704 89.174L121.753 89.1415ZM115.798 92.5814L110.963 95.3723V95.8591L167.9 128.733V122.664L167.121 122.21L166.65 123.914C166.569 124.19 166.294 124.352 166.018 124.271C165.742 124.19 165.58 123.914 165.661 123.638L166.212 121.675L115.798 92.5652V92.5814ZM110.963 96.6704V102.739L166.115 134.574C166.083 134.363 166.18 134.152 166.358 134.039L171.015 131.345L168.938 130.145V130.891C168.938 131.183 168.711 131.41 168.419 131.41C168.127 131.41 167.9 131.183 167.9 130.891V129.544L110.963 96.6704ZM167.9 121.853L167.316 121.512L167.9 119.435V121.837V121.853ZM173.79 118.365L173.271 118.056L173.79 116.174V118.348V118.365Z" fill="#4760FF"/>
<path d="M126.997 160.726L111.023 151.238L110.659 151.852L126.632 161.34L126.997 160.726Z" fill="#4760FF"/>
<path d="M120.91 165.103L110.852 159.129L110.487 159.743L120.545 165.717L120.91 165.103Z" fill="#4760FF"/>
</g>
<defs>
<clipPath id="clip0_616_4313">
<rect width="143.535" height="159.388" fill="white" transform="translate(38.4531 12.6035)"/>
</clipPath>
</defs>
</svg>
