<svg xmlns="http://www.w3.org/2000/svg" viewBox="0 0 194.08 202.39"><defs><style>.cls-1{fill:#fff;}.cls-1,.cls-2,.cls-3{fill-rule:evenodd;}.cls-2{fill:#e7edfa;}.cls-3{fill:#4760ff;}</style></defs><title>Recurso 1</title><g id="Capa_2" data-name="Capa 2"><g id="Icometric_-_Transportation" data-name="Icometric - Transportation"><g id="Scooter"><path class="cls-1" d="M52.4,185.16,33.08,191.5l-3.31-17.66A30.69,30.69,0,0,1,41.08,163.5c4.42-2.21,8.42-2.42,11.32-1l8,4-3.32,5c0,4.42-1.79,9.31-4.68,13.66Zm89-75.49c1.72-10.15,9.88-21.28,19.66-26.17,5.52-2.76,10.52-3,14.14-1.21l13.86,6.93v1.66l-8,2.22v.4l-12.77,6.39-9.58,18.43,10.35,5.18-88,44-8-4,16-8-24-12,72-36,4.34,2.17ZM2.08,9.66h0a2.4,2.4,0,0,1-1-2.15,7.54,7.54,0,0,1,4-6,3.35,3.35,0,0,1,2.66-.32h0l27,13.5L49.08,7.5l8,4L42.74,18.67,75.91,35.26l-5.65,8.48L2.08,9.66Z"/><path class="cls-2" d="M43.43,180.67a15.33,15.33,0,0,1,5.65-5.17c4.42-2.21,8-.42,8,4s-3.58,9.79-8,12c-1.17.59-11.31,9-11.31,9l-8-4-.06,0c-2.86-1.46-4.63-4.55-4.63-8.93s1.8-9.31,4.69-13.66l13.66,6.83ZM81.08,167.5l-32-16v8l32,16v-8Zm-52-144.34-27-13.5h0a2.4,2.4,0,0,1-1-2.15A6.35,6.35,0,0,1,2.26,4.09L73.08,39.5l-2.82,4.24L49.08,33.16V151.5l-8-4V29.16l-4-2V29.5l-8-4V23.16Zm132.07,90-4.07,8.32-16-8v-.13c0-7.57,4.29-16.25,10.51-22.72l33.49,16.85c7,20-16,30-16,16-2.85-1.46-9-4.5-9-4.5a18.63,18.63,0,0,1,1.07-5.82Z"/><path class="cls-3" d="M190.08,94.92a1,1,0,0,1-.51.88,1,1,0,0,1-1,0c-2.69-1.71-6.63-1.57-11,.62h0c-.16.07-.32.16-.47.24a10,10,0,0,1,3.78,1l8,4c3.2,1.6,5.24,5,5.24,9.86,0,9.15-7.4,20.32-16.55,24.89-4.76,2.38-9.06,2.54-12.2,1h0l-2.87-1.43L81.53,176.39a1,1,0,0,1-.89,0l-16.93-8.46a11.71,11.71,0,0,1,2.37,7.57c0,9.15-7.4,20.32-16.55,24.89-4.76,2.39-9.08,2.53-12.2,1l-8-4-.08,0c-3.15-1.61-5.17-5-5.17-9.82,0-9.15,7.4-20.32,16.56-24.89a16.41,16.41,0,0,1,8.51-2l-.51-.26a1,1,0,0,1-.56-.89v-7.38l-7.44-3.73a1,1,0,0,1-.56-.89V29.77l-.65-.32-1.9.94a1,1,0,0,1-.89,0l-8-4a1,1,0,0,1-.56-.89V23.77L1.81,10.64C-3.25,7.8,3.41-1.79,8.2.29l.16.07L34.74,13.55l13.9-6.94a.94.94,0,0,1,.89,0l8,4c.63.31.55,1,.55,1.58v13l18.28,9.13a3.31,3.31,0,0,1,1.72,3.14,8.6,8.6,0,0,1-4.55,6.89,4.15,4.15,0,0,1-3.72.25L58.08,38.77V138.88l7,3.5,71.56-35.77a.94.94,0,0,1,.89,0l3.17,1.58c2.23-10.07,10.3-20.77,19.94-25.58,5.86-2.94,11.18-3.14,15-1.21l13.86,6.93a1,1,0,0,1,.55.89v5.7ZM54.54,164.72,52,163.43c-2.67-1.34-6.35-1.07-10.42,1C33,168.65,26.08,179,26.08,187.5c0,3.92,1.52,6.72,4.07,8,0,0,.49.24.07,0l3,1.5a13,13,0,0,1-1.13-5.57c0-9.15,7.4-20.32,16.56-24.89a18.57,18.57,0,0,1,5.9-1.89Zm-5,11.67c1.86-.93,3.54-1.09,4.76-.48s1.79,1.84,1.79,3.59c0,4.09-3.35,9.06-7.44,11.11-1.86.93-3.54,1.09-4.76.48a3.73,3.73,0,0,1-1.8-3.59c0-4.09,3.36-9.06,7.45-11.11Zm16.15-15.47,14.4,7.2v5.76l-30-15v-5.76l15.6,7.8Zm1.64-17.42,22.21,11.11a1,1,0,0,1,0,1.78L75.32,163.5l5.76,2.88,85.77-42.88-5.77-2.88-3.54,1.77a1,1,0,0,1-.9,0l-16-8a1,1,0,0,1-.56-.9v-.13a23.8,23.8,0,0,1,.24-3.12l-3.24-1.62L67.32,143.5ZM44.7,32.08l3.38,1.69V149.88l-6-3V30.77l2.62,1.31Zm132.83,80.31c1.86-.93,3.54-1.09,4.76-.48s1.79,1.84,1.79,3.59c0,4.09-3.35,9.06-7.44,11.11-1.86.93-3.54,1.09-4.76.48a3.73,3.73,0,0,1-1.8-3.59c0-4.09,3.36-9.06,7.45-11.11Zm7.25-24.2-10-5c-3.4-1.7-8.08-1.38-13.25,1.2-10.51,5.26-19.11,17.9-19.44,28.5l14,7c.8-11,9.66-23.89,20.5-29.3a21.93,21.93,0,0,1,8.14-2.42Zm-22.66,30.28a31,31,0,0,1,2.21-4.23l-1.26-.63a20.37,20.37,0,0,0-.95,4.86ZM43.27,20.08c-1.85-.53-3.87,1.83-4.59,3.22-.44.86-1.15,2.85,0,3.52l18.88,9.44h0l10.55,5.28v0a8.64,8.64,0,0,1,4.43-6.83L43.41,20.13l-.14-.05Zm-10.07.6,2.88,1.44v5.76l-6-3V19.12l3.12,1.56Zm-.7-6L7.37,2.11a2.37,2.37,0,0,0-1.84.28A6.71,6.71,0,0,0,2.66,5.34c-.42.84-1.11,2.78,0,3.46L28.08,21.54v-4a1,1,0,0,1,.56-.89l3.86-1.94ZM31.32,17.5,49.08,8.62l5.77,2.88L37.08,20.38,31.32,17.5Z"/></g></g></g></svg>
