<svg xmlns="http://www.w3.org/2000/svg" viewBox="0 0 242 202"><defs><style>.cls-1{fill:#fff;}.cls-1,.cls-2,.cls-3{fill-rule:evenodd;}.cls-2{fill:#e7edfa;}.cls-3{fill:#4760ff;}</style></defs><title>Recurso 1</title><g id="Capa_2" data-name="Capa 2"><g id="Capa_1-2" data-name="Capa 1"><path class="cls-1" d="M53,7l-.36,3.82L49,9,1,33l16,8L69,15,213,87l12-6L65,1,53,7ZM185,125l8,4,48-24-16-8-40,20L49,49,17,65l168,84V125Z"/><path class="cls-2" d="M213,87,53,7,49,49l136,68,26-13,2-17ZM5,99v8l4,2,4-6,172,86,4,10,4,2V129l-16-8v24L17,65V41L1,33V97l4,2Z"/><path class="cls-3" d="M114.76,27,105,31.88,55.24,7,65,2.12,114.76,27ZM3.24,33,17,39.88,50.46,23.15l1.12-11.74L49,10.12,3.24,33Zm104,0,53.93,27,9.77-4.88L117,28.12,107.24,33ZM50.06,48.41l49.93,25,4-39.79-50.08-25-3.8,39.86ZM163.41,61.09,213,85.88,222.76,81,173.17,56.2l-9.76,4.89ZM19.24,65,69,89.88,98.76,75,49,50.12,19.24,65Zm-1.9,1.29-2.88,4.32L64.71,95.74l2.84-4.35L17.34,66.29Zm84.57,8L156,101.39,160,61.59l-54.1-27.05-3.94,39.79ZM6,100.62l5.54,2.77-2.88,4.32L6,106.38v-5.76Zm8-28V86.38l50,25V97.62l-50-25Zm143.92,29.72L185,115.88l25.07-12.53,1.86-15.77-4-2-46.07-23-4,39.79ZM71.24,91l53.93,27,29.77-14.88L101,76.12,71.24,91Zm-4.73,5.64,54.29,27.14,2.84-4.35L69.35,92.29l-2.84,4.35ZM225,98.12l-39.55,19.77L181.17,120l-1.93,1L193,127.88,238.76,105,225,98.12ZM66,112.38l54,27V125.62l-54-27v13.76Zm110.56,7.72,6.2-3.1-25.59-12.8-29.76,14.89L176,143.38V121a1,1,0,0,1,.56-.9m-1,25.29-50.1-25-2.84,4.34,50.06,25,2.88-4.32Zm-53.54-5,50,25V151.62l-50-25v13.76ZM16,41.62l-14-7V96.38l190,95V129.62l-14-7v42.89c0,1,0,2.09,0,3.13a1.58,1.58,0,0,1-.16.91,1,1,0,0,1-1.29.34l-164-82A1,1,0,0,1,12,87V71a1,1,0,0,1,.17-.56L16,64.7V41.62ZM189.79,198.28l2.21,1.1v-5.76l-5.09-2.55,2.88,7.21ZM52.54,6.11a1,1,0,0,0-.54.8l-.22,2.36L49.45,8.11a1,1,0,0,0-.9,0l-48,24A1,1,0,0,0,0,33V97a1,1,0,0,0,.55.89L4,99.62V107a1,1,0,0,0,.55.89l4,2a1,1,0,0,0,1.28-.34l3.51-5.26,170.87,85.43,3.86,9.65a1,1,0,0,0,.48.52l4,2a1,1,0,0,0,.9,0l4-2a1,1,0,0,0,.48-.52l3.86-9.65,26.87-13.43,3.51,5.26a1,1,0,0,0,1.28.34l4-2A1,1,0,0,0,238,179v-7.38l3.45-1.73A1,1,0,0,0,242,169V105a1,1,0,0,0-.55-.86L226,96.38V81a1,1,0,0,0-.55-.9l-160-80a1,1,0,0,0-.9,0l-12,6h0"/></g></g></svg>
