<svg xmlns="http://www.w3.org/2000/svg" viewBox="0 0 210 238"><defs><style>.cls-1{fill:#e7edfa;}.cls-1,.cls-2,.cls-3{fill-rule:evenodd;}.cls-2{fill:#fff;}.cls-3{fill:#4760ff;}</style></defs><title>Recurso 5</title><g id="Capa_2" data-name="Capa 2"><g id="Capa_1-2" data-name="Capa 1"><polygon class="cls-1" points="13 159 13 175 21 179 29 167 121 213 129 233 137 237 137 105 9 41 9 157 13 159 13 159"/><path class="cls-2" d="M73,1,1,37l136,68,72-36L73,1ZM57,85l-8,4,32,16,8-4-4-2-4,2L57,89l4-2-4-2Zm0,52-8,4,32,16,8-4-4-2-4,2L57,141l4-2-4-2Z"/><path class="cls-3" d="M200.55,72.11,206.76,69,73,2.12,3.24,37l14.2,7.1L137,103.88l63.55-31.77ZM51.24,89,81,103.88,86.76,101,85,100.12l-2,1c-.71.36-1.59,1-2.41.75a14.32,14.32,0,0,1-1.71-.85L69,96.12,58.78,91c-.7-.35-2.37-.78-2.71-1.64-.55-1.37,2-2,2.69-2.37L57,86.12,51.24,89Zm14.35,9.42L80,105.62v5.76l-30-15V90.62l15.59,7.8Zm-17-10.31c-.5.25-.54.68-.56,1.18-.06,1.59,0,3.19,0,4.78,0,1-.42,3.16.55,3.82a8.41,8.41,0,0,0,1,.52l16.83,8.42,9.36,4.68c1.55.77,3.09,1.7,4.7,2.35a1.2,1.2,0,0,0,1,0c1.26-.49,2.47-1.23,3.67-1.83s2.74-1.31,4.06-2c1-.56.76-1.74.76-2.76V102c0-.51.13-1.22-.24-1.65a3,3,0,0,0-1-.59l-2.39-1.2c-.61-.3-1.12-.68-1.82-.45a16.84,16.84,0,0,0-1.85.93L81,99.88l-19-9.5a19.26,19.26,0,0,0,0-3.48c-.15-.82-1-1-1.69-1.37-1-.51-2.7-1.83-3.87-1.36-1.36.54-2.66,1.33-4,2l-3.91,2M18,46.62V96.38l110,55V101.62l-110-55ZM58.76,139,57,138.12,51.24,141,81,155.88,86.76,153,85,152.12l-2,1c-.72.36-1.59,1-2.41.75a12.69,12.69,0,0,1-1.61-.8l-9.76-4.88L59,143.09c-.76-.38-1.58-.71-2.31-1.15a1.2,1.2,0,0,1-.56-.55c-.58-1.38,2-2,2.68-2.39m6.83,11.42L80,157.62v5.76l-30-15v-5.76l15.59,7.8Zm-17-10.31c-.5.26-.54.69-.56,1.19-.07,1.62,0,3.26,0,4.88,0,1-.41,3.06.55,3.71a9.61,9.61,0,0,0,1.11.56l16.85,8.42,9.27,4.64c1.55.77,3.08,1.69,4.69,2.34a1.18,1.18,0,0,0,1,0c1.24-.47,2.43-1.21,3.61-1.8,1.36-.68,2.77-1.32,4.11-2.06,1.05-.57.79-1.69.79-2.74V154c0-.52.12-1.2-.26-1.63a3.24,3.24,0,0,0-1-.57l-2.39-1.2c-.61-.3-1.12-.68-1.82-.45a16.84,16.84,0,0,0-1.85.93l-1.69.84-19-9.5a19.26,19.26,0,0,0,0-3.48c-.15-.82-1-1-1.69-1.37-1-.51-2.7-1.83-3.87-1.36-1.36.54-2.66,1.33-4,2l-3.91,2M14,160.62l13.54,6.77-6.88,10.32L14,174.38V160.62Zm4-62v53.76l110,55V153.62l-110-55Zm-8,57.76,19.45,9.73h0l92,46h0L136,219.38V105.62l-6-3V209a1,1,0,0,1-1.45.89l-112-56A1,1,0,0,1,16,153V45.62l-6-3V156.38ZM125.77,216.5,136,221.62v13.76l-6.21-3.1-6.88-17.21,2.86,1.43ZM8,41.62V157a1,1,0,0,0,.55.89L12,159.62V175a1,1,0,0,0,.55.89l8,4a1,1,0,0,0,1.28-.34l7.51-11.26,90.87,45.43,7.86,19.65a.94.94,0,0,0,.48.52l8,4a1,1,0,0,0,.9,0l8-4a.94.94,0,0,0,.48-.52l7.86-19.65,26.87-13.43,7.51,11.26a1,1,0,0,0,1.28.34l8-4A1,1,0,0,0,198,207V191.62l3.45-1.73A1,1,0,0,0,202,189V73.62l7.45-3.73a1,1,0,0,0,0-1.78l-136-68a1,1,0,0,0-.9,0l-72,36A1,1,0,0,0,0,37a1,1,0,0,0,.55.89L8,41.62Z"/></g></g></svg>
