<svg xmlns="http://www.w3.org/2000/svg" viewBox="0 0 242 202"><defs><style>.cls-1{fill:#fff;}.cls-1,.cls-2,.cls-3{fill-rule:evenodd;}.cls-2{fill:#e7edfa;}.cls-3{fill:#4760ff;}</style></defs><title>Recurso 6</title><g id="Capa_2" data-name="Capa 2"><g id="Capa_1-2" data-name="Capa 1"><polygon class="cls-1" points="53 75 1 49 97 1 241 73 189 99 225 117 225 121 229 123 145 165 13 99 17 97 17 93 53 75 53 75"/><path class="cls-2" d="M225,89l8-4v72l-8-4V129l4-2v-4l-4-2V89Zm-88,72V125L9,61v72l-8-4V49l144,72v80l-8-4V165L13,103V99l124,62Z"/><path class="cls-3" d="M18,91.38,42.76,79,18,66.62V91.38ZM199.24,103,224,115.38V90.62L199.24,103ZM3.24,49,97,2.12,238.76,73,145,119.88,3.24,49ZM226,89.62v30.76l3.45,1.73c.63.31.55,1,.55,1.59a20.32,20.32,0,0,1,0,3.4,1.17,1.17,0,0,1-.16.44.94.94,0,0,1-.39.35L226,129.62v22.76l6,3V86.62l-6,3Zm-72,36,43-21.5,27,13.5V121h0v.08h0v0h0v.06h0v0h0v0h0v0h0l0,0v0h0v0h0v0h0v0h0v0h0v0h0l0,0h.05l0,0h.14l0,0h0l2.21,1.11L154,159.38V125.62Zm-18,33.76L15.24,99l2.21-1.11h0l0,0,0,0h.14l0,0h0l0,0h0v0h0v0h0v0h0v0h0v0h0v0h0v0l0,0h0v0h0v0h0v0h0v-.06h0v0h0V97h0v-3.4l27-13.5,91,45.5v33.76Zm0,4v-1.76l-122-61v1.76l122,61Zm-134-35,6,3V61a1,1,0,0,1,1.45-.89l128,64a1,1,0,0,1,.55.84v71.43l6,3V121.62L2,50.62v77.76ZM.55,48.11A1,1,0,0,0,0,49v80a1,1,0,0,0,.55.89l8,4a1,1,0,0,0,.9,0l8-4A1,1,0,0,0,18,129V106.62l118,59V197a1,1,0,0,0,.55.89l8,4a1,1,0,0,0,.9,0l8-4A1,1,0,0,0,154,197V165.62l70-35V153a1,1,0,0,0,.55.89l8,4a1,1,0,0,0,.9,0l8-4A1,1,0,0,0,242,153V73a1,1,0,0,0-.55-.89l-144-72a1,1,0,0,0-.9,0l-96,48Z"/></g></g></svg>
