<svg width="534" height="246" viewBox="0 0 534 246" fill="none" xmlns="http://www.w3.org/2000/svg">
<path d="M111.715 228.059V197.77H27.0696V163.425L88.4576 33.3478H130.645L69.257 163.425H111.715V114.748H149.034V163.425H166.342V197.77H149.034V228.059H111.715ZM271.062 232.115C256.639 232.115 244.019 229.095 233.202 223.056C222.385 217.016 213.956 208.588 207.917 197.77C201.877 186.953 198.857 174.333 198.857 159.91V101.497C198.857 87.0736 201.877 74.4534 207.917 63.6362C213.956 52.8189 222.385 44.3904 233.202 38.3508C244.019 32.3112 256.639 29.2914 271.062 29.2914C285.485 29.2914 298.105 32.3112 308.923 38.3508C319.74 44.3904 328.168 52.8189 334.208 63.6362C340.248 74.4534 343.268 87.0736 343.268 101.497V159.91C343.268 174.333 340.248 186.953 334.208 197.77C328.168 208.588 319.74 217.016 308.923 223.056C298.105 229.095 285.485 232.115 271.062 232.115ZM271.062 197.229C277.553 197.229 283.412 195.697 288.64 192.632C293.869 189.567 298.015 185.421 301.08 180.192C304.145 174.964 305.678 169.104 305.678 162.614V98.5218C305.678 92.0315 304.145 86.1721 301.08 80.9438C298.015 75.7154 293.869 71.5688 288.64 68.5039C283.412 65.439 277.553 63.9066 271.062 63.9066C264.572 63.9066 258.713 65.439 253.484 68.5039C248.256 71.5688 244.109 75.7154 241.044 80.9438C237.98 86.1721 236.447 92.0315 236.447 98.5218V162.614C236.447 169.104 237.98 174.964 241.044 180.192C244.109 185.421 248.256 189.567 253.484 192.632C258.713 195.697 264.572 197.229 271.062 197.229ZM460.318 228.059V197.77H375.673V163.425L437.061 33.3478H479.248L417.86 163.425H460.318V114.748H497.638V163.425H514.945V197.77H497.638V228.059H460.318Z" fill="#4760FF"/>
<rect width="16.0469" height="16.0469" rx="3.34311" transform="matrix(1 0 0 -1 490.664 43.793)" fill="#1B1C31"/>
<rect width="16.0469" height="16.0469" rx="3.34311" transform="matrix(1 0 0 -1 474.617 27.7461)" fill="#FA8C78"/>
<rect width="26.7448" height="27.4135" rx="3.34311" transform="matrix(1 0 0 -1 506.711 27.7461)" fill="#4760FF"/>
<rect x="18.5938" y="208.914" width="36.1397" height="36.1397" rx="3.34311" fill="#FA8C78"/>
<rect x="0.890625" y="191.567" width="18.0698" height="18.0698" rx="3.34311" fill="#4760FF"/>
<rect opacity="0.1" width="16.0469" height="16.0469" rx="3.34311" transform="matrix(1 0 0 -1 59.1406 229.005)" fill="#4F46BA"/>
<path d="M278.289 93.9588L266.54 97.239L262.891 86.2232L253.528 89.3245L250.427 79.9611L241.063 83.0624L237.962 73.6989L228.598 76.8002L225.497 67.4368L216.134 70.5381L213.032 61.1746L203.669 64.2759L200.568 54.9125L191.204 58.0138" stroke="#E7EDFA" stroke-width="1.6411" stroke-linecap="round" stroke-linejoin="round"/>
<circle cx="191.385" cy="57.6464" r="4.10276" transform="rotate(-153.326 191.385 57.6464)" fill="#4760FF" stroke="white" stroke-width="1.6411"/>
<circle cx="277.924" cy="93.7743" r="4.10276" transform="rotate(-153.326 277.924 93.7743)" fill="#4760FF" stroke="white" stroke-width="1.6411"/>
<path d="M256.254 101.256L244.505 104.536L240.856 93.5201L231.493 96.6214L228.391 87.2579L219.028 90.3592L215.927 80.9958L206.563 84.0971L203.462 74.7336L194.098 77.835L190.997 68.4715L181.634 71.5728L178.532 62.2093L169.169 65.3107" stroke="#E7EDFA" stroke-width="1.6411" stroke-linecap="round" stroke-linejoin="round"/>
<circle cx="169.35" cy="64.9432" r="4.10276" transform="rotate(-153.326 169.35 64.9432)" fill="#4760FF" stroke="white" stroke-width="1.6411"/>
<circle cx="255.889" cy="101.071" r="4.10276" transform="rotate(-153.326 255.889 101.071)" fill="#4760FF" stroke="white" stroke-width="1.6411"/>
</svg>
