<svg width="132" height="124" viewBox="0 0 132 124" fill="none" xmlns="http://www.w3.org/2000/svg">
<path opacity="0.08" d="M85.4893 123.777L0.136719 74.7371L46.1183 48.1455L131.006 97.3177L85.4893 123.777Z" fill="black"/>
<path fill-rule="evenodd" clip-rule="evenodd" d="M119.966 63.0713L78.2878 87.7693L7.0918 46.5275L49.7222 21.9443L119.966 63.0713Z" fill="#17A984"/>
<path d="M89.0304 53.3906L56.1094 72.4248V45.047L89.0304 26.0186V53.3906Z" fill="#E60026"/>
<path d="M56.11 72.4245L11.4023 46.5272V19.1494L56.11 45.0467V72.4245Z" fill="#F62121"/>
<path d="M89.0311 26.0184L56.11 45.0468L11.4023 19.1495L44.3234 0.121094L89.0311 26.0184Z" fill="#FF590E"/>
<path fill-rule="evenodd" clip-rule="evenodd" d="M43.3512 80.5901L32.959 86.5924V77.5258L43.3512 71.5234V80.5901Z" fill="#30121B"/>
<path fill-rule="evenodd" clip-rule="evenodd" d="M90.7906 107.945L80.3984 113.947V104.88L90.7906 98.8779V107.945Z" fill="#30121B"/>
<path fill-rule="evenodd" clip-rule="evenodd" d="M95.4398 97.6907L7.0918 46.5273V60.3167L91.6984 109.363L95.1128 108.094L95.4398 97.6907Z" fill="#009573"/>
<path fill-rule="evenodd" clip-rule="evenodd" d="M37.6039 78.0539C36.1062 71.9884 31.854 65.7738 26.8272 62.8702C21.8004 59.9665 17.7663 61.4413 16.0391 65.6016L37.5981 78.0539H37.6039Z" fill="#30121B"/>
<path fill-rule="evenodd" clip-rule="evenodd" d="M26.8257 85.9621C22.017 83.1848 18.0977 76.4135 18.0977 70.8874C18.0977 65.3614 22.017 63.1177 26.8257 65.895C31.6345 68.6724 35.5538 75.4437 35.5538 80.9698C35.5538 86.4958 31.6345 88.7395 26.8257 85.9621Z" fill="#4A2730"/>
<path d="M30.3669 81.9991C32.3028 80.871 32.2876 77.2372 30.333 73.8829C28.3784 70.5286 25.2245 68.7238 23.2885 69.8519C21.3526 70.98 21.3677 74.6138 23.3224 77.9681C25.277 81.3225 28.4309 83.1272 30.3669 81.9991Z" fill="#DFE3EB"/>
<path fill-rule="evenodd" clip-rule="evenodd" d="M26.8247 78.2445C25.7172 77.6018 24.8105 76.041 24.8105 74.767C24.8105 73.4931 25.7172 72.9767 26.8247 73.6136C27.9322 74.2563 28.8389 75.8172 28.8389 77.0911C28.8389 78.365 27.9322 78.8815 26.8247 78.2445Z" fill="#30121B"/>
<path fill-rule="evenodd" clip-rule="evenodd" d="M20.8691 63.3992L14.6602 66.9742V65.9011L20.8691 61.4424V63.3992Z" fill="#143684"/>
<path fill-rule="evenodd" clip-rule="evenodd" d="M24.392 65.0517C25.7003 65.8092 27.3472 66.9626 28.5064 68.1389L32.8905 65.4476C31.4846 63.8696 29.918 62.7449 28.2654 61.7923C25.3503 60.111 22.6992 59.9158 20.7481 60.9545C20.7481 60.9545 20.6047 61.0348 20.5473 61.0635L16.4902 63.5712L17.1157 64.2082C19.0036 63.2154 21.5802 63.4277 24.392 65.0517Z" fill="#399EFF"/>
<path fill-rule="evenodd" clip-rule="evenodd" d="M29.0059 67.7034V68.6158L32.8965 66.3664V65.4482L29.0059 67.7034Z" fill="#143684"/>
<path fill-rule="evenodd" clip-rule="evenodd" d="M24.4613 64.1397C19.6984 61.391 15.6414 62.6132 14.1953 66.699L14.6659 66.9687C16.2267 63.4625 19.9968 62.5214 24.3752 65.0521C25.6893 65.8095 27.8469 67.4335 29.0061 68.6156V67.7032C27.6231 66.1653 26.0852 65.075 24.4613 64.1397Z" fill="#2051A4"/>
<path d="M119.261 68.0404L118.94 67.501C118.94 67.501 120.225 66.7378 120.529 66.5599C120.736 66.4394 121.04 66.0205 121.04 65.5844V58.7902C121.04 58.6123 120.994 58.4688 120.925 58.4286C120.857 58.3885 120.679 58.4057 120.392 58.5778L119.261 59.2492C119.112 59.341 118.917 59.2894 118.831 59.1402C118.739 58.991 118.791 58.7959 118.94 58.7098L120.07 58.0384C120.541 57.763 120.931 57.7113 121.235 57.8835C121.511 58.0442 121.666 58.3655 121.666 58.7902V65.5844C121.666 66.2386 121.247 66.8698 120.839 67.1051C120.535 67.283 119.256 68.0404 119.256 68.0404H119.261Z" fill="#30121B"/>
<path fill-rule="evenodd" clip-rule="evenodd" d="M122.784 64.9363C122.526 65.1314 121.837 65.5101 121.837 65.5101C121.591 65.579 121.35 65.3896 121.35 65.1371V59.4848C121.35 59.1864 121.631 58.9741 121.837 58.8479L122.784 58.274C123.031 58.2052 123.272 58.3945 123.272 58.647V64.2993C123.272 64.5977 123.042 64.7412 122.784 64.9363Z" fill="#30121B"/>
<path fill-rule="evenodd" clip-rule="evenodd" d="M105.569 39.9746L93.5524 33.1344C92.7834 32.6926 92.0891 32.6754 91.6071 33.0082C91.1824 33.3009 58.8008 51.8416 58.8008 51.8416L94.109 106.104C94.109 106.104 126.519 87.3391 126.978 87.144C127.535 86.9088 127.891 86.2948 127.891 85.3881V79.4948C127.891 72.9817 111.33 42.2872 105.569 39.9746Z" fill="#E7EDFA"/>
<path fill-rule="evenodd" clip-rule="evenodd" d="M73.6693 59.3645L60.7063 51.9849C59.2602 51.1528 58.0781 51.83 58.0781 53.4884V82.9951C58.0781 84.6535 59.2602 86.6964 60.7063 87.5342L92.4166 105.742C93.8626 106.574 95.0447 105.903 95.0447 104.239V98.3453C95.0447 91.8781 79.0117 62.3369 73.6693 59.3645Z" fill="#8FD4FF"/>
<path fill-rule="evenodd" clip-rule="evenodd" d="M86.8779 87.4934C87.3829 87.8836 88.8347 87.2811 88.4617 85.9957C87.9453 84.2168 78.1269 65.1482 74.9765 63.5644C74.7298 63.4037 60.2576 55.2265 60.2576 55.2265C60.2002 55.1921 60.1543 55.2208 60.1543 55.2896V72.0916C60.1543 72.1605 60.2002 72.2408 60.2576 72.2752L86.8722 87.5049L86.8779 87.4934Z" fill="#140C40"/>
<path fill-rule="evenodd" clip-rule="evenodd" d="M129.188 86.5134L96.3648 105.008L95.0449 104.245L127.891 85.7617L129.188 86.5134Z" fill="#2051A4"/>
<path fill-rule="evenodd" clip-rule="evenodd" d="M129.148 90.0705C129.383 89.9328 129.349 89.6057 129.349 89.3417C129.349 88.7851 129.349 87.4079 129.349 87.0291C129.349 86.6504 129.188 86.5127 129.188 86.5127L96.6573 104.824C96.4622 104.933 96.2269 104.933 96.0376 104.824L91.0394 101.926C90.6435 101.696 90.3164 101.88 90.3164 102.339V104.583C90.3164 105.444 90.6378 105.599 91.0337 105.828L96.1064 108.755C96.3934 108.95 96.7549 108.864 96.8869 108.772C96.8869 108.772 129.005 90.1508 129.142 90.0705H129.148Z" fill="#140C40"/>
<path d="M84.1238 88.0851C83.9861 88.0851 83.8541 88.0506 83.7393 87.9875C83.4754 87.8383 83.3262 87.5342 83.3262 87.1554V80.3612C83.3262 79.6956 83.7795 78.9151 84.3533 78.5881L85.1165 78.1577C85.2657 78.0716 85.4608 78.1232 85.5469 78.2782C85.633 78.4274 85.5814 78.6225 85.4264 78.7086L84.6632 79.1389C84.2787 79.3627 83.9517 79.9251 83.9517 80.3669V87.1612C83.9517 87.3046 83.9861 87.4137 84.0492 87.4481C84.1066 87.4825 84.2271 87.4596 84.3533 87.385L85.1165 86.9546C85.2657 86.8685 85.4608 86.9202 85.5469 87.0751C85.633 87.2243 85.5814 87.4194 85.4264 87.5055L84.6632 87.9359C84.4796 88.0449 84.2902 88.0965 84.1181 88.0965L84.1238 88.0851Z" fill="#30121B"/>
<path fill-rule="evenodd" clip-rule="evenodd" d="M83.1612 87.1091L82.1225 87.3903C81.8758 87.4592 81.6348 87.2698 81.6348 87.0173V81.365C81.6348 81.0666 81.8356 80.8084 82.1225 80.7281L83.1612 80.4469C83.4079 80.378 83.6489 80.5674 83.6489 80.8199V86.4722C83.6489 86.7706 83.4481 87.0288 83.1612 87.1091Z" fill="#30121B"/>
<path fill-rule="evenodd" clip-rule="evenodd" d="M117.797 91.4479L105.861 98.1561V94.0703C105.861 92.9915 106.435 91.993 107.371 91.4536L116.483 86.203C117.068 85.8644 117.797 86.2891 117.797 86.9605V91.4479Z" fill="#30121B"/>
<path fill-rule="evenodd" clip-rule="evenodd" d="M117.797 90.4033L105.855 97.2836V96.6352L117.797 89.7549V90.4033Z" fill="#4A2730"/>
<path fill-rule="evenodd" clip-rule="evenodd" d="M117.797 88.826L105.861 95.7064V95.0579L117.797 88.1719V88.826Z" fill="#4A2730"/>
<path fill-rule="evenodd" clip-rule="evenodd" d="M117.797 87.2069L105.861 94.0872C105.861 94.0872 105.861 93.8519 105.884 93.6913C105.907 93.5306 105.942 93.3929 105.942 93.3929L117.728 86.5986C117.728 86.5986 117.746 86.6216 117.768 86.7019C117.791 86.7823 117.803 86.897 117.803 86.897V87.2069H117.797Z" fill="#4A2730"/>
<path fill-rule="evenodd" clip-rule="evenodd" d="M103.033 96.5895L98.2754 99.3325V95.2353L102.43 92.8366C102.832 92.6071 103.331 92.894 103.331 93.3531V96.0673C103.331 96.2797 103.216 96.4805 103.033 96.5838V96.5895Z" fill="white"/>
<path fill-rule="evenodd" clip-rule="evenodd" d="M98.2817 99.3326L97.4267 99.8318C97.025 100.05 96.543 99.7572 96.543 99.3039V96.5724C96.543 96.3543 96.6635 96.1478 96.8586 96.0445L98.2874 95.2354V99.3326H98.2817Z" fill="#FF590E"/>
<path fill-rule="evenodd" clip-rule="evenodd" d="M124.907 84.3492L120.718 86.7707C120.334 86.9945 119.857 86.7134 119.857 86.2715V83.5056C119.857 83.299 119.966 83.1097 120.144 83.0064L124.913 80.252V84.3492H124.907Z" fill="white"/>
<path fill-rule="evenodd" clip-rule="evenodd" d="M126.366 83.512L124.914 84.3498V80.2526L125.792 79.7476C126.177 79.5238 126.653 79.805 126.653 80.2468V83.0127C126.653 83.2193 126.544 83.4087 126.366 83.512Z" fill="#FF590E"/>
<path fill-rule="evenodd" clip-rule="evenodd" d="M122.003 67.4841C121.142 65.1256 114.032 51.9331 111.284 48.5359C109.924 46.8546 109.373 46.4472 108.592 46.8431L80.8359 62.8188C80.199 63.186 80.0096 64.0123 80.4285 64.6149C84.0781 69.8597 88.4565 77.5779 91.7274 84.3606C92.0831 85.1066 92.9955 85.382 93.7128 84.9746L121.045 69.2457C121.355 69.0678 122.428 68.6662 122.003 67.4898V67.4841Z" fill="#140C40"/>
<path fill-rule="evenodd" clip-rule="evenodd" d="M84.7949 105.374C83.2685 99.3548 79.0393 93.2148 74.0527 90.3341C69.066 87.4535 64.8311 88.7044 63.3047 92.9623L84.7949 105.374Z" fill="#30121B"/>
<path d="M80.2578 114.036C83.6505 112.059 83.6237 105.691 80.1979 99.8118C76.7721 93.9328 71.2447 90.7696 67.852 92.7466C64.4593 94.7235 64.4861 101.092 67.9119 106.971C71.3377 112.85 76.8651 116.013 80.2578 114.036Z" fill="#4A2730"/>
<path d="M77.5934 109.465C79.5294 108.337 79.5142 104.703 77.5596 101.349C75.605 97.9944 72.451 96.1896 70.5151 97.3177C68.5792 98.4458 68.5943 102.08 70.5489 105.434C72.5036 108.788 75.6575 110.593 77.5934 109.465Z" fill="#DFE3EB"/>
<path fill-rule="evenodd" clip-rule="evenodd" d="M74.0532 105.707C72.9457 105.065 72.0391 103.504 72.0391 102.23C72.0391 100.956 72.9457 100.44 74.0532 101.077C75.1607 101.719 76.0674 103.28 76.0674 104.554C76.0674 105.828 75.1607 106.344 74.0532 105.707Z" fill="#30121B"/>
<path fill-rule="evenodd" clip-rule="evenodd" d="M69.3652 89.2086L63.1562 92.7779V91.7105L69.3652 87.2461V89.2086Z" fill="#143684"/>
<path fill-rule="evenodd" clip-rule="evenodd" d="M72.8881 90.8613C74.1964 91.6187 75.8433 92.7721 77.0025 93.9485L81.3866 91.2572C79.9807 89.6792 78.4141 88.5544 76.7615 87.6019C73.8464 85.9205 71.1953 85.7254 69.2442 86.7641C69.2442 86.7641 69.1007 86.8444 69.0434 86.8731L64.9863 89.3808L65.6118 90.0177C67.4997 89.025 70.0763 89.2373 72.8881 90.8613Z" fill="#399EFF"/>
<path fill-rule="evenodd" clip-rule="evenodd" d="M77.4961 93.513V94.4254L81.3925 92.1759V91.2578L77.4961 93.513Z" fill="#143684"/>
<path fill-rule="evenodd" clip-rule="evenodd" d="M72.9574 89.9492C68.1945 87.2005 64.1375 88.4228 62.6914 92.5085L63.162 92.7783C64.7228 89.2721 68.4929 88.331 72.8713 90.8616C74.1854 91.6191 76.343 93.2431 77.5022 94.4252V93.5128C76.1192 91.9749 74.5813 90.8846 72.9574 89.9492Z" fill="#2051A4"/>
</svg>
