<?xml version="1.0" encoding="utf-8"?>
<!-- Generator: Adobe Illustrator 24.0.2, SVG Export Plug-In . SVG Version: 6.00 Build 0)  -->
<svg version="1.1" id="Capa_1" xmlns="http://www.w3.org/2000/svg" xmlns:xlink="http://www.w3.org/1999/xlink" x="0px" y="0px"
	 viewBox="0 0 201 27" style="enable-background:new 0 0 201 27;" xml:space="preserve">
<style type="text/css">
	.st0{clip-path:url(#SVGID_2_);}
	.st1{fill:#140C40;fill-opacity:0.5;}
	.st2{fill-rule:evenodd;clip-rule:evenodd;fill:#140C40;fill-opacity:0.5;}
	.st3{opacity:0.5;}
	.st4{fill:#140C40;}
</style>
<g transform="translate(0.000000,108.000000) scale(0.100000,-0.100000)" class="st3">
	<path class="st4" d="M5,1055.9c0-10,4-17.8,13.2-27.4c12.8-12.2,15-13,36.1-10.4c20.3,2.6,22,2.2,18.5-4.8
		c-1.8-4.3-4.4-27.4-5.7-51.7c-3.1-49.5-9.3-63-33.5-73C16.5,881.3,5,862.6,5,841.8l0.4-14.3l6.2,13.9c10.6,23.9,41,24.8,86.8,2.2
		l25.1-12.2l12.8,20c10.6,16.5,16.3,21.3,32.2,25.6l19.4,5.2l-1.3,74.3c-1.3,81.2-4,89.5-27.8,99c-8.4,3.5-22.9,4.8-42.7,2.6
		c-96.5-8.7-91.2-9.1-101.3,2.2l-9.7,10V1055.9z M115.1,956v-73L86.9,890L58.7,897l12.8,7.4c22.5,13.5,27.8,26.9,29.5,74.7
		c1.8,37.8,4.8,50,13.2,50.4C114.7,1029.4,115.1,996.4,115.1,956z M143.3,1019.9c5.7-7.8,7-23.5,7-78.2c0-37.8-0.9-68.6-1.8-68.6
		c-0.4,0-7.5,2.2-15.4,4.8l-13.7,4.8V956c0,69.9,0.4,73.4,8.4,73.4C132.8,1029.4,139.8,1025.1,143.3,1019.9z"/>
	<path class="st4" d="M1062.3,1033.3c-25.6-13.9-47.6-25.2-49.3-25.6c-7,0-3.1,8.7,11.9,27.8c8.4,10.9,13.7,20,11.9,20
		c-8.4,0-44.5-26.5-55.1-40c-27.8-35.2-34.8-85.6-17.2-119c26.9-51.7,92.5-74.7,153.7-54.3c35.2,11.7,35.7,11.7,52-3.9l14.1-13.5
		l12.3,15.6c14.1,18.7,11.5,23.5-15,26.9c-10.1,1.3-17.6,3.5-16.7,5.2c31.7,56.9,32.6,107.3,3.1,147.7
		c-12.3,16.5-34.4,32.1-50.7,36.5C1111.6,1058.1,1091.3,1049.4,1062.3,1033.3z M1087.8,980.8c0.9-41.7,0-50.8-5.7-52.6
		c-5.7-2.6-6.6,4.8-6.6,51.7c0,41.7,1.3,54.3,5.7,53C1084.7,1031.6,1086.9,1016,1087.8,980.8z M1115.6,1013.4
		c33-27.8,45.8-91.7,25.1-128.1c-10.1-17.8-35.2-36.5-43.2-31.7c-5.7,3.5-6.2,171.6-0.4,171.6
		C1099.3,1025.1,1107.6,1019.9,1115.6,1013.4z M1030.6,952.6c-1.3-52.1-1.8-55.6-10.1-55.6c-12.8,0-20.7,27.8-18.9,64.3
		c1.3,25.6,3.1,30.8,12.3,38.2c6.2,4.3,12.8,8.3,14.5,8.3S1031,983,1030.6,952.6z M1088.7,886.1v-34.7H1072
		c-11.9,0-21.1,3.5-33,13.5c-8.8,7.4-16.3,15.6-16.3,18.2c0,4.8,54.2,36.9,63,37.8C1087.4,920.8,1088.7,905.2,1088.7,886.1z"/>
	<path class="st4" d="M215.6,1036.4c-7.5-10-7.5-10.9,3.1-17.4c13.7-9.1,14.5-8.7,24.2,2.6c7.5,9.1,7.5,10-2.2,17.4
		C227.5,1049,224.8,1048.6,215.6,1036.4z"/>
	<path class="st4" d="M499.7,1036.4l-8.8-10l12.8-7.8c12.8-7.4,13.7-7.4,22.9,1.7l9.3,9.6l-10.6,8.7
		C512,1049,510.7,1049,499.7,1036.4z"/>
	<path class="st4" d="M717.8,1019l-7.5-14.8l17.2-13.5c9.3-7.4,18.5-13.5,20.3-13.5c2.2,0,9.3-5.2,15.9-11.7
		c11.9-10.9,12.3-13.5,12.3-50.4c0-33.4-0.9-38.2-7-36.1c-4,1.3-11.9,3.9-17.6,5.2c-10.1,2.6-10.6,3.9-10.6,48.2
		c0,41.7-0.4,45.6-7.5,42.6c-4.4-1.7-11.5-4.3-15.4-5.2c-7-2.2-7.9-7.8-7.9-42.1c0-21.7-1.3-43.4-2.2-48.2
		c-2.2-7.4,1.8-10,26.4-17.8l28.6-9.6l22,11.7l22,11.3v50v50l-38.8,28.2c-21.1,15.6-39.6,28.7-41,29.5
		C725.7,1033.3,721.7,1027.3,717.8,1019z"/>
	<path class="st4" d="M1563.1,999c-11-11.7-23.3-21.7-27.3-21.7c-5.3,0-6.6-7.4-6.6-44.3c0-24.8-1.3-48.6-2.2-53.4
		c-2.2-7.4,1.8-10,27.3-18.2l30-9.1l9.7,11.3c10.6,13.5,7.9,16.5-17.2,20.4c-15.4,2.6-16.7,3.9-16.7,17.4c0,12.6,3.1,16.5,21.1,28.7
		c39.6,26.5,38.8,24.8,17.6,46c-18.9,19.1-18.9,22.6-1.3,28.7c4.8,1.7-5.3,16.1-11,16.1C1584.7,1020.8,1574.2,1011.2,1563.1,999z
		 M1586.5,942.6c0-2.2-23.8-17.4-27.3-17.4c-0.4,0-0.4,11.3,0.4,24.8l1.3,24.8l12.8-14.8C1580.8,951.7,1586.5,943.9,1586.5,942.6z"
		/>
	<path class="st4" d="M1638.5,1000.3c-22.9-22.6-25.1-27.4-14.1-27.4c6.2,0,6.6-6.9,5.3-51.3l-1.3-51.3l14.5-9.6l14.5-9.6l15.4,12.2
		l15,11.7l-13.2,5.6l-13.2,5.2v43c0,32.1,1.3,43.4,6.2,45.2c3.1,1.3,7,6.5,8.4,11.3c1.8,6.9,0,9.1-5.7,9.1s-8.8,3.9-9.7,13.5
		l-1.3,13L1638.5,1000.3z"/>
	<path class="st4" d="M45.1,998.2C29.2,981.7,5,952.6,5,949.5c0-1.3,5.3-2.6,11.5-2.6c11,0,11.5-0.9,9.7-23.9
		c-1.3-26.9,2.6-30,18.9-12.6c9.3,9.6,10.6,16.1,12.8,54.3c1.3,23.5,0.9,43-0.4,43C56.1,1007.7,50.4,1003.4,45.1,998.2z"/>
	<path class="st4" d="M1283,986c-5.3-7.4-7.5-13.5-4.8-15.2c4.4-2.6,6.6-93.4,2.2-93.4c-1.3,0-9.3,3-17.6,6.1l-15.4,6.5v39.1
		c0,21.3,2.2,40.4,4.4,41.7c7.5,4.8,4.8,9.1-11,17.8c-15,7.8-15,7.8-26.4-2.6c-9.7-9.1-10.1-10.9-4.4-17.4
		c4.8-5.2,6.6-18.2,6.6-51.3v-44.3l21.1-10.4l21.6-10.9l11,10.9l11,10.9l13.2-10.9l13.2-10.9l11.5,11.7
		c14.1,14.8,14.5,16.5,3.1,19.5c-7.9,2.2-8.8,6.1-8.8,42.1c0,21.7,1.8,43,4,46.9c3.1,6.1,0.9,9.6-10.6,16.9l-14.1,9.1L1283,986z"/>
	<path class="st4" d="M208.1,984.7c-8.8-9.6-8.8-10.9-2.2-16.5c5.7-4.8,6.6-13,5.3-51.7c-1.3-46-1.3-46,11-56l12.3-10.4l13.2,12.6
		c15,14.3,15.9,17.4,4,20.4c-7.9,2.2-8.8,5.6-8.8,43c0,22.2,1.8,43.4,4.4,46.9c2.6,4.3,0.9,8.3-7.9,13.9
		C223.9,996.9,220,996.9,208.1,984.7z"/>
	<path class="st4" d="M290.5,979.5c-11.9-8.7-21.1-16.9-21.1-19.5c0-2.2,5.7-10.9,13.2-18.7l13.2-15.2l-13.2-5.2
		c-12.3-5.2-13.2-6.9-13.2-27.8v-22.2l21.6-9.1l21.6-9.6l10.1,10.4l10.1,10.4l12.3-11.7l12.3-11.7l13.2,12.6
		c16.3,15.2,16.3,16.9,1.8,23.5l-11.9,5.2l2.2,42.6l2.2,43l-22.5,9.1c-12.3,4.8-24.7,9.1-26.9,9.1
		C312.9,994.7,301.9,987.7,290.5,979.5z M315.6,963.8c18.5-8.7,19.8-10.4,19.8-26.5c0-17.4,0-17.4-13.7-14.8
		c-30.4,6.1-52,32.1-36.1,43.9C295.7,974.3,292.7,974.7,315.6,963.8z M330.1,911.3c0.4-2.2,0.9-10,0.9-18.2v-14.8l-15.4,4.8
		c-14.5,4.3-15.4,5.6-15.4,22.6v18.7l14.5-5.2C322.6,916.5,329.7,913,330.1,911.3z"/>
	<path class="st4" d="M397.5,984.3l-10.1-10.4l9.7-5.2c9.3-4.8,9.7-7.4,7.9-51.7c-1.3-45.6-1.3-46.5,10.1-56l11.9-9.6l11.5,14.8
		c9.3,12.2,10.1,15.2,4.8,17.4c-5.3,1.7-6.6,11.3-6.6,43.9c0,22.6,0.9,41.3,2.2,41.3c6.2,0,24.2-10.9,24.7-14.8
		c0.4-6.1,12.3,19.1,12.8,26.9c0,3-4.8,7.8-11,10.4c-9.7,4.3-12.3,3.9-18.1-4.3l-6.6-9.6l-11.5,8.7
		C414.7,997.3,409.4,996.9,397.5,984.3z"/>
	<path class="st4" d="M495.3,986.4c-10.6-8.7-13.2-17.8-5.7-17.8c2.6,0,4.4-19.1,4.4-49.1c0-48.6,0-49.1,12.3-58.2l12.3-8.7
		l14.1,11.7c16.7,13.5,17.2,15.6,4.8,18.7c-8.4,2.2-8.8,4.8-7.9,50.4c0.9,43.4,0.4,49.1-7.5,54.7C511.2,996.4,507.2,996,495.3,986.4
		z"/>
	<path class="st4" d="M574.6,984.7l-18.9-9.1l-0.4-46.9c-0.4-25.6-0.9-49.1-1.3-51.7s12.3-9.6,27.3-15.2l28.2-10.4l19.4,11.3
		l19.4,11.3v42.6c0,23.5,1.3,45.6,2.6,49.5c1.8,4.3-4,9.6-19.8,17.4C604.6,996.9,598.8,996.9,574.6,984.7z M606.3,961.7l14.5-6.5
		l-2.2-37.8c-1.3-20.8-2.6-37.8-3.1-38.2c0-0.4-7,2.2-14.5,5.2l-14.5,6.1v39.1c0,21.7,1.3,39.1,2.6,39.1S598.4,965.6,606.3,961.7z"
		/>
	<path class="st4" d="M849.9,984.7l-21.1-9.6l-0.4-46.5c-0.4-26.1-0.9-49.1-1.3-51.7s12.3-9.6,28.2-15.2l28.6-10.4l9.7,11.7
		c11,13.5,8.4,16.5-17.2,20.8c-15.4,2.6-16.7,3.9-16.7,17.4c0,12.6,3.1,16.5,21.1,28.7c39.6,26.5,38.8,24.8,17.6,46
		c-10.1,10.4-20.7,18.7-23.3,18.2C872.8,994.3,861.4,989.5,849.9,984.7z M886.1,941.7c0-1.7-5.7-6.1-13.2-10l-13.2-6.9V950l0.4,25.2
		l12.8-15.2C880.3,951.7,886.1,943.4,886.1,941.7z"/>
	<path class="st4" d="M1363.1,983.4l-23.3-10.4v-50.8v-51.3l29.5-9.6l29.5-9.6l6.6,9.6c10.6,14.3,8.8,17.4-12.8,22.6
		c-17.6,4.3-19.8,6.1-21.1,17.4c-0.9,11.7,2.2,15.2,30.4,34.3l31.3,20.8l-18.9,19.1c-10.6,10.4-21.1,19.1-23.8,18.7
		C1388.3,994.3,1375.5,989.5,1363.1,983.4z M1401.5,942.6c0-2.6-6.6-6.5-27.3-16.5c-2.2-0.9-3.5,9.6-3.5,23.5v25.2l15.4-14.8
		C1394.4,951.7,1401.5,943.9,1401.5,942.6z"/>
	<path class="st4" d="M1441.6,984.3l-10.1-10.4l9.7-5.2c8.8-4.8,9.3-7.8,8.4-52.1c-0.9-46-0.9-47.8,10.1-56l11-8.7l9.7,13
		c7.5,10,8.8,14.8,5.3,18.2c-2.6,2.6-4.8,21.3-4.8,45.2c0,36.5,0.9,40,7.9,37.4c4-1.3,10.6-5.2,14.5-8.3c5.7-5.2,7.5-3.9,12.3,10
		c5.3,14.3,5.3,16.5-2.2,21.7c-11.5,8.3-18.9,6.9-24.2-4.8l-4.8-10l-11,10C1459.2,997.3,1453.9,997.3,1441.6,984.3z"/>
	<path class="st4" d="M1713.4,978.6c-22.9-16.5-23.3-20.8-2.2-43.9l9.3-9.6l-14.1-5.2c-13.2-5.2-14.1-6.9-14.1-26.1
		c0-20.4,0.4-20.8,21.6-31.3l21.1-10.9l10.1,10.4l10.1,10.9l14.1-10.9l14.1-10.4l13.7,13.9l14.1,14.3l-13.7,4.8l-14.1,5.2l2.2,43
		l2.2,43.4l-22.5,9.1c-12.3,4.8-24.7,9.1-26.9,8.7C1735.8,994.3,1724.8,987.3,1713.4,978.6z M1740.7,964.3
		c16.3-8.3,17.6-10.4,17.6-26.1c0-12.6-1.8-17.4-6.6-17.4c-10.6,0-29.5,10.9-41.9,23.9l-11,11.7l10.6,8.3
		C1721.7,974.7,1719.5,974.7,1740.7,964.3z M1748.6,917.8c8.4-2.2,9.7-5.2,9.7-21.3c0-10.4-0.9-19.1-2.2-19.1s-9.3,3-17.6,6.1
		c-14.1,6.1-15.4,8.3-15.4,24.8c0,15.2,0.9,17.4,7.9,14.8C1735,921.3,1742.9,918.7,1748.6,917.8z"/>
	<path class="st4" d="M1820.9,984.7c-9.3-9.6-9.3-10-0.9-15.2c7.9-4.8,8.8-10.4,8.8-52.1c0-43.4,0.9-47.8,10.1-56.5l10.1-9.6
		l13.2,13.5c11.5,12.2,11.9,13.5,5.3,17.4c-6.6,3.5-7.9,10.9-7.9,45.2c0,22.6,1.3,41.3,3.5,41.3c1.8,0,8.4-3,15.4-6.1
		c11.5-6.1,12.3-6.1,18.9,6.5c6.2,12.6,6.2,13.9-1.3,19.5c-11.5,8.3-22.5,7.4-25.6-2.6c-2.6-8.7-11-12.2-11-5.2
		c0,3.9-18.9,13.9-26,13.9C1831.9,994.7,1826.1,990.3,1820.9,984.7z"/>
	<path class="st4" d="M1928.8,984.7l-21.1-9.1l1.3-51.7l1.3-51.3l26-10.4l26-10.4l21.1,10.9l21.6,10.4v51.7V976l-22.5,9.6
		C1955.7,996.4,1955.7,996.4,1928.8,984.7z M1963.1,960.8l13.2-8.3l-1.3-37.4l-1.3-36.9l-16.3,5.2l-16.3,5.6l-1.3,39.5
		C1938.5,972.5,1939.8,974.7,1963.1,960.8z"/>
</g>
</svg>
