<svg width="55" height="37" viewBox="0 0 55 37" fill="none" xmlns="http://www.w3.org/2000/svg">
<g clip-path="url(#clip0_208_2968)">
<path d="M15.9897 0.349609V12.5733H19.2411H25.2134V15.3871H19.2411V16.8818H25.2134V19.8271H19.2411V24.1262H15.9897V36.3495H54.1511V0.349609H15.9897ZM0.355469 12.5733V24.1262H3.60695H9.57881V21.3125H3.60695V19.8271H9.57881V16.8818H3.60695V15.3871H9.57881V12.5733H3.60695H0.355469ZM30.8221 12.5733H34.0736H40.0454V15.3871H34.0736V16.8818H40.0454V19.8271H34.0736V21.3125H40.0454V24.1262H34.0736H30.8221V12.5733ZM45.6207 12.5733H48.9655V15.3871H45.6207V12.5733ZM45.6207 21.3125H48.9655V24.1262H45.6207V21.3125Z" fill="#140C40" fill-opacity="0.5"/>
</g>
<defs>
<clipPath id="clip0_208_2968">
<rect width="53.7957" height="36" fill="white" transform="translate(0.355469 0.349609)"/>
</clipPath>
</defs>
</svg>
