<svg width="171" height="26" viewBox="0 0 171 26" fill="none" xmlns="http://www.w3.org/2000/svg">
<g clip-path="url(#clip0_208_2956)">
<path d="M15.6159 21.3521V25.157H1.26953V0.960938H15.4458V4.76586H5.14888V11.056H14.6019V14.8208H5.14888V21.3521H15.6159Z" fill="#140C40" fill-opacity="0.5"/>
<path d="M19.082 0.960938H22.7258V25.157H19.082V0.960938Z" fill="#140C40" fill-opacity="0.5"/>
<path d="M53.7998 22.1821C55.8275 22.1821 57.3451 21.251 58.1566 20.0385L61.1594 21.8338C59.6088 24.1851 57.0771 25.5985 53.7668 25.5985C48.1998 25.5985 44.582 21.6931 44.582 16.5082C44.582 11.3904 48.1933 7.41797 53.4922 7.41797C58.5227 7.41797 61.964 11.5645 61.964 16.5418C61.964 17.0576 61.8985 17.6136 61.8265 18.0959H48.3959C48.9719 20.7955 51.0976 22.1821 53.7998 22.1821ZM58.2872 15.0613C57.7836 12.087 55.6509 10.8076 53.4593 10.8076C50.725 10.8076 48.8669 12.4689 48.3633 15.0613H58.2872Z" fill="#140C40" fill-opacity="0.5"/>
<path d="M69.1573 7.52484V7.87317H73.1416V11.4704H69.1573V25.1561H65.5135V11.4637H62.9492V7.86649H65.5135V7.51816C65.5135 2.84907 68.0781 0.156149 73.1416 0.497789V4.09505C70.5769 3.86059 69.1573 4.86539 69.1573 7.52484Z" fill="#140C40" fill-opacity="0.5"/>
<path d="M82.417 22.1821C84.4451 22.1821 85.9627 21.251 86.7738 20.0385L89.7766 21.8338C88.226 24.1851 85.6943 25.5985 82.3844 25.5985C76.817 25.5985 73.1992 21.6931 73.1992 16.5082C73.1992 11.3904 76.8105 7.41797 82.1094 7.41797C87.1403 7.41797 90.5811 11.5645 90.5811 16.5418C90.5811 17.0576 90.5156 17.6136 90.4436 18.0959H77.02C77.589 20.7955 79.7152 22.1821 82.417 22.1821ZM86.9048 15.0613C86.4008 12.087 84.2681 10.8076 82.0769 10.8076C79.3422 10.8076 77.4845 12.4689 76.9805 15.0613H86.9048Z" fill="#140C40" fill-opacity="0.5"/>
<path d="M102.301 7.55859V11.6047C99.9071 11.4305 97.1008 12.5693 97.1008 16.4412V25.1497H93.457V7.86672H97.1008V10.7673C98.1149 8.42272 100.176 7.55859 102.301 7.55859Z" fill="#140C40" fill-opacity="0.5"/>
<path d="M112.159 22.1821C114.187 22.1821 115.705 21.251 116.516 20.0385L119.519 21.8338C117.968 24.1851 115.436 25.5985 112.126 25.5985C106.559 25.5985 102.941 21.6931 102.941 16.5082C102.941 11.3904 106.553 7.41797 111.852 7.41797C116.883 7.41797 120.323 11.5645 120.323 16.5418C120.323 17.0576 120.258 17.6136 120.186 18.0959H106.749C107.331 20.7955 109.457 22.1821 112.159 22.1821ZM116.647 15.0613C116.143 12.087 114.017 10.8076 111.819 10.8076C109.084 10.8076 107.227 12.4689 106.723 15.0613H116.647Z" fill="#140C40" fill-opacity="0.5"/>
<path d="M138.553 14.5388V25.1497H134.909V14.9206C134.909 12.2947 133.424 10.9081 131.128 10.9081C128.734 10.9081 126.843 12.3617 126.843 15.8853V25.1497H123.199V7.8668H126.843V10.0774C127.955 8.2821 129.78 7.41797 132.076 7.41797C135.851 7.41797 138.553 10.0506 138.553 14.5388Z" fill="#140C40" fill-opacity="0.5"/>
<path d="M147.364 11.4651V19.7582C147.364 21.9688 148.784 21.9353 151.551 21.7946V25.1507C145.945 25.8407 143.721 24.2531 143.721 19.7582V11.4651H140.613V7.8678H143.721V4.13655L147.364 3.03125V7.8678H151.551V11.4651H147.364Z" fill="#140C40" fill-opacity="0.5"/>
<path d="M162.112 22.1821C164.14 22.1821 165.658 21.251 166.469 20.0385L169.472 21.8338C167.921 24.1851 165.39 25.5985 162.079 25.5985C156.512 25.5985 152.895 21.6931 152.895 16.5082C152.895 11.3904 156.506 7.41797 161.805 7.41797C166.835 7.41797 170.276 11.5645 170.276 16.5418C170.276 17.0576 170.211 17.6136 170.139 18.0959H156.702C157.284 20.7955 159.411 22.1821 162.112 22.1821ZM166.6 15.0613C166.096 12.087 163.97 10.8076 161.772 10.8076C159.038 10.8076 157.179 12.4689 156.676 15.0613H166.6Z" fill="#140C40" fill-opacity="0.5"/>
<path d="M38.6427 15.7519C41.41 14.6131 43.3333 11.8465 43.3333 8.73823C43.3333 4.41752 39.9577 0.960938 35.7382 0.960938H26.2852V4.69217H30.1645H35.7316C37.7923 4.69217 39.4474 6.45397 39.4474 8.73823C39.4474 10.9823 37.7923 12.7843 35.7316 12.7843H30.1645H26.2852V25.157H30.1645V16.3414H34.7569L39.7548 25.157H44.0071L38.6427 15.7519Z" fill="#140C40" fill-opacity="0.5"/>
</g>
<defs>
<clipPath id="clip0_208_2956">
<rect width="170" height="25" fill="white" transform="translate(0.738281 0.849609)"/>
</clipPath>
</defs>
</svg>
