<svg width="126" height="57" viewBox="0 0 126 57" fill="none" xmlns="http://www.w3.org/2000/svg">
<path fill-rule="evenodd" clip-rule="evenodd" d="M51.4102 46.4805L41.918 49.8822C45.2803 49.3041 48.4386 48.1393 51.4102 46.4805ZM73.4407 44.8398C69.6705 45.7213 65.9667 46.7232 62.1445 47.1779C66.15 47.5069 69.8385 46.2862 73.4407 44.8398ZM64.0905 33.2093C64.1105 31.7189 63.1485 31.9057 62.266 32.0331C59.2813 32.4621 57.7469 34.7624 56.3012 36.976C55.2472 38.5891 54.355 40.3988 54.3304 42.4364C54.3207 43.2133 54.5275 43.8308 55.5328 43.2761C58.2776 41.7612 60.7453 39.9201 62.5259 37.2919C63.3742 36.0397 63.9631 34.6665 64.0905 33.2093ZM62.1589 45.4145C64.5866 45.5351 66.9161 44.8661 69.2416 44.2755C79.2896 41.7226 87.7536 36.3753 95.4252 29.5525C100.55 24.9946 105.189 19.9929 109.662 14.8175C110.07 14.3457 110.464 13.8522 111.079 13.6362C111.769 13.394 112.257 13.4494 111.932 14.3697C111.853 14.5965 111.538 14.8084 111.968 14.9404C113.452 15.3962 113.049 16.477 112.786 17.4601C112.293 19.3052 111.058 20.7595 110.001 22.2733C107.041 26.5147 103.917 30.6481 100.278 34.336C96.9002 37.7594 93.0638 40.655 89.1485 43.4415C86.6562 45.2152 84.0965 46.9848 81.1627 47.7863C79.2136 48.3187 77.6393 49.5091 75.7377 50.0507C72.0921 51.0886 68.4499 52.0837 64.6403 52.295C61.5048 52.4687 58.543 51.8472 55.8153 50.2871C54.9162 49.7725 54.0708 49.7365 53.158 50.1124C50.6977 51.1246 48.1974 52.0608 45.7051 52.9559C41.6505 54.4132 37.3833 55.2203 33.1128 55.8578C26.3014 56.8746 19.4803 57.1951 12.6672 55.8441C8.66287 55.0501 4.76648 54.007 1.75951 50.9715C0.967781 50.1723 0.380553 49.2903 0.417683 48.1027C0.433106 47.5909 0.594765 47.2036 1.09574 46.9894C1.68811 46.7369 1.74009 47.1568 2.01314 47.5407C3.88507 50.174 6.86862 50.5191 9.70365 51.1029C17.5164 52.712 25.2898 51.9751 33.0443 50.619C38.9782 49.5811 44.754 47.9742 50.3349 45.6933C50.7782 45.5122 51.3894 45.5276 51.0204 44.6908C49.7346 41.7752 49.9419 38.7939 50.9884 35.8926C52.6033 31.4142 55.2344 27.7834 60.0693 26.3964C62.6673 25.651 64.3998 26.4953 65.9239 28.7088C69.8077 34.3474 67.6764 40.4191 63.2482 44.0538C62.8512 44.3789 62.4548 44.7039 62.0589 45.0284C62.092 45.1575 62.1258 45.286 62.1589 45.4145Z" fill="#FA8C78"/>
<path fill-rule="evenodd" clip-rule="evenodd" d="M112.178 6.50517C115.218 5.54778 118.062 4.20253 120.616 2.28889C117.804 3.69413 114.991 5.09993 112.178 6.50517ZM118.463 19.282C118.534 16.0534 119.155 12.8933 119.652 9.71723C119.726 9.24254 120.064 8.725 119.468 8.31029C118.895 7.91214 118.453 8.31885 118.065 8.57419C115.949 9.96401 113.545 10.6552 111.24 11.6092C109.785 12.2124 108.431 13.0955 106.917 13.6696C104.585 14.5527 102.317 15.6118 100.049 16.6549C98.8998 17.1833 97.5529 17.1507 96.5532 18.1578C95.5724 19.1454 94.5093 18.8478 93.3023 17.2021C92.686 16.3624 92.4335 15.2428 93.4823 14.4459C94.3448 13.7907 95.2731 13.1909 96.2453 12.7174C102.68 9.58414 109.14 6.5029 115.579 3.37711C117.024 2.67564 118.423 1.87591 119.834 1.10475C122.4 -0.297633 123.486 0.0788104 124.857 2.67564C125.921 4.69152 126.006 6.68113 125.29 8.82839C123.913 12.9618 122.653 17.1347 122.077 21.4732C121.961 22.3426 121.968 23.2275 121.886 24.1026C121.793 25.116 121.317 25.3747 120.447 24.7784C118.518 23.4577 118.355 23.0127 118.463 19.282Z" fill="#FA8C78"/>
</svg>
