<svg width="264" height="498" viewBox="0 0 264 498" fill="none" xmlns="http://www.w3.org/2000/svg">
<path d="M214.373 0.556335H-184.004C-197.137 0.556335 -209.732 5.77338 -219.018 15.0598C-228.304 24.3461 -233.521 36.9412 -233.521 50.0741V448.462C-233.521 461.595 -228.304 474.19 -219.018 483.476C-209.732 492.763 -197.137 497.98 -184.004 497.98H214.373C227.506 497.98 240.101 492.763 249.387 483.476C258.673 474.19 263.891 461.595 263.891 448.462V50.0568C263.891 36.9239 258.673 24.3289 249.387 15.0425C240.101 5.7561 227.506 0.539063 214.373 0.539062M206.266 440.355H-175.902V58.1582H206.266V440.355Z" fill="#E7EDFA"/>
</svg>
