<svg width="113" height="124" viewBox="0 0 113 124" fill="none" xmlns="http://www.w3.org/2000/svg">
<path opacity="0.12" d="M8.58678 89.3909L63.3365 120.999C69.2751 124.423 78.8926 124.423 84.8312 120.999L108.214 107.503C114.152 104.079 114.152 98.5193 108.214 95.0953L53.464 63.487C47.5254 60.0629 37.9079 60.0629 31.9692 63.487L8.58678 76.9763C2.64816 80.4003 2.64816 85.96 8.58678 89.384V89.3909Z" fill="black"/>
<path fill-rule="evenodd" clip-rule="evenodd" d="M22.3398 82.7144L29.9801 96.2382C29.9801 96.2382 31.7163 95.2737 32.7152 94.6468C33.659 94.0543 34.2378 92.8486 34.2378 91.1608C34.2378 87.6679 31.7714 83.4102 28.7332 81.6535C27.0797 80.6958 25.5916 80.6821 24.5858 81.4261C23.7384 82.053 22.3398 82.7144 22.3398 82.7144Z" fill="#32257B"/>
<path fill-rule="evenodd" clip-rule="evenodd" d="M20.707 86.2691C20.707 89.762 23.1734 94.0196 26.2116 95.7764C29.2498 97.5332 31.7162 96.1209 31.7162 92.628C31.7162 89.1351 29.2498 84.8774 26.2116 83.1206C23.1734 81.3639 20.707 82.7762 20.707 86.2691Z" fill="#140C40"/>
<path fill-rule="evenodd" clip-rule="evenodd" d="M23.6074 87.9437C23.6074 89.5972 24.7717 91.6157 26.2116 92.4425C27.6515 93.2761 28.8158 92.6078 28.8158 90.9544C28.8158 89.3009 27.6515 87.2823 26.2116 86.4556C24.7717 85.622 23.6074 86.2903 23.6074 87.9437Z" fill="#32257B"/>
<path fill-rule="evenodd" clip-rule="evenodd" d="M55.2617 101.447L62.902 114.971C62.902 114.971 64.6381 114.006 65.6371 113.379C66.5809 112.787 67.1596 111.581 67.1596 109.893C67.1596 106.4 64.6932 102.143 61.655 100.386C60.0016 99.4283 58.5135 99.4145 57.5076 100.159C56.6603 100.785 55.2617 101.447 55.2617 101.447Z" fill="#32257B"/>
<path fill-rule="evenodd" clip-rule="evenodd" d="M53.623 105.008C53.623 108.501 56.0894 112.759 59.1276 114.516C62.1658 116.272 64.6322 114.86 64.6322 111.367C64.6322 107.874 62.1658 103.617 59.1276 101.86C56.0894 100.103 53.623 101.515 53.623 105.008Z" fill="#140C40"/>
<path fill-rule="evenodd" clip-rule="evenodd" d="M56.5234 106.682C56.5234 108.335 57.6877 110.354 59.1276 111.181C60.5675 112.014 61.7318 111.346 61.7318 109.693C61.7318 108.039 60.5675 106.021 59.1276 105.194C57.6877 104.36 56.5234 105.029 56.5234 106.682Z" fill="#32257B"/>
<path d="M79.8286 104.341C80.304 104.341 80.7725 104.093 81.0274 103.652C81.4063 102.991 81.1789 102.15 80.5175 101.771L13.3395 63.0875V35.4061C13.3395 29.2677 10.9489 23.4944 6.60858 19.1472L4.22487 16.7635C3.47393 16.0126 3.12257 14.9723 3.26725 13.9113C3.41192 12.8572 4.03197 11.9478 4.96203 11.4311L18.3274 3.97686C21.0762 2.44054 24.5485 2.92279 26.7737 5.14805L28.9508 7.32509C32.7743 11.1487 34.8756 16.2261 34.8756 21.6343V50.9071L103.438 90.39C104.1 90.7689 104.94 90.5416 105.319 89.8802C105.698 89.2188 105.471 88.3783 104.809 87.9994L37.6313 49.3157V21.6412C37.6313 15.4959 35.2407 9.72947 30.9004 5.38229L28.7234 3.20526C25.6301 0.111936 20.8006 -0.56322 16.9839 1.57248L3.61861 9.03365C1.92382 9.97749 0.80086 11.6172 0.539065 13.5393C0.27038 15.4614 0.904201 17.3491 2.27518 18.7132L4.65201 21.0969C8.4756 24.9205 10.5768 29.9979 10.5768 35.4061V64.6789L79.1397 104.162C79.3532 104.286 79.5944 104.348 79.8286 104.348V104.341Z" fill="#399EFF"/>
<path d="M109.509 85.802V92.5604C109.509 94.6479 108.131 96.7354 105.376 98.3268L83.6535 110.865C82.9783 111.251 82.255 111.596 81.4902 111.892V80.9863L109.516 85.8089L109.509 85.802Z" fill="#43BCFF"/>
<path d="M66.3593 78.3806V112.07C65.4086 111.739 64.5061 111.339 63.6793 110.864L12.8153 81.5015C10.0595 79.9101 8.68164 77.8226 8.68164 75.7351V68.46L66.3593 78.3806Z" fill="#399EFF"/>
<path d="M81.4806 80.986V111.892C76.9267 113.642 71.0088 113.697 66.3516 112.071V78.3818L81.4806 80.986Z" fill="#8FD4FF"/>
<path d="M12.8094 74.689L63.6735 104.051C69.185 107.234 78.1273 107.234 83.6388 104.051L105.361 91.5128C110.872 88.3299 110.872 83.1698 105.361 79.9869L54.4969 50.6245C48.9854 47.4416 40.043 47.4416 34.5315 50.6245L12.8094 63.1631C7.29791 66.346 7.29791 71.5061 12.8094 74.689Z" fill="#E7EDFA"/>
<path d="M10.4189 28.7714C10.6531 28.7714 10.8874 28.7094 11.1078 28.5854L35.317 14.6069C35.9784 14.228 36.1989 13.3806 35.82 12.7261C35.441 12.0648 34.6005 11.8374 33.9392 12.2232L9.72308 26.1948C9.06171 26.5737 8.84125 27.4211 9.22016 28.0756C9.47507 28.5165 9.93665 28.7646 10.412 28.7646L10.4189 28.7714Z" fill="#399EFF"/>
<path opacity="0.12" d="M14.2852 68.3141L43.4547 85.1586L72.6311 68.3141L43.4547 51.4766L14.2852 68.3141Z" fill="black"/>
<path d="M18.8184 68.2529L43.4547 82.4794V57.7949L18.8184 43.5684V68.2529Z" fill="#E60026"/>
<path d="M43.4531 82.4794L68.0963 68.2529V43.5684L43.4531 57.7949V82.4794Z" fill="#F62121"/>
<path d="M18.8184 43.5683L43.4547 57.7948L68.0979 43.5683L43.4547 29.3418L18.8184 43.5683Z" fill="#FF590E"/>
<path d="M17.8281 43.5273V43.589C17.8281 43.589 17.8281 43.5479 17.835 43.5273H17.8281Z" fill="#F9BB58"/>
<path opacity="0.12" d="M43.4551 85.1589L72.6315 102.003L101.801 85.1589L72.6315 68.3145L43.4551 85.1589Z" fill="black"/>
<path d="M47.9883 85.0967L72.6315 99.3232V74.6386L47.9883 60.4121V85.0967Z" fill="#E60026"/>
<path d="M72.6309 99.3232L97.2672 85.0967V60.4121L72.6309 74.6386V99.3232Z" fill="#F62121"/>
<path d="M47.9883 60.4121L72.6315 74.6386L97.2678 60.4121L72.6315 46.1855L47.9883 60.4121Z" fill="#FF590E"/>
<path d="M46.998 60.3711V60.4327C46.998 60.4327 46.998 60.3916 47.0049 60.3711H46.998Z" fill="#F9BB58"/>
<path opacity="0.12" d="M39.3027 53.5853L60.3084 65.7105L81.314 53.5853L60.3084 41.4531L39.3027 53.5853Z" fill="black"/>
<path d="M42.5684 53.5372L60.3084 63.7817V46.0072L42.5684 35.7627V53.5372Z" fill="#E60026"/>
<path d="M60.3086 63.7817L78.0556 53.5372V35.7627L60.3086 46.0072V63.7817Z" fill="#F62121"/>
<path d="M42.5684 35.763L60.3084 46.0075L78.0554 35.763L60.3084 25.5186L42.5684 35.763Z" fill="#FF782D"/>
</svg>
