<svg width="119" height="114" viewBox="0 0 119 114" fill="none" xmlns="http://www.w3.org/2000/svg">
<path opacity="0.12" d="M118.217 74.1244L52.2438 112.11L0.927734 82.6139L66.9007 44.8105L118.217 74.1244Z" fill="black"/>
<path d="M97.433 81.1112L64.7207 99.9857V61.9116L97.433 43.0303V81.1112Z" fill="#399EFF"/>
<path d="M94.2796 44.8574V60.7194L80.7871 52.372L94.2796 44.8574Z" fill="#140C40"/>
<path opacity="0.12" d="M88.058 57.125L78.5124 62.6357L68.9668 57.125L78.5124 51.6143L88.058 57.125Z" fill="black"/>
<path d="M86.5747 57.1039L78.5117 61.7616V53.6851L86.5747 49.0273V57.1039Z" fill="#8FD4FF"/>
<path d="M78.5122 61.7616L70.4492 57.1039V49.0273L78.5122 53.6851V61.7616Z" fill="#BDE6FF"/>
<path d="M86.5752 49.0278L78.5122 53.6855L70.4492 49.0278L78.5122 44.3701L86.5752 49.0278Z" fill="white"/>
<path opacity="0.12" d="M97.601 62.6357L88.0554 68.1465L78.5098 62.6357L88.0554 57.125L97.601 62.6357Z" fill="black"/>
<path d="M96.1177 62.6146L88.0547 67.2723V59.1958L96.1177 54.5381V62.6146Z" fill="#8FD4FF"/>
<path d="M88.0552 67.2723L79.9922 62.6146V54.5381L88.0552 59.1958V67.2723Z" fill="#BDE6FF"/>
<path d="M96.1182 54.5386L88.0552 59.1963L79.9922 54.5386L88.0552 49.8809L96.1182 54.5386Z" fill="white"/>
<path opacity="0.12" d="M92.9363 52.934L86.0648 56.9012L79.1934 52.934L86.0648 48.9668L92.9363 52.934Z" fill="black"/>
<path d="M91.8731 52.9208L86.0645 56.272V50.4566L91.8731 47.1055V52.9208Z" fill="#8FD4FF"/>
<path d="M86.0645 56.272L80.2559 52.9208V47.1055L86.0645 50.4566V56.272Z" fill="#BDE6FF"/>
<path d="M91.8731 47.105L86.0645 50.4561L80.2559 47.105L86.0645 43.7539L91.8731 47.105Z" fill="white"/>
<path d="M52.2437 67.6653L52.2031 103.587L64.7207 96.3427V61.8499L94.2783 44.8032V79.2487L109.924 70.1973L109.951 34.3369L52.2437 67.6653Z" fill="#8FD4FF"/>
<path d="M62.2032 101.441L52.1973 107.297L52.204 103.634L62.2032 97.8594V101.441Z" fill="#009573"/>
<path d="M109.923 73.8129L99.9512 79.6486V76.0199L109.923 70.252V73.8129Z" fill="#009573"/>
<path d="M52.1966 107.297L9.05859 82.35V78.6875L52.2034 103.635L52.1966 107.297Z" fill="#17A984"/>
<path d="M52.244 67.6122L9.09921 42.665L9.05859 78.6879L52.2034 103.635L52.244 67.6122Z" fill="#E7EDFA"/>
<path d="M52.2988 67.6182L109.952 34.3372L81.132 28.0547L52.2988 67.6182Z" fill="#8FD4FF"/>
<path d="M80.8063 26.2061L49.0215 70.1632L49.9693 70.847L81.1381 28.0542L112.3 34.8513L113.024 33.4837L80.8063 26.2061Z" fill="#E60026"/>
<path d="M80.785 26.1998L37.4507 0.616211L5.44922 45.0067L49.0205 70.1637L80.785 26.1998Z" fill="#FF590E"/>
<path d="M69.1412 7.77203L113.031 33.4842L80.7855 26.1998L37.4512 0.616211L69.1412 7.77203Z" fill="#F62121"/>
<path d="M62.2031 59.9751V101.441L64.7215 99.9854V61.9113L97.4339 43.03V81.1108L99.9523 79.6553V38.1895L62.2031 59.9751Z" fill="#140C40"/>
<path d="M97.4341 81.1112L94.2793 79.3036V44.8582L97.4341 43.0303V81.1112Z" fill="#2051A4"/>
<path opacity="0.12" d="M97.0276 97.3325L83.2169 105.307L69.4062 97.3325L83.2169 89.3643L97.0276 97.3325Z" fill="black"/>
<path d="M94.8814 97.305L83.2168 104.041V92.3562L94.8814 85.6201V97.305Z" fill="#E60026"/>
<path d="M83.2173 104.041L71.5527 97.305V85.6201L83.2173 92.3562V104.041Z" fill="#F62121"/>
<path d="M94.8819 85.6199L83.2173 92.356L71.5527 85.6199L83.2173 78.8838L94.8819 85.6199Z" fill="#FF590E"/>
<path opacity="0.12" d="M83.2161 105.307L69.4055 113.282L55.6016 105.307L69.4055 97.332L83.2161 105.307Z" fill="black"/>
<path d="M81.0708 105.281L69.4062 112.01V100.325L81.0708 93.5957V105.281Z" fill="#E60026"/>
<path d="M69.4059 112.01L57.748 105.281V93.5957L69.4059 100.325V112.01Z" fill="#F62121"/>
<path d="M81.0705 93.5955L69.4059 100.325L57.748 93.5955L69.4059 86.8594L81.0705 93.5955Z" fill="#FF590E"/>
<path opacity="0.12" d="M85.185 90.3581L75.24 96.099L65.2949 90.3581L75.24 84.6172L85.185 90.3581Z" fill="black"/>
<path d="M83.635 90.3389L75.2402 95.1861V86.7711L83.635 81.9238V90.3389Z" fill="#E60026"/>
<path d="M75.2394 95.1861L66.8379 90.3389V81.9238L75.2394 86.7711V95.1861Z" fill="#F62121"/>
<path d="M83.6341 81.9234L75.2394 86.7707L66.8379 81.9234L75.2394 77.0762L83.6341 81.9234Z" fill="#FF782D"/>
<path d="M82.547 37.9249C82.547 39.7663 81.2472 42.0072 79.6495 42.9346C78.045 43.8621 76.752 43.1174 76.752 41.276C76.752 39.4346 78.0518 37.1937 79.6495 36.2663C81.254 35.3388 82.547 36.0835 82.547 37.9249Z" fill="white"/>
</svg>
