<svg xmlns="http://www.w3.org/2000/svg" xmlns:xlink="http://www.w3.org/1999/xlink" width="15" height="15" preserveAspectRatio="xMidYMid meet" viewBox="0 0 512 512" style="-ms-transform: rotate(360deg); -webkit-transform: rotate(360deg); transform: rotate(360deg);"><clipPath id="IconifyId-1836a74fd75-96e0cd-9241"><circle cx="256" cy="256" r="256"/></clipPath><g clip-path="url(#IconifyId-1836a74fd75-96e0cd-9241)"><path fill="#ffda44" d="M0 0v57l32 29l-32 28v57l32 29l-32 28v57l32 28l-32 28v57l32 29l-32 28v57h512v-57l-32-28l32-29v-57l-32-28l32-28v-57l-32-28l32-29v-57l-32-28l32-29V0H0z"/><path fill="#d80027" d="M0 57h512v57H0Zm0 114h512v57H0Zm0 114h512v56H0Zm0 113h512v57H0Z"/></g></svg>
