<svg xmlns="http://www.w3.org/2000/svg" xmlns:xlink="http://www.w3.org/1999/xlink" width="15" height="15" preserveAspectRatio="xMidYMid meet" viewBox="0 0 512 512" style="-ms-transform: rotate(360deg); -webkit-transform: rotate(360deg); transform: rotate(360deg);"><clipPath id="IconifyId-1836a751886-8b5ad2-9248"><circle cx="256" cy="256" r="256"/></clipPath><g clip-path="url(#IconifyId-1836a751886-8b5ad2-9248)"><path fill="#eee" d="m0 160l256-32l256 32v192l-256 32L0 352Z"/><path fill="#d80027" d="M0 0h512v160H0Z"/><path fill="#333" d="M0 352h512v160H0Z"/><path fill="#6da544" d="M233 294c0 25-26 42-26 42h98s-26-17-26-42z"/><path fill="#496e2d" d="M256 176c-9 0-17 4-23 10a32 32 0 0 0-48 24a32 32 0 0 0 2 59a32 32 0 0 0 46 25c6 6 14 10 23 10s17-4 23-10c4 3 9 4 14 4c17 0 31-13 32-29a32 32 0 0 0 2-59a32 32 0 0 0-48-24c-6-6-14-10-23-10z"/></g></svg>
