<svg xmlns="http://www.w3.org/2000/svg" xmlns:xlink="http://www.w3.org/1999/xlink" width="15" height="15" preserveAspectRatio="xMidYMid meet" viewBox="0 0 512 512" style="-ms-transform: rotate(360deg); -webkit-transform: rotate(360deg); transform: rotate(360deg);"><clipPath id="IconifyId-1836a753c05-f0978a-9254"><circle cx="256" cy="256" r="256"/></clipPath><g clip-path="url(#IconifyId-1836a753c05-f0978a-9254)"><path fill="#338af3" d="M0 0h512v512H0z"/><path fill="#eee" d="m256 111.3l11 34h35.8l-29 21l11.1 34l-28.9-21l-29 21l11.1-34l-29-21H245zM111.3 256l34-11v-35.8l21 29l34-11.1l-21 28.9l21 29l-34-11.1l-21 29V267zM256 400.7l-11-34h-35.8l29-21l-11.1-34l28.9 21l29-21l-11.1 34l29 21H267zM400.7 256l-34 11v35.8l-21-29l-34 11.1l21-28.9l-21-29l34 11.1l21-29V245z"/></g></svg>
