<svg xmlns="http://www.w3.org/2000/svg" xmlns:xlink="http://www.w3.org/1999/xlink" width="15" height="15" preserveAspectRatio="xMidYMid meet" viewBox="0 0 512 512" style="-ms-transform: rotate(360deg); -webkit-transform: rotate(360deg); transform: rotate(360deg);"><clipPath id="IconifyId-1836a762c96-c8545-9310"><circle cx="256" cy="256" r="256"/></clipPath><g clip-path="url(#IconifyId-1836a762c96-c8545-9310)"><path fill="#d80027" d="m0 0l216.9 301.6L512 512V0z"/><path fill="#ffda44" d="m0 0l512 512H0z"/><path fill="#ff9811" d="M320.4 320.4A38.9 38.9 0 0 1 272 265l-3.2-1.7a72.5 72.5 0 0 0 30.5-125l-23.3 24a38.9 38.9 0 0 1-23.8 69.5v3.6a72.5 72.5 0 0 0-123.2 36l32.4 8.2a38.9 38.9 0 0 1 72-14l3.2-2a72.5 72.5 0 0 0 92.7 89l-9-32.3zM252.7 254z"/><path fill="#eee" d="M348.2 170.8L330 235.4l-54.3-10l-35-72.1l-94.4 33.5l-7.4-21l-24.7-3l18.6 52.4l65-16.6l18.4 52l-45 66.3l76.4 65l-14.5 17l9.7 22.9l36-42.4l-46.7-48l35.8-42l79.8 5.8l18.2-98.5l22 4l15-19.8zM253.4 255z"/></g></svg>
