<svg xmlns="http://www.w3.org/2000/svg" xmlns:xlink="http://www.w3.org/1999/xlink" width="15" height="15" preserveAspectRatio="xMidYMid meet" viewBox="0 0 512 512" style="-ms-transform: rotate(360deg); -webkit-transform: rotate(360deg); transform: rotate(360deg);"><clipPath id="IconifyId-1836a77ae1a-4d4e87-9407"><circle cx="256" cy="256" r="256"/></clipPath><g clip-path="url(#IconifyId-1836a77ae1a-4d4e87-9407)"><path fill="#0052b4" d="M64 0L0 64v160l32 32l-32 32v224l256-32l256 32V288l-32-32l32-32V64L448 0H288l-32 32l-32-32H64z"/><path fill="#d80027" d="M256 256L0 512h512z"/><path fill="#ffda44" d="M0 224v64l512-64v64z"/><path fill="#ffda44" d="M256 256L0 64V0h64zm0 0L448 0h64v64zm0 0L224 0h64z"/></g></svg>
