<svg xmlns="http://www.w3.org/2000/svg" xmlns:xlink="http://www.w3.org/1999/xlink" width="15" height="15" preserveAspectRatio="xMidYMid meet" viewBox="0 0 512 512" style="-ms-transform: rotate(360deg); -webkit-transform: rotate(360deg); transform: rotate(360deg);"><clipPath id="IconifyId-1836a78489c-7ba73c-7407"><circle cx="256" cy="256" r="256"/></clipPath><g clip-path="url(#IconifyId-1836a78489c-7ba73c-7407)"><path fill="#eee" d="m0 167l253.8-19.3L512 167v178l-254.9 32.3L0 345z"/><path fill="#d80027" d="M0 0h512v167H0z"/><path fill="#333" d="M0 345h512v167H0z"/><path fill="#6da544" d="m153 194.8l13.8 42.5h44.7l-36.2 26.3l13.8 42.5l-36.1-26.3l-36.2 26.3l13.8-42.5l-36.2-26.3h44.7zm206 0l13.9 42.5h44.7l-36.2 26.3l13.8 42.5l-36.2-26.3l-36.1 26.3l13.8-42.5l-36.2-26.3h44.7z"/></g></svg>
