<svg xmlns="http://www.w3.org/2000/svg" xmlns:xlink="http://www.w3.org/1999/xlink" width="15" height="15" preserveAspectRatio="xMidYMid meet" viewBox="0 0 512 512" style="-ms-transform: rotate(360deg); -webkit-transform: rotate(360deg); transform: rotate(360deg);"><defs><path id="IconifyId-1836a787074-3c9a68-7410" fill="#eee" d="m188 133.6l5.6 17h17.9L197 161l5.5 17l-14.4-10.5l-14.5 10.5l5.5-17l-14.4-10.5h17.8zM115.5 256l7 21.3h22.3l-18 13l6.8 21.4l-18-13.2l-18.1 13.2l6.9-21.3l-18.1-13.1h22.3zm0-178l7 21.2h22.3l-18 13.1l6.8 21.3l-18-13.2l-18.1 13.2l6.9-21.3l-18.1-13.1h22.3zM59.8 178l6.9 21.3H89l-18 13.2l6.9 21.2l-18.1-13.1l-18.1 13.1l7-21.2l-18.2-13.2H53z"/></defs><clipPath id="IconifyId-1836a787074-3c9a68-7411"><circle cx="256" cy="256" r="256"/></clipPath><g clip-path="url(#IconifyId-1836a787074-3c9a68-7411)"><path fill="#0052b4" d="M0 0h512v512H0z"/><use xlink:href="#IconifyId-1836a787074-3c9a68-7410"/><use xlink:href="#IconifyId-1836a787074-3c9a68-7410"/><path fill="#ffda44" d="M411.8 122.4L144.7 345h361.7v-35.8a167.4 167.4 0 0 1-97.9-152.3c0-11.7 1-23.5 3.3-34.5zm94.6 244.9H144.7v33.4h361.7z"/></g></svg>
