<svg width="34" height="33" viewBox="0 0 34 33" fill="none" xmlns="http://www.w3.org/2000/svg">
<path d="M1.91752 26.8409L3.65318 25.8388L3.01171 25.7494L3.40396 25.523L4.04101 25.6149L4.40377 25.8243L2.28028 27.0503L1.91752 26.8409ZM5.3451 28.8198L6.31246 28.2613C6.42159 28.1983 6.47959 28.1336 6.48647 28.0672C6.49434 28.0002 6.45206 27.94 6.35965 27.8867C6.30263 27.8538 6.23824 27.8319 6.16647 27.8211C6.09569 27.8098 6.02147 27.8112 5.9438 27.8254C5.86712 27.839 5.79388 27.866 5.72408 27.9063L5.6592 27.7615C5.76832 27.6974 5.88973 27.6557 6.02343 27.6364C6.1591 27.6171 6.29378 27.6188 6.42749 27.6415C6.56119 27.6642 6.68112 27.7062 6.7873 27.7675C6.96327 27.8691 7.04487 27.9775 7.03209 28.0927C7.02128 28.2079 6.92985 28.3152 6.75781 28.4145L5.70049 29.025L5.3451 28.8198ZM3.42954 27.7139L5.02215 26.7944L5.33625 26.9757L4.84224 27.2609L4.88648 27.2865L3.78787 27.9207L3.42954 27.7139ZM4.38953 28.2681L5.35247 27.7122C5.46356 27.648 5.52304 27.5825 5.5309 27.5155C5.53877 27.4485 5.496 27.3881 5.40261 27.3341C5.31216 27.2819 5.20845 27.2578 5.09146 27.2618C4.97545 27.2663 4.8678 27.2972 4.76851 27.3546L4.71542 27.2013C4.81865 27.1417 4.93711 27.1028 5.07081 27.0847C5.20451 27.0665 5.33822 27.0688 5.47192 27.0915C5.60758 27.1142 5.72949 27.1568 5.83763 27.2192C5.95658 27.2879 6.03032 27.36 6.05883 27.4355C6.0893 27.5109 6.08045 27.5853 6.03228 27.6585C5.98608 27.7317 5.90841 27.7998 5.79929 27.8629L4.74344 28.4724L4.38953 28.2681Z" fill="#4760FF"/>
<path d="M26.5234 31.0392L24.8152 29.991L24.6505 30.3571L24.2644 30.1202L24.4335 29.7568L24.8017 29.5571L26.8916 30.8395L26.5234 31.0392ZM30.0027 29.1527L29.0506 28.5685C28.9432 28.5026 28.8321 28.4661 28.7172 28.4591C28.6014 28.4514 28.4965 28.473 28.4027 28.5239C28.3448 28.5553 28.306 28.5914 28.2862 28.6324C28.2655 28.6727 28.2668 28.7156 28.2902 28.7611C28.3126 28.806 28.3581 28.8495 28.4268 28.8916L28.1752 28.9224C28.0658 28.8564 27.9955 28.7844 27.9641 28.7063C27.9328 28.6272 27.9379 28.5495 27.9792 28.4734C28.0206 28.3973 28.0952 28.33 28.203 28.2716C28.3816 28.1747 28.5706 28.1326 28.7698 28.1454C28.9692 28.1569 29.1535 28.2147 29.3228 28.3186L30.3634 28.9571L30.0027 29.1527ZM28.0582 30.207L26.4908 29.2452L26.8096 29.0723L27.2958 29.3707L27.3407 29.3463L28.422 30.0098L28.0582 30.207ZM29.0327 29.6786L28.085 29.0971C27.9756 29.03 27.863 28.9926 27.7472 28.985C27.6314 28.9774 27.526 28.9992 27.4312 29.0506C27.3394 29.1004 27.2961 29.1592 27.3011 29.2269C27.3072 29.294 27.3591 29.3576 27.4568 29.4176L27.1907 29.4411C27.0891 29.3787 27.0236 29.3086 26.9942 29.2306C26.9648 29.1526 26.9708 29.0755 27.0122 28.9994C27.0536 28.9221 27.1292 28.8538 27.239 28.7942C27.3597 28.7288 27.4856 28.6896 27.6168 28.6766C27.748 28.6625 27.8766 28.6711 28.0026 28.7023C28.1287 28.7323 28.2454 28.7803 28.3528 28.8462L29.3919 29.4838L29.0327 29.6786Z" fill="#4760FF"/>
<path fill-rule="evenodd" clip-rule="evenodd" d="M12.7502 16.6791V18.0235L13.4224 18.3596L14.0946 17.3513L21.8253 21.2166L22.4975 22.8972L23.1697 23.2333V12.1415L12.4141 6.76367V16.511L12.7502 16.6791Z" fill="white"/>
<path fill-rule="evenodd" clip-rule="evenodd" d="M16.44 14.8283L15.7677 15.1644L18.4567 16.5089L19.1289 16.1727L18.7928 16.0047L18.4567 16.1727L16.44 15.1644L16.7761 14.9963L16.44 14.8283ZM16.44 10.4588L15.7677 10.7949L18.4567 12.1394L19.1289 11.8033L18.7928 11.6352L18.4567 11.8033L16.44 10.7949L16.7761 10.6269L16.44 10.4588ZM17.7844 3.40039L11.7344 6.42542L23.1623 12.1394L29.2123 9.11434L17.7844 3.40039Z" fill="white"/>
<path fill-rule="evenodd" clip-rule="evenodd" d="M12.3285 6.81521V16.5104C12.3285 16.5424 12.3461 16.5709 12.3747 16.5852L12.6646 16.7297V18.0221C12.6646 18.054 12.6822 18.0826 12.7108 18.0969L13.383 18.433C13.4209 18.4523 13.4671 18.4397 13.4906 18.4044L14.1216 17.4574L21.7573 21.2757L22.4178 22.9269C22.4254 22.9462 22.4396 22.9613 22.4581 22.9706L23.1304 23.3067C23.1539 23.3184 23.1825 23.3184 23.206 23.3067L23.8782 22.9706C23.8967 22.9613 23.911 22.9462 23.9185 22.9269L24.579 21.2757L26.8369 20.1464L27.4679 21.0934C27.4914 21.1286 27.5377 21.1404 27.5755 21.1219L28.2477 20.7858C28.2763 20.7715 28.2939 20.743 28.2939 20.711V19.4187L28.5838 19.2741C28.6124 19.2599 28.63 19.2313 28.63 19.1994V9.50413L29.256 9.19154C29.2846 9.17726 29.3023 9.14785 29.3023 9.11676C29.3023 9.08566 29.2846 9.05625 29.256 9.04197L17.8282 3.32718C17.8046 3.31542 17.7769 3.31542 17.7534 3.32718L11.7025 6.35221C11.6739 6.3665 11.6562 6.39591 11.6562 6.427C11.6562 6.45809 11.6739 6.4875 11.7025 6.50178L12.3285 6.81437V6.81521ZM22.2245 21.5101L23.0841 21.9395V23.0958L22.5623 22.8344L21.9842 21.3891L22.2245 21.5093V21.5101ZM12.4965 16.4583L14.1309 17.2751L21.8615 21.1404L23.0841 21.7521V12.193L22.58 11.941V20.8799C22.58 20.9093 22.5648 20.9362 22.5405 20.9513C22.5153 20.9665 22.485 20.9682 22.459 20.9547L13.0469 16.2491C13.0184 16.2348 13.0007 16.2063 13.0007 16.1743V7.15133L12.4965 6.89924V16.4583ZM13.1688 11.6048V16.1222L22.4119 20.7438V16.2264L13.1688 11.6048ZM12.8327 16.8146L13.9704 17.3835L13.3923 18.2507L12.8327 17.9709V16.8146ZM15.7367 15.0912C15.6947 15.113 15.6921 15.15 15.6896 15.192C15.6837 15.3282 15.6896 15.466 15.6896 15.6021C15.6896 15.6853 15.656 15.8592 15.7358 15.9138C15.7636 15.9323 15.7989 15.9449 15.8283 15.96L17.2442 16.6684L18.0231 17.0583C18.1525 17.123 18.2819 17.2003 18.4164 17.2549C18.4491 17.2684 18.4693 17.2692 18.5029 17.2566C18.6063 17.2171 18.7063 17.1549 18.8054 17.1054C18.9205 17.0482 19.0382 16.9944 19.1508 16.9323C19.239 16.8844 19.2171 16.7894 19.2171 16.702V16.2558C19.2171 16.2121 19.2272 16.1542 19.1953 16.1189C19.1751 16.0962 19.1382 16.0836 19.1121 16.071L18.9104 15.9701C18.8592 15.9449 18.8163 15.913 18.7583 15.9323C18.7054 15.95 18.6525 15.9853 18.6029 16.0105L18.4609 16.081L16.8643 15.2828C16.8643 15.1895 16.8812 15.0811 16.8643 14.9904C16.8517 14.9223 16.777 14.903 16.7223 14.8752C16.6358 14.8324 16.4955 14.7215 16.3971 14.7601C16.2829 14.8055 16.1736 14.8719 16.0644 14.9265L15.7358 15.0912H15.7367ZM17.1685 15.9575L18.3794 16.5625V17.0465L15.8585 15.7861V15.3021L17.1685 15.9575ZM16.5946 14.9979L16.4467 14.924L15.9627 15.166L18.4634 16.4163L18.9474 16.1743L18.7995 16.1004L18.6281 16.1861C18.5684 16.2163 18.4945 16.2726 18.4256 16.2499C18.3794 16.2348 18.3332 16.2037 18.2895 16.1819L17.4694 15.7718L16.6097 15.3424C16.5459 15.3105 16.477 15.2828 16.4156 15.245C16.3955 15.2324 16.3787 15.2223 16.3686 15.1987C16.3198 15.0828 16.5324 15.029 16.5938 14.9979H16.5946ZM13.1688 7.23535V11.4166L22.4119 16.0382V11.8569L13.1688 7.23535ZM15.7367 10.7217C15.6955 10.7435 15.6913 10.7797 15.6896 10.8217C15.6846 10.9553 15.6896 11.0897 15.6896 11.2234C15.6896 11.3082 15.6543 11.4889 15.7358 11.5443C15.7619 11.562 15.7947 11.5738 15.8232 11.588L17.2374 12.2956L18.0239 12.6888C18.1542 12.7535 18.2836 12.8317 18.418 12.8863C18.4516 12.8997 18.4718 12.8997 18.5054 12.8863C18.6113 12.8451 18.713 12.7829 18.8138 12.7317C18.9272 12.6754 19.0432 12.6224 19.155 12.5611C19.2415 12.514 19.2188 12.4149 19.2188 12.3292V11.8889C19.2188 11.8452 19.2298 11.7855 19.1987 11.7494C19.1785 11.7258 19.1407 11.7132 19.1146 11.6998L18.913 11.599C18.8617 11.5738 18.8189 11.5418 18.7609 11.5611C18.7079 11.5788 18.655 11.6141 18.6054 11.6393L18.4634 11.7099L16.8669 10.9116C16.8669 10.8183 16.8837 10.7099 16.8669 10.6192C16.8543 10.5511 16.7795 10.5318 16.7249 10.5041C16.6383 10.4612 16.498 10.3503 16.3997 10.3889C16.2854 10.4343 16.1762 10.5007 16.0669 10.5553L15.7384 10.72L15.7367 10.7217ZM17.1685 11.588L18.3794 12.193V12.677L15.8585 11.4166V10.9326L17.1685 11.588ZM15.9619 10.7965L18.4626 12.0468L18.9466 11.8048L18.7987 11.7309L18.6273 11.8166C18.5676 11.8468 18.4937 11.9031 18.4248 11.8805C18.3752 11.8637 18.3273 11.8317 18.2811 11.8082L17.4542 11.3948L16.5955 10.9654C16.5366 10.936 16.3963 10.8998 16.3677 10.8276C16.3215 10.7116 16.5316 10.6595 16.5938 10.6284L16.4459 10.5545L15.9619 10.7965ZM28.509 9.37724L29.0309 9.11591L17.7903 3.49608L11.9285 6.427L13.1217 7.0236L23.1682 12.0468L28.5082 9.3764L28.509 9.37724Z" fill="#4760FF"/>
<path d="M20.5666 3.09283L21.0047 2.83984L26.0039 5.72638L25.5659 5.97936L20.5666 3.09283Z" fill="white" stroke="#4760FF" stroke-width="0.037313"/>
<path d="M25.5708 6.01669C25.5775 6.01669 25.5834 6.0152 25.5894 6.01147L26.0282 5.75849C26.0394 5.75177 26.0469 5.73983 26.0469 5.7264C26.0469 5.71297 26.0394 5.70103 26.0282 5.69431L21.0283 2.80777C21.0171 2.80106 21.0022 2.80106 20.991 2.80777L20.5522 3.06075C20.541 3.06747 20.5335 3.07941 20.5335 3.09284C20.5335 3.10628 20.541 3.11822 20.5522 3.12493L25.5521 6.01147C25.5581 6.0152 25.564 6.01669 25.5708 6.01669ZM25.9349 5.7264L25.5708 5.93684L20.6462 3.09284L21.0104 2.8824L25.9342 5.7264H25.9349Z" fill="#4760FF" stroke="#4760FF" stroke-width="0.037313"/>
<path d="M22.2777 2.10938L27.2773 4.99615L26.0049 5.73053L21.0052 2.84376L22.2777 2.10938Z" fill="white" stroke="#4760FF" stroke-width="0.037313"/>
<path d="M26.0105 5.76787C26.0172 5.76787 26.0232 5.76638 26.0292 5.76265L27.3017 5.02826C27.3128 5.02155 27.3203 5.00961 27.3203 4.99617C27.3203 4.98274 27.3128 4.9708 27.3017 4.96408L22.302 2.0773C22.2908 2.07059 22.2759 2.07059 22.2647 2.0773L20.9922 2.81169C20.981 2.8184 20.9736 2.83034 20.9736 2.84378C20.9736 2.85721 20.981 2.86915 20.9922 2.87587L25.9919 5.76265C25.9978 5.76563 26.0038 5.76787 26.0105 5.76787ZM27.2084 4.99617L26.0105 5.68727L21.0855 2.84378L22.2834 2.15268L27.2084 4.99543V4.99617Z" fill="#4760FF" stroke="#4760FF" stroke-width="0.037313"/>
<path d="M27.2773 4.99023V9.57853L24.0316 11.2392V6.86351L25.5668 5.97762V6.48363L26.0049 6.23062V5.72462L27.2773 4.99023Z" fill="white" stroke="#4760FF" stroke-width="0.037313"/>
<path d="M24.0372 11.2773C24.044 11.2773 24.0499 11.2758 24.0559 11.2721L27.3017 9.6132C27.3128 9.60648 27.3203 9.59454 27.3203 9.5811V4.99025C27.3203 4.97682 27.3128 4.96488 27.3017 4.95816C27.2905 4.95145 27.2755 4.95145 27.2643 4.95816L25.9919 5.69254C25.9807 5.69926 25.9732 5.7112 25.9732 5.72464V6.20975L25.609 6.42021V5.97839C25.609 5.96495 25.6015 5.95301 25.5903 5.94629C25.5791 5.93958 25.5642 5.93958 25.553 5.94629L24.0178 6.83218C24.0066 6.8389 23.9992 6.85084 23.9992 6.86427V11.2392C23.9992 11.2527 24.0066 11.2646 24.0178 11.2713C24.0238 11.2743 24.0298 11.2765 24.0365 11.2765L24.0372 11.2773ZM27.2457 9.55946L24.0746 11.175V6.88592L25.5351 6.04257V6.48439C25.5351 6.49783 25.5426 6.50977 25.5538 6.51649C25.565 6.5232 25.5799 6.5232 25.5911 6.51649L26.0299 6.26348C26.0411 6.25676 26.0486 6.24482 26.0486 6.23139V5.74628L27.2464 5.05518V9.55946H27.2457Z" fill="#4760FF" stroke="#4760FF" stroke-width="0.037313"/>
<path d="M24.0312 6.86251L19.0316 3.97648L20.5668 3.08984L25.5664 5.97662L24.0312 6.86251Z" fill="white" stroke="#4760FF" stroke-width="0.037313"/>
<path d="M24.0369 6.89984C24.0436 6.89984 24.0496 6.89835 24.0555 6.89462L25.5907 6.00873C25.6019 6.00202 25.6094 5.99008 25.6094 5.97664C25.6094 5.96321 25.6019 5.95127 25.5907 5.94455L20.5911 3.05777C20.5799 3.05106 20.565 3.05106 20.5538 3.05777L19.0186 3.9444C19.0074 3.95112 18.9999 3.96306 18.9999 3.9765C18.9999 3.98993 19.0074 4.00187 19.0186 4.00859L24.0182 6.89462C24.0242 6.8976 24.0302 6.89984 24.0369 6.89984ZM25.4974 5.97664L24.0369 6.81999L19.1119 3.9765L20.5724 3.13315L25.4974 5.97664Z" fill="#4760FF" stroke="#4760FF" stroke-width="0.037313"/>
<path d="M26.0039 5.72461V6.23107L25.5654 6.48429V5.97784L26.0039 5.72461Z" fill="#4760FF" stroke="#4760FF" stroke-width="0.037313"/>
<path d="M25.5703 6.52244C25.577 6.52244 25.583 6.52095 25.589 6.51721L26.0282 6.26399C26.0394 6.25726 26.0469 6.24531 26.0469 6.23187V5.72466C26.0469 5.71122 26.0394 5.69927 26.0282 5.69254C26.017 5.68582 26.0021 5.68582 25.9909 5.69254L25.5516 5.94577C25.5404 5.95249 25.5329 5.96444 25.5329 5.97789V6.48509C25.5329 6.49854 25.5404 6.51049 25.5516 6.51721C25.5576 6.5202 25.5636 6.52244 25.5703 6.52244ZM25.9722 6.2102L25.6076 6.42085V6.0003L25.9722 5.78965V6.2102Z" fill="#4760FF" stroke="#4760FF" stroke-width="0.037313"/>
<path d="M19.0355 3.98242L24.0352 6.86845V11.2441L19.0355 8.36707V3.98242Z" fill="#4760FF" stroke="#4760FF" stroke-width="0.037313"/>
<path d="M24.0408 11.2815C24.0475 11.2815 24.0535 11.28 24.0595 11.2763C24.0714 11.2695 24.0781 11.2576 24.0781 11.2442V6.86922C24.0781 6.85579 24.0707 6.84384 24.0595 6.83713L19.0598 3.95035C19.0487 3.94363 19.0337 3.94363 19.0225 3.95035C19.0113 3.95707 19.0039 3.96901 19.0039 3.98244V8.36709C19.0039 8.38052 19.0113 8.39246 19.0225 8.39918L24.0222 11.2763C24.0281 11.2792 24.0341 11.2815 24.0408 11.2815ZM24.0035 6.89012V11.1792L19.0785 8.34545V4.04663L24.0035 6.89012Z" fill="#4760FF" stroke="#4760FF" stroke-width="0.037313"/>
<path d="M20.2146 5.68613L19.236 5.12141C19.2017 5.10124 19.1733 5.04821 19.1733 5.00189V4.55669C19.1733 4.51038 19.2017 4.48946 19.236 4.50963L20.2146 5.07435C20.249 5.09452 20.2773 5.14755 20.2773 5.19387V5.63907C20.2773 5.68538 20.249 5.7063 20.2146 5.68613Z" fill="#FCFCFC"/>
<path d="M19.3594 5.11628L19.3243 5.09611V4.63672L19.3594 4.65689V5.11628Z" fill="#4760FF"/>
<path d="M19.4297 5.01824L19.3945 4.99802V4.67383L19.4297 4.69404V5.01824Z" fill="#4760FF"/>
<path d="M19.4883 5.05535L19.4531 5.03513V4.71094L19.4883 4.73115V5.05535Z" fill="#4760FF"/>
<path d="M19.5547 5.09246L19.5202 5.07224V4.74805L19.5547 4.76826V5.09246Z" fill="#4760FF"/>
<path d="M19.6172 5.12566L19.582 5.10544V4.78125L19.6172 4.80147V5.12566Z" fill="#4760FF"/>
<path d="M19.6797 5.16277L19.6445 5.14255V4.81836L19.6797 4.83857V5.16277Z" fill="#4760FF"/>
<path d="M19.7461 5.27139L19.7109 5.25118V4.85742L19.7461 4.87763V5.27139Z" fill="#4760FF"/>
<path d="M19.8047 5.23894L19.7695 5.21872V4.89453L19.8047 4.91475V5.23894Z" fill="#4760FF"/>
<path d="M19.8711 5.27214L19.8359 5.25193V4.92773L19.8711 4.94795V5.27214Z" fill="#4760FF"/>
<path d="M19.9375 5.31121L19.9023 5.29099V4.9668L19.9375 4.98701V5.31121Z" fill="#4760FF"/>
<path d="M20 5.34636L19.9656 5.32615V5.00195L20 5.02217V5.34636Z" fill="#4760FF"/>
<path d="M20.0547 5.38347L20.0195 5.36326V5.03906L20.0547 5.05928V5.38347Z" fill="#4760FF"/>
<path d="M20.125 5.55574L20.0899 5.53557V5.07617L20.125 5.09634V5.55574Z" fill="#4760FF"/>
<path d="M22.1719 9.87169V9.17699C22.1719 9.11499 22.1285 9.04029 22.0748 9.00892L21.4727 8.66157C21.4189 8.63095 21.3756 8.6556 21.3756 8.7176V9.41229C21.3756 9.47429 21.4189 9.54899 21.4727 9.58036L22.0748 9.92771C22.1285 9.95834 22.1719 9.93369 22.1719 9.87169ZM22.0748 9.04926C22.1091 9.06868 22.1368 9.11723 22.1368 9.15682V9.85152C22.1368 9.89111 22.1091 9.9068 22.0748 9.88738L21.4727 9.54003C21.4383 9.52061 21.4107 9.47205 21.4107 9.43246V8.73777C21.4107 8.69818 21.4383 8.68249 21.4727 8.70191L22.0748 9.04926Z" fill="white"/>
<path d="M23.0352 10.3678V9.67309C23.0352 9.61109 22.9918 9.53639 22.938 9.50501L22.336 9.15767C22.2822 9.12704 22.2389 9.15169 22.2389 9.21369V9.90839C22.2389 9.97039 22.2822 10.0451 22.336 10.0765L22.938 10.4238C22.9918 10.4544 23.0352 10.4298 23.0352 10.3678ZM22.938 9.54535C22.9724 9.56477 23 9.61333 23 9.65292V10.3476C23 10.3872 22.9724 10.4029 22.938 10.3835L22.336 10.0361C22.3016 10.0167 22.274 9.96815 22.274 9.92856V9.23386C22.274 9.19427 22.3016 9.17858 22.336 9.198L22.938 9.54535Z" fill="white"/>
<path d="M23.9023 10.8678V10.1731C23.9023 10.1111 23.859 10.0364 23.8052 10.005L23.2032 9.65767C23.1494 9.62704 23.1061 9.65169 23.1061 9.71369V10.4084C23.1061 10.4704 23.1494 10.5451 23.2032 10.5765L23.8052 10.9238C23.859 10.9544 23.9023 10.9298 23.9023 10.8678ZM23.8052 10.0454C23.8396 10.0648 23.8672 10.1133 23.8672 10.1529V10.8476C23.8672 10.8872 23.8396 10.9029 23.8052 10.8835L23.2032 10.5361C23.1688 10.5167 23.1412 10.4681 23.1412 10.4286V9.73386C23.1412 9.69427 23.1688 9.67858 23.2032 9.698L23.8052 10.0454Z" fill="white"/>
<path d="M23.6594 10.3298V10.1169L23.4413 9.99145L23.4331 10.034L23.4727 10.0467L23.4786 10.1162L23.5197 10.1311L23.4839 10.2245V10.1356H23.4577L23.4458 10.0699L23.4166 10.0676L23.395 9.96382L23.3569 9.94141V10.1543C23.3569 10.2395 23.4166 10.344 23.4906 10.3866V10.5166L23.4069 10.468C23.3942 10.4606 23.3838 10.4665 23.3838 10.4815V10.4949L23.6333 10.6391V10.6256C23.6333 10.6107 23.6228 10.5928 23.6101 10.5853L23.5264 10.5368V10.4068C23.6004 10.4494 23.6602 10.415 23.6602 10.3291L23.6594 10.3298Z" fill="white"/>
<path d="M22.0664 9.68288L21.4905 9.35047V9.43115L22.0664 9.76356V9.68288ZM21.7034 9.07558V9.38483L21.5988 9.32433V9.01508L21.5405 8.98146L21.6511 8.91797L21.7616 9.1092L21.7034 9.07558ZM22.0156 9.25561L21.9051 9.06438L21.7945 9.12787L21.8528 9.16149V9.47074L21.9573 9.53124V9.22199L22.0156 9.25561Z" fill="white"/>
<path d="M22.7969 9.86385L22.6474 9.87737V9.67758L22.7969 9.66406V9.86385Z" fill="white"/>
<path d="M22.625 9.86816L22.4757 9.68204V9.48242L22.625 9.66853V9.86816Z" fill="white"/>
<path d="M22.6323 9.66005L22.4833 9.47441L22.6323 9.46094L22.7812 9.64657L22.6323 9.66005Z" fill="white"/>
<path d="M22.4481 9.69777C22.4481 9.69777 22.4436 9.69179 22.4414 9.6903C22.4414 9.6903 22.4361 9.68582 22.4339 9.68433C22.4339 9.68433 22.4287 9.68059 22.4264 9.67984C22.4197 9.67686 22.413 9.67686 22.4078 9.67984C22.3951 9.68731 22.3951 9.71122 22.4078 9.73288L22.4548 9.81505C22.4571 9.81878 22.4571 9.82326 22.4548 9.82476C22.4526 9.82625 22.4488 9.82401 22.4466 9.82028L22.3995 9.73811C22.3913 9.72392 22.3868 9.70823 22.3868 9.69478C22.3868 9.68134 22.3913 9.67088 22.3995 9.6664C22.407 9.66192 22.416 9.66266 22.4264 9.66714V9.48787C22.398 9.43409 22.3614 9.43558 22.3614 9.46845V9.70001L22.4698 9.88751V10.0317L22.5938 10.1034V9.94129L22.4533 9.70673C22.4533 9.70673 22.4496 9.70076 22.4473 9.69852L22.4481 9.69777Z" fill="white"/>
<path d="M22.8196 9.91294C22.8196 9.91294 22.8248 9.91294 22.8263 9.91294C22.8263 9.91294 22.8316 9.91443 22.8338 9.91518C22.8338 9.91518 22.839 9.91817 22.8413 9.91966C22.848 9.92489 22.8547 9.93161 22.8599 9.94057C22.8726 9.96224 22.8726 9.98614 22.8599 9.99361L22.8129 10.0205C22.8129 10.0205 22.8106 10.0265 22.8129 10.0302C22.8151 10.0339 22.8189 10.0362 22.8211 10.0347L22.8682 10.0071C22.8764 10.0026 22.8809 9.99212 22.8809 9.97867C22.8809 9.96522 22.8764 9.94954 22.8682 9.93535C22.8607 9.92265 22.8517 9.91219 22.8413 9.90547V9.72619C22.8696 9.70527 22.9062 9.7486 22.9062 9.78147V10.013L22.7979 10.0758V10.2199L22.6739 10.1482V9.98614L22.8144 9.91368C22.8144 9.91368 22.8181 9.91219 22.8203 9.91144L22.8196 9.91294Z" fill="white"/>
<path fill-rule="evenodd" clip-rule="evenodd" d="M10.2967 19.9677C11.0887 19.5721 12.375 19.5721 13.167 19.9677C13.959 20.3642 13.959 21.0073 13.167 21.4029C12.375 21.7993 11.0887 21.7993 10.2967 21.4029C9.50468 21.0073 9.50468 20.3642 10.2967 19.9677ZM8.69292 1.55653C8.73239 1.19505 9.02839 0.839855 9.57913 0.564486C10.7676 -0.0293077 12.6961 -0.0293077 13.8846 0.564486C14.4362 0.839855 14.7313 1.19505 14.7708 1.55653L15.2578 5.37852C15.2722 5.4413 15.2812 5.50499 15.2821 5.56867C15.2919 6.02972 14.9448 6.49165 14.2425 6.84327C12.8567 7.53662 10.6053 7.53662 9.21944 6.84327C8.51712 6.49255 8.17089 6.02972 8.17986 5.56957V5.56778C8.18165 5.50499 8.18972 5.4431 8.20408 5.38121L8.69292 1.55653Z" fill="white"/>
<path fill-rule="evenodd" clip-rule="evenodd" d="M11.7476 3.16311C12.5234 3.16221 13.2993 3.01332 13.8913 2.71732C14.5282 2.39889 14.8242 1.97373 14.7775 1.55664L15.2646 5.37862C15.2789 5.44141 15.2879 5.5051 15.2888 5.56878C15.2987 6.02982 14.9515 6.49176 14.2492 6.84337C13.5558 7.1896 12.6472 7.36272 11.7377 7.36272V20.8361L11.3789 20.6567V7.35465C11.4982 7.36092 11.6184 7.36362 11.7377 7.36362V3.16311C11.6184 3.16311 11.4982 3.15952 11.3789 3.15235V1.82035L11.7377 1.99974V3.16311H11.7467H11.7476Z" fill="#4760FF"/>
<path fill-rule="evenodd" clip-rule="evenodd" d="M8.60993 1.5463C8.65299 1.1615 8.95975 0.776696 9.54547 0.483387C10.7555 -0.122067 12.7207 -0.122067 13.9307 0.483387C14.5156 0.775799 14.8223 1.1597 14.8663 1.5445C14.8663 1.5445 15.3533 5.362 15.3533 5.3611C15.3695 5.42927 15.3776 5.49744 15.3794 5.56561C15.3892 6.05267 15.0331 6.55048 14.2904 6.92183C13.7002 7.21693 12.9566 7.38825 12.187 7.43579V19.6059C12.5638 19.6471 12.9217 19.7404 13.2141 19.8866C13.65 20.1046 13.8581 20.3988 13.8581 20.684V21.015C13.8581 21.3011 13.65 21.5953 13.2141 21.8124C12.3996 22.2196 11.0775 22.2196 10.2639 21.8124C9.82802 21.5944 9.61992 21.3002 9.61992 21.015V20.684C9.61992 20.3979 9.82802 20.1046 10.2639 19.8866C10.5564 19.7404 10.9142 19.6471 11.291 19.6059V7.43759C10.5223 7.39005 9.77779 7.21872 9.18758 6.92362C8.44668 6.55317 8.09059 6.05805 8.09776 5.57189C8.09776 5.5692 8.09776 5.56561 8.09776 5.56202C8.09956 5.49565 8.10763 5.43017 8.12288 5.36379L8.61083 1.5454V1.54719L8.60993 1.5463ZM11.2901 19.7835C10.9429 19.8238 10.6138 19.9117 10.3438 20.0463C9.98768 20.2248 9.79931 20.4499 9.79931 20.6831C9.79931 20.9163 9.98768 21.1424 10.3438 21.3209C11.1134 21.7057 12.3637 21.7057 13.1342 21.3209C13.4903 21.1424 13.6787 20.9172 13.6787 20.6831C13.6787 20.449 13.4903 20.2239 13.1342 20.0463C12.8643 19.9108 12.5342 19.8238 12.1879 19.7835V20.6562C12.1879 20.6903 12.1691 20.7217 12.1386 20.736L11.7798 20.9154C11.7547 20.928 11.7242 20.928 11.6991 20.9154L11.3403 20.736C11.3098 20.7208 11.291 20.6894 11.291 20.6562V19.7835H11.2901ZM11.6489 7.45194V20.6912L11.4695 20.6015V7.44745C11.5296 7.45014 11.5888 7.45104 11.6489 7.45194ZM8.72295 2.08268L8.30048 5.3916C8.30048 5.3916 8.29958 5.39788 8.29868 5.40057C8.28523 5.45618 8.27805 5.51269 8.27716 5.5692V5.57099C8.26819 6.00513 8.60545 6.43208 9.26741 6.76306C9.85582 7.05727 10.6021 7.225 11.3708 7.26537C11.3753 7.26537 11.3798 7.26537 11.3852 7.26537C11.5027 7.27165 11.6211 7.27434 11.7395 7.27434C11.8579 7.27434 11.9763 7.27165 12.0938 7.26537C12.0982 7.26537 12.1027 7.26537 12.1081 7.26537C12.8759 7.225 13.6231 7.05727 14.2115 6.76306C14.8735 6.43208 15.2107 6.00513 15.2009 5.57099C15.2018 5.61943 15.2018 5.61943 15.2009 5.57099C15.2 5.51359 15.1928 5.45618 15.1793 5.39967C15.1793 5.39698 15.1784 5.39339 15.1775 5.3907L14.756 2.08358C14.6914 2.20198 14.5999 2.31769 14.4824 2.42802C14.2537 2.64149 13.9711 2.79398 13.6823 2.91058C13.1863 3.10971 12.6508 3.20748 12.1189 3.23977C12.0014 3.26489 11.8605 3.25233 11.7404 3.25233C11.6202 3.25233 11.4802 3.26489 11.3618 3.23977C10.5626 3.19134 9.6244 3.00028 9.01088 2.43878C8.8862 2.32486 8.79112 2.20557 8.72474 2.08268H8.72295ZM15.3794 5.56741C15.3794 5.59162 15.3794 5.59162 15.3794 5.56741V5.56741ZM8.09776 5.57189C8.09776 5.58445 8.09776 5.57996 8.09776 5.56741V5.57189ZM11.4695 3.06666V1.96518L11.6489 2.05488V3.07204C11.5888 3.07114 11.5296 3.06935 11.4695 3.06666ZM14.6887 1.56782C14.6528 1.22967 14.3685 0.903169 13.8509 0.644842C12.6849 0.061812 10.7923 0.061812 9.6262 0.644842C9.10954 0.903169 8.8252 1.22877 8.78843 1.56603C8.70322 2.30513 9.70513 2.72222 10.2702 2.88188C10.6021 2.97606 10.9456 3.03168 11.2901 3.05769C11.2901 2.64329 11.2802 2.22709 11.2901 1.81269C11.2946 1.7822 11.3098 1.75349 11.3394 1.74004L11.6982 1.56065C11.7233 1.54809 11.7529 1.54809 11.778 1.56065L12.1368 1.74004C12.1826 1.76336 12.1861 1.80731 12.1861 1.85216C12.187 1.98312 12.1861 2.11408 12.1861 2.24503V3.05679C12.875 3.00477 13.6132 2.846 14.1855 2.43699C14.4653 2.23696 14.7273 1.93289 14.6878 1.56603C14.6878 1.56603 14.6878 1.56693 14.6878 1.56782H14.6887ZM11.8964 1.81987L11.7386 1.8988L11.5807 1.81987L11.7386 1.74094L11.8964 1.81987Z" fill="#4760FF"/>
<path fill-rule="evenodd" clip-rule="evenodd" d="M19.6095 24.3251C19.5104 24.2624 19.4502 24.1459 19.4502 23.9843C19.4502 23.634 19.7339 23.2084 20.0842 23.0332C20.2594 22.946 20.4179 22.9373 20.5328 22.9952L21.1669 23.3122L20.2705 24.6571L19.6095 24.3266V24.3251H19.6103H19.6095ZM12.635 24.3251C12.536 24.2624 12.4757 24.1459 12.4757 23.9843C12.4757 23.634 12.7595 23.2084 13.1098 23.0332C13.2849 22.946 13.4434 22.9373 13.5584 22.9952L14.1924 23.3122L13.296 24.6571L12.635 24.3266V24.3251H12.6358H12.635ZM16.914 20.497L13.7438 18.9119L13.1098 19.2289L16.28 20.8141L13.1098 22.3992L13.7438 22.7162L16.914 21.1311L20.0842 22.7162L20.7183 22.3992L17.5481 20.8141L20.7183 19.2289L20.0842 18.9119L16.914 20.497ZM19.6095 21.1548C19.5104 21.0922 19.4502 20.9757 19.4502 20.8141C19.4502 20.4637 19.7339 20.0381 20.0842 19.863C20.2594 19.7758 20.4179 19.7671 20.5328 19.8249L21.1669 20.142L20.2705 21.4869L19.6095 21.1564V21.1548H19.6103H19.6095ZM12.635 20.8378C12.536 20.7752 12.4757 20.6587 12.4757 20.497C12.4757 20.1467 12.7595 19.7211 13.1098 19.546C13.2849 19.4588 13.4434 19.4501 13.5584 19.5079L14.1924 19.8249L13.296 21.1699L12.635 20.8394V20.8378H12.6358H12.635ZM19.1332 15.2662L15.963 13.6811L11.5247 15.9002V16.5343L15.3289 18.4364H16.597L21.0353 16.2172L20.0842 15.7417L21.3523 15.1077L20.4013 14.6321L19.1332 15.2662ZM14.0608 11.4619L10.8906 13.047L11.8417 13.5226L15.0119 11.9375L14.0608 11.4619ZM17.5481 5.91406L16.597 6.38959L20.4013 8.29172L21.3523 7.81619L17.5481 5.91406Z" fill="white"/>
<path fill-rule="evenodd" clip-rule="evenodd" d="M19.6095 24.3241C19.5104 24.2615 19.4502 24.145 19.4502 23.9833C19.4502 23.8082 19.5215 23.614 19.6356 23.442L20.7183 23.9833L20.2697 24.6554L19.6087 24.3249V24.3233H19.6095V24.3241ZM12.635 24.3241C12.536 24.2615 12.4757 24.145 12.4757 23.9833C12.4757 23.8082 12.5471 23.614 12.6612 23.442L13.7438 23.9833L13.2952 24.6554L12.635 24.3233V24.3241ZM15.3289 19.3865L11.5247 17.4844V16.5333L15.3289 18.4355H16.597V18.7525L17.5861 18.892V20.8131C17.5861 20.8995 17.5203 20.9851 17.3896 21.0509C17.2675 21.1119 17.1106 21.1444 16.9513 21.1484L20.0842 22.7153V23.3493L16.7817 21.6984V21.1428C16.6557 21.1302 16.536 21.1 16.4385 21.0509C16.3164 20.9899 16.2514 20.9114 16.2427 20.8314L15.6459 21.1302L13.1098 19.8621V19.228L16.2419 20.7941V19.3865H15.3289ZM13.7438 22.7153L13.1098 22.3982V23.0323L13.7438 23.3493V22.7153ZM19.6095 21.1539C19.5104 21.0913 19.4502 20.9748 19.4502 20.8131C19.4502 20.638 19.5215 20.4438 19.6356 20.2718L20.7183 20.8131L20.2697 21.4852L19.6087 21.1547V21.1531H19.6095V21.1539ZM12.635 20.8369C12.536 20.7743 12.4757 20.6578 12.4757 20.4961C12.4757 20.321 12.5471 20.1268 12.6612 19.9548L13.7438 20.4961L13.2952 21.1682L12.6342 20.8377V20.8361H12.635V20.8369ZM19.7672 16.2163L19.4502 16.3748V17.9599L18.8161 18.277L19.1332 18.4355L19.7672 18.1185V16.2163ZM18.1821 16.6919L17.231 16.2163V16.5333L18.1821 17.0089V16.6919ZM21.0353 15.5823L20.4013 15.8993L21.0353 16.2163V15.5823ZM21.0353 9.24186L21.9864 8.76633L21.3523 7.81527L20.4013 8.2908L16.597 6.38867L15.963 6.70569V13.6802L19.1332 15.2653L20.4013 14.6312L21.0353 14.9482V9.24186ZM13.4268 13.0461L13.1098 13.2046V15.1068L13.4268 14.9482V13.0461ZM11.8417 13.5216L10.8906 13.0461V13.3631L11.8417 13.8387V13.5216Z" fill="white"/>
<path fill-rule="evenodd" clip-rule="evenodd" d="M15.9323 6.63681L17.5174 5.84426C17.5396 5.83316 17.5658 5.83316 17.588 5.84426L21.3914 7.74559C21.435 7.76699 21.4651 7.83674 21.4897 7.87319L21.6918 8.17674C21.8107 8.35507 21.9446 8.52943 22.0508 8.71568C22.0603 8.73232 22.0691 8.74659 22.0699 8.76719V16.6935C22.0699 16.7236 22.0532 16.7506 22.0263 16.7648L20.4848 17.5352V17.8031C20.4848 17.8332 20.4681 17.8601 20.4412 17.8744L19.1731 18.5085C19.1509 18.5196 19.1247 18.5196 19.1025 18.5085L18.8212 18.3674L17.6704 18.9428V20.0333L20.0536 18.8421C20.0758 18.831 20.102 18.831 20.1241 18.8421L20.7582 19.1591C20.7851 19.1726 20.8018 19.2004 20.8018 19.2297V19.8637C20.8018 19.8637 20.8018 19.8677 20.8018 19.8693L21.206 20.0714C21.3447 20.1403 21.4358 20.2862 21.4358 20.4978C21.4358 20.8734 21.1331 21.3323 20.7582 21.5202C20.5561 21.6216 20.3722 21.6248 20.2391 21.5582L19.5781 21.2277L19.5725 21.223C19.4529 21.1477 19.376 21.009 19.376 20.8156C19.376 20.7506 19.3847 20.6824 19.4013 20.6143L18.3639 21.1326L20.7582 22.3301C20.7851 22.3436 20.8018 22.3714 20.8018 22.4007V23.0347C20.8018 23.0347 20.8018 23.0387 20.8018 23.0403L21.206 23.2424C21.3447 23.3113 21.4358 23.4572 21.4358 23.6688C21.4358 24.0444 21.1331 24.5033 20.7582 24.6904C20.5561 24.7918 20.3722 24.795 20.2391 24.7284L19.5781 24.3979L19.5725 24.3932C19.4529 24.3179 19.376 24.1792 19.376 23.9858C19.376 23.7417 19.5028 23.4611 19.6962 23.244L16.9191 21.8554L14.1887 23.221L14.2323 23.2432C14.371 23.3121 14.4621 23.458 14.4621 23.6696C14.4621 24.0452 14.1594 24.5041 13.7845 24.6912C13.5824 24.7926 13.3985 24.7958 13.2654 24.7292L12.6044 24.3987L12.5989 24.394C12.4792 24.3187 12.4023 24.18 12.4023 23.9866C12.4023 23.626 12.6813 23.1885 13.0363 22.988V22.4015C13.0363 22.3714 13.0538 22.3436 13.0799 22.3309L15.4742 21.1334L14.367 20.5794C14.249 20.8378 14.0326 21.0795 13.7845 21.2039C13.5824 21.3054 13.3985 21.3085 13.2654 21.242L12.6044 20.9115L12.5989 20.9067C12.4792 20.8314 12.4023 20.6927 12.4023 20.4994C12.4023 20.1387 12.6813 19.7013 13.0363 19.5007V19.2313C13.0363 19.2011 13.0538 19.1734 13.0799 19.1607L13.714 18.8437C13.7362 18.8326 13.7623 18.8326 13.7845 18.8437L16.1677 20.0349V19.469H15.3316C15.3189 19.469 15.3078 19.4651 15.2975 19.4603L11.4948 17.559C11.4679 17.5455 11.4512 17.5178 11.4512 17.4884V15.9033C11.4512 15.8732 11.4679 15.8463 11.4948 15.8328L13.0363 15.0624V13.3378L11.8832 13.9148C11.861 13.9259 11.8348 13.9259 11.8126 13.9148L10.86 13.4353C10.833 13.4219 10.8164 13.3941 10.8164 13.364V13.047C10.8164 13.0169 10.8338 12.9899 10.86 12.9764L14.0302 11.3913C14.0524 11.3802 14.0786 11.3802 14.1007 11.3913L15.0518 11.8669C15.0788 11.8803 15.0954 11.9081 15.0954 11.9374V12.2544C15.0954 12.2845 15.0788 12.3115 15.0518 12.3258L14.1443 12.7791V14.5037L15.8879 13.6319V6.70735C15.8879 6.67723 15.9046 6.64949 15.9315 6.63681H15.9323ZM13.584 23.3573C13.4081 23.2693 13.1156 23.1235 13.1156 23.1235C12.8073 23.2955 12.56 23.6727 12.56 23.9858C12.56 24.1142 12.6036 24.2093 12.6821 24.2592C12.6845 24.2608 12.686 24.2616 12.6884 24.2632L13.0506 24.4447C13.0403 24.4011 13.0348 24.3535 13.0348 24.3028C13.0348 23.9715 13.2701 23.5752 13.5832 23.3581L13.584 23.3573ZM20.8216 23.2265L20.6686 23.1504L20.1249 23.4223H20.1226L20.1202 23.4247H20.1178L20.1154 23.4262H20.113L20.1107 23.4278H20.1059L20.1035 23.4294H20.071L20.0687 23.4278H20.0663L20.0639 23.4262H20.0615L20.0592 23.4247H20.0568L20.0544 23.4223L19.8444 23.3169C19.6613 23.5079 19.5353 23.7623 19.5353 23.985C19.5353 24.1134 19.5789 24.2085 19.6573 24.2584C19.6597 24.26 19.6613 24.2608 19.6637 24.2624L20.0259 24.4439C20.0156 24.4003 20.01 24.3527 20.01 24.302C20.01 23.9263 20.3128 23.4675 20.6876 23.2804C20.7328 23.2574 20.778 23.24 20.8216 23.2265ZM13.1941 22.9856L13.6696 23.2234V22.7668L13.4413 22.6527L13.1941 22.5291V22.9856ZM19.1556 22.3397L20.01 22.7668V23.2234L19.9323 23.1845L16.9983 21.7175V21.261L19.1556 22.3397ZM16.2034 20.9456L13.2923 22.4007L13.7489 22.6289L16.6139 21.196C16.5394 21.1786 16.4697 21.1548 16.4079 21.1239C16.3072 21.0732 16.2398 21.0105 16.2026 20.9448L16.2034 20.9456ZM17.6355 20.9456C17.5983 21.0113 17.5317 21.074 17.4303 21.1247C17.3692 21.1556 17.2995 21.1794 17.225 21.1968L20.0901 22.6289L20.5466 22.4007L17.6355 20.9456ZM20.8216 20.0571L20.6686 19.981L19.6011 20.5144C19.5591 20.6159 19.5345 20.7189 19.5345 20.8156C19.5345 20.944 19.5781 21.0391 19.6565 21.089C19.6589 21.0906 19.6605 21.0914 19.6629 21.093L20.0251 21.2745C20.0148 21.2309 20.0092 21.1841 20.0092 21.1326C20.0092 20.7569 20.312 20.298 20.6869 20.111C20.732 20.088 20.7772 20.0706 20.8208 20.0571H20.8216ZM16.8398 21.0716V19.3597L16.6393 19.4603C16.629 19.4659 16.6179 19.469 16.606 19.469H16.3262V20.8164C16.3262 20.8798 16.3833 20.9353 16.4792 20.9836C16.5806 21.0343 16.7082 21.0636 16.8398 21.0724V21.0716ZM13.1941 19.5483V19.8162L13.943 20.1903L15.651 21.0446L16.1075 20.8164L14.3948 19.9596L13.1941 19.3597V19.5483ZM13.0356 19.6878V19.8653C13.0356 19.8804 13.0403 19.8954 13.0482 19.9081V19.9097H13.0498V19.9121L13.0514 19.9137L13.053 19.9152C13.053 19.9152 13.0562 19.9192 13.0577 19.9208C13.0577 19.9208 13.0633 19.9263 13.0657 19.9287C13.0696 19.9319 13.0744 19.9343 13.0784 19.9366L13.3557 20.0753C13.1624 20.2925 13.0348 20.5723 13.0348 20.8172C13.0348 20.8687 13.0403 20.9154 13.0506 20.959L12.6884 20.7775C12.6884 20.7775 12.6845 20.7744 12.6821 20.7736C12.6028 20.7236 12.56 20.6285 12.56 20.5001C12.56 20.2148 12.7653 19.8764 13.0356 19.6886V19.6878ZM13.2923 19.2313L16.1677 20.669V20.2124L13.7489 19.003L13.2923 19.2313ZM17.6712 20.2124L20.0901 19.003L20.5466 19.2313L17.6712 20.669V20.2124ZM15.414 19.3105H16.5236V18.518H15.414V19.3105ZM11.609 16.6634L15.2547 18.4863V19.2598L11.609 17.4369V16.6634ZM18.9607 15.2669L15.968 13.7706L14.1015 14.7042L13.1505 15.1797L11.609 15.9501V16.4859L15.353 18.3579H16.5838L19.3768 16.9614V16.5049L18.2236 17.0819C18.2014 17.093 18.1753 17.093 18.1531 17.0819L17.202 16.6063C17.1751 16.5929 17.1584 16.5651 17.1584 16.5358V16.2188C17.1584 16.1887 17.1758 16.1609 17.202 16.1482L18.9623 15.2677L18.9607 15.2669ZM19.6098 16.3876L19.5337 16.4256V17.9743L19.5321 17.9759V17.9814L19.5305 17.983V17.9854L19.5289 17.987V17.9893L19.5274 17.9909V17.9933L19.5258 17.9949V17.9973H19.525V17.9996L19.5234 18.0012V18.0036H19.5218V18.006H19.5202V18.0084H19.5186V18.0107H19.517V18.0131H19.5155V18.0155H19.5139V18.0179H19.5123V18.0195H19.5099V18.021H19.5083V18.0226H19.506V18.0242H19.5036V18.0258H19.5012V18.0274H19.4988V18.029H19.4964L19.4949 18.0305H19.4941L19.4925 18.0321H19.4917L19.4901 18.0337H19.4885L18.9963 18.2802L19.1358 18.3499L19.6906 18.0726V16.348L19.6082 16.3892L19.6098 16.3876ZM18.1071 16.8821V16.7427L17.3145 16.3464V16.4859L18.1071 16.8821ZM19.1731 15.3375L17.4128 16.2172L18.1864 16.604L21.179 15.1076L20.4055 14.7208L19.1731 15.3375ZM20.4848 16.1617V16.4066L20.862 16.218L20.4848 16.0294V16.1625V16.1617ZM20.583 15.901L20.9603 16.0896V15.7123L20.583 15.901ZM20.7003 8.87736L20.9603 9.26729V14.8215L20.4412 14.5615C20.419 14.5505 20.3928 14.5505 20.3706 14.5615L19.1382 15.1782L16.0473 13.6327V6.75649L16.602 6.47909L20.3516 8.35427L20.7011 8.87815L20.7003 8.87736ZM13.1941 13.2554V14.98L13.3526 14.9008V13.1762L13.1941 13.2554ZM11.7675 13.5724V13.7119L10.9749 13.3157V13.1762L11.7675 13.5724ZM11.0732 13.0478L11.8467 13.4345L14.8394 11.9382L14.0659 11.5514L11.0732 13.0478ZM20.522 8.32336L21.0673 9.14128L21.8757 8.73708L21.3304 7.91916L20.522 8.32336ZM21.1798 7.81692L20.4063 8.20369L16.7796 6.39033L17.5531 6.00356L21.1798 7.81692Z" fill="#4760FF"/>
<path d="M3.58594 22.75L16.4434 30.3694" stroke="#4760FF" stroke-width="0.341998"/>
<path d="M33.5 22.8203L20.5797 29.9914" stroke="#4760FF" stroke-width="0.341998"/>
</svg>
