<svg width="38" height="33" viewBox="0 0 38 33" fill="none" xmlns="http://www.w3.org/2000/svg">
<path d="M2.50316 25.7241L2.81283 25.5453L4.53079 25.6023C4.66449 25.6068 4.77312 25.6009 4.85669 25.5844C4.94025 25.568 5.00808 25.5447 5.06019 25.5146C5.13097 25.4737 5.17865 25.4286 5.20323 25.3792C5.22879 25.3293 5.23076 25.2793 5.20913 25.2294C5.18848 25.18 5.14326 25.1352 5.07346 25.0949C4.99973 25.0523 4.91715 25.0245 4.82572 25.0114C4.73626 24.9984 4.64778 24.999 4.56028 25.0131C4.47279 25.0273 4.39758 25.0537 4.33466 25.0923L3.96895 24.8812C4.11052 24.7995 4.26536 24.7464 4.43347 24.722C4.60256 24.6981 4.77165 24.7015 4.94074 24.7322C5.11082 24.7634 5.2691 24.8213 5.41558 24.9059C5.55124 24.9842 5.64267 25.0722 5.68986 25.1698C5.73803 25.2669 5.73951 25.3642 5.69428 25.4618C5.65005 25.5589 5.55862 25.6474 5.42 25.7275C5.31874 25.7859 5.21994 25.8271 5.1236 25.8509C5.02725 25.8748 4.92256 25.8875 4.8095 25.8892C4.69743 25.8915 4.56569 25.8898 4.41429 25.8841L3.19919 25.8415L3.25523 25.7717L4.29927 26.3745L3.96453 26.5678L2.50316 25.7241ZM6.81914 28.2193L7.7865 27.6608C7.89563 27.5978 7.95363 27.5331 7.96051 27.4667C7.96838 27.3997 7.9261 27.3395 7.83369 27.2862C7.77667 27.2533 7.71228 27.2314 7.64051 27.2206C7.56973 27.2093 7.49551 27.2107 7.41784 27.2249C7.34116 27.2385 7.26792 27.2655 7.19812 27.3058L7.13324 27.161C7.24236 27.0969 7.36377 27.0552 7.49747 27.0359C7.63314 27.0166 7.76783 27.0183 7.90153 27.041C8.03523 27.0637 8.15517 27.1057 8.26134 27.167C8.43731 27.2686 8.51891 27.377 8.50613 27.4922C8.49532 27.6074 8.40389 27.7147 8.23185 27.814L7.17453 28.4245L6.81914 28.2193ZM4.90358 27.1133L6.49619 26.1938L6.81029 26.3752L6.31628 26.6604L6.36052 26.6859L5.26191 27.3202L4.90358 27.1133ZM5.86357 27.6676L6.82651 27.1116C6.9376 27.0475 6.99708 26.9819 7.00494 26.915C7.01281 26.848 6.97004 26.7875 6.87665 26.7336C6.7862 26.6814 6.68249 26.6573 6.5655 26.6613C6.44949 26.6658 6.34185 26.6967 6.24255 26.7541L6.18947 26.6008C6.29269 26.5412 6.41115 26.5023 6.54485 26.4842C6.67856 26.466 6.81226 26.4683 6.94596 26.491C7.08162 26.5137 7.20353 26.5563 7.31167 26.6187C7.43062 26.6874 7.50436 26.7595 7.53287 26.8349C7.56334 26.9104 7.55449 26.9848 7.50632 27.058C7.46012 27.1312 7.38245 27.1993 7.27333 27.2623L6.21748 27.8719L5.86357 27.6676Z" fill="#4760FF"/>
<path d="M30.3699 30.9939L28.6928 29.8967L28.5176 30.2579L28.1385 30.0099L28.318 29.6516L28.6919 29.4627L30.7438 30.805L30.3699 30.9939ZM33.9024 29.209L32.9677 28.5975C32.8622 28.5285 32.7522 28.4888 32.6376 28.4785C32.522 28.4675 32.4166 28.486 32.3213 28.5342C32.2626 28.5639 32.2227 28.5989 32.2018 28.6392C32.1798 28.6789 32.1799 28.7218 32.202 28.768C32.223 28.8135 32.2673 28.8583 32.3348 28.9024L32.0824 28.9259C31.975 28.8568 31.9067 28.7828 31.8777 28.7038C31.8486 28.6238 31.8559 28.5463 31.8995 28.4714C31.943 28.3965 32.0195 28.3314 32.129 28.2761C32.3103 28.1845 32.5004 28.1479 32.6993 28.1664C32.8982 28.1838 33.0808 28.2468 33.247 28.3556L34.2687 29.024L33.9024 29.209ZM31.9282 30.2066L30.3893 29.1998L30.713 29.0362L31.1904 29.3485L31.236 29.3255L32.2975 30.02L31.9282 30.2066ZM32.9176 29.7066L31.9871 29.0979C31.8798 29.0277 31.7683 28.9871 31.6527 28.9761C31.5372 28.9651 31.4313 28.9839 31.335 29.0325C31.2418 29.0796 31.1967 29.1371 31.1998 29.2049C31.204 29.2722 31.254 29.3373 31.3499 29.4L31.0832 29.4159C30.9835 29.3506 30.92 29.2786 30.8929 29.1997C30.8658 29.1209 30.874 29.0441 30.9176 28.9692C30.9612 28.8932 31.0388 28.827 31.1502 28.7707C31.2728 28.7087 31.3999 28.6732 31.5313 28.664C31.6628 28.6538 31.7911 28.666 31.9162 28.7009C32.0414 28.7346 32.1566 28.7859 32.2621 28.8549L33.2823 29.5223L32.9176 29.7066Z" fill="#4760FF"/>
<path d="M3.89087 12.5518L4.32892 12.2988L9.32812 15.1854L8.89007 15.4383L3.89087 12.5518Z" fill="white" stroke="#4760FF" stroke-width="0.037313"/>
<path d="M8.89498 15.4757C8.9017 15.4757 8.90767 15.4742 8.91364 15.4705L9.35244 15.2175C9.36363 15.2108 9.37109 15.1988 9.37109 15.1854C9.37109 15.172 9.36363 15.16 9.35244 15.1533L4.35249 12.2668C4.3413 12.26 4.32637 12.26 4.31518 12.2668L3.87637 12.5197C3.86518 12.5265 3.85772 12.5384 3.85772 12.5518C3.85772 12.5653 3.86518 12.5772 3.87637 12.5839L8.87632 15.4705C8.88229 15.4742 8.88826 15.4757 8.89498 15.4757ZM9.25915 15.1854L8.89498 15.3958L3.9704 12.5518L4.33458 12.3414L9.25841 15.1854H9.25915Z" fill="#4760FF" stroke="#4760FF" stroke-width="0.037313"/>
<path d="M5.60585 11.5645L10.6055 14.4512L9.33299 15.1856L4.33337 12.2988L5.60585 11.5645Z" fill="white" stroke="#4760FF" stroke-width="0.037313"/>
<path d="M9.33864 15.2229C9.34536 15.2229 9.35133 15.2215 9.3573 15.2177L10.6298 14.4833C10.641 14.4766 10.6484 14.4647 10.6484 14.4513C10.6484 14.4378 10.641 14.4259 10.6298 14.4192L5.63016 11.5324C5.61897 11.5257 5.60404 11.5257 5.59285 11.5324L4.32036 12.2668C4.30917 12.2735 4.30171 12.2854 4.30171 12.2989C4.30171 12.3123 4.30917 12.3242 4.32036 12.3309L9.31998 15.2177C9.32595 15.2207 9.33192 15.2229 9.33864 15.2229ZM10.5365 14.4513L9.33864 15.1423L4.41365 12.2989L5.6115 11.6078L10.5365 14.4505V14.4513Z" fill="#4760FF" stroke="#4760FF" stroke-width="0.037313"/>
<path d="M10.6055 14.4492V18.8242L7.35971 20.6982V16.3225L8.8949 15.4366V15.9426L9.33299 15.6896V15.1836L10.6055 14.4492Z" fill="white" stroke="#4760FF" stroke-width="0.037313"/>
<path d="M7.36536 20.7363C7.37208 20.7363 7.37805 20.7348 7.38402 20.731L10.6298 18.857C10.641 18.8503 10.6484 18.8384 10.6484 18.8249V14.4492C10.6484 14.4358 10.641 14.4239 10.6298 14.4171C10.6186 14.4104 10.6037 14.4104 10.5925 14.4171L9.31998 15.1515C9.30879 15.1582 9.30132 15.1702 9.30132 15.1836V15.6687L8.93712 15.8792V15.4374C8.93712 15.4239 8.92966 15.412 8.91846 15.4053C8.90727 15.3986 8.89234 15.3986 8.88114 15.4053L7.34596 16.2912C7.33476 16.2979 7.3273 16.3098 7.3273 16.3233V20.6982C7.3273 20.7116 7.33476 20.7236 7.34596 20.7303C7.35193 20.7333 7.3579 20.7355 7.36462 20.7355L7.36536 20.7363ZM10.5738 18.8033L7.40268 20.634V16.3449L8.86323 15.5016V15.9434C8.86323 15.9568 8.8707 15.9688 8.88189 15.9755C8.89309 15.9822 8.90801 15.9822 8.91921 15.9755L9.35804 15.7225C9.36924 15.7157 9.3767 15.7038 9.3767 15.6904V15.2053L10.5746 14.5142V18.8033H10.5738Z" fill="#4760FF" stroke="#4760FF" stroke-width="0.037313"/>
<path d="M7.36325 16.3234L2.36363 13.4374L3.89882 12.5508L8.89844 15.4376L7.36325 16.3234Z" fill="white" stroke="#4760FF" stroke-width="0.037313"/>
<path d="M7.3689 16.3608C7.37562 16.3608 7.38159 16.3593 7.38756 16.3556L8.92275 15.4697C8.93394 15.463 8.94141 15.451 8.94141 15.4376C8.94141 15.4241 8.93394 15.4122 8.92275 15.4055L3.92313 12.5187C3.91194 12.512 3.89701 12.512 3.88581 12.5187L2.35063 13.4053C2.33943 13.4121 2.33197 13.424 2.33197 13.4374C2.33197 13.4509 2.33943 13.4628 2.35063 13.4695L7.35025 16.3556C7.35622 16.3585 7.36219 16.3608 7.3689 16.3608ZM8.82946 15.4376L7.3689 16.2809L2.44392 13.4374L3.90447 12.5941L8.82946 15.4376Z" fill="#4760FF" stroke="#4760FF" stroke-width="0.037313"/>
<path d="M9.32812 15.1855V15.692L8.88964 15.9452V15.4388L9.32812 15.1855Z" fill="#4760FF" stroke="#4760FF" stroke-width="0.037313"/>
<path d="M8.89452 15.9834C8.90124 15.9834 8.90722 15.9819 8.91319 15.9782L9.35242 15.7249C9.36362 15.7182 9.37109 15.7062 9.37109 15.6928V15.1856C9.37109 15.1722 9.36362 15.1602 9.35242 15.1535C9.34121 15.1468 9.32627 15.1468 9.31507 15.1535L8.87584 15.4067C8.86464 15.4134 8.85717 15.4254 8.85717 15.4388V15.946C8.85717 15.9595 8.86464 15.9714 8.87584 15.9782C8.88182 15.9811 8.88779 15.9834 8.89452 15.9834ZM9.2964 15.6711L8.93187 15.8818V15.4612L9.2964 15.2506V15.6711Z" fill="#4760FF" stroke="#4760FF" stroke-width="0.037313"/>
<path d="M2.35976 13.4395L7.35938 16.3255V20.7012L2.35976 17.8241V13.4395Z" fill="#4760FF" stroke="#4760FF" stroke-width="0.037313"/>
<path d="M7.36503 20.7385C7.37174 20.7385 7.37772 20.737 7.38369 20.7333C7.39563 20.7266 7.40234 20.7146 7.40234 20.7012V16.3263C7.40234 16.3128 7.39488 16.3009 7.38369 16.2942L2.38407 13.4074C2.37287 13.4007 2.35795 13.4007 2.34675 13.4074C2.33556 13.4141 2.32809 13.426 2.32809 13.4395V17.8241C2.32809 17.8376 2.33556 17.8495 2.34675 17.8562L7.34637 20.7333C7.35234 20.7363 7.35831 20.7385 7.36503 20.7385ZM7.32771 16.3471V20.6363L2.40272 17.8025V13.5037L7.32771 16.3471Z" fill="#4760FF" stroke="#4760FF" stroke-width="0.037313"/>
<path d="M3.54272 15.1451L2.56417 14.5804C2.52981 14.5602 2.50142 14.5072 2.50142 14.4609V14.0157C2.50142 13.9694 2.52981 13.9484 2.56417 13.9686L3.54272 14.5333C3.57708 14.5535 3.60547 14.6065 3.60547 14.6529V15.0981C3.60547 15.1444 3.57708 15.1653 3.54272 15.1451Z" fill="#FCFCFC"/>
<path d="M2.68359 14.5753L2.64849 14.5551V14.0957L2.68359 14.1159V14.5753Z" fill="#4760FF"/>
<path d="M2.75391 14.4772L2.71872 14.457V14.1328L2.75391 14.153V14.4772Z" fill="#4760FF"/>
<path d="M2.8125 14.5143L2.77731 14.4941V14.1699L2.8125 14.1901V14.5143Z" fill="#4760FF"/>
<path d="M2.87891 14.5514L2.84446 14.5312V14.207L2.87891 14.2272V14.5514Z" fill="#4760FF"/>
<path d="M2.94141 14.5846L2.90622 14.5644V14.2402L2.94141 14.2604V14.5846Z" fill="#4760FF"/>
<path d="M3.00391 14.6218L2.96872 14.6015V14.2773L3.00391 14.2976V14.6218Z" fill="#4760FF"/>
<path d="M3.07031 14.7304L3.03513 14.7102V14.3164L3.07031 14.3366V14.7304Z" fill="#4760FF"/>
<path d="M3.12891 14.6979L3.09372 14.6777V14.3535L3.12891 14.3737V14.6979Z" fill="#4760FF"/>
<path d="M3.19531 14.7311L3.16012 14.7109V14.3867L3.19531 14.4069V14.7311Z" fill="#4760FF"/>
<path d="M3.26172 14.7702L3.22653 14.75V14.4258L3.26172 14.446V14.7702Z" fill="#4760FF"/>
<path d="M3.32422 14.8053L3.28978 14.7851V14.4609L3.32422 14.4812V14.8053Z" fill="#4760FF"/>
<path d="M3.37891 14.8425L3.34372 14.8222V14.498L3.37891 14.5183V14.8425Z" fill="#4760FF"/>
<path d="M3.44922 15.0147L3.41411 14.9946V14.5352L3.44922 14.5553V15.0147Z" fill="#4760FF"/>
<path d="M5.49609 19.3287V18.634C5.49609 18.572 5.45277 18.4973 5.39899 18.466L4.79692 18.1186C4.74313 18.088 4.69981 18.1126 4.69981 18.1746V18.8693C4.69981 18.9313 4.74313 19.006 4.79692 19.0374L5.39899 19.3847C5.45277 19.4154 5.49609 19.3907 5.49609 19.3287ZM5.39899 18.5063C5.43335 18.5257 5.46099 18.5743 5.46099 18.6139V19.3086C5.46099 19.3481 5.43335 19.3638 5.39899 19.3444L4.79692 18.9971C4.76255 18.9776 4.73492 18.9291 4.73492 18.8895V18.1948C4.73492 18.1552 4.76255 18.1395 4.79692 18.1589L5.39899 18.5063Z" fill="white"/>
<path d="M6.35938 19.8248V19.1301C6.35938 19.0681 6.31605 18.9934 6.26227 18.962L5.6602 18.6147C5.60641 18.5841 5.56309 18.6087 5.56309 18.6707V19.3654C5.56309 19.4274 5.60641 19.5021 5.6602 19.5335L6.26227 19.8808C6.31605 19.9115 6.35938 19.8868 6.35938 19.8248ZM6.26227 19.0024C6.29663 19.0218 6.32427 19.0704 6.32427 19.1099V19.8046C6.32427 19.8442 6.29663 19.8599 6.26227 19.8405L5.6602 19.4932C5.62584 19.4737 5.5982 19.4252 5.5982 19.3856V18.6909C5.5982 18.6513 5.62584 18.6356 5.6602 18.655L6.26227 19.0024Z" fill="white"/>
<path d="M7.22656 20.3248V19.6301C7.22656 19.5681 7.18324 19.4934 7.12945 19.462L6.52738 19.1147C6.4736 19.0841 6.43028 19.1087 6.43028 19.1707V19.8654C6.43028 19.9274 6.4736 20.0021 6.52738 20.0335L7.12945 20.3808C7.18324 20.4115 7.22656 20.3868 7.22656 20.3248ZM7.12945 19.5024C7.16382 19.5218 7.19145 19.5704 7.19145 19.6099V20.3046C7.19145 20.3442 7.16382 20.3599 7.12945 20.3405L6.52738 19.9932C6.49302 19.9737 6.46539 19.9252 6.46539 19.8856V19.1909C6.46539 19.1513 6.49302 19.1356 6.52738 19.155L7.12945 19.5024Z" fill="white"/>
<path d="M6.98363 19.7869V19.574L6.76551 19.4485L6.75729 19.4911L6.79688 19.5038L6.80286 19.5732L6.84394 19.5882L6.80809 19.6815V19.5927H6.78194L6.76999 19.5269L6.74086 19.5247L6.7192 19.4208L6.6811 19.3984V19.6113C6.6811 19.6965 6.74086 19.8011 6.81481 19.8436V19.9736L6.73115 19.9251C6.71845 19.9176 6.70799 19.9236 6.70799 19.9385V19.952L6.95748 20.0961V20.0827C6.95748 20.0677 6.94703 20.0498 6.93433 20.0423L6.85066 19.9938V19.8638C6.92462 19.9064 6.98438 19.872 6.98438 19.7861L6.98363 19.7869Z" fill="white"/>
<path d="M5.39062 19.1399L4.8147 18.8075V18.8882L5.39062 19.2206V19.1399ZM5.02759 18.5326V18.8419L4.92301 18.7814V18.4721L4.86475 18.4385L4.9753 18.375L5.08586 18.5662L5.02759 18.5326ZM5.33983 18.7126L5.22928 18.5214L5.11872 18.5849L5.17699 18.6185V18.9278L5.28157 18.9883V18.679L5.33983 18.7126Z" fill="white"/>
<path d="M6.125 19.3209L5.97554 19.3344V19.1346L6.125 19.1211V19.3209Z" fill="white"/>
<path d="M5.95312 19.3252L5.80378 19.1391V18.9395L5.95312 19.1256V19.3252Z" fill="white"/>
<path d="M5.96042 19.1171L5.81146 18.9314L5.96042 18.918L6.10938 19.1036L5.96042 19.1171Z" fill="white"/>
<path d="M5.77621 19.1548C5.77621 19.1548 5.77173 19.1488 5.76949 19.1473C5.76949 19.1473 5.76426 19.1429 5.76202 19.1414C5.76202 19.1414 5.75679 19.1376 5.75455 19.1369C5.74783 19.1339 5.74111 19.1339 5.73588 19.1369C5.72318 19.1443 5.72318 19.1682 5.73588 19.1899L5.78294 19.2721C5.78518 19.2758 5.78518 19.2803 5.78294 19.2818C5.7807 19.2833 5.77696 19.281 5.77472 19.2773L5.72766 19.1951C5.71944 19.1809 5.71496 19.1653 5.71496 19.1518C5.71496 19.1384 5.71944 19.1279 5.72766 19.1234C5.73513 19.1189 5.74409 19.1197 5.75455 19.1242V18.9449C5.72617 18.8911 5.68956 18.8926 5.68956 18.9255V19.157L5.79788 19.3445V19.4887L5.92188 19.5604V19.3983L5.78144 19.1638C5.78144 19.1638 5.77771 19.1578 5.77547 19.1555L5.77621 19.1548Z" fill="white"/>
<path d="M6.14772 19.37C6.14772 19.37 6.15295 19.37 6.15445 19.37C6.15445 19.37 6.15968 19.3715 6.16192 19.3722C6.16192 19.3722 6.16715 19.3752 6.16939 19.3767C6.17611 19.3819 6.18283 19.3886 6.18806 19.3976C6.20076 19.4193 6.20076 19.4432 6.18806 19.4506L6.141 19.4775C6.141 19.4775 6.13876 19.4835 6.141 19.4872C6.14324 19.491 6.14698 19.4932 6.14922 19.4917L6.19628 19.4641C6.2045 19.4596 6.20898 19.4491 6.20898 19.4357C6.20898 19.4223 6.2045 19.4066 6.19628 19.3924C6.18881 19.3797 6.17984 19.3692 6.16939 19.3625V19.1832C6.19777 19.1623 6.23438 19.2056 6.23438 19.2385V19.4701L6.12606 19.5328V19.677L6.00206 19.6053V19.4432L6.1425 19.3707C6.1425 19.3707 6.14623 19.3692 6.14847 19.3685L6.14772 19.37Z" fill="white"/>
<path d="M3.93774 8.13775L4.3758 7.88477L9.375 10.7713L8.93694 11.0243L3.93774 8.13775Z" fill="white" stroke="#4760FF" stroke-width="0.037313"/>
<path d="M8.94185 11.0616C8.94857 11.0616 8.95454 11.0601 8.96051 11.0564L9.39931 10.8034C9.41051 10.7967 9.41797 10.7848 9.41797 10.7713C9.41797 10.7579 9.41051 10.7459 9.39931 10.7392L4.39936 7.85269C4.38817 7.84598 4.37325 7.84598 4.36205 7.85269L3.92325 8.10568C3.91206 8.11239 3.90459 8.12433 3.90459 8.13777C3.90459 8.1512 3.91206 8.16314 3.92325 8.16985L8.9232 11.0564C8.92917 11.0601 8.93514 11.0616 8.94185 11.0616ZM9.30603 10.7713L8.94185 10.9818L4.01728 8.13777L4.38145 7.92732L9.30528 10.7713H9.30603Z" fill="#4760FF" stroke="#4760FF" stroke-width="0.037313"/>
<path d="M5.64882 7.15039L10.6484 10.0372L9.37596 10.7715L4.37634 7.88477L5.64882 7.15039Z" fill="white" stroke="#4760FF" stroke-width="0.037313"/>
<path d="M9.38161 10.8089C9.38833 10.8089 9.3943 10.8074 9.40027 10.8037L10.6727 10.0693C10.6839 10.0626 10.6914 10.0506 10.6914 10.0372C10.6914 10.0238 10.6839 10.0118 10.6727 10.0051L5.67313 7.11832C5.66194 7.1116 5.64701 7.1116 5.63581 7.11832L4.36333 7.8527C4.35214 7.85942 4.34468 7.87136 4.34468 7.88479C4.34468 7.89823 4.35214 7.91017 4.36333 7.91688L9.36295 10.8037C9.36892 10.8066 9.37489 10.8089 9.38161 10.8089ZM10.5795 10.0372L9.38161 10.7283L4.45662 7.88479L5.65447 7.1937L10.5795 10.0364V10.0372Z" fill="#4760FF" stroke="#4760FF" stroke-width="0.037313"/>
<path d="M10.6484 10.0332V14.4081L7.40268 16.2822V11.9065L8.93787 11.0206V11.5266L9.37596 11.2736V10.7676L10.6484 10.0332Z" fill="white" stroke="#4760FF" stroke-width="0.037313"/>
<path d="M7.40833 16.3203C7.41505 16.3203 7.42102 16.3188 7.42699 16.315L10.6727 14.441C10.6839 14.4343 10.6914 14.4223 10.6914 14.4089V10.0332C10.6914 10.0198 10.6839 10.0078 10.6727 10.0011C10.6616 9.99441 10.6466 9.99441 10.6354 10.0011L9.36295 10.7355C9.35176 10.7422 9.34429 10.7542 9.34429 10.7676V11.2527L8.98009 11.4632V11.0214C8.98009 11.0079 8.97262 10.996 8.96143 10.9893C8.95023 10.9825 8.93531 10.9825 8.92411 10.9893L7.38893 11.8751C7.37773 11.8819 7.37027 11.8938 7.37027 11.9072V16.2822C7.37027 16.2956 7.37773 16.3076 7.38893 16.3143C7.3949 16.3173 7.40087 16.3195 7.40758 16.3195L7.40833 16.3203ZM10.6168 14.3873L7.44565 16.218V11.9289L8.9062 11.0855V11.5274C8.9062 11.5408 8.91366 11.5527 8.92486 11.5595C8.93605 11.5662 8.95098 11.5662 8.96218 11.5595L9.40101 11.3065C9.41221 11.2997 9.41967 11.2878 9.41967 11.2744V10.7892L10.6175 10.0982V14.3873H10.6168Z" fill="#4760FF" stroke="#4760FF" stroke-width="0.037313"/>
<path d="M7.39841 11.9094L2.39879 9.02335L3.93398 8.13672L8.93359 11.0235L7.39841 11.9094Z" fill="white" stroke="#4760FF" stroke-width="0.037313"/>
<path d="M7.40406 11.9467C7.41078 11.9467 7.41675 11.9452 7.42272 11.9415L8.9579 11.0556C8.9691 11.0489 8.97656 11.037 8.97656 11.0235C8.97656 11.0101 8.9691 10.9981 8.9579 10.9914L3.95829 8.10465C3.94709 8.09793 3.93217 8.09793 3.92097 8.10465L2.38578 8.99128C2.37459 8.998 2.36713 9.00994 2.36713 9.02337C2.36713 9.0368 2.37459 9.04875 2.38578 9.05546L7.3854 11.9415C7.39137 11.9445 7.39734 11.9467 7.40406 11.9467ZM8.86461 11.0235L7.40406 11.8669L2.47907 9.02337L3.93963 8.18003L8.86461 11.0235Z" fill="#4760FF" stroke="#4760FF" stroke-width="0.037313"/>
<path d="M9.375 10.7676V11.274L8.93652 11.5273V11.0208L9.375 10.7676Z" fill="#4760FF" stroke="#4760FF" stroke-width="0.037313"/>
<path d="M8.94139 11.5654C8.94812 11.5654 8.95409 11.5639 8.96007 11.5602L9.39929 11.307C9.4105 11.3002 9.41797 11.2883 9.41797 11.2748V10.7676C9.41797 10.7542 9.4105 10.7422 9.39929 10.7355C9.38809 10.7288 9.37315 10.7288 9.36194 10.7355L8.92272 10.9887C8.91151 10.9955 8.90404 11.0074 8.90404 11.0209V11.5281C8.90404 11.5415 8.91151 11.5535 8.92272 11.5602C8.92869 11.5632 8.93467 11.5654 8.94139 11.5654ZM9.34327 11.2532L8.97874 11.4638V11.0433L9.34327 10.8326V11.2532Z" fill="#4760FF" stroke="#4760FF" stroke-width="0.037313"/>
<path d="M2.39491 9.02734L7.39453 11.9134V16.2891L2.39491 13.412V9.02734Z" fill="#4760FF" stroke="#4760FF" stroke-width="0.037313"/>
<path d="M7.40018 16.3264C7.4069 16.3264 7.41287 16.3249 7.41884 16.3212C7.43078 16.3145 7.4375 16.3025 7.4375 16.2891V11.9141C7.4375 11.9007 7.43004 11.8888 7.41884 11.882L2.41922 8.99527C2.40803 8.98856 2.3931 8.98856 2.38191 8.99527C2.37071 9.00199 2.36325 9.01393 2.36325 9.02736V13.412C2.36325 13.4254 2.37071 13.4374 2.38191 13.4441L7.38153 16.3212C7.3875 16.3242 7.39347 16.3264 7.40018 16.3264ZM7.36287 11.935V16.2242L2.43788 13.3904V9.09155L7.36287 11.935Z" fill="#4760FF" stroke="#4760FF" stroke-width="0.037313"/>
<path d="M3.57788 10.7291L2.59933 10.1644C2.56497 10.1442 2.53658 10.0912 2.53658 10.0449V9.59966C2.53658 9.55334 2.56497 9.53243 2.59933 9.5526L3.57788 10.1173C3.61224 10.1375 3.64062 10.1905 3.64062 10.2368V10.682C3.64062 10.7284 3.61224 10.7493 3.57788 10.7291Z" fill="#FCFCFC"/>
<path d="M2.72656 10.1632L2.69145 10.143V9.68359L2.72656 9.70376V10.1632Z" fill="#4760FF"/>
<path d="M2.79688 10.0651L2.76169 10.0449V9.7207L2.79688 9.74092V10.0651Z" fill="#4760FF"/>
<path d="M2.85547 10.1022L2.82028 10.082V9.75781L2.85547 9.77803V10.1022Z" fill="#4760FF"/>
<path d="M2.92188 10.1393L2.88743 10.1191V9.79492L2.92188 9.81514V10.1393Z" fill="#4760FF"/>
<path d="M2.98438 10.1725L2.94919 10.1523V9.82812L2.98438 9.84834V10.1725Z" fill="#4760FF"/>
<path d="M3.04688 10.2096L3.01169 10.1894V9.86523L3.04688 9.88545V10.2096Z" fill="#4760FF"/>
<path d="M3.11328 10.3183L3.0781 10.2981V9.9043L3.11328 9.92451V10.3183Z" fill="#4760FF"/>
<path d="M3.17188 10.2858L3.13669 10.2656V9.94141L3.17188 9.96162V10.2858Z" fill="#4760FF"/>
<path d="M3.23828 10.319L3.20309 10.2988V9.97461L3.23828 9.99482V10.319Z" fill="#4760FF"/>
<path d="M3.30469 10.3581L3.2695 10.3379V10.0137L3.30469 10.0339V10.3581Z" fill="#4760FF"/>
<path d="M3.36719 10.3932L3.33275 10.373V10.0488L3.36719 10.069V10.3932Z" fill="#4760FF"/>
<path d="M3.42188 10.4303L3.38669 10.4101V10.0859L3.42188 10.1062V10.4303Z" fill="#4760FF"/>
<path d="M3.49219 10.6026L3.45708 10.5824V10.123L3.49219 10.1432V10.6026Z" fill="#4760FF"/>
<path d="M5.53906 14.9166V14.2219C5.53906 14.1599 5.49574 14.0852 5.44195 14.0538L4.83988 13.7065C4.7861 13.6759 4.74278 13.7005 4.74278 13.7625V14.4572C4.74278 14.5192 4.7861 14.5939 4.83988 14.6253L5.44195 14.9726C5.49574 15.0033 5.53906 14.9786 5.53906 14.9166ZM5.44195 14.0942C5.47632 14.1136 5.50395 14.1622 5.50395 14.2017V14.8964C5.50395 14.936 5.47632 14.9517 5.44195 14.9323L4.83988 14.5849C4.80552 14.5655 4.77788 14.517 4.77788 14.4774V13.7827C4.77788 13.7431 4.80552 13.7274 4.83988 13.7468L5.44195 14.0942Z" fill="white"/>
<path d="M6.40234 15.4127V14.718C6.40234 14.656 6.35902 14.5813 6.30524 14.5499L5.70317 14.2026C5.64938 14.172 5.60606 14.1966 5.60606 14.2586V14.9533C5.60606 15.0153 5.64938 15.09 5.70317 15.1214L6.30524 15.4687C6.35902 15.4994 6.40234 15.4747 6.40234 15.4127ZM6.30524 14.5903C6.3396 14.6097 6.36724 14.6582 6.36724 14.6978V15.3925C6.36724 15.4321 6.3396 15.4478 6.30524 15.4284L5.70317 15.081C5.6688 15.0616 5.64117 15.0131 5.64117 14.9735V14.2788C5.64117 14.2392 5.6688 14.2235 5.70317 14.2429L6.30524 14.5903Z" fill="white"/>
<path d="M7.26953 15.9127V15.218C7.26953 15.156 7.22621 15.0813 7.17242 15.0499L6.57035 14.7026C6.51657 14.672 6.47325 14.6966 6.47325 14.7586V15.4533C6.47325 15.5153 6.51657 15.59 6.57035 15.6214L7.17242 15.9687C7.22621 15.9994 7.26953 15.9747 7.26953 15.9127ZM7.17242 15.0903C7.20678 15.1097 7.23442 15.1582 7.23442 15.1978V15.8925C7.23442 15.9321 7.20678 15.9478 7.17242 15.9284L6.57035 15.581C6.53599 15.5616 6.50835 15.5131 6.50835 15.4735V14.7788C6.50835 14.7392 6.53599 14.7235 6.57035 14.7429L7.17242 15.0903Z" fill="white"/>
<path d="M7.0266 15.3748V15.1619L6.80848 15.0364L6.80026 15.079L6.83985 15.0917L6.84583 15.1611L6.88691 15.1761L6.85106 15.2694V15.1805H6.82491L6.81296 15.1148L6.78383 15.1126L6.76216 15.0087L6.72407 14.9863V15.1992C6.72407 15.2844 6.78383 15.389 6.85778 15.4315V15.5615L6.77412 15.513C6.76142 15.5055 6.75096 15.5115 6.75096 15.5264V15.5398L7.00045 15.684V15.6706C7.00045 15.6556 6.98999 15.6377 6.9773 15.6302L6.89363 15.5817V15.4517C6.96758 15.4943 7.02734 15.4599 7.02734 15.374L7.0266 15.3748Z" fill="white"/>
<path d="M5.43359 14.7278L4.85767 14.3954V14.4761L5.43359 14.8085V14.7278ZM5.07056 14.1205V14.4298L4.96598 14.3693V14.06L4.90772 14.0264L5.01827 13.9629L5.12882 14.1541L5.07056 14.1205ZM5.3828 14.3005L5.27225 14.1093L5.16169 14.1728L5.21996 14.2064V14.5157L5.32453 14.5762V14.2669L5.3828 14.3005Z" fill="white"/>
<path d="M6.16406 14.9088L6.0146 14.9223V14.7225L6.16406 14.709V14.9088Z" fill="white"/>
<path d="M5.99219 14.9131L5.84285 14.727V14.5273L5.99219 14.7135V14.9131Z" fill="white"/>
<path d="M5.99948 14.705L5.85052 14.5193L5.99948 14.5059L6.14844 14.6915L5.99948 14.705Z" fill="white"/>
<path d="M5.81528 14.7427C5.81528 14.7427 5.81079 14.7367 5.80855 14.7352C5.80855 14.7352 5.80332 14.7307 5.80108 14.7292C5.80108 14.7292 5.79585 14.7255 5.79361 14.7248C5.78689 14.7218 5.78017 14.7218 5.77494 14.7248C5.76224 14.7322 5.76224 14.7561 5.77494 14.7778L5.822 14.86C5.82424 14.8637 5.82424 14.8682 5.822 14.8697C5.81976 14.8712 5.81602 14.8689 5.81378 14.8652L5.76672 14.783C5.75851 14.7688 5.75402 14.7532 5.75402 14.7397C5.75402 14.7263 5.75851 14.7158 5.76672 14.7113C5.77419 14.7068 5.78316 14.7076 5.79361 14.7121V14.5328C5.76523 14.479 5.72863 14.4805 5.72863 14.5134V14.7449L5.83694 14.9324V15.0766L5.96094 15.1483V14.9862L5.82051 14.7517C5.82051 14.7517 5.81677 14.7457 5.81453 14.7434L5.81528 14.7427Z" fill="white"/>
<path d="M6.18679 14.9579C6.18679 14.9579 6.19202 14.9579 6.19351 14.9579C6.19351 14.9579 6.19874 14.9594 6.20098 14.9601C6.20098 14.9601 6.20621 14.9631 6.20845 14.9646C6.21517 14.9698 6.2219 14.9765 6.22712 14.9855C6.23982 15.0072 6.23982 15.0311 6.22712 15.0385L6.18006 15.0654C6.18006 15.0654 6.17782 15.0714 6.18006 15.0751C6.18231 15.0789 6.18604 15.0811 6.18828 15.0796L6.23534 15.052C6.24356 15.0475 6.24804 15.037 6.24804 15.0236C6.24804 15.0101 6.24356 14.9945 6.23534 14.9803C6.22787 14.9676 6.21891 14.9571 6.20845 14.9504V14.7711C6.23684 14.7502 6.27344 14.7935 6.27344 14.8264V15.058L6.16512 15.1207V15.2649L6.04112 15.1932V15.0311L6.18156 14.9586C6.18156 14.9586 6.18529 14.9571 6.18753 14.9564L6.18679 14.9579Z" fill="white"/>
<path fill-rule="evenodd" clip-rule="evenodd" d="M11.0236 16.7259V18.0704L11.6958 18.4065L12.3681 17.3982L20.0987 21.2635L20.7709 22.944L21.4432 23.2802V12.1884L10.6875 6.81055V16.5579L11.0236 16.7259Z" fill="white"/>
<path fill-rule="evenodd" clip-rule="evenodd" d="M14.7134 14.8771L14.0412 15.2132L16.7301 16.5577L17.4023 16.2216L17.0662 16.0535L16.7301 16.2216L14.7134 15.2132L15.0495 15.0452L14.7134 14.8771ZM14.7134 10.5076L14.0412 10.8437L16.7301 12.1882L17.4023 11.8521L17.0662 11.684L16.7301 11.8521L14.7134 10.8437L15.0495 10.6757L14.7134 10.5076ZM16.0579 3.44922L10.0078 6.47425L21.4357 12.1882L27.4858 9.16317L16.0579 3.44922Z" fill="white"/>
<path fill-rule="evenodd" clip-rule="evenodd" d="M10.6019 6.86209V16.5573C10.6019 16.5892 10.6196 16.6178 10.6481 16.6321L10.938 16.7766V18.069C10.938 18.1009 10.9557 18.1295 10.9842 18.1438L11.6565 18.4799C11.6943 18.4992 11.7405 18.4866 11.764 18.4513L12.3951 17.5043L20.0308 21.3226L20.6912 22.9737C20.6988 22.9931 20.7131 23.0082 20.7316 23.0174L21.4038 23.3535C21.4273 23.3653 21.4559 23.3653 21.4794 23.3535L22.1517 23.0174C22.1701 23.0082 22.1844 22.9931 22.192 22.9737L22.8525 21.3226L25.1103 20.1932L25.7414 21.1402C25.7649 21.1755 25.8111 21.1873 25.8489 21.1688L26.5211 20.8327C26.5497 20.8184 26.5674 20.7898 26.5674 20.7579V19.4655L26.8573 19.321C26.8858 19.3067 26.9035 19.2782 26.9035 19.2462V9.551L27.5295 9.23842C27.5581 9.22413 27.5757 9.19472 27.5757 9.16363C27.5757 9.13254 27.5581 9.10313 27.5295 9.08885L16.1016 3.37406C16.0781 3.36229 16.0503 3.36229 16.0268 3.37406L9.9759 6.39909C9.94733 6.41337 9.92969 6.44278 9.92969 6.47387C9.92969 6.50496 9.94733 6.53437 9.9759 6.54866L10.6019 6.86125V6.86209ZM20.498 21.557L21.3576 21.9864V23.1426L20.8358 22.8813L20.2576 21.436L20.498 21.5562V21.557ZM10.77 16.5052L12.4043 17.322L20.135 21.1873L21.3576 21.799V12.2399L20.8534 11.9878V20.9268C20.8534 20.9562 20.8383 20.9831 20.8139 20.9982C20.7887 21.0133 20.7585 21.015 20.7324 21.0016L11.3204 16.296C11.2918 16.2817 11.2741 16.2531 11.2741 16.2212V7.1982L10.77 6.94611V16.5052ZM11.4422 11.6517V16.1691L20.6854 20.7907V16.2733L11.4422 11.6517ZM11.1061 16.8615L12.2438 17.4304L11.6657 18.2975L11.1061 18.0177V16.8615ZM14.0101 15.1381C13.9681 15.1599 13.9656 15.1969 13.9631 15.2389C13.9572 15.375 13.9631 15.5128 13.9631 15.649C13.9631 15.7321 13.9295 15.9061 14.0093 15.9607C14.037 15.9792 14.0723 15.9918 14.1017 16.0069L15.5176 16.7153L16.2965 17.1052C16.4259 17.1699 16.5553 17.2472 16.6898 17.3018C16.7226 17.3152 16.7427 17.3161 16.7763 17.3035C16.8797 17.264 16.9797 17.2018 17.0788 17.1522C17.194 17.0951 17.3116 17.0413 17.4242 16.9791C17.5124 16.9312 17.4906 16.8363 17.4906 16.7489V16.3027C17.4906 16.259 17.5007 16.201 17.4687 16.1657C17.4486 16.143 17.4116 16.1304 17.3855 16.1178L17.1839 16.017C17.1326 15.9918 17.0898 15.9599 17.0318 15.9792C16.9788 15.9968 16.9259 16.0321 16.8763 16.0573L16.7343 16.1279L15.1378 15.3297C15.1378 15.2364 15.1546 15.128 15.1378 15.0372C15.1252 14.9692 15.0504 14.9498 14.9958 14.9221C14.9092 14.8793 14.7689 14.7683 14.6706 14.807C14.5563 14.8524 14.4471 14.9187 14.3378 14.9734L14.0093 15.1381H14.0101ZM15.442 16.0044L16.6528 16.6094V17.0934L14.132 15.833V15.349L15.442 16.0044ZM14.8681 15.0448L14.7202 14.9708L14.2362 15.2129L16.7368 16.4632L17.2209 16.2212L17.073 16.1472L16.9015 16.233C16.8419 16.2632 16.7679 16.3195 16.699 16.2968C16.6528 16.2817 16.6066 16.2506 16.5629 16.2288L15.7428 15.8187L14.8832 15.3893C14.8193 15.3574 14.7504 15.3297 14.6891 15.2918C14.6689 15.2792 14.6521 15.2691 14.642 15.2456C14.5933 15.1297 14.8059 15.0759 14.8672 15.0448H14.8681ZM11.4422 7.28223V11.4635L20.6854 16.0851V11.9038L11.4422 7.28223ZM14.0101 10.7686C13.9689 10.7904 13.9647 10.8266 13.9631 10.8686C13.958 11.0022 13.9631 11.1366 13.9631 11.2702C13.9631 11.3551 13.9278 11.5358 14.0093 11.5912C14.0353 11.6089 14.0681 11.6206 14.0967 11.6349L15.5109 12.3424L16.2974 12.7357C16.4276 12.8004 16.557 12.8785 16.6915 12.9332C16.7251 12.9466 16.7452 12.9466 16.7789 12.9332C16.8847 12.892 16.9864 12.8298 17.0872 12.7785C17.2007 12.7222 17.3166 12.6693 17.4284 12.608C17.515 12.5609 17.4923 12.4618 17.4923 12.376V11.9357C17.4923 11.892 17.5032 11.8324 17.4721 11.7962C17.4519 11.7727 17.4141 11.7601 17.3881 11.7467L17.1864 11.6458C17.1351 11.6206 17.0923 11.5887 17.0343 11.608C16.9814 11.6257 16.9284 11.661 16.8789 11.6862L16.7368 11.7568L15.1403 10.9585C15.1403 10.8652 15.1571 10.7568 15.1403 10.6661C15.1277 10.598 15.0529 10.5787 14.9983 10.5509C14.9117 10.5081 14.7714 10.3972 14.6731 10.4358C14.5588 10.4812 14.4496 10.5476 14.3404 10.6022L14.0118 10.7669L14.0101 10.7686ZM15.442 11.6349L16.6528 12.2399V12.7239L14.132 11.4635V10.9795L15.442 11.6349ZM14.2353 10.8434L16.736 12.0937L17.22 11.8517L17.0721 11.7778L16.9007 11.8635C16.841 11.8937 16.7671 11.95 16.6982 11.9273C16.6486 11.9105 16.6007 11.8786 16.5545 11.8551L15.7277 11.4416L14.8689 11.0123C14.8101 10.9829 14.6697 10.9467 14.6412 10.8745C14.595 10.7585 14.805 10.7064 14.8672 10.6753L14.7193 10.6014L14.2353 10.8434ZM26.7825 9.42412L27.3043 9.16279L16.0638 3.54295L10.2019 6.47387L11.3951 7.07048L21.4416 12.0937L26.7816 9.42328L26.7825 9.42412Z" fill="#4760FF"/>
<path d="M18.844 3.13775L19.282 2.88477L24.2812 5.7713L23.8432 6.02429L18.844 3.13775Z" fill="white" stroke="#4760FF" stroke-width="0.037313"/>
<path d="M23.8481 6.06162C23.8548 6.06162 23.8608 6.06012 23.8668 6.05639L24.3056 5.80341C24.3168 5.79669 24.3242 5.78475 24.3242 5.77132C24.3242 5.75789 24.3168 5.74595 24.3056 5.73923L19.3056 2.85269C19.2944 2.84598 19.2795 2.84598 19.2683 2.85269L18.8295 3.10568C18.8183 3.11239 18.8108 3.12433 18.8108 3.13777C18.8108 3.1512 18.8183 3.16314 18.8295 3.16985L23.8294 6.05639C23.8354 6.06012 23.8414 6.06162 23.8481 6.06162ZM24.2123 5.77132L23.8481 5.98177L18.9235 3.13777L19.2877 2.92732L24.2115 5.77132H24.2123Z" fill="#4760FF" stroke="#4760FF" stroke-width="0.037313"/>
<path d="M20.559 2.1543L25.5586 5.04107L24.2861 5.77546L19.2865 2.88868L20.559 2.1543Z" fill="white" stroke="#4760FF" stroke-width="0.037313"/>
<path d="M24.2918 5.81279C24.2985 5.81279 24.3045 5.8113 24.3104 5.80757L25.5829 5.07319C25.5941 5.06647 25.6016 5.05453 25.6016 5.04109C25.6016 5.02766 25.5941 5.01572 25.5829 5.009L20.5833 2.12223C20.5721 2.11551 20.5572 2.11551 20.546 2.12223L19.2735 2.85661C19.2623 2.86332 19.2548 2.87527 19.2548 2.8887C19.2548 2.90213 19.2623 2.91407 19.2735 2.92079L24.2731 5.80757C24.2791 5.81055 24.285 5.81279 24.2918 5.81279ZM25.4896 5.04109L24.2918 5.73219L19.3668 2.8887L20.5646 2.1976L25.4896 5.04035V5.04109Z" fill="#4760FF" stroke="#4760FF" stroke-width="0.037313"/>
<path d="M25.5586 5.03516V9.62346L22.3128 11.2841V6.90843L23.848 6.02254V6.52855L24.2861 6.27555V5.76954L25.5586 5.03516Z" fill="white" stroke="#4760FF" stroke-width="0.037313"/>
<path d="M22.3185 11.3222C22.3252 11.3222 22.3312 11.3207 22.3371 11.317L25.5829 9.65812C25.5941 9.6514 25.6016 9.63946 25.6016 9.62603V5.03518C25.6016 5.02174 25.5941 5.0098 25.5829 5.00308C25.5717 4.99637 25.5568 4.99637 25.5456 5.00308L24.2731 5.73747C24.2619 5.74418 24.2544 5.75612 24.2544 5.76956V6.25467L23.8902 6.46513V6.02331C23.8902 6.00987 23.8828 5.99793 23.8716 5.99122C23.8604 5.9845 23.8455 5.9845 23.8343 5.99122L22.2991 6.8771C22.2879 6.88382 22.2804 6.89576 22.2804 6.90919V11.2841C22.2804 11.2976 22.2879 11.3095 22.2991 11.3162C22.3051 11.3192 22.311 11.3215 22.3177 11.3215L22.3185 11.3222ZM25.5269 9.60438L22.3558 11.22V6.93084L23.8164 6.08749V6.52932C23.8164 6.54275 23.8238 6.55469 23.835 6.56141C23.8462 6.56812 23.8611 6.56812 23.8723 6.56141L24.3112 6.3084C24.3224 6.30169 24.3298 6.28975 24.3298 6.27631V5.7912L25.5277 5.10011V9.60438H25.5269Z" fill="#4760FF" stroke="#4760FF" stroke-width="0.037313"/>
<path d="M22.3086 6.90938L17.3089 4.02335L18.8441 3.13672L23.8438 6.0235L22.3086 6.90938Z" fill="white" stroke="#4760FF" stroke-width="0.037313"/>
<path d="M22.3142 6.94672C22.3209 6.94672 22.3269 6.94523 22.3329 6.94149L23.8681 6.05561C23.8793 6.04889 23.8867 6.03695 23.8867 6.02352C23.8867 6.01008 23.8793 5.99814 23.8681 5.99142L18.8684 3.10465C18.8572 3.09793 18.8423 3.09793 18.8311 3.10465L17.2959 3.99128C17.2847 3.998 17.2773 4.00994 17.2773 4.02337C17.2773 4.0368 17.2847 4.04875 17.2959 4.05546L22.2956 6.94149C22.3015 6.94448 22.3075 6.94672 22.3142 6.94672ZM23.7748 6.02352L22.3142 6.86686L17.3892 4.02337L18.8498 3.18003L23.7748 6.02352Z" fill="#4760FF" stroke="#4760FF" stroke-width="0.037313"/>
<path d="M24.2812 5.77148V6.27794L23.8428 6.53117V6.02471L24.2812 5.77148Z" fill="#4760FF" stroke="#4760FF" stroke-width="0.037313"/>
<path d="M23.8476 6.56932C23.8544 6.56932 23.8603 6.56782 23.8663 6.56409L24.3055 6.31086C24.3167 6.30414 24.3242 6.29219 24.3242 6.27874V5.77154C24.3242 5.75809 24.3167 5.74614 24.3055 5.73942C24.2943 5.73269 24.2794 5.73269 24.2682 5.73942L23.829 5.99265C23.8178 5.99937 23.8103 6.01132 23.8103 6.02477V6.53197C23.8103 6.54541 23.8178 6.55737 23.829 6.56409C23.8349 6.56708 23.8409 6.56932 23.8476 6.56932ZM24.2495 6.25708L23.885 6.46773V6.04717L24.2495 5.83653V6.25708Z" fill="#4760FF" stroke="#4760FF" stroke-width="0.037313"/>
<path d="M17.309 4.02734L22.3086 6.91337V11.2891L17.309 8.41199V4.02734Z" fill="#4760FF" stroke="#4760FF" stroke-width="0.037313"/>
<path d="M22.3142 11.3264C22.321 11.3264 22.3269 11.3249 22.3329 11.3212C22.3448 11.3145 22.3516 11.3025 22.3516 11.2891V6.91414C22.3516 6.90071 22.3441 6.88877 22.3329 6.88205L17.3333 3.99527C17.3221 3.98856 17.3072 3.98856 17.296 3.99527C17.2848 4.00199 17.2773 4.01393 17.2773 4.02736V8.41201C17.2773 8.42545 17.2848 8.43739 17.296 8.4441L22.2956 11.3212C22.3016 11.3242 22.3075 11.3264 22.3142 11.3264ZM22.2769 6.93504V11.2242L17.3519 8.39037V4.09155L22.2769 6.93504Z" fill="#4760FF" stroke="#4760FF" stroke-width="0.037313"/>
<path d="M18.4958 5.73105L17.5173 5.16633C17.4829 5.14616 17.4545 5.09313 17.4545 5.04681V4.60161C17.4545 4.5553 17.4829 4.53438 17.5173 4.55455L18.4958 5.11927C18.5302 5.13944 18.5586 5.19248 18.5586 5.23879V5.68399C18.5586 5.73031 18.5302 5.75122 18.4958 5.73105Z" fill="#FCFCFC"/>
<path d="M17.6484 5.16121L17.6133 5.14104V4.68164L17.6484 4.70181V5.16121Z" fill="#4760FF"/>
<path d="M17.7148 5.06316L17.6797 5.04294V4.71875L17.7148 4.73897V5.06316Z" fill="#4760FF"/>
<path d="M17.7773 5.10027L17.7422 5.08005V4.75586L17.7773 4.77607V5.10027Z" fill="#4760FF"/>
<path d="M17.8438 5.13738L17.8093 5.11716V4.79297L17.8438 4.81318V5.13738Z" fill="#4760FF"/>
<path d="M17.9062 5.17058L17.8711 5.15037V4.82617L17.9062 4.84639V5.17058Z" fill="#4760FF"/>
<path d="M17.9688 5.20769L17.9336 5.18747V4.86328L17.9688 4.8835V5.20769Z" fill="#4760FF"/>
<path d="M18.0352 5.31632L18 5.2961V4.90234L18.0352 4.92256V5.31632Z" fill="#4760FF"/>
<path d="M18.0938 5.28386L18.0586 5.26365V4.93945L18.0938 4.95967V5.28386Z" fill="#4760FF"/>
<path d="M18.1602 5.31706L18.125 5.29685V4.97266L18.1602 4.99287V5.31706Z" fill="#4760FF"/>
<path d="M18.2266 5.35613L18.1914 5.33591V5.01172L18.2266 5.03193V5.35613Z" fill="#4760FF"/>
<path d="M18.2891 5.39128L18.2546 5.37107V5.04688L18.2891 5.06709V5.39128Z" fill="#4760FF"/>
<path d="M18.3438 5.42839L18.3086 5.40818V5.08398L18.3438 5.1042V5.42839Z" fill="#4760FF"/>
<path d="M18.4141 5.60066L18.379 5.58049V5.12109L18.4141 5.14126V5.60066Z" fill="#4760FF"/>
<path d="M20.4492 9.91661V9.22192C20.4492 9.15992 20.4059 9.08522 20.3521 9.05384L19.75 8.7065C19.6963 8.67587 19.6529 8.70052 19.6529 8.76252V9.45721C19.6529 9.51921 19.6963 9.59391 19.75 9.62529L20.3521 9.97263C20.4059 10.0033 20.4492 9.97861 20.4492 9.91661ZM20.3521 9.09418C20.3865 9.1136 20.4141 9.16216 20.4141 9.20175V9.89644C20.4141 9.93603 20.3865 9.95172 20.3521 9.9323L19.75 9.58495C19.7157 9.56553 19.688 9.51697 19.688 9.47738V8.78269C19.688 8.7431 19.7157 8.72741 19.75 8.74683L20.3521 9.09418Z" fill="white"/>
<path d="M21.3125 10.4127V9.71801C21.3125 9.65601 21.2692 9.58131 21.2154 9.54994L20.6133 9.20259C20.5595 9.17196 20.5162 9.19661 20.5162 9.25861V9.95331C20.5162 10.0153 20.5595 10.09 20.6133 10.1214L21.2154 10.4687C21.2692 10.4994 21.3125 10.4747 21.3125 10.4127ZM21.2154 9.59027C21.2498 9.6097 21.2774 9.65825 21.2774 9.69784V10.3925C21.2774 10.4321 21.2498 10.4478 21.2154 10.4284L20.6133 10.081C20.579 10.0616 20.5513 10.0131 20.5513 9.97348V9.27878C20.5513 9.23919 20.579 9.2235 20.6133 9.24293L21.2154 9.59027Z" fill="white"/>
<path d="M22.1797 10.9127V10.218C22.1797 10.156 22.1364 10.0813 22.0826 10.0499L21.4805 9.70259C21.4267 9.67196 21.3834 9.69661 21.3834 9.75861V10.4533C21.3834 10.5153 21.4267 10.59 21.4805 10.6214L22.0826 10.9687C22.1364 10.9994 22.1797 10.9747 22.1797 10.9127ZM22.0826 10.0903C22.1169 10.1097 22.1446 10.1582 22.1446 10.1978V10.8925C22.1446 10.9321 22.1169 10.9478 22.0826 10.9284L21.4805 10.581C21.4461 10.5616 21.4185 10.5131 21.4185 10.4735V9.77878C21.4185 9.73919 21.4461 9.7235 21.4805 9.74293L22.0826 10.0903Z" fill="white"/>
<path d="M21.9368 10.3748V10.1619L21.7186 10.0364L21.7104 10.079L21.75 10.0917L21.756 10.1611L21.7971 10.1761L21.7612 10.2694V10.1805H21.7351L21.7231 10.1148L21.694 10.1126L21.6723 10.0087L21.6342 9.98633V10.1992C21.6342 10.2844 21.694 10.389 21.7679 10.4315V10.5615L21.6843 10.513C21.6716 10.5055 21.6611 10.5115 21.6611 10.5264V10.5398L21.9106 10.684V10.6706C21.9106 10.6556 21.9002 10.6377 21.8875 10.6302L21.8038 10.5817V10.4517C21.8777 10.4943 21.9375 10.4599 21.9375 10.374L21.9368 10.3748Z" fill="white"/>
<path d="M20.3438 9.7278L19.7678 9.3954V9.47607L20.3438 9.80848V9.7278ZM19.9807 9.1205V9.42976L19.8761 9.36925V9.06L19.8179 9.02638L19.9284 8.96289L20.039 9.15412L19.9807 9.1205ZM20.293 9.30053L20.1824 9.1093L20.0718 9.17279L20.1301 9.20641V9.51566L20.2347 9.57617V9.26691L20.293 9.30053Z" fill="white"/>
<path d="M21.0781 9.90682L20.9287 9.92034V9.72055L21.0781 9.70703V9.90682Z" fill="white"/>
<path d="M20.9062 9.91113L20.7569 9.72501V9.52539L20.9062 9.7115V9.91113Z" fill="white"/>
<path d="M20.9135 9.70302L20.7646 9.51738L20.9135 9.50391L21.0625 9.68954L20.9135 9.70302Z" fill="white"/>
<path d="M20.7293 9.74074C20.7293 9.74074 20.7249 9.73476 20.7226 9.73327C20.7226 9.73327 20.7174 9.72879 20.7151 9.72729C20.7151 9.72729 20.7099 9.72356 20.7077 9.72281C20.701 9.71982 20.6942 9.71982 20.689 9.72281C20.6763 9.73028 20.6763 9.75419 20.689 9.77585L20.7361 9.85802C20.7383 9.86175 20.7383 9.86623 20.7361 9.86773C20.7338 9.86922 20.7301 9.86698 20.7278 9.86325L20.6808 9.78108C20.6726 9.76688 20.6681 9.7512 20.6681 9.73775C20.6681 9.72431 20.6726 9.71385 20.6808 9.70937C20.6883 9.70488 20.6972 9.70563 20.7077 9.71011V9.53084C20.6793 9.47705 20.6427 9.47855 20.6427 9.51142V9.74298L20.751 9.93047V10.0746L20.875 10.1464V9.98426L20.7346 9.7497C20.7346 9.7497 20.7308 9.74373 20.7286 9.74149L20.7293 9.74074Z" fill="white"/>
<path d="M21.1008 9.9559C21.1008 9.9559 21.1061 9.9559 21.1076 9.9559C21.1076 9.9559 21.1128 9.9574 21.115 9.95815C21.115 9.95815 21.1203 9.96113 21.1225 9.96263C21.1292 9.96786 21.136 9.97458 21.1412 9.98354C21.1539 10.0052 21.1539 10.0291 21.1412 10.0366L21.0941 10.0635C21.0941 10.0635 21.0919 10.0694 21.0941 10.0732C21.0964 10.0769 21.1001 10.0792 21.1023 10.0777L21.1494 10.05C21.1576 10.0455 21.1621 10.0351 21.1621 10.0216C21.1621 10.0082 21.1576 9.99251 21.1494 9.97831C21.1419 9.96562 21.133 9.95516 21.1225 9.94843V9.76916C21.1509 9.74824 21.1875 9.79157 21.1875 9.82444V10.056L21.0792 10.1187V10.2629L20.9552 10.1912V10.0291L21.0956 9.95665C21.0956 9.95665 21.0994 9.95516 21.1016 9.95441L21.1008 9.9559Z" fill="white"/>
<path fill-rule="evenodd" clip-rule="evenodd" d="M8.57014 20.0146C9.36216 19.619 10.6484 19.619 11.4404 20.0146C12.2325 20.411 12.2325 21.0542 11.4404 21.4497C10.6484 21.8462 9.36216 21.8462 8.57014 21.4497C7.77812 21.0542 7.77812 20.411 8.57014 20.0146ZM6.96636 1.60341C7.00583 1.24193 7.30183 0.88673 7.85257 0.611361C9.04105 0.0175673 10.9695 0.0175673 12.158 0.611361C12.7097 0.88673 13.0048 1.24193 13.0442 1.60341L13.5313 5.42539C13.5456 5.48818 13.5546 5.55186 13.5555 5.61555C13.5654 6.07659 13.2182 6.53853 12.5159 6.89014C11.1301 7.5835 8.8787 7.5835 7.49288 6.89014C6.79056 6.53943 6.44433 6.07659 6.45329 5.61645V5.61465C6.45509 5.55186 6.46316 5.48997 6.47751 5.42808L6.96636 1.60341Z" fill="white"/>
<path fill-rule="evenodd" clip-rule="evenodd" d="M10.021 3.20999C10.7969 3.20909 11.5728 3.06019 12.1648 2.76419C12.8016 2.44577 13.0976 2.02061 13.051 1.60352L13.538 5.4255C13.5524 5.48829 13.5613 5.55197 13.5622 5.61566C13.5721 6.0767 13.225 6.53864 12.5226 6.89025C11.8293 7.23648 10.9207 7.40959 10.0111 7.40959V20.883L9.65234 20.7036V7.40152C9.77164 7.4078 9.89183 7.41049 10.0111 7.41049V3.20999C9.89183 3.20999 9.77164 3.2064 9.65234 3.19922V1.86722L10.0111 2.04662V3.20999H10.0201H10.021Z" fill="#4760FF"/>
<path fill-rule="evenodd" clip-rule="evenodd" d="M6.88337 1.59317C6.92642 1.20837 7.23319 0.823571 7.81891 0.530262C9.02892 -0.0751916 10.9942 -0.0751916 12.2042 0.530262C12.789 0.822674 13.0958 1.20658 13.1397 1.59138C13.1397 1.59138 13.6268 5.40887 13.6268 5.40798C13.6429 5.47615 13.651 5.54432 13.6528 5.61249C13.6627 6.09954 13.3066 6.59736 12.5639 6.9687C11.9737 7.26381 11.2301 7.43513 10.4605 7.48267V19.6527C10.8372 19.694 11.1951 19.7873 11.4875 19.9335C11.9234 20.1515 12.1315 20.4457 12.1315 20.7309V21.0619C12.1315 21.348 11.9234 21.6422 11.4875 21.8593C10.6731 22.2665 9.35093 22.2665 8.53738 21.8593C8.10145 21.6413 7.89336 21.3471 7.89336 21.0619V20.7309C7.89336 20.4448 8.10145 20.1515 8.53738 19.9335C8.82979 19.7873 9.18768 19.694 9.56441 19.6527V7.48446C8.79571 7.43692 8.05122 7.2656 7.46102 6.9705C6.72012 6.60005 6.36402 6.10492 6.3712 5.61877C6.3712 5.61607 6.3712 5.61249 6.3712 5.6089C6.37299 5.54252 6.38107 5.47704 6.39632 5.41067L6.88427 1.59227V1.59407L6.88337 1.59317ZM9.56351 19.8303C9.21639 19.8707 8.8872 19.9586 8.61721 20.0931C8.26111 20.2716 8.07275 20.4968 8.07275 20.73C8.07275 20.9632 8.26111 21.1892 8.61721 21.3677C9.38681 21.7525 10.6372 21.7525 11.4077 21.3677C11.7638 21.1892 11.9521 20.9641 11.9521 20.73C11.9521 20.4959 11.7638 20.2707 11.4077 20.0931C11.1377 19.9577 10.8076 19.8707 10.4614 19.8303V20.7031C10.4614 20.7372 10.4425 20.7686 10.412 20.7829L10.0533 20.9623C10.0281 20.9749 9.99765 20.9749 9.97253 20.9623L9.61374 20.7829C9.58325 20.7677 9.56441 20.7363 9.56441 20.7031V19.8303H9.56351ZM9.9223 7.49881V20.7381L9.74291 20.6484V7.49433C9.803 7.49702 9.8622 7.49791 9.9223 7.49881ZM6.99639 2.12956L6.57391 5.43848C6.57391 5.43848 6.57302 5.44475 6.57212 5.44744C6.55867 5.50306 6.55149 5.55957 6.55059 5.61608V5.61787C6.54162 6.052 6.87888 6.47896 7.54085 6.80994C8.12926 7.10415 8.87554 7.27188 9.64424 7.31224C9.64872 7.31224 9.65321 7.31224 9.65859 7.31224C9.77609 7.31852 9.89449 7.32121 10.0129 7.32121C10.1313 7.32121 10.2497 7.31852 10.3672 7.31224C10.3717 7.31224 10.3762 7.31224 10.3815 7.31224C11.1494 7.27188 11.8965 7.10415 12.4849 6.80994C13.1469 6.47896 13.4842 6.052 13.4743 5.61787C13.4752 5.66631 13.4752 5.66631 13.4743 5.61787C13.4734 5.56046 13.4662 5.50306 13.4528 5.44655C13.4528 5.44386 13.4519 5.44027 13.451 5.43758L13.0294 2.13045C12.9648 2.24885 12.8733 2.36456 12.7558 2.47489C12.5271 2.68837 12.2446 2.84085 11.9557 2.95746C11.4597 3.15659 10.9242 3.25436 10.3923 3.28665C10.2748 3.31176 10.134 3.2992 10.0138 3.2992C9.8936 3.2992 9.75367 3.31176 9.63527 3.28665C8.83607 3.23821 7.89784 3.04716 7.28431 2.48565C7.15964 2.37174 7.06456 2.25244 6.99818 2.12956H6.99639ZM13.6528 5.61428C13.6528 5.6385 13.6528 5.6385 13.6528 5.61428V5.61428ZM6.3712 5.61877C6.3712 5.63132 6.3712 5.62684 6.3712 5.61428V5.61877ZM9.74291 3.11353V2.01205L9.9223 2.10175V3.11891C9.8622 3.11802 9.803 3.11622 9.74291 3.11353ZM12.9621 1.6147C12.9262 1.27654 12.6419 0.950044 12.1244 0.691717C10.9583 0.108687 9.06569 0.108687 7.89963 0.691717C7.38298 0.950044 7.09864 1.27564 7.06187 1.6129C6.97665 2.35201 7.97857 2.7691 8.54366 2.92876C8.87554 3.02294 9.21908 3.07855 9.56351 3.10456C9.56351 2.69016 9.55365 2.27397 9.56351 1.85957C9.568 1.82907 9.58325 1.80037 9.61285 1.78692L9.97163 1.60752C9.99675 1.59496 10.0263 1.59496 10.0515 1.60752L10.4103 1.78692C10.456 1.81024 10.4596 1.85419 10.4596 1.89904C10.4605 2.02999 10.4596 2.16095 10.4596 2.29191V3.10367C11.1485 3.05164 11.8867 2.89288 12.4589 2.48386C12.7388 2.28384 13.0007 1.97976 12.9612 1.6129C12.9612 1.6129 12.9612 1.6138 12.9612 1.6147H12.9621ZM10.1699 1.86675L10.012 1.94568L9.85413 1.86675L10.012 1.78781L10.1699 1.86675Z" fill="#4760FF"/>
<path fill-rule="evenodd" clip-rule="evenodd" d="M17.8829 24.3719C17.7839 24.3093 17.7236 24.1928 17.7236 24.0311C17.7236 23.6808 18.0074 23.2552 18.3577 23.0801C18.5328 22.9929 18.6913 22.9842 18.8063 23.042L19.4403 23.3591L18.5439 24.704L17.8829 24.3735V24.3719H17.8837H17.8829ZM10.9085 24.3719C10.8094 24.3093 10.7492 24.1928 10.7492 24.0311C10.7492 23.6808 11.0329 23.2552 11.3832 23.0801C11.5584 22.9929 11.7169 22.9842 11.8318 23.042L12.4658 23.3591L11.5695 24.704L10.9085 24.3735V24.3719H10.9093H10.9085ZM15.1875 20.5439L12.0173 18.9588L11.3832 19.2758L14.5534 20.8609L11.3832 22.446L12.0173 22.7631L15.1875 21.1779L18.3577 22.7631L18.9917 22.446L15.8215 20.8609L18.9917 19.2758L18.3577 18.9588L15.1875 20.5439ZM17.8829 21.2017C17.7839 21.1391 17.7236 21.0226 17.7236 20.8609C17.7236 20.5106 18.0074 20.085 18.3577 19.9099C18.5328 19.8227 18.6913 19.814 18.8063 19.8718L19.4403 20.1888L18.5439 21.5338L17.8829 21.2033V21.2017H17.8837H17.8829ZM10.9085 20.8847C10.8094 20.8221 10.7492 20.7056 10.7492 20.5439C10.7492 20.1936 11.0329 19.768 11.3832 19.5928C11.5584 19.5057 11.7169 19.4969 11.8318 19.5548L12.4658 19.8718L11.5695 21.2168L10.9085 20.8863V20.8847H10.9093H10.9085ZM17.4066 15.3131L14.2364 13.728L9.7981 15.9471V16.5811L13.6024 18.4833H14.8704L19.3087 16.2641L18.3577 15.7886L19.6258 15.1545L18.6747 14.679L17.4066 15.3131ZM12.3343 11.5088L9.16406 13.0939L10.1151 13.5694L13.2853 11.9843L12.3343 11.5088ZM15.8215 5.96094L14.8704 6.43647L18.6747 8.3386L19.6258 7.86306L15.8215 5.96094Z" fill="white"/>
<path fill-rule="evenodd" clip-rule="evenodd" d="M17.8829 24.371C17.7839 24.3084 17.7236 24.1919 17.7236 24.0302C17.7236 23.8551 17.795 23.6609 17.9091 23.4889L18.9917 24.0302L18.5431 24.7023L17.8821 24.3718V24.3702H17.8829V24.371ZM10.9085 24.371C10.8094 24.3084 10.7492 24.1919 10.7492 24.0302C10.7492 23.8551 10.8205 23.6609 10.9346 23.4889L12.0173 24.0302L11.5687 24.7023L10.9085 24.3702V24.371ZM13.6024 19.4334L9.7981 17.5313V16.5802L13.6024 18.4823H14.8704V18.7994L15.8595 18.9389V20.86C15.8595 20.9464 15.7938 21.032 15.663 21.0978C15.5409 21.1588 15.384 21.1913 15.2247 21.1953L18.3577 22.7621V23.3962L15.0551 21.7453V21.1897C14.9291 21.177 14.8094 21.1469 14.7119 21.0978C14.5899 21.0367 14.5249 20.9583 14.5162 20.8782L13.9194 21.177L11.3832 19.9089V19.2749L14.5154 20.841V19.4334H13.6024ZM12.0173 22.7621L11.3832 22.4451V23.0792L12.0173 23.3962V22.7621ZM17.8829 21.2008C17.7839 21.1382 17.7236 21.0217 17.7236 20.86C17.7236 20.6848 17.795 20.4907 17.9091 20.3187L18.9917 20.86L18.5431 21.5321L17.8821 21.2016V21.2H17.8829V21.2008ZM10.9085 20.8838C10.8094 20.8212 10.7492 20.7047 10.7492 20.543C10.7492 20.3678 10.8205 20.1737 10.9346 20.0017L12.0173 20.543L11.5687 21.2151L10.9077 20.8846V20.883H10.9085V20.8838ZM18.0407 16.2632L17.7236 16.4217V18.0068L17.0896 18.3238L17.4066 18.4823L18.0407 18.1653V16.2632ZM16.4555 16.7387L15.5045 16.2632V16.5802L16.4555 17.0558V16.7387ZM19.3087 15.6292L18.6747 15.9462L19.3087 16.2632V15.6292ZM19.3087 9.28874L20.2598 8.8132L19.6258 7.86214L18.6747 8.33767L14.8704 6.43555L14.2364 6.75257V13.727L17.4066 15.3121L18.6747 14.6781L19.3087 14.9951V9.28874ZM11.7002 13.093L11.3832 13.2515V15.1536L11.7002 14.9951V13.093ZM10.1151 13.5685L9.16406 13.093V13.41L10.1151 13.8855V13.5685Z" fill="white"/>
<path fill-rule="evenodd" clip-rule="evenodd" d="M14.2058 6.68369L15.7909 5.89113C15.8131 5.88004 15.8392 5.88004 15.8614 5.89113L19.6649 7.79247C19.7085 7.81387 19.7386 7.88361 19.7631 7.92007L19.9653 8.22362C20.0841 8.40194 20.2181 8.5763 20.3243 8.76255C20.3338 8.7792 20.3425 8.79346 20.3433 8.81407V16.7404C20.3433 16.7705 20.3267 16.7975 20.2997 16.8117L18.7582 17.5821V17.85C18.7582 17.8801 18.7415 17.907 18.7146 17.9213L17.4465 18.5553C17.4243 18.5664 17.3982 18.5664 17.376 18.5553L17.0946 18.4143L15.9438 18.9897V20.0802L18.327 18.889C18.3492 18.8779 18.3754 18.8779 18.3976 18.889L19.0316 19.206C19.0586 19.2195 19.0752 19.2472 19.0752 19.2766V19.9106C19.0752 19.9106 19.0752 19.9146 19.0752 19.9161L19.4794 20.1182C19.6181 20.1872 19.7093 20.333 19.7093 20.5446C19.7093 20.9203 19.4065 21.3792 19.0316 21.567C18.8295 21.6685 18.6456 21.6717 18.5125 21.6051L17.8515 21.2746L17.846 21.2698C17.7263 21.1945 17.6494 21.0558 17.6494 20.8625C17.6494 20.7975 17.6581 20.7293 17.6748 20.6611L16.6373 21.1795L19.0316 22.377C19.0586 22.3905 19.0752 22.4182 19.0752 22.4476V23.0816C19.0752 23.0816 19.0752 23.0856 19.0752 23.0871L19.4794 23.2893C19.6181 23.3582 19.7093 23.504 19.7093 23.7156C19.7093 24.0913 19.4065 24.5502 19.0316 24.7372C18.8295 24.8387 18.6456 24.8419 18.5125 24.7753L17.8515 24.4448L17.846 24.44C17.7263 24.3647 17.6494 24.226 17.6494 24.0327C17.6494 23.7886 17.7762 23.508 17.9696 23.2908L15.1925 21.9023L12.4622 23.2679L12.5057 23.29C12.6444 23.359 12.7356 23.5048 12.7356 23.7164C12.7356 24.0921 12.4328 24.551 12.058 24.738C11.8559 24.8395 11.672 24.8427 11.5388 24.7761L10.8778 24.4456L10.8723 24.4408C10.7526 24.3655 10.6757 24.2268 10.6757 24.0335C10.6757 23.6728 10.9547 23.2354 11.3098 23.0348V22.4484C11.3098 22.4182 11.3272 22.3905 11.3534 22.3778L13.7477 21.1803L12.6405 20.6263C12.5224 20.8846 12.306 21.1264 12.058 21.2508C11.8559 21.3523 11.672 21.3554 11.5388 21.2888L10.8778 20.9584L10.8723 20.9536C10.7526 20.8783 10.6757 20.7396 10.6757 20.5462C10.6757 20.1856 10.9547 19.7481 11.3098 19.5476V19.2781C11.3098 19.248 11.3272 19.2203 11.3534 19.2076L11.9874 18.8906C12.0096 18.8795 12.0358 18.8795 12.058 18.8906L14.4412 20.0818V19.5159H13.605C13.5923 19.5159 13.5812 19.5119 13.5709 19.5072L9.76827 17.6059C9.74132 17.5924 9.72468 17.5646 9.72468 17.5353V15.9502C9.72468 15.9201 9.74132 15.8931 9.76827 15.8797L11.3098 15.1093V13.3847L10.1566 13.9617C10.1344 13.9728 10.1083 13.9728 10.0861 13.9617L9.13343 13.4822C9.10649 13.4687 9.08984 13.441 9.08984 13.4109V13.0939C9.08984 13.0637 9.10728 13.0368 9.13343 13.0233L12.3036 11.4382C12.3258 11.4271 12.352 11.4271 12.3742 11.4382L13.3252 11.9137C13.3522 11.9272 13.3688 11.955 13.3688 11.9843V12.3013C13.3688 12.3314 13.3522 12.3584 13.3252 12.3726L12.4178 12.826V14.5506L14.1614 13.6788V6.75422C14.1614 6.72411 14.178 6.69637 14.205 6.68369H14.2058ZM11.8574 23.4042C11.6815 23.3162 11.389 23.1704 11.389 23.1704C11.0807 23.3424 10.8335 23.7196 10.8335 24.0327C10.8335 24.1611 10.877 24.2562 10.9555 24.3061C10.9579 24.3077 10.9595 24.3085 10.9619 24.3101L11.324 24.4916C11.3137 24.448 11.3082 24.4004 11.3082 24.3497C11.3082 24.0184 11.5436 23.6221 11.8566 23.405L11.8574 23.4042ZM19.095 23.2734L18.9421 23.1973L18.3984 23.4692H18.396L18.3936 23.4715H18.3912L18.3889 23.4731H18.3865L18.3841 23.4747H18.3794L18.377 23.4763H18.3445L18.3421 23.4747H18.3397L18.3373 23.4731H18.335L18.3326 23.4715H18.3302L18.3278 23.4692L18.1178 23.3638C17.9347 23.5548 17.8087 23.8092 17.8087 24.0319C17.8087 24.1603 17.8523 24.2554 17.9308 24.3053C17.9331 24.3069 17.9347 24.3077 17.9371 24.3093L18.2993 24.4908C18.289 24.4472 18.2835 24.3996 18.2835 24.3489C18.2835 23.9732 18.5862 23.5143 18.9611 23.3273C19.0063 23.3043 19.0514 23.2869 19.095 23.2734ZM11.4675 23.0325L11.943 23.2702V22.8137L11.7148 22.6996L11.4675 22.576V23.0325ZM17.4291 22.3865L18.2835 22.8137V23.2702L18.2058 23.2314L15.2718 21.7644V21.3079L17.4291 22.3865ZM14.4768 20.9924L11.5658 22.4476L12.0223 22.6758L14.8874 21.2429C14.8129 21.2254 14.7431 21.2017 14.6813 21.1708C14.5806 21.12 14.5133 21.0574 14.476 20.9916L14.4768 20.9924ZM15.909 20.9924C15.8717 21.0582 15.8051 21.1208 15.7037 21.1715C15.6427 21.2025 15.5729 21.2262 15.4984 21.2437L18.3635 22.6758L18.82 22.4476L15.909 20.9924ZM19.095 20.104L18.9421 20.0279L17.8745 20.5613C17.8325 20.6627 17.8079 20.7658 17.8079 20.8625C17.8079 20.9908 17.8515 21.086 17.93 21.1359C17.9324 21.1375 17.9339 21.1383 17.9363 21.1398L18.2985 21.3213C18.2882 21.2778 18.2827 21.231 18.2827 21.1795C18.2827 20.8038 18.5854 20.3449 18.9603 20.1579C19.0055 20.1349 19.0506 20.1175 19.0942 20.104H19.095ZM15.1132 21.1184V19.4065L14.9127 19.5072C14.9024 19.5127 14.8913 19.5159 14.8794 19.5159H14.5997V20.8632C14.5997 20.9267 14.6567 20.9821 14.7526 21.0305C14.8541 21.0812 14.9817 21.1105 15.1132 21.1192V21.1184ZM11.4675 19.5952V19.863L12.2165 20.2371L13.9244 21.0915L14.3809 20.8632L12.6682 20.0065L11.4675 19.4065V19.5952ZM11.309 19.7347V19.9122C11.309 19.9272 11.3137 19.9423 11.3217 19.955V19.9566H11.3233V19.9589L11.3248 19.9605L11.3264 19.9621C11.3264 19.9621 11.3296 19.9661 11.3312 19.9677C11.3312 19.9677 11.3367 19.9732 11.3391 19.9756C11.3431 19.9788 11.3478 19.9811 11.3518 19.9835L11.6292 20.1222C11.4358 20.3394 11.3082 20.6191 11.3082 20.864C11.3082 20.9156 11.3137 20.9623 11.324 21.0059L10.9619 20.8244C10.9619 20.8244 10.9579 20.8212 10.9555 20.8204C10.8763 20.7705 10.8335 20.6754 10.8335 20.547C10.8335 20.2617 11.0387 19.9233 11.309 19.7354V19.7347ZM11.5658 19.2781L14.4412 20.7158V20.2593L12.0223 19.0499L11.5658 19.2781ZM15.9446 20.2593L18.3635 19.0499L18.82 19.2781L15.9446 20.7158V20.2593ZM13.6874 19.3574H14.797V18.5648H13.6874V19.3574ZM9.8824 16.7103L13.5281 18.5331V19.3067L9.8824 17.4838V16.7103ZM17.2341 15.3138L14.2414 13.8175L12.375 14.7511L11.4239 15.2266L9.8824 15.997V16.5327L13.6264 18.4047H14.8572L17.6502 17.0083V16.5518L16.497 17.1287C16.4748 17.1398 16.4487 17.1398 16.4265 17.1287L15.4754 16.6532C15.4485 16.6397 15.4318 16.612 15.4318 16.5827V16.2656C15.4318 16.2355 15.4493 16.2078 15.4754 16.1951L17.2357 15.3146L17.2341 15.3138ZM17.8832 16.4345L17.8071 16.4725V18.0212L17.8055 18.0227V18.0283L17.804 18.0299V18.0322L17.8024 18.0338V18.0362L17.8008 18.0378V18.0402L17.7992 18.0418V18.0441H17.7984V18.0465L17.7968 18.0481V18.0505H17.7952V18.0529H17.7937V18.0552H17.7921V18.0576H17.7905V18.06H17.7889V18.0624H17.7873V18.0647H17.7857V18.0663H17.7834V18.0679H17.7818V18.0695H17.7794V18.0711H17.777V18.0727H17.7746V18.0743H17.7723V18.0758H17.7699L17.7683 18.0774H17.7675L17.7659 18.079H17.7651L17.7635 18.0806H17.762L17.2698 18.3271L17.4093 18.3968L17.9641 18.1194V16.3948L17.8816 16.436L17.8832 16.4345ZM16.3805 16.929V16.7895L15.588 16.3932V16.5327L16.3805 16.929ZM17.4465 15.3843L15.6863 16.2641L16.4598 16.6508L19.4525 15.1545L18.6789 14.7677L17.4465 15.3843ZM18.7582 16.2086V16.4535L19.1354 16.2649L18.7582 16.0762V16.2094V16.2086ZM18.8565 15.9478L19.2337 16.1365V15.7592L18.8565 15.9478ZM18.9738 8.92423L19.2337 9.31417V14.8684L18.7146 14.6084C18.6924 14.5973 18.6663 14.5973 18.6441 14.6084L17.4116 15.225L14.3207 13.6795V6.80336L14.8755 6.52597L18.625 8.40115L18.9746 8.92503L18.9738 8.92423ZM11.4675 13.3023V15.0269L11.626 14.9476V13.223L11.4675 13.3023ZM10.0409 13.6193V13.7588L9.24835 13.3625V13.223L10.0409 13.6193ZM9.34663 13.0946L10.1202 13.4814L13.1128 11.9851L12.3393 11.5983L9.34663 13.0946ZM18.7954 8.37024L19.3407 9.18815L20.1491 8.78395L19.6038 7.96604L18.7954 8.37024ZM19.4533 7.8638L18.6797 8.25056L15.053 6.4372L15.8265 6.05044L19.4533 7.8638Z" fill="#4760FF"/>
<path fill-rule="evenodd" clip-rule="evenodd" d="M32.1661 18.2692L33.7188 19.0455L28.5433 21.6333V20.0806L27.5082 20.5982L24.4029 19.0455L31.6486 15.4226L34.7539 16.9753L32.1661 18.2692ZM22.8502 13.87L25.438 15.1639L24.4029 15.6814L22.3327 14.6463V14.1397L22.8502 13.87ZM29.0608 11.7998L24.1441 14.2581L23.0443 13.7082L28.2198 11.1205L28.5433 11.2822L29.0608 11.0234H29.5784L31.6486 12.0585L30.6135 12.5761L29.0608 11.7998Z" fill="white"/>
<path fill-rule="evenodd" clip-rule="evenodd" d="M34.2364 21.8916V22.9267L33.7188 23.1855L33.46 22.2797L28.2845 24.8675L28.0257 26.032L27.5082 26.2908V20.5977L28.5433 20.0801V21.6328L33.7188 19.045V17.4924L34.7539 16.9748V21.6328L34.2364 21.8916ZM29.5784 12.0581L30.6135 12.5756L31.6486 12.0581V15.4222L29.9976 16.2477L30.0959 17.2336L26.4731 19.045L25.438 18.5275L24.4029 19.045V15.681L25.438 15.1634L24.4029 14.6458L24.1441 14.2577L29.3196 11.6699L29.5784 12.0581Z" fill="white"/>
<path fill-rule="evenodd" clip-rule="evenodd" d="M31.6833 12.0006C31.7053 12.0122 31.7189 12.0336 31.7189 12.0588V15.3828L34.7886 16.9173C34.8106 16.929 34.8242 16.9497 34.8242 16.9749V21.6335C34.8242 21.6581 34.8106 21.6807 34.7886 21.6911L34.3067 21.9317V22.9267C34.3067 22.9513 34.2931 22.974 34.2711 22.9843L33.7535 23.2431C33.7361 23.2515 33.716 23.2521 33.6985 23.2444C33.6811 23.2366 33.6675 23.2217 33.6623 23.203L33.4249 22.3723L28.3464 24.9115L28.0941 26.0463C28.0896 26.065 28.0773 26.0812 28.0598 26.0903L27.5423 26.349C27.5241 26.3581 27.5021 26.3581 27.484 26.349L26.9665 26.0903C26.949 26.0819 26.9367 26.0657 26.9322 26.0463L26.6799 24.9115L23.6716 23.4074L23.4342 24.2381C23.429 24.2568 23.4154 24.2717 23.398 24.2795C23.3805 24.2872 23.3604 24.2866 23.343 24.2782L22.8254 24.0194C22.8034 24.0084 22.7898 23.9858 22.7898 23.9618V22.9668L22.3079 22.7262C22.2859 22.7152 22.2723 22.6925 22.2723 22.6686V14.14C22.2723 14.1161 22.2859 14.0934 22.3072 14.0824L22.8248 13.8126C22.8429 13.8029 22.8649 13.8029 22.8836 13.8126L22.9839 13.8631V13.7091C22.9839 13.6858 22.9975 13.6606 23.0201 13.6509L28.1963 11.0631C28.2144 11.0541 28.2358 11.0541 28.2539 11.0631L28.5482 11.2106L29.0373 10.9661C29.0464 10.9616 29.0561 10.959 29.0664 10.959H29.584C29.5944 10.959 29.6041 10.9616 29.6131 10.9661L31.6833 12.0012V12.0006ZM28.1232 25.0241L27.5791 25.2965V26.1867L27.9757 25.9887L28.1983 24.9872L28.1232 25.0248V25.0241ZM34.0382 21.0202C34.0634 20.9782 34.0479 20.894 34.0479 20.8488V19.5633C34.0479 19.5193 34.0634 19.4378 34.0369 19.3977L33.7891 19.0257V17.5325L34.6948 17.0797V21.5927L27.5785 25.1509V20.6379L28.4842 20.185V23.5892C28.4842 23.6293 28.4758 23.6798 28.4861 23.7192C28.4984 23.7671 28.5457 23.7736 28.5851 23.7574C28.6673 23.7231 28.7462 23.6765 28.8258 23.6371L30.0796 23.0102L31.8004 22.1498L33.335 21.3825L33.8221 21.1392C33.8836 21.1088 33.9534 21.0823 34.011 21.0448C34.0214 21.0377 34.0311 21.0318 34.0375 21.0208L34.0382 21.0202ZM28.8724 22.0618V23.4695L33.9185 20.9465V19.5387L33.5963 19.6998L28.8724 22.0618ZM34.1773 21.9971L33.5426 22.3147L33.7652 23.0936L34.1773 22.8879V21.9977V21.9971ZM28.6434 21.6587L33.6034 19.1784L33.7024 19.1292L33.8887 19.4087L28.8297 21.9382L28.6434 21.6587ZM31.5035 18.008L33.5795 19.0464L28.6136 21.5293V20.0815C28.6136 20.0582 28.5994 20.033 28.578 20.0233L26.6236 19.0464L30.1016 17.3074L31.5035 18.0087V18.008ZM26.4496 19.104L27.5921 19.6752L28.404 20.0815L27.5138 20.5266L24.5534 19.0464L25.4436 18.6013L26.4496 19.1046V19.104ZM25.472 15.1065L24.5527 14.6472L26.0116 13.9174L29.5284 12.1591L30.0323 17.1968L26.478 18.9739L25.5076 18.4887V15.1647C25.5076 15.1415 25.494 15.1162 25.472 15.1065ZM25.3782 15.2689V18.4881L24.4725 18.9409V15.7218L24.5146 15.7004L25.3782 15.2689ZM34.6146 16.9755L33.7244 17.4206L30.764 15.9404L31.6542 15.4953L34.6146 16.9755ZM30.7259 12.5951L30.6838 12.6164V15.8356L31.5895 15.3828V12.1636L30.7259 12.5951ZM23.0208 14.0248L24.3787 14.7035L25.2987 15.1634L24.4085 15.6085L22.403 14.6058V14.1782L22.8565 13.942L23.0208 14.0242V14.0248ZM29.4087 11.9132L29.4889 12.0342L24.4298 14.5637L24.2435 14.2843L29.3032 11.7541L29.4093 11.9132H29.4087ZM28.5198 11.3407L29.1803 11.6713L24.1497 14.1866L23.1948 13.7091L28.2254 11.1932L28.5198 11.3407ZM31.5093 12.0594L30.6191 12.5045L29.628 12.009L29.3789 11.635V11.6337L29.377 11.6324C29.3705 11.624 29.3627 11.6176 29.3537 11.613L28.6938 11.2831L29.082 11.089H29.5691L31.5099 12.0594H31.5093Z" fill="#4760FF"/>
<path d="M0.140625 19.8398L19.8155 31.1925" stroke="#4760FF" stroke-width="0.341998"/>
<path d="M37.5078 23.2656L24.2553 30.037" stroke="#4760FF" stroke-width="0.341998"/>
</svg>
