<svg width="44" height="34" viewBox="0 0 44 34" fill="none" xmlns="http://www.w3.org/2000/svg">
<path d="M2.76097 27.5737L3.07064 27.3949L4.7886 27.4519C4.92231 27.4565 5.03094 27.4505 5.1145 27.434C5.19806 27.4176 5.2659 27.3943 5.318 27.3642C5.38878 27.3234 5.43646 27.2782 5.46104 27.2289C5.4866 27.1789 5.48857 27.129 5.46694 27.079C5.44629 27.0296 5.40107 26.9848 5.33127 26.9445C5.25754 26.9019 5.17496 26.8741 5.08353 26.8611C4.99407 26.848 4.90559 26.8486 4.8181 26.8628C4.7306 26.8769 4.65539 26.9033 4.59248 26.9419L4.22676 26.7308C4.36833 26.6491 4.52317 26.596 4.69128 26.5716C4.86037 26.5477 5.02946 26.5512 5.19855 26.5818C5.36863 26.613 5.52691 26.6709 5.67339 26.7555C5.80906 26.8338 5.90049 26.9218 5.94767 27.0194C5.99585 27.1165 5.99732 27.2138 5.9521 27.3114C5.90786 27.4085 5.81643 27.497 5.67781 27.5771C5.57656 27.6355 5.47775 27.6767 5.38141 27.7005C5.28507 27.7244 5.18037 27.7371 5.06731 27.7388C4.95524 27.7411 4.8235 27.7394 4.67211 27.7337L3.457 27.6912L3.51304 27.6213L4.55709 28.2241L4.22234 28.4174L2.76097 27.5737ZM7.07695 30.0689L8.04432 29.5104C8.15344 29.4474 8.21144 29.3827 8.21832 29.3163C8.22619 29.2493 8.18392 29.1891 8.09151 29.1358C8.03449 29.1029 7.97009 29.081 7.89833 29.0702C7.82754 29.0589 7.75332 29.0603 7.67566 29.0745C7.59897 29.0881 7.52573 29.1151 7.45593 29.1554L7.39105 29.0106C7.50017 28.9465 7.62159 28.9048 7.75529 28.8855C7.89095 28.8662 8.02564 28.8679 8.15934 28.8906C8.29304 28.9133 8.41298 28.9553 8.51915 29.0166C8.69513 29.1182 8.77672 29.2266 8.76394 29.3418C8.75313 29.457 8.6617 29.5643 8.48966 29.6636L7.43234 30.2741L7.07695 30.0689ZM5.16139 28.963L6.754 28.0435L7.0681 28.2248L6.5741 28.51L6.61834 28.5356L5.51973 29.1698L5.16139 28.963ZM6.12138 29.5172L7.08432 28.9613C7.19541 28.8971 7.25489 28.8316 7.26276 28.7646C7.27062 28.6976 7.22786 28.6372 7.13446 28.5832C7.04402 28.531 6.9403 28.5069 6.82331 28.5109C6.70731 28.5154 6.59966 28.5463 6.50037 28.6037L6.44728 28.4504C6.5505 28.3908 6.66897 28.3519 6.80267 28.3338C6.93637 28.3156 7.07007 28.3179 7.20377 28.3406C7.33944 28.3633 7.46134 28.4059 7.56948 28.4683C7.68844 28.537 7.76217 28.6091 7.79068 28.6846C7.82115 28.76 7.81231 28.8344 7.76413 28.9076C7.71793 28.9808 7.64026 29.0489 7.53114 29.1119L6.4753 29.7215L6.12138 29.5172Z" fill="#4760FF"/>
<path d="M31.7578 32.717L31.4575 32.523L31.6057 31.5373C31.6174 31.4606 31.6102 31.3974 31.5841 31.3478C31.5581 31.2982 31.5198 31.2571 31.4692 31.2245C31.4006 31.1801 31.3239 31.1487 31.2392 31.1303C31.1535 31.1112 31.0672 31.1058 30.9801 31.1139C30.8941 31.1215 30.8152 31.1437 30.7435 31.1805C30.6678 31.2193 30.6173 31.2645 30.592 31.3161C30.5669 31.3666 30.5653 31.4177 30.5873 31.4693C30.6094 31.521 30.6529 31.5667 30.7178 31.6063L30.342 31.7989C30.2047 31.7102 30.1174 31.6163 30.08 31.5173C30.0436 31.4177 30.0544 31.3205 30.1123 31.2257C30.1712 31.1303 30.2759 31.044 30.4264 30.9669C30.5658 30.8954 30.7207 30.8503 30.8909 30.8315C31.0602 30.8122 31.2286 30.8197 31.3962 30.8542C31.5628 30.8882 31.7134 30.9485 31.8478 31.0354C31.946 31.0988 32.0144 31.1594 32.0528 31.217C32.0913 31.2746 32.1104 31.3361 32.11 31.4014C32.1107 31.4662 32.104 31.542 32.0898 31.6289L31.9811 32.3258L31.862 32.2875L32.9348 31.7376L33.2595 31.9473L31.7578 32.717ZM36.1987 30.4441L35.2605 29.838C35.1546 29.7696 35.0444 29.7306 34.9297 29.7209C34.814 29.7105 34.7088 29.7297 34.6138 29.7784C34.5552 29.8084 34.5155 29.8437 34.4948 29.8841C34.4731 29.9239 34.4735 29.9669 34.4958 30.0129C34.5171 30.0583 34.5616 30.1028 34.6293 30.1466L34.3771 30.1715C34.2693 30.103 34.2006 30.0294 34.1711 29.9506C34.1416 29.8707 34.1485 29.7932 34.1916 29.7181C34.2347 29.6429 34.3108 29.5774 34.4199 29.5215C34.6008 29.4288 34.7906 29.3911 34.9896 29.4085C35.1886 29.4247 35.3715 29.4867 35.5384 29.5944L36.5639 30.2569L36.1987 30.4441ZM34.2303 31.453L32.6856 30.4552L33.0084 30.2897L33.4875 30.5992L33.533 30.5759L34.5986 31.2643L34.2303 31.453ZM35.2168 30.9474L34.2828 30.3441C34.1751 30.2745 34.0634 30.2345 33.9478 30.2242C33.8321 30.2138 33.7263 30.2333 33.6304 30.2825C33.5374 30.3301 33.4927 30.3878 33.4962 30.4556C33.5007 30.5229 33.5511 30.5876 33.6474 30.6499L33.3808 30.6672C33.2807 30.6025 33.2168 30.5309 33.1893 30.4522C33.1617 30.3735 33.1695 30.2966 33.2126 30.2215C33.2558 30.1452 33.3329 30.0786 33.4441 30.0217C33.5663 29.959 33.6931 29.9227 33.8245 29.9128C33.956 29.9018 34.0844 29.9133 34.2096 29.9474C34.335 29.9804 34.4506 30.0311 34.5564 30.0994L35.5805 30.761L35.2168 30.9474Z" fill="#4760FF"/>
<path fill-rule="evenodd" clip-rule="evenodd" d="M29.7085 20.6772L32.5764 22.1112V22.5209L29.2988 20.8821L29.7085 20.6772ZM20.2853 15.9656L28.8891 20.2675V20.6772L19.8756 16.1705L20.2853 15.9656ZM34.2152 19.653V15.1462L38.3122 17.1947L39.951 16.3753L40.3607 16.5802L34.2152 19.653ZM23.9726 10.8443L28.8891 13.3026V19.0384L20.2853 14.7365V12.688L23.9726 10.8443ZM32.7812 11.971V14.4292L29.2988 12.688V9.82009L19.8756 5.10852L19.4659 5.31337L18.6465 4.90366L19.4659 4.49396L19.8756 4.69881L26.4309 1.42119L26.0212 1.21634L26.8406 0.806641L27.66 1.21634L27.2503 1.42119L40.3607 7.97643L40.7704 7.77158L41.5898 8.18128L40.7704 8.59099L40.3607 8.38614L33.8055 11.6638L34.2152 11.8686L33.3958 12.2783L32.7812 11.971Z" fill="white"/>
<path fill-rule="evenodd" clip-rule="evenodd" d="M40.7704 8.58799L41.5898 8.17829V21.2888L40.7704 21.6985V20.0597L34.2152 23.3373V24.9761L33.3958 25.3858V12.2753L34.2152 11.8656L33.8055 11.6608L40.3607 8.38314L40.7704 8.58799ZM29.2988 18.4208L29.7085 18.6257V20.6742L29.2988 20.8791V18.4208ZM40.7704 16.3723L34.2152 19.65V15.1432L40.7704 11.8656V16.3723ZM20.2853 13.0947L24.3823 11.0462L26.0212 11.8656L20.2853 14.7335V15.9626L19.8756 16.1675V16.9869L20.2853 17.1917V18.0111L19.4659 18.4208V5.31037L19.8756 5.10552V8.79284L20.2853 8.99769V13.0947ZM29.2988 15.9626L29.7085 16.1675V17.8063L29.2988 18.0111V15.9626ZM29.2988 13.5044L29.7085 13.7093V15.3481L29.2988 15.5529V13.5044ZM29.2988 9.81709L29.7085 9.61224V12.4802L29.2988 12.685V9.81709ZM20.2853 4.90067L26.8406 1.62305V3.26186L21.9241 5.72007L20.2853 4.90067Z" fill="white"/>
<path fill-rule="evenodd" clip-rule="evenodd" d="M27.7003 1.1206C27.7351 1.13904 27.7576 1.17284 27.7576 1.21176V1.55796L40.356 7.85816L40.7196 7.67584C40.7483 7.6615 40.7821 7.6615 40.8107 7.67584L41.6301 8.08555C41.6301 8.08555 41.6342 8.08759 41.6363 8.08862C41.668 8.10705 41.6865 8.13983 41.6875 8.1767V8.1767V21.2882C41.6875 21.3271 41.666 21.3619 41.6312 21.3794L40.8118 21.7891C40.7943 21.7973 40.7749 21.8014 40.7565 21.7993C40.7513 21.7993 40.7462 21.7983 40.7401 21.7962L40.7329 21.7942C40.7329 21.7942 40.7237 21.7901 40.7196 21.788L39.9002 21.3783C39.8653 21.3609 39.8438 21.3251 39.8438 21.2872V20.6337L34.3129 23.3992V24.9745C34.3129 25.0134 34.2913 25.0493 34.2565 25.0657L33.4371 25.4754C33.4197 25.4836 33.4002 25.4877 33.3818 25.4856C33.3767 25.4856 33.3716 25.4836 33.3654 25.4825L33.3582 25.4805C33.3582 25.4805 33.349 25.4764 33.3449 25.4743L32.5255 25.0646C32.4907 25.0472 32.4692 25.0114 32.4692 24.9735V23.3982L20.383 17.3551V18.0085C20.383 18.0475 20.3615 18.0833 20.3266 18.0997L19.5072 18.5094C19.4898 18.5176 19.4704 18.5217 19.4519 18.5196C19.4468 18.5196 19.4417 18.5176 19.4355 18.5166L19.4284 18.5145C19.4284 18.5145 19.4191 18.5104 19.4151 18.5084L18.5956 18.0987C18.5608 18.0813 18.5393 18.0454 18.5393 18.0075V4.90011C18.5393 4.90011 18.5393 4.89499 18.5393 4.89191C18.5393 4.88987 18.5393 4.88884 18.5393 4.88782C18.5414 4.87553 18.5444 4.86426 18.5496 4.85299L18.5537 4.84685C18.5639 4.83046 18.5782 4.81612 18.5956 4.80895L19.4151 4.39925C19.4437 4.38491 19.4775 4.38491 19.5062 4.39925L19.8698 4.58157L25.9129 1.56001V1.21381C25.9129 1.21381 25.9129 1.20869 25.9129 1.20562C25.9129 1.20357 25.9129 1.20255 25.9129 1.20152C25.915 1.18923 25.9181 1.17796 25.9232 1.1667L25.9273 1.16055C25.9375 1.14416 25.9519 1.12982 25.9693 1.12265L26.7897 0.711927C26.8184 0.697587 26.8522 0.697587 26.8809 0.711927L27.7003 1.12163V1.1206ZM34.108 12.03L33.4935 12.3372V25.2183L34.108 24.911V12.031V12.03ZM40.2535 16.7426V20.2004L34.3129 23.1708V19.7129L37.2381 18.2503L40.2535 16.7426ZM29.7037 20.7884L32.4692 22.1711V22.3514L29.5234 20.8785L29.7037 20.7884ZM41.2635 8.45325L40.8681 8.65093V21.532L41.4826 21.2247V8.34366L41.2635 8.45325ZM29.8061 18.7911V19.381L32.4692 20.7126V20.1226L29.8061 18.7911ZM29.6013 18.6886V20.6101L29.3964 20.7126V18.5862L29.6013 18.6886ZM20.2805 16.0768L28.7819 20.3274V20.5077L20.1003 16.1669L20.2805 16.0768ZM39.9463 16.4865L34.3129 19.3032V19.4835L40.1265 16.5766L39.9463 16.4865ZM32.4692 19.4835L29.5234 18.0106L29.7037 17.9204L32.4692 19.3032V19.4835ZM38.078 17.1912L34.3129 19.0738V15.3086L38.078 17.1912ZM32.4692 17.6644V19.0738L29.8061 17.7422V16.3329L32.4692 17.6644ZM26.0164 11.9798L20.51 14.733L28.7819 18.8689V13.3625L26.0164 11.9798ZM19.7684 5.27089V8.79228C19.7684 8.8312 19.7899 8.86705 19.8248 8.88344L20.1781 9.05961V15.8975L19.8258 16.0737H19.8227L19.8196 16.0768H19.8176L19.8155 16.0788H19.8135L19.8114 16.0819L19.8094 16.084L19.8073 16.086L19.8053 16.0881L19.8032 16.0901L19.8012 16.0922L19.7991 16.0942L19.7971 16.0962L19.794 16.0993L19.792 16.1014L19.7899 16.1034L19.7879 16.1065L19.7858 16.1096V16.1126L19.7817 16.1167L19.7797 16.1198V16.1229L19.7766 16.126V16.128L19.7746 16.13V16.1321L19.7725 16.1341V16.1372L19.7705 16.1403V16.1454L19.7684 16.1485V16.1577L19.7664 16.1608V16.1679V17.0048L19.7684 17.0078V17.013L19.7705 17.015V17.0181L19.7725 17.0212V17.0232L19.7746 17.0252V17.0283L19.7776 17.0314V17.0345L19.7807 17.0375L19.7828 17.0406L19.7848 17.0437L19.7869 17.0468L19.7889 17.0498L19.791 17.0529L19.793 17.056L19.795 17.0591L19.7971 17.0621L19.8002 17.0642L19.8032 17.0662L19.8053 17.0683L19.8073 17.0703L19.8094 17.0724L19.8114 17.0744L19.8135 17.0765H19.8155L19.8176 17.0795H19.8196L19.8217 17.0816H19.8237L20.1771 17.2588V17.9512L19.5625 18.2585V5.37331L19.709 5.29957L19.7674 5.27089H19.7684ZM29.3964 17.8447V16.128L29.4446 16.1516L29.6013 16.2304V17.7422L29.3964 17.8447ZM39.8438 16.3083L38.3075 17.0765L34.4399 15.1427L39.8438 12.4407V16.3083ZM32.4692 16.845L29.7037 15.4622L29.5234 15.5524L32.4692 17.0252V16.845ZM32.4692 15.2062V16.6155L29.8061 15.284V13.8746L32.4692 15.2062ZM29.3964 13.6698V15.3864L29.6013 15.284V13.7722L29.3964 13.6698ZM40.2535 8.54851V12.0064L34.3129 14.9767V11.865C34.3129 11.8466 34.3077 11.8282 34.2985 11.8128C34.2504 11.7329 34.107 11.6991 34.0302 11.6602L40.2535 8.54851ZM25.7869 11.865L20.383 14.567V13.1577L24.3776 11.1604L25.7869 11.865ZM29.5224 12.6845L29.7027 12.5943L32.4682 13.9771V14.1573L29.5224 12.6845ZM20.3819 12.9282V12.748L23.9668 10.9555L24.1471 11.0456L20.3819 12.9282ZM38.078 8.99713L32.5255 11.7729C32.5071 11.7821 32.4928 11.7954 32.4825 11.8128C32.4733 11.8282 32.4692 11.8466 32.4692 11.864V12.5175L29.8061 11.186V9.61066C29.8061 9.59223 29.801 9.57379 29.7908 9.5574C29.7805 9.54101 29.7662 9.52667 29.7488 9.5195L22.1478 5.71849L26.8348 3.37499L38.078 8.99713ZM23.7384 10.8408L20.383 12.5185V9.16306L23.7384 10.8408ZM29.6013 9.77762L29.3964 9.88004V12.5185L29.6013 12.4161V9.77762ZM26.4742 1.3275C26.4005 1.28551 26.3216 1.25069 26.2458 1.21279L26.8358 0.917802L27.4258 1.21279C27.3459 1.25273 27.2609 1.28756 27.1851 1.33467C27.1564 1.35516 27.141 1.38998 27.1431 1.42481C27.1461 1.45963 27.1666 1.49139 27.1973 1.50777H27.1994L40.3099 8.06404C40.3386 8.07838 40.3724 8.07838 40.401 8.06404L40.7646 7.88172L41.3546 8.1767L40.7646 8.47169L40.401 8.2904C40.3785 8.27913 40.3539 8.27708 40.3293 8.2822L40.3222 8.28425C40.0999 8.37746 39.8869 8.50037 39.6718 8.60792L38.1026 9.3925L36.2057 10.341L34.5577 11.1655C34.2934 11.2976 34.025 11.4246 33.7628 11.5629C33.7557 11.567 33.7485 11.569 33.7423 11.5742C33.56 11.696 33.9042 11.8261 33.98 11.864L33.39 12.159L32.8 11.864L33.5621 11.483L35.3648 10.5817L37.5055 9.51131L39.2815 8.62328L39.8152 8.35697C39.8746 8.32727 39.9473 8.30269 40.0006 8.26377C40.0118 8.25557 40.021 8.24738 40.0292 8.23611L40.0333 8.22894C40.0415 8.21563 40.0466 8.20026 40.0477 8.18387C40.0477 8.17261 40.0477 8.16032 40.0446 8.14905C40.0446 8.147 40.0436 8.14598 40.0425 8.14393C40.0405 8.13881 40.0384 8.13369 40.0364 8.12959C40.0364 8.12856 40.0344 8.12651 40.0333 8.12549C40.0262 8.1132 40.0169 8.10296 40.0057 8.09476C40.0006 8.09169 39.9954 8.08759 39.9903 8.08555L26.8819 1.53133C26.8819 1.53133 26.8737 1.52723 26.8696 1.52621C26.8501 1.52006 26.8296 1.51904 26.8102 1.52314L26.803 1.52519C26.5828 1.61737 26.3718 1.74028 26.1588 1.8468L24.5927 2.63036L22.6957 3.57882L21.0508 4.4013L20.2457 4.80383L20.2345 4.80997H20.2324C20.2242 4.8151 20.217 4.82022 20.2109 4.82636L20.2088 4.82841L20.2068 4.83148C20.1986 4.8407 20.1925 4.85094 20.1873 4.86221L20.1853 4.86836C20.1832 4.87348 20.1822 4.87962 20.1812 4.88474C20.1761 4.9165 20.1863 4.94927 20.2088 4.97283C20.2129 4.97693 20.217 4.98 20.2211 4.9841L20.2283 4.98819C20.2283 4.98819 20.2334 4.99127 20.2365 4.99229L21.8753 5.8117L22.1037 5.92539L29.4763 9.61169L29.296 9.70182L19.919 5.0138C19.8965 5.00253 19.8719 5.00049 19.8473 5.00561L19.8401 5.00766C19.8401 5.00766 19.8309 5.01175 19.8268 5.0138L19.4632 5.19612L18.8732 4.90113L19.4632 4.60615L19.8268 4.78847C19.9026 4.82636 20.0327 4.73111 20.0972 4.69935L20.6186 4.43817L22.3352 3.57984L24.354 2.56993L25.9621 1.76589L26.3892 1.55284C26.4292 1.53236 26.4886 1.51494 26.5142 1.47397C26.5213 1.46168 26.5265 1.44837 26.5295 1.43505C26.5316 1.42481 26.5316 1.41354 26.5295 1.4033C26.5295 1.3992 26.5285 1.39613 26.5275 1.39203C26.5275 1.38998 26.5265 1.38896 26.5254 1.38691C26.5172 1.36233 26.4988 1.34082 26.4763 1.32853L26.4742 1.3275ZM26.7334 3.19882L21.9194 5.60582L20.51 4.90113L24.7064 2.80346L26.7344 1.78944V3.19882H26.7334Z" fill="#4760FF"/>
<path d="M4.14087 14.4034L4.57892 14.1504L9.57812 17.0369L9.14007 17.2899L4.14087 14.4034Z" fill="white" stroke="#4760FF" stroke-width="0.037313"/>
<path d="M9.14498 17.3272C9.1517 17.3272 9.15767 17.3257 9.16364 17.322L9.60244 17.069C9.61363 17.0623 9.62109 17.0504 9.62109 17.0369C9.62109 17.0235 9.61363 17.0116 9.60244 17.0049L4.60249 14.1183C4.5913 14.1116 4.57637 14.1116 4.56518 14.1183L4.12637 14.3713C4.11518 14.378 4.10772 14.39 4.10772 14.4034C4.10772 14.4168 4.11518 14.4288 4.12637 14.4355L9.12632 17.322C9.13229 17.3257 9.13826 17.3272 9.14498 17.3272ZM9.50915 17.0369L9.14498 17.2474L4.2204 14.4034L4.58458 14.1929L9.50841 17.0369H9.50915Z" fill="#4760FF" stroke="#4760FF" stroke-width="0.037313"/>
<path d="M5.84804 13.416L10.8477 16.3028L9.57518 17.0372L4.57556 14.1504L5.84804 13.416Z" fill="white" stroke="#4760FF" stroke-width="0.037313"/>
<path d="M9.58083 17.0745C9.58755 17.0745 9.59352 17.073 9.59949 17.0693L10.872 16.3349C10.8832 16.3282 10.8906 16.3162 10.8906 16.3028C10.8906 16.2894 10.8832 16.2774 10.872 16.2707L5.87235 13.3839C5.86115 13.3772 5.84623 13.3772 5.83503 13.3839L4.56255 14.1183C4.55136 14.125 4.54389 14.137 4.54389 14.1504C4.54389 14.1639 4.55136 14.1758 4.56255 14.1825L9.56217 17.0693C9.56814 17.0723 9.57411 17.0745 9.58083 17.0745ZM10.7787 16.3028L9.58083 16.9939L4.65584 14.1504L5.85369 13.4593L10.7787 16.3021V16.3028Z" fill="#4760FF" stroke="#4760FF" stroke-width="0.037313"/>
<path d="M10.8477 16.3008V20.6757L7.6019 22.5497V18.1741L9.13708 17.2882V17.7942L9.57518 17.5412V17.0352L10.8477 16.3008Z" fill="white" stroke="#4760FF" stroke-width="0.037313"/>
<path d="M7.60755 22.5878C7.61427 22.5878 7.62024 22.5863 7.62621 22.5826L10.872 20.7086C10.8832 20.7019 10.8906 20.6899 10.8906 20.6765V16.3008C10.8906 16.2874 10.8832 16.2754 10.872 16.2687C10.8608 16.262 10.8458 16.262 10.8347 16.2687L9.56217 17.0031C9.55098 17.0098 9.54351 17.0217 9.54351 17.0352V17.5203L9.17931 17.7308V17.2889C9.17931 17.2755 9.17184 17.2636 9.16065 17.2568C9.14945 17.2501 9.13453 17.2501 9.12333 17.2568L7.58815 18.1427C7.57695 18.1494 7.56949 18.1614 7.56949 18.1748V22.5498C7.56949 22.5632 7.57695 22.5751 7.58815 22.5819C7.59412 22.5848 7.60009 22.5871 7.6068 22.5871L7.60755 22.5878ZM10.816 20.6549L7.64487 22.4856V18.1965L9.10542 17.3531V17.7949C9.10542 17.8084 9.11288 17.8203 9.12408 17.827C9.13527 17.8337 9.1502 17.8337 9.16139 17.827L9.60023 17.574C9.61143 17.5673 9.61889 17.5554 9.61889 17.5419V17.0568L10.8167 16.3657V20.6549H10.816Z" fill="#4760FF" stroke="#4760FF" stroke-width="0.037313"/>
<path d="M7.60934 18.175L2.60973 15.289L4.14491 14.4023L9.14453 17.2891L7.60934 18.175Z" fill="white" stroke="#4760FF" stroke-width="0.037313"/>
<path d="M7.615 18.2123C7.62171 18.2123 7.62769 18.2109 7.63366 18.2071L9.16884 17.3212C9.18004 17.3145 9.1875 17.3026 9.1875 17.2891C9.1875 17.2757 9.18004 17.2638 9.16884 17.257L4.16922 14.3703C4.15803 14.3636 4.1431 14.3636 4.13191 14.3703L2.59672 15.2569C2.58553 15.2636 2.57806 15.2756 2.57806 15.289C2.57806 15.3024 2.58553 15.3144 2.59672 15.3211L7.59634 18.2071C7.60231 18.2101 7.60828 18.2123 7.615 18.2123ZM9.07555 17.2891L7.615 18.1325L2.69001 15.289L4.15057 14.4457L9.07555 17.2891Z" fill="#4760FF" stroke="#4760FF" stroke-width="0.037313"/>
<path d="M9.57812 17.0371V17.5436L9.13964 17.7968V17.2903L9.57812 17.0371Z" fill="#4760FF" stroke="#4760FF" stroke-width="0.037313"/>
<path d="M9.14452 17.8349C9.15124 17.8349 9.15722 17.8334 9.16319 17.8297L9.60242 17.5765C9.61362 17.5698 9.62109 17.5578 9.62109 17.5444V17.0372C9.62109 17.0237 9.61362 17.0118 9.60242 17.005C9.59121 16.9983 9.57627 16.9983 9.56507 17.005L9.12584 17.2583C9.11464 17.265 9.10717 17.2769 9.10717 17.2904V17.7976C9.10717 17.811 9.11464 17.823 9.12584 17.8297C9.13182 17.8327 9.13779 17.8349 9.14452 17.8349ZM9.5464 17.5227L9.18187 17.7334V17.3128L9.5464 17.1022V17.5227Z" fill="#4760FF" stroke="#4760FF" stroke-width="0.037313"/>
<path d="M2.59804 15.291L7.59766 18.177V22.5527L2.59804 19.6757V15.291Z" fill="#4760FF" stroke="#4760FF" stroke-width="0.037313"/>
<path d="M7.60331 22.5901C7.61003 22.5901 7.616 22.5886 7.62197 22.5848C7.63391 22.5781 7.64062 22.5662 7.64062 22.5528V18.1778C7.64062 18.1644 7.63316 18.1524 7.62197 18.1457L2.62235 15.2589C2.61115 15.2522 2.59623 15.2522 2.58503 15.2589C2.57384 15.2657 2.56637 15.2776 2.56637 15.291V19.6757C2.56637 19.6891 2.57384 19.7011 2.58503 19.7078L7.58465 22.5848C7.59062 22.5878 7.59659 22.5901 7.60331 22.5901ZM7.56599 18.1987V22.4878L2.64101 19.654V15.3552L7.56599 18.1987Z" fill="#4760FF" stroke="#4760FF" stroke-width="0.037313"/>
<path d="M3.78882 16.9967L2.81027 16.432C2.7759 16.4118 2.74752 16.3588 2.74752 16.3124V15.8672C2.74752 15.8209 2.7759 15.8 2.81027 15.8202L3.78882 16.3849C3.82318 16.4051 3.85156 16.4581 3.85156 16.5044V16.9496C3.85156 16.9959 3.82318 17.0168 3.78882 16.9967Z" fill="#FCFCFC"/>
<path d="M2.92969 16.4268L2.89458 16.4067V15.9473L2.92969 15.9674V16.4268Z" fill="#4760FF"/>
<path d="M3 16.3288L2.96481 16.3086V15.9844L3 16.0046V16.3288Z" fill="#4760FF"/>
<path d="M3.05859 16.3659L3.02341 16.3457V16.0215L3.05859 16.0417V16.3659Z" fill="#4760FF"/>
<path d="M3.125 16.403L3.09056 16.3828V16.0586L3.125 16.0788V16.403Z" fill="#4760FF"/>
<path d="M3.1875 16.4362L3.15231 16.416V16.0918L3.1875 16.112V16.4362Z" fill="#4760FF"/>
<path d="M3.25 16.4733L3.21481 16.4531V16.1289L3.25 16.1491V16.4733Z" fill="#4760FF"/>
<path d="M3.31641 16.5819L3.28122 16.5617V16.168L3.31641 16.1882V16.5819Z" fill="#4760FF"/>
<path d="M3.375 16.5495L3.33981 16.5293V16.2051L3.375 16.2253V16.5495Z" fill="#4760FF"/>
<path d="M3.44141 16.5827L3.40622 16.5625V16.2383L3.44141 16.2585V16.5827Z" fill="#4760FF"/>
<path d="M3.50781 16.6218L3.47262 16.6015V16.2773L3.50781 16.2976V16.6218Z" fill="#4760FF"/>
<path d="M3.57031 16.6569L3.53587 16.6367V16.3125L3.57031 16.3327V16.6569Z" fill="#4760FF"/>
<path d="M3.625 16.694L3.58981 16.6738V16.3496L3.625 16.3698V16.694Z" fill="#4760FF"/>
<path d="M3.69531 16.8663L3.6602 16.8461V16.3867L3.69531 16.4069V16.8663Z" fill="#4760FF"/>
<path d="M5.75 21.1803V20.4856C5.75 20.4236 5.70667 20.3489 5.65289 20.3175L5.05082 19.9702C4.99704 19.9395 4.95371 19.9642 4.95371 20.0262V20.7209C4.95371 20.7829 4.99704 20.8576 5.05082 20.889L5.65289 21.2363C5.70667 21.2669 5.75 21.2423 5.75 21.1803ZM5.65289 20.3579C5.68725 20.3773 5.71489 20.4258 5.71489 20.4654V21.1601C5.71489 21.1997 5.68725 21.2154 5.65289 21.196L5.05082 20.8486C5.01646 20.8292 4.98882 20.7806 4.98882 20.7411V20.0464C4.98882 20.0068 5.01646 19.9911 5.05082 20.0105L5.65289 20.3579Z" fill="white"/>
<path d="M6.61328 21.6764V20.9817C6.61328 20.9197 6.56996 20.845 6.51617 20.8136L5.9141 20.4663C5.86032 20.4356 5.81699 20.4603 5.81699 20.5223V21.217C5.81699 21.279 5.86032 21.3537 5.9141 21.3851L6.51617 21.7324C6.56996 21.763 6.61328 21.7384 6.61328 21.6764ZM6.51617 20.8539C6.55053 20.8734 6.57817 20.9219 6.57817 20.9615V21.6562C6.57817 21.6958 6.55053 21.7115 6.51617 21.6921L5.9141 21.3447C5.87974 21.3253 5.8521 21.2767 5.8521 21.2371V20.5425C5.8521 20.5029 5.87974 20.4872 5.9141 20.5066L6.51617 20.8539Z" fill="white"/>
<path d="M7.48047 22.1764V21.4817C7.48047 21.4197 7.43714 21.345 7.38336 21.3136L6.78129 20.9663C6.72751 20.9356 6.68418 20.9603 6.68418 21.0223V21.717C6.68418 21.779 6.72751 21.8537 6.78129 21.8851L7.38336 22.2324C7.43714 22.263 7.48047 22.2384 7.48047 22.1764ZM7.38336 21.3539C7.41772 21.3734 7.44536 21.4219 7.44536 21.4615V22.1562C7.44536 22.1958 7.41772 22.2115 7.38336 22.1921L6.78129 21.8447C6.74693 21.8253 6.71929 21.7767 6.71929 21.7371V21.0425C6.71929 21.0029 6.74693 20.9872 6.78129 21.0066L7.38336 21.3539Z" fill="white"/>
<path d="M7.23753 21.6384V21.4255L7.01941 21.3L7.0112 21.3426L7.05079 21.3553L7.05676 21.4248L7.09785 21.4397L7.06199 21.5331V21.4442H7.03585L7.0239 21.3785L6.99476 21.3762L6.9731 21.2724L6.93501 21.25V21.4629C6.93501 21.548 6.99476 21.6526 7.06872 21.6952V21.8252L6.98505 21.7766C6.97235 21.7692 6.9619 21.7751 6.9619 21.7901V21.8035L7.21139 21.9477V21.9342C7.21139 21.9193 7.20093 21.9014 7.18823 21.8939L7.10457 21.8453V21.7154C7.17852 21.758 7.23828 21.7236 7.23828 21.6377L7.23753 21.6384Z" fill="white"/>
<path d="M5.64453 20.9915L5.06861 20.6591V20.7397L5.64453 21.0721V20.9915ZM5.2815 20.3842V20.6934L5.17692 20.6329V20.3237L5.11865 20.2901L5.22921 20.2266L5.33976 20.4178L5.2815 20.3842ZM5.59374 20.5642L5.48318 20.373L5.37263 20.4365L5.43089 20.4701V20.7793L5.53547 20.8398V20.5306L5.59374 20.5642Z" fill="white"/>
<path d="M6.38281 21.1724L6.23335 21.186V20.9862L6.38281 20.9727V21.1724Z" fill="white"/>
<path d="M6.21094 21.1768L6.0616 20.9906V20.791L6.21094 20.9771V21.1768Z" fill="white"/>
<path d="M6.21823 20.9686L6.06927 20.783L6.21823 20.7695L6.36719 20.9552L6.21823 20.9686Z" fill="white"/>
<path d="M6.03403 21.0064C6.03403 21.0064 6.02954 21.0004 6.0273 20.9989C6.0273 20.9989 6.02207 20.9944 6.01983 20.9929C6.01983 20.9929 6.0146 20.9892 6.01236 20.9884C6.00564 20.9854 5.99892 20.9854 5.99369 20.9884C5.98099 20.9959 5.98099 21.0198 5.99369 21.0415L6.04075 21.1236C6.04299 21.1274 6.04299 21.1319 6.04075 21.1334C6.03851 21.1348 6.03477 21.1326 6.03253 21.1289L5.98547 21.0467C5.97726 21.0325 5.97277 21.0168 5.97277 21.0034C5.97277 20.9899 5.97726 20.9795 5.98547 20.975C5.99294 20.9705 6.00191 20.9713 6.01236 20.9757V20.7965C5.98398 20.7427 5.94738 20.7442 5.94738 20.777V21.0086L6.05569 21.1961V21.3403L6.17969 21.412V21.2499L6.03926 21.0153C6.03926 21.0153 6.03552 21.0094 6.03328 21.0071L6.03403 21.0064Z" fill="white"/>
<path d="M6.40554 21.2215C6.40554 21.2215 6.41077 21.2215 6.41226 21.2215C6.41226 21.2215 6.41749 21.223 6.41973 21.2238C6.41973 21.2238 6.42496 21.2268 6.4272 21.2283C6.43392 21.2335 6.44065 21.2402 6.44587 21.2492C6.45857 21.2708 6.45857 21.2947 6.44587 21.3022L6.39881 21.3291C6.39881 21.3291 6.39657 21.3351 6.39881 21.3388C6.40106 21.3425 6.40479 21.3448 6.40703 21.3433L6.45409 21.3156C6.46231 21.3112 6.46679 21.3007 6.46679 21.2873C6.46679 21.2738 6.46231 21.2581 6.45409 21.2439C6.44662 21.2312 6.43766 21.2208 6.4272 21.2141V21.0348C6.45559 21.0139 6.49219 21.0572 6.49219 21.0901V21.3216L6.38387 21.3844V21.5285L6.25987 21.4568V21.2947L6.40031 21.2223C6.40031 21.2223 6.40404 21.2208 6.40628 21.22L6.40554 21.2215Z" fill="white"/>
<path d="M4.18774 9.98736L4.6258 9.73438L9.625 12.6209L9.18694 12.8739L4.18774 9.98736Z" fill="white" stroke="#4760FF" stroke-width="0.037313"/>
<path d="M9.19185 12.9112C9.19857 12.9112 9.20454 12.9097 9.21051 12.906L9.64931 12.653C9.66051 12.6463 9.66797 12.6344 9.66797 12.6209C9.66797 12.6075 9.66051 12.5956 9.64931 12.5888L4.64936 9.7023C4.63817 9.69559 4.62325 9.69559 4.61205 9.7023L4.17325 9.95529C4.16206 9.962 4.15459 9.97394 4.15459 9.98737C4.15459 10.0008 4.16206 10.0127 4.17325 10.0195L9.1732 12.906C9.17917 12.9097 9.18514 12.9112 9.19185 12.9112ZM9.55603 12.6209L9.19185 12.8314L4.26728 9.98737L4.63145 9.77693L9.55528 12.6209H9.55603Z" fill="#4760FF" stroke="#4760FF" stroke-width="0.037313"/>
<path d="M5.89882 9L10.8984 11.8868L9.62596 12.6212L4.62634 9.73438L5.89882 9Z" fill="white" stroke="#4760FF" stroke-width="0.037313"/>
<path d="M9.63161 12.6585C9.63833 12.6585 9.6443 12.657 9.65027 12.6533L10.9227 11.9189C10.9339 11.9122 10.9414 11.9002 10.9414 11.8868C10.9414 11.8734 10.9339 11.8614 10.9227 11.8547L5.92313 8.96793C5.91194 8.96121 5.89701 8.96121 5.88581 8.96793L4.61333 9.70231C4.60214 9.70903 4.59468 9.72097 4.59468 9.7344C4.59468 9.74784 4.60214 9.75978 4.61333 9.76649L9.61295 12.6533C9.61892 12.6563 9.62489 12.6585 9.63161 12.6585ZM10.8295 11.8868L9.63161 12.5779L4.70662 9.7344L5.90447 9.04331L10.8295 11.8861V11.8868Z" fill="#4760FF" stroke="#4760FF" stroke-width="0.037313"/>
<path d="M10.8984 11.8828V16.2578L7.65268 18.1318V13.7561L9.18787 12.8702V13.3762L9.62596 13.1232V12.6172L10.8984 11.8828Z" fill="white" stroke="#4760FF" stroke-width="0.037313"/>
<path d="M7.65833 18.1699C7.66505 18.1699 7.67102 18.1684 7.67699 18.1646L10.9227 16.2906C10.9339 16.2839 10.9414 16.272 10.9414 16.2585V11.8828C10.9414 11.8694 10.9339 11.8575 10.9227 11.8507C10.9116 11.844 10.8966 11.844 10.8854 11.8507L9.61295 12.5851C9.60176 12.5918 9.59429 12.6038 9.59429 12.6172V13.1023L9.23009 13.3128V12.871C9.23009 12.8575 9.22262 12.8456 9.21143 12.8389C9.20023 12.8322 9.18531 12.8322 9.17411 12.8389L7.63893 13.7248C7.62773 13.7315 7.62027 13.7434 7.62027 13.7568V18.1318C7.62027 18.1452 7.62773 18.1572 7.63893 18.1639C7.6449 18.1669 7.65087 18.1691 7.65758 18.1691L7.65833 18.1699ZM10.8668 16.2369L7.69565 18.0676V13.7785L9.1562 12.9351V13.377C9.1562 13.3904 9.16366 13.4023 9.17486 13.4091C9.18605 13.4158 9.20098 13.4158 9.21218 13.4091L9.65101 13.1561C9.66221 13.1493 9.66967 13.1374 9.66967 13.124V12.6389L10.8675 11.9478V16.2369H10.8668Z" fill="#4760FF" stroke="#4760FF" stroke-width="0.037313"/>
<path d="M7.6445 13.759L2.64488 10.873L4.18007 9.98633L9.17969 12.8731L7.6445 13.759Z" fill="white" stroke="#4760FF" stroke-width="0.037313"/>
<path d="M7.65015 13.7963C7.65687 13.7963 7.66284 13.7948 7.66881 13.7911L9.204 12.9052C9.21519 12.8985 9.22266 12.8866 9.22266 12.8731C9.22266 12.8597 9.21519 12.8478 9.204 12.841L4.20438 9.95426C4.19319 9.94754 4.17826 9.94754 4.16706 9.95426L2.63188 10.8409C2.62068 10.8476 2.61322 10.8595 2.61322 10.873C2.61322 10.8864 2.62068 10.8984 2.63188 10.9051L7.6315 13.7911C7.63747 13.7941 7.64344 13.7963 7.65015 13.7963ZM9.11071 12.8731L7.65015 13.7165L2.72517 10.873L4.18572 10.0296L9.11071 12.8731Z" fill="#4760FF" stroke="#4760FF" stroke-width="0.037313"/>
<path d="M9.625 12.6172V13.1236L9.18652 13.3769V12.8704L9.625 12.6172Z" fill="#4760FF" stroke="#4760FF" stroke-width="0.037313"/>
<path d="M9.19139 13.415C9.19812 13.415 9.20409 13.4135 9.21007 13.4098L9.64929 13.1566C9.6605 13.1498 9.66797 13.1379 9.66797 13.1244V12.6172C9.66797 12.6038 9.6605 12.5918 9.64929 12.5851C9.63809 12.5784 9.62315 12.5784 9.61194 12.5851L9.17272 12.8383C9.16151 12.8451 9.15404 12.857 9.15404 12.8705V13.3777C9.15404 13.3911 9.16151 13.4031 9.17272 13.4098C9.17869 13.4128 9.18467 13.415 9.19139 13.415ZM9.59327 13.1028L9.22874 13.3134V12.8929L9.59327 12.6822V13.1028Z" fill="#4760FF" stroke="#4760FF" stroke-width="0.037313"/>
<path d="M2.64882 10.877L7.64844 13.763V18.1387L2.64882 15.2616V10.877Z" fill="#4760FF" stroke="#4760FF" stroke-width="0.037313"/>
<path d="M7.65409 18.176C7.66081 18.176 7.66678 18.1745 7.67275 18.1708C7.68469 18.1641 7.69141 18.1521 7.69141 18.1387V13.7638C7.69141 13.7503 7.68394 13.7384 7.67275 13.7317L2.67313 10.8449C2.66193 10.8382 2.64701 10.8382 2.63581 10.8449C2.62462 10.8516 2.61716 10.8635 2.61716 10.877V15.2616C2.61716 15.2751 2.62462 15.287 2.63581 15.2937L7.63543 18.1708C7.6414 18.1738 7.64737 18.176 7.65409 18.176ZM7.61677 13.7846V18.0738L2.69179 15.24V10.9412L7.61677 13.7846Z" fill="#4760FF" stroke="#4760FF" stroke-width="0.037313"/>
<path d="M3.83569 12.5787L2.85714 12.014C2.82278 11.9938 2.79439 11.9408 2.79439 11.8945V11.4493C2.79439 11.403 2.82278 11.382 2.85714 11.4022L3.83569 11.9669C3.87005 11.9871 3.89844 12.0401 3.89844 12.0864V12.5316C3.89844 12.578 3.87005 12.5989 3.83569 12.5787Z" fill="#FCFCFC"/>
<path d="M2.98438 12.0128L2.94927 11.9926V11.5332L2.98438 11.5534V12.0128Z" fill="#4760FF"/>
<path d="M3.05469 11.9147L3.0195 11.8945V11.5703L3.05469 11.5905V11.9147Z" fill="#4760FF"/>
<path d="M3.11328 11.9518L3.07809 11.9316V11.6074L3.11328 11.6276V11.9518Z" fill="#4760FF"/>
<path d="M3.17969 11.9889L3.14525 11.9687V11.6445L3.17969 11.6647V11.9889Z" fill="#4760FF"/>
<path d="M3.24219 12.0221L3.207 12.0019V11.6777L3.24219 11.6979V12.0221Z" fill="#4760FF"/>
<path d="M3.30469 12.0593L3.2695 12.039V11.7148L3.30469 11.7351V12.0593Z" fill="#4760FF"/>
<path d="M3.37109 12.1679L3.33591 12.1477V11.7539L3.37109 11.7741V12.1679Z" fill="#4760FF"/>
<path d="M3.42969 12.1354L3.3945 12.1152V11.791L3.42969 11.8112V12.1354Z" fill="#4760FF"/>
<path d="M3.49609 12.1686L3.4609 12.1484V11.8242L3.49609 11.8444V12.1686Z" fill="#4760FF"/>
<path d="M3.5625 12.2077L3.52731 12.1875V11.8633L3.5625 11.8835V12.2077Z" fill="#4760FF"/>
<path d="M3.625 12.2428L3.59056 12.2226V11.8984L3.625 11.9187V12.2428Z" fill="#4760FF"/>
<path d="M3.67969 12.28L3.6445 12.2597V11.9355L3.67969 11.9558V12.28Z" fill="#4760FF"/>
<path d="M3.75 12.4522L3.71489 12.4321V11.9727L3.75 11.9928V12.4522Z" fill="#4760FF"/>
<path d="M5.79297 16.7662V16.0715C5.79297 16.0095 5.74964 15.9348 5.69586 15.9035L5.09379 15.5561C5.04001 15.5255 4.99668 15.5501 4.99668 15.6121V16.3068C4.99668 16.3688 5.04001 16.4435 5.09379 16.4749L5.69586 16.8222C5.74964 16.8529 5.79297 16.8282 5.79297 16.7662ZM5.69586 15.9438C5.73022 15.9632 5.75786 16.0118 5.75786 16.0514V16.7461C5.75786 16.7856 5.73022 16.8013 5.69586 16.7819L5.09379 16.4346C5.05943 16.4151 5.03179 16.3666 5.03179 16.327V15.6323C5.03179 15.5927 5.05943 15.577 5.09379 15.5964L5.69586 15.9438Z" fill="white"/>
<path d="M6.65625 17.2623V16.5676C6.65625 16.5056 6.61292 16.4309 6.55914 16.3995L5.95707 16.0522C5.90329 16.0216 5.85996 16.0462 5.85996 16.1082V16.8029C5.85996 16.8649 5.90329 16.9396 5.95707 16.971L6.55914 17.3183C6.61292 17.349 6.65625 17.3243 6.65625 17.2623ZM6.55914 16.4399C6.5935 16.4593 6.62114 16.5079 6.62114 16.5474V17.2421C6.62114 17.2817 6.5935 17.2974 6.55914 17.278L5.95707 16.9307C5.92271 16.9112 5.89507 16.8627 5.89507 16.8231V16.1284C5.89507 16.0888 5.92271 16.0731 5.95707 16.0925L6.55914 16.4399Z" fill="white"/>
<path d="M7.52344 17.7623V17.0676C7.52344 17.0056 7.48011 16.9309 7.42633 16.8995L6.82426 16.5522C6.77048 16.5216 6.72715 16.5462 6.72715 16.6082V17.3029C6.72715 17.3649 6.77048 17.4396 6.82426 17.471L7.42633 17.8183C7.48011 17.849 7.52344 17.8243 7.52344 17.7623ZM7.42633 16.9399C7.46069 16.9593 7.48833 17.0079 7.48833 17.0474V17.7421C7.48833 17.7817 7.46069 17.7974 7.42633 17.778L6.82426 17.4307C6.7899 17.4112 6.76226 17.3627 6.76226 17.3231V16.6284C6.76226 16.5888 6.7899 16.5731 6.82426 16.5925L7.42633 16.9399Z" fill="white"/>
<path d="M7.2805 17.2244V17.0115L7.06238 16.886L7.05417 16.9286L7.09376 16.9413L7.09973 17.0107L7.14082 17.0257L7.10496 17.119V17.0302H7.07882L7.06687 16.9644L7.03773 16.9622L7.01607 16.8583L6.97797 16.8359V17.0488C6.97797 17.134 7.03773 17.2386 7.11168 17.2811V17.4111L7.02802 17.3626C7.01532 17.3551 7.00487 17.3611 7.00487 17.376V17.3895L7.25436 17.5336V17.5202C7.25436 17.5052 7.2439 17.4873 7.2312 17.4798L7.14754 17.4313V17.3013C7.22149 17.3439 7.28125 17.3095 7.28125 17.2236L7.2805 17.2244Z" fill="white"/>
<path d="M5.6875 16.5774L5.11158 16.245V16.3257L5.6875 16.6581V16.5774ZM5.32447 15.9701V16.2794L5.21989 16.2189V15.9096L5.16162 15.876L5.27218 15.8125L5.38273 16.0037L5.32447 15.9701ZM5.63671 16.1501L5.52615 15.9589L5.4156 16.0224L5.47386 16.056V16.3653L5.57844 16.4258V16.1165L5.63671 16.1501Z" fill="white"/>
<path d="M6.42188 16.7584L6.27241 16.7719V16.5721L6.42188 16.5586V16.7584Z" fill="white"/>
<path d="M6.25 16.7627L6.10066 16.5766V16.377L6.25 16.5631V16.7627Z" fill="white"/>
<path d="M6.25729 16.5546L6.10833 16.3689L6.25729 16.3555L6.40625 16.5411L6.25729 16.5546Z" fill="white"/>
<path d="M6.07309 16.5923C6.07309 16.5923 6.06861 16.5863 6.06637 16.5848C6.06637 16.5848 6.06114 16.5804 6.0589 16.5789C6.0589 16.5789 6.05367 16.5751 6.05143 16.5744C6.0447 16.5714 6.03798 16.5714 6.03275 16.5744C6.02005 16.5818 6.02005 16.6057 6.03275 16.6274L6.07981 16.7096C6.08205 16.7133 6.08205 16.7178 6.07981 16.7193C6.07757 16.7208 6.07384 16.7185 6.07159 16.7148L6.02453 16.6326C6.01632 16.6184 6.01184 16.6028 6.01184 16.5893C6.01184 16.5759 6.01632 16.5654 6.02453 16.5609C6.032 16.5564 6.04097 16.5572 6.05143 16.5617V16.3824C6.02304 16.3286 5.98644 16.3301 5.98644 16.363V16.5945L6.09475 16.782V16.9262L6.21875 16.9979V16.8358L6.07832 16.6013C6.07832 16.6013 6.07458 16.5953 6.07234 16.593L6.07309 16.5923Z" fill="white"/>
<path d="M6.4446 16.8075C6.4446 16.8075 6.44983 16.8075 6.45132 16.8075C6.45132 16.8075 6.45655 16.809 6.45879 16.8097C6.45879 16.8097 6.46402 16.8127 6.46626 16.8142C6.47298 16.8194 6.47971 16.8261 6.48494 16.8351C6.49764 16.8568 6.49764 16.8807 6.48494 16.8881L6.43788 16.915C6.43788 16.915 6.43564 16.921 6.43788 16.9247C6.44012 16.9285 6.44385 16.9307 6.44609 16.9292L6.49315 16.9016C6.50137 16.8971 6.50585 16.8866 6.50585 16.8732C6.50585 16.8598 6.50137 16.8441 6.49315 16.8299C6.48568 16.8172 6.47672 16.8067 6.46626 16.8V16.6207C6.49465 16.5998 6.53125 16.6431 6.53125 16.676V16.9076L6.42294 16.9703V17.1145L6.29894 17.0428V16.8807L6.43937 16.8082C6.43937 16.8082 6.44311 16.8067 6.44535 16.806L6.4446 16.8075Z" fill="white"/>
<path fill-rule="evenodd" clip-rule="evenodd" d="M11.2814 18.5775V19.9219L11.9537 20.2581L12.6259 19.2497L20.3565 23.115L21.0287 24.7956L21.701 25.1317V14.0399L10.9453 8.66211V18.4094L11.2814 18.5775Z" fill="white"/>
<path fill-rule="evenodd" clip-rule="evenodd" d="M14.9712 16.7267L14.299 17.0628L16.9879 18.4073L17.6601 18.0712L17.324 17.9031L16.9879 18.0712L14.9712 17.0628L15.3073 16.8948L14.9712 16.7267ZM14.9712 12.3572L14.299 12.6933L16.9879 14.0378L17.6601 13.7017L17.324 13.5336L16.9879 13.7017L14.9712 12.6933L15.3073 12.5253L14.9712 12.3572ZM16.3157 5.29883L10.2656 8.32386L21.6935 14.0378L27.7436 11.0128L16.3157 5.29883Z" fill="white"/>
<path fill-rule="evenodd" clip-rule="evenodd" d="M10.8597 8.71365V18.4089C10.8597 18.4408 10.8774 18.4694 10.9059 18.4837L11.1958 18.6282V19.9205C11.1958 19.9525 11.2135 19.981 11.2421 19.9953L11.9143 20.3314C11.9521 20.3508 11.9983 20.3382 12.0218 20.3029L12.6529 19.3559L20.2886 23.1741L20.949 24.8253C20.9566 24.8446 20.9709 24.8598 20.9894 24.869L21.6616 25.2051C21.6851 25.2169 21.7137 25.2169 21.7372 25.2051L22.4095 24.869C22.428 24.8598 22.4422 24.8446 22.4498 24.8253L23.1103 23.1741L25.3681 22.0448L25.9992 22.9918C26.0227 23.0271 26.0689 23.0388 26.1067 23.0204L26.779 22.6842C26.8075 22.67 26.8252 22.6414 26.8252 22.6095V21.3171L27.1151 21.1726C27.1436 21.1583 27.1613 21.1297 27.1613 21.0978V11.4026L27.7873 11.09C27.8159 11.0757 27.8335 11.0463 27.8335 11.0152C27.8335 10.9841 27.8159 10.9547 27.7873 10.9404L16.3594 5.22562C16.3359 5.21386 16.3081 5.21386 16.2846 5.22562L10.2337 8.25065C10.2051 8.26494 10.1875 8.29435 10.1875 8.32544C10.1875 8.35653 10.2051 8.38594 10.2337 8.40022L10.8597 8.71281V8.71365ZM20.7558 23.4086L21.6154 23.838V24.9942L21.0936 24.7329L20.5155 23.2876L20.7558 23.4077V23.4086ZM11.0278 18.3568L12.6621 19.1735L20.3928 23.0388L21.6154 23.6506V14.0915L21.1112 13.8394V22.7784C21.1112 22.8078 21.0961 22.8347 21.0717 22.8498C21.0465 22.8649 21.0163 22.8666 20.9902 22.8531L11.5782 18.1475C11.5496 18.1333 11.532 18.1047 11.532 18.0728V9.04976L11.0278 8.79768V18.3568ZM11.7 13.5033V18.0207L20.9432 22.6422V18.1249L11.7 13.5033ZM11.3639 18.7131L12.5016 19.2819L11.9235 20.1491L11.3639 19.8693V18.7131ZM14.2679 16.9896C14.2259 17.0115 14.2234 17.0484 14.2209 17.0905C14.215 17.2266 14.2209 17.3644 14.2209 17.5005C14.2209 17.5837 14.1873 17.7576 14.2671 17.8123C14.2948 17.8308 14.3301 17.8434 14.3595 17.8585L15.7754 18.5668L16.5543 18.9567C16.6838 19.0214 16.8132 19.0987 16.9476 19.1534C16.9804 19.1668 17.0005 19.1677 17.0342 19.155C17.1375 19.1156 17.2375 19.0534 17.3367 19.0038C17.4518 18.9467 17.5694 18.8929 17.682 18.8307C17.7702 18.7828 17.7484 18.6878 17.7484 18.6005V18.1543C17.7484 18.1106 17.7585 18.0526 17.7265 18.0173C17.7064 17.9946 17.6694 17.982 17.6434 17.9694L17.4417 17.8686C17.3904 17.8434 17.3476 17.8114 17.2896 17.8308C17.2367 17.8484 17.1837 17.8837 17.1341 17.9089L16.9921 17.9795L15.3956 17.1812C15.3956 17.0879 15.4124 16.9795 15.3956 16.8888C15.383 16.8207 15.3082 16.8014 15.2536 16.7737C15.167 16.7308 15.0267 16.6199 14.9284 16.6586C14.8141 16.7039 14.7049 16.7703 14.5956 16.8249L14.2671 16.9896H14.2679ZM15.6998 17.856L16.9106 18.461V18.945L14.3898 17.6845V17.2005L15.6998 17.856ZM15.1259 16.8964L14.978 16.8224L14.494 17.0644L16.9947 18.3148L17.4787 18.0728L17.3308 17.9988L17.1594 18.0845C17.0997 18.1148 17.0257 18.1711 16.9568 18.1484C16.9106 18.1333 16.8644 18.1022 16.8207 18.0803L16.0006 17.6703L15.141 17.2409C15.0771 17.2089 15.0082 17.1812 14.9469 17.1434C14.9267 17.1308 14.9099 17.1207 14.8998 17.0972C14.8511 16.9812 15.0637 16.9274 15.125 16.8964H15.1259ZM11.7 9.13379V13.3151L20.9432 17.9366V13.7554L11.7 9.13379ZM14.2679 12.6201C14.2268 12.642 14.2226 12.6781 14.2209 12.7201C14.2158 12.8537 14.2209 12.9882 14.2209 13.1218C14.2209 13.2067 14.1856 13.3873 14.2671 13.4428C14.2931 13.4604 14.3259 13.4722 14.3545 13.4865L15.7687 14.194L16.5552 14.5872C16.6854 14.652 16.8148 14.7301 16.9493 14.7847C16.9829 14.7982 17.0031 14.7982 17.0367 14.7847C17.1425 14.7435 17.2442 14.6814 17.3451 14.6301C17.4585 14.5738 17.5745 14.5209 17.6862 14.4595C17.7728 14.4125 17.7501 14.3133 17.7501 14.2276V13.7873C17.7501 13.7436 17.761 13.6839 17.7299 13.6478C17.7097 13.6243 17.6719 13.6117 17.6459 13.5982L17.4442 13.4974C17.393 13.4722 17.3501 13.4403 17.2921 13.4596C17.2392 13.4772 17.1862 13.5125 17.1367 13.5377L16.9947 13.6083L15.3981 12.81C15.3981 12.7168 15.4149 12.6084 15.3981 12.5176C15.3855 12.4496 15.3107 12.4302 15.2561 12.4025C15.1696 12.3597 15.0292 12.2487 14.9309 12.2874C14.8166 12.3328 14.7074 12.3991 14.5982 12.4538L14.2696 12.6185L14.2679 12.6201ZM15.6998 13.4865L16.9106 14.0915V14.5755L14.3898 13.3151V12.8311L15.6998 13.4865ZM14.4931 12.6949L16.9938 13.9453L17.4778 13.7033L17.3299 13.6293L17.1585 13.715C17.0989 13.7453 17.0249 13.8016 16.956 13.7789C16.9064 13.7621 16.8585 13.7302 16.8123 13.7066L15.9855 13.2932L15.1267 12.8638C15.0679 12.8344 14.9276 12.7983 14.899 12.726C14.8528 12.6101 15.0628 12.558 15.125 12.5269L14.9771 12.4529L14.4931 12.6949ZM27.0403 11.2757L27.5621 11.0144L16.3216 5.39452L10.4598 8.32544L11.653 8.92204L21.6994 13.9453L27.0394 11.2748L27.0403 11.2757Z" fill="#4760FF"/>
<path d="M19.1057 4.99126L19.5438 4.73828L24.543 7.62482L24.1049 7.8778L19.1057 4.99126Z" fill="white" stroke="#4760FF" stroke-width="0.037313"/>
<path d="M24.1098 7.91513C24.1165 7.91513 24.1225 7.91364 24.1285 7.90991L24.5673 7.65693C24.5785 7.65021 24.5859 7.63827 24.5859 7.62484C24.5859 7.6114 24.5785 7.59946 24.5673 7.59275L19.5673 4.70621C19.5561 4.69949 19.5412 4.69949 19.53 4.70621L19.0912 4.95919C19.08 4.96591 19.0726 4.97785 19.0726 4.99128C19.0726 5.00471 19.08 5.01665 19.0912 5.02337L24.0912 7.90991C24.0971 7.91364 24.1031 7.91513 24.1098 7.91513ZM24.474 7.62484L24.1098 7.83528L19.1852 4.99128L19.5494 4.78084L24.4733 7.62484H24.474Z" fill="#4760FF" stroke="#4760FF" stroke-width="0.037313"/>
<path d="M20.8129 4.00781L25.8125 6.89459L24.54 7.62897L19.5404 4.74219L20.8129 4.00781Z" fill="white" stroke="#4760FF" stroke-width="0.037313"/>
<path d="M24.5457 7.66631C24.5524 7.66631 24.5584 7.66482 24.5643 7.66108L25.8368 6.9267C25.848 6.91999 25.8555 6.90804 25.8555 6.89461C25.8555 6.88118 25.848 6.86924 25.8368 6.86252L20.8372 3.97574C20.826 3.96902 20.8111 3.96902 20.7999 3.97574L19.5274 4.71012C19.5162 4.71684 19.5087 4.72878 19.5087 4.74221C19.5087 4.75565 19.5162 4.76759 19.5274 4.77431L24.527 7.66108C24.533 7.66407 24.539 7.66631 24.5457 7.66631ZM25.7435 6.89461L24.5457 7.58571L19.6207 4.74221L20.8185 4.05112L25.7435 6.89386V6.89461Z" fill="#4760FF" stroke="#4760FF" stroke-width="0.037313"/>
<path d="M25.8125 6.88867V11.477L22.5667 13.1376V8.76194L24.1019 7.87606V8.38206L24.54 8.12906V7.62305L25.8125 6.88867Z" fill="white" stroke="#4760FF" stroke-width="0.037313"/>
<path d="M22.5724 13.1757C22.5791 13.1757 22.5851 13.1742 22.5911 13.1705L25.8368 11.5116C25.848 11.5049 25.8555 11.493 25.8555 11.4795V6.88869C25.8555 6.87526 25.848 6.86332 25.8368 6.8566C25.8256 6.84988 25.8107 6.84988 25.7995 6.8566L24.527 7.59098C24.5158 7.5977 24.5084 7.60964 24.5084 7.62307V8.10818L24.1442 8.31865V7.87682C24.1442 7.86339 24.1367 7.85145 24.1255 7.84473C24.1143 7.83802 24.0994 7.83802 24.0882 7.84473L22.553 8.73062C22.5418 8.73733 22.5343 8.74928 22.5343 8.76271V13.1377C22.5343 13.1511 22.5418 13.163 22.553 13.1697C22.559 13.1727 22.5649 13.175 22.5716 13.175L22.5724 13.1757ZM25.7808 11.4579L22.6097 13.0735V8.78435L24.0703 7.94101V8.38283C24.0703 8.39626 24.0777 8.40821 24.0889 8.41492C24.1001 8.42164 24.115 8.42164 24.1262 8.41492L24.5651 8.16192C24.5763 8.1552 24.5837 8.14326 24.5837 8.12983V7.64472L25.7816 6.95362V11.4579H25.7808Z" fill="#4760FF" stroke="#4760FF" stroke-width="0.037313"/>
<path d="M22.5703 8.76094L17.5707 5.87491L19.1059 4.98828L24.1055 7.87506L22.5703 8.76094Z" fill="white" stroke="#4760FF" stroke-width="0.037313"/>
<path d="M22.5759 8.79828C22.5827 8.79828 22.5886 8.79679 22.5946 8.79306L24.1298 7.90717C24.141 7.90045 24.1484 7.88851 24.1484 7.87508C24.1484 7.86165 24.141 7.8497 24.1298 7.84299L19.1302 4.95621C19.119 4.94949 19.104 4.94949 19.0928 4.95621L17.5577 5.84284C17.5465 5.84956 17.539 5.8615 17.539 5.87493C17.539 5.88837 17.5465 5.90031 17.5577 5.90703L22.5573 8.79306C22.5632 8.79604 22.5692 8.79828 22.5759 8.79828ZM24.0365 7.87508L22.5759 8.71842L17.6509 5.87493L19.1115 5.03159L24.0365 7.87508Z" fill="#4760FF" stroke="#4760FF" stroke-width="0.037313"/>
<path d="M24.5391 7.625V8.13146L24.1006 8.38468V7.87823L24.5391 7.625Z" fill="#4760FF" stroke="#4760FF" stroke-width="0.037313"/>
<path d="M24.1055 8.42283C24.1122 8.42283 24.1182 8.42134 24.1241 8.4176L24.5634 8.16438C24.5746 8.15765 24.582 8.1457 24.582 8.13226V7.62505C24.582 7.61161 24.5746 7.59966 24.5634 7.59293C24.5522 7.58621 24.5372 7.58621 24.526 7.59293L24.0868 7.84616C24.0756 7.85288 24.0681 7.86484 24.0681 7.87828V8.38548C24.0681 8.39893 24.0756 8.41088 24.0868 8.4176C24.0928 8.42059 24.0987 8.42283 24.1055 8.42283ZM24.5073 8.11059L24.1428 8.32124V7.90069L24.5073 7.69004V8.11059Z" fill="#4760FF" stroke="#4760FF" stroke-width="0.037313"/>
<path d="M17.5668 5.88086L22.5664 8.76689V13.1426L17.5668 10.2655V5.88086Z" fill="#4760FF" stroke="#4760FF" stroke-width="0.037313"/>
<path d="M22.5721 13.1799C22.5788 13.1799 22.5847 13.1784 22.5907 13.1747C22.6027 13.168 22.6094 13.156 22.6094 13.1426V8.76766C22.6094 8.75422 22.6019 8.74228 22.5907 8.73556L17.5911 5.84879C17.5799 5.84207 17.565 5.84207 17.5538 5.84879C17.5426 5.8555 17.5351 5.86745 17.5351 5.88088V10.2655C17.5351 10.279 17.5426 10.2909 17.5538 10.2976L22.5534 13.1747C22.5594 13.1777 22.5653 13.1799 22.5721 13.1799ZM22.5347 8.78855V13.0777L17.6098 10.2439V5.94506L22.5347 8.78855Z" fill="#4760FF" stroke="#4760FF" stroke-width="0.037313"/>
<path d="M18.7498 7.58457L17.7712 7.01985C17.7368 6.99968 17.7085 6.94664 17.7085 6.90033V6.45513C17.7085 6.40881 17.7368 6.3879 17.7712 6.40807L18.7498 6.97279C18.7841 6.99296 18.8125 7.04599 18.8125 7.0923V7.53751C18.8125 7.58382 18.7841 7.60474 18.7498 7.58457Z" fill="#FCFCFC"/>
<path d="M17.8945 7.01472L17.8594 6.99455V6.53516L17.8945 6.55532V7.01472Z" fill="#4760FF"/>
<path d="M17.9648 6.91667L17.9297 6.89646V6.57227L17.9648 6.59248V6.91667Z" fill="#4760FF"/>
<path d="M18.0234 6.95378L17.9882 6.93357V6.60938L18.0234 6.62959V6.95378Z" fill="#4760FF"/>
<path d="M18.0898 6.99089L18.0554 6.97068V6.64648L18.0898 6.6667V6.99089Z" fill="#4760FF"/>
<path d="M18.1523 7.0241L18.1172 7.00388V6.67969L18.1523 6.6999V7.0241Z" fill="#4760FF"/>
<path d="M18.2148 7.06121L18.1797 7.04099V6.7168L18.2148 6.73701V7.06121Z" fill="#4760FF"/>
<path d="M18.2812 7.16983L18.2461 7.14962V6.75586L18.2812 6.77607V7.16983Z" fill="#4760FF"/>
<path d="M18.3398 7.13738L18.3047 7.11716V6.79297L18.3398 6.81318V7.13738Z" fill="#4760FF"/>
<path d="M18.4062 7.17058L18.3711 7.15037V6.82617L18.4062 6.84639V7.17058Z" fill="#4760FF"/>
<path d="M18.4727 7.20964L18.4375 7.18943V6.86523L18.4727 6.88545V7.20964Z" fill="#4760FF"/>
<path d="M18.5352 7.2448L18.5007 7.22458V6.90039L18.5352 6.92061V7.2448Z" fill="#4760FF"/>
<path d="M18.5898 7.28191L18.5547 7.26169V6.9375L18.5898 6.95772V7.28191Z" fill="#4760FF"/>
<path d="M18.6602 7.45417L18.625 7.43401V6.97461L18.6602 6.99478V7.45417Z" fill="#4760FF"/>
<path d="M20.707 11.7701V11.0754C20.707 11.0134 20.6637 10.9387 20.6099 10.9074L20.0079 10.56C19.9541 10.5294 19.9107 10.554 19.9107 10.616V11.3107C19.9107 11.3727 19.9541 11.4474 20.0079 11.4788L20.6099 11.8262C20.6637 11.8568 20.707 11.8321 20.707 11.7701ZM20.6099 10.9477C20.6443 10.9671 20.6719 11.0157 20.6719 11.0553V11.75C20.6719 11.7895 20.6443 11.8052 20.6099 11.7858L20.0079 11.4385C19.9735 11.419 19.9459 11.3705 19.9459 11.3309V10.6362C19.9459 10.5966 19.9735 10.5809 20.0079 10.6003L20.6099 10.9477Z" fill="white"/>
<path d="M21.5703 12.2682V11.5735C21.5703 11.5115 21.527 11.4368 21.4732 11.4054L20.8711 11.0581C20.8174 11.0274 20.774 11.0521 20.774 11.1141V11.8088C20.774 11.8708 20.8174 11.9455 20.8711 11.9768L21.4732 12.3242C21.527 12.3548 21.5703 12.3302 21.5703 12.2682ZM21.4732 11.4457C21.5076 11.4652 21.5352 11.5137 21.5352 11.5533V12.248C21.5352 12.2876 21.5076 12.3033 21.4732 12.2839L20.8711 11.9365C20.8368 11.9171 20.8091 11.8685 20.8091 11.8289V11.1343C20.8091 11.0947 20.8368 11.079 20.8711 11.0984L21.4732 11.4457Z" fill="white"/>
<path d="M22.4375 12.7662V12.0715C22.4375 12.0095 22.3942 11.9348 22.3404 11.9035L21.7383 11.5561C21.6845 11.5255 21.6412 11.5501 21.6412 11.6121V12.3068C21.6412 12.3688 21.6845 12.4435 21.7383 12.4749L22.3404 12.8222C22.3942 12.8529 22.4375 12.8282 22.4375 12.7662ZM22.3404 11.9438C22.3748 11.9632 22.4024 12.0118 22.4024 12.0514V12.7461C22.4024 12.7856 22.3748 12.8013 22.3404 12.7819L21.7383 12.4346C21.704 12.4151 21.6763 12.3666 21.6763 12.327V11.6323C21.6763 11.5927 21.704 11.577 21.7383 11.5964L22.3404 11.9438Z" fill="white"/>
<path d="M22.1946 12.2283V12.0154L21.9764 11.8899L21.9682 11.9325L22.0078 11.9452L22.0138 12.0146L22.0549 12.0296L22.019 12.123V12.0341H21.9929L21.9809 11.9683L21.9518 11.9661L21.9301 11.8623L21.892 11.8398V12.0527C21.892 12.1379 21.9518 12.2425 22.0257 12.285V12.415L21.9421 12.3665C21.9294 12.359 21.9189 12.365 21.9189 12.3799V12.3934L22.1684 12.5375V12.5241C22.1684 12.5091 22.158 12.4912 22.1453 12.4837L22.0616 12.4352V12.3052C22.1356 12.3478 22.1953 12.3134 22.1953 12.2275L22.1946 12.2283Z" fill="white"/>
<path d="M20.6016 11.5813L20.0256 11.2489V11.3296L20.6016 11.662V11.5813ZM20.2385 10.974V11.2833L20.134 11.2228V10.9135L20.0757 10.8799L20.1862 10.8164L20.2968 11.0076L20.2385 10.974ZM20.5508 11.154L20.4402 10.9628L20.3297 11.0263L20.3879 11.0599V11.3692L20.4925 11.4297V11.1204L20.5508 11.154Z" fill="white"/>
<path d="M21.3398 11.7603L21.1904 11.7739V11.5741L21.3398 11.5605V11.7603Z" fill="white"/>
<path d="M21.168 11.7646L21.0186 11.5785V11.3789L21.168 11.565V11.7646Z" fill="white"/>
<path d="M21.1753 11.5565L21.0263 11.3709L21.1753 11.3574L21.3242 11.5431L21.1753 11.5565Z" fill="white"/>
<path d="M20.9911 11.5943C20.9911 11.5943 20.9866 11.5883 20.9843 11.5868C20.9843 11.5868 20.9791 11.5823 20.9769 11.5808C20.9769 11.5808 20.9716 11.5771 20.9694 11.5763C20.9627 11.5733 20.9559 11.5733 20.9507 11.5763C20.938 11.5838 20.938 11.6077 20.9507 11.6294L20.9978 11.7115C21 11.7153 21 11.7197 20.9978 11.7212C20.9955 11.7227 20.9918 11.7205 20.9896 11.7168L20.9425 11.6346C20.9343 11.6204 20.9298 11.6047 20.9298 11.5913C20.9298 11.5778 20.9343 11.5674 20.9425 11.5629C20.95 11.5584 20.9589 11.5591 20.9694 11.5636V11.3844C20.941 11.3306 20.9044 11.3321 20.9044 11.3649V11.5965L21.0127 11.784V11.9282L21.1367 11.9999V11.8378L20.9963 11.6032C20.9963 11.6032 20.9926 11.5972 20.9903 11.595L20.9911 11.5943Z" fill="white"/>
<path d="M21.3626 11.8094C21.3626 11.8094 21.3678 11.8094 21.3693 11.8094C21.3693 11.8094 21.3745 11.8109 21.3768 11.8117C21.3768 11.8117 21.382 11.8146 21.3842 11.8161C21.391 11.8214 21.3977 11.8281 21.4029 11.8371C21.4156 11.8587 21.4156 11.8826 21.4029 11.8901L21.3558 11.917C21.3558 11.917 21.3536 11.923 21.3558 11.9267C21.3581 11.9304 21.3618 11.9327 21.3641 11.9312L21.4111 11.9035C21.4193 11.8991 21.4238 11.8886 21.4238 11.8752C21.4238 11.8617 21.4193 11.846 21.4111 11.8318C21.4037 11.8191 21.3947 11.8087 21.3842 11.802V11.6227C21.4126 11.6018 21.4492 11.6451 21.4492 11.678V11.9095L21.3409 11.9723V12.1164L21.2169 12.0447V11.8826L21.3573 11.8102C21.3573 11.8102 21.3611 11.8087 21.3633 11.8079L21.3626 11.8094Z" fill="white"/>
<path fill-rule="evenodd" clip-rule="evenodd" d="M8.83186 21.8661C9.62388 21.4706 10.9101 21.4706 11.7022 21.8661C12.4942 22.2626 12.4942 22.9057 11.7022 23.3013C10.9101 23.6978 9.62388 23.6978 8.83186 23.3013C8.03984 22.9057 8.03984 22.2626 8.83186 21.8661ZM7.22808 3.45497C7.26755 3.09349 7.56355 2.73829 8.11428 2.46292C9.30277 1.86913 11.2313 1.86913 12.4197 2.46292C12.9714 2.73829 13.2665 3.09349 13.3059 3.45497L13.793 7.27695C13.8073 7.33974 13.8163 7.40343 13.8172 7.46711C13.8271 7.92815 13.48 8.39009 12.7776 8.7417C11.3918 9.43506 9.14042 9.43506 7.7546 8.7417C7.05227 8.39099 6.70604 7.92815 6.71501 7.46801V7.46621C6.71681 7.40343 6.72488 7.34154 6.73923 7.27964L7.22808 3.45497Z" fill="white"/>
<path fill-rule="evenodd" clip-rule="evenodd" d="M10.2827 5.06155C11.0586 5.06065 11.8345 4.91176 12.4265 4.61576C13.0633 4.29733 13.3593 3.87217 13.3127 3.45508L13.7997 7.27706C13.8141 7.33985 13.8231 7.40353 13.8239 7.46722C13.8338 7.92826 13.4867 8.3902 12.7844 8.74181C12.091 9.08804 11.1824 9.26116 10.2728 9.26116V22.7345L9.91406 22.5551V9.25308C10.0334 9.25936 10.1536 9.26205 10.2728 9.26205V5.06155C10.1536 5.06155 10.0334 5.05796 9.91406 5.05079V3.71879L10.2728 3.89818V5.06155H10.2818H10.2827Z" fill="#4760FF"/>
<path fill-rule="evenodd" clip-rule="evenodd" d="M7.14509 3.44473C7.18814 3.05993 7.49491 2.67513 8.08063 2.38182C9.29064 1.77637 11.2559 1.77637 12.4659 2.38182C13.0507 2.67424 13.3575 3.05814 13.4014 3.44294C13.4014 3.44294 13.8885 7.26044 13.8885 7.25954C13.9046 7.32771 13.9127 7.39588 13.9145 7.46405C13.9244 7.9511 13.5683 8.44892 12.8256 8.82027C12.2354 9.11537 11.4918 9.28669 10.7222 9.33423V21.5043C11.0989 21.5456 11.4568 21.6388 11.7492 21.7851C12.1852 22.003 12.3933 22.2972 12.3933 22.5825V22.9134C12.3933 23.1996 12.1852 23.4938 11.7492 23.7108C10.9348 24.1181 9.61265 24.1181 8.7991 23.7108C8.36317 23.4929 8.15507 23.1987 8.15507 22.9134V22.5825C8.15507 22.2963 8.36317 22.003 8.7991 21.7851C9.09151 21.6388 9.4494 21.5456 9.82613 21.5043V9.33602C9.05743 9.28848 8.31294 9.11716 7.72274 8.82206C6.98184 8.45161 6.62574 7.95649 6.63292 7.47033C6.63292 7.46764 6.63292 7.46405 6.63292 7.46046C6.63471 7.39409 6.64279 7.32861 6.65803 7.26223L7.14598 3.44384V3.44563L7.14509 3.44473ZM9.82523 21.6819C9.4781 21.7223 9.14892 21.8102 8.87893 21.9447C8.52283 22.1232 8.33447 22.3483 8.33447 22.5816C8.33447 22.8148 8.52283 23.0408 8.87893 23.2193C9.64853 23.6041 10.8989 23.6041 11.6694 23.2193C12.0255 23.0408 12.2139 22.8157 12.2139 22.5816C12.2139 22.3475 12.0255 22.1223 11.6694 21.9447C11.3994 21.8093 11.0693 21.7223 10.7231 21.6819V22.5546C10.7231 22.5887 10.7043 22.6201 10.6738 22.6345L10.315 22.8139C10.2899 22.8264 10.2594 22.8264 10.2342 22.8139L9.87546 22.6345C9.84496 22.6192 9.82613 22.5878 9.82613 22.5546V21.6819H9.82523ZM10.184 9.35037V22.5896L10.0046 22.4999V9.34589C10.0647 9.34858 10.1239 9.34948 10.184 9.35037ZM7.25811 3.98112L6.83563 7.29004C6.83563 7.29004 6.83474 7.29632 6.83384 7.29901C6.82039 7.35462 6.81321 7.41113 6.81231 7.46764V7.46943C6.80334 7.90356 7.1406 8.33052 7.80257 8.6615C8.39098 8.95571 9.13726 9.12344 9.90596 9.16381C9.91044 9.16381 9.91493 9.16381 9.92031 9.16381C10.0378 9.17008 10.1562 9.17277 10.2746 9.17277C10.393 9.17277 10.5114 9.17008 10.6289 9.16381C10.6334 9.16381 10.6379 9.16381 10.6433 9.16381C11.4111 9.12344 12.1582 8.95571 12.7467 8.6615C13.4086 8.33052 13.7459 7.90356 13.736 7.46943C13.7369 7.51787 13.7369 7.51787 13.736 7.46943C13.7351 7.41203 13.7279 7.35462 13.7145 7.29811C13.7145 7.29542 13.7136 7.29183 13.7127 7.28914L13.2911 3.98202C13.2265 4.10042 13.135 4.21613 13.0175 4.32645C12.7888 4.53993 12.5063 4.69242 12.2174 4.80902C11.7214 5.00815 11.1859 5.10592 10.654 5.13821C10.5365 5.16332 10.3957 5.15077 10.2755 5.15077C10.1553 5.15077 10.0154 5.16332 9.89699 5.13821C9.09779 5.08977 8.15956 4.89872 7.54603 4.33722C7.42135 4.2233 7.32628 4.104 7.2599 3.98112H7.25811ZM13.9145 7.46584C13.9145 7.49006 13.9145 7.49006 13.9145 7.46584V7.46584ZM6.63292 7.47033C6.63292 7.48289 6.63292 7.4784 6.63292 7.46584V7.47033ZM10.0046 4.96509V3.86362L10.184 3.95331V4.97048C10.1239 4.96958 10.0647 4.96779 10.0046 4.96509ZM13.2238 3.46626C13.188 3.1281 12.9036 2.80161 12.3861 2.54328C11.22 1.96025 9.32741 1.96025 8.16135 2.54328C7.6447 2.80161 7.36036 3.12721 7.32358 3.46447C7.23837 4.20357 8.24029 4.62066 8.80538 4.78032C9.13726 4.8745 9.48079 4.93011 9.82523 4.95613C9.82523 4.54173 9.81536 4.12553 9.82523 3.71113C9.82972 3.68064 9.84496 3.65193 9.87456 3.63848L10.2334 3.45908C10.2585 3.44653 10.2881 3.44653 10.3132 3.45908L10.672 3.63848C10.7177 3.6618 10.7213 3.70575 10.7213 3.7506C10.7222 3.88156 10.7213 4.01251 10.7213 4.14347V4.95523C11.4102 4.9032 12.1484 4.74444 12.7206 4.33542C13.0005 4.1354 13.2624 3.83133 13.2229 3.46447C13.2229 3.46447 13.2229 3.46536 13.2229 3.46626H13.2238ZM10.4316 3.71831L10.2737 3.79724L10.1158 3.71831L10.2737 3.63937L10.4316 3.71831Z" fill="#4760FF"/>
<path fill-rule="evenodd" clip-rule="evenodd" d="M18.1407 26.2255C18.0417 26.1628 17.9814 26.0463 17.9814 25.8847C17.9814 25.5343 18.2652 25.1087 18.6155 24.9336C18.7906 24.8464 18.9491 24.8377 19.0641 24.8955L19.6981 25.2126L18.8017 26.5575L18.1407 26.227V26.2255H18.1415H18.1407ZM11.1663 26.2255C11.0672 26.1628 11.007 26.0463 11.007 25.8847C11.007 25.5343 11.2907 25.1087 11.641 24.9336C11.8162 24.8464 11.9747 24.8377 12.0896 24.8955L12.7236 25.2126L11.8273 26.5575L11.1663 26.227V26.2255H11.1671H11.1663ZM15.4453 22.3974L12.2751 20.8123L11.641 21.1293L14.8112 22.7144L11.641 24.2995L12.2751 24.6166L15.4453 23.0315L18.6155 24.6166L19.2495 24.2995L16.0793 22.7144L19.2495 21.1293L18.6155 20.8123L15.4453 22.3974ZM18.1407 23.0552C18.0417 22.9926 17.9814 22.8761 17.9814 22.7144C17.9814 22.3641 18.2652 21.9385 18.6155 21.7634C18.7906 21.6762 18.9491 21.6675 19.0641 21.7253L19.6981 22.0424L18.8017 23.3873L18.1407 23.0568V23.0552H18.1415H18.1407ZM11.1663 22.7382C11.0672 22.6756 11.007 22.5591 11.007 22.3974C11.007 22.0471 11.2907 21.6215 11.641 21.4464C11.8162 21.3592 11.9747 21.3505 12.0896 21.4083L12.7236 21.7253L11.8273 23.0703L11.1663 22.7398V22.7382H11.1671H11.1663ZM17.6644 17.1666L14.4942 15.5815L10.0559 17.8006V18.4347L13.8602 20.3368H15.1283L19.5665 18.1176L18.6155 17.6421L19.8836 17.0081L18.9325 16.5325L17.6644 17.1666ZM12.5921 13.3623L9.42188 14.9474L10.3729 15.423L13.5431 13.8379L12.5921 13.3623ZM16.0793 7.81445L15.1283 8.28998L18.9325 10.1921L19.8836 9.71658L16.0793 7.81445Z" fill="white"/>
<path fill-rule="evenodd" clip-rule="evenodd" d="M18.1407 26.2245C18.0417 26.1619 17.9814 26.0454 17.9814 25.8837C17.9814 25.7086 18.0528 25.5144 18.1669 25.3424L19.2495 25.8837L18.8009 26.5558L18.14 26.2253V26.2237H18.1407V26.2245ZM11.1663 26.2245C11.0672 26.1619 11.007 26.0454 11.007 25.8837C11.007 25.7086 11.0783 25.5144 11.1924 25.3424L12.2751 25.8837L11.8265 26.5558L11.1663 26.2237V26.2245ZM13.8602 21.2869L10.0559 19.3848V18.4337L13.8602 20.3359H15.1283V20.6529L16.1174 20.7924V22.7135C16.1174 22.7999 16.0516 22.8855 15.9208 22.9513C15.7988 23.0123 15.6418 23.0448 15.4825 23.0488L18.6155 24.6156V25.2497L15.3129 23.5988V23.0432C15.1869 23.0305 15.0672 23.0004 14.9697 22.9513C14.8477 22.8903 14.7827 22.8118 14.774 22.7317L14.1772 23.0305L11.641 21.7625V21.1284L14.7732 22.6945V21.2869H13.8602ZM12.2751 24.6156L11.641 24.2986V24.9327L12.2751 25.2497V24.6156ZM18.1407 23.0543C18.0417 22.9917 17.9814 22.8752 17.9814 22.7135C17.9814 22.5384 18.0528 22.3442 18.1669 22.1722L19.2495 22.7135L18.8009 23.3856L18.14 23.0551V23.0535H18.1407V23.0543ZM11.1663 22.7373C11.0672 22.6747 11.007 22.5582 11.007 22.3965C11.007 22.2213 11.0783 22.0272 11.1924 21.8552L12.2751 22.3965L11.8265 23.0686L11.1655 22.7381V22.7365H11.1663V22.7373ZM18.2985 18.1167L17.9814 18.2752V19.8603L17.3474 20.1774L17.6644 20.3359L18.2985 20.0188V18.1167ZM16.7134 18.5922L15.7623 18.1167V18.4337L16.7134 18.9093V18.5922ZM19.5665 17.4827L18.9325 17.7997L19.5665 18.1167V17.4827ZM19.5665 11.1423L20.5176 10.6667L19.8836 9.71566L18.9325 10.1912L15.1283 8.28906L14.4942 8.60608V15.5805L17.6644 17.1657L18.9325 16.5316L19.5665 16.8486V11.1423ZM11.958 14.9465L11.641 15.105V17.0071L11.958 16.8486V14.9465ZM10.3729 15.422L9.42188 14.9465V15.2635L10.3729 15.7391V15.422Z" fill="white"/>
<path fill-rule="evenodd" clip-rule="evenodd" d="M14.4636 8.5372L16.0487 7.74465C16.0709 7.73355 16.097 7.73355 16.1192 7.74465L19.9227 9.64598C19.9663 9.66738 19.9964 9.73713 20.021 9.77358L20.2231 10.0771C20.3419 10.2555 20.4759 10.4298 20.5821 10.6161C20.5916 10.6327 20.6003 10.647 20.6011 10.6676V18.5939C20.6011 18.624 20.5845 18.651 20.5575 18.6652L19.016 19.4356V19.7035C19.016 19.7336 18.9994 19.7605 18.9724 19.7748L17.7043 20.4088C17.6821 20.4199 17.656 20.4199 17.6338 20.4088L17.3524 20.2678L16.2017 20.8432V21.9337L18.5849 20.7425C18.607 20.7314 18.6332 20.7314 18.6554 20.7425L19.2894 21.0595C19.3164 21.073 19.333 21.1007 19.333 21.1301V21.7641C19.333 21.7641 19.333 21.7681 19.333 21.7697L19.7372 21.9718C19.8759 22.0407 19.9671 22.1865 19.9671 22.3982C19.9671 22.7738 19.6643 23.2327 19.2894 23.4205C19.0873 23.522 18.9035 23.5252 18.7703 23.4586L18.1093 23.1281L18.1038 23.1233C17.9841 23.048 17.9072 22.9094 17.9072 22.716C17.9072 22.651 17.9159 22.5828 17.9326 22.5147L16.8951 23.033L19.2894 24.2305C19.3164 24.244 19.333 24.2717 19.333 24.3011V24.9351C19.333 24.9351 19.333 24.9391 19.333 24.9407L19.7372 25.1428C19.8759 25.2117 19.9671 25.3575 19.9671 25.5692C19.9671 25.9448 19.6643 26.4037 19.2894 26.5908C19.0873 26.6922 18.9035 26.6954 18.7703 26.6288L18.1093 26.2983L18.1038 26.2936C17.9841 26.2183 17.9072 26.0796 17.9072 25.8862C17.9072 25.6421 18.034 25.3615 18.2274 25.1444L15.4503 23.7558L12.72 25.1214L12.7636 25.1436C12.9023 25.2125 12.9934 25.3583 12.9934 25.57C12.9934 25.9456 12.6906 26.4045 12.3158 26.5916C12.1137 26.693 11.9298 26.6962 11.7966 26.6296L11.1357 26.2991L11.1301 26.2943C11.0104 26.2191 10.9336 26.0804 10.9336 25.887C10.9336 25.5264 11.2125 25.0889 11.5676 24.8884V24.3019C11.5676 24.2718 11.585 24.244 11.6112 24.2313L14.0055 23.0338L12.8983 22.4798C12.7802 22.7382 12.5638 22.9799 12.3158 23.1043C12.1137 23.2058 11.9298 23.2089 11.7966 23.1424L11.1357 22.8119L11.1301 22.8071C11.0104 22.7318 10.9336 22.5931 10.9336 22.3997C10.9336 22.0391 11.2125 21.6016 11.5676 21.4011V21.1317C11.5676 21.1015 11.585 21.0738 11.6112 21.0611L12.2452 20.7441C12.2674 20.733 12.2936 20.733 12.3158 20.7441L14.699 21.9353V21.3694H13.8628C13.8501 21.3694 13.8391 21.3655 13.8287 21.3607L10.0261 19.4594C9.99913 19.4459 9.98249 19.4182 9.98249 19.3888V17.8037C9.98249 17.7736 9.99913 17.7467 10.0261 17.7332L11.5676 16.9628V15.2382L10.4144 15.8152C10.3922 15.8263 10.3661 15.8263 10.3439 15.8152L9.39125 15.3357C9.3643 15.3222 9.34766 15.2945 9.34766 15.2644V14.9474C9.34766 14.9173 9.36509 14.8903 9.39125 14.8768L12.5615 13.2917C12.5836 13.2806 12.6098 13.2806 12.632 13.2917L13.5831 13.7673C13.61 13.7807 13.6266 13.8085 13.6266 13.8378V14.1548C13.6266 14.1849 13.61 14.2119 13.5831 14.2261L12.6756 14.6795V16.4041L14.4192 15.5323V8.60774C14.4192 8.57762 14.4358 8.54988 14.4628 8.5372H14.4636ZM12.1152 25.2577C11.9393 25.1697 11.6469 25.0239 11.6469 25.0239C11.3385 25.1959 11.0913 25.5731 11.0913 25.8862C11.0913 26.0146 11.1349 26.1097 11.2133 26.1596C11.2157 26.1612 11.2173 26.162 11.2197 26.1636L11.5819 26.3451C11.5716 26.3015 11.566 26.2539 11.566 26.2032C11.566 25.8719 11.8014 25.4756 12.1145 25.2585L12.1152 25.2577ZM19.3528 25.1269L19.1999 25.0508L18.6562 25.3227H18.6538L18.6514 25.3251H18.6491L18.6467 25.3266H18.6443L18.6419 25.3282H18.6372L18.6348 25.3298H18.6023L18.5999 25.3282H18.5975L18.5952 25.3266H18.5928L18.5904 25.3251H18.588L18.5856 25.3227L18.3756 25.2173C18.1925 25.4083 18.0665 25.6627 18.0665 25.8854C18.0665 26.0138 18.1101 26.1089 18.1886 26.1588C18.191 26.1604 18.1925 26.1612 18.1949 26.1628L18.5571 26.3443C18.5468 26.3007 18.5413 26.2531 18.5413 26.2024C18.5413 25.8267 18.844 25.3679 19.2189 25.1808C19.2641 25.1578 19.3092 25.1404 19.3528 25.1269ZM11.7253 24.886L12.2008 25.1237V24.6672L11.9726 24.5531L11.7253 24.4295V24.886ZM17.6869 24.24L18.5413 24.6672V25.1237L18.4636 25.0849L15.5296 23.6179V23.1614L17.6869 24.24ZM14.7346 22.8459L11.8236 24.3011L12.2801 24.5293L15.1452 23.0964C15.0707 23.079 15.0009 23.0552 14.9391 23.0243C14.8385 22.9735 14.7711 22.9109 14.7338 22.8452L14.7346 22.8459ZM16.1668 22.8459C16.1295 22.9117 16.063 22.9743 15.9615 23.0251C15.9005 23.056 15.8307 23.0798 15.7562 23.0972L18.6213 24.5293L19.0778 24.3011L16.1668 22.8459ZM19.3528 21.9575L19.1999 21.8814L18.1323 22.4148C18.0903 22.5162 18.0657 22.6193 18.0657 22.716C18.0657 22.8444 18.1093 22.9395 18.1878 22.9894C18.1902 22.991 18.1918 22.9918 18.1941 22.9934L18.5563 23.1749C18.546 23.1313 18.5405 23.0845 18.5405 23.033C18.5405 22.6573 18.8432 22.1984 19.2181 22.0114C19.2633 21.9884 19.3085 21.971 19.352 21.9575H19.3528ZM15.3711 22.972V21.2601L15.1705 21.3607C15.1602 21.3663 15.1491 21.3694 15.1373 21.3694H14.8575V22.7168C14.8575 22.7802 14.9145 22.8356 15.0104 22.884C15.1119 22.9347 15.2395 22.964 15.3711 22.9728V22.972ZM11.7253 21.4487V21.7166L12.4743 22.0906L14.1822 22.945L14.6387 22.7168L12.926 21.86L11.7253 21.2601V21.4487ZM11.5668 21.5882V21.7657C11.5668 21.7808 11.5716 21.7958 11.5795 21.8085V21.8101H11.5811V21.8125L11.5827 21.814L11.5842 21.8156C11.5842 21.8156 11.5874 21.8196 11.589 21.8212C11.589 21.8212 11.5945 21.8267 11.5969 21.8291C11.6009 21.8323 11.6056 21.8347 11.6096 21.837L11.887 21.9757C11.6936 22.1929 11.566 22.4727 11.566 22.7176C11.566 22.7691 11.5716 22.8158 11.5819 22.8594L11.2197 22.6779C11.2197 22.6779 11.2157 22.6748 11.2133 22.674C11.1341 22.624 11.0913 22.5289 11.0913 22.4005C11.0913 22.1152 11.2965 21.7768 11.5668 21.589V21.5882ZM11.8236 21.1317L14.699 22.5693V22.1128L12.2801 20.9034L11.8236 21.1317ZM16.2024 22.1128L18.6213 20.9034L19.0778 21.1317L16.2024 22.5693V22.1128ZM13.9453 21.2109H15.0548V20.4184H13.9453V21.2109ZM10.1402 18.5638L13.786 20.3867V21.1602L10.1402 19.3373V18.5638ZM17.4919 17.1673L14.4992 15.671L12.6328 16.6046L11.6817 17.0801L10.1402 17.8505V18.3863L13.8842 20.2583H15.1151L17.908 18.8618V18.4053L16.7549 18.9823C16.7327 18.9933 16.7065 18.9933 16.6843 18.9823L15.7333 18.5067C15.7063 18.4932 15.6897 18.4655 15.6897 18.4362V18.1192C15.6897 18.089 15.7071 18.0613 15.7333 18.0486L17.4935 17.1681L17.4919 17.1673ZM18.141 18.288L18.0649 18.326V19.8747L18.0634 19.8763V19.8818L18.0618 19.8834V19.8858L18.0602 19.8874V19.8897L18.0586 19.8913V19.8937L18.057 19.8953V19.8977H18.0562V19.9L18.0546 19.9016V19.904H18.0531V19.9064H18.0515V19.9087H18.0499V19.9111H18.0483V19.9135H18.0467V19.9159H18.0451V19.9183H18.0435V19.9198H18.0412V19.9214H18.0396V19.923H18.0372V19.9246H18.0348V19.9262H18.0324V19.9278H18.0301V19.9294H18.0277L18.0261 19.9309H18.0253L18.0237 19.9325H18.0229L18.0214 19.9341H18.0198L17.5276 20.1806L17.6671 20.2503L18.2219 19.9729V18.2484L18.1394 18.2896L18.141 18.288ZM16.6383 18.7825V18.643L15.8458 18.2468V18.3863L16.6383 18.7825ZM17.7043 17.2378L15.9441 18.1176L16.7176 18.5043L19.7103 17.008L18.9367 16.6212L17.7043 17.2378ZM19.016 18.0621V18.307L19.3933 18.1184L19.016 17.9297V18.0629V18.0621ZM19.1143 17.8014L19.4915 17.99V17.6127L19.1143 17.8014ZM19.2316 10.7777L19.4915 11.1677V16.7219L18.9724 16.4619C18.9502 16.4508 18.9241 16.4508 18.9019 16.4619L17.6695 17.0785L14.5785 15.5331V8.65688L15.1333 8.37948L18.8829 10.2547L19.2324 10.7785L19.2316 10.7777ZM11.7253 15.1558V16.8804L11.8838 16.8011V15.0766L11.7253 15.1558ZM10.2987 15.4728V15.6123L9.50617 15.216V15.0766L10.2987 15.4728ZM9.60444 14.9482L10.378 15.3349L13.3707 13.8386L12.5971 13.4518L9.60444 14.9482ZM19.0533 10.2238L19.5985 11.0417L20.4069 10.6375L19.8617 9.81955L19.0533 10.2238ZM19.7111 9.71731L18.9375 10.1041L15.3108 8.29072L16.0844 7.90395L19.7111 9.71731Z" fill="#4760FF"/>
<path fill-rule="evenodd" clip-rule="evenodd" d="M29.6466 21.318L31.1993 22.0943L26.0237 24.6821V23.1294L24.9886 23.647L21.8833 22.0943L29.1291 18.4715L32.2344 20.0241L29.6466 21.318ZM20.3307 16.9188L22.9184 18.2127L21.8833 18.7302L19.8131 17.6951V17.1886L20.3307 16.9188ZM26.5413 14.8486L21.6246 17.307L20.5248 16.7571L25.7003 14.1693L26.0237 14.331L26.5413 14.0723H27.0589L29.1291 15.1074L28.094 15.6249L26.5413 14.8486Z" fill="white"/>
<path fill-rule="evenodd" clip-rule="evenodd" d="M31.7168 24.9404V25.9755L31.1993 26.2343L30.9405 25.3286L25.765 27.9163L25.5062 29.0808L24.9886 29.3396V23.6465L26.0237 23.129V24.6816L31.1993 22.0939V20.5412L32.2344 20.0237V24.6816L31.7168 24.9404ZM27.0589 15.1069L28.094 15.6245L29.1291 15.1069V18.471L27.4781 19.2965L27.5764 20.2824L23.9535 22.0939L22.9184 21.5763L21.8833 22.0939V18.7298L22.9184 18.2122L21.8833 17.6947L21.6246 17.3065L26.8001 14.7188L27.0589 15.1069Z" fill="white"/>
<path fill-rule="evenodd" clip-rule="evenodd" d="M29.1638 15.0494C29.1858 15.061 29.1994 15.0824 29.1994 15.1076V18.4316L32.2691 19.9661C32.2911 19.9778 32.3047 19.9985 32.3047 20.0237V24.6823C32.3047 24.7069 32.2911 24.7296 32.2691 24.7399L31.7871 24.9806V25.9756C31.7871 26.0001 31.7735 26.0228 31.7516 26.0331L31.234 26.2919C31.2165 26.3003 31.1965 26.301 31.179 26.2932C31.1615 26.2854 31.148 26.2706 31.1428 26.2518L30.9054 25.4211L25.8269 27.9604L25.5746 29.0951C25.57 29.1139 25.5577 29.13 25.5403 29.1391L25.0227 29.3979C25.0046 29.4069 24.9826 29.4069 24.9645 29.3979L24.4469 29.1391C24.4295 29.1307 24.4172 29.1145 24.4127 29.0951L24.1604 27.9604L21.1521 26.4562L20.9147 27.2869C20.9095 27.3057 20.8959 27.3206 20.8784 27.3283C20.861 27.3361 20.8409 27.3354 20.8234 27.327L20.3059 27.0682C20.2839 27.0572 20.2703 27.0346 20.2703 27.0107V26.0157L19.7883 25.775C19.7663 25.764 19.7527 25.7414 19.7527 25.7174V17.1888C19.7527 17.1649 19.7663 17.1422 19.7877 17.1312L20.3052 16.8615C20.3234 16.8518 20.3453 16.8518 20.3641 16.8615L20.4644 16.9119V16.758C20.4644 16.7347 20.478 16.7094 20.5006 16.6997L25.6768 14.112C25.6949 14.1029 25.7162 14.1029 25.7344 14.112L26.0287 14.2595L26.5178 14.0149C26.5269 14.0104 26.5366 14.0078 26.5469 14.0078H27.0645C27.0748 14.0078 27.0845 14.0104 27.0936 14.0149L29.1638 15.05V15.0494ZM25.6037 28.0729L25.0596 28.3453V29.2355L25.4562 29.0375L25.6787 28.0361L25.6037 28.0736V28.0729ZM31.5187 24.069C31.5439 24.027 31.5284 23.9429 31.5284 23.8976V22.6121C31.5284 22.5681 31.5439 22.4866 31.5174 22.4465L31.2696 22.0745V20.5814L32.1753 20.1285V24.6416L25.059 28.1997V23.6867L25.9647 23.2338V26.638C25.9647 26.6781 25.9563 26.7286 25.9666 26.7681C25.9789 26.8159 26.0261 26.8224 26.0656 26.8062C26.1478 26.7719 26.2267 26.7254 26.3063 26.6859L27.56 26.059L29.2809 25.1986L30.8154 24.4313L31.3026 24.1881C31.364 24.1577 31.4339 24.1311 31.4915 24.0936C31.5018 24.0865 31.5115 24.0807 31.518 24.0697L31.5187 24.069ZM26.3528 25.1106V26.5183L31.399 23.9953V22.5875L31.0768 22.7486L26.3528 25.1106ZM31.6577 25.0459L31.0231 25.3636L31.2456 26.1425L31.6577 25.9367V25.0466V25.0459ZM26.1238 24.7076L31.0839 22.2272L31.1829 22.178L31.3692 22.4575L26.3101 24.987L26.1238 24.7076ZM28.9839 21.0569L31.06 22.0952L26.0941 24.5782V23.1303C26.0941 23.107 26.0798 23.0818 26.0585 23.0721L24.1041 22.0952L27.582 20.3562L28.9839 21.0575V21.0569ZM23.93 22.1528L25.0725 22.724L25.8845 23.1303L24.9943 23.5754L22.0339 22.0952L22.9241 21.6501L23.93 22.1534V22.1528ZM22.9525 18.1553L22.0332 17.696L23.4921 16.9663L27.0088 15.2079L27.5128 20.2456L23.9585 22.0228L22.9881 21.5376V18.2136C22.9881 18.1903 22.9745 18.1651 22.9525 18.1553ZM22.8587 18.3177V21.5369L21.953 21.9898V18.7706L21.995 18.7492L22.8587 18.3177ZM32.0951 20.0244L31.2049 20.4695L28.2445 18.9893L29.1347 18.5442L32.0951 20.0244ZM28.2063 15.6439L28.1643 15.6653V18.8844L29.07 18.4316V15.2124L28.2063 15.6439ZM20.5013 17.0737L21.8592 17.7523L22.7791 18.2123L21.8889 18.6574L19.8834 17.6546V17.227L20.3369 16.9909L20.5013 17.073V17.0737ZM26.8891 14.962L26.9694 15.083L21.9103 17.6126L21.724 17.3331L26.7837 14.8029L26.8898 14.962H26.8891ZM26.0003 14.3895L26.6608 14.7201L21.6302 17.2354L20.6753 16.758L25.7059 14.242L26.0003 14.3895ZM28.9898 15.1083L28.0996 15.5534L27.1085 15.0578L26.8594 14.6839V14.6826L26.8574 14.6813C26.851 14.6729 26.8432 14.6664 26.8342 14.6619L26.1743 14.3319L26.5624 14.1378H27.0496L28.9904 15.1083H28.9898Z" fill="#4760FF"/>
<path d="M0.398438 21.6895L20.0733 33.0422" stroke="#4760FF" stroke-width="0.341998"/>
<path d="M43.25 22.5898L24.5802 32.2623" stroke="#4760FF" stroke-width="0.341998"/>
</svg>
