<?xml version="1.0" encoding="iso-8859-1"?>
<!-- Generator: Adobe Illustrator 27.3.1, SVG Export Plug-In . SVG Version: 6.00 Build 0)  -->
<svg version="1.1" id="Capa_1" xmlns="http://www.w3.org/2000/svg" xmlns:xlink="http://www.w3.org/1999/xlink" x="0px" y="0px"
	 viewBox="0 0 34 33" style="enable-background:new 0 0 34 33;" xml:space="preserve">
<path style="fill:#4760FF;" d="M1.522,27.387l1.736-1.002l-0.641-0.089l0.392-0.226l0.637,0.092l0.363,0.209l-2.123,1.226
	L1.522,27.387z M4.949,29.366l0.967-0.559c0.109-0.063,0.167-0.128,0.174-0.194c0.008-0.067-0.034-0.127-0.127-0.181
	c-0.057-0.033-0.121-0.055-0.193-0.066c-0.071-0.011-0.145-0.01-0.223,0.004c-0.077,0.014-0.15,0.041-0.22,0.081l-0.065-0.145
	c0.109-0.064,0.231-0.106,0.364-0.125c0.136-0.019,0.27-0.018,0.404,0.005c0.134,0.023,0.254,0.065,0.36,0.126
	c0.176,0.102,0.258,0.21,0.245,0.325c-0.011,0.115-0.102,0.223-0.274,0.322l-1.057,0.611L4.949,29.366z M3.034,28.26l1.593-0.92
	l0.314,0.181l-0.494,0.285l0.044,0.026l-1.099,0.634L3.034,28.26z M3.994,28.815l0.963-0.556c0.111-0.064,0.171-0.13,0.178-0.197
	c0.008-0.067-0.035-0.127-0.128-0.181c-0.09-0.052-0.194-0.076-0.311-0.072c-0.116,0.004-0.224,0.035-0.323,0.093L4.32,27.748
	c0.103-0.06,0.222-0.098,0.355-0.117c0.134-0.018,0.267-0.016,0.401,0.007c0.136,0.023,0.258,0.065,0.366,0.128
	c0.119,0.069,0.193,0.141,0.221,0.216c0.03,0.075,0.022,0.15-0.027,0.223c-0.046,0.073-0.124,0.141-0.233,0.204l-1.056,0.61
	L3.994,28.815z"/>
<path style="fill:#4760FF;" d="M25.401,30.947l-1.708-1.048l-0.165,0.366l-0.386-0.237l0.169-0.363l0.368-0.2l2.09,1.282
	L25.401,30.947z M28.88,29.06l-0.952-0.584c-0.107-0.066-0.219-0.102-0.333-0.109c-0.116-0.008-0.221,0.014-0.314,0.065
	c-0.058,0.031-0.097,0.068-0.117,0.109c-0.021,0.04-0.019,0.083,0.004,0.129c0.022,0.045,0.068,0.088,0.137,0.13l-0.252,0.031
	c-0.109-0.066-0.18-0.138-0.211-0.216c-0.031-0.079-0.026-0.157,0.015-0.233c0.041-0.076,0.116-0.143,0.224-0.202
	c0.179-0.097,0.368-0.139,0.567-0.126c0.199,0.012,0.384,0.069,0.553,0.173l1.041,0.639L28.88,29.06z M26.935,30.114l-1.567-0.962
	l0.319-0.173l0.486,0.298l0.045-0.024l1.081,0.663L26.935,30.114z M27.91,29.586l-0.948-0.582c-0.109-0.067-0.222-0.104-0.338-0.112
	c-0.116-0.008-0.221,0.014-0.316,0.066c-0.092,0.05-0.135,0.109-0.13,0.176c0.006,0.067,0.058,0.131,0.156,0.191l-0.266,0.023
	c-0.102-0.062-0.167-0.132-0.197-0.21c-0.029-0.078-0.023-0.155,0.018-0.231c0.041-0.077,0.117-0.146,0.227-0.205
	c0.121-0.065,0.247-0.105,0.378-0.118c0.131-0.014,0.26-0.005,0.386,0.026c0.126,0.03,0.243,0.078,0.35,0.144l1.039,0.638
	L27.91,29.586z"/>
<path style="fill:none;stroke:#4760FF;stroke-width:0.342;" d="M2.321,23.327l12.857,7.619"/>
<path style="fill:none;stroke:#4760FF;stroke-width:0.342;" d="M30.335,23.846l-12.92,7.171"/>
<path style="fill:none;stroke:#4760FF;stroke-width:0.342;" d="M30.361,6.368l-0.026,14.777"/>
<path style="fill:#4760FF;" d="M33.295,15.355l-1.78,0.921l0.228,0.33l-0.402,0.208l-0.224-0.333l0.019-0.418l2.178-1.127
	L33.295,15.355z M33.477,11.401l-0.992,0.513c-0.112,0.058-0.201,0.134-0.266,0.229c-0.066,0.095-0.102,0.196-0.107,0.303
	c-0.003,0.066,0.008,0.118,0.033,0.156c0.024,0.039,0.061,0.06,0.112,0.063c0.05,0.004,0.111-0.012,0.182-0.05l-0.104,0.231
	c-0.113,0.06-0.211,0.083-0.294,0.069c-0.084-0.014-0.148-0.059-0.192-0.133c-0.044-0.075-0.063-0.173-0.057-0.296
	c0.009-0.203,0.071-0.387,0.185-0.55c0.113-0.165,0.258-0.293,0.434-0.384l1.084-0.561L33.477,11.401z M33.375,13.611l-1.633,0.845
	l0.017-0.362l0.507-0.262l0.002-0.051l1.127-0.583L33.375,13.611z M33.426,12.503l-0.988,0.511
	c-0.114,0.059-0.204,0.136-0.271,0.231c-0.066,0.095-0.102,0.197-0.107,0.304c-0.005,0.104,0.023,0.172,0.084,0.202
	c0.061,0.029,0.142,0.018,0.244-0.035l-0.117,0.24c-0.106,0.055-0.2,0.075-0.282,0.059c-0.082-0.015-0.145-0.06-0.189-0.135
	c-0.045-0.075-0.064-0.175-0.059-0.3c0.006-0.137,0.038-0.265,0.094-0.384c0.056-0.12,0.13-0.225,0.221-0.317
	c0.091-0.092,0.192-0.168,0.304-0.225l1.083-0.56L33.426,12.503z"/>
<g>
	<g>
		<path style="fill:#4760FF;" d="M10.525,23.39c-0.025,0.049-0.057,0.093-0.072,0.148c-0.106,0.41,0.136,0.831,0.541,0.94
			c0.318,0.085,0.636-0.052,0.811-0.312L10.525,23.39z"/>
		<path style="fill:none;stroke:#FFFFFF;stroke-width:0.1216;stroke-miterlimit:10;" d="M10.803,23.409
			c-0.039,0.075-0.067,0.157-0.064,0.248c0.008,0.282,0.239,0.505,0.517,0.498c0.174-0.004,0.317-0.103,0.403-0.241L10.803,23.409z"
			/>
	</g>
	<g id="XMLID_00000106836610904176175120000016249155415863016868_">

			<rect id="XMLID_00000141419500495858193530000005836763181423262093_" x="13.717" y="3.801" transform="matrix(-1 -1.224647e-16 1.224647e-16 -1 27.718 15.4084)" style="fill:none;stroke:#4760FF;stroke-width:0.1271;stroke-miterlimit:10;" width="0.285" height="7.807"/>
	</g>
	<g id="XMLID_00000008115669590705178510000007309371886277931160_">

			<rect id="XMLID_00000023248563870458500910000003786275866360928401_" x="11.534" y="5.134" transform="matrix(-1 -1.224647e-16 1.224647e-16 -1 23.3638 17.9801)" style="fill:none;stroke:#4760FF;stroke-width:0.1288;stroke-miterlimit:10;" width="0.296" height="7.712"/>
	</g>
	<g id="XMLID_00000101785513494756478290000012515395628440927669_">
		<g id="XMLID_00000052086517678316788080000017347595287714557345_">
			<path style="fill:#4760FF;" d="M13.876,3.879v0.385l-0.357-0.225V3.652c0-0.039-0.002-0.073-0.009-0.104
				C13.718,3.48,13.876,3.608,13.876,3.879z"/>
			<path style="fill:#4760FF;" d="M13.973,3.074l-0.002,0.002c-0.148-0.075-0.347-0.056-0.563,0.075l-0.88,0.53
				c-0.461,0.278-0.836,0.955-0.836,1.512v0.387l-0.357-0.227V4.968c0-0.556,0.375-1.236,0.836-1.514l0.88-0.527
				c0.218-0.133,0.417-0.15,0.567-0.073l0.005,0.002c0.016,0.007,0.032,0.017,0.046,0.029L13.973,3.074z"/>
		</g>
		<g id="XMLID_00000182522439687787783080000003628162178014945420_">
			<g id="XMLID_00000173153930910294640780000009882879039910102938_">
				<path id="XMLID_00000133519719114842338050000016465356279657072771_" style="fill:#4760FF;" d="M11.691,5.579l0.369-0.222V4.97
					c0-0.311,0.21-0.69,0.467-0.846l0.881-0.528c0.258-0.155,0.467-0.029,0.467,0.282v0.386l0.369-0.222V3.656
					c0-0.556-0.375-0.782-0.836-0.504L12.528,3.68c-0.461,0.278-0.837,0.957-0.837,1.513V5.579z"/>
			</g>
		</g>
	</g>
	<g id="XMLID_00000029730083042064784920000015361538099681015211_">

			<path id="XMLID_00000040535252205509618500000013911532622179154067_" style="fill:#FFFFFF;stroke:#4760FF;stroke-width:0.2561;stroke-miterlimit:10;" d="
			M10.745,13.433l4.271-2.457c0.284-0.163,0.632-0.166,0.919-0.007l2.193,1.217l-2.236,5.234v1.954c0,0.419-0.252,0.906-0.563,1.087
			l-0.979,0.571l-1.533,3.588l-2.424-1.45c-0.009-0.005-0.018-0.01-0.027-0.016l0,0l0,0c-0.112-0.073-0.183-0.23-0.183-0.452v-8.183
			C10.181,14.101,10.433,13.614,10.745,13.433z"/>
	</g>
	<g id="XMLID_00000060723958759060331710000017953681697633552058_">
		<path id="XMLID_00000124163036536693329420000001784618984574501526_" style="fill:#4760FF;" d="M14.202,24.489l3.931-2.269
			c0.267-0.154,0.483-0.568,0.483-0.923v-6.953c0-0.356-0.216-0.519-0.483-0.365l-3.931,2.269c-0.267,0.154-0.483,0.568-0.483,0.923
			v6.953C13.718,24.48,13.935,24.643,14.202,24.489z"/>
	</g>
	<g id="XMLID_00000136410673232603814160000010627435159401045435_">
		<polygon style="fill:#FFFFFF;" points="15.029,17.445 15.029,17.786 17.993,16.097 17.993,15.756 		"/>
	</g>
	<g>
		<path style="fill:#4760FF;" d="M11.524,23.014c-0.047,0-0.085-0.038-0.085-0.085v-7.044c0-0.897,0.489-1.723,1.276-2.154
			l4.028-2.208c0.041-0.022,0.092-0.007,0.115,0.034c0.022,0.041,0.007,0.092-0.034,0.115l-4.028,2.208
			c-0.733,0.402-1.188,1.17-1.188,2.006v7.044C11.609,22.976,11.571,23.014,11.524,23.014z"/>
	</g>
	<path style="fill:#4760FF;stroke:#FFFFFF;stroke-width:0.2588;stroke-miterlimit:10;" d="M18.69,14.21l-0.01,0.015
		c-0.043-0.271-0.237-0.382-0.474-0.247l-3.93,2.271c-0.266,0.152-0.484,0.566-0.484,0.921v6.953c0,0.327,0.184,0.493,0.421,0.394
		c-0.012,0.012-0.027,0.022-0.041,0.029c-0.515,0.252-1.231,0.135-1.333,0.114c-0.179-0.024-0.3-0.208-0.3-0.498v-8.23
		c0-0.421,0.256-0.909,0.571-1.091l4.653-2.687c0.213-0.123,0.399-0.075,0.498,0.099c0.015,0.027,0.027,0.053,0.036,0.085
		C18.513,12.875,18.69,14.21,18.69,14.21z"/>
	<g id="XMLID_00000091716127816268896110000008291596943423166084_">
		<polygon style="fill:#FFFFFF;" points="15.029,18.46 15.029,18.801 17.993,17.112 17.993,16.771 		"/>
	</g>
	<g id="XMLID_00000015323634022906608510000002407672315851448478_">
		<polygon style="fill:#FFFFFF;" points="15.029,19.475 15.029,19.816 17.993,18.127 17.993,17.786 		"/>
	</g>
</g>
<g>
	<g>
		<path style="fill:#4760FF;" d="M15.923,25.508c-0.025,0.049-0.057,0.093-0.072,0.148c-0.106,0.41,0.136,0.831,0.541,0.94
			c0.318,0.085,0.636-0.052,0.811-0.312L15.923,25.508z"/>
		<path style="fill:none;stroke:#FFFFFF;stroke-width:0.1216;stroke-miterlimit:10;" d="M16.201,25.527
			c-0.039,0.075-0.067,0.157-0.064,0.248c0.008,0.282,0.239,0.505,0.517,0.498c0.174-0.004,0.317-0.103,0.403-0.241L16.201,25.527z"
			/>
	</g>
	<g id="XMLID_00000066509441962132421440000003112989471791804831_">

			<rect id="XMLID_00000173848939189410566820000016874759214181737404_" x="19.115" y="5.919" transform="matrix(-1 -1.224647e-16 1.224647e-16 -1 38.5143 19.6451)" style="fill:none;stroke:#4760FF;stroke-width:0.1271;stroke-miterlimit:10;" width="0.285" height="7.807"/>
	</g>
	<g id="XMLID_00000065076027239974224840000017069620516890113672_">

			<rect id="XMLID_00000167393708053076289650000011306980644860310444_" x="16.932" y="7.252" transform="matrix(-1 -1.224647e-16 1.224647e-16 -1 34.16 22.2168)" style="fill:#FFFFFF;stroke:#4760FF;stroke-width:0.1288;stroke-miterlimit:10;" width="0.296" height="7.712"/>
	</g>
	<g id="XMLID_00000134954795077881804490000011632259142997357700_">
		<g id="XMLID_00000177477468026115295780000006664267504025185428_">
			<path style="fill:#4760FF;" d="M19.274,5.998v0.385l-0.357-0.225V5.77c0-0.039-0.002-0.073-0.009-0.104
				C19.117,5.599,19.274,5.727,19.274,5.998z"/>
			<path style="fill:#4760FF;" d="M19.371,5.192l-0.002,0.002c-0.148-0.075-0.347-0.056-0.563,0.075l-0.88,0.53
				c-0.461,0.278-0.836,0.955-0.836,1.512v0.387L16.733,7.47V7.086c0-0.556,0.375-1.236,0.836-1.514l0.88-0.527
				c0.218-0.133,0.417-0.15,0.567-0.073l0.005,0.002c0.016,0.007,0.032,0.017,0.046,0.029L19.371,5.192z"/>
		</g>
		<g id="XMLID_00000083785715125971490920000010084278052564960940_">
			<g id="XMLID_00000073686922441081802790000016366087500244502694_">
				<path id="XMLID_00000156583329498490435170000007256727264472469410_" style="fill:#4760FF;" d="M17.089,7.697l0.369-0.222
					V7.089c0-0.311,0.21-0.69,0.467-0.846l0.881-0.528c0.258-0.155,0.467-0.029,0.467,0.282v0.386l0.369-0.222V5.775
					c0-0.556-0.375-0.782-0.836-0.504l-0.881,0.528c-0.461,0.278-0.837,0.957-0.837,1.513V7.697z"/>
			</g>
		</g>
	</g>
	<g id="XMLID_00000144299335774507351940000010941435523895122313_">

			<path id="XMLID_00000173848105851480593080000012013515308585778862_" style="fill:#FFFFFF;stroke:#4760FF;stroke-width:0.2561;stroke-miterlimit:10;" d="
			M16.143,15.551l4.271-2.457c0.284-0.163,0.632-0.166,0.919-0.007l2.193,1.217l-2.236,5.234v1.954c0,0.419-0.252,0.906-0.563,1.087
			l-0.979,0.571l-1.533,3.588l-2.424-1.45c-0.009-0.005-0.018-0.01-0.027-0.016l0,0l0,0c-0.112-0.073-0.183-0.23-0.183-0.452v-8.183
			C15.579,16.219,15.832,15.732,16.143,15.551z"/>
	</g>
	<g id="XMLID_00000033370392249183834800000007003774979049410965_">
		<path id="XMLID_00000091003459586861203020000009717231275915295109_" style="fill:#4760FF;" d="M19.6,26.608l3.931-2.269
			c0.267-0.154,0.483-0.568,0.483-0.923v-6.953c0-0.356-0.216-0.519-0.483-0.365L19.6,18.366c-0.267,0.154-0.483,0.568-0.483,0.923
			v6.953C19.116,26.598,19.333,26.762,19.6,26.608z"/>
	</g>
	<g id="XMLID_00000135680291755616464210000012014988031417365917_">
		<polygon style="fill:#FFFFFF;" points="20.427,19.563 20.427,19.904 23.391,18.216 23.391,17.874 		"/>
	</g>
	<g>
		<path style="fill:#4760FF;" d="M16.922,25.133c-0.047,0-0.085-0.038-0.085-0.085v-7.044c0-0.897,0.489-1.723,1.276-2.154
			l4.028-2.208c0.041-0.022,0.092-0.007,0.115,0.034c0.022,0.041,0.007,0.092-0.034,0.115l-4.028,2.208
			c-0.733,0.402-1.188,1.17-1.188,2.006v7.044C17.007,25.095,16.969,25.133,16.922,25.133z"/>
	</g>
	<path style="fill:#4760FF;stroke:#FFFFFF;stroke-width:0.2588;stroke-miterlimit:10;" d="M24.088,16.329l-0.01,0.015
		c-0.043-0.271-0.237-0.382-0.474-0.247l-3.93,2.271c-0.266,0.152-0.484,0.566-0.484,0.921v6.953c0,0.327,0.184,0.493,0.421,0.394
		c-0.012,0.012-0.027,0.022-0.041,0.029c-0.515,0.252-1.231,0.135-1.333,0.114c-0.179-0.024-0.3-0.208-0.3-0.498v-8.23
		c0-0.421,0.256-0.909,0.571-1.091l4.653-2.687c0.213-0.123,0.399-0.075,0.498,0.099c0.015,0.027,0.027,0.053,0.036,0.085
		C23.911,14.994,24.088,16.329,24.088,16.329z"/>
	<g id="XMLID_00000032638962184423473320000001487429325676490413_">
		<polygon style="fill:#FFFFFF;" points="20.427,20.578 20.427,20.919 23.391,19.231 23.391,18.889 		"/>
	</g>
	<g id="XMLID_00000126325484155968522980000001311567133417491092_">
		<polygon style="fill:#FFFFFF;" points="20.427,21.593 20.427,21.934 23.391,20.246 23.391,19.904 		"/>
	</g>
</g>
</svg>
