<svg width="65" height="39" viewBox="0 0 65 39" fill="none" xmlns="http://www.w3.org/2000/svg">
<path d="M9.25815 30.2582C9.32204 30.2191 9.3934 30.184 9.47225 30.153C9.55209 30.1225 9.63361 30.0996 9.71681 30.0844C9.79111 30.0677 9.85676 30.0586 9.91376 30.0571C9.97273 30.0556 10.0362 30.0559 10.1041 30.0581C10.173 30.0608 10.261 30.0599 10.3681 30.0554C10.4525 30.051 10.522 30.0395 10.5766 30.021C10.6332 30.0025 10.6866 29.9778 10.737 29.947C10.7631 29.931 10.7853 29.9139 10.8035 29.8959C10.8227 29.8783 10.834 29.8599 10.8374 29.8405C10.8454 29.8079 10.8363 29.7766 10.8099 29.7467C10.7855 29.7166 10.7509 29.6894 10.706 29.6651C10.6721 29.6466 10.6348 29.6309 10.5941 29.6177C10.5545 29.6051 10.5144 29.598 10.4741 29.5962C10.4258 29.5935 10.3792 29.5978 10.3343 29.6092C10.2903 29.6211 10.25 29.6389 10.2132 29.6626L9.78227 29.4286C9.89781 29.3716 10.0231 29.33 10.1581 29.3038C10.2932 29.2775 10.4243 29.2704 10.5514 29.2824C10.6451 29.2908 10.736 29.3077 10.8242 29.3332C10.9124 29.3587 10.9909 29.3902 11.0597 29.4276C11.1734 29.4893 11.2633 29.5582 11.3292 29.6343C11.3961 29.7098 11.4232 29.7894 11.4107 29.8732C11.4052 29.9273 11.3815 29.981 11.3396 30.0343C11.2987 30.087 11.2454 30.1336 11.1795 30.1739C11.074 30.2386 10.9538 30.284 10.8187 30.3102C10.6837 30.3365 10.543 30.3529 10.3967 30.3596C10.3338 30.3624 10.2778 30.3644 10.2287 30.3657C10.1815 30.3669 10.1373 30.3686 10.096 30.3709C10.0568 30.373 10.0185 30.3769 9.98127 30.3824C9.90881 30.3945 9.85556 30.4075 9.8215 30.4215C9.78745 30.4354 9.74332 30.459 9.68911 30.4922L9.25815 30.2582ZM8.69491 30.6068L9.11305 30.3506L9.54102 30.583L9.12287 30.8392L8.69491 30.6068ZM12.5381 32.6937L13.4906 32.1101C13.598 32.0443 13.6543 31.9781 13.6595 31.9115C13.6656 31.8444 13.6217 31.7853 13.528 31.7344C13.4701 31.703 13.4052 31.6828 13.3331 31.6739C13.2621 31.6644 13.1879 31.6678 13.1107 31.684C13.0344 31.6996 12.9618 31.7285 12.8931 31.7706L12.8245 31.6276C12.9319 31.5606 13.0522 31.5158 13.1853 31.493C13.3204 31.4701 13.4551 31.4683 13.5894 31.4875C13.7236 31.5067 13.8446 31.5456 13.9524 31.6041C14.1309 31.701 14.2153 31.8073 14.2056 31.9228C14.1978 32.0383 14.1092 32.1479 13.9398 32.2517L12.8988 32.8895L12.5381 32.6937ZM10.5943 31.6382L12.1624 30.6774L12.4811 30.8505L11.9947 31.1485L12.0396 31.1729L10.958 31.8357L10.5943 31.6382ZM11.5685 32.1672L12.5166 31.5863C12.6259 31.5192 12.6837 31.4521 12.6898 31.385C12.6959 31.3178 12.6516 31.2585 12.5568 31.2071C12.465 31.1572 12.3607 31.1358 12.2439 31.1428C12.128 31.1504 12.0212 31.1841 11.9235 31.244L11.8664 31.0922C11.968 31.03 12.0854 30.988 12.2186 30.9664C12.3518 30.9447 12.4855 30.9435 12.6198 30.9627C12.756 30.9818 12.8789 31.0212 12.9887 31.0808C13.1094 31.1463 13.185 31.2165 13.2155 31.2912C13.2479 31.3659 13.241 31.4404 13.1947 31.5149C13.1505 31.5893 13.0746 31.6594 12.9672 31.7252L11.9276 32.3622L11.5685 32.1672Z" fill="#4760FF"/>
<path d="M51.541 33.9788C51.478 33.9382 51.4227 33.8936 51.3749 33.8452C51.3281 33.7963 51.2946 33.7471 51.2745 33.6978C51.2511 33.6535 51.2402 33.6148 51.2419 33.582C51.2436 33.548 51.2488 33.5116 51.2577 33.4728C51.2675 33.4335 51.2725 33.3829 51.2726 33.3209C51.2712 33.272 51.2565 33.2309 51.2286 33.1977C51.2008 33.1633 51.1621 33.1302 51.1125 33.0981C51.0868 33.0815 51.0589 33.067 51.029 33.0547C51.0002 33.0419 50.9691 33.0336 50.9358 33.0296C50.8801 33.0217 50.8254 33.0238 50.7716 33.0359C50.7179 33.0469 50.6683 33.064 50.6229 33.0873C50.5885 33.1049 50.5585 33.1247 50.5328 33.1467C50.5081 33.1682 50.4927 33.1905 50.4866 33.2135C50.4784 33.2409 50.4824 33.2681 50.4988 33.295C50.5162 33.3215 50.544 33.3465 50.5822 33.37L50.1457 33.5937C50.0558 33.5215 49.9932 33.4454 49.9578 33.3652C49.9225 33.285 49.9199 33.209 49.95 33.1372C49.9714 33.0843 50.0074 33.0338 50.058 32.9857C50.1086 32.9377 50.1688 32.8958 50.2385 32.8601C50.3537 32.801 50.4794 32.7565 50.6158 32.7263C50.7512 32.6956 50.8909 32.6881 51.0348 32.7038C51.1279 32.7124 51.2189 32.7315 51.308 32.761C51.3962 32.7898 51.4726 32.8252 51.5375 32.867C51.6414 32.9342 51.7111 33.0079 51.7464 33.088C51.7818 33.1682 51.7998 33.2507 51.8005 33.3354C51.8007 33.3718 51.8 33.4041 51.7986 33.4325C51.7972 33.4597 51.7969 33.4853 51.7977 33.5092C51.7986 33.5319 51.8024 33.5543 51.8091 33.5762C51.8247 33.6191 51.8433 33.651 51.8649 33.6719C51.8865 33.6929 51.924 33.7206 51.9774 33.7551L51.541 33.9788ZM52.1018 34.3376L51.6899 34.0715L52.1233 33.8494L52.5352 34.1155L52.1018 34.3376ZM55.9937 32.3428L55.0554 31.7367C54.9495 31.6683 54.8393 31.6293 54.7246 31.6196C54.609 31.6092 54.5037 31.6284 54.4087 31.6771C54.3501 31.7071 54.3105 31.7423 54.2897 31.7828C54.2681 31.8226 54.2684 31.8655 54.2907 31.9116C54.312 31.957 54.3566 32.0015 54.4243 32.0453L54.172 32.0701C54.0642 32.0017 53.9955 31.9281 53.966 31.8493C53.9365 31.7694 53.9434 31.6919 53.9865 31.6167C54.0296 31.5416 54.1057 31.4761 54.2148 31.4202C54.3957 31.3275 54.5856 31.2898 54.7845 31.3071C54.9835 31.3233 55.1665 31.3853 55.3333 31.4931L56.3588 32.1556L55.9937 32.3428ZM54.0253 33.3517L52.4805 32.3538L52.8033 32.1884L53.2825 32.4979L53.3279 32.4746L54.3935 33.163L54.0253 33.3517ZM55.0117 32.8461L54.0777 32.2427C53.97 32.1731 53.8583 32.1332 53.7427 32.1228C53.627 32.1125 53.5212 32.132 53.4253 32.1811C53.3323 32.2288 53.2876 32.2865 53.2911 32.3543C53.2956 32.4216 53.346 32.4863 53.4423 32.5485L53.1757 32.5659C53.0756 32.5012 53.0117 32.4296 52.9842 32.3509C52.9566 32.2722 52.9644 32.1953 53.0075 32.1202C53.0507 32.0439 53.1279 31.9773 53.239 31.9204C53.3612 31.8577 53.488 31.8214 53.6195 31.8115C53.7509 31.8005 53.8793 31.812 54.0046 31.8461C54.1299 31.8791 54.2455 31.9298 54.3513 31.9981L55.3754 32.6597L55.0117 32.8461Z" fill="#4760FF"/>
<path d="M1.04688 21.8736L30.6922 38.1442" stroke="#4760FF" stroke-width="0.341998"/>
<path d="M64.6055 23.3918L35.6375 38.1485" stroke="#4760FF" stroke-width="0.341998"/>
<path d="M35.2754 18.0371H30.5117C30.5117 16.9941 30.5879 16.0859 30.7402 15.3125C30.9043 14.5273 31.1738 13.8242 31.5488 13.2031C31.9238 12.5703 32.4277 11.9668 33.0605 11.3926C33.6113 10.9121 34.0918 10.4609 34.502 10.0391C34.9121 9.60547 35.2285 9.16016 35.4512 8.70312C35.6738 8.24609 35.7852 7.74805 35.7852 7.20898C35.7852 6.56445 35.6855 6.03711 35.4863 5.62695C35.2988 5.20508 35.0176 4.88867 34.6426 4.67773C34.2793 4.45508 33.8223 4.34375 33.2715 4.34375C32.8145 4.34375 32.3867 4.44922 31.9883 4.66016C31.5898 4.85937 31.2676 5.17578 31.0215 5.60938C30.7754 6.04297 30.6406 6.61133 30.6172 7.31445H25.0977C25.1328 5.63867 25.5137 4.26758 26.2402 3.20117C26.9668 2.12305 27.9395 1.33203 29.1582 0.828125C30.3887 0.3125 31.7598 0.0546875 33.2715 0.0546875C34.9473 0.0546875 36.3828 0.318359 37.5781 0.845703C38.7852 1.37305 39.7051 2.15234 40.3379 3.18359C40.9824 4.21484 41.3047 5.47461 41.3047 6.96289C41.3047 7.98242 41.1113 8.87891 40.7246 9.65234C40.3379 10.4141 39.8223 11.1289 39.1777 11.7969C38.5332 12.4531 37.8184 13.1387 37.0332 13.8535C36.3652 14.4512 35.9082 15.0723 35.6621 15.7168C35.416 16.3496 35.2871 17.123 35.2754 18.0371ZM29.8789 23.416C29.8789 22.6309 30.1602 21.9688 30.7227 21.4297C31.2969 20.8906 32.041 20.6211 32.9551 20.6211C33.8691 20.6211 34.6074 20.8906 35.1699 21.4297C35.7324 21.9688 36.0137 22.6309 36.0137 23.416C36.0137 24.2129 35.7324 24.8809 35.1699 25.4199C34.6074 25.9473 33.8691 26.2109 32.9551 26.2109C32.041 26.2109 31.2969 25.9473 30.7227 25.4199C30.1602 24.8809 29.8789 24.2129 29.8789 23.416Z" fill="#4760FF"/>
<path d="M64.5586 19.275L34.9133 3.00434" stroke="#4760FF" stroke-opacity="0.3" stroke-width="0.341998"/>
<path d="M1 17.7568L29.968 3.00004" stroke="#4760FF" stroke-opacity="0.3" stroke-width="0.341998"/>
</svg>
