<?xml version="1.0" encoding="utf-8"?>
<svg xmlns="http://www.w3.org/2000/svg" width="201" height="27" viewBox="0 0 201 27" fill="none">
<g clip-path="url(#clip0_208_2946)">
<path d="M72.5273 25.2123H80.9623V24.1149H79.1522C79.0869 24.1149 78.9253 24.0825 78.7003 24.0177C78.4375 23.9638 78.1859 23.8656 77.9561 23.7273C77.6982 23.4671 77.6005 23.1438 77.6005 22.5298V3.62541L84.8722 25.2123H87.2649L94.6324 3.59299V22.9503C94.6324 23.2416 94.5032 23.5319 94.2453 23.7273C94.0508 23.8885 93.566 24.0501 93.1141 24.1149H91.2387V25.2123H103.166V24.1149H101.387C100.321 24.1149 99.706 23.5009 99.706 22.5298V4.65939C99.706 3.94814 99.7723 3.72266 100.127 3.49622C100.321 3.30315 100.806 3.14059 101.324 3.07671H103.198V1.91211H93.5021L87.8469 18.3944L82.3519 1.91211H72.5593V3.07624H74.3374C75.3056 3.07624 75.953 3.68976 75.953 4.65939V21.8844L75.9854 22.5298C75.9854 23.4671 75.2746 24.1149 74.3055 24.1149H72.5273V25.2123ZM103.631 2.97899H105.473C105.538 2.97899 105.732 3.04334 105.925 3.10865C106.216 3.17301 106.475 3.27026 106.636 3.39897C106.895 3.62493 106.991 3.85089 106.991 4.23893V19.0069C106.991 21.6579 107.7 23.1758 109.384 24.1144C110.902 25.0512 113.358 25.6003 115.717 25.6003C118.398 25.6003 121.05 24.8247 122.375 23.7264C123.054 23.1119 123.603 22.239 123.86 21.1736C124.119 20.2998 124.249 19.2014 124.249 18.0387V4.59456C124.249 3.62541 124.928 2.97899 125.962 2.97899H127.771V1.91211H119.272V2.97899H121.082C121.987 2.97899 122.601 3.65735 122.601 4.59456V18.2008C122.601 21.8848 121.082 23.4027 117.269 23.4027C114.748 23.4027 112.874 22.5298 112.292 21.0125C112.099 20.5257 112.033 19.8798 112.033 18.4916V4.59456C112.033 3.65782 112.68 2.97899 113.682 2.97899H115.458V1.91211H103.631V2.97899ZM128.232 25.2123H136.797V24.1149H134.955C134.923 24.1149 134.727 24.0825 134.471 24.0496C134.178 23.9533 133.888 23.856 133.694 23.7269C133.404 23.4666 133.306 23.2087 133.306 22.5294V6.63107L145.167 25.2123H148.754V4.20699C148.754 3.72218 149.141 3.33461 149.853 3.14059C150.048 3.10913 150.273 3.04334 150.306 3.04334H152.115V1.91211H143.778V3.04334H145.555C146.557 3.04334 147.202 3.68976 147.202 4.65939V19.0727L136.214 1.91211H128.265V3.07624H130.042C131.012 3.07624 131.691 3.68976 131.691 4.65939V22.5298C131.691 23.4671 130.979 24.1149 130.011 24.1149H128.232V25.2123H128.232Z" fill="#140C40" fill-opacity="0.5"/>
<path fill-rule="evenodd" clip-rule="evenodd" d="M152.731 25.2137H165.268C171.766 25.2137 176.45 20.2044 176.45 13.2573C176.45 9.2501 174.608 5.69432 171.474 3.65924C169.598 2.46461 167.564 1.91401 164.914 1.91401H152.73V3.04476H154.54C155.51 3.04476 156.156 3.65924 156.156 4.66081V22.5313C156.156 23.1453 156.027 23.5023 155.736 23.7602C155.542 23.8894 155.024 24.051 154.572 24.1807H152.73V25.2137H152.731ZM161.165 22.6929V4.3376C161.165 3.23926 161.424 2.94847 162.426 2.94847H165.399C167.047 2.94847 168.631 3.75602 169.471 5.04838C170.052 5.98607 170.473 7.24554 170.732 9.08898C170.893 10.3809 170.989 12.2882 170.989 13.6773C170.989 20.8842 169.115 24.2131 165.043 24.2131H162.459C161.489 24.2126 161.165 23.8575 161.165 22.6929ZM178.601 13.5796C178.601 20.7226 182.965 25.5369 189.461 25.5369C195.957 25.5369 200.352 20.7226 200.352 13.5796C200.352 10.2188 199.349 7.27795 197.411 5.01549C195.472 2.72155 192.886 1.58984 189.461 1.58984C186.034 1.58984 183.546 2.68961 181.478 5.01549C179.604 7.18166 178.601 10.2193 178.601 13.5796ZM184.646 6.82603C185.291 4.27325 186.94 2.94847 189.461 2.94847C191.982 2.94847 193.597 4.27325 194.309 6.82603C194.76 8.47402 194.89 10.2193 194.89 13.5801C194.89 16.9085 194.76 18.6222 194.309 20.3022C193.629 22.823 191.982 24.1812 189.461 24.1812C186.94 24.1812 185.324 22.823 184.646 20.3022C184.16 18.6551 183.999 16.9414 183.999 13.5801C183.999 10.1868 184.16 8.50691 184.646 6.82603Z" fill="#140C40" fill-opacity="0.5"/>
<path d="M0.136719 25.2123H21.0781L21.7241 17.716H20.4956C20.0108 21.8844 17.3612 24.1793 12.9664 24.1793H9.73481C8.86243 24.1793 8.50632 23.7588 8.50632 22.8211V13.0619H10.1877C11.9 13.0619 13.4193 13.4495 14.0981 14.0639C14.7755 14.7094 15.2608 15.9055 15.2608 17.0048C15.2608 17.1983 15.2608 17.4257 15.2289 17.6517H16.424V7.47055L15.2289 7.43861V7.69699C15.2289 10.5086 13.4508 12.0284 10.1877 12.0284H8.50632V4.07733C8.50632 3.2059 8.76565 2.94705 9.5732 2.94705H12.8043C15.3576 2.94705 16.6829 3.33461 18.072 4.49779C19.1055 5.33823 19.914 6.59865 20.1076 7.72941C20.1719 8.0202 20.2053 8.40729 20.2372 8.89353H21.5949L21.0452 1.91211H0.136719V3.04334H1.94631C2.884 3.04334 3.52994 3.62541 3.52994 4.6265V22.5623C3.52994 23.5009 2.884 24.1149 1.91437 24.1149H0.136719V25.2123ZM22.0664 3.04334H23.8445C24.8456 3.04334 25.492 3.65782 25.492 4.65939V22.4974C25.492 23.1434 25.3623 23.4666 25.1035 23.7269C24.877 23.888 24.3927 24.0496 23.9413 24.1144H22.0664V25.2118H42.0701L42.5549 16.0342H41.2301C40.4545 21.206 37.9661 24.1788 34.2821 24.1788H31.6969C30.823 24.1788 30.4355 23.7583 30.4355 22.7887V4.65939C30.4355 3.68976 31.0829 3.04334 32.0525 3.04334H33.8626V1.91211H22.0664V3.04334Z" fill="#140C40" fill-opacity="0.5"/>
<path d="M69.9092 19.0999C70.6978 17.4764 71.1459 15.7088 71.2259 13.9057H58.7204V19.2029H69.8563C69.8558 19.2029 69.8511 19.2162 69.9092 19.0999ZM57.3179 6.87564H46.2754C45.3204 8.6081 44.7657 10.5325 44.6522 12.5075H57.3174V6.87564H57.3179ZM58.7199 6.87564V12.5075H71.2173C71.103 10.533 70.5494 8.60897 69.597 6.87564H58.7199ZM57.3179 13.9057H44.6445C44.7272 15.7472 45.1927 17.5513 46.0113 19.2029H57.3184V13.9057H57.3179ZM57.3179 20.6011H46.8145C49.0889 24.0534 52.9264 26.3855 57.3179 26.5867V20.6011ZM58.7199 5.4765H68.7051C66.4278 2.34737 62.8234 0.248889 58.7199 0.00958049V5.4765ZM58.7199 20.6011V26.5767C63.0427 26.3245 66.8097 24.0105 69.0545 20.6011H58.7199ZM57.3179 5.4765V0.00195312C53.1452 0.191684 49.4741 2.30589 47.1673 5.4765H57.3179Z" fill="#140C40" fill-opacity="0.5"/>
</g>
<defs>
<clipPath id="clip0_208_2946">
<rect width="200.218" height="26.6958" fill="white" transform="translate(0.136719 0.00195312)"/>
</clipPath>
</defs>
</svg>