<?xml version="1.0" encoding="utf-8"?>
<svg xmlns="http://www.w3.org/2000/svg" width="130" height="31" viewBox="0 0 130 31" fill="none">
<g clip-path="url(#clip0_208_2952)">
<path d="M0.277344 29.3768V26.7382H2.21112C3.38839 26.7382 4.04145 26.3806 4.04145 24.2381V10.3458C4.04145 8.81704 3.62858 8.34982 1.83243 8.34982H0.277344V5.70863H23.0689V15.1321H20.5092C19.9938 10.2783 19.58 8.35069 14.9542 8.35069H8.87238V15.779H10.7027C12.7785 15.779 13.7086 14.7043 13.7086 11.8124V11.346H16.2674V23.2704H13.7077V22.4183C13.7077 19.5256 12.7785 18.4175 10.7027 18.4175H8.87238V26.7391H15.78C18.9594 26.7391 20.198 24.6984 20.5083 19.3844H23.0689V29.3768H0.277344ZM24.8221 29.3768V26.7382H27.0653C28.0444 26.7382 28.7142 26.3806 28.7142 25.1638V9.88649C28.7142 8.81704 28.254 8.35245 26.8558 8.35245H24.823V5.70863H37.6537V8.35069H35.6901C34.1517 8.35069 33.6214 8.7101 33.6214 9.95925V26.7724H39.3377C42.9492 26.7724 43.8241 24.7378 44.1449 19.2021H46.737V29.3768H24.8221ZM53.7498 29.375V26.7382H55.9825C56.789 26.7382 57.4841 26.4542 57.4841 25.5215V9.56128C57.4841 8.63384 56.789 8.34982 55.9825 8.34982H53.7498V5.70863H67.43C72.6668 5.70863 75.6647 8.17625 75.6647 12.2051C75.6647 16.5986 72.5265 18.6674 67.8481 18.6674H62.3738V25.5224C62.3738 26.4551 63.2442 26.7391 64.0446 26.7391H66.2772V29.3768H53.7498V29.375ZM62.3729 16.0244H65.5462C68.8281 16.0244 70.5735 14.9909 70.5735 12.2463C70.5735 9.49465 69.1762 8.35157 65.5453 8.35157H62.372V16.0244H62.3729ZM71.2817 29.3768H82.0227V26.7382H79.3403C78.6829 26.7382 78.2358 26.5909 78.2358 26.0965C78.2358 25.7731 78.3059 25.5566 78.3725 25.347L79.5051 21.7714H87.3173L88.4543 25.347C88.5227 25.5566 88.591 25.8809 88.591 26.2052C88.591 26.5576 88.3167 26.7391 87.5277 26.7391H84.805V29.3768H108.099V26.7382H106.103C104.937 26.7382 104.415 26.1316 104.415 24.9885V10.0618C104.415 8.70922 105.485 8.34982 106.583 8.34982H108.099V5.70863H95.9185V8.35069H97.8462C99.19 8.35069 99.5993 9.06074 99.5993 9.95925V25.4549C99.5993 26.3814 99.0515 26.7391 97.6375 26.7391H96.7802C94.9569 26.7391 93.7893 26.4901 93.166 24.8071L86.2891 5.70863H81.4678L74.896 24.8071C74.3121 26.4901 73.1059 26.7391 71.2826 26.7391L71.2817 29.3768ZM86.3242 19.1346H80.5071L83.264 10.5273H83.3253L86.3233 19.1346H86.3242ZM125.9 5.55961H127.876V14.6718H125.425C124.61 10.7272 122.464 7.90801 118.409 7.90801C115.238 7.90801 113.941 8.7776 113.941 11.1663C113.941 16.589 129.137 12.5426 129.137 22.6261C129.137 28.3766 124.913 30.2534 120.141 30.2534C117.587 30.2534 115.034 29.0963 113.058 27.3983L112.311 29.5284H109.99V19.7316H112.514C112.989 24.5783 115.781 27.1791 120.62 27.1791C123.615 27.1791 125.047 25.6933 125.047 23.9611C125.047 17.7785 109.852 22.4411 109.852 12.1025C109.852 7.00249 114.177 4.83203 118.304 4.83203C120.892 4.83203 123.071 6.09696 124.776 7.36365L125.9 5.55961Z" fill="#140C40" fill-opacity="0.5"/>
<path d="M108.097 0.449219V3.07901H95.8242L108.097 0.449219Z" fill="#140C40" fill-opacity="0.5"/>
</g>
<defs>
<clipPath id="clip0_208_2952">
<rect width="128.86" height="29.8043" fill="white" transform="translate(0.277344 0.449219)"/>
</clipPath>
</defs>
</svg>