<svg width="496" height="196" viewBox="0 0 496 196" fill="none" xmlns="http://www.w3.org/2000/svg">
<path d="M49.2698 195.343L447.646 195.343C460.779 195.343 473.374 190.126 482.661 180.839C491.947 171.553 497.164 158.958 497.164 145.825L497.164 -252.563C497.164 -265.696 491.947 -278.291 482.661 -287.577C473.374 -296.864 460.779 -302.081 447.646 -302.081L49.2699 -302.081C36.1369 -302.081 23.5419 -296.864 14.2555 -287.577C4.96913 -278.291 -0.247915 -265.696 -0.247916 -252.563L-0.247951 145.842C-0.247952 158.975 4.96909 171.57 14.2555 180.856C23.5419 190.143 36.1369 195.36 49.2698 195.36M57.377 -244.456L439.545 -244.456L439.545 137.741L57.377 137.741L57.377 -244.456Z" fill="#E7EDFA" fill-opacity="0.2"/>
</svg>
