<svg width="37" height="37" viewBox="0 0 37 37" fill="none" xmlns="http://www.w3.org/2000/svg">
<g clip-path="url(#clip0_1545_4355)">
<path fill-rule="evenodd" clip-rule="evenodd" d="M0.617188 18.7692C0.617188 27.7182 7.11669 35.1597 15.6172 36.6687V23.6682H11.1172V18.6687H15.6172V14.6682C15.6172 10.1682 18.5167 7.6692 22.6177 7.6692C23.9167 7.6692 25.3177 7.8687 26.6167 8.0682V12.6687H24.3172C22.1167 12.6687 21.6172 13.7682 21.6172 15.1692V18.6687H26.4172L25.6177 23.6682H21.6172V36.6687C30.1177 35.1597 36.6172 27.7197 36.6172 18.7692C36.6172 8.8137 28.5172 0.668701 18.6172 0.668701C8.71719 0.668701 0.617188 8.8137 0.617188 18.7692Z" fill="white"/>
</g>
<defs>
<clipPath id="clip0_1545_4355">
<rect width="36" height="36" fill="white" transform="translate(0.617188 0.668701)"/>
</clipPath>
</defs>
</svg>
