<svg width="37" height="37" viewBox="0 0 37 37" fill="none" xmlns="http://www.w3.org/2000/svg">
<g clip-path="url(#clip0_1545_4353)">
<path d="M18.6172 0.668701C8.61719 0.668701 0.617188 8.6687 0.617188 18.6687C0.617188 28.6687 8.61719 36.6687 18.6172 36.6687C28.6172 36.6687 36.6172 28.6687 36.6172 18.6687C36.6172 8.6687 28.6172 0.668701 18.6172 0.668701ZM18.6172 14.6687C20.8172 14.6687 22.6172 16.4687 22.6172 18.6687C22.6172 20.8687 20.8172 22.6687 18.6172 22.6687C16.4172 22.6687 14.6172 20.8687 14.6172 18.6687C14.6172 16.4687 16.4172 14.6687 18.6172 14.6687ZM24.2172 10.6687C24.2172 9.2687 25.4172 8.2687 26.6172 8.2687C27.8172 8.2687 29.0172 9.4687 29.0172 10.6687C29.0172 11.8687 28.0172 13.0687 26.6172 13.0687C25.2172 13.0687 24.2172 12.0687 24.2172 10.6687ZM18.6172 32.6687C10.8172 32.6687 4.61719 26.4687 4.61719 18.6687H10.6172C10.6172 23.0687 14.2172 26.6687 18.6172 26.6687C23.0172 26.6687 26.6172 23.0687 26.6172 18.6687H32.6172C32.6172 26.4687 26.4172 32.6687 18.6172 32.6687Z" fill="white"/>
</g>
<defs>
<clipPath id="clip0_1545_4353">
<rect width="36" height="36" fill="white" transform="translate(0.617188 0.668701)"/>
</clipPath>
</defs>
</svg>
