<svg width="37" height="37" viewBox="0 0 37 37" fill="none" xmlns="http://www.w3.org/2000/svg">
<g clip-path="url(#clip0_1545_4359)">
<path d="M18.6172 0.668701C8.67594 0.668701 0.617188 8.72745 0.617188 18.6687C0.617188 28.61 8.67594 36.6687 18.6172 36.6687C28.5584 36.6687 36.6172 28.61 36.6172 18.6687C36.6172 8.72745 28.5584 0.668701 18.6172 0.668701ZM14.2109 26.1293H10.5659V14.3993H14.2109V26.1293ZM12.3659 12.9593C11.2147 12.9593 10.4703 12.1437 10.4703 11.1349C10.4703 10.1056 11.2372 9.31433 12.4128 9.31433C13.5884 9.31433 14.3084 10.1056 14.3309 11.1349C14.3309 12.1437 13.5884 12.9593 12.3659 12.9593ZM27.5234 26.1293H23.8784V19.6287C23.8784 18.1156 23.3497 17.0881 22.0316 17.0881C21.0247 17.0881 20.4266 17.7837 20.1622 18.4531C20.0647 18.6912 20.0403 19.0287 20.0403 19.3643V26.1274H16.3934V18.14C16.3934 16.6756 16.3466 15.4512 16.2978 14.3975H19.4647L19.6316 16.0268H19.7047C20.1847 15.2618 21.3603 14.1331 23.3272 14.1331C25.7253 14.1331 27.5234 15.74 27.5234 19.1937V26.1293Z" fill="white"/>
</g>
<defs>
<clipPath id="clip0_1545_4359">
<rect width="36" height="36" fill="white" transform="translate(0.617188 0.668701)"/>
</clipPath>
</defs>
</svg>
