<svg width="37" height="37" viewBox="0 0 37 37" fill="none" xmlns="http://www.w3.org/2000/svg">
<g clip-path="url(#clip0_1545_4357)">
<path d="M18.6172 0.668701C8.67701 0.668701 0.617188 8.72852 0.617188 18.6687C0.617188 28.6089 8.67701 36.6687 18.6172 36.6687C28.5574 36.6687 36.6172 28.6089 36.6172 18.6687C36.6172 8.72852 28.5574 0.668701 18.6172 0.668701ZM27.2676 14.237C27.2797 14.4258 27.2797 14.6227 27.2797 14.8156C27.2797 20.7138 22.7877 27.508 14.5792 27.508C12.048 27.508 9.70156 26.7727 7.72478 25.5071C8.08638 25.5473 8.43192 25.5633 8.80156 25.5633C10.8908 25.5633 12.8114 24.8562 14.3422 23.6589C12.3815 23.6187 10.7342 22.333 10.1717 20.5651C10.8587 20.6656 11.4775 20.6656 12.1846 20.4848C11.175 20.2797 10.2676 19.7314 9.61645 18.933C8.96532 18.1347 8.61066 17.1355 8.61272 16.1053V16.0491C9.20335 16.3825 9.89844 16.5875 10.6257 16.6156C10.0143 16.2081 9.51296 15.6562 9.16603 15.0086C8.8191 14.361 8.63733 13.6378 8.63683 12.9031C8.63683 12.0714 8.8538 11.312 9.24353 10.6531C10.3641 12.0326 11.7624 13.1608 13.3476 13.9645C14.9328 14.7681 16.6694 15.2292 18.4444 15.3178C17.8136 12.2843 20.0797 9.82942 22.8038 9.82942C24.0895 9.82942 25.2467 10.3678 26.0623 11.2357C27.0708 11.0468 28.035 10.6691 28.8949 10.1629C28.5614 11.1955 27.8623 12.0674 26.9342 12.6178C27.8342 12.5214 28.702 12.2723 29.5056 11.9227C28.8989 12.8147 28.1395 13.6062 27.2676 14.237Z" fill="white"/>
</g>
<defs>
<clipPath id="clip0_1545_4357">
<rect width="36" height="36" fill="white" transform="translate(0.617188 0.668701)"/>
</clipPath>
</defs>
</svg>
