<svg width="25" height="25" viewBox="0 0 25 25" fill="none" xmlns="http://www.w3.org/2000/svg">
<path d="M12.9062 21.6687C17.8768 21.6687 21.9062 17.6393 21.9062 12.6687C21.9062 7.69814 17.8768 3.6687 12.9062 3.6687C7.93569 3.6687 3.90625 7.69814 3.90625 12.6687C3.90625 17.6393 7.93569 21.6687 12.9062 21.6687Z" stroke="white" stroke-width="2" stroke-linecap="round" stroke-linejoin="round"/>
<path d="M12.4048 3.6687C10.9985 4.71035 9.85584 6.06705 9.06852 7.63C8.2812 9.19295 7.87109 10.9186 7.87109 12.6687C7.87109 14.4188 8.2812 16.1445 9.06852 17.7074C9.85584 19.2704 10.9985 20.6271 12.4048 21.6687M13.4048 3.6687C14.8111 4.71035 15.9537 6.06705 16.741 7.63C17.5283 9.19295 17.9384 10.9186 17.9384 12.6687C17.9384 14.4188 17.5283 16.1445 16.741 17.7074C15.9537 19.2704 14.8111 20.6271 13.4048 21.6687M12.9048 3.6687V21.6687" stroke="white" stroke-width="2" stroke-linecap="round" stroke-linejoin="round"/>
</svg>
