<svg width="171" height="368" viewBox="0 0 171 368" fill="none" xmlns="http://www.w3.org/2000/svg">
<path d="M133.708 0.297916H-160.573C-170.275 0.297916 -179.579 4.15175 -186.439 11.0116C-193.299 17.8715 -197.152 27.1754 -197.152 36.8768V331.166C-197.152 340.868 -193.299 350.172 -186.439 357.031C-179.579 363.891 -170.275 367.745 -160.573 367.745H133.708C143.409 367.745 152.713 363.891 159.573 357.031C166.433 350.172 170.286 340.868 170.286 331.166V36.864C170.286 27.1627 166.433 17.8587 159.573 10.9988C152.713 4.13899 143.409 0.285156 133.708 0.285156M127.719 325.178H-154.589V42.8485H127.719V325.178Z" fill="#E7EDFA"/>
</svg>
