<svg width="144" height="499" viewBox="0 0 144 499" fill="none" xmlns="http://www.w3.org/2000/svg">
<path d="M94.238 0.831726H-304.138C-317.271 0.831726 -329.866 6.04877 -339.153 15.3352C-348.439 24.6215 -353.656 37.2166 -353.656 50.3495V448.737C-353.656 461.87 -348.439 474.465 -339.153 483.752C-329.866 493.038 -317.271 498.255 -304.138 498.255H94.238C107.371 498.255 119.966 493.038 129.252 483.752C138.539 474.465 143.756 461.87 143.756 448.737V50.3322C143.756 37.1993 138.539 24.6043 129.252 15.3179C119.966 6.03149 107.371 0.814453 94.238 0.814453M86.1309 440.63H-296.037V58.4336H86.1309V440.63Z" fill="#E7EDFA"/>
</svg>
