<svg width="19" height="18" viewBox="0 0 19 18" fill="none" xmlns="http://www.w3.org/2000/svg">
<path d="M18.3801 0.268417L17.9701 3.26142C16.9041 3.17942 16.1251 3.39808 15.6331 3.91742C15.1411 4.43675 14.8404 5.13375 14.7311 6.00842C14.6217 6.88308 14.5944 7.82609 14.6491 8.83742H18.3801V17.4884H11.3691V7.19742C11.3691 4.68275 11.9977 2.79675 13.2551 1.53942C14.5397 0.282084 16.2481 -0.141583 18.3801 0.268417ZM7.96608 0.268417L7.55608 3.26142C6.49008 3.17942 5.71108 3.39808 5.21908 3.91742C4.72708 4.43675 4.42641 5.13375 4.31708 6.00842C4.20774 6.88308 4.18041 7.82609 4.23508 8.83742H7.96608V17.4884H0.955078V7.19742C0.955078 4.68275 1.58374 2.79675 2.84108 1.53942C4.12575 0.282084 5.83408 -0.141583 7.96608 0.268417Z" fill="white"/>
</svg>
