<svg width="185" height="369" viewBox="0 0 185 369" fill="none" xmlns="http://www.w3.org/2000/svg">
<path d="M331.43 0.790103H37.1492C27.4478 0.790103 18.1439 4.64394 11.284 11.5038C4.42415 18.3637 0.570313 27.6676 0.570312 37.3689V331.658C0.570313 341.36 4.42415 350.664 11.284 357.524C18.1439 364.383 27.4478 368.237 37.1492 368.237H331.43C341.132 368.237 350.435 364.383 357.295 357.524C364.155 350.664 368.009 341.36 368.009 331.658V37.3562C368.009 27.6549 364.155 18.3509 357.295 11.491C350.435 4.63117 341.132 0.777344 331.43 0.777344M325.441 325.67H43.1336V43.3407H325.441V325.67Z" fill="#E7EDFA"/>
</svg>
