<svg width="382" height="499" viewBox="0 0 382 499" fill="none" xmlns="http://www.w3.org/2000/svg">
<path d="M448.084 0.837585H49.7072C36.5743 0.837585 23.9793 6.05463 14.6929 15.341C5.40649 24.6274 0.189453 37.2224 0.189453 50.3554V448.743C0.189453 461.876 5.40649 474.471 14.6929 483.758C23.9793 493.044 36.5743 498.261 49.7072 498.261H448.084C461.217 498.261 473.812 493.044 483.098 483.758C492.384 474.471 497.601 461.876 497.601 448.743V50.3381C497.601 37.2052 492.384 24.6101 483.098 15.3237C473.812 6.03735 461.217 0.820313 448.084 0.820312M439.977 440.636H57.8086V58.4394H439.977V440.636Z" fill="#E7EDFA"/>
</svg>
