<svg width="128" height="316" viewBox="0 0 128 316" fill="none" xmlns="http://www.w3.org/2000/svg">
<path d="M284.367 0.0617463H31.4735C23.1366 0.0617463 15.1411 3.37358 9.246 9.26868C3.3509 15.1638 0.0390625 23.1593 0.0390625 31.4962V284.397C0.0390625 292.734 3.3509 300.73 9.246 306.625C15.1411 312.52 23.1366 315.832 31.4735 315.832H284.367C292.704 315.832 300.7 312.52 306.595 306.625C312.49 300.73 315.802 292.734 315.802 284.397V31.4852C315.802 23.1483 312.49 15.1528 306.595 9.25772C300.7 3.36261 292.704 0.0507813 284.367 0.0507812M279.221 279.251H36.6163V36.628H279.221V279.251Z" fill="#E7EDFA"/>
</svg>
