<svg width="151" height="115" viewBox="0 0 151 115" fill="none" xmlns="http://www.w3.org/2000/svg">
<path d="M142.449 55.4956L132.808 50.0391C132.76 65.1331 132.64 67.7787 132.856 79.0224L132.808 79.1878L132.736 79.3531L132.664 79.5185L132.569 79.6838L132.449 79.8492L132.33 80.0145L132.186 80.1799L132.042 80.3452L131.875 80.5106L131.684 80.6523L131.492 80.794L131.277 80.9357L131.038 81.0775L97.1141 100.282V100.376H97.0424L96.9467 113.958L95.918 114.643C97.4012 114.502 108.239 112.683 112.353 111.927L115.463 110.155L116.588 110.793L116.755 105.667L118.741 104.415L119.841 104.533L122.306 102.951L122.593 102.337L123.908 101.604L125.057 101.557L126.444 100.636L125.152 99.9036L118.358 96.077L121.803 94.1164L148.263 78.9988L150.224 77.8886L144.698 74.7233V62.5111L145.798 61.708V58.9443L144.698 58.3301V56.7711L142.473 55.4956H142.449Z" fill="#4760FF"/>
<path d="M133.505 28.26C133.505 27.9293 133.242 27.6695 132.907 27.6695H132.835L84.6291 0.363281V1.47348L131.854 28.1892L111.71 39.6691L64.6769 12.859L84.6291 1.47348V0.363281L36.4233 27.8821C36.184 27.8585 35.9687 27.953 35.8491 28.1656C35.8013 28.26 35.7773 28.3545 35.7773 28.449V41.6297C36.2319 42.0313 36.5907 42.4801 36.9735 42.9761V29.4884L83.9114 56.2277V71.8177H85.1075V71.0382L86.9497 72.0776V71.5343L85.1075 70.4949V66.4085L95.0597 72.0776V71.5343L85.1075 65.8652V61.7787L124.438 84.1953L120.849 86.2504L96.854 72.5736V73.1169L120.371 86.5338L116.782 88.5889L96.9018 77.2506V77.7939L116.304 88.8487L112.715 90.9038L97.2367 82.0694L96.9975 82.4709L112.237 91.1636L108.648 93.2187L97.2367 86.7228L96.9975 87.1243L108.17 93.4785L104.581 95.5335L97.2367 91.3526L96.9975 91.7541L104.103 95.7934L100.514 97.8484L97.2367 95.9823L96.9975 96.3839L100.012 98.1083L96.7822 99.9507L97.3803 100.966L133.266 80.5104C133.457 80.3923 133.577 80.1797 133.553 79.9671V28.26H133.505ZM132.332 74.2271L128.72 72.1721V69.7863L129.462 71.5579C129.533 71.7469 129.749 71.8177 129.916 71.7469C130.108 71.676 130.179 71.4634 130.108 71.2981C129.749 70.4477 129.414 69.5029 129.031 68.6761C128.959 68.5108 128.84 68.4163 128.672 68.369C128.529 68.3218 128.385 68.3454 128.242 68.3926H128.17L128.122 68.4399C127.978 68.5344 127.835 68.6525 127.739 68.8178C127.643 68.9596 127.572 69.1249 127.548 69.2903L126.998 71.18L92.9066 51.7396L96.4951 49.6846L105.084 54.5742V55.0702L106.423 56.6292L106.878 55.5899L132.332 70.0934V74.1799V74.2271ZM122.691 75.7389C122.883 75.7861 123.074 75.6916 123.122 75.5027L123.457 74.3452L123.983 74.6523V78.7388L85.0597 56.5584V56.2277L88.3611 54.338L122.835 73.9909L122.452 75.3137C122.404 75.5027 122.5 75.6916 122.691 75.7389ZM123.696 71.1091C123.6 71.2508 123.529 71.4162 123.505 71.5815L122.954 73.4949L88.8396 54.0545L92.4281 51.9995L126.878 71.6288L126.495 72.9752C126.447 73.1642 126.543 73.3531 126.734 73.4004C126.926 73.4476 127.117 73.3531 127.165 73.1642L127.5 72.0067L128.002 72.2902V76.3767L124.701 74.4869V72.1484L125.395 73.8492C125.466 74.0381 125.682 74.109 125.849 74.0381C126.041 73.9673 126.112 73.7547 126.041 73.5893L124.964 70.991V70.9437C124.964 70.9437 124.821 70.7548 124.725 70.7075C124.629 70.6603 124.51 70.6367 124.39 70.6367C124.342 70.6367 124.294 70.6367 124.246 70.6603C124.246 70.6603 124.199 70.6603 124.175 70.6839C124.175 70.6839 124.103 70.7075 124.055 70.7312C123.911 70.8256 123.768 70.9438 123.672 71.1091H123.696ZM124.701 75.0539L128.002 76.9436V77.912C128.002 78.101 128.17 78.2664 128.361 78.2664C128.553 78.2664 128.72 78.101 128.72 77.912V77.3451L130.251 78.2191C130.251 78.2191 130.132 78.2191 130.06 78.2664L126.615 80.2269L124.701 79.1403V75.0539ZM105.084 49.9444V54.0309L96.9975 49.4247L100.586 47.3697L105.084 49.9444ZM101.064 47.1099L105.084 44.8186V49.4011L101.064 47.1099ZM111.376 45.6926V48.2437L106.041 45.1965V44.2753L107.452 43.4722L111.352 45.6926H111.376ZM107.954 43.1887L110.179 41.9132L111.376 42.5982V45.1493L107.954 43.1887ZM111.376 48.787V51.3144L106.041 48.2909V45.7398L111.376 48.787ZM111.16 51.7632L110.993 52.1648L110.682 51.8105C110.682 51.8105 110.61 51.7396 110.562 51.716C110.395 51.5979 110.179 51.5507 109.964 51.5979C109.797 51.6215 109.653 51.716 109.509 51.8341C109.438 51.905 109.366 51.9758 109.294 52.0703C109.246 52.1176 109.222 52.1648 109.198 52.2357C109.175 52.2829 109.127 52.3538 109.103 52.401L108.84 53.0152L106.065 51.4326V48.8815L111.16 51.7869V51.7632ZM107.763 52.9207C107.763 52.9207 107.62 52.9207 107.548 52.9207C107.38 52.9443 107.237 53.0388 107.093 53.1569C107.021 53.2278 106.95 53.2986 106.878 53.3931C106.83 53.4404 106.806 53.4876 106.782 53.5585C106.758 53.6057 106.734 53.653 106.687 53.7238L106.256 54.6923L106.041 54.5742V51.9286L107.763 52.8971V52.9207ZM132.356 29.2758V32.441L129.581 30.8584L132.356 29.2758ZM129.103 31.1182L132.356 32.9607V37.0472L125.514 33.1497L129.103 31.0946V31.1182ZM125.036 33.4331L132.356 37.6141V41.7006L121.447 35.4882L125.036 33.4331ZM120.969 35.748L132.356 42.2439V46.3303L117.38 37.7794L120.969 35.7244V35.748ZM116.902 38.0629L132.38 46.8736V50.9601L113.313 40.0943L116.902 38.0393V38.0629ZM112.332 40.6612L112.811 40.3778L132.356 51.527V55.6135L112.332 44.2044V40.6612ZM112.332 44.7477L132.356 56.1568V60.2433L112.332 48.8342V44.7477ZM112.332 51.4089V49.4011L132.356 60.8102V64.8967L111.591 53.0624L112.309 51.4089H112.332ZM132.356 65.4636V69.5501L107.093 55.1411L107.572 54.0545L107.62 53.9837L107.667 53.9128L107.715 53.8655L108.887 55.212C109.246 54.3852 109.605 53.464 110.012 52.6609L110.538 52.9679L111.304 53.8419L111.447 53.4876L132.404 65.4164L132.356 65.4636ZM111.376 42.0313L110.658 41.6297L111.376 41.2281V42.0313ZM109.797 39.6455L110.777 40.2124L109.797 40.7793V39.6455ZM107.428 38.2991L109.366 39.4093V41.0156L108.696 41.3935L107.404 40.6612V38.2991H107.428ZM105.06 36.9527L106.998 38.0629V40.425L105.06 39.3148V36.9527ZM105.06 40.6612L106.998 41.7714V42.3856L105.443 43.2596L105.036 43.0234V40.6612H105.06ZM102.691 35.6063L104.629 36.7165V39.0786L102.691 37.9684V35.6063ZM102.691 39.3148L104.629 40.425V42.7872L102.691 41.6769V39.3148ZM100.323 34.2599L102.261 35.3701V37.7322L100.323 36.622V34.2599ZM100.323 37.9684L102.261 39.0786V41.4407L100.323 40.3305V37.9684ZM97.9545 32.9134L99.8923 34.0236V36.3858L97.9545 35.2756V32.9134ZM97.9545 36.622L99.8923 37.7322V40.0943L97.9545 38.9841V36.622ZM95.586 31.567L97.5238 32.6772V35.0394L95.586 33.9292V31.567ZM95.586 35.2756L97.5238 36.3858V38.7479L95.586 37.6377V35.2756ZM93.2176 30.2206L95.1554 31.3308V33.6929L93.2176 32.5827V30.2206ZM93.2176 33.9292L95.1554 35.0394V37.4015L93.2176 36.2913V33.9292ZM90.8492 28.8742L92.787 29.9844V32.3465L90.8492 31.2363V28.8742ZM90.8492 32.5827L92.787 33.6929V36.0551L90.8492 34.9449V32.5827ZM88.4808 27.5278L90.4186 28.638V31.0001L88.4808 29.8899V27.5278ZM88.4808 31.2363L90.4186 32.3465V34.7087L88.4808 33.5985V31.2363ZM86.1123 26.1814L88.0501 27.2916V29.6537L86.1123 28.5435V26.1814ZM86.1123 29.8899L88.0501 31.0001V33.3623L86.1123 32.252V29.8899ZM83.7439 24.835L85.6817 25.9452V28.3073L83.7439 27.1971V24.835ZM83.7439 28.5435L85.6817 29.6537V32.0158L83.7439 30.9056V28.5435ZM81.3755 23.4885L83.3133 24.5987V26.9609L81.3755 25.8507V23.4885ZM81.3755 27.1971L83.3133 28.3073V30.6694L81.3755 29.5592V27.1971ZM79.0071 22.1421L80.9449 23.2523V25.6145L79.0071 24.5043V22.1421ZM79.0071 25.8507L80.9449 26.9609V29.323L79.0071 28.2128V25.8507ZM76.6386 20.7957L78.5764 21.9059V24.268L76.6386 23.1578V20.7957ZM76.6386 24.5043L78.5764 25.6145V27.9766L76.6386 26.8664V24.5043ZM74.2702 19.4493L76.208 20.5595V22.9216L74.2702 21.8114V19.4493ZM74.2702 23.1578L76.208 24.268V26.6302L74.2702 25.52V23.1578ZM71.9018 18.1029L73.8396 19.2131V21.5752L71.9018 20.465V18.1029ZM71.9018 21.8114L73.8396 22.9216V25.2838L71.9018 24.1736V21.8114ZM69.5334 16.7565L71.4712 17.8667V20.2288L69.5334 19.1186V16.7565ZM69.5334 20.465L71.4712 21.5752V23.9373L69.5334 22.8271V20.465ZM67.1649 15.4101L69.1027 16.5203V18.8824L67.1649 17.7722V15.4101ZM67.1649 19.1186L69.1027 20.2288V22.5909L67.1649 21.4807V19.1186ZM64.7965 14.0636L66.7343 15.1738V17.536L64.7965 16.4258V14.0636ZM64.7965 17.7722L66.7343 18.8824V21.2445L64.7965 20.1343V17.7722ZM62.4281 14.229L63.7678 13.4731L64.3898 13.8274V16.1896L62.452 15.0794V14.229H62.4281ZM62.4281 16.4258L64.3659 17.536V19.8981L62.4281 18.7879V16.4258ZM60.0597 15.5754L60.5142 15.3156L62.0214 16.1659V18.5281L60.0836 17.4179V15.5518L60.0597 15.5754ZM59.629 15.8116V17.1817L58.409 16.4966L59.629 15.8116ZM84.4855 55.2828L37.4281 28.3782L57.452 16.9691L104.509 43.7792L84.4855 55.1883V55.2828ZM122.787 82.7544L85.0836 61.259V57.1725L124.007 79.3529V80.2742C124.007 80.4631 124.175 80.6285 124.366 80.6285C124.557 80.6285 124.725 80.4631 124.725 80.2742V79.7545L126.136 80.5576L122.954 82.3765C122.835 82.4473 122.763 82.5891 122.787 82.7308V82.7544ZM124.916 83.9591L123.265 83.0142H123.313L126.854 80.9592L128.505 81.904L124.916 83.9591ZM132.38 79.7073L128.983 81.6442L127.332 80.6993L130.443 78.9277C130.61 78.8333 130.658 78.6207 130.562 78.4553L132.356 79.471V79.7073H132.38ZM128.768 76.8727V72.7862L132.38 74.8413V78.9277L128.768 76.8727Z" fill="#4760FF"/>
<path d="M37.3549 80.0607C37.0678 80.3442 36.7568 80.6276 36.4219 80.8639L43.3118 84.785L43.9099 83.7693L37.3549 80.0371V80.0607Z" fill="#4760FF"/>
<path d="M108.6 53.3919L108.312 53.2266L108.552 53.51L108.6 53.3919Z" fill="#4760FF"/>
<path d="M107.402 42.0059V42.124L107.521 42.0531L107.402 42.0059Z" fill="#4760FF"/>
<path d="M61.9716 14.7469V14.3926L61.6367 14.5815L61.9716 14.7469Z" fill="#4760FF"/>
<path d="M21.661 91.5413C23.1443 90.4311 24.8189 89.2736 26.5414 88.0925C30.5367 85.3289 34.7472 82.3998 37.6419 79.3999C38.7903 78.1716 39.6754 76.6362 40.2735 74.8174C40.8716 72.9985 41.1826 70.9199 41.1826 68.5813C41.1826 62.2981 38.9338 55.3062 35.3214 49.1174C31.685 42.9286 26.685 37.5193 21.1826 34.3777C18.0247 32.5825 15.0342 31.7085 12.4027 31.7085C10.5366 31.7085 8.86199 32.1337 7.40266 32.9604C5.94333 33.7872 4.72323 35.0155 3.81414 36.5981C2.49835 38.8421 1.75672 41.8184 1.75672 45.4325C1.75672 47.771 2.06773 50.2748 2.68974 52.8259C3.31175 55.377 4.22084 57.999 5.41701 60.621C8.33568 66.9751 12.5701 74.7701 16.5893 82.1164C18.3835 85.3997 20.1299 88.5886 21.685 91.5413H21.661ZM35.7041 47.4875L38.6467 45.8104C36.8046 42.8341 34.5797 40.0468 31.9721 37.354C29.7233 35.2044 27.2352 33.1966 24.5079 31.7085C21.8046 30.244 18.862 29.3463 15.6802 29.37C14.7472 29.4408 14.0295 29.5589 13.3596 29.7479C12.7137 29.9369 12.0917 30.1731 11.35 30.551C11.685 30.5274 12.0438 30.5038 12.3787 30.5038C15.2017 30.5038 18.3835 31.4014 21.7328 33.3147C27.1156 36.3855 32.0199 41.5349 35.6802 47.4639L35.7041 47.4875ZM38.862 46.1647L35.9194 47.8418C36.063 48.0544 36.1826 48.2906 36.3261 48.5032C36.5175 48.8339 36.7089 49.1646 36.9003 49.4953L39.8429 47.8182C39.5558 47.2985 39.2448 46.7789 38.9338 46.2592L38.862 46.1411V46.1647ZM40.0343 48.1962L37.0917 49.8733C37.4027 50.4402 37.6898 51.0071 37.9769 51.5976L40.9194 49.9205C40.6324 49.33 40.3453 48.7631 40.0343 48.1962ZM41.0869 50.2984L38.1443 51.9756C38.4314 52.5661 38.6946 53.1566 38.9577 53.7472L41.8764 52.07C41.6132 51.4795 41.3501 50.889 41.0869 50.2984ZM42.0438 52.448L39.1252 54.1251C39.3883 54.7156 39.6276 55.3298 39.8429 55.9439L42.7616 54.2905C42.5223 53.6763 42.2831 53.0621 42.0438 52.4716V52.448ZM42.9051 54.6684L39.9864 56.3219C40.2017 56.936 40.4171 57.5502 40.6084 58.188L43.5271 56.5109C43.3118 55.8731 43.1204 55.2589 42.8812 54.6448L42.9051 54.6684ZM43.6706 56.936L40.752 58.5895C40.9434 59.2273 41.1108 59.8651 41.2783 60.5029L44.173 58.8494C44.0295 58.2116 43.862 57.5738 43.6706 56.9124V56.936ZM44.2687 59.2982L41.374 60.9517C41.5415 61.6131 41.6611 62.2745 41.7807 62.9358L44.6754 61.2824C44.5558 60.5973 44.4123 59.9596 44.2687 59.2982ZM44.7472 61.7312L41.8764 63.3847C41.996 64.0697 42.0917 64.7547 42.1635 65.4397L45.0104 63.8098C44.9386 63.1248 44.8668 62.4162 44.7711 61.7312H44.7472ZM45.0343 64.2823L42.2113 65.8885C42.2831 66.6208 42.307 67.3294 42.3309 68.0381L45.13 66.4318C45.13 65.7232 45.0821 64.9909 45.0343 64.2586V64.2823ZM45.13 66.9279L42.3309 68.5341V68.605C42.3309 69.3608 42.307 70.0931 42.2352 70.8017L44.9625 69.2427C44.9864 69.0301 45.0104 68.7939 45.0343 68.5813C45.0821 68.0381 45.1061 67.4948 45.13 66.9279ZM44.9147 69.7624L42.2113 71.2978C42.1156 72.1482 41.9721 72.9749 41.8046 73.7544L44.3644 72.3135C44.6276 71.4631 44.819 70.6128 44.9386 69.7624H44.9147ZM44.1252 72.904L41.6371 74.3213C41.5654 74.6284 41.4697 74.9119 41.374 75.1953C41.1587 75.8803 40.8716 76.5417 40.5845 77.1559L42.5702 76.0221C42.7616 75.7622 42.929 75.5024 43.1204 75.1953C43.5271 74.4394 43.862 73.6599 44.1491 72.904H44.1252ZM41.8764 76.896L40.2017 77.8409C39.795 78.5732 39.3166 79.2346 38.7903 79.8487L38.9099 79.7542C39.7472 79.022 40.5127 78.3606 41.2065 77.6283C41.4458 77.3921 41.6611 77.1323 41.8764 76.8724V76.896ZM26.2304 50.4402L29.3644 48.645L29.2687 48.5268L28.5032 47.6765L27.6898 46.8734L26.8764 46.1647L26.0151 45.5269L25.13 44.96L24.2448 44.5112L23.3835 44.1805L22.5701 43.9443L21.8046 43.8262H21.0869L20.3931 43.8971L19.7711 44.086L19.173 44.3695L17.6898 45.2199C18.9099 45.2671 20.2496 45.6687 21.685 46.4718C23.3357 47.4167 24.8907 48.8103 26.2304 50.4402ZM29.6276 48.9757L26.4936 50.7709C26.9003 51.2669 27.2591 51.8102 27.618 52.3535L30.7759 50.5583L30.6802 50.4166L30.0103 49.4481L29.6515 48.9757H29.6276ZM30.9912 50.9126L27.8572 52.7078C27.9529 52.8732 28.0725 53.0385 28.1682 53.2039C28.3835 53.5818 28.5989 53.9834 28.8142 54.3849L31.9721 52.5897L31.9003 52.448L31.3501 51.4323L31.0391 50.9362L30.9912 50.9126ZM32.1156 52.9677L28.9816 54.7629C29.2687 55.3534 29.5079 55.9439 29.7472 56.5581L32.8812 54.7629L32.8094 54.5739L32.3788 53.5109L32.1156 52.9913V52.9677ZM33.0008 55.1644L29.8668 56.9597C30.0821 57.5974 30.2735 58.2352 30.417 58.873L33.5271 57.1014L33.4553 56.7471L33.1682 55.6605L33.0008 55.1881V55.1644ZM33.6228 57.5266L30.5127 59.2982C30.6563 59.9832 30.752 60.6918 30.7759 61.3532L33.8381 59.6052V58.873L33.6706 57.81L33.6228 57.5266ZM33.862 60.1013L30.8237 61.8256C30.8237 61.8256 30.8237 62.0146 30.8237 62.1091C30.8237 62.8414 30.752 63.5264 30.6324 64.1405L33.5032 62.5107L33.6946 61.7784L33.8142 60.8808V60.1013H33.8381H33.862ZM33.2639 63.1484L30.4888 64.7311C30.3453 65.2507 30.1539 65.7468 29.9146 66.172L31.3979 65.3216L31.9242 64.9673L32.4027 64.5185L32.8094 63.9752L33.1682 63.3374L33.24 63.1484H33.2639ZM8.52706 42.1255L11.063 40.6846C11.1108 40.5428 11.1826 40.4011 11.2543 40.283C11.4457 39.8578 11.661 39.4563 11.9242 39.0547C11.685 39.1492 11.4218 39.2673 11.2065 39.409C10.1539 39.9996 9.29261 40.8972 8.62276 42.031L8.57491 42.1255H8.52706ZM10.8237 41.2987L8.19213 42.8105C7.83328 43.6136 7.5462 44.5112 7.35481 45.5033L10.2017 43.8735C10.2256 43.5664 10.2735 43.2593 10.3213 42.9522V42.905C10.4888 42.3381 10.6323 41.7948 10.8237 41.2987ZM10.1539 44.3695L7.25912 46.023C7.16343 46.7553 7.09166 47.5111 7.09166 48.3379L10.0342 46.6608C10.0342 45.9285 10.0582 45.1726 10.1299 44.3695H10.1539ZM10.0582 47.1332L7.09166 48.8103C7.09166 49.5189 7.16343 50.2276 7.2352 50.9362L10.2256 49.2355C10.2256 49.0938 10.2017 48.9757 10.1778 48.8339C10.106 48.267 10.0821 47.7001 10.0582 47.1096V47.1332ZM10.2974 49.7079L7.30697 51.4087C7.40266 52.07 7.52228 52.7551 7.66582 53.4165L10.6802 51.6921C10.5127 51.0071 10.3931 50.3457 10.2974 49.6843V49.7079ZM10.7998 52.1173L7.78544 53.8416C7.92898 54.4794 8.12036 55.1172 8.31175 55.755L11.35 54.0306C11.1347 53.3692 10.9673 52.7314 10.7998 52.1173ZM11.4697 54.4322L8.43137 56.1565C8.62276 56.7707 8.86199 57.3848 9.10123 57.999L12.1634 56.251C11.9481 55.7077 11.7328 55.1644 11.5414 54.5975L11.4936 54.4322H11.4697ZM12.307 56.6526L9.24477 58.4006C9.484 58.9911 9.74716 59.5816 10.0342 60.1722L13.0964 58.4242C12.8094 57.8573 12.5462 57.2667 12.307 56.6526ZM13.2878 58.8021L10.2256 60.5501C10.5127 61.117 10.7998 61.6839 11.1347 62.2508L14.1969 60.5029C13.8859 59.9359 13.5749 59.369 13.2878 58.8021ZM14.3883 60.8808L11.3261 62.6288L11.3979 62.7469C11.7089 63.2665 12.0199 63.7862 12.3548 64.2823L15.417 62.5343C15.0582 61.991 14.7232 61.4477 14.4122 60.8808H14.3883ZM15.6323 62.865L12.5701 64.613C12.929 65.1563 13.3118 65.6759 13.6945 66.1956L16.7567 64.4476C16.374 63.9279 15.9912 63.3847 15.6323 62.865ZM17.0199 64.7783L13.9577 66.5263C14.3644 67.046 14.7711 67.542 15.2017 68.0381L18.24 66.3137C18.24 66.3137 18.0247 66.0775 17.929 65.9594C17.618 65.5578 17.307 65.1799 17.0199 64.8019V64.7783ZM18.5271 66.6208L15.4888 68.3451C17.4027 70.4711 19.5079 72.2426 21.7567 73.5418C24.0534 74.8646 26.2304 75.4788 28.1443 75.4788C29.484 75.4788 30.7041 75.1717 31.7568 74.5812C31.9721 74.4631 32.1874 74.3213 32.4027 74.156C31.5893 74.2032 30.8955 74.156 30.2017 74.0379C29.1252 73.8489 28.0965 73.4946 26.7328 72.9513H26.7089C24.8189 71.9592 23.3118 71.0143 21.9481 69.9041C20.7759 68.9593 19.6993 67.8963 18.551 66.6208H18.5271ZM13.0008 38.7004C12.5462 39.3382 12.1874 39.9287 11.9003 40.5665C11.5414 41.3224 11.2783 42.1255 11.039 43.0703C10.728 45.1962 10.7041 47.0151 10.8955 48.7867C11.0869 50.5819 11.5414 52.3535 12.1874 54.3849C12.283 54.6448 12.3787 54.9282 12.4744 55.1881C12.2113 54.0779 12.0917 52.9913 12.0917 51.9283C12.0917 50.204 12.4505 48.7867 13.0964 47.7001C13.5749 46.897 14.1969 46.2592 14.9386 45.834C15.2256 45.6687 15.5366 45.5269 15.8716 45.4325C17.0677 44.7238 18.2639 44.0152 19.5319 43.4246H19.5797L20.2735 43.2121H20.3213L21.063 43.1176H21.9481L22.8094 43.2593C24.5558 43.7553 26.2544 44.7002 27.7615 45.9757C25.7759 43.7081 23.551 41.7948 21.1826 40.4484C18.8859 39.1256 16.7089 38.5114 14.795 38.5114C14.173 38.5114 13.5749 38.5823 13.0008 38.7004ZM18.5032 65.5342C19.8429 67.0696 21.039 68.2979 22.3788 69.3608C23.7185 70.4238 25.1778 71.3687 27.0199 72.3135C28.3357 72.8332 29.3166 73.1875 30.3213 73.3528C31.2065 73.4946 32.1156 73.5182 33.2639 73.3765C33.6706 72.9513 34.0295 72.4789 34.3405 71.9356C35.2974 70.3057 35.8237 68.1325 35.8237 65.5106C35.8237 62.8886 35.2974 60.1722 34.3883 57.4557C34.6515 58.9675 34.6515 60.4792 34.3883 61.8729L34.173 62.7233L33.862 63.5264V63.5736L33.4792 64.2586V64.3059L33.0008 64.8964L32.9529 64.9437L32.4505 65.4397L32.4027 65.4869C31.2783 66.2665 30.0343 66.9278 28.8142 67.6129C28.551 67.8491 28.2879 68.0381 27.9768 68.2034C27.2352 68.6286 26.374 68.8412 25.417 68.8412C24.1491 68.8412 22.7137 68.4396 21.2065 67.5656C20.2496 67.0223 19.3405 66.3373 18.4792 65.5578L18.5032 65.5342ZM8.21606 31.2833L10.7519 29.8424C11.6371 29.3936 12.3548 29.0865 13.0964 28.8739C13.862 28.6613 14.6275 28.5432 15.6084 28.4724H15.6323C19.0055 28.4251 22.1156 29.3936 24.9625 30.929C27.7855 32.4407 30.3213 34.5194 32.618 36.7162C35.441 39.598 37.7855 42.5979 39.7233 45.834C41.6611 49.0701 43.2161 52.5189 44.4601 56.3219C44.6994 57.1959 44.9386 58.0226 45.13 58.8494C45.3214 59.6761 45.4888 60.5029 45.6563 61.4005C46.0151 63.8807 46.1826 66.2901 45.9912 68.6522C45.7759 71.038 45.1539 73.3765 43.9338 75.6441C43.3118 76.6598 42.6419 77.5102 41.9003 78.2661C41.1587 79.022 40.3931 79.707 39.5319 80.4629C39.3644 80.581 38.6706 81.1479 38.5032 81.3132C36.1108 83.1793 33.6467 84.9273 31.1587 86.6516C29.2926 87.9508 27.4266 89.25 25.5845 90.62H25.5367L22.4984 92.3916C22.2591 92.5806 22.0199 92.7459 21.7807 92.9113L21.2304 93.3365L20.8955 92.7223C19.2687 89.6279 17.4027 86.2265 15.4888 82.7069C11.4697 75.337 7.21127 67.542 4.29261 61.1406C3.07251 58.4714 2.1395 55.755 1.49356 53.133C0.895475 50.4402 0.560547 47.8655 0.560547 45.4325C0.560547 41.6058 1.35002 38.4406 2.76151 36.0312C3.79022 34.2596 5.15385 32.8895 6.78065 31.9683C7.2352 31.7085 7.68974 31.4959 8.19213 31.3069L8.21606 31.2833ZM27.3548 53.6527C25.7759 50.9598 23.6228 48.6213 21.2304 47.2513C19.8668 46.4718 18.5988 46.1175 17.4984 46.1175C16.7089 46.1175 16.0151 46.3064 15.417 46.6371C14.8189 46.9915 14.3165 47.4875 13.9098 48.1489C13.3596 49.0938 13.0486 50.3693 13.0486 51.9283C13.0486 54.6448 14.0295 57.6683 15.5845 60.3611C17.1634 63.054 19.3166 65.3925 21.7089 66.7625C23.0725 67.542 24.3405 67.8963 25.441 67.8963C26.2304 67.8963 26.9242 67.7074 27.5223 67.3767C28.1204 67.046 28.6228 66.5263 29.0295 65.8649C29.5797 64.92 29.8907 63.6445 29.8907 62.1091C29.8907 59.3927 28.9099 56.3691 27.3548 53.6763V53.6527ZM21.7567 39.4563C25.9673 41.8656 29.795 45.9757 32.5462 50.7C35.2974 55.4243 36.996 60.7391 36.996 65.5578C36.996 68.3924 36.3979 70.7545 35.3453 72.5733C34.5797 73.8961 33.551 74.9355 32.307 75.6205C31.0869 76.3291 29.6754 76.6835 28.1204 76.6835C26.0151 76.6835 23.6467 75.9984 21.1347 74.5812C16.9242 72.1718 13.0964 68.0617 10.3452 63.3374C7.59405 58.6131 5.89548 53.2984 5.89548 48.4796C5.89548 45.6451 6.49357 43.2829 7.5462 41.4641C8.33568 40.1413 9.34046 39.1019 10.5845 38.4169C11.8046 37.7083 13.2161 37.354 14.7711 37.354C16.8764 37.354 19.2448 38.039 21.7567 39.4563Z" fill="#4760FF"/>
<path d="M36.4941 34.1413C36.4941 34.1413 36.6376 34.3539 36.5898 34.4484C36.518 34.5665 36.3745 34.5901 36.2788 34.5428L36.0156 34.3775C36.0156 34.3775 35.8721 34.1649 35.9199 34.0704C35.9917 33.9523 36.1352 33.9287 36.2309 33.9759L36.4941 34.1413Z" fill="#4760FF"/>
<path d="M72.5703 108.643C72.6899 108.784 72.7138 108.902 72.666 109.044C72.2832 110.131 67.2353 111.95 66.0392 112.209C61.4458 113.225 55.9913 112.753 51.8047 112.776C55.9434 111.973 60.3214 108.784 60.5846 105.808L68.4793 104.367L72.5463 108.643H72.5703Z" fill="#4760FF"/>
<path d="M50.0583 85.8019C49.8908 85.7074 49.7233 85.613 49.5319 85.5185L49.2688 85.4004L48.7664 85.1642C48.5989 85.0933 48.4315 85.0224 48.264 84.9752L48.0008 84.8807L47.7616 84.8098L47.5224 84.739L47.2831 84.6681C47.1157 84.6209 46.9721 84.5973 46.8286 84.5736L46.3501 84.5028H46.1348C45.9913 84.4791 45.8477 84.4555 45.6803 84.4555H45.2736C45.13 84.4555 45.0104 84.4791 44.8669 84.5028C44.7233 84.5028 44.6037 84.55 44.4602 84.5736L44.2927 84.6209L44.0774 84.6681L43.9099 84.7154C43.7903 84.7626 43.6707 84.8098 43.5511 84.8571L43.3836 84.9279C43.1922 85.0224 43.0487 85.1169 42.8573 85.2114C43.0248 85.2114 43.1683 85.2114 43.3358 85.235C43.4315 85.235 43.5271 85.235 43.6228 85.2586C47.6181 85.7547 51.398 88.92 54.1252 92.9828C54.4841 93.5025 54.819 94.0222 55.13 94.5654C56.1109 96.2662 56.9243 98.085 57.4506 99.8802C57.9769 101.628 58.264 103.376 58.264 105.053C58.264 106.234 58.1205 107.274 57.8573 108.219C57.7377 108.644 57.5942 109.022 57.4267 109.376C57.3549 109.518 57.2831 109.659 57.2114 109.801L57.5463 109.612L57.6898 109.518L57.8573 109.4L58.0008 109.282L58.1444 109.163L58.2879 109.022L58.4075 108.904L58.5511 108.762L58.6707 108.62L58.7903 108.455C58.7903 108.455 58.9339 108.242 59.0296 108.124L59.1492 107.959C59.2209 107.841 59.2927 107.699 59.3645 107.581C59.4363 107.439 59.4841 107.321 59.5559 107.203L59.6516 106.99C59.6994 106.849 59.7473 106.707 59.7951 106.565C59.8669 106.329 59.9387 106.093 59.9865 105.856C60.0343 105.597 60.0822 105.36 60.13 105.101V104.841L60.2018 104.581C60.2257 104.179 60.2497 103.825 60.2497 103.423V102.526L60.1779 101.912L60.1061 101.298C60.0343 100.872 59.9626 100.471 59.8669 100.046L59.7951 99.7385L59.7233 99.4078L59.6516 99.1007L59.5559 98.7937L59.3645 98.1559L59.2688 97.8488L59.0535 97.211L58.9339 96.904L58.6707 96.2662L58.3836 95.6284L58.0965 95.0142L57.7855 94.4001C57.4985 93.8804 57.2353 93.3844 56.9243 92.8883C56.7329 92.6049 56.5415 92.2978 56.3501 92.0143L56.1587 91.7309L55.9674 91.4474L55.752 91.164L55.3453 90.6207L55.13 90.3608L54.6994 89.8412C54.4841 89.5814 54.2449 89.3451 54.0296 89.0853L53.5511 88.6129L53.3118 88.3767L53.0726 88.1404L52.8334 87.9279L52.3549 87.5027C52.1157 87.2901 51.8525 87.1011 51.6133 86.9121L51.3501 86.7232C51.1827 86.6051 51.0152 86.487 50.8477 86.3689L50.3214 86.0382L50.0583 85.8964V85.8019ZM48.7185 98.77L47.7138 99.337L51.3023 104.345L48.7185 98.77ZM47.3549 98.7464L48.3597 98.1795L44.7712 93.1954L47.3549 98.7464ZM43.1922 89.7703L49.1731 98.0614C49.1731 98.0614 49.197 98.1086 49.2209 98.1323L53.5272 107.415C53.5989 107.581 53.5272 107.793 53.3597 107.888C53.1922 107.959 53.0248 107.888 52.9291 107.77L46.9243 99.4314C46.9243 99.4314 46.9004 99.3842 46.8764 99.3606L42.5941 90.101C42.5224 89.9357 42.5941 89.7231 42.7616 89.6286C42.9291 89.5577 43.0965 89.6286 43.1922 89.7467V89.7703ZM47.8573 91.1167C47.8573 91.1167 47.9051 91.3057 47.953 91.4002C47.953 91.4002 48.0726 91.5892 48.1683 91.6364C48.1922 91.6364 48.2161 91.6364 48.2401 91.66C48.2401 91.66 48.2401 91.6364 48.2401 91.6128C48.2401 91.5183 48.1922 91.4238 48.1444 91.3293C48.0965 91.2348 48.0008 91.1404 47.9291 91.0931C47.9051 91.0931 47.8812 91.0931 47.8573 91.0695C47.8573 91.0695 47.8573 91.0931 47.8573 91.1167ZM47.5463 91.6364C47.4506 91.4711 47.4027 91.2821 47.3788 91.1167C47.3788 90.975 47.4028 90.8805 47.4506 90.8097C47.4984 90.7388 47.5463 90.6915 47.5941 90.6679H47.6181C47.6181 90.6679 47.7616 90.5971 47.8573 90.5971C47.953 90.5971 48.0487 90.6207 48.1683 90.6916C48.3118 90.786 48.4554 90.9278 48.5511 91.0931C48.6468 91.2585 48.6946 91.4474 48.7185 91.6128C48.7185 91.7309 48.6946 91.8254 48.6468 91.8962C48.6468 91.8962 48.5511 92.038 48.4793 92.0852C48.4793 92.0852 48.3358 92.1561 48.2401 92.1561C48.1444 92.1561 48.0487 92.1325 47.9291 92.0616C47.7855 91.9671 47.642 91.8254 47.5463 91.6836V91.6364ZM54.4363 102.195C54.4363 102.195 54.3884 102.195 54.3645 102.172C54.3645 102.172 54.3645 102.219 54.3645 102.242C54.3645 102.337 54.3884 102.455 54.4602 102.549C54.4602 102.549 54.5798 102.738 54.6755 102.786C54.6994 102.786 54.7233 102.786 54.7473 102.809C54.7473 102.809 54.7473 102.762 54.7473 102.738C54.7473 102.644 54.7233 102.526 54.6516 102.431C54.6516 102.431 54.5319 102.242 54.4363 102.195ZM54.3645 101.699C54.3645 101.699 54.5559 101.723 54.6755 101.794C54.819 101.888 54.9626 102.03 55.0583 102.172C55.154 102.36 55.2257 102.549 55.2257 102.715C55.2257 102.833 55.2018 102.927 55.154 102.998C55.154 102.998 55.0583 103.14 55.0104 103.164C55.0104 103.164 54.8669 103.234 54.7712 103.234C54.6755 103.234 54.5798 103.211 54.4602 103.14C54.3166 103.045 54.1731 102.904 54.0774 102.762C53.9817 102.573 53.9099 102.384 53.9099 102.219C53.9099 102.101 53.9339 102.006 53.9817 101.935C53.9817 101.935 54.0774 101.794 54.1252 101.77C54.1252 101.77 54.2688 101.699 54.3645 101.699ZM41.6611 95.3449H41.709C41.709 95.3449 41.709 95.2977 41.709 95.2741C41.709 95.1796 41.685 95.0615 41.6133 94.967C41.5654 94.8725 41.4697 94.778 41.398 94.7308C41.374 94.7308 41.3501 94.7308 41.3262 94.7072C41.3262 94.7072 41.3262 94.7544 41.3262 94.778C41.3262 94.8725 41.3501 94.9906 41.4219 95.0851C41.4697 95.1796 41.5654 95.2741 41.6372 95.3213L41.6611 95.3449ZM41.7329 95.841C41.7329 95.841 41.5415 95.8174 41.4458 95.7701C41.3023 95.6756 41.1587 95.5339 41.063 95.3686C40.9673 95.2032 40.8956 95.0143 40.8956 94.8253C40.8956 94.7072 40.9195 94.6127 40.9673 94.5418C40.9673 94.5418 41.063 94.4001 41.1109 94.3765C41.1109 94.3765 41.2544 94.3056 41.3501 94.3056C41.4458 94.3056 41.5415 94.3292 41.6611 94.4001C41.8047 94.4946 41.9482 94.6363 42.0439 94.8017C42.1396 94.967 42.2114 95.156 42.2114 95.3449C42.2114 95.4631 42.1874 95.5575 42.1396 95.6284C42.1396 95.6284 42.0439 95.7701 41.9721 95.7938C41.9721 95.7938 41.8286 95.8646 41.7329 95.8646V95.841ZM48.2401 106.423C48.2401 106.423 48.1922 106.211 48.1444 106.116C48.0965 106.022 48.0008 105.927 47.9291 105.88C47.9051 105.88 47.8812 105.88 47.8573 105.856C47.8573 105.856 47.8573 105.904 47.8573 105.927C47.8573 106.022 47.8812 106.14 47.953 106.234C48.0008 106.329 48.0965 106.423 48.1683 106.471C48.1683 106.471 48.2161 106.471 48.2161 106.494C48.2161 106.494 48.2161 106.447 48.2161 106.423H48.2401ZM48.5511 105.88C48.6468 106.045 48.7185 106.234 48.7185 106.423C48.7185 106.541 48.6946 106.636 48.6468 106.73C48.5989 106.801 48.5511 106.849 48.4793 106.896C48.4075 106.943 48.3358 106.967 48.2401 106.967C48.1444 106.967 48.0487 106.943 47.953 106.896C47.8094 106.801 47.6659 106.66 47.5702 106.494C47.4745 106.329 47.4028 106.14 47.4028 105.951C47.4028 105.833 47.4267 105.715 47.4745 105.644C47.5224 105.573 47.5702 105.526 47.642 105.478C47.642 105.478 47.7855 105.408 47.8812 105.408C47.9769 105.408 48.0726 105.431 48.1922 105.502C48.3358 105.597 48.4793 105.738 48.575 105.904L48.5511 105.88ZM51.398 90.9278L51.3023 90.8333L50.8717 90.3845L50.6803 90.1955L50.6085 90.1246L50.465 89.9829L50.4171 89.9357C50.1779 89.6995 49.9386 89.4869 49.6994 89.2743L49.197 88.8727L48.9578 88.6837L48.7185 88.4948H48.6707L48.4554 88.3058H48.4315L48.2161 88.1404H48.1683V88.0932H48.1205C47.8812 87.9279 47.642 87.7625 47.4028 87.6208L47.1396 87.4791L46.8764 87.3373C46.6133 87.1956 46.374 87.0775 46.1109 86.9594C45.9434 86.8885 45.776 86.8177 45.6085 86.7468C45.441 86.6759 45.2736 86.6287 45.1061 86.5578L44.8669 86.487L44.6276 86.4161L44.3884 86.3452L44.1492 86.298C43.9817 86.2744 43.8382 86.2507 43.6946 86.2035H43.4793C43.3358 86.1563 43.1922 86.1563 43.0487 86.1326H42.5941C42.4745 86.1326 42.3549 86.1326 42.2114 86.1326H42.02L41.8047 86.1799H41.6133V86.2271H41.5893C41.5893 86.2271 41.374 86.298 41.2544 86.3216C41.1348 86.3688 41.0152 86.3925 40.8956 86.4397L40.752 86.5106L40.5846 86.5814L40.3932 86.6759C40.3932 86.6759 40.2975 86.7232 40.2496 86.7704C39.3645 87.2665 38.6468 88.0696 38.1683 89.1562C37.6898 90.2191 37.4267 91.5419 37.4267 93.1009C37.4267 94.6599 37.7137 96.337 38.1922 98.0142C38.7185 99.7385 39.4841 101.486 40.4171 103.093C41.374 104.723 42.4984 106.234 43.7664 107.557C44.9626 108.809 46.3023 109.872 47.6898 110.675C49.0535 111.455 50.3453 111.88 51.5176 111.998C52.6898 112.116 53.7664 111.903 54.6516 111.407H54.6755C54.6755 111.407 54.7473 111.36 54.7951 111.313L54.9626 111.195L55.13 111.077C55.13 111.077 55.3214 110.935 55.4171 110.841L55.5607 110.699C55.5607 110.699 55.7281 110.51 55.8238 110.415L55.9434 110.274L56.063 110.108L56.1827 109.943L56.2784 109.825L56.3262 109.754C56.398 109.636 56.4458 109.518 56.5176 109.423L56.6133 109.258L56.709 109.069V109.022C56.7568 108.88 56.8286 108.762 56.8764 108.62L56.9482 108.408L57.02 108.219V108.148H57.0439V108.1C57.0678 107.982 57.1157 107.864 57.1396 107.746L57.1875 107.557V107.439L57.2353 107.368V107.297C57.2353 107.297 57.2592 107.179 57.2592 107.108V107.037C57.2592 107.037 57.2831 106.919 57.3071 106.849V106.801V106.754V106.683V106.636V106.589V106.541C57.3071 106.541 57.3071 106.4 57.331 106.329V106.282C57.331 106.164 57.3549 106.045 57.3549 105.904V105.762V105.667C57.3549 105.431 57.3549 105.195 57.3549 104.959V104.793V104.746V104.699C57.3549 104.392 57.3549 104.108 57.3071 103.801V103.683V103.636V103.589V103.542V103.211H57.2592V103.164V102.998V102.951C57.2353 102.786 57.2114 102.597 57.1875 102.431L57.1396 102.148V102.053L57.0918 101.888V101.699L57.0439 101.628L56.9961 101.392V101.227L56.9243 101.085V100.99L56.8764 100.92L56.8286 100.778V100.683L56.7808 100.612V100.518L56.5894 99.9039C56.0391 98.1086 55.3214 96.5496 54.4123 94.9434V94.8961H54.3884C54.2209 94.5891 54.0296 94.3056 53.8382 93.9985L53.6468 93.7151L53.4554 93.4316C52.9291 92.6757 52.3788 91.9671 51.7807 91.2585L51.5654 90.9986L51.5176 90.9278L51.4697 90.8569L51.4219 90.786L51.398 90.9278ZM55.2018 112.022C55.2018 112.022 55.1061 112.069 55.0583 112.092H55.0343C53.9817 112.707 52.7377 112.966 51.3501 112.825C50.0343 112.707 48.6228 112.234 47.1396 111.384C45.6803 110.557 44.2927 109.423 43.0248 108.1C41.709 106.73 40.5367 105.148 39.5558 103.471C38.575 101.77 37.7616 99.9747 37.2353 98.1795C36.709 96.4315 36.4219 94.6836 36.4219 93.0064C36.4219 91.3293 36.709 89.8648 37.2592 88.6837C37.8334 87.4318 38.6707 86.487 39.7472 85.8728C39.819 85.8492 39.8669 85.8019 39.9386 85.7783L42.8812 84.1012C45.3453 82.8965 47.6898 83.5343 50.0104 84.6445V65.086L49.9386 64.9207C49.9386 64.9207 49.8908 64.8262 49.8908 64.779C49.8429 64.5191 50.0104 64.2829 50.2736 64.2357L69.8908 60.8106C70.0344 60.787 70.2018 60.8342 70.3214 60.9523L79.7473 71.3221H96.9722C97.2353 71.3221 97.4507 71.5347 97.4507 71.7945V114.36C97.4507 114.62 97.2353 114.833 96.9722 114.833H77.977C77.8334 114.833 77.6899 114.762 77.6181 114.667L68.4076 104.628L60.8238 105.951C59.9626 108.219 58.2162 110.297 55.2736 111.974L55.2018 112.022ZM41.063 88.2113C41.5176 87.9515 41.996 87.7861 42.5224 87.668C43.0248 87.5735 43.575 87.5499 44.1492 87.5972C44.6994 87.6444 45.2736 87.7861 45.8716 87.9751C46.4458 88.1641 47.0439 88.4475 47.642 88.7782H47.6659C48.264 89.1325 48.8382 89.5341 49.3884 89.9593C49.9626 90.4081 50.5128 90.9278 51.0391 91.4711C51.5654 92.038 52.0918 92.6285 52.5702 93.2663C53.0487 93.9041 53.5032 94.5891 53.9099 95.2741C54.3166 95.9827 54.6755 96.6914 54.9865 97.4236C55.2975 98.1559 55.5846 98.8881 55.7999 99.6204C56.0152 100.353 56.1827 101.061 56.3023 101.794C56.4219 102.502 56.4697 103.211 56.4697 103.872C56.4697 104.534 56.4219 105.195 56.3023 105.786C56.1827 106.4 56.0152 106.943 55.776 107.439C55.5367 107.959 55.2496 108.408 54.9147 108.785C54.5798 109.187 54.1731 109.494 53.7185 109.754C53.264 110.014 52.7855 110.179 52.2592 110.297C51.7568 110.392 51.2066 110.415 50.6324 110.368C50.0822 110.321 49.508 110.179 48.9099 109.99C48.3358 109.801 47.7377 109.518 47.1396 109.187C46.5415 108.856 45.9673 108.455 45.3932 108.006C44.819 107.557 44.2688 107.038 43.7425 106.494C43.2161 105.927 42.6898 105.337 42.2114 104.699C41.7329 104.061 41.2783 103.376 40.8716 102.691C40.4649 102.006 40.1061 101.274 39.7712 100.542C39.4602 99.8094 39.1731 99.0771 38.9578 98.3449C38.7425 97.6126 38.575 96.904 38.4554 96.1717C38.3358 95.4631 38.2879 94.7544 38.2879 94.093C38.2879 93.4316 38.3358 92.7702 38.4554 92.1797C38.575 91.5655 38.7425 91.0222 38.9817 90.5262C39.2209 90.0065 39.508 89.5577 39.8429 89.1798C40.1779 88.7782 40.5846 88.4711 41.0391 88.2113H41.063ZM42.6898 88.5893C42.4984 88.6365 42.3071 88.6837 42.1157 88.7546C41.5654 89.1562 41.087 89.7467 40.752 90.479C40.3692 91.3293 40.1539 92.4159 40.1539 93.6678C40.1539 96.2662 41.087 99.1716 42.5702 101.746C44.0774 104.345 46.1587 106.589 48.4315 107.888C49.5559 108.526 50.6085 108.88 51.5654 108.974C52.3549 109.045 53.0726 108.951 53.7185 108.667C53.8621 108.549 54.0056 108.408 54.1492 108.266C54.4363 107.935 54.6755 107.581 54.8669 107.132C55.0583 106.707 55.2257 106.211 55.3214 105.691C55.4171 105.171 55.465 104.581 55.465 103.967C55.465 103.353 55.4171 102.691 55.2975 102.03C55.2018 101.345 55.0343 100.66 54.819 99.9747C54.6037 99.2661 54.3406 98.5574 54.0535 97.8724C53.7425 97.1874 53.4075 96.5024 53.0248 95.841C52.642 95.156 52.2114 94.4946 51.7568 93.904C51.3023 93.2899 50.8238 92.723 50.3214 92.2033C49.819 91.6836 49.2927 91.2112 48.7664 90.7624C48.2401 90.3609 47.7138 89.9829 47.1635 89.6758H47.1396C46.5893 89.3451 46.063 89.1089 45.5367 88.92C45.0104 88.731 44.508 88.6365 44.0295 88.5893C43.5511 88.542 43.0965 88.5656 42.6898 88.6365V88.5893ZM39.7712 91.1167C39.6037 91.4947 39.4841 91.9199 39.3884 92.3687C39.2927 92.8883 39.2448 93.4789 39.2448 94.1166C39.2448 94.7544 39.2927 95.4158 39.4123 96.0536C39.508 96.7386 39.6755 97.4236 39.8908 98.1086C40.1061 98.8173 40.3692 99.5259 40.6563 100.211C40.9673 100.896 41.3023 101.581 41.709 102.266C42.0917 102.927 42.5224 103.589 42.9769 104.179C43.4315 104.793 43.9099 105.36 44.4123 105.88C44.9147 106.4 45.441 106.872 45.9673 107.321C46.4937 107.746 47.0439 108.1 47.5941 108.431C48.1444 108.738 48.6707 108.998 49.197 109.163C49.6516 109.329 50.0822 109.423 50.5128 109.47C49.7472 109.282 48.9339 108.951 48.0965 108.478C45.7042 107.108 43.5271 104.77 41.9721 102.101C40.4171 99.4078 39.4602 96.3843 39.4602 93.6678C39.4602 92.723 39.5798 91.8726 39.7951 91.1404L39.7712 91.1167ZM60.6324 97.9433V97.7543C60.6324 97.589 60.776 97.4236 60.9434 97.4L68.0487 96.1481V93.7387L61.0391 94.967C60.8477 94.9906 60.6564 94.8725 60.6324 94.6836V81.1249C60.6324 80.9596 60.752 80.7942 60.9195 80.7706L68.0248 79.5423V77.1329L61.0152 78.3612C60.8238 78.3848 60.6324 78.2667 60.6085 78.0778V66.0781L58.3119 66.4797V78.5266C58.3119 78.6919 58.1683 78.8573 58.0008 78.8809L51.6611 79.9911V82.4005L57.8812 81.3139C58.0726 81.2903 58.264 81.4084 58.2879 81.5973V93.1009C59.2688 94.6835 60.0583 96.3134 60.5846 97.9433H60.6324ZM57.642 91.9907V82.0698L51.709 83.1091V85.7075C53.2162 86.7468 54.2927 87.8806 55.6803 89.3688C56.3741 90.2191 57.0439 91.0931 57.6659 92.0143L57.642 91.9907ZM50.9913 85.235V67.519C50.9913 67.519 50.9195 67.4482 50.9195 67.3773L50.6803 66.8104V85.0224C50.6803 85.0224 50.8956 85.1405 50.9913 85.2114V85.235ZM61.3501 101.274C61.4219 102.006 61.4219 102.715 61.3501 103.423V104.912L68.0487 103.731V96.8567L61.3501 98.0142V101.25V101.274ZM69.0056 96.4315L72.3549 100.069C72.3549 100.069 72.4506 100.211 72.4506 100.305V107.699L73.1923 108.502V101.864C73.1923 101.675 73.3597 101.51 73.5511 101.51C73.6707 101.51 73.7664 101.557 73.8382 101.652L77.4985 105.644V103.565L73.2879 99.0062C73.2879 99.0062 73.1923 98.8645 73.1923 98.77V92.9828C73.1923 92.7938 73.3597 92.6285 73.5511 92.6285C73.6707 92.6285 73.7664 92.6757 73.8382 92.7702L77.4985 96.7622V95.8882L72.4745 90.4317V97.211C72.4745 97.4 72.3071 97.5654 72.1157 97.5654C71.9961 97.5654 71.9004 97.5181 71.8286 97.4236L69.0296 94.3765V96.4552L69.0056 96.4315ZM71.7329 106.943V100.447L69.0056 97.4709V103.967L71.7329 106.943ZM77.4746 106.683L73.886 102.786V109.282L77.4746 113.179V106.683ZM77.4746 97.7779L73.886 93.8804V98.6283L77.4746 102.526V97.7779ZM69.0056 93.3135L71.7329 96.2898V89.5105C71.7329 89.5105 71.7808 89.3215 71.8525 89.2507C71.9961 89.1089 72.2114 89.1325 72.3549 89.2507L77.4746 94.8253V90.0774L69.0056 80.8651V93.3135ZM96.4459 87.2901H88.7186C88.5272 87.2901 88.3597 87.1247 88.3597 86.9358V74.9361H87.1636V86.9358C87.1636 87.1247 86.9961 87.2901 86.8047 87.2901H78.3836V89.7231H86.8047C86.9961 89.7231 87.1636 89.8884 87.1636 90.0774V95.8882C87.1636 96.0772 86.9961 96.2426 86.8047 96.2426H78.3836V97.4472H88.3358V90.0774C88.3358 89.8884 88.5033 89.7231 88.6947 89.7231H96.4219V87.2901H96.4459ZM89.0774 74.9361V86.5814H96.4459V74.9361H89.0774ZM78.4076 86.5814H86.4698V74.9361H78.4076V86.5814ZM78.4076 95.5103H86.4698V90.4081H78.4076V95.5103ZM96.4459 90.4081H89.0774V97.7779C89.0774 97.9669 88.91 98.1323 88.7186 98.1323H78.4076V103.211H96.4459V90.4081ZM77.4506 86.9358L68.9817 77.7235V79.8021L77.4506 89.0144V86.9358ZM68.9817 76.6841L77.4506 85.8964V74.6527L68.9817 65.4404V76.6841ZM78.3836 106.329H96.4219V103.896H78.3836V106.329ZM96.4219 107.037H78.3836V113.935H96.4219V107.037ZM68.0248 93.0537V80.2746L61.3262 81.432V94.2111L68.0248 93.0537ZM68.0248 76.4243V64.779L61.3262 65.9364V77.5817L68.0248 76.4243ZM57.6181 66.5978L51.6851 67.6372V79.2825L57.6181 78.2431V66.5978ZM51.6133 66.6923L68.4076 63.7633H68.5272C68.5272 63.7633 68.7186 63.7869 68.8143 63.8577H68.8382V63.905H68.886L78.1444 74.0149H96.4459V72.3142H79.4841C79.3406 72.3142 79.197 72.2433 79.1253 72.1488L69.7473 61.8499L50.9673 65.1333L51.6372 66.7395L51.6133 66.6923Z" fill="#4760FF"/>
<path d="M56.4697 98.8172L59.8908 96.8566L59.6515 96.4551L56.2305 98.392L56.4697 98.8172Z" fill="#4760FF"/>
<path d="M57.5947 101.273L60.6808 99.5012L60.4416 99.0996L57.3555 100.848L57.5947 101.273Z" fill="#4760FF"/>
<path d="M57.8564 104.227L60.7033 102.597L60.4641 102.195L57.6172 103.802L57.8564 104.227Z" fill="#4760FF"/>
<path d="M57.7627 107.37L60.7053 105.693L60.466 105.268L57.5234 106.945L57.7627 107.37Z" fill="#4760FF"/>
<path d="M41.4463 102.077L42.2836 101.581L42.0444 101.18L41.207 101.676L41.4463 102.077Z" fill="#4760FF"/>
<path d="M42.5224 104.557L43.599 103.943L43.3598 103.518L42.2832 104.155L42.5224 104.557Z" fill="#4760FF"/>
<path d="M44.4111 106.564L45.4398 105.997L45.2006 105.572L44.1719 106.163L44.4111 106.564Z" fill="#4760FF"/>
<path d="M46.3271 108.574L47.6668 107.818L47.4276 107.393L46.0879 108.172L46.3271 108.574Z" fill="#4760FF"/>
</svg>
