<svg width="145" height="109" viewBox="0 0 145 109" fill="none" xmlns="http://www.w3.org/2000/svg">
<path d="M106.199 53.7539L106.272 57.3274L108.81 59.2236V86.3534L69.8867 108.767C73.6936 108.402 96.0468 104.829 99.8537 103.856C100.83 103.613 101.757 103.273 102.587 102.811L142.876 79.6195C143.779 79.0847 144.316 78.1853 144.316 77.1399C144.316 76.0946 143.779 75.1952 142.876 74.6603C133.774 69.458 115.374 58.9805 106.223 53.7782L106.199 53.7539Z" fill="#140C40" fill-opacity="0.5"/>
<path d="M70.5035 62.2736L107.198 41.1403L40.0748 2.57755L3.38051 23.6866L70.5035 62.2736ZM10.2774 23.3235L11.5159 21.1932L7.58177 23.4687L8.82029 24.1708L10.2774 23.3235ZM13.1187 20.2733L11.8802 22.4036L19.2627 18.1431L20.5012 16.0128L13.1187 20.2733ZM22.104 15.0929L20.8655 17.2232L28.2481 12.9626L29.4866 10.8324L22.104 15.0929ZM31.0894 9.91246L29.8509 12.0427L37.2334 7.78219L38.472 5.65192L31.0894 9.91246ZM40.0748 4.73203L38.8362 6.8623L39.7591 6.32973C39.929 6.2329 40.1476 6.2329 40.2933 6.32973L101.637 41.576L102.924 40.8256L40.0748 4.75624V4.73203ZM40.4633 21.7258L43.8389 15.916L39.9533 18.1431V22.0163L40.4633 21.7258ZM45.4417 14.9961L42.0661 20.8059L45.7574 18.6756V14.8024L45.4417 14.9719V14.9961ZM101.199 59.4413V54.7208L96.9253 57.1658V61.8862L101.199 59.4413ZM102.122 54.2124V58.9329L106.372 56.4879V51.7917L102.122 54.2366V54.2124ZM96.0025 62.443V57.7225L91.7284 60.1675V64.888L96.0025 62.443ZM90.8056 65.4206V60.7001L86.5315 63.145V67.8655L90.8056 65.4206ZM85.6087 68.3981V63.6776L81.3345 66.1226V70.8431L85.6087 68.3981ZM80.4117 71.3756V66.6551L76.1376 69.1001V73.8206L80.4117 71.3756ZM75.2148 74.3532V69.6327L71.0378 72.0292V76.7497L75.2148 74.3532ZM100.01 89.2651L108.242 75.0552V66.5583L92.6269 93.5014L100.01 89.2409V89.2651ZM108.242 76.895L101.612 88.3452L108.242 84.5204V76.895ZM91.0241 94.4213L108.218 64.7185V59.877L105.036 61.6926L83.6173 98.6576L90.9999 94.3971L91.0241 94.4213ZM82.0388 99.6017L103.458 62.6367L96.0754 66.8972L74.6562 103.862L82.0388 99.6017ZM73.0534 104.782L94.4726 67.8171L87.09 72.0777L71.5478 98.8997V105.654L73.0534 104.782ZM71.5478 97.0599L85.4872 72.9976L78.1047 77.2581L71.5478 88.5873V97.0841V97.0599ZM71.5478 86.7475L76.5019 78.178L71.5235 81.0345V86.7475H71.5478ZM53.6499 29.3028L57.0255 23.4929L53.1399 25.7443V29.6175L53.6499 29.327V29.3028ZM58.6283 22.5731L55.2527 28.3829L58.9197 26.2768V22.4036L58.6283 22.5731ZM69.605 76.5561V71.8356L65.3309 69.3906V74.1111L69.605 76.5561ZM64.4081 73.5785V68.858L60.134 66.4131V71.1336L64.4081 73.5785ZM59.2111 70.601V65.8805L54.937 63.4355V68.156L59.2111 70.601ZM54.0142 67.6235V62.903L49.7401 60.458V65.1785L54.0142 67.6235ZM48.8173 64.6459V59.9254L44.5431 57.4805V62.2009L48.8173 64.6459ZM43.6203 61.6684V56.9479L39.3462 54.5029V59.2234L43.6203 61.6684ZM38.4234 58.6908V53.9703L34.1493 51.5254V56.2459L38.4234 58.6908ZM33.2265 55.7133V50.9928L28.9523 48.5478V53.2683L33.2265 55.7133ZM28.0295 52.7358V48.0153L23.7554 45.5703V50.2908L28.0295 52.7358ZM22.8326 49.7582V45.0377L18.5585 42.5928V47.3133L22.8326 49.7582ZM17.6357 46.7807V42.0602L13.3615 39.6152V44.3357L17.6357 46.7807ZM12.4387 43.8031V39.0827L8.1646 36.6377V41.3582L12.4387 43.8031ZM7.24178 40.8256V36.1051L4.10905 34.3138V39.0342L7.24178 40.8256ZM107.683 48.5963L108.145 47.7974V42.9801L104.964 44.7957L100.301 52.8326L107.683 48.572V48.5963ZM98.6981 53.7767L103.361 45.7398L95.9782 50.0003L91.3156 58.0372L98.6981 53.7767ZM89.7128 58.9571L94.3755 50.9202L86.9929 55.1807L82.3302 63.2177L89.7128 58.9571ZM80.7274 64.1376L85.3901 56.1006L78.0075 60.3612L73.3449 68.3981L80.7274 64.1376ZM71.7421 69.318L76.4047 61.2811L71.4264 64.1376V69.4874L71.7421 69.318ZM12.7301 70.6494C12.973 70.7947 13.0701 71.1094 12.9244 71.3514C12.7787 71.5935 12.463 71.6903 12.2202 71.5451L7.72748 68.9549C7.48463 68.8096 7.38749 68.4949 7.5332 68.2529C7.67891 68.0108 7.99461 67.9139 8.23745 68.0592L12.7301 70.6494ZM12.7301 67.8655C12.973 68.0108 13.0701 68.3255 12.9244 68.5676C12.7787 68.8096 12.463 68.9065 12.2202 68.7612L7.72748 66.171C7.48463 66.0257 7.38749 65.7111 7.5332 65.469C7.67891 65.2269 7.99461 65.1301 8.23745 65.2753L12.7301 67.8655ZM12.7301 59.4897C12.973 59.6349 13.0701 59.9496 12.9244 60.1917C12.7787 60.4338 12.463 60.5306 12.2202 60.3854L7.72748 57.7952C7.48463 57.6499 7.38749 57.3352 7.5332 57.0931C7.67891 56.8511 7.99461 56.7542 8.23745 56.8995L12.7301 59.4897ZM12.7301 65.0816C12.973 65.2269 13.0701 65.5416 12.9244 65.7837C12.7787 66.0257 12.463 66.1226 12.2202 65.9773L7.72748 63.3871C7.48463 63.2419 7.38749 62.9272 7.5332 62.6851C7.67891 62.443 7.99461 62.3462 8.23745 62.4914L12.7301 65.0816ZM12.7301 62.2978C12.973 62.443 13.0701 62.7577 12.9244 62.9998C12.7787 63.2419 12.463 63.3387 12.2202 63.1935L7.72748 60.6032C7.48463 60.458 7.38749 60.1433 7.5332 59.9012C7.67891 59.6591 7.99461 59.5623 8.23745 59.7076L12.7301 62.2978ZM20.5255 75.152C20.7684 75.2973 20.8655 75.612 20.7198 75.854C20.5741 76.0961 20.2584 76.193 20.0156 76.0477L15.5229 73.4575C15.28 73.3122 15.1829 72.9976 15.3286 72.7555C15.4743 72.5134 15.79 72.4166 16.0329 72.5618L20.5255 75.152ZM20.5255 72.3681C20.7684 72.5134 20.8655 72.8281 20.7198 73.0702C20.5741 73.3122 20.2584 73.4091 20.0156 73.2638L15.5229 70.6736C15.28 70.5284 15.1829 70.2137 15.3286 69.9716C15.4743 69.7295 15.79 69.6327 16.0329 69.7779L20.5255 72.3681ZM20.5255 63.9923C20.7684 64.1376 20.8655 64.4523 20.7198 64.6943C20.5741 64.9364 20.2584 65.0332 20.0156 64.888L15.5229 62.2978C15.28 62.1525 15.1829 61.8378 15.3286 61.5958C15.4743 61.3537 15.79 61.2568 16.0329 61.4021L20.5255 63.9923ZM20.5255 69.5843C20.7684 69.7295 20.8655 70.0442 20.7198 70.2863C20.5741 70.5284 20.2584 70.6252 20.0156 70.4799L15.5229 67.8897C15.28 67.7445 15.1829 67.4298 15.3286 67.1877C15.4743 66.9456 15.79 66.8488 16.0329 66.9941L20.5255 69.5843ZM20.5255 66.8004C20.7684 66.9456 20.8655 67.2603 20.7198 67.5024C20.5741 67.7445 20.2584 67.8413 20.0156 67.6961L15.5229 65.1059C15.28 64.9606 15.1829 64.6459 15.3286 64.4038C15.4743 64.1618 15.79 64.0649 16.0329 64.2102L20.5255 66.8004ZM13.5558 73.7238V58.2309L6.95036 54.4303V69.9474L13.5558 73.7238ZM14.6001 58.8361V74.329L21.2055 78.1296V62.6367L14.6001 58.8361ZM5.42042 69.0517V53.0989C5.42042 52.9778 5.42042 52.8326 5.51756 52.7116C5.73613 52.3484 6.19754 52.2032 6.58609 52.4211L22.3469 61.4989C22.5897 61.62 22.7597 61.8862 22.7597 62.1767V79.0252L26.4024 81.1071V65.1543C26.4024 65.0332 26.4024 64.888 26.4996 64.767C26.7181 64.4038 27.1796 64.2586 27.5681 64.4765L43.3289 73.5543C43.5718 73.6754 43.7417 73.9417 43.7417 74.2321V91.0564L47.3845 93.1383V77.1855C47.3845 77.0644 47.3845 76.9192 47.4816 76.7981C47.7002 76.435 48.1616 76.2898 48.5501 76.5077L64.3109 85.5855C64.5538 85.7066 64.7238 85.9728 64.7238 86.2633V103.088L69.435 105.799V81.1797L2.33626 42.4717V67.1151L5.51756 68.9307L5.42042 69.0517ZM33.7122 82.7532C33.955 82.8985 34.0521 83.2132 33.9064 83.4552C33.7607 83.6973 33.445 83.7941 33.2022 83.6489L28.7095 81.0587C28.4666 80.9134 28.3695 80.5987 28.5152 80.3567C28.6609 80.1146 28.9766 80.0178 29.2195 80.163L33.7122 82.7532ZM33.7122 79.9693C33.955 80.1146 34.0521 80.4293 33.9064 80.6714C33.7607 80.9134 33.445 81.0103 33.2022 80.865L28.7095 78.2748C28.4666 78.1296 28.3695 77.8149 28.5152 77.5728C28.6609 77.3307 28.9766 77.2339 29.2195 77.3791L33.7122 79.9693ZM33.7122 71.5935C33.955 71.7388 34.0521 72.0535 33.9064 72.2955C33.7607 72.5376 33.445 72.6344 33.2022 72.4892L28.7095 69.899C28.4666 69.7537 28.3695 69.439 28.5152 69.197C28.6609 68.9549 28.9766 68.858 29.2195 69.0033L33.7122 71.5935ZM33.7122 77.1855C33.955 77.3307 34.0521 77.6454 33.9064 77.8875C33.7607 78.1296 33.445 78.2264 33.2022 78.0811L28.7095 75.4909C28.4666 75.3457 28.3695 75.031 28.5152 74.7889C28.6609 74.5468 28.9766 74.45 29.2195 74.5953L33.7122 77.1855ZM33.7122 74.4016C33.955 74.5468 34.0521 74.8615 33.9064 75.1036C33.7607 75.3457 33.445 75.4425 33.2022 75.2973L28.7095 72.7071C28.4666 72.5618 28.3695 72.2471 28.5152 72.005C28.6609 71.763 28.9766 71.6661 29.2195 71.8114L33.7122 74.4016ZM41.5076 87.2558C41.7504 87.4011 41.8475 87.7158 41.7018 87.9579C41.5561 88.1999 41.2404 88.2968 40.9976 88.1515L36.5049 85.5613C36.2621 85.4161 36.1649 85.1014 36.3106 84.8593C36.4563 84.6172 36.772 84.5204 37.0149 84.6656L41.5076 87.2558ZM41.5076 84.472C41.7504 84.6172 41.8475 84.9319 41.7018 85.174C41.5561 85.4161 41.2404 85.5129 40.9976 85.3676L36.5049 82.7774C36.2621 82.6322 36.1649 82.3175 36.3106 82.0754C36.4563 81.8333 36.772 81.7365 37.0149 81.8817L41.5076 84.472ZM41.5076 76.0961C41.7504 76.2414 41.8475 76.5561 41.7018 76.7981C41.5561 77.0402 41.2404 77.1371 40.9976 76.9918L36.5049 74.4016C36.2621 74.2563 36.1649 73.9416 36.3106 73.6996C36.4563 73.4575 36.772 73.3607 37.0149 73.5059L41.5076 76.0961ZM41.5076 81.6881C41.7504 81.8333 41.8475 82.148 41.7018 82.3901C41.5561 82.6322 41.2404 82.729 40.9976 82.5838L36.5049 79.9936C36.2621 79.8483 36.1649 79.5336 36.3106 79.2915C36.4563 79.0495 36.772 78.9526 37.0149 79.0979L41.5076 81.6881ZM41.5076 78.9042C41.7504 79.0495 41.8475 79.3642 41.7018 79.6062C41.5561 79.8483 41.2404 79.9451 40.9976 79.7999L36.5049 77.2097C36.2621 77.0644 36.1649 76.7497 36.3106 76.5077C36.4563 76.2656 36.772 76.1687 37.0149 76.314L41.5076 78.9042ZM34.5378 85.8276V70.3347L27.9324 66.5341V82.0512L34.5378 85.8276ZM35.5821 70.9399V86.4328L42.1875 90.2334V74.7405L35.5821 70.9399ZM54.6942 94.857C54.937 95.0023 55.0342 95.317 54.8884 95.5591C54.7427 95.8011 54.427 95.898 54.1842 95.7527L49.6915 93.1625C49.4487 93.0173 49.3515 92.7026 49.4972 92.4605C49.6429 92.2184 49.9586 92.1216 50.2015 92.2668L54.6942 94.857ZM54.6942 92.0732C54.937 92.2184 55.0342 92.5331 54.8884 92.7752C54.7427 93.0173 54.427 93.1141 54.1842 92.9688L49.6915 90.3786C49.4487 90.2334 49.3515 89.9187 49.4972 89.6766C49.6429 89.4345 49.9586 89.3377 50.2015 89.4829L54.6942 92.0732ZM54.6942 83.6973C54.937 83.8426 55.0342 84.1573 54.8884 84.3993C54.7427 84.6414 54.427 84.7382 54.1842 84.593L49.6915 82.0028C49.4487 81.8575 49.3515 81.5428 49.4972 81.3008C49.6429 81.0587 49.9586 80.9619 50.2015 81.1071L54.6942 83.6973ZM54.6942 89.2893C54.937 89.4345 55.0342 89.7492 54.8884 89.9913C54.7427 90.2334 54.427 90.3302 54.1842 90.185L49.6915 87.5947C49.4487 87.4495 49.3515 87.1348 49.4972 86.8927C49.6429 86.6507 49.9586 86.5538 50.2015 86.6991L54.6942 89.2893ZM54.6942 86.5054C54.937 86.6507 55.0342 86.9653 54.8884 87.2074C54.7427 87.4495 54.427 87.5463 54.1842 87.4011L49.6915 84.8109C49.4487 84.6656 49.3515 84.3509 49.4972 84.1088C49.6429 83.8668 49.9586 83.7699 50.2015 83.9152L54.6942 86.5054ZM62.4896 99.3597C62.7324 99.5049 62.8296 99.8196 62.6839 100.062C62.5381 100.304 62.2224 100.401 61.9796 100.255L57.4869 97.6651C57.2441 97.5199 57.1469 97.2052 57.2926 96.9631C57.4383 96.721 57.754 96.6242 57.9969 96.7694L62.4896 99.3597ZM62.4896 96.5758C62.7324 96.721 62.8296 97.0357 62.6839 97.2778C62.5381 97.5199 62.2224 97.6167 61.9796 97.4715L57.4869 94.8812C57.2441 94.736 57.1469 94.4213 57.2926 94.1792C57.4383 93.9371 57.754 93.8403 57.9969 93.9856L62.4896 96.5758ZM62.4896 88.1999C62.7324 88.3452 62.8296 88.6599 62.6839 88.902C62.5381 89.144 62.2224 89.2409 61.9796 89.0956L57.4869 86.5054C57.2441 86.3602 57.1469 86.0455 57.2926 85.8034C57.4383 85.5613 57.754 85.4645 57.9969 85.6097L62.4896 88.1999ZM62.4896 93.7919C62.7324 93.9371 62.8296 94.2518 62.6839 94.4939C62.5381 94.736 62.2224 94.8328 61.9796 94.6876L57.4869 92.0974C57.2441 91.9521 57.1469 91.6374 57.2926 91.3953C57.4383 91.1533 57.754 91.0564 57.9969 91.2017L62.4896 93.7919ZM62.4896 91.008C62.7324 91.1533 62.8296 91.468 62.6839 91.71C62.5381 91.9521 62.2224 92.049 61.9796 91.9037L57.4869 89.3135C57.2441 89.1682 57.1469 88.8535 57.2926 88.6115C57.4383 88.3694 57.754 88.2726 57.9969 88.4178L62.4896 91.008ZM55.5199 97.9314V82.4385L48.9144 78.6379V94.1308L55.5199 97.9072V97.9314ZM56.5641 83.0437V98.5366L63.1695 102.337V86.8443L56.5641 83.0437ZM46.4616 22.7909V26.6641L52.0228 29.8595V25.9863L46.4616 22.7909ZM52.8 31.2152C52.6543 31.312 52.46 31.312 52.29 31.2152L45.7088 27.4388C45.5388 27.342 45.4417 27.1725 45.4417 26.9788V21.9194C45.4417 21.75 45.5388 21.5563 45.7088 21.4837L52.5814 17.5379C52.7514 17.441 52.9457 17.4168 53.1399 17.5379L59.6483 21.3627C59.6483 21.3627 59.794 21.4595 59.8425 21.5563C59.8911 21.629 59.9154 21.7258 59.9154 21.8226V26.8578C59.9154 27.0515 59.8425 27.2209 59.6483 27.342L52.8242 31.2636L52.8 31.2152ZM52.5328 25.1149L58.3369 21.7742L52.8485 18.5304L46.9716 21.8952L52.5328 25.0906V25.1149ZM70.9892 108.631C70.6735 108.801 70.285 108.825 69.945 108.631L0.854893 68.616C0.539191 68.4465 0.320629 68.1076 0.320629 67.7203V40.7772C0.272059 40.3899 0.442052 40.0268 0.806323 39.8089L3.2348 38.4048V33.6844L0.879178 32.3287C0.563476 32.1593 0.344913 31.8204 0.344913 31.433V23.7592C0.296344 23.3719 0.490622 23.0088 0.830608 22.7909L39.5405 0.495694C39.8562 0.32624 40.2447 0.302033 40.5847 0.495694L109.748 40.2446C109.918 40.3415 110.088 40.4625 110.185 40.6562C110.282 40.8498 110.331 41.0435 110.331 41.2371V48.8383C110.379 49.2257 110.209 49.5888 109.845 49.8066L107.392 51.2107V55.907L109.748 57.2384C109.918 57.3352 110.088 57.4562 110.185 57.6499C110.282 57.8436 110.331 58.0372 110.331 58.2309V85.1256C110.379 85.5129 110.185 85.876 109.845 86.0939L71.0864 108.413L70.9892 108.631ZM70.2121 78.3959L4.25476 40.1962L3.38051 40.7046L70.5035 79.2915L107.198 58.1583L106.348 57.6741L70.795 78.1538C70.625 78.2506 70.4307 78.2506 70.285 78.1538L70.2121 78.3959ZM33.3479 14.9719V18.8451L38.9091 22.0405V18.1673L33.3479 14.9719ZM39.6862 23.3961C39.5405 23.4929 39.3462 23.4929 39.1762 23.3961L32.5951 19.6197C32.4251 19.5229 32.3279 19.3534 32.3279 19.1598V14.1004C32.3279 13.9309 32.4251 13.7373 32.5951 13.6646L39.4676 9.7188C39.6376 9.62197 39.8319 9.59776 40.0262 9.7188L46.5345 13.5436C46.5345 13.5436 46.6802 13.6404 46.7288 13.7373C46.7773 13.8099 46.8016 13.9067 46.8016 14.0036V19.0629C46.8016 19.2324 46.7045 19.4261 46.5345 19.4987L39.7348 23.4203L39.6862 23.3961ZM39.4191 17.2958L45.2231 13.9551L39.7348 10.7113L33.8821 14.0762L39.4433 17.2716L39.4191 17.2958ZM2.33626 25.478V30.8279L69.4836 69.4148V64.0649L2.33626 25.478ZM70.4307 59.5865L100.592 42.2054L40.0262 7.39487L9.84025 24.7759L70.4307 59.6107V59.5865ZM104.211 41.334L70.6978 60.6274C70.5521 60.7243 70.3578 60.7243 70.1878 60.6274L6.31896 23.9287C6.31896 23.9287 6.14897 23.8076 6.1004 23.735C5.95469 23.4929 6.05183 23.1782 6.29468 23.033L39.8076 3.71531C39.9533 3.61848 40.1476 3.61848 40.3176 3.71531L104.186 40.4141C104.186 40.4141 104.356 40.5351 104.405 40.6077C104.551 40.8498 104.454 41.1645 104.211 41.3098V41.334Z" fill="#140C40" fill-opacity="0.5"/>
</svg>
